G04 #@! TF.GenerationSoftware,KiCad,Pcbnew,7.0.10-7.0.10~ubuntu22.04.1*
G04 #@! TF.CreationDate,2024-01-07T20:53:07+01:00*
G04 #@! TF.ProjectId,Geiger Tube Driver,47656967-6572-4205-9475-626520447269,1.1*
G04 #@! TF.SameCoordinates,Original*
G04 #@! TF.FileFunction,Soldermask,Bot*
G04 #@! TF.FilePolarity,Negative*
%FSLAX46Y46*%
G04 Gerber Fmt 4.6, Leading zero omitted, Abs format (unit mm)*
G04 Created by KiCad (PCBNEW 7.0.10-7.0.10~ubuntu22.04.1) date 2024-01-07 20:53:07*
%MOMM*%
%LPD*%
G01*
G04 APERTURE LIST*
G04 APERTURE END LIST*
G36*
X75084866Y-111304766D02*
G01*
X75173239Y-111304766D01*
X75267593Y-111315027D01*
X75358286Y-111320121D01*
X75436297Y-111333375D01*
X75517692Y-111342228D01*
X75616827Y-111364049D01*
X75712067Y-111380231D01*
X75782406Y-111400495D01*
X75856067Y-111416709D01*
X75958574Y-111451248D01*
X76056893Y-111479573D01*
X76119045Y-111505317D01*
X76184417Y-111527344D01*
X76288715Y-111575597D01*
X76388428Y-111616900D01*
X76442068Y-111646546D01*
X76498874Y-111672827D01*
X76603243Y-111735624D01*
X76702503Y-111790483D01*
X76747599Y-111822480D01*
X76795755Y-111851455D01*
X76898321Y-111929423D01*
X76995167Y-111998139D01*
X77031908Y-112030972D01*
X77071590Y-112061138D01*
X77170412Y-112154747D01*
X77262742Y-112237258D01*
X77291553Y-112269498D01*
X77323131Y-112299410D01*
X77416173Y-112408948D01*
X77501861Y-112504833D01*
X77523383Y-112535166D01*
X77547436Y-112563483D01*
X77632634Y-112689140D01*
X77709517Y-112797497D01*
X77724576Y-112824745D01*
X77741880Y-112850266D01*
X77817197Y-112992329D01*
X77883100Y-113111572D01*
X77892691Y-113134727D01*
X77904174Y-113156386D01*
X77967585Y-113315536D01*
X78020427Y-113443107D01*
X78025682Y-113461350D01*
X78032419Y-113478257D01*
X78082018Y-113656896D01*
X78119769Y-113787933D01*
X78121926Y-113800633D01*
X78125115Y-113812116D01*
X78159106Y-114019457D01*
X78179879Y-114141714D01*
X78180259Y-114148481D01*
X78181167Y-114154020D01*
X78197856Y-114461838D01*
X78200000Y-114500000D01*
X78197856Y-114538164D01*
X78181167Y-114845979D01*
X78180259Y-114851516D01*
X78179879Y-114858286D01*
X78159102Y-114980569D01*
X78125115Y-115187883D01*
X78121927Y-115199363D01*
X78119769Y-115212067D01*
X78082010Y-115343130D01*
X78032419Y-115521742D01*
X78025683Y-115538646D01*
X78020427Y-115556893D01*
X77967574Y-115684489D01*
X77904174Y-115843613D01*
X77892693Y-115865268D01*
X77883100Y-115888428D01*
X77817184Y-116007694D01*
X77741880Y-116149733D01*
X77724579Y-116175248D01*
X77709517Y-116202503D01*
X77632618Y-116310880D01*
X77547436Y-116436516D01*
X77523387Y-116464827D01*
X77501861Y-116495167D01*
X77416156Y-116591071D01*
X77323131Y-116700589D01*
X77291559Y-116730494D01*
X77262742Y-116762742D01*
X77170393Y-116845269D01*
X77071590Y-116938861D01*
X77031915Y-116969020D01*
X76995167Y-117001861D01*
X76898301Y-117070590D01*
X76795755Y-117148544D01*
X76747609Y-117177512D01*
X76702503Y-117209517D01*
X76603222Y-117264387D01*
X76498874Y-117327172D01*
X76442079Y-117353447D01*
X76388428Y-117383100D01*
X76288694Y-117424411D01*
X76184417Y-117472655D01*
X76119058Y-117494676D01*
X76056893Y-117520427D01*
X75958554Y-117548757D01*
X75856067Y-117583290D01*
X75782420Y-117599500D01*
X75712067Y-117619769D01*
X75616807Y-117635954D01*
X75517692Y-117657771D01*
X75436309Y-117666622D01*
X75358286Y-117679879D01*
X75267588Y-117684972D01*
X75173239Y-117695234D01*
X75084866Y-117695234D01*
X75000000Y-117700000D01*
X74915134Y-117695234D01*
X74826761Y-117695234D01*
X74732411Y-117684972D01*
X74641714Y-117679879D01*
X74563691Y-117666622D01*
X74482307Y-117657771D01*
X74383187Y-117635953D01*
X74287933Y-117619769D01*
X74217582Y-117599501D01*
X74143932Y-117583290D01*
X74041438Y-117548755D01*
X73943107Y-117520427D01*
X73880945Y-117494678D01*
X73815582Y-117472655D01*
X73711295Y-117424407D01*
X73611572Y-117383100D01*
X73557925Y-117353450D01*
X73501125Y-117327172D01*
X73396764Y-117264380D01*
X73297497Y-117209517D01*
X73252396Y-117177516D01*
X73204244Y-117148544D01*
X73101683Y-117070580D01*
X73004833Y-117001861D01*
X72968089Y-116969025D01*
X72928409Y-116938861D01*
X72829588Y-116845253D01*
X72737258Y-116762742D01*
X72708445Y-116730501D01*
X72676868Y-116700589D01*
X72583823Y-116591048D01*
X72498139Y-116495167D01*
X72476617Y-116464835D01*
X72452563Y-116436516D01*
X72367358Y-116310849D01*
X72290483Y-116202503D01*
X72275424Y-116175256D01*
X72258119Y-116149733D01*
X72182791Y-116007649D01*
X72116900Y-115888428D01*
X72107310Y-115865277D01*
X72095825Y-115843613D01*
X72032399Y-115684425D01*
X71979573Y-115556893D01*
X71974318Y-115538655D01*
X71967580Y-115521742D01*
X71917961Y-115343034D01*
X71880231Y-115212067D01*
X71878074Y-115199372D01*
X71874884Y-115187883D01*
X71840869Y-114980401D01*
X71820121Y-114858286D01*
X71819741Y-114851525D01*
X71818832Y-114845979D01*
X71802114Y-114537648D01*
X71800000Y-114500000D01*
X71802114Y-114462354D01*
X71818832Y-114154020D01*
X71819741Y-114148472D01*
X71820121Y-114141714D01*
X71840864Y-114019625D01*
X71874884Y-113812116D01*
X71878074Y-113800624D01*
X71880231Y-113787933D01*
X71917954Y-113656992D01*
X71967580Y-113478257D01*
X71974319Y-113461341D01*
X71979573Y-113443107D01*
X72032388Y-113315599D01*
X72095825Y-113156386D01*
X72107312Y-113134718D01*
X72116900Y-113111572D01*
X72182778Y-112992373D01*
X72258119Y-112850266D01*
X72275427Y-112824737D01*
X72290483Y-112797497D01*
X72367343Y-112689172D01*
X72452563Y-112563483D01*
X72476621Y-112535158D01*
X72498139Y-112504833D01*
X72583806Y-112408970D01*
X72676868Y-112299410D01*
X72708451Y-112269492D01*
X72737258Y-112237258D01*
X72829569Y-112154763D01*
X72928409Y-112061138D01*
X72968097Y-112030967D01*
X73004833Y-111998139D01*
X73101663Y-111929433D01*
X73204244Y-111851455D01*
X73252405Y-111822477D01*
X73297497Y-111790483D01*
X73396744Y-111735630D01*
X73501125Y-111672827D01*
X73557936Y-111646543D01*
X73611572Y-111616900D01*
X73711275Y-111575601D01*
X73815582Y-111527344D01*
X73880958Y-111505315D01*
X73943107Y-111479573D01*
X74041418Y-111451250D01*
X74143932Y-111416709D01*
X74217596Y-111400494D01*
X74287933Y-111380231D01*
X74383167Y-111364049D01*
X74482307Y-111342228D01*
X74563704Y-111333375D01*
X74641714Y-111320121D01*
X74732406Y-111315027D01*
X74826761Y-111304766D01*
X74915134Y-111304766D01*
X75000000Y-111300000D01*
X75084866Y-111304766D01*
G37*
G36*
X222584866Y-111304766D02*
G01*
X222673239Y-111304766D01*
X222767593Y-111315027D01*
X222858286Y-111320121D01*
X222936297Y-111333375D01*
X223017692Y-111342228D01*
X223116827Y-111364049D01*
X223212067Y-111380231D01*
X223282406Y-111400495D01*
X223356067Y-111416709D01*
X223458574Y-111451248D01*
X223556893Y-111479573D01*
X223619045Y-111505317D01*
X223684417Y-111527344D01*
X223788715Y-111575597D01*
X223888428Y-111616900D01*
X223942068Y-111646546D01*
X223998874Y-111672827D01*
X224103243Y-111735624D01*
X224202503Y-111790483D01*
X224247599Y-111822480D01*
X224295755Y-111851455D01*
X224398321Y-111929423D01*
X224495167Y-111998139D01*
X224531908Y-112030972D01*
X224571590Y-112061138D01*
X224670412Y-112154747D01*
X224762742Y-112237258D01*
X224791553Y-112269498D01*
X224823131Y-112299410D01*
X224916173Y-112408948D01*
X225001861Y-112504833D01*
X225023383Y-112535166D01*
X225047436Y-112563483D01*
X225132634Y-112689140D01*
X225209517Y-112797497D01*
X225224576Y-112824745D01*
X225241880Y-112850266D01*
X225317197Y-112992329D01*
X225383100Y-113111572D01*
X225392691Y-113134727D01*
X225404174Y-113156386D01*
X225467585Y-113315536D01*
X225520427Y-113443107D01*
X225525682Y-113461350D01*
X225532419Y-113478257D01*
X225582018Y-113656896D01*
X225619769Y-113787933D01*
X225621926Y-113800633D01*
X225625115Y-113812116D01*
X225659106Y-114019457D01*
X225679879Y-114141714D01*
X225680259Y-114148481D01*
X225681167Y-114154020D01*
X225697856Y-114461838D01*
X225700000Y-114500000D01*
X225697856Y-114538164D01*
X225681167Y-114845979D01*
X225680259Y-114851516D01*
X225679879Y-114858286D01*
X225659102Y-114980569D01*
X225625115Y-115187883D01*
X225621927Y-115199363D01*
X225619769Y-115212067D01*
X225582010Y-115343130D01*
X225532419Y-115521742D01*
X225525683Y-115538646D01*
X225520427Y-115556893D01*
X225467574Y-115684489D01*
X225404174Y-115843613D01*
X225392693Y-115865268D01*
X225383100Y-115888428D01*
X225317184Y-116007694D01*
X225241880Y-116149733D01*
X225224579Y-116175248D01*
X225209517Y-116202503D01*
X225132618Y-116310880D01*
X225047436Y-116436516D01*
X225023387Y-116464827D01*
X225001861Y-116495167D01*
X224916156Y-116591071D01*
X224823131Y-116700589D01*
X224791559Y-116730494D01*
X224762742Y-116762742D01*
X224670393Y-116845269D01*
X224571590Y-116938861D01*
X224531915Y-116969020D01*
X224495167Y-117001861D01*
X224398301Y-117070590D01*
X224295755Y-117148544D01*
X224247609Y-117177512D01*
X224202503Y-117209517D01*
X224103222Y-117264387D01*
X223998874Y-117327172D01*
X223942079Y-117353447D01*
X223888428Y-117383100D01*
X223788694Y-117424411D01*
X223684417Y-117472655D01*
X223619058Y-117494676D01*
X223556893Y-117520427D01*
X223458554Y-117548757D01*
X223356067Y-117583290D01*
X223282420Y-117599500D01*
X223212067Y-117619769D01*
X223116807Y-117635954D01*
X223017692Y-117657771D01*
X222936309Y-117666622D01*
X222858286Y-117679879D01*
X222767588Y-117684972D01*
X222673239Y-117695234D01*
X222584866Y-117695234D01*
X222500000Y-117700000D01*
X222415134Y-117695234D01*
X222326761Y-117695234D01*
X222232411Y-117684972D01*
X222141714Y-117679879D01*
X222063691Y-117666622D01*
X221982307Y-117657771D01*
X221883187Y-117635953D01*
X221787933Y-117619769D01*
X221717582Y-117599501D01*
X221643932Y-117583290D01*
X221541438Y-117548755D01*
X221443107Y-117520427D01*
X221380945Y-117494678D01*
X221315582Y-117472655D01*
X221211295Y-117424407D01*
X221111572Y-117383100D01*
X221057925Y-117353450D01*
X221001125Y-117327172D01*
X220896764Y-117264380D01*
X220797497Y-117209517D01*
X220752396Y-117177516D01*
X220704244Y-117148544D01*
X220601683Y-117070580D01*
X220504833Y-117001861D01*
X220468089Y-116969025D01*
X220428409Y-116938861D01*
X220329588Y-116845253D01*
X220237258Y-116762742D01*
X220208445Y-116730501D01*
X220176868Y-116700589D01*
X220083823Y-116591048D01*
X219998139Y-116495167D01*
X219976617Y-116464835D01*
X219952563Y-116436516D01*
X219867358Y-116310849D01*
X219790483Y-116202503D01*
X219775424Y-116175256D01*
X219758119Y-116149733D01*
X219682791Y-116007649D01*
X219616900Y-115888428D01*
X219607310Y-115865277D01*
X219595825Y-115843613D01*
X219532399Y-115684425D01*
X219479573Y-115556893D01*
X219474318Y-115538655D01*
X219467580Y-115521742D01*
X219417961Y-115343034D01*
X219380231Y-115212067D01*
X219378074Y-115199372D01*
X219374884Y-115187883D01*
X219340869Y-114980401D01*
X219320121Y-114858286D01*
X219319741Y-114851525D01*
X219318832Y-114845979D01*
X219302114Y-114537648D01*
X219300000Y-114500000D01*
X219302114Y-114462354D01*
X219318832Y-114154020D01*
X219319741Y-114148472D01*
X219320121Y-114141714D01*
X219340864Y-114019625D01*
X219374884Y-113812116D01*
X219378074Y-113800624D01*
X219380231Y-113787933D01*
X219417954Y-113656992D01*
X219467580Y-113478257D01*
X219474319Y-113461341D01*
X219479573Y-113443107D01*
X219532388Y-113315599D01*
X219595825Y-113156386D01*
X219607312Y-113134718D01*
X219616900Y-113111572D01*
X219682778Y-112992373D01*
X219758119Y-112850266D01*
X219775427Y-112824737D01*
X219790483Y-112797497D01*
X219867343Y-112689172D01*
X219952563Y-112563483D01*
X219976621Y-112535158D01*
X219998139Y-112504833D01*
X220083806Y-112408970D01*
X220176868Y-112299410D01*
X220208451Y-112269492D01*
X220237258Y-112237258D01*
X220329569Y-112154763D01*
X220428409Y-112061138D01*
X220468097Y-112030967D01*
X220504833Y-111998139D01*
X220601663Y-111929433D01*
X220704244Y-111851455D01*
X220752405Y-111822477D01*
X220797497Y-111790483D01*
X220896744Y-111735630D01*
X221001125Y-111672827D01*
X221057936Y-111646543D01*
X221111572Y-111616900D01*
X221211275Y-111575601D01*
X221315582Y-111527344D01*
X221380958Y-111505315D01*
X221443107Y-111479573D01*
X221541418Y-111451250D01*
X221643932Y-111416709D01*
X221717596Y-111400494D01*
X221787933Y-111380231D01*
X221883167Y-111364049D01*
X221982307Y-111342228D01*
X222063704Y-111333375D01*
X222141714Y-111320121D01*
X222232406Y-111315027D01*
X222326761Y-111304766D01*
X222415134Y-111304766D01*
X222500000Y-111300000D01*
X222584866Y-111304766D01*
G37*
G36*
X83176546Y-110995805D02*
G01*
X83227907Y-111001764D01*
X83245453Y-111009511D01*
X83268170Y-111014030D01*
X83292487Y-111030278D01*
X83313293Y-111039465D01*
X83327504Y-111053676D01*
X83349276Y-111068224D01*
X83363823Y-111089995D01*
X83378034Y-111104206D01*
X83387219Y-111125010D01*
X83403470Y-111149330D01*
X83407988Y-111172047D01*
X83415735Y-111189592D01*
X83421696Y-111240966D01*
X83422499Y-111245002D01*
X83422499Y-111247883D01*
X83422500Y-111247892D01*
X83422500Y-111959134D01*
X83422500Y-112494999D01*
X83421694Y-112499048D01*
X83415735Y-112550407D01*
X83407989Y-112567949D01*
X83403470Y-112590670D01*
X83387218Y-112614991D01*
X83378034Y-112635793D01*
X83363825Y-112650001D01*
X83349276Y-112671776D01*
X83327501Y-112686325D01*
X83313293Y-112700534D01*
X83292491Y-112709718D01*
X83268170Y-112725970D01*
X83245450Y-112730488D01*
X83227907Y-112738235D01*
X83176534Y-112744196D01*
X83172498Y-112744999D01*
X83169615Y-112744999D01*
X83169607Y-112745000D01*
X82250393Y-112745000D01*
X82250392Y-112744999D01*
X82247501Y-112745000D01*
X82243451Y-112744194D01*
X82192092Y-112738235D01*
X82174548Y-112730488D01*
X82151830Y-112725970D01*
X82127510Y-112709719D01*
X82106706Y-112700534D01*
X82092495Y-112686323D01*
X82070724Y-112671776D01*
X82056176Y-112650004D01*
X82041965Y-112635793D01*
X82032778Y-112614987D01*
X82016530Y-112590670D01*
X82012011Y-112567954D01*
X82004264Y-112550407D01*
X81998303Y-112499033D01*
X81997501Y-112494998D01*
X81997500Y-112492115D01*
X81997500Y-112492107D01*
X81997500Y-111247892D01*
X81997500Y-111247891D01*
X81997500Y-111245001D01*
X81998304Y-111240954D01*
X82004264Y-111189592D01*
X82012011Y-111172044D01*
X82016530Y-111149330D01*
X82032777Y-111125014D01*
X82041965Y-111104206D01*
X82056178Y-111089992D01*
X82070724Y-111068224D01*
X82092492Y-111053678D01*
X82106706Y-111039465D01*
X82127514Y-111030277D01*
X82151830Y-111014030D01*
X82174543Y-111009512D01*
X82192092Y-111001764D01*
X82243467Y-110995803D01*
X82247502Y-110995001D01*
X82250384Y-110995000D01*
X82250393Y-110995000D01*
X83169607Y-110995000D01*
X83172499Y-110995000D01*
X83176546Y-110995805D01*
G37*
G36*
X86151546Y-110995805D02*
G01*
X86202907Y-111001764D01*
X86220453Y-111009511D01*
X86243170Y-111014030D01*
X86267487Y-111030278D01*
X86288293Y-111039465D01*
X86302504Y-111053676D01*
X86324276Y-111068224D01*
X86338823Y-111089995D01*
X86353034Y-111104206D01*
X86362219Y-111125010D01*
X86378470Y-111149330D01*
X86382988Y-111172047D01*
X86390735Y-111189592D01*
X86396696Y-111240966D01*
X86397499Y-111245002D01*
X86397499Y-111247883D01*
X86397500Y-111247892D01*
X86397500Y-111959134D01*
X86397500Y-112494999D01*
X86396694Y-112499048D01*
X86390735Y-112550407D01*
X86382989Y-112567949D01*
X86378470Y-112590670D01*
X86362218Y-112614991D01*
X86353034Y-112635793D01*
X86338825Y-112650001D01*
X86324276Y-112671776D01*
X86302501Y-112686325D01*
X86288293Y-112700534D01*
X86267491Y-112709718D01*
X86243170Y-112725970D01*
X86220450Y-112730488D01*
X86202907Y-112738235D01*
X86151534Y-112744196D01*
X86147498Y-112744999D01*
X86144615Y-112744999D01*
X86144607Y-112745000D01*
X85225393Y-112745000D01*
X85225392Y-112744999D01*
X85222501Y-112745000D01*
X85218451Y-112744194D01*
X85167092Y-112738235D01*
X85149548Y-112730488D01*
X85126830Y-112725970D01*
X85102510Y-112709719D01*
X85081706Y-112700534D01*
X85067495Y-112686323D01*
X85045724Y-112671776D01*
X85031176Y-112650004D01*
X85016965Y-112635793D01*
X85007778Y-112614987D01*
X84991530Y-112590670D01*
X84987011Y-112567954D01*
X84979264Y-112550407D01*
X84973303Y-112499033D01*
X84972501Y-112494998D01*
X84972500Y-112492115D01*
X84972500Y-112492107D01*
X84972500Y-111247892D01*
X84972500Y-111247891D01*
X84972500Y-111245001D01*
X84973304Y-111240954D01*
X84979264Y-111189592D01*
X84987011Y-111172044D01*
X84991530Y-111149330D01*
X85007777Y-111125014D01*
X85016965Y-111104206D01*
X85031178Y-111089992D01*
X85045724Y-111068224D01*
X85067492Y-111053678D01*
X85081706Y-111039465D01*
X85102514Y-111030277D01*
X85126830Y-111014030D01*
X85149543Y-111009512D01*
X85167092Y-111001764D01*
X85218467Y-110995803D01*
X85222502Y-110995001D01*
X85225384Y-110995000D01*
X85225393Y-110995000D01*
X86144607Y-110995000D01*
X86147499Y-110995000D01*
X86151546Y-110995805D01*
G37*
G36*
X86100000Y-107640000D02*
G01*
X84400000Y-107640000D01*
X84400000Y-105940000D01*
X86100000Y-105940000D01*
X86100000Y-107640000D01*
G37*
G36*
X82972664Y-105981602D02*
G01*
X83135000Y-106053878D01*
X83278761Y-106158327D01*
X83397664Y-106290383D01*
X83486514Y-106444274D01*
X83541425Y-106613275D01*
X83560000Y-106790000D01*
X83541425Y-106966725D01*
X83486514Y-107135726D01*
X83397664Y-107289617D01*
X83278761Y-107421673D01*
X83135000Y-107526122D01*
X82972664Y-107598398D01*
X82798849Y-107635344D01*
X82621151Y-107635344D01*
X82447336Y-107598398D01*
X82285000Y-107526122D01*
X82141239Y-107421673D01*
X82022336Y-107289617D01*
X81933486Y-107135726D01*
X81878575Y-106966725D01*
X81860000Y-106790000D01*
X81878575Y-106613275D01*
X81933486Y-106444274D01*
X82022336Y-106290383D01*
X82141239Y-106158327D01*
X82285000Y-106053878D01*
X82447336Y-105981602D01*
X82621151Y-105944656D01*
X82798849Y-105944656D01*
X82972664Y-105981602D01*
G37*
G36*
X82972664Y-103441602D02*
G01*
X83135000Y-103513878D01*
X83278761Y-103618327D01*
X83397664Y-103750383D01*
X83486514Y-103904274D01*
X83541425Y-104073275D01*
X83560000Y-104250000D01*
X83541425Y-104426725D01*
X83486514Y-104595726D01*
X83397664Y-104749617D01*
X83278761Y-104881673D01*
X83135000Y-104986122D01*
X82972664Y-105058398D01*
X82798849Y-105095344D01*
X82621151Y-105095344D01*
X82447336Y-105058398D01*
X82285000Y-104986122D01*
X82141239Y-104881673D01*
X82022336Y-104749617D01*
X81933486Y-104595726D01*
X81878575Y-104426725D01*
X81860000Y-104250000D01*
X81878575Y-104073275D01*
X81933486Y-103904274D01*
X82022336Y-103750383D01*
X82141239Y-103618327D01*
X82285000Y-103513878D01*
X82447336Y-103441602D01*
X82621151Y-103404656D01*
X82798849Y-103404656D01*
X82972664Y-103441602D01*
G37*
G36*
X85512664Y-103441602D02*
G01*
X85675000Y-103513878D01*
X85818761Y-103618327D01*
X85937664Y-103750383D01*
X86026514Y-103904274D01*
X86081425Y-104073275D01*
X86100000Y-104250000D01*
X86081425Y-104426725D01*
X86026514Y-104595726D01*
X85937664Y-104749617D01*
X85818761Y-104881673D01*
X85675000Y-104986122D01*
X85512664Y-105058398D01*
X85338849Y-105095344D01*
X85161151Y-105095344D01*
X84987336Y-105058398D01*
X84825000Y-104986122D01*
X84681239Y-104881673D01*
X84562336Y-104749617D01*
X84473486Y-104595726D01*
X84418575Y-104426725D01*
X84400000Y-104250000D01*
X84418575Y-104073275D01*
X84473486Y-103904274D01*
X84562336Y-103750383D01*
X84681239Y-103618327D01*
X84825000Y-103513878D01*
X84987336Y-103441602D01*
X85161151Y-103404656D01*
X85338849Y-103404656D01*
X85512664Y-103441602D01*
G37*
G36*
X82972664Y-100901602D02*
G01*
X83135000Y-100973878D01*
X83278761Y-101078327D01*
X83397664Y-101210383D01*
X83486514Y-101364274D01*
X83541425Y-101533275D01*
X83560000Y-101710000D01*
X83541425Y-101886725D01*
X83486514Y-102055726D01*
X83397664Y-102209617D01*
X83278761Y-102341673D01*
X83135000Y-102446122D01*
X82972664Y-102518398D01*
X82798849Y-102555344D01*
X82621151Y-102555344D01*
X82447336Y-102518398D01*
X82285000Y-102446122D01*
X82141239Y-102341673D01*
X82022336Y-102209617D01*
X81933486Y-102055726D01*
X81878575Y-101886725D01*
X81860000Y-101710000D01*
X81878575Y-101533275D01*
X81933486Y-101364274D01*
X82022336Y-101210383D01*
X82141239Y-101078327D01*
X82285000Y-100973878D01*
X82447336Y-100901602D01*
X82621151Y-100864656D01*
X82798849Y-100864656D01*
X82972664Y-100901602D01*
G37*
G36*
X85512664Y-100901602D02*
G01*
X85675000Y-100973878D01*
X85818761Y-101078327D01*
X85937664Y-101210383D01*
X86026514Y-101364274D01*
X86081425Y-101533275D01*
X86100000Y-101710000D01*
X86081425Y-101886725D01*
X86026514Y-102055726D01*
X85937664Y-102209617D01*
X85818761Y-102341673D01*
X85675000Y-102446122D01*
X85512664Y-102518398D01*
X85338849Y-102555344D01*
X85161151Y-102555344D01*
X84987336Y-102518398D01*
X84825000Y-102446122D01*
X84681239Y-102341673D01*
X84562336Y-102209617D01*
X84473486Y-102055726D01*
X84418575Y-101886725D01*
X84400000Y-101710000D01*
X84418575Y-101533275D01*
X84473486Y-101364274D01*
X84562336Y-101210383D01*
X84681239Y-101078327D01*
X84825000Y-100973878D01*
X84987336Y-100901602D01*
X85161151Y-100864656D01*
X85338849Y-100864656D01*
X85512664Y-100901602D01*
G37*
G36*
X93596820Y-94634779D02*
G01*
X93666479Y-94634779D01*
X93742051Y-94645166D01*
X93814630Y-94650357D01*
X93874370Y-94663352D01*
X93936884Y-94671945D01*
X94016804Y-94694337D01*
X94093465Y-94711014D01*
X94145218Y-94730317D01*
X94199718Y-94745587D01*
X94282109Y-94781374D01*
X94360830Y-94810736D01*
X94404097Y-94834361D01*
X94450078Y-94854334D01*
X94532798Y-94904637D01*
X94611282Y-94947493D01*
X94645964Y-94973456D01*
X94683291Y-94996155D01*
X94764006Y-95061821D01*
X94839721Y-95118501D01*
X94866102Y-95144882D01*
X94895028Y-95168415D01*
X94971265Y-95250045D01*
X95041499Y-95320279D01*
X95060240Y-95345314D01*
X95081331Y-95367897D01*
X95150503Y-95465891D01*
X95212507Y-95548718D01*
X95224591Y-95570849D01*
X95238740Y-95590893D01*
X95298266Y-95705774D01*
X95349264Y-95799170D01*
X95355955Y-95817110D01*
X95364314Y-95833242D01*
X95411645Y-95966420D01*
X95448986Y-96066535D01*
X95451763Y-96079304D01*
X95455721Y-96090439D01*
X95488495Y-96248157D01*
X95509643Y-96345370D01*
X95510139Y-96352312D01*
X95511256Y-96357685D01*
X95527316Y-96592482D01*
X95530000Y-96630000D01*
X95527316Y-96667520D01*
X95511256Y-96902314D01*
X95510139Y-96907686D01*
X95509643Y-96914630D01*
X95488491Y-97011863D01*
X95455721Y-97169560D01*
X95451764Y-97180692D01*
X95448986Y-97193465D01*
X95411637Y-97293599D01*
X95364314Y-97426757D01*
X95355956Y-97442885D01*
X95349264Y-97460830D01*
X95298256Y-97554243D01*
X95238740Y-97669106D01*
X95224594Y-97689145D01*
X95212507Y-97711282D01*
X95150491Y-97794124D01*
X95081331Y-97892102D01*
X95060244Y-97914680D01*
X95041499Y-97939721D01*
X94971251Y-98009968D01*
X94895028Y-98091584D01*
X94866107Y-98115112D01*
X94839721Y-98141499D01*
X94763990Y-98198190D01*
X94683291Y-98263844D01*
X94645971Y-98286538D01*
X94611282Y-98312507D01*
X94532782Y-98355371D01*
X94450078Y-98405665D01*
X94404106Y-98425633D01*
X94360830Y-98449264D01*
X94282093Y-98478631D01*
X94199718Y-98514412D01*
X94145229Y-98529678D01*
X94093465Y-98548986D01*
X94016788Y-98565665D01*
X93936884Y-98588054D01*
X93874380Y-98596645D01*
X93814630Y-98609643D01*
X93742047Y-98614834D01*
X93666479Y-98625221D01*
X93596820Y-98625221D01*
X93530000Y-98630000D01*
X93463180Y-98625221D01*
X93393521Y-98625221D01*
X93317952Y-98614834D01*
X93245370Y-98609643D01*
X93185621Y-98596645D01*
X93123115Y-98588054D01*
X93043206Y-98565665D01*
X92966535Y-98548986D01*
X92914773Y-98529679D01*
X92860281Y-98514412D01*
X92777899Y-98478628D01*
X92699170Y-98449264D01*
X92655897Y-98425635D01*
X92609921Y-98405665D01*
X92527207Y-98355365D01*
X92448718Y-98312507D01*
X92414032Y-98286541D01*
X92376708Y-98263844D01*
X92295996Y-98198180D01*
X92220279Y-98141499D01*
X92193896Y-98115116D01*
X92164971Y-98091584D01*
X92088733Y-98009953D01*
X92018501Y-97939721D01*
X91999759Y-97914685D01*
X91978668Y-97892102D01*
X91909491Y-97794101D01*
X91847493Y-97711282D01*
X91835409Y-97689151D01*
X91821259Y-97669106D01*
X91761724Y-97554207D01*
X91710736Y-97460830D01*
X91704045Y-97442892D01*
X91695685Y-97426757D01*
X91648341Y-97293542D01*
X91611014Y-97193465D01*
X91608237Y-97180700D01*
X91604278Y-97169560D01*
X91571486Y-97011761D01*
X91550357Y-96914630D01*
X91549860Y-96907693D01*
X91548743Y-96902314D01*
X91532660Y-96667200D01*
X91530000Y-96630000D01*
X91532660Y-96592802D01*
X91548743Y-96357685D01*
X91549861Y-96352304D01*
X91550357Y-96345370D01*
X91571481Y-96248260D01*
X91604278Y-96090439D01*
X91608237Y-96079297D01*
X91611014Y-96066535D01*
X91648333Y-95966477D01*
X91695685Y-95833242D01*
X91704046Y-95817103D01*
X91710736Y-95799170D01*
X91761713Y-95705810D01*
X91821259Y-95590893D01*
X91835411Y-95570843D01*
X91847493Y-95548718D01*
X91909478Y-95465915D01*
X91978668Y-95367897D01*
X91999763Y-95345308D01*
X92018501Y-95320279D01*
X92088719Y-95250060D01*
X92164971Y-95168415D01*
X92193902Y-95144877D01*
X92220279Y-95118501D01*
X92295981Y-95061830D01*
X92376708Y-94996155D01*
X92414039Y-94973452D01*
X92448718Y-94947493D01*
X92527191Y-94904643D01*
X92609921Y-94854334D01*
X92655906Y-94834359D01*
X92699170Y-94810736D01*
X92777883Y-94781377D01*
X92860281Y-94745587D01*
X92914784Y-94730316D01*
X92966535Y-94711014D01*
X93043190Y-94694338D01*
X93123115Y-94671945D01*
X93185630Y-94663352D01*
X93245370Y-94650357D01*
X93317947Y-94645166D01*
X93393521Y-94634779D01*
X93463180Y-94634779D01*
X93530000Y-94630000D01*
X93596820Y-94634779D01*
G37*
G36*
X101216820Y-94634779D02*
G01*
X101286479Y-94634779D01*
X101362051Y-94645166D01*
X101434630Y-94650357D01*
X101494370Y-94663352D01*
X101556884Y-94671945D01*
X101636804Y-94694337D01*
X101713465Y-94711014D01*
X101765218Y-94730317D01*
X101819718Y-94745587D01*
X101902109Y-94781374D01*
X101980830Y-94810736D01*
X102024097Y-94834361D01*
X102070078Y-94854334D01*
X102152798Y-94904637D01*
X102231282Y-94947493D01*
X102265964Y-94973456D01*
X102303291Y-94996155D01*
X102384006Y-95061821D01*
X102459721Y-95118501D01*
X102486102Y-95144882D01*
X102515028Y-95168415D01*
X102591265Y-95250045D01*
X102661499Y-95320279D01*
X102680240Y-95345314D01*
X102701331Y-95367897D01*
X102770503Y-95465891D01*
X102832507Y-95548718D01*
X102844591Y-95570849D01*
X102858740Y-95590893D01*
X102918266Y-95705774D01*
X102969264Y-95799170D01*
X102975955Y-95817110D01*
X102984314Y-95833242D01*
X103031645Y-95966420D01*
X103068986Y-96066535D01*
X103071763Y-96079304D01*
X103075721Y-96090439D01*
X103108495Y-96248157D01*
X103129643Y-96345370D01*
X103130139Y-96352312D01*
X103131256Y-96357685D01*
X103147316Y-96592482D01*
X103150000Y-96630000D01*
X103147316Y-96667520D01*
X103131256Y-96902314D01*
X103130139Y-96907686D01*
X103129643Y-96914630D01*
X103108491Y-97011863D01*
X103075721Y-97169560D01*
X103071764Y-97180692D01*
X103068986Y-97193465D01*
X103031637Y-97293599D01*
X102984314Y-97426757D01*
X102975956Y-97442885D01*
X102969264Y-97460830D01*
X102918256Y-97554243D01*
X102858740Y-97669106D01*
X102844594Y-97689145D01*
X102832507Y-97711282D01*
X102770491Y-97794124D01*
X102701331Y-97892102D01*
X102680244Y-97914680D01*
X102661499Y-97939721D01*
X102591251Y-98009968D01*
X102515028Y-98091584D01*
X102486107Y-98115112D01*
X102459721Y-98141499D01*
X102383990Y-98198190D01*
X102303291Y-98263844D01*
X102265971Y-98286538D01*
X102231282Y-98312507D01*
X102152782Y-98355371D01*
X102070078Y-98405665D01*
X102024106Y-98425633D01*
X101980830Y-98449264D01*
X101902093Y-98478631D01*
X101819718Y-98514412D01*
X101765229Y-98529678D01*
X101713465Y-98548986D01*
X101636788Y-98565665D01*
X101556884Y-98588054D01*
X101494380Y-98596645D01*
X101434630Y-98609643D01*
X101362047Y-98614834D01*
X101286479Y-98625221D01*
X101216820Y-98625221D01*
X101150000Y-98630000D01*
X101083180Y-98625221D01*
X101013521Y-98625221D01*
X100937952Y-98614834D01*
X100865370Y-98609643D01*
X100805621Y-98596645D01*
X100743115Y-98588054D01*
X100663206Y-98565665D01*
X100586535Y-98548986D01*
X100534773Y-98529679D01*
X100480281Y-98514412D01*
X100397899Y-98478628D01*
X100319170Y-98449264D01*
X100275897Y-98425635D01*
X100229921Y-98405665D01*
X100147207Y-98355365D01*
X100068718Y-98312507D01*
X100034032Y-98286541D01*
X99996708Y-98263844D01*
X99915996Y-98198180D01*
X99840279Y-98141499D01*
X99813896Y-98115116D01*
X99784971Y-98091584D01*
X99708733Y-98009953D01*
X99638501Y-97939721D01*
X99619759Y-97914685D01*
X99598668Y-97892102D01*
X99529491Y-97794101D01*
X99467493Y-97711282D01*
X99455409Y-97689151D01*
X99441259Y-97669106D01*
X99381724Y-97554207D01*
X99330736Y-97460830D01*
X99324045Y-97442892D01*
X99315685Y-97426757D01*
X99268341Y-97293542D01*
X99231014Y-97193465D01*
X99228237Y-97180700D01*
X99224278Y-97169560D01*
X99191486Y-97011761D01*
X99170357Y-96914630D01*
X99169860Y-96907693D01*
X99168743Y-96902314D01*
X99152660Y-96667200D01*
X99150000Y-96630000D01*
X99152660Y-96592802D01*
X99168743Y-96357685D01*
X99169861Y-96352304D01*
X99170357Y-96345370D01*
X99191481Y-96248260D01*
X99224278Y-96090439D01*
X99228237Y-96079297D01*
X99231014Y-96066535D01*
X99268333Y-95966477D01*
X99315685Y-95833242D01*
X99324046Y-95817103D01*
X99330736Y-95799170D01*
X99381713Y-95705810D01*
X99441259Y-95590893D01*
X99455411Y-95570843D01*
X99467493Y-95548718D01*
X99529478Y-95465915D01*
X99598668Y-95367897D01*
X99619763Y-95345308D01*
X99638501Y-95320279D01*
X99708719Y-95250060D01*
X99784971Y-95168415D01*
X99813902Y-95144877D01*
X99840279Y-95118501D01*
X99915981Y-95061830D01*
X99996708Y-94996155D01*
X100034039Y-94973452D01*
X100068718Y-94947493D01*
X100147191Y-94904643D01*
X100229921Y-94854334D01*
X100275906Y-94834359D01*
X100319170Y-94810736D01*
X100397883Y-94781377D01*
X100480281Y-94745587D01*
X100534784Y-94730316D01*
X100586535Y-94711014D01*
X100663190Y-94694338D01*
X100743115Y-94671945D01*
X100805630Y-94663352D01*
X100865370Y-94650357D01*
X100937947Y-94645166D01*
X101013521Y-94634779D01*
X101083180Y-94634779D01*
X101150000Y-94630000D01*
X101216820Y-94634779D01*
G37*
G36*
X198530000Y-98630000D02*
G01*
X194530000Y-98630000D01*
X194530000Y-94630000D01*
X198530000Y-94630000D01*
X198530000Y-98630000D01*
G37*
G36*
X206150000Y-98630000D02*
G01*
X202150000Y-98630000D01*
X202150000Y-94630000D01*
X206150000Y-94630000D01*
X206150000Y-98630000D01*
G37*
G36*
X83176546Y-95755805D02*
G01*
X83227907Y-95761764D01*
X83245453Y-95769511D01*
X83268170Y-95774030D01*
X83292487Y-95790278D01*
X83313293Y-95799465D01*
X83327504Y-95813676D01*
X83349276Y-95828224D01*
X83363823Y-95849995D01*
X83378034Y-95864206D01*
X83387219Y-95885010D01*
X83403470Y-95909330D01*
X83407988Y-95932047D01*
X83415735Y-95949592D01*
X83421696Y-96000966D01*
X83422499Y-96005002D01*
X83422499Y-96007883D01*
X83422500Y-96007892D01*
X83422500Y-96648544D01*
X83422500Y-97254999D01*
X83421694Y-97259048D01*
X83415735Y-97310407D01*
X83407989Y-97327949D01*
X83403470Y-97350670D01*
X83387218Y-97374991D01*
X83378034Y-97395793D01*
X83363825Y-97410001D01*
X83349276Y-97431776D01*
X83327501Y-97446325D01*
X83313293Y-97460534D01*
X83292491Y-97469718D01*
X83268170Y-97485970D01*
X83245450Y-97490488D01*
X83227907Y-97498235D01*
X83176534Y-97504196D01*
X83172498Y-97504999D01*
X83169615Y-97504999D01*
X83169607Y-97505000D01*
X82250393Y-97505000D01*
X82250392Y-97504999D01*
X82247501Y-97505000D01*
X82243451Y-97504194D01*
X82192092Y-97498235D01*
X82174548Y-97490488D01*
X82151830Y-97485970D01*
X82127510Y-97469719D01*
X82106706Y-97460534D01*
X82092495Y-97446323D01*
X82070724Y-97431776D01*
X82056176Y-97410004D01*
X82041965Y-97395793D01*
X82032778Y-97374987D01*
X82016530Y-97350670D01*
X82012011Y-97327954D01*
X82004264Y-97310407D01*
X81998303Y-97259033D01*
X81997501Y-97254998D01*
X81997500Y-97252115D01*
X81997500Y-97252107D01*
X81997500Y-96007892D01*
X81997500Y-96007891D01*
X81997500Y-96005001D01*
X81998304Y-96000954D01*
X82004264Y-95949592D01*
X82012011Y-95932044D01*
X82016530Y-95909330D01*
X82032777Y-95885014D01*
X82041965Y-95864206D01*
X82056178Y-95849992D01*
X82070724Y-95828224D01*
X82092492Y-95813678D01*
X82106706Y-95799465D01*
X82127514Y-95790277D01*
X82151830Y-95774030D01*
X82174543Y-95769512D01*
X82192092Y-95761764D01*
X82243467Y-95755803D01*
X82247502Y-95755001D01*
X82250384Y-95755000D01*
X82250393Y-95755000D01*
X83169607Y-95755000D01*
X83172499Y-95755000D01*
X83176546Y-95755805D01*
G37*
G36*
X86151546Y-95755805D02*
G01*
X86202907Y-95761764D01*
X86220453Y-95769511D01*
X86243170Y-95774030D01*
X86267487Y-95790278D01*
X86288293Y-95799465D01*
X86302504Y-95813676D01*
X86324276Y-95828224D01*
X86338823Y-95849995D01*
X86353034Y-95864206D01*
X86362219Y-95885010D01*
X86378470Y-95909330D01*
X86382988Y-95932047D01*
X86390735Y-95949592D01*
X86396696Y-96000966D01*
X86397499Y-96005002D01*
X86397499Y-96007883D01*
X86397500Y-96007892D01*
X86397500Y-96648544D01*
X86397500Y-97254999D01*
X86396694Y-97259048D01*
X86390735Y-97310407D01*
X86382989Y-97327949D01*
X86378470Y-97350670D01*
X86362218Y-97374991D01*
X86353034Y-97395793D01*
X86338825Y-97410001D01*
X86324276Y-97431776D01*
X86302501Y-97446325D01*
X86288293Y-97460534D01*
X86267491Y-97469718D01*
X86243170Y-97485970D01*
X86220450Y-97490488D01*
X86202907Y-97498235D01*
X86151534Y-97504196D01*
X86147498Y-97504999D01*
X86144615Y-97504999D01*
X86144607Y-97505000D01*
X85225393Y-97505000D01*
X85225392Y-97504999D01*
X85222501Y-97505000D01*
X85218451Y-97504194D01*
X85167092Y-97498235D01*
X85149548Y-97490488D01*
X85126830Y-97485970D01*
X85102510Y-97469719D01*
X85081706Y-97460534D01*
X85067495Y-97446323D01*
X85045724Y-97431776D01*
X85031176Y-97410004D01*
X85016965Y-97395793D01*
X85007778Y-97374987D01*
X84991530Y-97350670D01*
X84987011Y-97327954D01*
X84979264Y-97310407D01*
X84973303Y-97259033D01*
X84972501Y-97254998D01*
X84972500Y-97252115D01*
X84972500Y-97252107D01*
X84972500Y-96007892D01*
X84972500Y-96007891D01*
X84972500Y-96005001D01*
X84973304Y-96000954D01*
X84979264Y-95949592D01*
X84987011Y-95932044D01*
X84991530Y-95909330D01*
X85007777Y-95885014D01*
X85016965Y-95864206D01*
X85031178Y-95849992D01*
X85045724Y-95828224D01*
X85067492Y-95813678D01*
X85081706Y-95799465D01*
X85102514Y-95790277D01*
X85126830Y-95774030D01*
X85149543Y-95769512D01*
X85167092Y-95761764D01*
X85218467Y-95755803D01*
X85222502Y-95755001D01*
X85225384Y-95755000D01*
X85225393Y-95755000D01*
X86144607Y-95755000D01*
X86147499Y-95755000D01*
X86151546Y-95755805D01*
G37*
G36*
X75084866Y-90804766D02*
G01*
X75173239Y-90804766D01*
X75267593Y-90815027D01*
X75358286Y-90820121D01*
X75436297Y-90833375D01*
X75517692Y-90842228D01*
X75616827Y-90864049D01*
X75712067Y-90880231D01*
X75782406Y-90900495D01*
X75856067Y-90916709D01*
X75958574Y-90951248D01*
X76056893Y-90979573D01*
X76119045Y-91005317D01*
X76184417Y-91027344D01*
X76288715Y-91075597D01*
X76388428Y-91116900D01*
X76442068Y-91146546D01*
X76498874Y-91172827D01*
X76603243Y-91235624D01*
X76702503Y-91290483D01*
X76747599Y-91322480D01*
X76795755Y-91351455D01*
X76898321Y-91429423D01*
X76995167Y-91498139D01*
X77031908Y-91530972D01*
X77071590Y-91561138D01*
X77170412Y-91654747D01*
X77262742Y-91737258D01*
X77291553Y-91769498D01*
X77323131Y-91799410D01*
X77416173Y-91908948D01*
X77501861Y-92004833D01*
X77523383Y-92035166D01*
X77547436Y-92063483D01*
X77632634Y-92189140D01*
X77709517Y-92297497D01*
X77724576Y-92324745D01*
X77741880Y-92350266D01*
X77817197Y-92492329D01*
X77883100Y-92611572D01*
X77892691Y-92634727D01*
X77904174Y-92656386D01*
X77967585Y-92815536D01*
X78020427Y-92943107D01*
X78025682Y-92961350D01*
X78032419Y-92978257D01*
X78082018Y-93156896D01*
X78119769Y-93287933D01*
X78121926Y-93300633D01*
X78125115Y-93312116D01*
X78159106Y-93519457D01*
X78179879Y-93641714D01*
X78180259Y-93648481D01*
X78181167Y-93654020D01*
X78197856Y-93961838D01*
X78200000Y-94000000D01*
X78197856Y-94038164D01*
X78181167Y-94345979D01*
X78180259Y-94351516D01*
X78179879Y-94358286D01*
X78159102Y-94480569D01*
X78125115Y-94687883D01*
X78121927Y-94699363D01*
X78119769Y-94712067D01*
X78082010Y-94843130D01*
X78032419Y-95021742D01*
X78025683Y-95038646D01*
X78020427Y-95056893D01*
X77967574Y-95184489D01*
X77904174Y-95343613D01*
X77892693Y-95365268D01*
X77883100Y-95388428D01*
X77817184Y-95507694D01*
X77741880Y-95649733D01*
X77724579Y-95675248D01*
X77709517Y-95702503D01*
X77632618Y-95810880D01*
X77547436Y-95936516D01*
X77523387Y-95964827D01*
X77501861Y-95995167D01*
X77416156Y-96091071D01*
X77323131Y-96200589D01*
X77291559Y-96230494D01*
X77262742Y-96262742D01*
X77170393Y-96345269D01*
X77071590Y-96438861D01*
X77031915Y-96469020D01*
X76995167Y-96501861D01*
X76898301Y-96570590D01*
X76795755Y-96648544D01*
X76747609Y-96677512D01*
X76702503Y-96709517D01*
X76603222Y-96764387D01*
X76498874Y-96827172D01*
X76442079Y-96853447D01*
X76388428Y-96883100D01*
X76288694Y-96924411D01*
X76184417Y-96972655D01*
X76119058Y-96994676D01*
X76056893Y-97020427D01*
X75958554Y-97048757D01*
X75856067Y-97083290D01*
X75782420Y-97099500D01*
X75712067Y-97119769D01*
X75616807Y-97135954D01*
X75517692Y-97157771D01*
X75436309Y-97166622D01*
X75358286Y-97179879D01*
X75267588Y-97184972D01*
X75173239Y-97195234D01*
X75084866Y-97195234D01*
X75000000Y-97200000D01*
X74915134Y-97195234D01*
X74826761Y-97195234D01*
X74732411Y-97184972D01*
X74641714Y-97179879D01*
X74563691Y-97166622D01*
X74482307Y-97157771D01*
X74383187Y-97135953D01*
X74287933Y-97119769D01*
X74217582Y-97099501D01*
X74143932Y-97083290D01*
X74041438Y-97048755D01*
X73943107Y-97020427D01*
X73880945Y-96994678D01*
X73815582Y-96972655D01*
X73711295Y-96924407D01*
X73611572Y-96883100D01*
X73557925Y-96853450D01*
X73501125Y-96827172D01*
X73396764Y-96764380D01*
X73297497Y-96709517D01*
X73252396Y-96677516D01*
X73204244Y-96648544D01*
X73101683Y-96570580D01*
X73004833Y-96501861D01*
X72968089Y-96469025D01*
X72928409Y-96438861D01*
X72829588Y-96345253D01*
X72737258Y-96262742D01*
X72708445Y-96230501D01*
X72676868Y-96200589D01*
X72583823Y-96091048D01*
X72498139Y-95995167D01*
X72476617Y-95964835D01*
X72452563Y-95936516D01*
X72367358Y-95810849D01*
X72290483Y-95702503D01*
X72275424Y-95675256D01*
X72258119Y-95649733D01*
X72182791Y-95507649D01*
X72116900Y-95388428D01*
X72107310Y-95365277D01*
X72095825Y-95343613D01*
X72032399Y-95184425D01*
X71979573Y-95056893D01*
X71974318Y-95038655D01*
X71967580Y-95021742D01*
X71917961Y-94843034D01*
X71880231Y-94712067D01*
X71878074Y-94699372D01*
X71874884Y-94687883D01*
X71840869Y-94480401D01*
X71820121Y-94358286D01*
X71819741Y-94351525D01*
X71818832Y-94345979D01*
X71802114Y-94037648D01*
X71800000Y-94000000D01*
X71802114Y-93962354D01*
X71818832Y-93654020D01*
X71819741Y-93648472D01*
X71820121Y-93641714D01*
X71840864Y-93519625D01*
X71874884Y-93312116D01*
X71878074Y-93300624D01*
X71880231Y-93287933D01*
X71917954Y-93156992D01*
X71967580Y-92978257D01*
X71974319Y-92961341D01*
X71979573Y-92943107D01*
X72032388Y-92815599D01*
X72095825Y-92656386D01*
X72107312Y-92634718D01*
X72116900Y-92611572D01*
X72182778Y-92492373D01*
X72258119Y-92350266D01*
X72275427Y-92324737D01*
X72290483Y-92297497D01*
X72367343Y-92189172D01*
X72452563Y-92063483D01*
X72476621Y-92035158D01*
X72498139Y-92004833D01*
X72583806Y-91908970D01*
X72676868Y-91799410D01*
X72708451Y-91769492D01*
X72737258Y-91737258D01*
X72829569Y-91654763D01*
X72928409Y-91561138D01*
X72968097Y-91530967D01*
X73004833Y-91498139D01*
X73101663Y-91429433D01*
X73204244Y-91351455D01*
X73252405Y-91322477D01*
X73297497Y-91290483D01*
X73396744Y-91235630D01*
X73501125Y-91172827D01*
X73557936Y-91146543D01*
X73611572Y-91116900D01*
X73711275Y-91075601D01*
X73815582Y-91027344D01*
X73880958Y-91005315D01*
X73943107Y-90979573D01*
X74041418Y-90951250D01*
X74143932Y-90916709D01*
X74217596Y-90900494D01*
X74287933Y-90880231D01*
X74383167Y-90864049D01*
X74482307Y-90842228D01*
X74563704Y-90833375D01*
X74641714Y-90820121D01*
X74732406Y-90815027D01*
X74826761Y-90804766D01*
X74915134Y-90804766D01*
X75000000Y-90800000D01*
X75084866Y-90804766D01*
G37*
G36*
X222584866Y-90804766D02*
G01*
X222673239Y-90804766D01*
X222767593Y-90815027D01*
X222858286Y-90820121D01*
X222936297Y-90833375D01*
X223017692Y-90842228D01*
X223116827Y-90864049D01*
X223212067Y-90880231D01*
X223282406Y-90900495D01*
X223356067Y-90916709D01*
X223458574Y-90951248D01*
X223556893Y-90979573D01*
X223619045Y-91005317D01*
X223684417Y-91027344D01*
X223788715Y-91075597D01*
X223888428Y-91116900D01*
X223942068Y-91146546D01*
X223998874Y-91172827D01*
X224103243Y-91235624D01*
X224202503Y-91290483D01*
X224247599Y-91322480D01*
X224295755Y-91351455D01*
X224398321Y-91429423D01*
X224495167Y-91498139D01*
X224531908Y-91530972D01*
X224571590Y-91561138D01*
X224670412Y-91654747D01*
X224762742Y-91737258D01*
X224791553Y-91769498D01*
X224823131Y-91799410D01*
X224916173Y-91908948D01*
X225001861Y-92004833D01*
X225023383Y-92035166D01*
X225047436Y-92063483D01*
X225132634Y-92189140D01*
X225209517Y-92297497D01*
X225224576Y-92324745D01*
X225241880Y-92350266D01*
X225317197Y-92492329D01*
X225383100Y-92611572D01*
X225392691Y-92634727D01*
X225404174Y-92656386D01*
X225467585Y-92815536D01*
X225520427Y-92943107D01*
X225525682Y-92961350D01*
X225532419Y-92978257D01*
X225582018Y-93156896D01*
X225619769Y-93287933D01*
X225621926Y-93300633D01*
X225625115Y-93312116D01*
X225659106Y-93519457D01*
X225679879Y-93641714D01*
X225680259Y-93648481D01*
X225681167Y-93654020D01*
X225697856Y-93961838D01*
X225700000Y-94000000D01*
X225697856Y-94038164D01*
X225681167Y-94345979D01*
X225680259Y-94351516D01*
X225679879Y-94358286D01*
X225659102Y-94480569D01*
X225625115Y-94687883D01*
X225621927Y-94699363D01*
X225619769Y-94712067D01*
X225582010Y-94843130D01*
X225532419Y-95021742D01*
X225525683Y-95038646D01*
X225520427Y-95056893D01*
X225467574Y-95184489D01*
X225404174Y-95343613D01*
X225392693Y-95365268D01*
X225383100Y-95388428D01*
X225317184Y-95507694D01*
X225241880Y-95649733D01*
X225224579Y-95675248D01*
X225209517Y-95702503D01*
X225132618Y-95810880D01*
X225047436Y-95936516D01*
X225023387Y-95964827D01*
X225001861Y-95995167D01*
X224916156Y-96091071D01*
X224823131Y-96200589D01*
X224791559Y-96230494D01*
X224762742Y-96262742D01*
X224670393Y-96345269D01*
X224571590Y-96438861D01*
X224531915Y-96469020D01*
X224495167Y-96501861D01*
X224398301Y-96570590D01*
X224295755Y-96648544D01*
X224247609Y-96677512D01*
X224202503Y-96709517D01*
X224103222Y-96764387D01*
X223998874Y-96827172D01*
X223942079Y-96853447D01*
X223888428Y-96883100D01*
X223788694Y-96924411D01*
X223684417Y-96972655D01*
X223619058Y-96994676D01*
X223556893Y-97020427D01*
X223458554Y-97048757D01*
X223356067Y-97083290D01*
X223282420Y-97099500D01*
X223212067Y-97119769D01*
X223116807Y-97135954D01*
X223017692Y-97157771D01*
X222936309Y-97166622D01*
X222858286Y-97179879D01*
X222767588Y-97184972D01*
X222673239Y-97195234D01*
X222584866Y-97195234D01*
X222500000Y-97200000D01*
X222415134Y-97195234D01*
X222326761Y-97195234D01*
X222232411Y-97184972D01*
X222141714Y-97179879D01*
X222063691Y-97166622D01*
X221982307Y-97157771D01*
X221883187Y-97135953D01*
X221787933Y-97119769D01*
X221717582Y-97099501D01*
X221643932Y-97083290D01*
X221541438Y-97048755D01*
X221443107Y-97020427D01*
X221380945Y-96994678D01*
X221315582Y-96972655D01*
X221211295Y-96924407D01*
X221111572Y-96883100D01*
X221057925Y-96853450D01*
X221001125Y-96827172D01*
X220896764Y-96764380D01*
X220797497Y-96709517D01*
X220752396Y-96677516D01*
X220704244Y-96648544D01*
X220601683Y-96570580D01*
X220504833Y-96501861D01*
X220468089Y-96469025D01*
X220428409Y-96438861D01*
X220329588Y-96345253D01*
X220237258Y-96262742D01*
X220208445Y-96230501D01*
X220176868Y-96200589D01*
X220083823Y-96091048D01*
X219998139Y-95995167D01*
X219976617Y-95964835D01*
X219952563Y-95936516D01*
X219867358Y-95810849D01*
X219790483Y-95702503D01*
X219775424Y-95675256D01*
X219758119Y-95649733D01*
X219682791Y-95507649D01*
X219616900Y-95388428D01*
X219607310Y-95365277D01*
X219595825Y-95343613D01*
X219532399Y-95184425D01*
X219479573Y-95056893D01*
X219474318Y-95038655D01*
X219467580Y-95021742D01*
X219417961Y-94843034D01*
X219380231Y-94712067D01*
X219378074Y-94699372D01*
X219374884Y-94687883D01*
X219340869Y-94480401D01*
X219320121Y-94358286D01*
X219319741Y-94351525D01*
X219318832Y-94345979D01*
X219302114Y-94037648D01*
X219300000Y-94000000D01*
X219302114Y-93962354D01*
X219318832Y-93654020D01*
X219319741Y-93648472D01*
X219320121Y-93641714D01*
X219340864Y-93519625D01*
X219374884Y-93312116D01*
X219378074Y-93300624D01*
X219380231Y-93287933D01*
X219417954Y-93156992D01*
X219467580Y-92978257D01*
X219474319Y-92961341D01*
X219479573Y-92943107D01*
X219532388Y-92815599D01*
X219595825Y-92656386D01*
X219607312Y-92634718D01*
X219616900Y-92611572D01*
X219682778Y-92492373D01*
X219758119Y-92350266D01*
X219775427Y-92324737D01*
X219790483Y-92297497D01*
X219867343Y-92189172D01*
X219952563Y-92063483D01*
X219976621Y-92035158D01*
X219998139Y-92004833D01*
X220083806Y-91908970D01*
X220176868Y-91799410D01*
X220208451Y-91769492D01*
X220237258Y-91737258D01*
X220329569Y-91654763D01*
X220428409Y-91561138D01*
X220468097Y-91530967D01*
X220504833Y-91498139D01*
X220601663Y-91429433D01*
X220704244Y-91351455D01*
X220752405Y-91322477D01*
X220797497Y-91290483D01*
X220896744Y-91235630D01*
X221001125Y-91172827D01*
X221057936Y-91146543D01*
X221111572Y-91116900D01*
X221211275Y-91075601D01*
X221315582Y-91027344D01*
X221380958Y-91005315D01*
X221443107Y-90979573D01*
X221541418Y-90951250D01*
X221643932Y-90916709D01*
X221717596Y-90900494D01*
X221787933Y-90880231D01*
X221883167Y-90864049D01*
X221982307Y-90842228D01*
X222063704Y-90833375D01*
X222141714Y-90820121D01*
X222232406Y-90815027D01*
X222326761Y-90804766D01*
X222415134Y-90804766D01*
X222500000Y-90800000D01*
X222584866Y-90804766D01*
G37*
M02*
