G04 #@! TF.GenerationSoftware,KiCad,Pcbnew,7.0.7-7.0.7~ubuntu22.04.1*
G04 #@! TF.CreationDate,2023-09-21T17:02:26+02:00*
G04 #@! TF.ProjectId,Geiger Tube Driver,47656967-6572-4205-9475-626520447269,1.0*
G04 #@! TF.SameCoordinates,Original*
G04 #@! TF.FileFunction,Copper,L2,Bot*
G04 #@! TF.FilePolarity,Positive*
%FSLAX46Y46*%
G04 Gerber Fmt 4.6, Leading zero omitted, Abs format (unit mm)*
G04 Created by KiCad (PCBNEW 7.0.7-7.0.7~ubuntu22.04.1) date 2023-09-21 17:02:26*
%MOMM*%
%LPD*%
G01*
G04 APERTURE LIST*
G04 Aperture macros list*
%AMRoundRect*
0 Rectangle with rounded corners*
0 $1 Rounding radius*
0 $2 $3 $4 $5 $6 $7 $8 $9 X,Y pos of 4 corners*
0 Add a 4 corners polygon primitive as box body*
4,1,4,$2,$3,$4,$5,$6,$7,$8,$9,$2,$3,0*
0 Add four circle primitives for the rounded corners*
1,1,$1+$1,$2,$3*
1,1,$1+$1,$4,$5*
1,1,$1+$1,$6,$7*
1,1,$1+$1,$8,$9*
0 Add four rect primitives between the rounded corners*
20,1,$1+$1,$2,$3,$4,$5,0*
20,1,$1+$1,$4,$5,$6,$7,0*
20,1,$1+$1,$6,$7,$8,$9,0*
20,1,$1+$1,$8,$9,$2,$3,0*%
G04 Aperture macros list end*
G04 #@! TA.AperFunction,ComponentPad*
%ADD10C,6.400000*%
G04 #@! TD*
G04 #@! TA.AperFunction,ComponentPad*
%ADD11R,1.700000X1.700000*%
G04 #@! TD*
G04 #@! TA.AperFunction,ComponentPad*
%ADD12O,1.700000X1.700000*%
G04 #@! TD*
G04 #@! TA.AperFunction,ComponentPad*
%ADD13R,4.000000X4.000000*%
G04 #@! TD*
G04 #@! TA.AperFunction,ComponentPad*
%ADD14C,4.000000*%
G04 #@! TD*
G04 #@! TA.AperFunction,SMDPad,CuDef*
%ADD15RoundRect,0.250001X0.462499X0.624999X-0.462499X0.624999X-0.462499X-0.624999X0.462499X-0.624999X0*%
G04 #@! TD*
G04 #@! TA.AperFunction,ViaPad*
%ADD16C,0.500000*%
G04 #@! TD*
G04 #@! TA.AperFunction,Conductor*
%ADD17C,2.500000*%
G04 #@! TD*
G04 #@! TA.AperFunction,Conductor*
%ADD18C,0.600000*%
G04 #@! TD*
G04 #@! TA.AperFunction,Conductor*
%ADD19C,1.700000*%
G04 #@! TD*
G04 #@! TA.AperFunction,Conductor*
%ADD20C,4.000000*%
G04 #@! TD*
G04 APERTURE END LIST*
D10*
X76860000Y-111500000D03*
X76860000Y-91180000D03*
D11*
X87020000Y-103880000D03*
D12*
X84480000Y-103880000D03*
X87020000Y-101340000D03*
X84480000Y-101340000D03*
X87020000Y-98800000D03*
X84480000Y-98800000D03*
D10*
X224180000Y-111500000D03*
X224180000Y-91180000D03*
D13*
X205920000Y-93720000D03*
X198300000Y-93720000D03*
D14*
X102920000Y-93720000D03*
X95300000Y-93720000D03*
D15*
X87455000Y-93720000D03*
X84480000Y-93720000D03*
X87455000Y-108960000D03*
X84480000Y-108960000D03*
D16*
X89560000Y-114040000D03*
X120040000Y-106420000D03*
X122580000Y-111500000D03*
X81940000Y-88640000D03*
X110800000Y-103880000D03*
X81940000Y-114040000D03*
X132740000Y-106420000D03*
X140360000Y-111500000D03*
X120040000Y-103880000D03*
X132740000Y-111500000D03*
X122580000Y-103880000D03*
X137820000Y-111500000D03*
X74320000Y-101340000D03*
X135280000Y-108960000D03*
X163980000Y-103880000D03*
X115340000Y-105640000D03*
X76860000Y-98800000D03*
X94640000Y-103880000D03*
X74320000Y-103880000D03*
X130200000Y-111500000D03*
X97180000Y-103880000D03*
X87020000Y-114040000D03*
X127660000Y-111500000D03*
X127660000Y-103880000D03*
X154640000Y-106420000D03*
X84480000Y-114040000D03*
X122580000Y-106420000D03*
X154622500Y-103880000D03*
X97180000Y-106420000D03*
X94640000Y-114040000D03*
X127660000Y-106420000D03*
X92100000Y-114040000D03*
X154622500Y-108960000D03*
X120040000Y-111500000D03*
X76860000Y-103880000D03*
X87020000Y-88640000D03*
X120040000Y-108960000D03*
X135280000Y-111500000D03*
X74320000Y-98800000D03*
X198780000Y-114040000D03*
X130200000Y-106420000D03*
X127660000Y-108960000D03*
X84480000Y-88640000D03*
X157570000Y-106420000D03*
X142900000Y-111500000D03*
X76860000Y-101340000D03*
X122580000Y-108960000D03*
X174316901Y-114480636D03*
X172816901Y-114480636D03*
X165780000Y-110811141D03*
X164280000Y-110811141D03*
X167280000Y-110811141D03*
X168780000Y-110811141D03*
X175816901Y-114480636D03*
X171316901Y-114480636D03*
X81940000Y-108960000D03*
X81940000Y-93720000D03*
X157580000Y-103880000D03*
X140360000Y-103880000D03*
X89560000Y-111500000D03*
X107240000Y-111500000D03*
X118340000Y-111500000D03*
D17*
X84480000Y-98800000D02*
X87020000Y-98800000D01*
D18*
X171316901Y-114480636D02*
X172816901Y-114480636D01*
X171316901Y-114480636D02*
X170363098Y-113526833D01*
X165780000Y-110811141D02*
X167280000Y-110811141D01*
X174316901Y-114480636D02*
X175816901Y-114480636D01*
X172816901Y-114480636D02*
X174316901Y-114480636D01*
X169382799Y-110811141D02*
X168780000Y-110811141D01*
X164280000Y-110811141D02*
X165780000Y-110811141D01*
X170363098Y-111791440D02*
X169382799Y-110811141D01*
X170363098Y-113526833D02*
X170363098Y-111791440D01*
D19*
X84480000Y-103880000D02*
X87020000Y-103880000D01*
D18*
X167280000Y-110811141D02*
X168780000Y-110811141D01*
D20*
X102920000Y-93720000D02*
X95300000Y-93720000D01*
D19*
X84480000Y-101340000D02*
X87020000Y-101340000D01*
D18*
X81940000Y-108960000D02*
X84480000Y-108960000D01*
X81940000Y-93720000D02*
X84480000Y-93720000D01*
D20*
X198300000Y-93720000D02*
X205920000Y-93720000D01*
D18*
X157580000Y-103880000D02*
X156317311Y-105142689D01*
X156317311Y-105142689D02*
X141622689Y-105142689D01*
X141622689Y-105142689D02*
X140360000Y-103880000D01*
X107240000Y-111500000D02*
X89560000Y-111500000D01*
X118340000Y-111500000D02*
X107240000Y-111500000D01*
G04 #@! TA.AperFunction,Conductor*
G36*
X91367177Y-86620185D02*
G01*
X91412932Y-86672989D01*
X91422876Y-86742147D01*
X91393851Y-86805703D01*
X91387819Y-86812181D01*
X89560000Y-88639999D01*
X89560000Y-88640000D01*
X89560000Y-98800000D01*
X92100000Y-101340000D01*
X208940000Y-101340000D01*
X211480000Y-98800000D01*
X211480000Y-91180000D01*
X220675197Y-91180000D01*
X220694397Y-91546353D01*
X220751784Y-91908684D01*
X220751784Y-91908686D01*
X220846736Y-92263051D01*
X220978204Y-92605535D01*
X221144754Y-92932406D01*
X221344549Y-93240064D01*
X221501658Y-93434076D01*
X222754839Y-92180895D01*
X222816162Y-92147410D01*
X222885854Y-92152394D01*
X222936810Y-92188044D01*
X222995611Y-92256890D01*
X223045130Y-92314870D01*
X223171956Y-92423189D01*
X223210147Y-92481693D01*
X223210647Y-92551561D01*
X223179104Y-92605158D01*
X221925921Y-93858340D01*
X222119924Y-94015442D01*
X222119937Y-94015451D01*
X222427593Y-94215245D01*
X222754464Y-94381795D01*
X223096948Y-94513263D01*
X223451314Y-94608215D01*
X223813646Y-94665602D01*
X224179999Y-94684803D01*
X224180001Y-94684803D01*
X224546353Y-94665602D01*
X224908684Y-94608215D01*
X224908686Y-94608215D01*
X225263051Y-94513263D01*
X225605535Y-94381795D01*
X225932406Y-94215245D01*
X226240065Y-94015450D01*
X226434077Y-93858341D01*
X225180895Y-92605159D01*
X225147410Y-92543836D01*
X225152394Y-92474144D01*
X225188042Y-92423190D01*
X225314870Y-92314870D01*
X225423189Y-92188043D01*
X225481694Y-92149852D01*
X225551562Y-92149352D01*
X225605159Y-92180895D01*
X226858341Y-93434077D01*
X227015450Y-93240065D01*
X227215245Y-92932406D01*
X227381795Y-92605535D01*
X227513263Y-92263051D01*
X227608215Y-91908686D01*
X227608215Y-91908684D01*
X227665602Y-91546353D01*
X227684803Y-91180000D01*
X227684803Y-91179999D01*
X227665602Y-90813646D01*
X227608215Y-90451315D01*
X227608215Y-90451313D01*
X227513263Y-90096948D01*
X227381795Y-89754464D01*
X227215245Y-89427594D01*
X227015450Y-89119935D01*
X226858340Y-88925922D01*
X225605158Y-90179104D01*
X225543835Y-90212589D01*
X225474143Y-90207605D01*
X225423189Y-90171956D01*
X225314870Y-90045130D01*
X225256890Y-89995611D01*
X225188044Y-89936810D01*
X225149851Y-89878303D01*
X225149353Y-89808435D01*
X225180895Y-89754839D01*
X226434076Y-88501658D01*
X226240064Y-88344549D01*
X225932406Y-88144754D01*
X225605535Y-87978204D01*
X225263051Y-87846736D01*
X224908685Y-87751784D01*
X224546353Y-87694397D01*
X224180001Y-87675197D01*
X224179999Y-87675197D01*
X223813646Y-87694397D01*
X223451315Y-87751784D01*
X223451313Y-87751784D01*
X223096948Y-87846736D01*
X222754464Y-87978204D01*
X222427594Y-88144754D01*
X222119929Y-88344553D01*
X221925922Y-88501658D01*
X223179104Y-89754840D01*
X223212589Y-89816163D01*
X223207605Y-89885855D01*
X223171955Y-89936811D01*
X223045130Y-90045130D01*
X222936811Y-90171955D01*
X222878304Y-90210148D01*
X222808436Y-90210646D01*
X222754840Y-90179104D01*
X221501658Y-88925922D01*
X221344553Y-89119929D01*
X221144754Y-89427594D01*
X220978204Y-89754464D01*
X220846736Y-90096948D01*
X220751784Y-90451313D01*
X220751784Y-90451315D01*
X220694397Y-90813646D01*
X220675197Y-91179999D01*
X220675197Y-91180000D01*
X211480000Y-91180000D01*
X211480000Y-88640000D01*
X209652181Y-86812180D01*
X209618696Y-86750858D01*
X209623680Y-86681166D01*
X209665552Y-86625233D01*
X209731016Y-86600816D01*
X209739862Y-86600500D01*
X228635500Y-86600500D01*
X228702539Y-86620185D01*
X228748294Y-86672989D01*
X228759500Y-86724500D01*
X228759500Y-115955500D01*
X228739815Y-116022539D01*
X228687011Y-116068294D01*
X228635500Y-116079500D01*
X72404500Y-116079500D01*
X72337461Y-116059815D01*
X72291706Y-116007011D01*
X72280500Y-115955500D01*
X72280500Y-111500000D01*
X73355197Y-111500000D01*
X73374397Y-111866353D01*
X73431784Y-112228684D01*
X73431784Y-112228686D01*
X73526736Y-112583051D01*
X73658204Y-112925535D01*
X73824754Y-113252406D01*
X74024549Y-113560064D01*
X74181658Y-113754076D01*
X75434839Y-112500895D01*
X75496162Y-112467410D01*
X75565854Y-112472394D01*
X75616810Y-112508044D01*
X75675611Y-112576890D01*
X75725130Y-112634870D01*
X75851956Y-112743189D01*
X75890147Y-112801693D01*
X75890647Y-112871561D01*
X75859104Y-112925158D01*
X74605921Y-114178340D01*
X74799924Y-114335442D01*
X74799937Y-114335451D01*
X75107593Y-114535245D01*
X75434464Y-114701795D01*
X75776948Y-114833263D01*
X76131314Y-114928215D01*
X76493646Y-114985602D01*
X76859999Y-115004803D01*
X76860001Y-115004803D01*
X77226353Y-114985602D01*
X77588684Y-114928215D01*
X77588686Y-114928215D01*
X77943051Y-114833263D01*
X78285535Y-114701795D01*
X78612406Y-114535245D01*
X78920065Y-114335450D01*
X79114077Y-114178341D01*
X77860895Y-112925159D01*
X77827410Y-112863836D01*
X77832394Y-112794144D01*
X77868042Y-112743190D01*
X77994870Y-112634870D01*
X78103189Y-112508043D01*
X78161694Y-112469852D01*
X78231562Y-112469352D01*
X78285159Y-112500895D01*
X79538341Y-113754077D01*
X79695450Y-113560065D01*
X79895245Y-113252406D01*
X80061795Y-112925535D01*
X80193263Y-112583051D01*
X80288215Y-112228686D01*
X80288215Y-112228684D01*
X80345602Y-111866353D01*
X80364803Y-111500001D01*
X88954318Y-111500001D01*
X88974955Y-111656760D01*
X88974956Y-111656762D01*
X89030741Y-111791440D01*
X89035464Y-111802841D01*
X89131718Y-111928282D01*
X89257159Y-112024536D01*
X89403238Y-112085044D01*
X89520639Y-112100500D01*
X89520646Y-112100500D01*
X118379354Y-112100500D01*
X118379361Y-112100500D01*
X118496762Y-112085044D01*
X118642841Y-112024536D01*
X118768282Y-111928282D01*
X118864536Y-111802841D01*
X118925044Y-111656762D01*
X118945682Y-111500000D01*
X118944181Y-111488602D01*
X118931813Y-111394655D01*
X118925044Y-111343238D01*
X118864536Y-111197159D01*
X118768282Y-111071718D01*
X118642841Y-110975464D01*
X118624587Y-110967903D01*
X118496762Y-110914956D01*
X118496760Y-110914955D01*
X118379370Y-110899501D01*
X118379367Y-110899500D01*
X118379361Y-110899500D01*
X107279361Y-110899500D01*
X89520639Y-110899500D01*
X89520633Y-110899500D01*
X89520629Y-110899501D01*
X89403239Y-110914955D01*
X89403237Y-110914956D01*
X89257160Y-110975463D01*
X89131718Y-111071718D01*
X89035463Y-111197160D01*
X88974956Y-111343237D01*
X88974955Y-111343239D01*
X88954318Y-111499998D01*
X88954318Y-111500001D01*
X80364803Y-111500001D01*
X80364803Y-111500000D01*
X80364803Y-111499999D01*
X80345602Y-111133646D01*
X80294523Y-110811142D01*
X163674318Y-110811142D01*
X163694955Y-110967901D01*
X163694956Y-110967903D01*
X163755464Y-111113982D01*
X163851718Y-111239423D01*
X163977159Y-111335677D01*
X164123238Y-111396185D01*
X164240639Y-111411641D01*
X165740639Y-111411641D01*
X167240639Y-111411641D01*
X168740639Y-111411641D01*
X169082702Y-111411641D01*
X169149741Y-111431326D01*
X169170383Y-111447960D01*
X169726279Y-112003856D01*
X169759764Y-112065179D01*
X169762598Y-112091537D01*
X169762598Y-113483404D01*
X169762067Y-113491506D01*
X169757416Y-113526832D01*
X169757416Y-113526833D01*
X169762598Y-113566193D01*
X169778053Y-113683593D01*
X169778054Y-113683595D01*
X169838562Y-113829674D01*
X169934816Y-113955115D01*
X169963093Y-113976813D01*
X169969183Y-113982153D01*
X170467664Y-114480634D01*
X170861570Y-114874540D01*
X170866923Y-114880643D01*
X170888619Y-114908918D01*
X171014238Y-115005310D01*
X171015933Y-115005948D01*
X171160139Y-115065680D01*
X171238520Y-115075998D01*
X171316900Y-115086318D01*
X171316901Y-115086318D01*
X171352230Y-115081666D01*
X171360329Y-115081136D01*
X175856255Y-115081136D01*
X175856262Y-115081136D01*
X175973663Y-115065680D01*
X176119742Y-115005172D01*
X176245183Y-114908918D01*
X176341437Y-114783477D01*
X176401945Y-114637398D01*
X176422583Y-114480636D01*
X176401945Y-114323874D01*
X176341437Y-114177795D01*
X176245183Y-114052354D01*
X176119742Y-113956100D01*
X175973663Y-113895592D01*
X175973661Y-113895591D01*
X175856271Y-113880137D01*
X175856268Y-113880136D01*
X175856262Y-113880136D01*
X175856255Y-113880136D01*
X171616998Y-113880136D01*
X171549959Y-113860451D01*
X171529317Y-113843817D01*
X170999917Y-113314417D01*
X170966432Y-113253094D01*
X170963598Y-113226736D01*
X170963598Y-111834867D01*
X170964129Y-111826766D01*
X170968780Y-111791440D01*
X170968780Y-111791438D01*
X170948142Y-111634679D01*
X170948140Y-111634674D01*
X170892357Y-111500000D01*
X220675197Y-111500000D01*
X220694397Y-111866353D01*
X220751784Y-112228684D01*
X220751784Y-112228686D01*
X220846736Y-112583051D01*
X220978204Y-112925535D01*
X221144754Y-113252406D01*
X221344549Y-113560064D01*
X221501658Y-113754076D01*
X222754839Y-112500895D01*
X222816162Y-112467410D01*
X222885854Y-112472394D01*
X222936810Y-112508044D01*
X222995611Y-112576890D01*
X223045130Y-112634870D01*
X223171956Y-112743189D01*
X223210147Y-112801693D01*
X223210647Y-112871561D01*
X223179104Y-112925158D01*
X221925921Y-114178340D01*
X222119924Y-114335442D01*
X222119937Y-114335451D01*
X222427593Y-114535245D01*
X222754464Y-114701795D01*
X223096948Y-114833263D01*
X223451314Y-114928215D01*
X223813646Y-114985602D01*
X224179999Y-115004803D01*
X224180001Y-115004803D01*
X224546353Y-114985602D01*
X224908684Y-114928215D01*
X224908686Y-114928215D01*
X225263051Y-114833263D01*
X225605535Y-114701795D01*
X225932406Y-114535245D01*
X226240065Y-114335450D01*
X226434077Y-114178341D01*
X225180895Y-112925159D01*
X225147410Y-112863836D01*
X225152394Y-112794144D01*
X225188042Y-112743190D01*
X225314870Y-112634870D01*
X225423189Y-112508043D01*
X225481694Y-112469852D01*
X225551562Y-112469352D01*
X225605159Y-112500895D01*
X226858341Y-113754077D01*
X227015450Y-113560065D01*
X227215245Y-113252406D01*
X227381795Y-112925535D01*
X227513263Y-112583051D01*
X227608215Y-112228686D01*
X227608215Y-112228684D01*
X227665602Y-111866353D01*
X227684803Y-111500000D01*
X227684803Y-111499999D01*
X227665602Y-111133646D01*
X227608215Y-110771315D01*
X227608215Y-110771313D01*
X227513263Y-110416948D01*
X227381795Y-110074464D01*
X227215245Y-109747594D01*
X227015450Y-109439935D01*
X226858340Y-109245922D01*
X225605158Y-110499104D01*
X225543835Y-110532589D01*
X225474143Y-110527605D01*
X225423189Y-110491956D01*
X225314870Y-110365130D01*
X225222929Y-110286605D01*
X225188044Y-110256810D01*
X225149851Y-110198303D01*
X225149353Y-110128435D01*
X225180895Y-110074839D01*
X226434076Y-108821658D01*
X226240064Y-108664549D01*
X225932406Y-108464754D01*
X225605535Y-108298204D01*
X225263051Y-108166736D01*
X224908685Y-108071784D01*
X224546353Y-108014397D01*
X224180001Y-107995197D01*
X224179999Y-107995197D01*
X223813646Y-108014397D01*
X223451315Y-108071784D01*
X223451313Y-108071784D01*
X223096948Y-108166736D01*
X222754464Y-108298204D01*
X222427594Y-108464754D01*
X222119929Y-108664553D01*
X221925922Y-108821658D01*
X223179104Y-110074840D01*
X223212589Y-110136163D01*
X223207605Y-110205855D01*
X223171955Y-110256811D01*
X223045130Y-110365130D01*
X222936811Y-110491955D01*
X222878304Y-110530148D01*
X222808436Y-110530646D01*
X222754840Y-110499104D01*
X221501658Y-109245922D01*
X221344553Y-109439929D01*
X221144754Y-109747594D01*
X220978204Y-110074464D01*
X220846736Y-110416948D01*
X220751784Y-110771313D01*
X220751784Y-110771315D01*
X220694397Y-111133646D01*
X220675197Y-111499999D01*
X220675197Y-111500000D01*
X170892357Y-111500000D01*
X170887636Y-111488603D01*
X170887636Y-111488602D01*
X170856450Y-111447960D01*
X170815548Y-111394655D01*
X170803464Y-111378906D01*
X170791381Y-111363158D01*
X170763107Y-111341463D01*
X170757010Y-111336117D01*
X169838119Y-110417226D01*
X169832779Y-110411136D01*
X169811081Y-110382859D01*
X169685640Y-110286605D01*
X169539561Y-110226097D01*
X169539559Y-110226096D01*
X169422160Y-110210641D01*
X169382799Y-110205459D01*
X169347469Y-110210110D01*
X169339371Y-110210641D01*
X168819361Y-110210641D01*
X167319361Y-110210641D01*
X165819361Y-110210641D01*
X164240639Y-110210641D01*
X164240633Y-110210641D01*
X164240629Y-110210642D01*
X164123239Y-110226096D01*
X164123237Y-110226097D01*
X163977160Y-110286604D01*
X163851718Y-110382859D01*
X163755463Y-110508301D01*
X163694956Y-110654378D01*
X163694955Y-110654380D01*
X163674318Y-110811139D01*
X163674318Y-110811142D01*
X80294523Y-110811142D01*
X80288215Y-110771315D01*
X80288215Y-110771313D01*
X80193263Y-110416948D01*
X80061795Y-110074464D01*
X79895245Y-109747594D01*
X79695450Y-109439935D01*
X79538340Y-109245922D01*
X78285158Y-110499104D01*
X78223835Y-110532589D01*
X78154143Y-110527605D01*
X78103189Y-110491956D01*
X77994870Y-110365130D01*
X77902929Y-110286605D01*
X77868044Y-110256810D01*
X77829851Y-110198303D01*
X77829353Y-110128435D01*
X77860895Y-110074839D01*
X78975733Y-108960001D01*
X81334318Y-108960001D01*
X81354955Y-109116760D01*
X81354956Y-109116762D01*
X81415464Y-109262841D01*
X81511718Y-109388282D01*
X81637159Y-109484536D01*
X81783238Y-109545044D01*
X81900639Y-109560500D01*
X83348883Y-109560500D01*
X83415922Y-109580185D01*
X83461677Y-109632989D01*
X83471999Y-109669717D01*
X83477623Y-109716562D01*
X83533139Y-109857342D01*
X83533140Y-109857344D01*
X83624577Y-109977922D01*
X83745155Y-110069359D01*
X83745158Y-110069361D01*
X83885936Y-110124876D01*
X83974401Y-110135500D01*
X84985598Y-110135499D01*
X85074064Y-110124876D01*
X85214842Y-110069361D01*
X85335422Y-109977922D01*
X85426861Y-109857342D01*
X85482376Y-109716564D01*
X85493000Y-109628099D01*
X85493000Y-109260000D01*
X86442501Y-109260000D01*
X86442501Y-109628052D01*
X86453113Y-109716443D01*
X86453115Y-109716447D01*
X86508578Y-109857091D01*
X86508579Y-109857093D01*
X86599935Y-109977564D01*
X86720406Y-110068920D01*
X86720408Y-110068921D01*
X86861054Y-110124385D01*
X86949447Y-110134999D01*
X87154999Y-110134999D01*
X87155000Y-110134998D01*
X87155000Y-109260000D01*
X87755000Y-109260000D01*
X87755000Y-110134999D01*
X87960553Y-110134999D01*
X88048943Y-110124386D01*
X88048947Y-110124384D01*
X88189591Y-110068921D01*
X88189593Y-110068920D01*
X88310064Y-109977564D01*
X88401420Y-109857093D01*
X88401421Y-109857091D01*
X88456885Y-109716445D01*
X88467500Y-109628052D01*
X88467500Y-109260000D01*
X87755000Y-109260000D01*
X87155000Y-109260000D01*
X86442501Y-109260000D01*
X85493000Y-109260000D01*
X85492999Y-108660000D01*
X86442500Y-108660000D01*
X87155000Y-108660000D01*
X87155000Y-107785000D01*
X87755000Y-107785000D01*
X87755000Y-108660000D01*
X88467499Y-108660000D01*
X88467499Y-108291947D01*
X88456886Y-108203556D01*
X88456884Y-108203552D01*
X88401421Y-108062908D01*
X88401420Y-108062906D01*
X88310064Y-107942435D01*
X88189593Y-107851079D01*
X88189591Y-107851078D01*
X88048945Y-107795614D01*
X87960553Y-107785000D01*
X87755000Y-107785000D01*
X87155000Y-107785000D01*
X86949447Y-107785000D01*
X86861056Y-107795613D01*
X86861052Y-107795615D01*
X86720408Y-107851078D01*
X86720406Y-107851079D01*
X86599935Y-107942435D01*
X86508579Y-108062906D01*
X86508578Y-108062908D01*
X86453114Y-108203554D01*
X86442500Y-108291947D01*
X86442500Y-108660000D01*
X85492999Y-108660000D01*
X85492999Y-108291902D01*
X85482376Y-108203436D01*
X85426861Y-108062658D01*
X85426859Y-108062655D01*
X85335422Y-107942077D01*
X85214844Y-107850640D01*
X85214842Y-107850639D01*
X85074064Y-107795124D01*
X85074061Y-107795123D01*
X84985599Y-107784500D01*
X83974408Y-107784500D01*
X83885937Y-107795123D01*
X83745157Y-107850639D01*
X83745155Y-107850640D01*
X83624577Y-107942077D01*
X83533140Y-108062655D01*
X83533138Y-108062658D01*
X83533139Y-108062658D01*
X83492097Y-108166736D01*
X83477624Y-108203437D01*
X83477623Y-108203438D01*
X83471998Y-108250285D01*
X83444461Y-108314499D01*
X83386578Y-108353632D01*
X83348883Y-108359500D01*
X81900639Y-108359500D01*
X81900633Y-108359500D01*
X81900629Y-108359501D01*
X81783239Y-108374955D01*
X81783237Y-108374956D01*
X81637160Y-108435463D01*
X81511718Y-108531718D01*
X81415463Y-108657160D01*
X81354956Y-108803237D01*
X81354955Y-108803239D01*
X81334318Y-108959998D01*
X81334318Y-108960001D01*
X78975733Y-108960001D01*
X79114076Y-108821658D01*
X78920064Y-108664549D01*
X78612406Y-108464754D01*
X78285535Y-108298204D01*
X77943051Y-108166736D01*
X77588685Y-108071784D01*
X77226353Y-108014397D01*
X76860001Y-107995197D01*
X76859999Y-107995197D01*
X76493646Y-108014397D01*
X76131315Y-108071784D01*
X76131313Y-108071784D01*
X75776948Y-108166736D01*
X75434464Y-108298204D01*
X75107594Y-108464754D01*
X74799929Y-108664553D01*
X74605922Y-108821658D01*
X75859104Y-110074840D01*
X75892589Y-110136163D01*
X75887605Y-110205855D01*
X75851955Y-110256811D01*
X75725130Y-110365130D01*
X75616811Y-110491955D01*
X75558304Y-110530148D01*
X75488436Y-110530646D01*
X75434840Y-110499104D01*
X74181658Y-109245922D01*
X74024553Y-109439929D01*
X73824754Y-109747594D01*
X73658204Y-110074464D01*
X73526736Y-110416948D01*
X73431784Y-110771313D01*
X73431784Y-110771315D01*
X73374397Y-111133646D01*
X73355197Y-111499999D01*
X73355197Y-111500000D01*
X72280500Y-111500000D01*
X72280500Y-103880001D01*
X83324571Y-103880001D01*
X83329235Y-103930336D01*
X83329500Y-103936060D01*
X83329500Y-103986612D01*
X83338786Y-104036294D01*
X83339578Y-104041966D01*
X83344243Y-104092307D01*
X83358077Y-104140930D01*
X83359389Y-104146506D01*
X83368679Y-104196198D01*
X83386940Y-104243337D01*
X83388761Y-104248769D01*
X83396732Y-104276785D01*
X83402595Y-104297388D01*
X83402597Y-104297393D01*
X83425129Y-104342645D01*
X83427438Y-104347875D01*
X83445701Y-104395019D01*
X83445702Y-104395019D01*
X83472317Y-104438004D01*
X83475104Y-104443009D01*
X83497632Y-104488253D01*
X83528096Y-104528594D01*
X83531333Y-104533319D01*
X83557947Y-104576301D01*
X83557948Y-104576302D01*
X83592003Y-104613658D01*
X83595664Y-104618067D01*
X83626128Y-104658407D01*
X83663485Y-104692463D01*
X83667535Y-104696513D01*
X83701594Y-104733873D01*
X83741933Y-104764336D01*
X83746340Y-104767996D01*
X83783696Y-104802051D01*
X83826678Y-104828665D01*
X83831405Y-104831903D01*
X83871742Y-104862364D01*
X83871745Y-104862366D01*
X83904864Y-104878857D01*
X83916996Y-104884898D01*
X83921990Y-104887678D01*
X83964981Y-104914298D01*
X84012130Y-104932563D01*
X84017347Y-104934866D01*
X84049569Y-104950911D01*
X84062604Y-104957402D01*
X84062608Y-104957403D01*
X84062611Y-104957405D01*
X84062613Y-104957405D01*
X84062622Y-104957409D01*
X84111237Y-104971241D01*
X84116664Y-104973059D01*
X84163802Y-104991321D01*
X84163811Y-104991322D01*
X84163812Y-104991323D01*
X84173883Y-104993205D01*
X84213494Y-105000609D01*
X84219064Y-105001920D01*
X84235895Y-105006708D01*
X84267690Y-105015756D01*
X84318043Y-105020421D01*
X84323695Y-105021210D01*
X84373390Y-105030500D01*
X84373393Y-105030500D01*
X87076218Y-105030500D01*
X87076238Y-105030499D01*
X87914856Y-105030499D01*
X87914864Y-105030499D01*
X87914879Y-105030497D01*
X87914882Y-105030497D01*
X87939987Y-105027586D01*
X87939988Y-105027585D01*
X87939991Y-105027585D01*
X88042765Y-104982206D01*
X88122206Y-104902765D01*
X88167585Y-104799991D01*
X88170500Y-104774865D01*
X88170500Y-103986610D01*
X88170500Y-103880001D01*
X139754318Y-103880001D01*
X139774955Y-104036760D01*
X139774957Y-104036765D01*
X139835461Y-104182836D01*
X139835464Y-104182841D01*
X139907548Y-104276783D01*
X139907554Y-104276790D01*
X140244423Y-104613658D01*
X141167367Y-105536602D01*
X141172712Y-105542698D01*
X141194407Y-105570971D01*
X141319848Y-105667225D01*
X141465927Y-105727733D01*
X141544308Y-105738051D01*
X141622688Y-105748371D01*
X141622689Y-105748371D01*
X141658018Y-105743719D01*
X141666117Y-105743189D01*
X156273883Y-105743189D01*
X156281981Y-105743719D01*
X156317311Y-105748371D01*
X156317312Y-105748371D01*
X156369564Y-105741491D01*
X156474073Y-105727733D01*
X156620152Y-105667225D01*
X156620151Y-105667224D01*
X156639092Y-105659379D01*
X156643428Y-105651090D01*
X156657170Y-105638818D01*
X156745593Y-105570971D01*
X156767295Y-105542687D01*
X156772621Y-105536612D01*
X158032450Y-104276785D01*
X158104536Y-104182841D01*
X158165044Y-104036762D01*
X158185682Y-103880000D01*
X158165044Y-103723238D01*
X158104536Y-103577159D01*
X158008282Y-103451718D01*
X157882841Y-103355464D01*
X157796168Y-103319563D01*
X157736762Y-103294956D01*
X157736760Y-103294955D01*
X157580001Y-103274318D01*
X157579999Y-103274318D01*
X157423239Y-103294955D01*
X157423234Y-103294957D01*
X157277163Y-103355461D01*
X157277158Y-103355464D01*
X157183216Y-103427548D01*
X157183209Y-103427554D01*
X156104895Y-104505870D01*
X156043572Y-104539355D01*
X156017214Y-104542189D01*
X141922786Y-104542189D01*
X141855747Y-104522504D01*
X141835105Y-104505870D01*
X140756790Y-103427554D01*
X140756783Y-103427548D01*
X140662841Y-103355464D01*
X140662836Y-103355461D01*
X140516765Y-103294957D01*
X140516760Y-103294955D01*
X140360001Y-103274318D01*
X140359999Y-103274318D01*
X140203239Y-103294955D01*
X140203237Y-103294956D01*
X140057160Y-103355463D01*
X139931718Y-103451718D01*
X139835463Y-103577160D01*
X139774956Y-103723237D01*
X139774955Y-103723239D01*
X139754318Y-103879998D01*
X139754318Y-103880001D01*
X88170500Y-103880001D01*
X88170500Y-103773390D01*
X88170500Y-103763401D01*
X88170499Y-103763387D01*
X88170499Y-102985143D01*
X88170499Y-102985136D01*
X88170497Y-102985117D01*
X88167586Y-102960012D01*
X88167585Y-102960010D01*
X88167585Y-102960009D01*
X88122206Y-102857235D01*
X88042765Y-102777794D01*
X88022124Y-102768680D01*
X87939992Y-102732415D01*
X87914868Y-102729500D01*
X87914865Y-102729500D01*
X87186247Y-102729500D01*
X87119208Y-102709815D01*
X87073453Y-102657011D01*
X87063509Y-102587853D01*
X87092534Y-102524297D01*
X87151312Y-102486523D01*
X87163455Y-102483613D01*
X87176296Y-102481212D01*
X87181955Y-102480421D01*
X87232310Y-102475756D01*
X87280941Y-102461917D01*
X87286498Y-102460610D01*
X87336198Y-102451321D01*
X87383341Y-102433056D01*
X87388755Y-102431241D01*
X87437389Y-102417405D01*
X87482650Y-102394867D01*
X87487851Y-102392569D01*
X87535019Y-102374298D01*
X87578000Y-102347684D01*
X87582988Y-102344904D01*
X87628255Y-102322366D01*
X87668610Y-102291889D01*
X87673308Y-102288672D01*
X87716302Y-102262052D01*
X87753678Y-102227977D01*
X87758047Y-102224349D01*
X87798407Y-102193872D01*
X87832476Y-102156499D01*
X87836499Y-102152476D01*
X87873872Y-102118407D01*
X87904349Y-102078047D01*
X87907977Y-102073678D01*
X87942052Y-102036302D01*
X87968672Y-101993308D01*
X87971889Y-101988610D01*
X88002366Y-101948255D01*
X88024904Y-101902988D01*
X88027686Y-101897997D01*
X88054298Y-101855019D01*
X88072569Y-101807851D01*
X88074867Y-101802650D01*
X88097405Y-101757389D01*
X88111241Y-101708755D01*
X88113056Y-101703341D01*
X88131321Y-101656198D01*
X88140610Y-101606498D01*
X88141919Y-101600937D01*
X88141921Y-101600930D01*
X88155756Y-101552310D01*
X88160421Y-101501958D01*
X88161211Y-101496300D01*
X88161212Y-101496294D01*
X88170500Y-101446610D01*
X88170500Y-101396060D01*
X88170765Y-101390336D01*
X88175429Y-101340000D01*
X88175429Y-101339998D01*
X88170765Y-101289661D01*
X88170500Y-101283938D01*
X88170500Y-101233392D01*
X88161211Y-101183700D01*
X88160421Y-101178043D01*
X88155756Y-101127690D01*
X88146708Y-101095895D01*
X88141920Y-101079064D01*
X88140609Y-101073494D01*
X88131321Y-101023802D01*
X88113058Y-100976661D01*
X88111241Y-100971237D01*
X88097409Y-100922622D01*
X88097402Y-100922604D01*
X88090911Y-100909569D01*
X88074866Y-100877347D01*
X88072561Y-100872125D01*
X88072559Y-100872121D01*
X88054298Y-100824981D01*
X88027678Y-100781990D01*
X88024898Y-100776996D01*
X88002372Y-100731758D01*
X88002366Y-100731745D01*
X88002364Y-100731742D01*
X87971903Y-100691405D01*
X87968665Y-100686678D01*
X87942051Y-100643696D01*
X87907996Y-100606340D01*
X87904336Y-100601933D01*
X87873873Y-100561594D01*
X87836513Y-100527535D01*
X87832463Y-100523485D01*
X87798407Y-100486128D01*
X87758067Y-100455664D01*
X87753663Y-100452007D01*
X87716302Y-100417948D01*
X87716301Y-100417947D01*
X87673319Y-100391333D01*
X87668594Y-100388096D01*
X87628253Y-100357632D01*
X87583009Y-100335104D01*
X87578004Y-100332317D01*
X87535019Y-100305702D01*
X87535018Y-100305701D01*
X87487875Y-100287438D01*
X87482645Y-100285129D01*
X87437393Y-100262597D01*
X87437389Y-100262595D01*
X87388769Y-100248761D01*
X87383337Y-100246940D01*
X87336198Y-100228679D01*
X87286506Y-100219389D01*
X87280930Y-100218077D01*
X87232307Y-100204243D01*
X87181965Y-100199577D01*
X87176293Y-100198786D01*
X87138029Y-100191634D01*
X87075747Y-100159968D01*
X87040473Y-100099656D01*
X87043405Y-100029848D01*
X87083613Y-99972707D01*
X87138026Y-99947856D01*
X87336058Y-99910837D01*
X87336063Y-99910836D01*
X87534789Y-99833850D01*
X87534798Y-99833846D01*
X87715997Y-99721653D01*
X87715999Y-99721651D01*
X87873499Y-99578071D01*
X88001938Y-99407991D01*
X88096932Y-99217218D01*
X88096937Y-99217205D01*
X88130286Y-99100000D01*
X87618666Y-99100000D01*
X87551627Y-99080315D01*
X87505872Y-99027511D01*
X87495928Y-98958353D01*
X87499689Y-98941066D01*
X87519999Y-98871892D01*
X87520000Y-98871889D01*
X87520000Y-98728110D01*
X87519999Y-98728107D01*
X87499689Y-98658934D01*
X87499689Y-98589064D01*
X87537464Y-98530286D01*
X87601020Y-98501262D01*
X87618666Y-98500000D01*
X88130286Y-98500000D01*
X88130286Y-98499999D01*
X88096937Y-98382794D01*
X88096932Y-98382781D01*
X88001938Y-98192008D01*
X87873499Y-98021928D01*
X87715999Y-97878348D01*
X87715997Y-97878346D01*
X87534798Y-97766153D01*
X87534792Y-97766151D01*
X87336060Y-97689162D01*
X87320000Y-97686159D01*
X87320000Y-98195975D01*
X87300315Y-98263014D01*
X87247511Y-98308769D01*
X87178353Y-98318713D01*
X87163608Y-98315505D01*
X87070519Y-98302121D01*
X87055763Y-98300000D01*
X86984237Y-98300000D01*
X86868906Y-98316582D01*
X86868671Y-98314953D01*
X86809059Y-98314950D01*
X86750283Y-98277173D01*
X86721261Y-98213615D01*
X86720000Y-98195975D01*
X86720000Y-97686159D01*
X86703939Y-97689162D01*
X86505207Y-97766151D01*
X86505201Y-97766153D01*
X86324002Y-97878346D01*
X86324000Y-97878348D01*
X86166500Y-98021928D01*
X86038061Y-98192008D01*
X85943067Y-98382781D01*
X85943062Y-98382794D01*
X85909713Y-98499999D01*
X85909714Y-98500000D01*
X86421334Y-98500000D01*
X86488373Y-98519685D01*
X86534128Y-98572489D01*
X86544072Y-98641647D01*
X86540311Y-98658934D01*
X86520000Y-98728107D01*
X86520000Y-98871892D01*
X86540311Y-98941066D01*
X86540311Y-99010936D01*
X86502536Y-99069714D01*
X86438980Y-99098738D01*
X86421334Y-99100000D01*
X85909714Y-99100000D01*
X85943062Y-99217205D01*
X85943067Y-99217218D01*
X86038061Y-99407991D01*
X86166500Y-99578071D01*
X86324000Y-99721651D01*
X86324002Y-99721653D01*
X86505201Y-99833846D01*
X86505210Y-99833850D01*
X86703936Y-99910836D01*
X86703941Y-99910837D01*
X86879261Y-99943611D01*
X86941542Y-99975279D01*
X86976815Y-100035592D01*
X86973881Y-100105400D01*
X86933672Y-100162540D01*
X86868954Y-100188871D01*
X86856476Y-100189500D01*
X84643524Y-100189500D01*
X84576485Y-100169815D01*
X84530730Y-100117011D01*
X84520786Y-100047853D01*
X84549811Y-99984297D01*
X84608589Y-99946523D01*
X84620739Y-99943611D01*
X84796058Y-99910837D01*
X84796063Y-99910836D01*
X84994789Y-99833850D01*
X84994798Y-99833846D01*
X85175997Y-99721653D01*
X85175999Y-99721651D01*
X85333499Y-99578071D01*
X85461938Y-99407991D01*
X85556932Y-99217218D01*
X85556937Y-99217205D01*
X85590286Y-99100000D01*
X85078666Y-99100000D01*
X85011627Y-99080315D01*
X84965872Y-99027511D01*
X84955928Y-98958353D01*
X84959689Y-98941066D01*
X84979999Y-98871892D01*
X84980000Y-98871890D01*
X84980000Y-98728110D01*
X84979999Y-98728107D01*
X84959689Y-98658934D01*
X84959689Y-98589064D01*
X84997464Y-98530286D01*
X85061020Y-98501262D01*
X85078666Y-98500000D01*
X85590286Y-98500000D01*
X85590286Y-98499999D01*
X85556937Y-98382794D01*
X85556932Y-98382781D01*
X85461938Y-98192008D01*
X85333499Y-98021928D01*
X85175999Y-97878348D01*
X85175997Y-97878346D01*
X84994798Y-97766153D01*
X84994792Y-97766151D01*
X84796060Y-97689162D01*
X84780000Y-97686159D01*
X84780000Y-98195975D01*
X84760315Y-98263014D01*
X84707511Y-98308769D01*
X84638353Y-98318713D01*
X84623608Y-98315505D01*
X84530519Y-98302121D01*
X84515763Y-98300000D01*
X84444237Y-98300000D01*
X84328906Y-98316582D01*
X84328671Y-98314953D01*
X84269059Y-98314950D01*
X84210283Y-98277173D01*
X84181261Y-98213615D01*
X84180000Y-98195975D01*
X84180000Y-97686159D01*
X84163939Y-97689162D01*
X83965207Y-97766151D01*
X83965201Y-97766153D01*
X83784002Y-97878346D01*
X83784000Y-97878348D01*
X83626500Y-98021928D01*
X83498061Y-98192008D01*
X83403067Y-98382781D01*
X83403062Y-98382794D01*
X83369713Y-98499999D01*
X83369714Y-98500000D01*
X83881334Y-98500000D01*
X83948373Y-98519685D01*
X83994128Y-98572489D01*
X84004072Y-98641647D01*
X84000311Y-98658934D01*
X83980000Y-98728107D01*
X83980000Y-98871892D01*
X84000311Y-98941066D01*
X84000311Y-99010936D01*
X83962536Y-99069714D01*
X83898980Y-99098738D01*
X83881334Y-99100000D01*
X83369714Y-99100000D01*
X83403062Y-99217205D01*
X83403067Y-99217218D01*
X83498061Y-99407991D01*
X83626500Y-99578071D01*
X83784000Y-99721651D01*
X83784002Y-99721653D01*
X83965201Y-99833846D01*
X83965210Y-99833850D01*
X84163936Y-99910836D01*
X84163941Y-99910837D01*
X84361972Y-99947856D01*
X84424253Y-99979524D01*
X84459526Y-100039836D01*
X84456592Y-100109645D01*
X84416383Y-100166785D01*
X84361969Y-100191634D01*
X84323705Y-100198786D01*
X84318033Y-100199577D01*
X84267690Y-100204243D01*
X84219073Y-100218076D01*
X84213498Y-100219388D01*
X84163804Y-100228678D01*
X84163798Y-100228680D01*
X84116661Y-100246940D01*
X84111232Y-100248760D01*
X84062615Y-100262593D01*
X84062606Y-100262597D01*
X84017361Y-100285126D01*
X84012121Y-100287439D01*
X83964978Y-100305703D01*
X83964977Y-100305704D01*
X83921993Y-100332317D01*
X83916990Y-100335103D01*
X83871758Y-100357626D01*
X83871742Y-100357636D01*
X83831398Y-100388100D01*
X83826675Y-100391336D01*
X83783698Y-100417947D01*
X83746341Y-100452001D01*
X83741937Y-100455658D01*
X83701594Y-100486126D01*
X83667535Y-100523486D01*
X83663486Y-100527535D01*
X83626126Y-100561594D01*
X83595658Y-100601937D01*
X83592001Y-100606341D01*
X83557947Y-100643698D01*
X83531336Y-100686675D01*
X83528100Y-100691398D01*
X83497636Y-100731742D01*
X83497626Y-100731758D01*
X83475103Y-100776990D01*
X83472317Y-100781993D01*
X83445704Y-100824977D01*
X83445703Y-100824978D01*
X83427439Y-100872121D01*
X83425126Y-100877361D01*
X83402597Y-100922606D01*
X83402593Y-100922615D01*
X83388760Y-100971232D01*
X83386940Y-100976661D01*
X83368680Y-101023798D01*
X83368678Y-101023804D01*
X83359388Y-101073498D01*
X83358076Y-101079073D01*
X83344243Y-101127690D01*
X83339577Y-101178032D01*
X83338786Y-101183703D01*
X83329500Y-101233384D01*
X83329500Y-101283938D01*
X83329235Y-101289661D01*
X83324571Y-101339998D01*
X83324571Y-101340000D01*
X83329235Y-101390336D01*
X83329500Y-101396060D01*
X83329500Y-101446612D01*
X83338786Y-101496294D01*
X83339578Y-101501966D01*
X83344243Y-101552307D01*
X83358077Y-101600930D01*
X83359389Y-101606506D01*
X83368679Y-101656198D01*
X83386940Y-101703337D01*
X83388761Y-101708769D01*
X83402594Y-101757387D01*
X83402595Y-101757388D01*
X83402597Y-101757393D01*
X83425129Y-101802645D01*
X83427438Y-101807875D01*
X83445701Y-101855016D01*
X83445702Y-101855019D01*
X83472317Y-101898004D01*
X83475104Y-101903009D01*
X83497632Y-101948253D01*
X83528096Y-101988594D01*
X83531333Y-101993319D01*
X83557947Y-102036301D01*
X83557948Y-102036302D01*
X83592007Y-102073663D01*
X83595664Y-102078067D01*
X83626128Y-102118407D01*
X83663483Y-102152461D01*
X83663485Y-102152463D01*
X83667535Y-102156513D01*
X83701594Y-102193873D01*
X83741933Y-102224336D01*
X83746340Y-102227996D01*
X83783696Y-102262051D01*
X83826678Y-102288665D01*
X83831405Y-102291903D01*
X83871741Y-102322363D01*
X83871745Y-102322366D01*
X83904864Y-102338857D01*
X83916996Y-102344898D01*
X83921990Y-102347678D01*
X83964981Y-102374298D01*
X84012130Y-102392563D01*
X84017347Y-102394866D01*
X84049569Y-102410911D01*
X84062604Y-102417402D01*
X84062608Y-102417403D01*
X84062611Y-102417405D01*
X84062613Y-102417405D01*
X84062622Y-102417409D01*
X84111237Y-102431241D01*
X84116664Y-102433059D01*
X84163802Y-102451321D01*
X84163811Y-102451322D01*
X84163812Y-102451323D01*
X84173883Y-102453205D01*
X84213494Y-102460609D01*
X84219064Y-102461920D01*
X84235895Y-102466708D01*
X84267690Y-102475756D01*
X84318043Y-102480421D01*
X84323692Y-102481209D01*
X84340984Y-102484442D01*
X84360613Y-102488112D01*
X84422893Y-102519781D01*
X84458165Y-102580093D01*
X84455231Y-102649901D01*
X84415021Y-102707041D01*
X84360607Y-102731889D01*
X84350621Y-102733755D01*
X84323703Y-102738786D01*
X84318032Y-102739577D01*
X84267690Y-102744243D01*
X84219073Y-102758076D01*
X84213498Y-102759388D01*
X84163804Y-102768678D01*
X84163798Y-102768680D01*
X84116661Y-102786940D01*
X84111232Y-102788760D01*
X84062615Y-102802593D01*
X84062606Y-102802597D01*
X84017361Y-102825126D01*
X84012121Y-102827439D01*
X83964978Y-102845703D01*
X83964977Y-102845704D01*
X83921993Y-102872317D01*
X83916990Y-102875103D01*
X83871758Y-102897626D01*
X83871742Y-102897636D01*
X83831398Y-102928100D01*
X83826675Y-102931336D01*
X83783698Y-102957947D01*
X83746341Y-102992001D01*
X83741937Y-102995658D01*
X83701594Y-103026126D01*
X83667535Y-103063486D01*
X83663486Y-103067535D01*
X83626126Y-103101594D01*
X83595658Y-103141937D01*
X83592001Y-103146341D01*
X83557947Y-103183698D01*
X83531336Y-103226675D01*
X83528100Y-103231398D01*
X83497636Y-103271742D01*
X83497626Y-103271758D01*
X83475103Y-103316990D01*
X83472317Y-103321993D01*
X83445704Y-103364977D01*
X83445703Y-103364978D01*
X83427439Y-103412121D01*
X83425126Y-103417361D01*
X83402597Y-103462606D01*
X83402593Y-103462615D01*
X83388760Y-103511232D01*
X83386940Y-103516661D01*
X83368680Y-103563798D01*
X83368678Y-103563804D01*
X83359388Y-103613498D01*
X83358076Y-103619073D01*
X83344243Y-103667690D01*
X83339577Y-103718032D01*
X83338786Y-103723703D01*
X83329500Y-103773384D01*
X83329500Y-103823938D01*
X83329235Y-103829661D01*
X83324571Y-103879998D01*
X83324571Y-103880001D01*
X72280500Y-103880001D01*
X72280500Y-91180000D01*
X73355197Y-91180000D01*
X73374397Y-91546353D01*
X73431784Y-91908684D01*
X73431784Y-91908686D01*
X73526736Y-92263051D01*
X73658204Y-92605535D01*
X73824754Y-92932406D01*
X74024549Y-93240064D01*
X74181658Y-93434076D01*
X75434839Y-92180895D01*
X75496162Y-92147410D01*
X75565854Y-92152394D01*
X75616810Y-92188044D01*
X75675611Y-92256890D01*
X75725130Y-92314870D01*
X75851956Y-92423189D01*
X75890147Y-92481693D01*
X75890647Y-92551561D01*
X75859104Y-92605158D01*
X74605921Y-93858340D01*
X74799924Y-94015442D01*
X74799937Y-94015451D01*
X75107593Y-94215245D01*
X75434464Y-94381795D01*
X75776948Y-94513263D01*
X76131314Y-94608215D01*
X76493646Y-94665602D01*
X76859999Y-94684803D01*
X76860001Y-94684803D01*
X77226353Y-94665602D01*
X77588684Y-94608215D01*
X77588686Y-94608215D01*
X77943051Y-94513263D01*
X78285535Y-94381795D01*
X78612406Y-94215245D01*
X78920065Y-94015450D01*
X79114077Y-93858341D01*
X78975737Y-93720001D01*
X81334318Y-93720001D01*
X81354955Y-93876760D01*
X81354956Y-93876762D01*
X81412402Y-94015450D01*
X81415464Y-94022841D01*
X81511718Y-94148282D01*
X81637159Y-94244536D01*
X81783238Y-94305044D01*
X81900639Y-94320500D01*
X83348883Y-94320500D01*
X83415922Y-94340185D01*
X83461677Y-94392989D01*
X83471999Y-94429717D01*
X83477623Y-94476562D01*
X83533139Y-94617342D01*
X83533140Y-94617344D01*
X83624577Y-94737922D01*
X83745155Y-94829359D01*
X83745158Y-94829361D01*
X83885936Y-94884876D01*
X83974401Y-94895500D01*
X84985598Y-94895499D01*
X85074064Y-94884876D01*
X85214842Y-94829361D01*
X85335422Y-94737922D01*
X85426861Y-94617342D01*
X85482376Y-94476564D01*
X85493000Y-94388099D01*
X85493000Y-94020000D01*
X86442501Y-94020000D01*
X86442501Y-94388052D01*
X86453113Y-94476443D01*
X86453115Y-94476447D01*
X86508578Y-94617091D01*
X86508579Y-94617093D01*
X86599935Y-94737564D01*
X86720406Y-94828920D01*
X86720408Y-94828921D01*
X86861054Y-94884385D01*
X86949447Y-94894999D01*
X87154999Y-94894999D01*
X87155000Y-94894998D01*
X87155000Y-94020000D01*
X87755000Y-94020000D01*
X87755000Y-94894999D01*
X87960553Y-94894999D01*
X88048943Y-94884386D01*
X88048947Y-94884384D01*
X88189591Y-94828921D01*
X88189593Y-94828920D01*
X88310064Y-94737564D01*
X88401420Y-94617093D01*
X88401421Y-94617091D01*
X88456885Y-94476445D01*
X88467500Y-94388052D01*
X88467500Y-94020000D01*
X87755000Y-94020000D01*
X87155000Y-94020000D01*
X86442501Y-94020000D01*
X85493000Y-94020000D01*
X85492999Y-93420000D01*
X86442500Y-93420000D01*
X87155000Y-93420000D01*
X87155000Y-92545000D01*
X87755000Y-92545000D01*
X87755000Y-93420000D01*
X88467499Y-93420000D01*
X88467499Y-93051947D01*
X88456886Y-92963556D01*
X88456884Y-92963552D01*
X88401421Y-92822908D01*
X88401420Y-92822906D01*
X88310064Y-92702435D01*
X88189593Y-92611079D01*
X88189591Y-92611078D01*
X88048945Y-92555614D01*
X87960553Y-92545000D01*
X87755000Y-92545000D01*
X87155000Y-92545000D01*
X86949447Y-92545000D01*
X86861056Y-92555613D01*
X86861052Y-92555615D01*
X86720408Y-92611078D01*
X86720406Y-92611079D01*
X86599935Y-92702435D01*
X86508579Y-92822906D01*
X86508578Y-92822908D01*
X86453114Y-92963554D01*
X86442500Y-93051947D01*
X86442500Y-93420000D01*
X85492999Y-93420000D01*
X85492999Y-93051902D01*
X85482376Y-92963436D01*
X85426861Y-92822658D01*
X85426859Y-92822655D01*
X85335422Y-92702077D01*
X85214844Y-92610640D01*
X85214842Y-92610639D01*
X85074064Y-92555124D01*
X85074061Y-92555123D01*
X84985599Y-92544500D01*
X83974408Y-92544500D01*
X83885937Y-92555123D01*
X83745157Y-92610639D01*
X83745155Y-92610640D01*
X83624577Y-92702077D01*
X83533140Y-92822655D01*
X83477624Y-92963437D01*
X83477623Y-92963438D01*
X83471998Y-93010285D01*
X83444461Y-93074499D01*
X83386578Y-93113632D01*
X83348883Y-93119500D01*
X81900639Y-93119500D01*
X81900633Y-93119500D01*
X81900629Y-93119501D01*
X81783239Y-93134955D01*
X81783237Y-93134956D01*
X81637160Y-93195463D01*
X81511718Y-93291718D01*
X81415463Y-93417160D01*
X81354956Y-93563237D01*
X81354955Y-93563239D01*
X81334318Y-93719998D01*
X81334318Y-93720001D01*
X78975737Y-93720001D01*
X77860895Y-92605159D01*
X77827410Y-92543836D01*
X77832394Y-92474144D01*
X77868042Y-92423190D01*
X77994870Y-92314870D01*
X78103189Y-92188043D01*
X78161694Y-92149852D01*
X78231562Y-92149352D01*
X78285159Y-92180895D01*
X79538341Y-93434077D01*
X79695450Y-93240065D01*
X79895245Y-92932406D01*
X80061795Y-92605535D01*
X80193263Y-92263051D01*
X80288215Y-91908686D01*
X80288215Y-91908684D01*
X80345602Y-91546353D01*
X80364803Y-91180000D01*
X80364803Y-91179999D01*
X80345602Y-90813646D01*
X80288215Y-90451315D01*
X80288215Y-90451313D01*
X80193263Y-90096948D01*
X80061795Y-89754464D01*
X79895245Y-89427594D01*
X79695450Y-89119935D01*
X79538340Y-88925922D01*
X78285158Y-90179104D01*
X78223835Y-90212589D01*
X78154143Y-90207605D01*
X78103189Y-90171956D01*
X77994870Y-90045130D01*
X77936890Y-89995611D01*
X77868044Y-89936810D01*
X77829851Y-89878303D01*
X77829353Y-89808435D01*
X77860895Y-89754839D01*
X79114076Y-88501658D01*
X78920064Y-88344549D01*
X78612406Y-88144754D01*
X78285535Y-87978204D01*
X77943051Y-87846736D01*
X77588685Y-87751784D01*
X77226353Y-87694397D01*
X76860001Y-87675197D01*
X76859999Y-87675197D01*
X76493646Y-87694397D01*
X76131315Y-87751784D01*
X76131313Y-87751784D01*
X75776948Y-87846736D01*
X75434464Y-87978204D01*
X75107594Y-88144754D01*
X74799929Y-88344553D01*
X74605922Y-88501658D01*
X75859104Y-89754840D01*
X75892589Y-89816163D01*
X75887605Y-89885855D01*
X75851955Y-89936811D01*
X75725130Y-90045130D01*
X75616811Y-90171955D01*
X75558304Y-90210148D01*
X75488436Y-90210646D01*
X75434840Y-90179104D01*
X74181658Y-88925922D01*
X74024553Y-89119929D01*
X73824754Y-89427594D01*
X73658204Y-89754464D01*
X73526736Y-90096948D01*
X73431784Y-90451313D01*
X73431784Y-90451315D01*
X73374397Y-90813646D01*
X73355197Y-91179999D01*
X73355197Y-91180000D01*
X72280500Y-91180000D01*
X72280500Y-86724500D01*
X72300185Y-86657461D01*
X72352989Y-86611706D01*
X72404500Y-86600500D01*
X91300138Y-86600500D01*
X91367177Y-86620185D01*
G37*
G04 #@! TD.AperFunction*
M02*
