G04 #@! TF.GenerationSoftware,KiCad,Pcbnew,7.0.7-7.0.7~ubuntu22.04.1*
G04 #@! TF.CreationDate,2023-09-21T17:02:26+02:00*
G04 #@! TF.ProjectId,Geiger Tube Driver,47656967-6572-4205-9475-626520447269,1.0*
G04 #@! TF.SameCoordinates,Original*
G04 #@! TF.FileFunction,Soldermask,Top*
G04 #@! TF.FilePolarity,Negative*
%FSLAX46Y46*%
G04 Gerber Fmt 4.6, Leading zero omitted, Abs format (unit mm)*
G04 Created by KiCad (PCBNEW 7.0.7-7.0.7~ubuntu22.04.1) date 2023-09-21 17:02:26*
%MOMM*%
%LPD*%
G01*
G04 APERTURE LIST*
G04 APERTURE END LIST*
G36*
X76944866Y-108304766D02*
G01*
X77033239Y-108304766D01*
X77127593Y-108315027D01*
X77218286Y-108320121D01*
X77296297Y-108333375D01*
X77377692Y-108342228D01*
X77476827Y-108364049D01*
X77572067Y-108380231D01*
X77642406Y-108400495D01*
X77716067Y-108416709D01*
X77818574Y-108451248D01*
X77916893Y-108479573D01*
X77979045Y-108505317D01*
X78044417Y-108527344D01*
X78148715Y-108575597D01*
X78248428Y-108616900D01*
X78302068Y-108646546D01*
X78358874Y-108672827D01*
X78463243Y-108735624D01*
X78562503Y-108790483D01*
X78607599Y-108822480D01*
X78655755Y-108851455D01*
X78758321Y-108929423D01*
X78855167Y-108998139D01*
X78891908Y-109030972D01*
X78931590Y-109061138D01*
X79030412Y-109154747D01*
X79122742Y-109237258D01*
X79151553Y-109269498D01*
X79183131Y-109299410D01*
X79276173Y-109408948D01*
X79361861Y-109504833D01*
X79383383Y-109535166D01*
X79407436Y-109563483D01*
X79492634Y-109689140D01*
X79569517Y-109797497D01*
X79584576Y-109824745D01*
X79601880Y-109850266D01*
X79677197Y-109992329D01*
X79743100Y-110111572D01*
X79752691Y-110134727D01*
X79764174Y-110156386D01*
X79827585Y-110315536D01*
X79880427Y-110443107D01*
X79885682Y-110461350D01*
X79892419Y-110478257D01*
X79942018Y-110656896D01*
X79979769Y-110787933D01*
X79981926Y-110800633D01*
X79985115Y-110812116D01*
X80019106Y-111019457D01*
X80039879Y-111141714D01*
X80040259Y-111148481D01*
X80041167Y-111154020D01*
X80057858Y-111461863D01*
X80060000Y-111500000D01*
X80057855Y-111538189D01*
X80041167Y-111845979D01*
X80040259Y-111851516D01*
X80039879Y-111858286D01*
X80019102Y-111980569D01*
X79985115Y-112187883D01*
X79981927Y-112199363D01*
X79979769Y-112212067D01*
X79942010Y-112343130D01*
X79892419Y-112521742D01*
X79885683Y-112538646D01*
X79880427Y-112556893D01*
X79827574Y-112684489D01*
X79764174Y-112843613D01*
X79752693Y-112865268D01*
X79743100Y-112888428D01*
X79677184Y-113007694D01*
X79601880Y-113149733D01*
X79584579Y-113175248D01*
X79569517Y-113202503D01*
X79492618Y-113310880D01*
X79407436Y-113436516D01*
X79383387Y-113464827D01*
X79361861Y-113495167D01*
X79276156Y-113591071D01*
X79183131Y-113700589D01*
X79151559Y-113730494D01*
X79122742Y-113762742D01*
X79030393Y-113845269D01*
X78931590Y-113938861D01*
X78891915Y-113969020D01*
X78855167Y-114001861D01*
X78758301Y-114070590D01*
X78655755Y-114148544D01*
X78607609Y-114177512D01*
X78562503Y-114209517D01*
X78463222Y-114264387D01*
X78358874Y-114327172D01*
X78302079Y-114353447D01*
X78248428Y-114383100D01*
X78148694Y-114424411D01*
X78044417Y-114472655D01*
X77979058Y-114494676D01*
X77916893Y-114520427D01*
X77818554Y-114548757D01*
X77716067Y-114583290D01*
X77642420Y-114599500D01*
X77572067Y-114619769D01*
X77476807Y-114635954D01*
X77377692Y-114657771D01*
X77296309Y-114666622D01*
X77218286Y-114679879D01*
X77127588Y-114684972D01*
X77033239Y-114695234D01*
X76944866Y-114695234D01*
X76860000Y-114700000D01*
X76775134Y-114695234D01*
X76686761Y-114695234D01*
X76592411Y-114684972D01*
X76501714Y-114679879D01*
X76423691Y-114666622D01*
X76342307Y-114657771D01*
X76243187Y-114635953D01*
X76147933Y-114619769D01*
X76077582Y-114599501D01*
X76003932Y-114583290D01*
X75901438Y-114548755D01*
X75803107Y-114520427D01*
X75740945Y-114494678D01*
X75675582Y-114472655D01*
X75571295Y-114424407D01*
X75471572Y-114383100D01*
X75417925Y-114353450D01*
X75361125Y-114327172D01*
X75256764Y-114264380D01*
X75157497Y-114209517D01*
X75112396Y-114177516D01*
X75064244Y-114148544D01*
X74961683Y-114070580D01*
X74864833Y-114001861D01*
X74828089Y-113969025D01*
X74788409Y-113938861D01*
X74689588Y-113845253D01*
X74597258Y-113762742D01*
X74568445Y-113730501D01*
X74536868Y-113700589D01*
X74443823Y-113591048D01*
X74358139Y-113495167D01*
X74336617Y-113464835D01*
X74312563Y-113436516D01*
X74227358Y-113310849D01*
X74150483Y-113202503D01*
X74135424Y-113175256D01*
X74118119Y-113149733D01*
X74042791Y-113007649D01*
X73976900Y-112888428D01*
X73967310Y-112865277D01*
X73955825Y-112843613D01*
X73892399Y-112684425D01*
X73839573Y-112556893D01*
X73834318Y-112538655D01*
X73827580Y-112521742D01*
X73777961Y-112343034D01*
X73740231Y-112212067D01*
X73738074Y-112199372D01*
X73734884Y-112187883D01*
X73700869Y-111980401D01*
X73680121Y-111858286D01*
X73679741Y-111851525D01*
X73678832Y-111845979D01*
X73662115Y-111537673D01*
X73660000Y-111500000D01*
X73662112Y-111462379D01*
X73678832Y-111154020D01*
X73679741Y-111148472D01*
X73680121Y-111141714D01*
X73700864Y-111019625D01*
X73734884Y-110812116D01*
X73738074Y-110800624D01*
X73740231Y-110787933D01*
X73777954Y-110656992D01*
X73827580Y-110478257D01*
X73834319Y-110461341D01*
X73839573Y-110443107D01*
X73892388Y-110315599D01*
X73955825Y-110156386D01*
X73967312Y-110134718D01*
X73976900Y-110111572D01*
X74042778Y-109992373D01*
X74118119Y-109850266D01*
X74135427Y-109824737D01*
X74150483Y-109797497D01*
X74227343Y-109689172D01*
X74312563Y-109563483D01*
X74336621Y-109535158D01*
X74358139Y-109504833D01*
X74443806Y-109408970D01*
X74536868Y-109299410D01*
X74568451Y-109269492D01*
X74597258Y-109237258D01*
X74689569Y-109154763D01*
X74788409Y-109061138D01*
X74828097Y-109030967D01*
X74864833Y-108998139D01*
X74961663Y-108929433D01*
X75064244Y-108851455D01*
X75112405Y-108822477D01*
X75157497Y-108790483D01*
X75256744Y-108735630D01*
X75361125Y-108672827D01*
X75417936Y-108646543D01*
X75471572Y-108616900D01*
X75571275Y-108575601D01*
X75675582Y-108527344D01*
X75740958Y-108505315D01*
X75803107Y-108479573D01*
X75901418Y-108451250D01*
X76003932Y-108416709D01*
X76077596Y-108400494D01*
X76147933Y-108380231D01*
X76243167Y-108364049D01*
X76342307Y-108342228D01*
X76423704Y-108333375D01*
X76501714Y-108320121D01*
X76592406Y-108315027D01*
X76686761Y-108304766D01*
X76775134Y-108304766D01*
X76860000Y-108300000D01*
X76944866Y-108304766D01*
G37*
G36*
X224264866Y-108304766D02*
G01*
X224353239Y-108304766D01*
X224447593Y-108315027D01*
X224538286Y-108320121D01*
X224616297Y-108333375D01*
X224697692Y-108342228D01*
X224796827Y-108364049D01*
X224892067Y-108380231D01*
X224962406Y-108400495D01*
X225036067Y-108416709D01*
X225138574Y-108451248D01*
X225236893Y-108479573D01*
X225299045Y-108505317D01*
X225364417Y-108527344D01*
X225468715Y-108575597D01*
X225568428Y-108616900D01*
X225622068Y-108646546D01*
X225678874Y-108672827D01*
X225783243Y-108735624D01*
X225882503Y-108790483D01*
X225927599Y-108822480D01*
X225975755Y-108851455D01*
X226078321Y-108929423D01*
X226175167Y-108998139D01*
X226211908Y-109030972D01*
X226251590Y-109061138D01*
X226350412Y-109154747D01*
X226442742Y-109237258D01*
X226471553Y-109269498D01*
X226503131Y-109299410D01*
X226596173Y-109408948D01*
X226681861Y-109504833D01*
X226703383Y-109535166D01*
X226727436Y-109563483D01*
X226812634Y-109689140D01*
X226889517Y-109797497D01*
X226904576Y-109824745D01*
X226921880Y-109850266D01*
X226997197Y-109992329D01*
X227063100Y-110111572D01*
X227072691Y-110134727D01*
X227084174Y-110156386D01*
X227147585Y-110315536D01*
X227200427Y-110443107D01*
X227205682Y-110461350D01*
X227212419Y-110478257D01*
X227262018Y-110656896D01*
X227299769Y-110787933D01*
X227301926Y-110800633D01*
X227305115Y-110812116D01*
X227339106Y-111019457D01*
X227359879Y-111141714D01*
X227360259Y-111148481D01*
X227361167Y-111154020D01*
X227377858Y-111461863D01*
X227380000Y-111500000D01*
X227377855Y-111538189D01*
X227361167Y-111845979D01*
X227360259Y-111851516D01*
X227359879Y-111858286D01*
X227339102Y-111980569D01*
X227305115Y-112187883D01*
X227301927Y-112199363D01*
X227299769Y-112212067D01*
X227262010Y-112343130D01*
X227212419Y-112521742D01*
X227205683Y-112538646D01*
X227200427Y-112556893D01*
X227147574Y-112684489D01*
X227084174Y-112843613D01*
X227072693Y-112865268D01*
X227063100Y-112888428D01*
X226997184Y-113007694D01*
X226921880Y-113149733D01*
X226904579Y-113175248D01*
X226889517Y-113202503D01*
X226812618Y-113310880D01*
X226727436Y-113436516D01*
X226703387Y-113464827D01*
X226681861Y-113495167D01*
X226596156Y-113591071D01*
X226503131Y-113700589D01*
X226471559Y-113730494D01*
X226442742Y-113762742D01*
X226350393Y-113845269D01*
X226251590Y-113938861D01*
X226211915Y-113969020D01*
X226175167Y-114001861D01*
X226078301Y-114070590D01*
X225975755Y-114148544D01*
X225927609Y-114177512D01*
X225882503Y-114209517D01*
X225783222Y-114264387D01*
X225678874Y-114327172D01*
X225622079Y-114353447D01*
X225568428Y-114383100D01*
X225468694Y-114424411D01*
X225364417Y-114472655D01*
X225299058Y-114494676D01*
X225236893Y-114520427D01*
X225138554Y-114548757D01*
X225036067Y-114583290D01*
X224962420Y-114599500D01*
X224892067Y-114619769D01*
X224796807Y-114635954D01*
X224697692Y-114657771D01*
X224616309Y-114666622D01*
X224538286Y-114679879D01*
X224447588Y-114684972D01*
X224353239Y-114695234D01*
X224264866Y-114695234D01*
X224180000Y-114700000D01*
X224095134Y-114695234D01*
X224006761Y-114695234D01*
X223912411Y-114684972D01*
X223821714Y-114679879D01*
X223743691Y-114666622D01*
X223662307Y-114657771D01*
X223563187Y-114635953D01*
X223467933Y-114619769D01*
X223397582Y-114599501D01*
X223323932Y-114583290D01*
X223221438Y-114548755D01*
X223123107Y-114520427D01*
X223060945Y-114494678D01*
X222995582Y-114472655D01*
X222891295Y-114424407D01*
X222791572Y-114383100D01*
X222737925Y-114353450D01*
X222681125Y-114327172D01*
X222576764Y-114264380D01*
X222477497Y-114209517D01*
X222432396Y-114177516D01*
X222384244Y-114148544D01*
X222281683Y-114070580D01*
X222184833Y-114001861D01*
X222148089Y-113969025D01*
X222108409Y-113938861D01*
X222009588Y-113845253D01*
X221917258Y-113762742D01*
X221888445Y-113730501D01*
X221856868Y-113700589D01*
X221763823Y-113591048D01*
X221678139Y-113495167D01*
X221656617Y-113464835D01*
X221632563Y-113436516D01*
X221547358Y-113310849D01*
X221470483Y-113202503D01*
X221455424Y-113175256D01*
X221438119Y-113149733D01*
X221362791Y-113007649D01*
X221296900Y-112888428D01*
X221287310Y-112865277D01*
X221275825Y-112843613D01*
X221212399Y-112684425D01*
X221159573Y-112556893D01*
X221154318Y-112538655D01*
X221147580Y-112521742D01*
X221097961Y-112343034D01*
X221060231Y-112212067D01*
X221058074Y-112199372D01*
X221054884Y-112187883D01*
X221020869Y-111980401D01*
X221000121Y-111858286D01*
X220999741Y-111851525D01*
X220998832Y-111845979D01*
X220982141Y-111538132D01*
X220980000Y-111500000D01*
X220982138Y-111461920D01*
X220998832Y-111154020D01*
X220999741Y-111148472D01*
X221000121Y-111141714D01*
X221020864Y-111019625D01*
X221054884Y-110812116D01*
X221058074Y-110800624D01*
X221060231Y-110787933D01*
X221097954Y-110656992D01*
X221147580Y-110478257D01*
X221154319Y-110461341D01*
X221159573Y-110443107D01*
X221212388Y-110315599D01*
X221275825Y-110156386D01*
X221287312Y-110134718D01*
X221296900Y-110111572D01*
X221362778Y-109992373D01*
X221438119Y-109850266D01*
X221455427Y-109824737D01*
X221470483Y-109797497D01*
X221547343Y-109689172D01*
X221632563Y-109563483D01*
X221656621Y-109535158D01*
X221678139Y-109504833D01*
X221763806Y-109408970D01*
X221856868Y-109299410D01*
X221888451Y-109269492D01*
X221917258Y-109237258D01*
X222009569Y-109154763D01*
X222108409Y-109061138D01*
X222148097Y-109030967D01*
X222184833Y-108998139D01*
X222281663Y-108929433D01*
X222384244Y-108851455D01*
X222432405Y-108822477D01*
X222477497Y-108790483D01*
X222576744Y-108735630D01*
X222681125Y-108672827D01*
X222737936Y-108646543D01*
X222791572Y-108616900D01*
X222891275Y-108575601D01*
X222995582Y-108527344D01*
X223060958Y-108505315D01*
X223123107Y-108479573D01*
X223221418Y-108451250D01*
X223323932Y-108416709D01*
X223397596Y-108400494D01*
X223467933Y-108380231D01*
X223563167Y-108364049D01*
X223662307Y-108342228D01*
X223743704Y-108333375D01*
X223821714Y-108320121D01*
X223912406Y-108315027D01*
X224006761Y-108304766D01*
X224095134Y-108304766D01*
X224180000Y-108300000D01*
X224264866Y-108304766D01*
G37*
G36*
X199434047Y-111423305D02*
G01*
X199485408Y-111429264D01*
X199502954Y-111437011D01*
X199525671Y-111441530D01*
X199549991Y-111457780D01*
X199570793Y-111466965D01*
X199585000Y-111481172D01*
X199606777Y-111495723D01*
X199621327Y-111517499D01*
X199635534Y-111531706D01*
X199644718Y-111552506D01*
X199660970Y-111576829D01*
X199665489Y-111599548D01*
X199673235Y-111617091D01*
X199679192Y-111668440D01*
X199680000Y-111672500D01*
X199680000Y-112497500D01*
X199679192Y-112501559D01*
X199673235Y-112552908D01*
X199665489Y-112570450D01*
X199660970Y-112593171D01*
X199644716Y-112617495D01*
X199635534Y-112638293D01*
X199621329Y-112652497D01*
X199606777Y-112674277D01*
X199584997Y-112688829D01*
X199570793Y-112703034D01*
X199549995Y-112712216D01*
X199525671Y-112728470D01*
X199502950Y-112732989D01*
X199485408Y-112740735D01*
X199434061Y-112746692D01*
X199430000Y-112747500D01*
X198130000Y-112747500D01*
X198125941Y-112746692D01*
X198074591Y-112740735D01*
X198057048Y-112732989D01*
X198034329Y-112728470D01*
X198010006Y-112712218D01*
X197989206Y-112703034D01*
X197974999Y-112688827D01*
X197953223Y-112674277D01*
X197938672Y-112652500D01*
X197924465Y-112638293D01*
X197915280Y-112617491D01*
X197899030Y-112593171D01*
X197894511Y-112570454D01*
X197886764Y-112552908D01*
X197880805Y-112501549D01*
X197880000Y-112497500D01*
X197880000Y-111672500D01*
X197880804Y-111668453D01*
X197886764Y-111617091D01*
X197894511Y-111599543D01*
X197899030Y-111576829D01*
X197915278Y-111552510D01*
X197924465Y-111531706D01*
X197938674Y-111517496D01*
X197953223Y-111495723D01*
X197974996Y-111481174D01*
X197989206Y-111466965D01*
X198010010Y-111457778D01*
X198034329Y-111441530D01*
X198057043Y-111437011D01*
X198074591Y-111429264D01*
X198125952Y-111423305D01*
X198130000Y-111422500D01*
X199430000Y-111422500D01*
X199434047Y-111423305D01*
G37*
G36*
X84884047Y-110625805D02*
G01*
X84935408Y-110631764D01*
X84952954Y-110639511D01*
X84975671Y-110644030D01*
X84999991Y-110660280D01*
X85020793Y-110669465D01*
X85035000Y-110683672D01*
X85056777Y-110698223D01*
X85071327Y-110719999D01*
X85085534Y-110734206D01*
X85094718Y-110755006D01*
X85110970Y-110779329D01*
X85115489Y-110802048D01*
X85123235Y-110819591D01*
X85129192Y-110870940D01*
X85130000Y-110875000D01*
X85130000Y-112125000D01*
X85129192Y-112129059D01*
X85123235Y-112180408D01*
X85115489Y-112197950D01*
X85110970Y-112220671D01*
X85094716Y-112244995D01*
X85085534Y-112265793D01*
X85071329Y-112279997D01*
X85056777Y-112301777D01*
X85034997Y-112316329D01*
X85020793Y-112330534D01*
X84999995Y-112339716D01*
X84975671Y-112355970D01*
X84952950Y-112360489D01*
X84935408Y-112368235D01*
X84884061Y-112374192D01*
X84880000Y-112375000D01*
X84080000Y-112375000D01*
X84075941Y-112374192D01*
X84024591Y-112368235D01*
X84007048Y-112360489D01*
X83984329Y-112355970D01*
X83960006Y-112339718D01*
X83939206Y-112330534D01*
X83924999Y-112316327D01*
X83903223Y-112301777D01*
X83888672Y-112280000D01*
X83874465Y-112265793D01*
X83865280Y-112244991D01*
X83849030Y-112220671D01*
X83844511Y-112197954D01*
X83836764Y-112180408D01*
X83830805Y-112129049D01*
X83830000Y-112125000D01*
X83830000Y-110875000D01*
X83830804Y-110870953D01*
X83836764Y-110819591D01*
X83844511Y-110802043D01*
X83849030Y-110779329D01*
X83865278Y-110755010D01*
X83874465Y-110734206D01*
X83888674Y-110719996D01*
X83903223Y-110698223D01*
X83924996Y-110683674D01*
X83939206Y-110669465D01*
X83960010Y-110660278D01*
X83984329Y-110644030D01*
X84007043Y-110639511D01*
X84024591Y-110631764D01*
X84075952Y-110625805D01*
X84080000Y-110625000D01*
X84880000Y-110625000D01*
X84884047Y-110625805D01*
G37*
G36*
X87984047Y-110625805D02*
G01*
X88035408Y-110631764D01*
X88052954Y-110639511D01*
X88075671Y-110644030D01*
X88099991Y-110660280D01*
X88120793Y-110669465D01*
X88135000Y-110683672D01*
X88156777Y-110698223D01*
X88171327Y-110719999D01*
X88185534Y-110734206D01*
X88194718Y-110755006D01*
X88210970Y-110779329D01*
X88215489Y-110802048D01*
X88223235Y-110819591D01*
X88229192Y-110870940D01*
X88230000Y-110875000D01*
X88230000Y-112125000D01*
X88229192Y-112129059D01*
X88223235Y-112180408D01*
X88215489Y-112197950D01*
X88210970Y-112220671D01*
X88194716Y-112244995D01*
X88185534Y-112265793D01*
X88171329Y-112279997D01*
X88156777Y-112301777D01*
X88134997Y-112316329D01*
X88120793Y-112330534D01*
X88099995Y-112339716D01*
X88075671Y-112355970D01*
X88052950Y-112360489D01*
X88035408Y-112368235D01*
X87984061Y-112374192D01*
X87980000Y-112375000D01*
X87180000Y-112375000D01*
X87175941Y-112374192D01*
X87124591Y-112368235D01*
X87107048Y-112360489D01*
X87084329Y-112355970D01*
X87060006Y-112339718D01*
X87039206Y-112330534D01*
X87024999Y-112316327D01*
X87003223Y-112301777D01*
X86988672Y-112280000D01*
X86974465Y-112265793D01*
X86965280Y-112244991D01*
X86949030Y-112220671D01*
X86944511Y-112197954D01*
X86936764Y-112180408D01*
X86930805Y-112129049D01*
X86930000Y-112125000D01*
X86930000Y-110875000D01*
X86930804Y-110870953D01*
X86936764Y-110819591D01*
X86944511Y-110802043D01*
X86949030Y-110779329D01*
X86965278Y-110755010D01*
X86974465Y-110734206D01*
X86988674Y-110719996D01*
X87003223Y-110698223D01*
X87024996Y-110683674D01*
X87039206Y-110669465D01*
X87060010Y-110660278D01*
X87084329Y-110644030D01*
X87107043Y-110639511D01*
X87124591Y-110631764D01*
X87175952Y-110625805D01*
X87180000Y-110625000D01*
X87980000Y-110625000D01*
X87984047Y-110625805D01*
G37*
G36*
X189830000Y-111500000D02*
G01*
X182330000Y-111500000D01*
X182330000Y-108320000D01*
X189830000Y-108320000D01*
X189830000Y-111500000D01*
G37*
G36*
X125014047Y-107470805D02*
G01*
X125065408Y-107476764D01*
X125082954Y-107484511D01*
X125105671Y-107489030D01*
X125129991Y-107505280D01*
X125150793Y-107514465D01*
X125165000Y-107528672D01*
X125186777Y-107543223D01*
X125201327Y-107564999D01*
X125215534Y-107579206D01*
X125224718Y-107600006D01*
X125240970Y-107624329D01*
X125245489Y-107647048D01*
X125253235Y-107664591D01*
X125259192Y-107715940D01*
X125260000Y-107720000D01*
X125260000Y-110720000D01*
X125259192Y-110724059D01*
X125253235Y-110775408D01*
X125245489Y-110792950D01*
X125240970Y-110815671D01*
X125224716Y-110839995D01*
X125215534Y-110860793D01*
X125201329Y-110874997D01*
X125186777Y-110896777D01*
X125164997Y-110911329D01*
X125150793Y-110925534D01*
X125129995Y-110934716D01*
X125105671Y-110950970D01*
X125082950Y-110955489D01*
X125065408Y-110963235D01*
X125014061Y-110969192D01*
X125010000Y-110970000D01*
X123910000Y-110970000D01*
X123905941Y-110969192D01*
X123854591Y-110963235D01*
X123837048Y-110955489D01*
X123814329Y-110950970D01*
X123790006Y-110934718D01*
X123769206Y-110925534D01*
X123754999Y-110911327D01*
X123733223Y-110896777D01*
X123718672Y-110875000D01*
X123704465Y-110860793D01*
X123695280Y-110839991D01*
X123679030Y-110815671D01*
X123674511Y-110792954D01*
X123666764Y-110775408D01*
X123660805Y-110724049D01*
X123660000Y-110720000D01*
X123660000Y-107720000D01*
X123660804Y-107715953D01*
X123666764Y-107664591D01*
X123674511Y-107647043D01*
X123679030Y-107624329D01*
X123695278Y-107600010D01*
X123704465Y-107579206D01*
X123718674Y-107564996D01*
X123733223Y-107543223D01*
X123754996Y-107528674D01*
X123769206Y-107514465D01*
X123790010Y-107505278D01*
X123814329Y-107489030D01*
X123837043Y-107484511D01*
X123854591Y-107476764D01*
X123905952Y-107470805D01*
X123910000Y-107470000D01*
X125010000Y-107470000D01*
X125014047Y-107470805D01*
G37*
G36*
X174370000Y-110570000D02*
G01*
X172870000Y-110570000D01*
X172870000Y-108570000D01*
X174370000Y-108570000D01*
X174370000Y-110570000D01*
G37*
G36*
X176670000Y-110570000D02*
G01*
X175170000Y-110570000D01*
X175170000Y-108570000D01*
X176670000Y-108570000D01*
X176670000Y-110570000D01*
G37*
G36*
X178970000Y-110570000D02*
G01*
X177470000Y-110570000D01*
X177470000Y-108570000D01*
X178970000Y-108570000D01*
X178970000Y-110570000D01*
G37*
G36*
X116290000Y-110310000D02*
G01*
X114390000Y-110310000D01*
X114390000Y-109510000D01*
X116290000Y-109510000D01*
X116290000Y-110310000D01*
G37*
G36*
X158982403Y-107931418D02*
G01*
X159031066Y-107963934D01*
X159063582Y-108012597D01*
X159075000Y-108070000D01*
X159075000Y-109720000D01*
X159063582Y-109777403D01*
X159031066Y-109826066D01*
X158982403Y-109858582D01*
X158925000Y-109870000D01*
X158625000Y-109870000D01*
X158567597Y-109858582D01*
X158518934Y-109826066D01*
X158486418Y-109777403D01*
X158475000Y-109720000D01*
X158475000Y-108070000D01*
X158486418Y-108012597D01*
X158518934Y-107963934D01*
X158567597Y-107931418D01*
X158625000Y-107920000D01*
X158925000Y-107920000D01*
X158982403Y-107931418D01*
G37*
G36*
X160252403Y-107931418D02*
G01*
X160301066Y-107963934D01*
X160333582Y-108012597D01*
X160345000Y-108070000D01*
X160345000Y-109720000D01*
X160333582Y-109777403D01*
X160301066Y-109826066D01*
X160252403Y-109858582D01*
X160195000Y-109870000D01*
X159895000Y-109870000D01*
X159837597Y-109858582D01*
X159788934Y-109826066D01*
X159756418Y-109777403D01*
X159745000Y-109720000D01*
X159745000Y-108070000D01*
X159756418Y-108012597D01*
X159788934Y-107963934D01*
X159837597Y-107931418D01*
X159895000Y-107920000D01*
X160195000Y-107920000D01*
X160252403Y-107931418D01*
G37*
G36*
X161522403Y-107931418D02*
G01*
X161571066Y-107963934D01*
X161603582Y-108012597D01*
X161615000Y-108070000D01*
X161615000Y-109720000D01*
X161603582Y-109777403D01*
X161571066Y-109826066D01*
X161522403Y-109858582D01*
X161465000Y-109870000D01*
X161165000Y-109870000D01*
X161107597Y-109858582D01*
X161058934Y-109826066D01*
X161026418Y-109777403D01*
X161015000Y-109720000D01*
X161015000Y-108070000D01*
X161026418Y-108012597D01*
X161058934Y-107963934D01*
X161107597Y-107931418D01*
X161165000Y-107920000D01*
X161465000Y-107920000D01*
X161522403Y-107931418D01*
G37*
G36*
X162792403Y-107931418D02*
G01*
X162841066Y-107963934D01*
X162873582Y-108012597D01*
X162885000Y-108070000D01*
X162885000Y-109720000D01*
X162873582Y-109777403D01*
X162841066Y-109826066D01*
X162792403Y-109858582D01*
X162735000Y-109870000D01*
X162435000Y-109870000D01*
X162377597Y-109858582D01*
X162328934Y-109826066D01*
X162296418Y-109777403D01*
X162285000Y-109720000D01*
X162285000Y-108070000D01*
X162296418Y-108012597D01*
X162328934Y-107963934D01*
X162377597Y-107931418D01*
X162435000Y-107920000D01*
X162735000Y-107920000D01*
X162792403Y-107931418D01*
G37*
G36*
X153476547Y-108060805D02*
G01*
X153527908Y-108066764D01*
X153545454Y-108074511D01*
X153568171Y-108079030D01*
X153592491Y-108095280D01*
X153613293Y-108104465D01*
X153627500Y-108118672D01*
X153649277Y-108133223D01*
X153663827Y-108154999D01*
X153678034Y-108169206D01*
X153687218Y-108190006D01*
X153703470Y-108214329D01*
X153707989Y-108237048D01*
X153715735Y-108254591D01*
X153721692Y-108305940D01*
X153722500Y-108310000D01*
X153722500Y-109610000D01*
X153721692Y-109614059D01*
X153715735Y-109665408D01*
X153707989Y-109682950D01*
X153703470Y-109705671D01*
X153687216Y-109729995D01*
X153678034Y-109750793D01*
X153663829Y-109764997D01*
X153649277Y-109786777D01*
X153627497Y-109801329D01*
X153613293Y-109815534D01*
X153592495Y-109824716D01*
X153568171Y-109840970D01*
X153545450Y-109845489D01*
X153527908Y-109853235D01*
X153476561Y-109859192D01*
X153472500Y-109860000D01*
X152647500Y-109860000D01*
X152643441Y-109859192D01*
X152592091Y-109853235D01*
X152574548Y-109845489D01*
X152551829Y-109840970D01*
X152527506Y-109824718D01*
X152506706Y-109815534D01*
X152492499Y-109801327D01*
X152470723Y-109786777D01*
X152456172Y-109765000D01*
X152441965Y-109750793D01*
X152432780Y-109729991D01*
X152416530Y-109705671D01*
X152412011Y-109682954D01*
X152404264Y-109665408D01*
X152398305Y-109614049D01*
X152397500Y-109610000D01*
X152397500Y-108310000D01*
X152398304Y-108305953D01*
X152404264Y-108254591D01*
X152412011Y-108237043D01*
X152416530Y-108214329D01*
X152432778Y-108190010D01*
X152441965Y-108169206D01*
X152456174Y-108154996D01*
X152470723Y-108133223D01*
X152492496Y-108118674D01*
X152506706Y-108104465D01*
X152527510Y-108095278D01*
X152551829Y-108079030D01*
X152574543Y-108074511D01*
X152592091Y-108066764D01*
X152643452Y-108060805D01*
X152647500Y-108060000D01*
X153472500Y-108060000D01*
X153476547Y-108060805D01*
G37*
G36*
X156601547Y-108060805D02*
G01*
X156652908Y-108066764D01*
X156670454Y-108074511D01*
X156693171Y-108079030D01*
X156717491Y-108095280D01*
X156738293Y-108104465D01*
X156752500Y-108118672D01*
X156774277Y-108133223D01*
X156788827Y-108154999D01*
X156803034Y-108169206D01*
X156812218Y-108190006D01*
X156828470Y-108214329D01*
X156832989Y-108237048D01*
X156840735Y-108254591D01*
X156846692Y-108305940D01*
X156847500Y-108310000D01*
X156847500Y-109610000D01*
X156846692Y-109614059D01*
X156840735Y-109665408D01*
X156832989Y-109682950D01*
X156828470Y-109705671D01*
X156812216Y-109729995D01*
X156803034Y-109750793D01*
X156788829Y-109764997D01*
X156774277Y-109786777D01*
X156752497Y-109801329D01*
X156738293Y-109815534D01*
X156717495Y-109824716D01*
X156693171Y-109840970D01*
X156670450Y-109845489D01*
X156652908Y-109853235D01*
X156601561Y-109859192D01*
X156597500Y-109860000D01*
X155772500Y-109860000D01*
X155768441Y-109859192D01*
X155717091Y-109853235D01*
X155699548Y-109845489D01*
X155676829Y-109840970D01*
X155652506Y-109824718D01*
X155631706Y-109815534D01*
X155617499Y-109801327D01*
X155595723Y-109786777D01*
X155581172Y-109765000D01*
X155566965Y-109750793D01*
X155557780Y-109729991D01*
X155541530Y-109705671D01*
X155537011Y-109682954D01*
X155529264Y-109665408D01*
X155523305Y-109614049D01*
X155522500Y-109610000D01*
X155522500Y-108310000D01*
X155523304Y-108305953D01*
X155529264Y-108254591D01*
X155537011Y-108237043D01*
X155541530Y-108214329D01*
X155557778Y-108190010D01*
X155566965Y-108169206D01*
X155581174Y-108154996D01*
X155595723Y-108133223D01*
X155617496Y-108118674D01*
X155631706Y-108104465D01*
X155652510Y-108095278D01*
X155676829Y-108079030D01*
X155699543Y-108074511D01*
X155717091Y-108066764D01*
X155768452Y-108060805D01*
X155772500Y-108060000D01*
X156597500Y-108060000D01*
X156601547Y-108060805D01*
G37*
G36*
X104544047Y-108085805D02*
G01*
X104595408Y-108091764D01*
X104612954Y-108099511D01*
X104635671Y-108104030D01*
X104659991Y-108120280D01*
X104680793Y-108129465D01*
X104695000Y-108143672D01*
X104716777Y-108158223D01*
X104731327Y-108179999D01*
X104745534Y-108194206D01*
X104754718Y-108215006D01*
X104770970Y-108239329D01*
X104775489Y-108262048D01*
X104783235Y-108279591D01*
X104789192Y-108330940D01*
X104790000Y-108335000D01*
X104790000Y-109585000D01*
X104789192Y-109589059D01*
X104783235Y-109640408D01*
X104775489Y-109657950D01*
X104770970Y-109680671D01*
X104754716Y-109704995D01*
X104745534Y-109725793D01*
X104731329Y-109739997D01*
X104716777Y-109761777D01*
X104694997Y-109776329D01*
X104680793Y-109790534D01*
X104659995Y-109799716D01*
X104635671Y-109815970D01*
X104612950Y-109820489D01*
X104595408Y-109828235D01*
X104544061Y-109834192D01*
X104540000Y-109835000D01*
X103740000Y-109835000D01*
X103735941Y-109834192D01*
X103684591Y-109828235D01*
X103667048Y-109820489D01*
X103644329Y-109815970D01*
X103620006Y-109799718D01*
X103599206Y-109790534D01*
X103584999Y-109776327D01*
X103563223Y-109761777D01*
X103548672Y-109740000D01*
X103534465Y-109725793D01*
X103525280Y-109704991D01*
X103509030Y-109680671D01*
X103504511Y-109657954D01*
X103496764Y-109640408D01*
X103490805Y-109589049D01*
X103490000Y-109585000D01*
X103490000Y-108335000D01*
X103490804Y-108330953D01*
X103496764Y-108279591D01*
X103504511Y-108262043D01*
X103509030Y-108239329D01*
X103525278Y-108215010D01*
X103534465Y-108194206D01*
X103548674Y-108179996D01*
X103563223Y-108158223D01*
X103584996Y-108143674D01*
X103599206Y-108129465D01*
X103620010Y-108120278D01*
X103644329Y-108104030D01*
X103667043Y-108099511D01*
X103684591Y-108091764D01*
X103735952Y-108085805D01*
X103740000Y-108085000D01*
X104540000Y-108085000D01*
X104544047Y-108085805D01*
G37*
G36*
X107644047Y-108085805D02*
G01*
X107695408Y-108091764D01*
X107712954Y-108099511D01*
X107735671Y-108104030D01*
X107759991Y-108120280D01*
X107780793Y-108129465D01*
X107795000Y-108143672D01*
X107816777Y-108158223D01*
X107831327Y-108179999D01*
X107845534Y-108194206D01*
X107854718Y-108215006D01*
X107870970Y-108239329D01*
X107875489Y-108262048D01*
X107883235Y-108279591D01*
X107889192Y-108330940D01*
X107890000Y-108335000D01*
X107890000Y-109585000D01*
X107889192Y-109589059D01*
X107883235Y-109640408D01*
X107875489Y-109657950D01*
X107870970Y-109680671D01*
X107854716Y-109704995D01*
X107845534Y-109725793D01*
X107831329Y-109739997D01*
X107816777Y-109761777D01*
X107794997Y-109776329D01*
X107780793Y-109790534D01*
X107759995Y-109799716D01*
X107735671Y-109815970D01*
X107712950Y-109820489D01*
X107695408Y-109828235D01*
X107644061Y-109834192D01*
X107640000Y-109835000D01*
X106840000Y-109835000D01*
X106835941Y-109834192D01*
X106784591Y-109828235D01*
X106767048Y-109820489D01*
X106744329Y-109815970D01*
X106720006Y-109799718D01*
X106699206Y-109790534D01*
X106684999Y-109776327D01*
X106663223Y-109761777D01*
X106648672Y-109740000D01*
X106634465Y-109725793D01*
X106625280Y-109704991D01*
X106609030Y-109680671D01*
X106604511Y-109657954D01*
X106596764Y-109640408D01*
X106590805Y-109589049D01*
X106590000Y-109585000D01*
X106590000Y-108335000D01*
X106590804Y-108330953D01*
X106596764Y-108279591D01*
X106604511Y-108262043D01*
X106609030Y-108239329D01*
X106625278Y-108215010D01*
X106634465Y-108194206D01*
X106648674Y-108179996D01*
X106663223Y-108158223D01*
X106684996Y-108143674D01*
X106699206Y-108129465D01*
X106720010Y-108120278D01*
X106744329Y-108104030D01*
X106767043Y-108099511D01*
X106784591Y-108091764D01*
X106835952Y-108085805D01*
X106840000Y-108085000D01*
X107640000Y-108085000D01*
X107644047Y-108085805D01*
G37*
G36*
X109624047Y-108085805D02*
G01*
X109675408Y-108091764D01*
X109692954Y-108099511D01*
X109715671Y-108104030D01*
X109739991Y-108120280D01*
X109760793Y-108129465D01*
X109775000Y-108143672D01*
X109796777Y-108158223D01*
X109811327Y-108179999D01*
X109825534Y-108194206D01*
X109834718Y-108215006D01*
X109850970Y-108239329D01*
X109855489Y-108262048D01*
X109863235Y-108279591D01*
X109869192Y-108330940D01*
X109870000Y-108335000D01*
X109870000Y-109585000D01*
X109869192Y-109589059D01*
X109863235Y-109640408D01*
X109855489Y-109657950D01*
X109850970Y-109680671D01*
X109834716Y-109704995D01*
X109825534Y-109725793D01*
X109811329Y-109739997D01*
X109796777Y-109761777D01*
X109774997Y-109776329D01*
X109760793Y-109790534D01*
X109739995Y-109799716D01*
X109715671Y-109815970D01*
X109692950Y-109820489D01*
X109675408Y-109828235D01*
X109624061Y-109834192D01*
X109620000Y-109835000D01*
X108820000Y-109835000D01*
X108815941Y-109834192D01*
X108764591Y-109828235D01*
X108747048Y-109820489D01*
X108724329Y-109815970D01*
X108700006Y-109799718D01*
X108679206Y-109790534D01*
X108664999Y-109776327D01*
X108643223Y-109761777D01*
X108628672Y-109740000D01*
X108614465Y-109725793D01*
X108605280Y-109704991D01*
X108589030Y-109680671D01*
X108584511Y-109657954D01*
X108576764Y-109640408D01*
X108570805Y-109589049D01*
X108570000Y-109585000D01*
X108570000Y-108335000D01*
X108570804Y-108330953D01*
X108576764Y-108279591D01*
X108584511Y-108262043D01*
X108589030Y-108239329D01*
X108605278Y-108215010D01*
X108614465Y-108194206D01*
X108628674Y-108179996D01*
X108643223Y-108158223D01*
X108664996Y-108143674D01*
X108679206Y-108129465D01*
X108700010Y-108120278D01*
X108724329Y-108104030D01*
X108747043Y-108099511D01*
X108764591Y-108091764D01*
X108815952Y-108085805D01*
X108820000Y-108085000D01*
X109620000Y-108085000D01*
X109624047Y-108085805D01*
G37*
G36*
X112724047Y-108085805D02*
G01*
X112775408Y-108091764D01*
X112792954Y-108099511D01*
X112815671Y-108104030D01*
X112839991Y-108120280D01*
X112860793Y-108129465D01*
X112875000Y-108143672D01*
X112896777Y-108158223D01*
X112911327Y-108179999D01*
X112925534Y-108194206D01*
X112934718Y-108215006D01*
X112950970Y-108239329D01*
X112955489Y-108262048D01*
X112963235Y-108279591D01*
X112969192Y-108330940D01*
X112970000Y-108335000D01*
X112970000Y-109585000D01*
X112969192Y-109589059D01*
X112963235Y-109640408D01*
X112955489Y-109657950D01*
X112950970Y-109680671D01*
X112934716Y-109704995D01*
X112925534Y-109725793D01*
X112911329Y-109739997D01*
X112896777Y-109761777D01*
X112874997Y-109776329D01*
X112860793Y-109790534D01*
X112839995Y-109799716D01*
X112815671Y-109815970D01*
X112792950Y-109820489D01*
X112775408Y-109828235D01*
X112724061Y-109834192D01*
X112720000Y-109835000D01*
X111920000Y-109835000D01*
X111915941Y-109834192D01*
X111864591Y-109828235D01*
X111847048Y-109820489D01*
X111824329Y-109815970D01*
X111800006Y-109799718D01*
X111779206Y-109790534D01*
X111764999Y-109776327D01*
X111743223Y-109761777D01*
X111728672Y-109740000D01*
X111714465Y-109725793D01*
X111705280Y-109704991D01*
X111689030Y-109680671D01*
X111684511Y-109657954D01*
X111676764Y-109640408D01*
X111670805Y-109589049D01*
X111670000Y-109585000D01*
X111670000Y-108335000D01*
X111670804Y-108330953D01*
X111676764Y-108279591D01*
X111684511Y-108262043D01*
X111689030Y-108239329D01*
X111705278Y-108215010D01*
X111714465Y-108194206D01*
X111728674Y-108179996D01*
X111743223Y-108158223D01*
X111764996Y-108143674D01*
X111779206Y-108129465D01*
X111800010Y-108120278D01*
X111824329Y-108104030D01*
X111847043Y-108099511D01*
X111864591Y-108091764D01*
X111915952Y-108085805D01*
X111920000Y-108085000D01*
X112720000Y-108085000D01*
X112724047Y-108085805D01*
G37*
G36*
X143304047Y-108085805D02*
G01*
X143355408Y-108091764D01*
X143372954Y-108099511D01*
X143395671Y-108104030D01*
X143419991Y-108120280D01*
X143440793Y-108129465D01*
X143455000Y-108143672D01*
X143476777Y-108158223D01*
X143491327Y-108179999D01*
X143505534Y-108194206D01*
X143514718Y-108215006D01*
X143530970Y-108239329D01*
X143535489Y-108262048D01*
X143543235Y-108279591D01*
X143549192Y-108330940D01*
X143550000Y-108335000D01*
X143550000Y-109585000D01*
X143549192Y-109589059D01*
X143543235Y-109640408D01*
X143535489Y-109657950D01*
X143530970Y-109680671D01*
X143514716Y-109704995D01*
X143505534Y-109725793D01*
X143491329Y-109739997D01*
X143476777Y-109761777D01*
X143454997Y-109776329D01*
X143440793Y-109790534D01*
X143419995Y-109799716D01*
X143395671Y-109815970D01*
X143372950Y-109820489D01*
X143355408Y-109828235D01*
X143304061Y-109834192D01*
X143300000Y-109835000D01*
X142500000Y-109835000D01*
X142495941Y-109834192D01*
X142444591Y-109828235D01*
X142427048Y-109820489D01*
X142404329Y-109815970D01*
X142380006Y-109799718D01*
X142359206Y-109790534D01*
X142344999Y-109776327D01*
X142323223Y-109761777D01*
X142308672Y-109740000D01*
X142294465Y-109725793D01*
X142285280Y-109704991D01*
X142269030Y-109680671D01*
X142264511Y-109657954D01*
X142256764Y-109640408D01*
X142250805Y-109589049D01*
X142250000Y-109585000D01*
X142250000Y-108335000D01*
X142250804Y-108330953D01*
X142256764Y-108279591D01*
X142264511Y-108262043D01*
X142269030Y-108239329D01*
X142285278Y-108215010D01*
X142294465Y-108194206D01*
X142308674Y-108179996D01*
X142323223Y-108158223D01*
X142344996Y-108143674D01*
X142359206Y-108129465D01*
X142380010Y-108120278D01*
X142404329Y-108104030D01*
X142427043Y-108099511D01*
X142444591Y-108091764D01*
X142495952Y-108085805D01*
X142500000Y-108085000D01*
X143300000Y-108085000D01*
X143304047Y-108085805D01*
G37*
G36*
X146404047Y-108085805D02*
G01*
X146455408Y-108091764D01*
X146472954Y-108099511D01*
X146495671Y-108104030D01*
X146519991Y-108120280D01*
X146540793Y-108129465D01*
X146555000Y-108143672D01*
X146576777Y-108158223D01*
X146591327Y-108179999D01*
X146605534Y-108194206D01*
X146614718Y-108215006D01*
X146630970Y-108239329D01*
X146635489Y-108262048D01*
X146643235Y-108279591D01*
X146649192Y-108330940D01*
X146650000Y-108335000D01*
X146650000Y-109585000D01*
X146649192Y-109589059D01*
X146643235Y-109640408D01*
X146635489Y-109657950D01*
X146630970Y-109680671D01*
X146614716Y-109704995D01*
X146605534Y-109725793D01*
X146591329Y-109739997D01*
X146576777Y-109761777D01*
X146554997Y-109776329D01*
X146540793Y-109790534D01*
X146519995Y-109799716D01*
X146495671Y-109815970D01*
X146472950Y-109820489D01*
X146455408Y-109828235D01*
X146404061Y-109834192D01*
X146400000Y-109835000D01*
X145600000Y-109835000D01*
X145595941Y-109834192D01*
X145544591Y-109828235D01*
X145527048Y-109820489D01*
X145504329Y-109815970D01*
X145480006Y-109799718D01*
X145459206Y-109790534D01*
X145444999Y-109776327D01*
X145423223Y-109761777D01*
X145408672Y-109740000D01*
X145394465Y-109725793D01*
X145385280Y-109704991D01*
X145369030Y-109680671D01*
X145364511Y-109657954D01*
X145356764Y-109640408D01*
X145350805Y-109589049D01*
X145350000Y-109585000D01*
X145350000Y-108335000D01*
X145350804Y-108330953D01*
X145356764Y-108279591D01*
X145364511Y-108262043D01*
X145369030Y-108239329D01*
X145385278Y-108215010D01*
X145394465Y-108194206D01*
X145408674Y-108179996D01*
X145423223Y-108158223D01*
X145444996Y-108143674D01*
X145459206Y-108129465D01*
X145480010Y-108120278D01*
X145504329Y-108104030D01*
X145527043Y-108099511D01*
X145544591Y-108091764D01*
X145595952Y-108085805D01*
X145600000Y-108085000D01*
X146400000Y-108085000D01*
X146404047Y-108085805D01*
G37*
G36*
X148384047Y-108085805D02*
G01*
X148435408Y-108091764D01*
X148452954Y-108099511D01*
X148475671Y-108104030D01*
X148499991Y-108120280D01*
X148520793Y-108129465D01*
X148535000Y-108143672D01*
X148556777Y-108158223D01*
X148571327Y-108179999D01*
X148585534Y-108194206D01*
X148594718Y-108215006D01*
X148610970Y-108239329D01*
X148615489Y-108262048D01*
X148623235Y-108279591D01*
X148629192Y-108330940D01*
X148630000Y-108335000D01*
X148630000Y-109585000D01*
X148629192Y-109589059D01*
X148623235Y-109640408D01*
X148615489Y-109657950D01*
X148610970Y-109680671D01*
X148594716Y-109704995D01*
X148585534Y-109725793D01*
X148571329Y-109739997D01*
X148556777Y-109761777D01*
X148534997Y-109776329D01*
X148520793Y-109790534D01*
X148499995Y-109799716D01*
X148475671Y-109815970D01*
X148452950Y-109820489D01*
X148435408Y-109828235D01*
X148384061Y-109834192D01*
X148380000Y-109835000D01*
X147580000Y-109835000D01*
X147575941Y-109834192D01*
X147524591Y-109828235D01*
X147507048Y-109820489D01*
X147484329Y-109815970D01*
X147460006Y-109799718D01*
X147439206Y-109790534D01*
X147424999Y-109776327D01*
X147403223Y-109761777D01*
X147388672Y-109740000D01*
X147374465Y-109725793D01*
X147365280Y-109704991D01*
X147349030Y-109680671D01*
X147344511Y-109657954D01*
X147336764Y-109640408D01*
X147330805Y-109589049D01*
X147330000Y-109585000D01*
X147330000Y-108335000D01*
X147330804Y-108330953D01*
X147336764Y-108279591D01*
X147344511Y-108262043D01*
X147349030Y-108239329D01*
X147365278Y-108215010D01*
X147374465Y-108194206D01*
X147388674Y-108179996D01*
X147403223Y-108158223D01*
X147424996Y-108143674D01*
X147439206Y-108129465D01*
X147460010Y-108120278D01*
X147484329Y-108104030D01*
X147507043Y-108099511D01*
X147524591Y-108091764D01*
X147575952Y-108085805D01*
X147580000Y-108085000D01*
X148380000Y-108085000D01*
X148384047Y-108085805D01*
G37*
G36*
X151484047Y-108085805D02*
G01*
X151535408Y-108091764D01*
X151552954Y-108099511D01*
X151575671Y-108104030D01*
X151599991Y-108120280D01*
X151620793Y-108129465D01*
X151635000Y-108143672D01*
X151656777Y-108158223D01*
X151671327Y-108179999D01*
X151685534Y-108194206D01*
X151694718Y-108215006D01*
X151710970Y-108239329D01*
X151715489Y-108262048D01*
X151723235Y-108279591D01*
X151729192Y-108330940D01*
X151730000Y-108335000D01*
X151730000Y-109585000D01*
X151729192Y-109589059D01*
X151723235Y-109640408D01*
X151715489Y-109657950D01*
X151710970Y-109680671D01*
X151694716Y-109704995D01*
X151685534Y-109725793D01*
X151671329Y-109739997D01*
X151656777Y-109761777D01*
X151634997Y-109776329D01*
X151620793Y-109790534D01*
X151599995Y-109799716D01*
X151575671Y-109815970D01*
X151552950Y-109820489D01*
X151535408Y-109828235D01*
X151484061Y-109834192D01*
X151480000Y-109835000D01*
X150680000Y-109835000D01*
X150675941Y-109834192D01*
X150624591Y-109828235D01*
X150607048Y-109820489D01*
X150584329Y-109815970D01*
X150560006Y-109799718D01*
X150539206Y-109790534D01*
X150524999Y-109776327D01*
X150503223Y-109761777D01*
X150488672Y-109740000D01*
X150474465Y-109725793D01*
X150465280Y-109704991D01*
X150449030Y-109680671D01*
X150444511Y-109657954D01*
X150436764Y-109640408D01*
X150430805Y-109589049D01*
X150430000Y-109585000D01*
X150430000Y-108335000D01*
X150430804Y-108330953D01*
X150436764Y-108279591D01*
X150444511Y-108262043D01*
X150449030Y-108239329D01*
X150465278Y-108215010D01*
X150474465Y-108194206D01*
X150488674Y-108179996D01*
X150503223Y-108158223D01*
X150524996Y-108143674D01*
X150539206Y-108129465D01*
X150560010Y-108120278D01*
X150584329Y-108104030D01*
X150607043Y-108099511D01*
X150624591Y-108091764D01*
X150675952Y-108085805D01*
X150680000Y-108085000D01*
X151480000Y-108085000D01*
X151484047Y-108085805D01*
G37*
G36*
X133109034Y-108270764D02*
G01*
X133142125Y-108292875D01*
X133164236Y-108325966D01*
X133172000Y-108365000D01*
X133172000Y-109555000D01*
X133164236Y-109594034D01*
X133142125Y-109627125D01*
X133109034Y-109649236D01*
X133070000Y-109657000D01*
X129770000Y-109657000D01*
X129730966Y-109649236D01*
X129697875Y-109627125D01*
X129675764Y-109594034D01*
X129668000Y-109555000D01*
X129668000Y-108365000D01*
X129675764Y-108325966D01*
X129697875Y-108292875D01*
X129730966Y-108270764D01*
X129770000Y-108263000D01*
X133070000Y-108263000D01*
X133109034Y-108270764D01*
G37*
G36*
X199434047Y-108298305D02*
G01*
X199485408Y-108304264D01*
X199502954Y-108312011D01*
X199525671Y-108316530D01*
X199549991Y-108332780D01*
X199570793Y-108341965D01*
X199585000Y-108356172D01*
X199606777Y-108370723D01*
X199621327Y-108392499D01*
X199635534Y-108406706D01*
X199644718Y-108427506D01*
X199660970Y-108451829D01*
X199665489Y-108474548D01*
X199673235Y-108492091D01*
X199679192Y-108543440D01*
X199680000Y-108547500D01*
X199680000Y-109372500D01*
X199679192Y-109376559D01*
X199673235Y-109427908D01*
X199665489Y-109445450D01*
X199660970Y-109468171D01*
X199644716Y-109492495D01*
X199635534Y-109513293D01*
X199621329Y-109527497D01*
X199606777Y-109549277D01*
X199584997Y-109563829D01*
X199570793Y-109578034D01*
X199549995Y-109587216D01*
X199525671Y-109603470D01*
X199502950Y-109607989D01*
X199485408Y-109615735D01*
X199434061Y-109621692D01*
X199430000Y-109622500D01*
X198130000Y-109622500D01*
X198125941Y-109621692D01*
X198074591Y-109615735D01*
X198057048Y-109607989D01*
X198034329Y-109603470D01*
X198010006Y-109587218D01*
X197989206Y-109578034D01*
X197974999Y-109563827D01*
X197953223Y-109549277D01*
X197938672Y-109527500D01*
X197924465Y-109513293D01*
X197915280Y-109492491D01*
X197899030Y-109468171D01*
X197894511Y-109445454D01*
X197886764Y-109427908D01*
X197880805Y-109376549D01*
X197880000Y-109372500D01*
X197880000Y-108547500D01*
X197880804Y-108543453D01*
X197886764Y-108492091D01*
X197894511Y-108474543D01*
X197899030Y-108451829D01*
X197915278Y-108427510D01*
X197924465Y-108406706D01*
X197938674Y-108392496D01*
X197953223Y-108370723D01*
X197974996Y-108356174D01*
X197989206Y-108341965D01*
X198010010Y-108332778D01*
X198034329Y-108316530D01*
X198057043Y-108312011D01*
X198074591Y-108304264D01*
X198125952Y-108298305D01*
X198130000Y-108297500D01*
X199430000Y-108297500D01*
X199434047Y-108298305D01*
G37*
G36*
X99314047Y-108460805D02*
G01*
X99365408Y-108466764D01*
X99382954Y-108474511D01*
X99405671Y-108479030D01*
X99429991Y-108495280D01*
X99450793Y-108504465D01*
X99465000Y-108518672D01*
X99486777Y-108533223D01*
X99501327Y-108554999D01*
X99515534Y-108569206D01*
X99524718Y-108590006D01*
X99540970Y-108614329D01*
X99545489Y-108637048D01*
X99553235Y-108654591D01*
X99559192Y-108705940D01*
X99560000Y-108710000D01*
X99560000Y-109210000D01*
X99559192Y-109214059D01*
X99553235Y-109265408D01*
X99545489Y-109282950D01*
X99540970Y-109305671D01*
X99524716Y-109329995D01*
X99515534Y-109350793D01*
X99501329Y-109364997D01*
X99486777Y-109386777D01*
X99464997Y-109401329D01*
X99450793Y-109415534D01*
X99429995Y-109424716D01*
X99405671Y-109440970D01*
X99382950Y-109445489D01*
X99365408Y-109453235D01*
X99314061Y-109459192D01*
X99310000Y-109460000D01*
X98810000Y-109460000D01*
X98805941Y-109459192D01*
X98754591Y-109453235D01*
X98737048Y-109445489D01*
X98714329Y-109440970D01*
X98690006Y-109424718D01*
X98669206Y-109415534D01*
X98654999Y-109401327D01*
X98633223Y-109386777D01*
X98618672Y-109365000D01*
X98604465Y-109350793D01*
X98595280Y-109329991D01*
X98579030Y-109305671D01*
X98574511Y-109282954D01*
X98566764Y-109265408D01*
X98560805Y-109214049D01*
X98560000Y-109210000D01*
X98560000Y-108710000D01*
X98560804Y-108705953D01*
X98566764Y-108654591D01*
X98574511Y-108637043D01*
X98579030Y-108614329D01*
X98595278Y-108590010D01*
X98604465Y-108569206D01*
X98618674Y-108554996D01*
X98633223Y-108533223D01*
X98654996Y-108518674D01*
X98669206Y-108504465D01*
X98690010Y-108495278D01*
X98714329Y-108479030D01*
X98737043Y-108474511D01*
X98754591Y-108466764D01*
X98805952Y-108460805D01*
X98810000Y-108460000D01*
X99310000Y-108460000D01*
X99314047Y-108460805D01*
G37*
G36*
X101814047Y-108460805D02*
G01*
X101865408Y-108466764D01*
X101882954Y-108474511D01*
X101905671Y-108479030D01*
X101929991Y-108495280D01*
X101950793Y-108504465D01*
X101965000Y-108518672D01*
X101986777Y-108533223D01*
X102001327Y-108554999D01*
X102015534Y-108569206D01*
X102024718Y-108590006D01*
X102040970Y-108614329D01*
X102045489Y-108637048D01*
X102053235Y-108654591D01*
X102059192Y-108705940D01*
X102060000Y-108710000D01*
X102060000Y-109210000D01*
X102059192Y-109214059D01*
X102053235Y-109265408D01*
X102045489Y-109282950D01*
X102040970Y-109305671D01*
X102024716Y-109329995D01*
X102015534Y-109350793D01*
X102001329Y-109364997D01*
X101986777Y-109386777D01*
X101964997Y-109401329D01*
X101950793Y-109415534D01*
X101929995Y-109424716D01*
X101905671Y-109440970D01*
X101882950Y-109445489D01*
X101865408Y-109453235D01*
X101814061Y-109459192D01*
X101810000Y-109460000D01*
X101310000Y-109460000D01*
X101305941Y-109459192D01*
X101254591Y-109453235D01*
X101237048Y-109445489D01*
X101214329Y-109440970D01*
X101190006Y-109424718D01*
X101169206Y-109415534D01*
X101154999Y-109401327D01*
X101133223Y-109386777D01*
X101118672Y-109365000D01*
X101104465Y-109350793D01*
X101095280Y-109329991D01*
X101079030Y-109305671D01*
X101074511Y-109282954D01*
X101066764Y-109265408D01*
X101060805Y-109214049D01*
X101060000Y-109210000D01*
X101060000Y-108710000D01*
X101060804Y-108705953D01*
X101066764Y-108654591D01*
X101074511Y-108637043D01*
X101079030Y-108614329D01*
X101095278Y-108590010D01*
X101104465Y-108569206D01*
X101118674Y-108554996D01*
X101133223Y-108533223D01*
X101154996Y-108518674D01*
X101169206Y-108504465D01*
X101190010Y-108495278D01*
X101214329Y-108479030D01*
X101237043Y-108474511D01*
X101254591Y-108466764D01*
X101305952Y-108460805D01*
X101310000Y-108460000D01*
X101810000Y-108460000D01*
X101814047Y-108460805D01*
G37*
G36*
X119290000Y-109360000D02*
G01*
X117390000Y-109360000D01*
X117390000Y-108560000D01*
X119290000Y-108560000D01*
X119290000Y-109360000D01*
G37*
G36*
X116290000Y-108410000D02*
G01*
X114390000Y-108410000D01*
X114390000Y-107610000D01*
X116290000Y-107610000D01*
X116290000Y-108410000D01*
G37*
G36*
X153476547Y-105520805D02*
G01*
X153527908Y-105526764D01*
X153545454Y-105534511D01*
X153568171Y-105539030D01*
X153592491Y-105555280D01*
X153613293Y-105564465D01*
X153627500Y-105578672D01*
X153649277Y-105593223D01*
X153663827Y-105614999D01*
X153678034Y-105629206D01*
X153687218Y-105650006D01*
X153703470Y-105674329D01*
X153707989Y-105697048D01*
X153715735Y-105714591D01*
X153721692Y-105765940D01*
X153722500Y-105770000D01*
X153722500Y-107070000D01*
X153721692Y-107074059D01*
X153715735Y-107125408D01*
X153707989Y-107142950D01*
X153703470Y-107165671D01*
X153687216Y-107189995D01*
X153678034Y-107210793D01*
X153663829Y-107224997D01*
X153649277Y-107246777D01*
X153627497Y-107261329D01*
X153613293Y-107275534D01*
X153592495Y-107284716D01*
X153568171Y-107300970D01*
X153545450Y-107305489D01*
X153527908Y-107313235D01*
X153476561Y-107319192D01*
X153472500Y-107320000D01*
X152647500Y-107320000D01*
X152643441Y-107319192D01*
X152592091Y-107313235D01*
X152574548Y-107305489D01*
X152551829Y-107300970D01*
X152527506Y-107284718D01*
X152506706Y-107275534D01*
X152492499Y-107261327D01*
X152470723Y-107246777D01*
X152456172Y-107225000D01*
X152441965Y-107210793D01*
X152432780Y-107189991D01*
X152416530Y-107165671D01*
X152412011Y-107142954D01*
X152404264Y-107125408D01*
X152398305Y-107074049D01*
X152397500Y-107070000D01*
X152397500Y-105770000D01*
X152398304Y-105765953D01*
X152404264Y-105714591D01*
X152412011Y-105697043D01*
X152416530Y-105674329D01*
X152432778Y-105650010D01*
X152441965Y-105629206D01*
X152456174Y-105614996D01*
X152470723Y-105593223D01*
X152492496Y-105578674D01*
X152506706Y-105564465D01*
X152527510Y-105555278D01*
X152551829Y-105539030D01*
X152574543Y-105534511D01*
X152592091Y-105526764D01*
X152643452Y-105520805D01*
X152647500Y-105520000D01*
X153472500Y-105520000D01*
X153476547Y-105520805D01*
G37*
G36*
X156601547Y-105520805D02*
G01*
X156652908Y-105526764D01*
X156670454Y-105534511D01*
X156693171Y-105539030D01*
X156717491Y-105555280D01*
X156738293Y-105564465D01*
X156752500Y-105578672D01*
X156774277Y-105593223D01*
X156788827Y-105614999D01*
X156803034Y-105629206D01*
X156812218Y-105650006D01*
X156828470Y-105674329D01*
X156832989Y-105697048D01*
X156840735Y-105714591D01*
X156846692Y-105765940D01*
X156847500Y-105770000D01*
X156847500Y-107070000D01*
X156846692Y-107074059D01*
X156840735Y-107125408D01*
X156832989Y-107142950D01*
X156828470Y-107165671D01*
X156812216Y-107189995D01*
X156803034Y-107210793D01*
X156788829Y-107224997D01*
X156774277Y-107246777D01*
X156752497Y-107261329D01*
X156738293Y-107275534D01*
X156717495Y-107284716D01*
X156693171Y-107300970D01*
X156670450Y-107305489D01*
X156652908Y-107313235D01*
X156601561Y-107319192D01*
X156597500Y-107320000D01*
X155772500Y-107320000D01*
X155768441Y-107319192D01*
X155717091Y-107313235D01*
X155699548Y-107305489D01*
X155676829Y-107300970D01*
X155652506Y-107284718D01*
X155631706Y-107275534D01*
X155617499Y-107261327D01*
X155595723Y-107246777D01*
X155581172Y-107225000D01*
X155566965Y-107210793D01*
X155557780Y-107189991D01*
X155541530Y-107165671D01*
X155537011Y-107142954D01*
X155529264Y-107125408D01*
X155523305Y-107074049D01*
X155522500Y-107070000D01*
X155522500Y-105770000D01*
X155523304Y-105765953D01*
X155529264Y-105714591D01*
X155537011Y-105697043D01*
X155541530Y-105674329D01*
X155557778Y-105650010D01*
X155566965Y-105629206D01*
X155581174Y-105614996D01*
X155595723Y-105593223D01*
X155617496Y-105578674D01*
X155631706Y-105564465D01*
X155652510Y-105555278D01*
X155676829Y-105539030D01*
X155699543Y-105534511D01*
X155717091Y-105526764D01*
X155768452Y-105520805D01*
X155772500Y-105520000D01*
X156597500Y-105520000D01*
X156601547Y-105520805D01*
G37*
G36*
X109624047Y-105545805D02*
G01*
X109675408Y-105551764D01*
X109692954Y-105559511D01*
X109715671Y-105564030D01*
X109739991Y-105580280D01*
X109760793Y-105589465D01*
X109775000Y-105603672D01*
X109796777Y-105618223D01*
X109811327Y-105639999D01*
X109825534Y-105654206D01*
X109834718Y-105675006D01*
X109850970Y-105699329D01*
X109855489Y-105722048D01*
X109863235Y-105739591D01*
X109869192Y-105790940D01*
X109870000Y-105795000D01*
X109870000Y-107045000D01*
X109869192Y-107049059D01*
X109863235Y-107100408D01*
X109855489Y-107117950D01*
X109850970Y-107140671D01*
X109834716Y-107164995D01*
X109825534Y-107185793D01*
X109811329Y-107199997D01*
X109796777Y-107221777D01*
X109774997Y-107236329D01*
X109760793Y-107250534D01*
X109739995Y-107259716D01*
X109715671Y-107275970D01*
X109692950Y-107280489D01*
X109675408Y-107288235D01*
X109624061Y-107294192D01*
X109620000Y-107295000D01*
X108820000Y-107295000D01*
X108815941Y-107294192D01*
X108764591Y-107288235D01*
X108747048Y-107280489D01*
X108724329Y-107275970D01*
X108700006Y-107259718D01*
X108679206Y-107250534D01*
X108664999Y-107236327D01*
X108643223Y-107221777D01*
X108628672Y-107200000D01*
X108614465Y-107185793D01*
X108605280Y-107164991D01*
X108589030Y-107140671D01*
X108584511Y-107117954D01*
X108576764Y-107100408D01*
X108570805Y-107049049D01*
X108570000Y-107045000D01*
X108570000Y-105795000D01*
X108570804Y-105790953D01*
X108576764Y-105739591D01*
X108584511Y-105722043D01*
X108589030Y-105699329D01*
X108605278Y-105675010D01*
X108614465Y-105654206D01*
X108628674Y-105639996D01*
X108643223Y-105618223D01*
X108664996Y-105603674D01*
X108679206Y-105589465D01*
X108700010Y-105580278D01*
X108724329Y-105564030D01*
X108747043Y-105559511D01*
X108764591Y-105551764D01*
X108815952Y-105545805D01*
X108820000Y-105545000D01*
X109620000Y-105545000D01*
X109624047Y-105545805D01*
G37*
G36*
X112724047Y-105545805D02*
G01*
X112775408Y-105551764D01*
X112792954Y-105559511D01*
X112815671Y-105564030D01*
X112839991Y-105580280D01*
X112860793Y-105589465D01*
X112875000Y-105603672D01*
X112896777Y-105618223D01*
X112911327Y-105639999D01*
X112925534Y-105654206D01*
X112934718Y-105675006D01*
X112950970Y-105699329D01*
X112955489Y-105722048D01*
X112963235Y-105739591D01*
X112969192Y-105790940D01*
X112970000Y-105795000D01*
X112970000Y-107045000D01*
X112969192Y-107049059D01*
X112963235Y-107100408D01*
X112955489Y-107117950D01*
X112950970Y-107140671D01*
X112934716Y-107164995D01*
X112925534Y-107185793D01*
X112911329Y-107199997D01*
X112896777Y-107221777D01*
X112874997Y-107236329D01*
X112860793Y-107250534D01*
X112839995Y-107259716D01*
X112815671Y-107275970D01*
X112792950Y-107280489D01*
X112775408Y-107288235D01*
X112724061Y-107294192D01*
X112720000Y-107295000D01*
X111920000Y-107295000D01*
X111915941Y-107294192D01*
X111864591Y-107288235D01*
X111847048Y-107280489D01*
X111824329Y-107275970D01*
X111800006Y-107259718D01*
X111779206Y-107250534D01*
X111764999Y-107236327D01*
X111743223Y-107221777D01*
X111728672Y-107200000D01*
X111714465Y-107185793D01*
X111705280Y-107164991D01*
X111689030Y-107140671D01*
X111684511Y-107117954D01*
X111676764Y-107100408D01*
X111670805Y-107049049D01*
X111670000Y-107045000D01*
X111670000Y-105795000D01*
X111670804Y-105790953D01*
X111676764Y-105739591D01*
X111684511Y-105722043D01*
X111689030Y-105699329D01*
X111705278Y-105675010D01*
X111714465Y-105654206D01*
X111728674Y-105639996D01*
X111743223Y-105618223D01*
X111764996Y-105603674D01*
X111779206Y-105589465D01*
X111800010Y-105580278D01*
X111824329Y-105564030D01*
X111847043Y-105559511D01*
X111864591Y-105551764D01*
X111915952Y-105545805D01*
X111920000Y-105545000D01*
X112720000Y-105545000D01*
X112724047Y-105545805D01*
G37*
G36*
X148384047Y-105545805D02*
G01*
X148435408Y-105551764D01*
X148452954Y-105559511D01*
X148475671Y-105564030D01*
X148499991Y-105580280D01*
X148520793Y-105589465D01*
X148535000Y-105603672D01*
X148556777Y-105618223D01*
X148571327Y-105639999D01*
X148585534Y-105654206D01*
X148594718Y-105675006D01*
X148610970Y-105699329D01*
X148615489Y-105722048D01*
X148623235Y-105739591D01*
X148629192Y-105790940D01*
X148630000Y-105795000D01*
X148630000Y-107045000D01*
X148629192Y-107049059D01*
X148623235Y-107100408D01*
X148615489Y-107117950D01*
X148610970Y-107140671D01*
X148594716Y-107164995D01*
X148585534Y-107185793D01*
X148571329Y-107199997D01*
X148556777Y-107221777D01*
X148534997Y-107236329D01*
X148520793Y-107250534D01*
X148499995Y-107259716D01*
X148475671Y-107275970D01*
X148452950Y-107280489D01*
X148435408Y-107288235D01*
X148384061Y-107294192D01*
X148380000Y-107295000D01*
X147580000Y-107295000D01*
X147575941Y-107294192D01*
X147524591Y-107288235D01*
X147507048Y-107280489D01*
X147484329Y-107275970D01*
X147460006Y-107259718D01*
X147439206Y-107250534D01*
X147424999Y-107236327D01*
X147403223Y-107221777D01*
X147388672Y-107200000D01*
X147374465Y-107185793D01*
X147365280Y-107164991D01*
X147349030Y-107140671D01*
X147344511Y-107117954D01*
X147336764Y-107100408D01*
X147330805Y-107049049D01*
X147330000Y-107045000D01*
X147330000Y-105795000D01*
X147330804Y-105790953D01*
X147336764Y-105739591D01*
X147344511Y-105722043D01*
X147349030Y-105699329D01*
X147365278Y-105675010D01*
X147374465Y-105654206D01*
X147388674Y-105639996D01*
X147403223Y-105618223D01*
X147424996Y-105603674D01*
X147439206Y-105589465D01*
X147460010Y-105580278D01*
X147484329Y-105564030D01*
X147507043Y-105559511D01*
X147524591Y-105551764D01*
X147575952Y-105545805D01*
X147580000Y-105545000D01*
X148380000Y-105545000D01*
X148384047Y-105545805D01*
G37*
G36*
X151484047Y-105545805D02*
G01*
X151535408Y-105551764D01*
X151552954Y-105559511D01*
X151575671Y-105564030D01*
X151599991Y-105580280D01*
X151620793Y-105589465D01*
X151635000Y-105603672D01*
X151656777Y-105618223D01*
X151671327Y-105639999D01*
X151685534Y-105654206D01*
X151694718Y-105675006D01*
X151710970Y-105699329D01*
X151715489Y-105722048D01*
X151723235Y-105739591D01*
X151729192Y-105790940D01*
X151730000Y-105795000D01*
X151730000Y-107045000D01*
X151729192Y-107049059D01*
X151723235Y-107100408D01*
X151715489Y-107117950D01*
X151710970Y-107140671D01*
X151694716Y-107164995D01*
X151685534Y-107185793D01*
X151671329Y-107199997D01*
X151656777Y-107221777D01*
X151634997Y-107236329D01*
X151620793Y-107250534D01*
X151599995Y-107259716D01*
X151575671Y-107275970D01*
X151552950Y-107280489D01*
X151535408Y-107288235D01*
X151484061Y-107294192D01*
X151480000Y-107295000D01*
X150680000Y-107295000D01*
X150675941Y-107294192D01*
X150624591Y-107288235D01*
X150607048Y-107280489D01*
X150584329Y-107275970D01*
X150560006Y-107259718D01*
X150539206Y-107250534D01*
X150524999Y-107236327D01*
X150503223Y-107221777D01*
X150488672Y-107200000D01*
X150474465Y-107185793D01*
X150465280Y-107164991D01*
X150449030Y-107140671D01*
X150444511Y-107117954D01*
X150436764Y-107100408D01*
X150430805Y-107049049D01*
X150430000Y-107045000D01*
X150430000Y-105795000D01*
X150430804Y-105790953D01*
X150436764Y-105739591D01*
X150444511Y-105722043D01*
X150449030Y-105699329D01*
X150465278Y-105675010D01*
X150474465Y-105654206D01*
X150488674Y-105639996D01*
X150503223Y-105618223D01*
X150524996Y-105603674D01*
X150539206Y-105589465D01*
X150560010Y-105580278D01*
X150584329Y-105564030D01*
X150607043Y-105559511D01*
X150624591Y-105551764D01*
X150675952Y-105545805D01*
X150680000Y-105545000D01*
X151480000Y-105545000D01*
X151484047Y-105545805D01*
G37*
G36*
X166164047Y-105545805D02*
G01*
X166215408Y-105551764D01*
X166232954Y-105559511D01*
X166255671Y-105564030D01*
X166279991Y-105580280D01*
X166300793Y-105589465D01*
X166315000Y-105603672D01*
X166336777Y-105618223D01*
X166351327Y-105639999D01*
X166365534Y-105654206D01*
X166374718Y-105675006D01*
X166390970Y-105699329D01*
X166395489Y-105722048D01*
X166403235Y-105739591D01*
X166409192Y-105790940D01*
X166410000Y-105795000D01*
X166410000Y-107045000D01*
X166409192Y-107049059D01*
X166403235Y-107100408D01*
X166395489Y-107117950D01*
X166390970Y-107140671D01*
X166374716Y-107164995D01*
X166365534Y-107185793D01*
X166351329Y-107199997D01*
X166336777Y-107221777D01*
X166314997Y-107236329D01*
X166300793Y-107250534D01*
X166279995Y-107259716D01*
X166255671Y-107275970D01*
X166232950Y-107280489D01*
X166215408Y-107288235D01*
X166164061Y-107294192D01*
X166160000Y-107295000D01*
X165360000Y-107295000D01*
X165355941Y-107294192D01*
X165304591Y-107288235D01*
X165287048Y-107280489D01*
X165264329Y-107275970D01*
X165240006Y-107259718D01*
X165219206Y-107250534D01*
X165204999Y-107236327D01*
X165183223Y-107221777D01*
X165168672Y-107200000D01*
X165154465Y-107185793D01*
X165145280Y-107164991D01*
X165129030Y-107140671D01*
X165124511Y-107117954D01*
X165116764Y-107100408D01*
X165110805Y-107049049D01*
X165110000Y-107045000D01*
X165110000Y-105795000D01*
X165110804Y-105790953D01*
X165116764Y-105739591D01*
X165124511Y-105722043D01*
X165129030Y-105699329D01*
X165145278Y-105675010D01*
X165154465Y-105654206D01*
X165168674Y-105639996D01*
X165183223Y-105618223D01*
X165204996Y-105603674D01*
X165219206Y-105589465D01*
X165240010Y-105580278D01*
X165264329Y-105564030D01*
X165287043Y-105559511D01*
X165304591Y-105551764D01*
X165355952Y-105545805D01*
X165360000Y-105545000D01*
X166160000Y-105545000D01*
X166164047Y-105545805D01*
G37*
G36*
X169264047Y-105545805D02*
G01*
X169315408Y-105551764D01*
X169332954Y-105559511D01*
X169355671Y-105564030D01*
X169379991Y-105580280D01*
X169400793Y-105589465D01*
X169415000Y-105603672D01*
X169436777Y-105618223D01*
X169451327Y-105639999D01*
X169465534Y-105654206D01*
X169474718Y-105675006D01*
X169490970Y-105699329D01*
X169495489Y-105722048D01*
X169503235Y-105739591D01*
X169509192Y-105790940D01*
X169510000Y-105795000D01*
X169510000Y-107045000D01*
X169509192Y-107049059D01*
X169503235Y-107100408D01*
X169495489Y-107117950D01*
X169490970Y-107140671D01*
X169474716Y-107164995D01*
X169465534Y-107185793D01*
X169451329Y-107199997D01*
X169436777Y-107221777D01*
X169414997Y-107236329D01*
X169400793Y-107250534D01*
X169379995Y-107259716D01*
X169355671Y-107275970D01*
X169332950Y-107280489D01*
X169315408Y-107288235D01*
X169264061Y-107294192D01*
X169260000Y-107295000D01*
X168460000Y-107295000D01*
X168455941Y-107294192D01*
X168404591Y-107288235D01*
X168387048Y-107280489D01*
X168364329Y-107275970D01*
X168340006Y-107259718D01*
X168319206Y-107250534D01*
X168304999Y-107236327D01*
X168283223Y-107221777D01*
X168268672Y-107200000D01*
X168254465Y-107185793D01*
X168245280Y-107164991D01*
X168229030Y-107140671D01*
X168224511Y-107117954D01*
X168216764Y-107100408D01*
X168210805Y-107049049D01*
X168210000Y-107045000D01*
X168210000Y-105795000D01*
X168210804Y-105790953D01*
X168216764Y-105739591D01*
X168224511Y-105722043D01*
X168229030Y-105699329D01*
X168245278Y-105675010D01*
X168254465Y-105654206D01*
X168268674Y-105639996D01*
X168283223Y-105618223D01*
X168304996Y-105603674D01*
X168319206Y-105589465D01*
X168340010Y-105580278D01*
X168364329Y-105564030D01*
X168387043Y-105559511D01*
X168404591Y-105551764D01*
X168455952Y-105545805D01*
X168460000Y-105545000D01*
X169260000Y-105545000D01*
X169264047Y-105545805D01*
G37*
G36*
X139509034Y-105730764D02*
G01*
X139542125Y-105752875D01*
X139564236Y-105785966D01*
X139572000Y-105825000D01*
X139572000Y-107015000D01*
X139564236Y-107054034D01*
X139542125Y-107087125D01*
X139509034Y-107109236D01*
X139470000Y-107117000D01*
X136170000Y-107117000D01*
X136130966Y-107109236D01*
X136097875Y-107087125D01*
X136075764Y-107054034D01*
X136068000Y-107015000D01*
X136068000Y-105825000D01*
X136075764Y-105785966D01*
X136097875Y-105752875D01*
X136130966Y-105730764D01*
X136170000Y-105723000D01*
X139470000Y-105723000D01*
X139509034Y-105730764D01*
G37*
G36*
X146390000Y-106820000D02*
G01*
X144490000Y-106820000D01*
X144490000Y-106020000D01*
X146390000Y-106020000D01*
X146390000Y-106820000D01*
G37*
G36*
X143390000Y-105870000D02*
G01*
X141490000Y-105870000D01*
X141490000Y-105070000D01*
X143390000Y-105070000D01*
X143390000Y-105870000D01*
G37*
G36*
X125014047Y-101870805D02*
G01*
X125065408Y-101876764D01*
X125082954Y-101884511D01*
X125105671Y-101889030D01*
X125129991Y-101905280D01*
X125150793Y-101914465D01*
X125165000Y-101928672D01*
X125186777Y-101943223D01*
X125201327Y-101964999D01*
X125215534Y-101979206D01*
X125224718Y-102000006D01*
X125240970Y-102024329D01*
X125245489Y-102047048D01*
X125253235Y-102064591D01*
X125259192Y-102115940D01*
X125260000Y-102120000D01*
X125260000Y-105120000D01*
X125259192Y-105124059D01*
X125253235Y-105175408D01*
X125245489Y-105192950D01*
X125240970Y-105215671D01*
X125224716Y-105239995D01*
X125215534Y-105260793D01*
X125201329Y-105274997D01*
X125186777Y-105296777D01*
X125164997Y-105311329D01*
X125150793Y-105325534D01*
X125129995Y-105334716D01*
X125105671Y-105350970D01*
X125082950Y-105355489D01*
X125065408Y-105363235D01*
X125014061Y-105369192D01*
X125010000Y-105370000D01*
X123910000Y-105370000D01*
X123905941Y-105369192D01*
X123854591Y-105363235D01*
X123837048Y-105355489D01*
X123814329Y-105350970D01*
X123790006Y-105334718D01*
X123769206Y-105325534D01*
X123754999Y-105311327D01*
X123733223Y-105296777D01*
X123718672Y-105275000D01*
X123704465Y-105260793D01*
X123695280Y-105239991D01*
X123679030Y-105215671D01*
X123674511Y-105192954D01*
X123666764Y-105175408D01*
X123660805Y-105124049D01*
X123660000Y-105120000D01*
X123660000Y-102120000D01*
X123660804Y-102115953D01*
X123666764Y-102064591D01*
X123674511Y-102047043D01*
X123679030Y-102024329D01*
X123695278Y-102000010D01*
X123704465Y-101979206D01*
X123718674Y-101964996D01*
X123733223Y-101943223D01*
X123754996Y-101928674D01*
X123769206Y-101914465D01*
X123790010Y-101905278D01*
X123814329Y-101889030D01*
X123837043Y-101884511D01*
X123854591Y-101876764D01*
X123905952Y-101870805D01*
X123910000Y-101870000D01*
X125010000Y-101870000D01*
X125014047Y-101870805D01*
G37*
G36*
X116290000Y-105230000D02*
G01*
X114390000Y-105230000D01*
X114390000Y-104430000D01*
X116290000Y-104430000D01*
X116290000Y-105230000D01*
G37*
G36*
X146390000Y-104920000D02*
G01*
X144490000Y-104920000D01*
X144490000Y-104120000D01*
X146390000Y-104120000D01*
X146390000Y-104920000D01*
G37*
G36*
X158982403Y-102981418D02*
G01*
X159031066Y-103013934D01*
X159063582Y-103062597D01*
X159075000Y-103120000D01*
X159075000Y-104770000D01*
X159063582Y-104827403D01*
X159031066Y-104876066D01*
X158982403Y-104908582D01*
X158925000Y-104920000D01*
X158625000Y-104920000D01*
X158567597Y-104908582D01*
X158518934Y-104876066D01*
X158486418Y-104827403D01*
X158475000Y-104770000D01*
X158475000Y-103120000D01*
X158486418Y-103062597D01*
X158518934Y-103013934D01*
X158567597Y-102981418D01*
X158625000Y-102970000D01*
X158925000Y-102970000D01*
X158982403Y-102981418D01*
G37*
G36*
X160252403Y-102981418D02*
G01*
X160301066Y-103013934D01*
X160333582Y-103062597D01*
X160345000Y-103120000D01*
X160345000Y-104770000D01*
X160333582Y-104827403D01*
X160301066Y-104876066D01*
X160252403Y-104908582D01*
X160195000Y-104920000D01*
X159895000Y-104920000D01*
X159837597Y-104908582D01*
X159788934Y-104876066D01*
X159756418Y-104827403D01*
X159745000Y-104770000D01*
X159745000Y-103120000D01*
X159756418Y-103062597D01*
X159788934Y-103013934D01*
X159837597Y-102981418D01*
X159895000Y-102970000D01*
X160195000Y-102970000D01*
X160252403Y-102981418D01*
G37*
G36*
X161522403Y-102981418D02*
G01*
X161571066Y-103013934D01*
X161603582Y-103062597D01*
X161615000Y-103120000D01*
X161615000Y-104770000D01*
X161603582Y-104827403D01*
X161571066Y-104876066D01*
X161522403Y-104908582D01*
X161465000Y-104920000D01*
X161165000Y-104920000D01*
X161107597Y-104908582D01*
X161058934Y-104876066D01*
X161026418Y-104827403D01*
X161015000Y-104770000D01*
X161015000Y-103120000D01*
X161026418Y-103062597D01*
X161058934Y-103013934D01*
X161107597Y-102981418D01*
X161165000Y-102970000D01*
X161465000Y-102970000D01*
X161522403Y-102981418D01*
G37*
G36*
X162792403Y-102981418D02*
G01*
X162841066Y-103013934D01*
X162873582Y-103062597D01*
X162885000Y-103120000D01*
X162885000Y-104770000D01*
X162873582Y-104827403D01*
X162841066Y-104876066D01*
X162792403Y-104908582D01*
X162735000Y-104920000D01*
X162435000Y-104920000D01*
X162377597Y-104908582D01*
X162328934Y-104876066D01*
X162296418Y-104827403D01*
X162285000Y-104770000D01*
X162285000Y-103120000D01*
X162296418Y-103062597D01*
X162328934Y-103013934D01*
X162377597Y-102981418D01*
X162435000Y-102970000D01*
X162735000Y-102970000D01*
X162792403Y-102981418D01*
G37*
G36*
X99476547Y-102980805D02*
G01*
X99527908Y-102986764D01*
X99545454Y-102994511D01*
X99568171Y-102999030D01*
X99592491Y-103015280D01*
X99613293Y-103024465D01*
X99627500Y-103038672D01*
X99649277Y-103053223D01*
X99663827Y-103074999D01*
X99678034Y-103089206D01*
X99687218Y-103110006D01*
X99703470Y-103134329D01*
X99707989Y-103157048D01*
X99715735Y-103174591D01*
X99721692Y-103225940D01*
X99722500Y-103230000D01*
X99722500Y-104530000D01*
X99721692Y-104534059D01*
X99715735Y-104585408D01*
X99707989Y-104602950D01*
X99703470Y-104625671D01*
X99687216Y-104649995D01*
X99678034Y-104670793D01*
X99663829Y-104684997D01*
X99649277Y-104706777D01*
X99627497Y-104721329D01*
X99613293Y-104735534D01*
X99592495Y-104744716D01*
X99568171Y-104760970D01*
X99545450Y-104765489D01*
X99527908Y-104773235D01*
X99476561Y-104779192D01*
X99472500Y-104780000D01*
X98647500Y-104780000D01*
X98643441Y-104779192D01*
X98592091Y-104773235D01*
X98574548Y-104765489D01*
X98551829Y-104760970D01*
X98527506Y-104744718D01*
X98506706Y-104735534D01*
X98492499Y-104721327D01*
X98470723Y-104706777D01*
X98456172Y-104685000D01*
X98441965Y-104670793D01*
X98432780Y-104649991D01*
X98416530Y-104625671D01*
X98412011Y-104602954D01*
X98404264Y-104585408D01*
X98398305Y-104534049D01*
X98397500Y-104530000D01*
X98397500Y-103230000D01*
X98398304Y-103225953D01*
X98404264Y-103174591D01*
X98412011Y-103157043D01*
X98416530Y-103134329D01*
X98432778Y-103110010D01*
X98441965Y-103089206D01*
X98456174Y-103074996D01*
X98470723Y-103053223D01*
X98492496Y-103038674D01*
X98506706Y-103024465D01*
X98527510Y-103015278D01*
X98551829Y-102999030D01*
X98574543Y-102994511D01*
X98592091Y-102986764D01*
X98643452Y-102980805D01*
X98647500Y-102980000D01*
X99472500Y-102980000D01*
X99476547Y-102980805D01*
G37*
G36*
X102601547Y-102980805D02*
G01*
X102652908Y-102986764D01*
X102670454Y-102994511D01*
X102693171Y-102999030D01*
X102717491Y-103015280D01*
X102738293Y-103024465D01*
X102752500Y-103038672D01*
X102774277Y-103053223D01*
X102788827Y-103074999D01*
X102803034Y-103089206D01*
X102812218Y-103110006D01*
X102828470Y-103134329D01*
X102832989Y-103157048D01*
X102840735Y-103174591D01*
X102846692Y-103225940D01*
X102847500Y-103230000D01*
X102847500Y-104530000D01*
X102846692Y-104534059D01*
X102840735Y-104585408D01*
X102832989Y-104602950D01*
X102828470Y-104625671D01*
X102812216Y-104649995D01*
X102803034Y-104670793D01*
X102788829Y-104684997D01*
X102774277Y-104706777D01*
X102752497Y-104721329D01*
X102738293Y-104735534D01*
X102717495Y-104744716D01*
X102693171Y-104760970D01*
X102670450Y-104765489D01*
X102652908Y-104773235D01*
X102601561Y-104779192D01*
X102597500Y-104780000D01*
X101772500Y-104780000D01*
X101768441Y-104779192D01*
X101717091Y-104773235D01*
X101699548Y-104765489D01*
X101676829Y-104760970D01*
X101652506Y-104744718D01*
X101631706Y-104735534D01*
X101617499Y-104721327D01*
X101595723Y-104706777D01*
X101581172Y-104685000D01*
X101566965Y-104670793D01*
X101557780Y-104649991D01*
X101541530Y-104625671D01*
X101537011Y-104602954D01*
X101529264Y-104585408D01*
X101523305Y-104534049D01*
X101522500Y-104530000D01*
X101522500Y-103230000D01*
X101523304Y-103225953D01*
X101529264Y-103174591D01*
X101537011Y-103157043D01*
X101541530Y-103134329D01*
X101557778Y-103110010D01*
X101566965Y-103089206D01*
X101581174Y-103074996D01*
X101595723Y-103053223D01*
X101617496Y-103038674D01*
X101631706Y-103024465D01*
X101652510Y-103015278D01*
X101676829Y-102999030D01*
X101699543Y-102994511D01*
X101717091Y-102986764D01*
X101768452Y-102980805D01*
X101772500Y-102980000D01*
X102597500Y-102980000D01*
X102601547Y-102980805D01*
G37*
G36*
X153476547Y-102980805D02*
G01*
X153527908Y-102986764D01*
X153545454Y-102994511D01*
X153568171Y-102999030D01*
X153592491Y-103015280D01*
X153613293Y-103024465D01*
X153627500Y-103038672D01*
X153649277Y-103053223D01*
X153663827Y-103074999D01*
X153678034Y-103089206D01*
X153687218Y-103110006D01*
X153703470Y-103134329D01*
X153707989Y-103157048D01*
X153715735Y-103174591D01*
X153721692Y-103225940D01*
X153722500Y-103230000D01*
X153722500Y-104530000D01*
X153721692Y-104534059D01*
X153715735Y-104585408D01*
X153707989Y-104602950D01*
X153703470Y-104625671D01*
X153687216Y-104649995D01*
X153678034Y-104670793D01*
X153663829Y-104684997D01*
X153649277Y-104706777D01*
X153627497Y-104721329D01*
X153613293Y-104735534D01*
X153592495Y-104744716D01*
X153568171Y-104760970D01*
X153545450Y-104765489D01*
X153527908Y-104773235D01*
X153476561Y-104779192D01*
X153472500Y-104780000D01*
X152647500Y-104780000D01*
X152643441Y-104779192D01*
X152592091Y-104773235D01*
X152574548Y-104765489D01*
X152551829Y-104760970D01*
X152527506Y-104744718D01*
X152506706Y-104735534D01*
X152492499Y-104721327D01*
X152470723Y-104706777D01*
X152456172Y-104685000D01*
X152441965Y-104670793D01*
X152432780Y-104649991D01*
X152416530Y-104625671D01*
X152412011Y-104602954D01*
X152404264Y-104585408D01*
X152398305Y-104534049D01*
X152397500Y-104530000D01*
X152397500Y-103230000D01*
X152398304Y-103225953D01*
X152404264Y-103174591D01*
X152412011Y-103157043D01*
X152416530Y-103134329D01*
X152432778Y-103110010D01*
X152441965Y-103089206D01*
X152456174Y-103074996D01*
X152470723Y-103053223D01*
X152492496Y-103038674D01*
X152506706Y-103024465D01*
X152527510Y-103015278D01*
X152551829Y-102999030D01*
X152574543Y-102994511D01*
X152592091Y-102986764D01*
X152643452Y-102980805D01*
X152647500Y-102980000D01*
X153472500Y-102980000D01*
X153476547Y-102980805D01*
G37*
G36*
X156601547Y-102980805D02*
G01*
X156652908Y-102986764D01*
X156670454Y-102994511D01*
X156693171Y-102999030D01*
X156717491Y-103015280D01*
X156738293Y-103024465D01*
X156752500Y-103038672D01*
X156774277Y-103053223D01*
X156788827Y-103074999D01*
X156803034Y-103089206D01*
X156812218Y-103110006D01*
X156828470Y-103134329D01*
X156832989Y-103157048D01*
X156840735Y-103174591D01*
X156846692Y-103225940D01*
X156847500Y-103230000D01*
X156847500Y-104530000D01*
X156846692Y-104534059D01*
X156840735Y-104585408D01*
X156832989Y-104602950D01*
X156828470Y-104625671D01*
X156812216Y-104649995D01*
X156803034Y-104670793D01*
X156788829Y-104684997D01*
X156774277Y-104706777D01*
X156752497Y-104721329D01*
X156738293Y-104735534D01*
X156717495Y-104744716D01*
X156693171Y-104760970D01*
X156670450Y-104765489D01*
X156652908Y-104773235D01*
X156601561Y-104779192D01*
X156597500Y-104780000D01*
X155772500Y-104780000D01*
X155768441Y-104779192D01*
X155717091Y-104773235D01*
X155699548Y-104765489D01*
X155676829Y-104760970D01*
X155652506Y-104744718D01*
X155631706Y-104735534D01*
X155617499Y-104721327D01*
X155595723Y-104706777D01*
X155581172Y-104685000D01*
X155566965Y-104670793D01*
X155557780Y-104649991D01*
X155541530Y-104625671D01*
X155537011Y-104602954D01*
X155529264Y-104585408D01*
X155523305Y-104534049D01*
X155522500Y-104530000D01*
X155522500Y-103230000D01*
X155523304Y-103225953D01*
X155529264Y-103174591D01*
X155537011Y-103157043D01*
X155541530Y-103134329D01*
X155557778Y-103110010D01*
X155566965Y-103089206D01*
X155581174Y-103074996D01*
X155595723Y-103053223D01*
X155617496Y-103038674D01*
X155631706Y-103024465D01*
X155652510Y-103015278D01*
X155676829Y-102999030D01*
X155699543Y-102994511D01*
X155717091Y-102986764D01*
X155768452Y-102980805D01*
X155772500Y-102980000D01*
X156597500Y-102980000D01*
X156601547Y-102980805D01*
G37*
G36*
X195044047Y-102980805D02*
G01*
X195095408Y-102986764D01*
X195112954Y-102994511D01*
X195135671Y-102999030D01*
X195159991Y-103015280D01*
X195180793Y-103024465D01*
X195195000Y-103038672D01*
X195216777Y-103053223D01*
X195231327Y-103074999D01*
X195245534Y-103089206D01*
X195254718Y-103110006D01*
X195270970Y-103134329D01*
X195275489Y-103157048D01*
X195283235Y-103174591D01*
X195289192Y-103225940D01*
X195290000Y-103230000D01*
X195290000Y-104530000D01*
X195289192Y-104534059D01*
X195283235Y-104585408D01*
X195275489Y-104602950D01*
X195270970Y-104625671D01*
X195254716Y-104649995D01*
X195245534Y-104670793D01*
X195231329Y-104684997D01*
X195216777Y-104706777D01*
X195194997Y-104721329D01*
X195180793Y-104735534D01*
X195159995Y-104744716D01*
X195135671Y-104760970D01*
X195112950Y-104765489D01*
X195095408Y-104773235D01*
X195044061Y-104779192D01*
X195040000Y-104780000D01*
X192240010Y-104780000D01*
X192235951Y-104779192D01*
X192184601Y-104773235D01*
X192167058Y-104765489D01*
X192144339Y-104760970D01*
X192120016Y-104744718D01*
X192099216Y-104735534D01*
X192085009Y-104721327D01*
X192063233Y-104706777D01*
X192048682Y-104685000D01*
X192034475Y-104670793D01*
X192025290Y-104649991D01*
X192009040Y-104625671D01*
X192004521Y-104602954D01*
X191996774Y-104585408D01*
X191990815Y-104534049D01*
X191990010Y-104530000D01*
X191990010Y-103230000D01*
X191990814Y-103225953D01*
X191996774Y-103174591D01*
X192004521Y-103157043D01*
X192009040Y-103134329D01*
X192025288Y-103110010D01*
X192034475Y-103089206D01*
X192048684Y-103074996D01*
X192063233Y-103053223D01*
X192085006Y-103038674D01*
X192099216Y-103024465D01*
X192120020Y-103015278D01*
X192144339Y-102999030D01*
X192167053Y-102994511D01*
X192184601Y-102986764D01*
X192235962Y-102980805D01*
X192240010Y-102980000D01*
X195040000Y-102980000D01*
X195044047Y-102980805D01*
G37*
G36*
X200244047Y-102980805D02*
G01*
X200295408Y-102986764D01*
X200312954Y-102994511D01*
X200335671Y-102999030D01*
X200359991Y-103015280D01*
X200380793Y-103024465D01*
X200395000Y-103038672D01*
X200416777Y-103053223D01*
X200431327Y-103074999D01*
X200445534Y-103089206D01*
X200454718Y-103110006D01*
X200470970Y-103134329D01*
X200475489Y-103157048D01*
X200483235Y-103174591D01*
X200489192Y-103225940D01*
X200490000Y-103230000D01*
X200490000Y-104530000D01*
X200489192Y-104534059D01*
X200483235Y-104585408D01*
X200475489Y-104602950D01*
X200470970Y-104625671D01*
X200454716Y-104649995D01*
X200445534Y-104670793D01*
X200431329Y-104684997D01*
X200416777Y-104706777D01*
X200394997Y-104721329D01*
X200380793Y-104735534D01*
X200359995Y-104744716D01*
X200335671Y-104760970D01*
X200312950Y-104765489D01*
X200295408Y-104773235D01*
X200244061Y-104779192D01*
X200240000Y-104780000D01*
X197440000Y-104780000D01*
X197435941Y-104779192D01*
X197384591Y-104773235D01*
X197367048Y-104765489D01*
X197344329Y-104760970D01*
X197320006Y-104744718D01*
X197299206Y-104735534D01*
X197284999Y-104721327D01*
X197263223Y-104706777D01*
X197248672Y-104685000D01*
X197234465Y-104670793D01*
X197225280Y-104649991D01*
X197209030Y-104625671D01*
X197204511Y-104602954D01*
X197196764Y-104585408D01*
X197190805Y-104534049D01*
X197190000Y-104530000D01*
X197190000Y-103230000D01*
X197190804Y-103225953D01*
X197196764Y-103174591D01*
X197204511Y-103157043D01*
X197209030Y-103134329D01*
X197225278Y-103110010D01*
X197234465Y-103089206D01*
X197248674Y-103074996D01*
X197263223Y-103053223D01*
X197284996Y-103038674D01*
X197299206Y-103024465D01*
X197320010Y-103015278D01*
X197344329Y-102999030D01*
X197367043Y-102994511D01*
X197384591Y-102986764D01*
X197435952Y-102980805D01*
X197440000Y-102980000D01*
X200240000Y-102980000D01*
X200244047Y-102980805D01*
G37*
G36*
X104544047Y-103005805D02*
G01*
X104595408Y-103011764D01*
X104612954Y-103019511D01*
X104635671Y-103024030D01*
X104659991Y-103040280D01*
X104680793Y-103049465D01*
X104695000Y-103063672D01*
X104716777Y-103078223D01*
X104731327Y-103099999D01*
X104745534Y-103114206D01*
X104754718Y-103135006D01*
X104770970Y-103159329D01*
X104775489Y-103182048D01*
X104783235Y-103199591D01*
X104789192Y-103250940D01*
X104790000Y-103255000D01*
X104790000Y-104505000D01*
X104789192Y-104509059D01*
X104783235Y-104560408D01*
X104775489Y-104577950D01*
X104770970Y-104600671D01*
X104754716Y-104624995D01*
X104745534Y-104645793D01*
X104731329Y-104659997D01*
X104716777Y-104681777D01*
X104694997Y-104696329D01*
X104680793Y-104710534D01*
X104659995Y-104719716D01*
X104635671Y-104735970D01*
X104612950Y-104740489D01*
X104595408Y-104748235D01*
X104544061Y-104754192D01*
X104540000Y-104755000D01*
X103740000Y-104755000D01*
X103735941Y-104754192D01*
X103684591Y-104748235D01*
X103667048Y-104740489D01*
X103644329Y-104735970D01*
X103620006Y-104719718D01*
X103599206Y-104710534D01*
X103584999Y-104696327D01*
X103563223Y-104681777D01*
X103548672Y-104660000D01*
X103534465Y-104645793D01*
X103525280Y-104624991D01*
X103509030Y-104600671D01*
X103504511Y-104577954D01*
X103496764Y-104560408D01*
X103490805Y-104509049D01*
X103490000Y-104505000D01*
X103490000Y-103255000D01*
X103490804Y-103250953D01*
X103496764Y-103199591D01*
X103504511Y-103182043D01*
X103509030Y-103159329D01*
X103525278Y-103135010D01*
X103534465Y-103114206D01*
X103548674Y-103099996D01*
X103563223Y-103078223D01*
X103584996Y-103063674D01*
X103599206Y-103049465D01*
X103620010Y-103040278D01*
X103644329Y-103024030D01*
X103667043Y-103019511D01*
X103684591Y-103011764D01*
X103735952Y-103005805D01*
X103740000Y-103005000D01*
X104540000Y-103005000D01*
X104544047Y-103005805D01*
G37*
G36*
X107644047Y-103005805D02*
G01*
X107695408Y-103011764D01*
X107712954Y-103019511D01*
X107735671Y-103024030D01*
X107759991Y-103040280D01*
X107780793Y-103049465D01*
X107795000Y-103063672D01*
X107816777Y-103078223D01*
X107831327Y-103099999D01*
X107845534Y-103114206D01*
X107854718Y-103135006D01*
X107870970Y-103159329D01*
X107875489Y-103182048D01*
X107883235Y-103199591D01*
X107889192Y-103250940D01*
X107890000Y-103255000D01*
X107890000Y-104505000D01*
X107889192Y-104509059D01*
X107883235Y-104560408D01*
X107875489Y-104577950D01*
X107870970Y-104600671D01*
X107854716Y-104624995D01*
X107845534Y-104645793D01*
X107831329Y-104659997D01*
X107816777Y-104681777D01*
X107794997Y-104696329D01*
X107780793Y-104710534D01*
X107759995Y-104719716D01*
X107735671Y-104735970D01*
X107712950Y-104740489D01*
X107695408Y-104748235D01*
X107644061Y-104754192D01*
X107640000Y-104755000D01*
X106840000Y-104755000D01*
X106835941Y-104754192D01*
X106784591Y-104748235D01*
X106767048Y-104740489D01*
X106744329Y-104735970D01*
X106720006Y-104719718D01*
X106699206Y-104710534D01*
X106684999Y-104696327D01*
X106663223Y-104681777D01*
X106648672Y-104660000D01*
X106634465Y-104645793D01*
X106625280Y-104624991D01*
X106609030Y-104600671D01*
X106604511Y-104577954D01*
X106596764Y-104560408D01*
X106590805Y-104509049D01*
X106590000Y-104505000D01*
X106590000Y-103255000D01*
X106590804Y-103250953D01*
X106596764Y-103199591D01*
X106604511Y-103182043D01*
X106609030Y-103159329D01*
X106625278Y-103135010D01*
X106634465Y-103114206D01*
X106648674Y-103099996D01*
X106663223Y-103078223D01*
X106684996Y-103063674D01*
X106699206Y-103049465D01*
X106720010Y-103040278D01*
X106744329Y-103024030D01*
X106767043Y-103019511D01*
X106784591Y-103011764D01*
X106835952Y-103005805D01*
X106840000Y-103005000D01*
X107640000Y-103005000D01*
X107644047Y-103005805D01*
G37*
G36*
X109624047Y-103005805D02*
G01*
X109675408Y-103011764D01*
X109692954Y-103019511D01*
X109715671Y-103024030D01*
X109739991Y-103040280D01*
X109760793Y-103049465D01*
X109775000Y-103063672D01*
X109796777Y-103078223D01*
X109811327Y-103099999D01*
X109825534Y-103114206D01*
X109834718Y-103135006D01*
X109850970Y-103159329D01*
X109855489Y-103182048D01*
X109863235Y-103199591D01*
X109869192Y-103250940D01*
X109870000Y-103255000D01*
X109870000Y-104505000D01*
X109869192Y-104509059D01*
X109863235Y-104560408D01*
X109855489Y-104577950D01*
X109850970Y-104600671D01*
X109834716Y-104624995D01*
X109825534Y-104645793D01*
X109811329Y-104659997D01*
X109796777Y-104681777D01*
X109774997Y-104696329D01*
X109760793Y-104710534D01*
X109739995Y-104719716D01*
X109715671Y-104735970D01*
X109692950Y-104740489D01*
X109675408Y-104748235D01*
X109624061Y-104754192D01*
X109620000Y-104755000D01*
X108820000Y-104755000D01*
X108815941Y-104754192D01*
X108764591Y-104748235D01*
X108747048Y-104740489D01*
X108724329Y-104735970D01*
X108700006Y-104719718D01*
X108679206Y-104710534D01*
X108664999Y-104696327D01*
X108643223Y-104681777D01*
X108628672Y-104660000D01*
X108614465Y-104645793D01*
X108605280Y-104624991D01*
X108589030Y-104600671D01*
X108584511Y-104577954D01*
X108576764Y-104560408D01*
X108570805Y-104509049D01*
X108570000Y-104505000D01*
X108570000Y-103255000D01*
X108570804Y-103250953D01*
X108576764Y-103199591D01*
X108584511Y-103182043D01*
X108589030Y-103159329D01*
X108605278Y-103135010D01*
X108614465Y-103114206D01*
X108628674Y-103099996D01*
X108643223Y-103078223D01*
X108664996Y-103063674D01*
X108679206Y-103049465D01*
X108700010Y-103040278D01*
X108724329Y-103024030D01*
X108747043Y-103019511D01*
X108764591Y-103011764D01*
X108815952Y-103005805D01*
X108820000Y-103005000D01*
X109620000Y-103005000D01*
X109624047Y-103005805D01*
G37*
G36*
X112724047Y-103005805D02*
G01*
X112775408Y-103011764D01*
X112792954Y-103019511D01*
X112815671Y-103024030D01*
X112839991Y-103040280D01*
X112860793Y-103049465D01*
X112875000Y-103063672D01*
X112896777Y-103078223D01*
X112911327Y-103099999D01*
X112925534Y-103114206D01*
X112934718Y-103135006D01*
X112950970Y-103159329D01*
X112955489Y-103182048D01*
X112963235Y-103199591D01*
X112969192Y-103250940D01*
X112970000Y-103255000D01*
X112970000Y-104505000D01*
X112969192Y-104509059D01*
X112963235Y-104560408D01*
X112955489Y-104577950D01*
X112950970Y-104600671D01*
X112934716Y-104624995D01*
X112925534Y-104645793D01*
X112911329Y-104659997D01*
X112896777Y-104681777D01*
X112874997Y-104696329D01*
X112860793Y-104710534D01*
X112839995Y-104719716D01*
X112815671Y-104735970D01*
X112792950Y-104740489D01*
X112775408Y-104748235D01*
X112724061Y-104754192D01*
X112720000Y-104755000D01*
X111920000Y-104755000D01*
X111915941Y-104754192D01*
X111864591Y-104748235D01*
X111847048Y-104740489D01*
X111824329Y-104735970D01*
X111800006Y-104719718D01*
X111779206Y-104710534D01*
X111764999Y-104696327D01*
X111743223Y-104681777D01*
X111728672Y-104660000D01*
X111714465Y-104645793D01*
X111705280Y-104624991D01*
X111689030Y-104600671D01*
X111684511Y-104577954D01*
X111676764Y-104560408D01*
X111670805Y-104509049D01*
X111670000Y-104505000D01*
X111670000Y-103255000D01*
X111670804Y-103250953D01*
X111676764Y-103199591D01*
X111684511Y-103182043D01*
X111689030Y-103159329D01*
X111705278Y-103135010D01*
X111714465Y-103114206D01*
X111728674Y-103099996D01*
X111743223Y-103078223D01*
X111764996Y-103063674D01*
X111779206Y-103049465D01*
X111800010Y-103040278D01*
X111824329Y-103024030D01*
X111847043Y-103019511D01*
X111864591Y-103011764D01*
X111915952Y-103005805D01*
X111920000Y-103005000D01*
X112720000Y-103005000D01*
X112724047Y-103005805D01*
G37*
G36*
X148384047Y-103005805D02*
G01*
X148435408Y-103011764D01*
X148452954Y-103019511D01*
X148475671Y-103024030D01*
X148499991Y-103040280D01*
X148520793Y-103049465D01*
X148535000Y-103063672D01*
X148556777Y-103078223D01*
X148571327Y-103099999D01*
X148585534Y-103114206D01*
X148594718Y-103135006D01*
X148610970Y-103159329D01*
X148615489Y-103182048D01*
X148623235Y-103199591D01*
X148629192Y-103250940D01*
X148630000Y-103255000D01*
X148630000Y-104505000D01*
X148629192Y-104509059D01*
X148623235Y-104560408D01*
X148615489Y-104577950D01*
X148610970Y-104600671D01*
X148594716Y-104624995D01*
X148585534Y-104645793D01*
X148571329Y-104659997D01*
X148556777Y-104681777D01*
X148534997Y-104696329D01*
X148520793Y-104710534D01*
X148499995Y-104719716D01*
X148475671Y-104735970D01*
X148452950Y-104740489D01*
X148435408Y-104748235D01*
X148384061Y-104754192D01*
X148380000Y-104755000D01*
X147580000Y-104755000D01*
X147575941Y-104754192D01*
X147524591Y-104748235D01*
X147507048Y-104740489D01*
X147484329Y-104735970D01*
X147460006Y-104719718D01*
X147439206Y-104710534D01*
X147424999Y-104696327D01*
X147403223Y-104681777D01*
X147388672Y-104660000D01*
X147374465Y-104645793D01*
X147365280Y-104624991D01*
X147349030Y-104600671D01*
X147344511Y-104577954D01*
X147336764Y-104560408D01*
X147330805Y-104509049D01*
X147330000Y-104505000D01*
X147330000Y-103255000D01*
X147330804Y-103250953D01*
X147336764Y-103199591D01*
X147344511Y-103182043D01*
X147349030Y-103159329D01*
X147365278Y-103135010D01*
X147374465Y-103114206D01*
X147388674Y-103099996D01*
X147403223Y-103078223D01*
X147424996Y-103063674D01*
X147439206Y-103049465D01*
X147460010Y-103040278D01*
X147484329Y-103024030D01*
X147507043Y-103019511D01*
X147524591Y-103011764D01*
X147575952Y-103005805D01*
X147580000Y-103005000D01*
X148380000Y-103005000D01*
X148384047Y-103005805D01*
G37*
G36*
X151484047Y-103005805D02*
G01*
X151535408Y-103011764D01*
X151552954Y-103019511D01*
X151575671Y-103024030D01*
X151599991Y-103040280D01*
X151620793Y-103049465D01*
X151635000Y-103063672D01*
X151656777Y-103078223D01*
X151671327Y-103099999D01*
X151685534Y-103114206D01*
X151694718Y-103135006D01*
X151710970Y-103159329D01*
X151715489Y-103182048D01*
X151723235Y-103199591D01*
X151729192Y-103250940D01*
X151730000Y-103255000D01*
X151730000Y-104505000D01*
X151729192Y-104509059D01*
X151723235Y-104560408D01*
X151715489Y-104577950D01*
X151710970Y-104600671D01*
X151694716Y-104624995D01*
X151685534Y-104645793D01*
X151671329Y-104659997D01*
X151656777Y-104681777D01*
X151634997Y-104696329D01*
X151620793Y-104710534D01*
X151599995Y-104719716D01*
X151575671Y-104735970D01*
X151552950Y-104740489D01*
X151535408Y-104748235D01*
X151484061Y-104754192D01*
X151480000Y-104755000D01*
X150680000Y-104755000D01*
X150675941Y-104754192D01*
X150624591Y-104748235D01*
X150607048Y-104740489D01*
X150584329Y-104735970D01*
X150560006Y-104719718D01*
X150539206Y-104710534D01*
X150524999Y-104696327D01*
X150503223Y-104681777D01*
X150488672Y-104660000D01*
X150474465Y-104645793D01*
X150465280Y-104624991D01*
X150449030Y-104600671D01*
X150444511Y-104577954D01*
X150436764Y-104560408D01*
X150430805Y-104509049D01*
X150430000Y-104505000D01*
X150430000Y-103255000D01*
X150430804Y-103250953D01*
X150436764Y-103199591D01*
X150444511Y-103182043D01*
X150449030Y-103159329D01*
X150465278Y-103135010D01*
X150474465Y-103114206D01*
X150488674Y-103099996D01*
X150503223Y-103078223D01*
X150524996Y-103063674D01*
X150539206Y-103049465D01*
X150560010Y-103040278D01*
X150584329Y-103024030D01*
X150607043Y-103019511D01*
X150624591Y-103011764D01*
X150675952Y-103005805D01*
X150680000Y-103005000D01*
X151480000Y-103005000D01*
X151484047Y-103005805D01*
G37*
G36*
X204264047Y-103005805D02*
G01*
X204315408Y-103011764D01*
X204332954Y-103019511D01*
X204355671Y-103024030D01*
X204379991Y-103040280D01*
X204400793Y-103049465D01*
X204415000Y-103063672D01*
X204436777Y-103078223D01*
X204451327Y-103099999D01*
X204465534Y-103114206D01*
X204474718Y-103135006D01*
X204490970Y-103159329D01*
X204495489Y-103182048D01*
X204503235Y-103199591D01*
X204509192Y-103250940D01*
X204510000Y-103255000D01*
X204510000Y-104505000D01*
X204509192Y-104509059D01*
X204503235Y-104560408D01*
X204495489Y-104577950D01*
X204490970Y-104600671D01*
X204474716Y-104624995D01*
X204465534Y-104645793D01*
X204451329Y-104659997D01*
X204436777Y-104681777D01*
X204414997Y-104696329D01*
X204400793Y-104710534D01*
X204379995Y-104719716D01*
X204355671Y-104735970D01*
X204332950Y-104740489D01*
X204315408Y-104748235D01*
X204264061Y-104754192D01*
X204260000Y-104755000D01*
X203460000Y-104755000D01*
X203455941Y-104754192D01*
X203404591Y-104748235D01*
X203387048Y-104740489D01*
X203364329Y-104735970D01*
X203340006Y-104719718D01*
X203319206Y-104710534D01*
X203304999Y-104696327D01*
X203283223Y-104681777D01*
X203268672Y-104660000D01*
X203254465Y-104645793D01*
X203245280Y-104624991D01*
X203229030Y-104600671D01*
X203224511Y-104577954D01*
X203216764Y-104560408D01*
X203210805Y-104509049D01*
X203210000Y-104505000D01*
X203210000Y-103255000D01*
X203210804Y-103250953D01*
X203216764Y-103199591D01*
X203224511Y-103182043D01*
X203229030Y-103159329D01*
X203245278Y-103135010D01*
X203254465Y-103114206D01*
X203268674Y-103099996D01*
X203283223Y-103078223D01*
X203304996Y-103063674D01*
X203319206Y-103049465D01*
X203340010Y-103040278D01*
X203364329Y-103024030D01*
X203387043Y-103019511D01*
X203404591Y-103011764D01*
X203455952Y-103005805D01*
X203460000Y-103005000D01*
X204260000Y-103005000D01*
X204264047Y-103005805D01*
G37*
G36*
X207364047Y-103005805D02*
G01*
X207415408Y-103011764D01*
X207432954Y-103019511D01*
X207455671Y-103024030D01*
X207479991Y-103040280D01*
X207500793Y-103049465D01*
X207515000Y-103063672D01*
X207536777Y-103078223D01*
X207551327Y-103099999D01*
X207565534Y-103114206D01*
X207574718Y-103135006D01*
X207590970Y-103159329D01*
X207595489Y-103182048D01*
X207603235Y-103199591D01*
X207609192Y-103250940D01*
X207610000Y-103255000D01*
X207610000Y-104505000D01*
X207609192Y-104509059D01*
X207603235Y-104560408D01*
X207595489Y-104577950D01*
X207590970Y-104600671D01*
X207574716Y-104624995D01*
X207565534Y-104645793D01*
X207551329Y-104659997D01*
X207536777Y-104681777D01*
X207514997Y-104696329D01*
X207500793Y-104710534D01*
X207479995Y-104719716D01*
X207455671Y-104735970D01*
X207432950Y-104740489D01*
X207415408Y-104748235D01*
X207364061Y-104754192D01*
X207360000Y-104755000D01*
X206560000Y-104755000D01*
X206555941Y-104754192D01*
X206504591Y-104748235D01*
X206487048Y-104740489D01*
X206464329Y-104735970D01*
X206440006Y-104719718D01*
X206419206Y-104710534D01*
X206404999Y-104696327D01*
X206383223Y-104681777D01*
X206368672Y-104660000D01*
X206354465Y-104645793D01*
X206345280Y-104624991D01*
X206329030Y-104600671D01*
X206324511Y-104577954D01*
X206316764Y-104560408D01*
X206310805Y-104509049D01*
X206310000Y-104505000D01*
X206310000Y-103255000D01*
X206310804Y-103250953D01*
X206316764Y-103199591D01*
X206324511Y-103182043D01*
X206329030Y-103159329D01*
X206345278Y-103135010D01*
X206354465Y-103114206D01*
X206368674Y-103099996D01*
X206383223Y-103078223D01*
X206404996Y-103063674D01*
X206419206Y-103049465D01*
X206440010Y-103040278D01*
X206464329Y-103024030D01*
X206487043Y-103019511D01*
X206504591Y-103011764D01*
X206555952Y-103005805D01*
X206560000Y-103005000D01*
X207360000Y-103005000D01*
X207364047Y-103005805D01*
G37*
G36*
X209344047Y-103005805D02*
G01*
X209395408Y-103011764D01*
X209412954Y-103019511D01*
X209435671Y-103024030D01*
X209459991Y-103040280D01*
X209480793Y-103049465D01*
X209495000Y-103063672D01*
X209516777Y-103078223D01*
X209531327Y-103099999D01*
X209545534Y-103114206D01*
X209554718Y-103135006D01*
X209570970Y-103159329D01*
X209575489Y-103182048D01*
X209583235Y-103199591D01*
X209589192Y-103250940D01*
X209590000Y-103255000D01*
X209590000Y-104505000D01*
X209589192Y-104509059D01*
X209583235Y-104560408D01*
X209575489Y-104577950D01*
X209570970Y-104600671D01*
X209554716Y-104624995D01*
X209545534Y-104645793D01*
X209531329Y-104659997D01*
X209516777Y-104681777D01*
X209494997Y-104696329D01*
X209480793Y-104710534D01*
X209459995Y-104719716D01*
X209435671Y-104735970D01*
X209412950Y-104740489D01*
X209395408Y-104748235D01*
X209344061Y-104754192D01*
X209340000Y-104755000D01*
X208540000Y-104755000D01*
X208535941Y-104754192D01*
X208484591Y-104748235D01*
X208467048Y-104740489D01*
X208444329Y-104735970D01*
X208420006Y-104719718D01*
X208399206Y-104710534D01*
X208384999Y-104696327D01*
X208363223Y-104681777D01*
X208348672Y-104660000D01*
X208334465Y-104645793D01*
X208325280Y-104624991D01*
X208309030Y-104600671D01*
X208304511Y-104577954D01*
X208296764Y-104560408D01*
X208290805Y-104509049D01*
X208290000Y-104505000D01*
X208290000Y-103255000D01*
X208290804Y-103250953D01*
X208296764Y-103199591D01*
X208304511Y-103182043D01*
X208309030Y-103159329D01*
X208325278Y-103135010D01*
X208334465Y-103114206D01*
X208348674Y-103099996D01*
X208363223Y-103078223D01*
X208384996Y-103063674D01*
X208399206Y-103049465D01*
X208420010Y-103040278D01*
X208444329Y-103024030D01*
X208467043Y-103019511D01*
X208484591Y-103011764D01*
X208535952Y-103005805D01*
X208540000Y-103005000D01*
X209340000Y-103005000D01*
X209344047Y-103005805D01*
G37*
G36*
X212444047Y-103005805D02*
G01*
X212495408Y-103011764D01*
X212512954Y-103019511D01*
X212535671Y-103024030D01*
X212559991Y-103040280D01*
X212580793Y-103049465D01*
X212595000Y-103063672D01*
X212616777Y-103078223D01*
X212631327Y-103099999D01*
X212645534Y-103114206D01*
X212654718Y-103135006D01*
X212670970Y-103159329D01*
X212675489Y-103182048D01*
X212683235Y-103199591D01*
X212689192Y-103250940D01*
X212690000Y-103255000D01*
X212690000Y-104505000D01*
X212689192Y-104509059D01*
X212683235Y-104560408D01*
X212675489Y-104577950D01*
X212670970Y-104600671D01*
X212654716Y-104624995D01*
X212645534Y-104645793D01*
X212631329Y-104659997D01*
X212616777Y-104681777D01*
X212594997Y-104696329D01*
X212580793Y-104710534D01*
X212559995Y-104719716D01*
X212535671Y-104735970D01*
X212512950Y-104740489D01*
X212495408Y-104748235D01*
X212444061Y-104754192D01*
X212440000Y-104755000D01*
X211640000Y-104755000D01*
X211635941Y-104754192D01*
X211584591Y-104748235D01*
X211567048Y-104740489D01*
X211544329Y-104735970D01*
X211520006Y-104719718D01*
X211499206Y-104710534D01*
X211484999Y-104696327D01*
X211463223Y-104681777D01*
X211448672Y-104660000D01*
X211434465Y-104645793D01*
X211425280Y-104624991D01*
X211409030Y-104600671D01*
X211404511Y-104577954D01*
X211396764Y-104560408D01*
X211390805Y-104509049D01*
X211390000Y-104505000D01*
X211390000Y-103255000D01*
X211390804Y-103250953D01*
X211396764Y-103199591D01*
X211404511Y-103182043D01*
X211409030Y-103159329D01*
X211425278Y-103135010D01*
X211434465Y-103114206D01*
X211448674Y-103099996D01*
X211463223Y-103078223D01*
X211484996Y-103063674D01*
X211499206Y-103049465D01*
X211520010Y-103040278D01*
X211544329Y-103024030D01*
X211567043Y-103019511D01*
X211584591Y-103011764D01*
X211635952Y-103005805D01*
X211640000Y-103005000D01*
X212440000Y-103005000D01*
X212444047Y-103005805D01*
G37*
G36*
X87870000Y-104730000D02*
G01*
X86170000Y-104730000D01*
X86170000Y-103030000D01*
X87870000Y-103030000D01*
X87870000Y-104730000D01*
G37*
G36*
X84742664Y-103071602D02*
G01*
X84905000Y-103143878D01*
X85048761Y-103248327D01*
X85167664Y-103380383D01*
X85256514Y-103534274D01*
X85311425Y-103703275D01*
X85330000Y-103880000D01*
X85311425Y-104056725D01*
X85256514Y-104225726D01*
X85167664Y-104379617D01*
X85048761Y-104511673D01*
X84905000Y-104616122D01*
X84742664Y-104688398D01*
X84568849Y-104725344D01*
X84391151Y-104725344D01*
X84217336Y-104688398D01*
X84055000Y-104616122D01*
X83911239Y-104511673D01*
X83792336Y-104379617D01*
X83703486Y-104225726D01*
X83648575Y-104056725D01*
X83630000Y-103880000D01*
X83648575Y-103703275D01*
X83703486Y-103534274D01*
X83792336Y-103380383D01*
X83911239Y-103248327D01*
X84055000Y-103143878D01*
X84217336Y-103071602D01*
X84391151Y-103034656D01*
X84568849Y-103034656D01*
X84742664Y-103071602D01*
G37*
G36*
X133109034Y-103190764D02*
G01*
X133142125Y-103212875D01*
X133164236Y-103245966D01*
X133172000Y-103285000D01*
X133172000Y-104475000D01*
X133164236Y-104514034D01*
X133142125Y-104547125D01*
X133109034Y-104569236D01*
X133070000Y-104577000D01*
X129770000Y-104577000D01*
X129730966Y-104569236D01*
X129697875Y-104547125D01*
X129675764Y-104514034D01*
X129668000Y-104475000D01*
X129668000Y-103285000D01*
X129675764Y-103245966D01*
X129697875Y-103212875D01*
X129730966Y-103190764D01*
X129770000Y-103183000D01*
X133070000Y-103183000D01*
X133109034Y-103190764D01*
G37*
G36*
X189830000Y-104520000D02*
G01*
X182330000Y-104520000D01*
X182330000Y-101340000D01*
X189830000Y-101340000D01*
X189830000Y-104520000D01*
G37*
G36*
X166014047Y-103380805D02*
G01*
X166065408Y-103386764D01*
X166082954Y-103394511D01*
X166105671Y-103399030D01*
X166129991Y-103415280D01*
X166150793Y-103424465D01*
X166165000Y-103438672D01*
X166186777Y-103453223D01*
X166201327Y-103474999D01*
X166215534Y-103489206D01*
X166224718Y-103510006D01*
X166240970Y-103534329D01*
X166245489Y-103557048D01*
X166253235Y-103574591D01*
X166259192Y-103625940D01*
X166260000Y-103630000D01*
X166260000Y-104130000D01*
X166259192Y-104134059D01*
X166253235Y-104185408D01*
X166245489Y-104202950D01*
X166240970Y-104225671D01*
X166224716Y-104249995D01*
X166215534Y-104270793D01*
X166201329Y-104284997D01*
X166186777Y-104306777D01*
X166164997Y-104321329D01*
X166150793Y-104335534D01*
X166129995Y-104344716D01*
X166105671Y-104360970D01*
X166082950Y-104365489D01*
X166065408Y-104373235D01*
X166014061Y-104379192D01*
X166010000Y-104380000D01*
X165510000Y-104380000D01*
X165505941Y-104379192D01*
X165454591Y-104373235D01*
X165437048Y-104365489D01*
X165414329Y-104360970D01*
X165390006Y-104344718D01*
X165369206Y-104335534D01*
X165354999Y-104321327D01*
X165333223Y-104306777D01*
X165318672Y-104285000D01*
X165304465Y-104270793D01*
X165295280Y-104249991D01*
X165279030Y-104225671D01*
X165274511Y-104202954D01*
X165266764Y-104185408D01*
X165260805Y-104134049D01*
X165260000Y-104130000D01*
X165260000Y-103630000D01*
X165260804Y-103625953D01*
X165266764Y-103574591D01*
X165274511Y-103557043D01*
X165279030Y-103534329D01*
X165295278Y-103510010D01*
X165304465Y-103489206D01*
X165318674Y-103474996D01*
X165333223Y-103453223D01*
X165354996Y-103438674D01*
X165369206Y-103424465D01*
X165390010Y-103415278D01*
X165414329Y-103399030D01*
X165437043Y-103394511D01*
X165454591Y-103386764D01*
X165505952Y-103380805D01*
X165510000Y-103380000D01*
X166010000Y-103380000D01*
X166014047Y-103380805D01*
G37*
G36*
X168514047Y-103380805D02*
G01*
X168565408Y-103386764D01*
X168582954Y-103394511D01*
X168605671Y-103399030D01*
X168629991Y-103415280D01*
X168650793Y-103424465D01*
X168665000Y-103438672D01*
X168686777Y-103453223D01*
X168701327Y-103474999D01*
X168715534Y-103489206D01*
X168724718Y-103510006D01*
X168740970Y-103534329D01*
X168745489Y-103557048D01*
X168753235Y-103574591D01*
X168759192Y-103625940D01*
X168760000Y-103630000D01*
X168760000Y-104130000D01*
X168759192Y-104134059D01*
X168753235Y-104185408D01*
X168745489Y-104202950D01*
X168740970Y-104225671D01*
X168724716Y-104249995D01*
X168715534Y-104270793D01*
X168701329Y-104284997D01*
X168686777Y-104306777D01*
X168664997Y-104321329D01*
X168650793Y-104335534D01*
X168629995Y-104344716D01*
X168605671Y-104360970D01*
X168582950Y-104365489D01*
X168565408Y-104373235D01*
X168514061Y-104379192D01*
X168510000Y-104380000D01*
X168010000Y-104380000D01*
X168005941Y-104379192D01*
X167954591Y-104373235D01*
X167937048Y-104365489D01*
X167914329Y-104360970D01*
X167890006Y-104344718D01*
X167869206Y-104335534D01*
X167854999Y-104321327D01*
X167833223Y-104306777D01*
X167818672Y-104285000D01*
X167804465Y-104270793D01*
X167795280Y-104249991D01*
X167779030Y-104225671D01*
X167774511Y-104202954D01*
X167766764Y-104185408D01*
X167760805Y-104134049D01*
X167760000Y-104130000D01*
X167760000Y-103630000D01*
X167760804Y-103625953D01*
X167766764Y-103574591D01*
X167774511Y-103557043D01*
X167779030Y-103534329D01*
X167795278Y-103510010D01*
X167804465Y-103489206D01*
X167818674Y-103474996D01*
X167833223Y-103453223D01*
X167854996Y-103438674D01*
X167869206Y-103424465D01*
X167890010Y-103415278D01*
X167914329Y-103399030D01*
X167937043Y-103394511D01*
X167954591Y-103386764D01*
X168005952Y-103380805D01*
X168010000Y-103380000D01*
X168510000Y-103380000D01*
X168514047Y-103380805D01*
G37*
G36*
X119290000Y-104280000D02*
G01*
X117390000Y-104280000D01*
X117390000Y-103480000D01*
X119290000Y-103480000D01*
X119290000Y-104280000D01*
G37*
G36*
X177820000Y-104270000D02*
G01*
X174020000Y-104270000D01*
X174020000Y-102270000D01*
X177820000Y-102270000D01*
X177820000Y-104270000D01*
G37*
G36*
X116290000Y-103330000D02*
G01*
X114390000Y-103330000D01*
X114390000Y-102530000D01*
X116290000Y-102530000D01*
X116290000Y-103330000D01*
G37*
G36*
X84742664Y-100531602D02*
G01*
X84905000Y-100603878D01*
X85048761Y-100708327D01*
X85167664Y-100840383D01*
X85256514Y-100994274D01*
X85311425Y-101163275D01*
X85330000Y-101340000D01*
X85311425Y-101516725D01*
X85256514Y-101685726D01*
X85167664Y-101839617D01*
X85048761Y-101971673D01*
X84905000Y-102076122D01*
X84742664Y-102148398D01*
X84568849Y-102185344D01*
X84391151Y-102185344D01*
X84217336Y-102148398D01*
X84055000Y-102076122D01*
X83911239Y-101971673D01*
X83792336Y-101839617D01*
X83703486Y-101685726D01*
X83648575Y-101516725D01*
X83630000Y-101340000D01*
X83648575Y-101163275D01*
X83703486Y-100994274D01*
X83792336Y-100840383D01*
X83911239Y-100708327D01*
X84055000Y-100603878D01*
X84217336Y-100531602D01*
X84391151Y-100494656D01*
X84568849Y-100494656D01*
X84742664Y-100531602D01*
G37*
G36*
X87282664Y-100531602D02*
G01*
X87445000Y-100603878D01*
X87588761Y-100708327D01*
X87707664Y-100840383D01*
X87796514Y-100994274D01*
X87851425Y-101163275D01*
X87870000Y-101340000D01*
X87851425Y-101516725D01*
X87796514Y-101685726D01*
X87707664Y-101839617D01*
X87588761Y-101971673D01*
X87445000Y-102076122D01*
X87282664Y-102148398D01*
X87108849Y-102185344D01*
X86931151Y-102185344D01*
X86757336Y-102148398D01*
X86595000Y-102076122D01*
X86451239Y-101971673D01*
X86332336Y-101839617D01*
X86243486Y-101685726D01*
X86188575Y-101516725D01*
X86170000Y-101340000D01*
X86188575Y-101163275D01*
X86243486Y-100994274D01*
X86332336Y-100840383D01*
X86451239Y-100708327D01*
X86595000Y-100603878D01*
X86757336Y-100531602D01*
X86931151Y-100494656D01*
X87108849Y-100494656D01*
X87282664Y-100531602D01*
G37*
G36*
X214649047Y-100690805D02*
G01*
X214700408Y-100696764D01*
X214717954Y-100704511D01*
X214740671Y-100709030D01*
X214764991Y-100725280D01*
X214785793Y-100734465D01*
X214800000Y-100748672D01*
X214821777Y-100763223D01*
X214836327Y-100784999D01*
X214850534Y-100799206D01*
X214859718Y-100820006D01*
X214875970Y-100844329D01*
X214880489Y-100867048D01*
X214888235Y-100884591D01*
X214894192Y-100935940D01*
X214895000Y-100940000D01*
X214895000Y-101740000D01*
X214894192Y-101744059D01*
X214888235Y-101795408D01*
X214880489Y-101812950D01*
X214875970Y-101835671D01*
X214859716Y-101859995D01*
X214850534Y-101880793D01*
X214836329Y-101894997D01*
X214821777Y-101916777D01*
X214799997Y-101931329D01*
X214785793Y-101945534D01*
X214764995Y-101954716D01*
X214740671Y-101970970D01*
X214717950Y-101975489D01*
X214700408Y-101983235D01*
X214649061Y-101989192D01*
X214645000Y-101990000D01*
X213395000Y-101990000D01*
X213390941Y-101989192D01*
X213339591Y-101983235D01*
X213322048Y-101975489D01*
X213299329Y-101970970D01*
X213275006Y-101954718D01*
X213254206Y-101945534D01*
X213239999Y-101931327D01*
X213218223Y-101916777D01*
X213203672Y-101895000D01*
X213189465Y-101880793D01*
X213180280Y-101859991D01*
X213164030Y-101835671D01*
X213159511Y-101812954D01*
X213151764Y-101795408D01*
X213145805Y-101744049D01*
X213145000Y-101740000D01*
X213145000Y-100940000D01*
X213145804Y-100935953D01*
X213151764Y-100884591D01*
X213159511Y-100867043D01*
X213164030Y-100844329D01*
X213180278Y-100820010D01*
X213189465Y-100799206D01*
X213203674Y-100784996D01*
X213218223Y-100763223D01*
X213239996Y-100748674D01*
X213254206Y-100734465D01*
X213275010Y-100725278D01*
X213299329Y-100709030D01*
X213322043Y-100704511D01*
X213339591Y-100696764D01*
X213390952Y-100690805D01*
X213395000Y-100690000D01*
X214645000Y-100690000D01*
X214649047Y-100690805D01*
G37*
G36*
X84742664Y-97991602D02*
G01*
X84905000Y-98063878D01*
X85048761Y-98168327D01*
X85167664Y-98300383D01*
X85256514Y-98454274D01*
X85311425Y-98623275D01*
X85330000Y-98800000D01*
X85311425Y-98976725D01*
X85256514Y-99145726D01*
X85167664Y-99299617D01*
X85048761Y-99431673D01*
X84905000Y-99536122D01*
X84742664Y-99608398D01*
X84568849Y-99645344D01*
X84391151Y-99645344D01*
X84217336Y-99608398D01*
X84055000Y-99536122D01*
X83911239Y-99431673D01*
X83792336Y-99299617D01*
X83703486Y-99145726D01*
X83648575Y-98976725D01*
X83630000Y-98800000D01*
X83648575Y-98623275D01*
X83703486Y-98454274D01*
X83792336Y-98300383D01*
X83911239Y-98168327D01*
X84055000Y-98063878D01*
X84217336Y-97991602D01*
X84391151Y-97954656D01*
X84568849Y-97954656D01*
X84742664Y-97991602D01*
G37*
G36*
X87282664Y-97991602D02*
G01*
X87445000Y-98063878D01*
X87588761Y-98168327D01*
X87707664Y-98300383D01*
X87796514Y-98454274D01*
X87851425Y-98623275D01*
X87870000Y-98800000D01*
X87851425Y-98976725D01*
X87796514Y-99145726D01*
X87707664Y-99299617D01*
X87588761Y-99431673D01*
X87445000Y-99536122D01*
X87282664Y-99608398D01*
X87108849Y-99645344D01*
X86931151Y-99645344D01*
X86757336Y-99608398D01*
X86595000Y-99536122D01*
X86451239Y-99431673D01*
X86332336Y-99299617D01*
X86243486Y-99145726D01*
X86188575Y-98976725D01*
X86170000Y-98800000D01*
X86188575Y-98623275D01*
X86243486Y-98454274D01*
X86332336Y-98300383D01*
X86451239Y-98168327D01*
X86595000Y-98063878D01*
X86757336Y-97991602D01*
X86931151Y-97954656D01*
X87108849Y-97954656D01*
X87282664Y-97991602D01*
G37*
G36*
X214649047Y-97590805D02*
G01*
X214700408Y-97596764D01*
X214717954Y-97604511D01*
X214740671Y-97609030D01*
X214764991Y-97625280D01*
X214785793Y-97634465D01*
X214800000Y-97648672D01*
X214821777Y-97663223D01*
X214836327Y-97684999D01*
X214850534Y-97699206D01*
X214859718Y-97720006D01*
X214875970Y-97744329D01*
X214880489Y-97767048D01*
X214888235Y-97784591D01*
X214894192Y-97835940D01*
X214895000Y-97840000D01*
X214895000Y-98640000D01*
X214894192Y-98644059D01*
X214888235Y-98695408D01*
X214880489Y-98712950D01*
X214875970Y-98735671D01*
X214859716Y-98759995D01*
X214850534Y-98780793D01*
X214836329Y-98794997D01*
X214821777Y-98816777D01*
X214799997Y-98831329D01*
X214785793Y-98845534D01*
X214764995Y-98854716D01*
X214740671Y-98870970D01*
X214717950Y-98875489D01*
X214700408Y-98883235D01*
X214649061Y-98889192D01*
X214645000Y-98890000D01*
X213395000Y-98890000D01*
X213390941Y-98889192D01*
X213339591Y-98883235D01*
X213322048Y-98875489D01*
X213299329Y-98870970D01*
X213275006Y-98854718D01*
X213254206Y-98845534D01*
X213239999Y-98831327D01*
X213218223Y-98816777D01*
X213203672Y-98795000D01*
X213189465Y-98780793D01*
X213180280Y-98759991D01*
X213164030Y-98735671D01*
X213159511Y-98712954D01*
X213151764Y-98695408D01*
X213145805Y-98644049D01*
X213145000Y-98640000D01*
X213145000Y-97840000D01*
X213145804Y-97835953D01*
X213151764Y-97784591D01*
X213159511Y-97767043D01*
X213164030Y-97744329D01*
X213180278Y-97720010D01*
X213189465Y-97699206D01*
X213203674Y-97684996D01*
X213218223Y-97663223D01*
X213239996Y-97648674D01*
X213254206Y-97634465D01*
X213275010Y-97625278D01*
X213299329Y-97609030D01*
X213322043Y-97604511D01*
X213339591Y-97596764D01*
X213390952Y-97590805D01*
X213395000Y-97590000D01*
X214645000Y-97590000D01*
X214649047Y-97590805D01*
G37*
G36*
X214649047Y-95610805D02*
G01*
X214700408Y-95616764D01*
X214717954Y-95624511D01*
X214740671Y-95629030D01*
X214764991Y-95645280D01*
X214785793Y-95654465D01*
X214800000Y-95668672D01*
X214821777Y-95683223D01*
X214836327Y-95704999D01*
X214850534Y-95719206D01*
X214859718Y-95740006D01*
X214875970Y-95764329D01*
X214880489Y-95787048D01*
X214888235Y-95804591D01*
X214894192Y-95855940D01*
X214895000Y-95860000D01*
X214895000Y-96660000D01*
X214894192Y-96664059D01*
X214888235Y-96715408D01*
X214880489Y-96732950D01*
X214875970Y-96755671D01*
X214859716Y-96779995D01*
X214850534Y-96800793D01*
X214836329Y-96814997D01*
X214821777Y-96836777D01*
X214799997Y-96851329D01*
X214785793Y-96865534D01*
X214764995Y-96874716D01*
X214740671Y-96890970D01*
X214717950Y-96895489D01*
X214700408Y-96903235D01*
X214649061Y-96909192D01*
X214645000Y-96910000D01*
X213395000Y-96910000D01*
X213390941Y-96909192D01*
X213339591Y-96903235D01*
X213322048Y-96895489D01*
X213299329Y-96890970D01*
X213275006Y-96874718D01*
X213254206Y-96865534D01*
X213239999Y-96851327D01*
X213218223Y-96836777D01*
X213203672Y-96815000D01*
X213189465Y-96800793D01*
X213180280Y-96779991D01*
X213164030Y-96755671D01*
X213159511Y-96732954D01*
X213151764Y-96715408D01*
X213145805Y-96664049D01*
X213145000Y-96660000D01*
X213145000Y-95860000D01*
X213145804Y-95855953D01*
X213151764Y-95804591D01*
X213159511Y-95787043D01*
X213164030Y-95764329D01*
X213180278Y-95740010D01*
X213189465Y-95719206D01*
X213203674Y-95704996D01*
X213218223Y-95683223D01*
X213239996Y-95668674D01*
X213254206Y-95654465D01*
X213275010Y-95645278D01*
X213299329Y-95629030D01*
X213322043Y-95624511D01*
X213339591Y-95616764D01*
X213390952Y-95610805D01*
X213395000Y-95610000D01*
X214645000Y-95610000D01*
X214649047Y-95610805D01*
G37*
G36*
X95366820Y-91724779D02*
G01*
X95436479Y-91724779D01*
X95512051Y-91735166D01*
X95584630Y-91740357D01*
X95644370Y-91753352D01*
X95706884Y-91761945D01*
X95786804Y-91784337D01*
X95863465Y-91801014D01*
X95915218Y-91820317D01*
X95969718Y-91835587D01*
X96052109Y-91871374D01*
X96130830Y-91900736D01*
X96174097Y-91924361D01*
X96220078Y-91944334D01*
X96302798Y-91994637D01*
X96381282Y-92037493D01*
X96415964Y-92063456D01*
X96453291Y-92086155D01*
X96534006Y-92151821D01*
X96609721Y-92208501D01*
X96636102Y-92234882D01*
X96665028Y-92258415D01*
X96741265Y-92340045D01*
X96811499Y-92410279D01*
X96830240Y-92435314D01*
X96851331Y-92457897D01*
X96920503Y-92555891D01*
X96982507Y-92638718D01*
X96994591Y-92660849D01*
X97008740Y-92680893D01*
X97068266Y-92795774D01*
X97119264Y-92889170D01*
X97125955Y-92907110D01*
X97134314Y-92923242D01*
X97181645Y-93056420D01*
X97218986Y-93156535D01*
X97221763Y-93169304D01*
X97225721Y-93180439D01*
X97258495Y-93338157D01*
X97279643Y-93435370D01*
X97280139Y-93442312D01*
X97281256Y-93447685D01*
X97297316Y-93682482D01*
X97300000Y-93720000D01*
X97297316Y-93757520D01*
X97281256Y-93992314D01*
X97280139Y-93997686D01*
X97279643Y-94004630D01*
X97258491Y-94101863D01*
X97225721Y-94259560D01*
X97221764Y-94270692D01*
X97218986Y-94283465D01*
X97181637Y-94383599D01*
X97134314Y-94516757D01*
X97125956Y-94532885D01*
X97119264Y-94550830D01*
X97068256Y-94644243D01*
X97008740Y-94759106D01*
X96994594Y-94779145D01*
X96982507Y-94801282D01*
X96920491Y-94884124D01*
X96851331Y-94982102D01*
X96830244Y-95004680D01*
X96811499Y-95029721D01*
X96741251Y-95099968D01*
X96665028Y-95181584D01*
X96636107Y-95205112D01*
X96609721Y-95231499D01*
X96533990Y-95288190D01*
X96453291Y-95353844D01*
X96415971Y-95376538D01*
X96381282Y-95402507D01*
X96302782Y-95445371D01*
X96220078Y-95495665D01*
X96174106Y-95515633D01*
X96130830Y-95539264D01*
X96052093Y-95568631D01*
X95969718Y-95604412D01*
X95915229Y-95619678D01*
X95863465Y-95638986D01*
X95786788Y-95655665D01*
X95706884Y-95678054D01*
X95644380Y-95686645D01*
X95584630Y-95699643D01*
X95512047Y-95704834D01*
X95436479Y-95715221D01*
X95366820Y-95715221D01*
X95300000Y-95720000D01*
X95233180Y-95715221D01*
X95163521Y-95715221D01*
X95087952Y-95704834D01*
X95015370Y-95699643D01*
X94955621Y-95686645D01*
X94893115Y-95678054D01*
X94813206Y-95655665D01*
X94736535Y-95638986D01*
X94684773Y-95619679D01*
X94630281Y-95604412D01*
X94547899Y-95568628D01*
X94469170Y-95539264D01*
X94425897Y-95515635D01*
X94379921Y-95495665D01*
X94297207Y-95445365D01*
X94218718Y-95402507D01*
X94184032Y-95376541D01*
X94146708Y-95353844D01*
X94065996Y-95288180D01*
X93990279Y-95231499D01*
X93963896Y-95205116D01*
X93934971Y-95181584D01*
X93858733Y-95099953D01*
X93788501Y-95029721D01*
X93769759Y-95004685D01*
X93748668Y-94982102D01*
X93679491Y-94884101D01*
X93617493Y-94801282D01*
X93605409Y-94779151D01*
X93591259Y-94759106D01*
X93531724Y-94644207D01*
X93480736Y-94550830D01*
X93474045Y-94532892D01*
X93465685Y-94516757D01*
X93418341Y-94383542D01*
X93381014Y-94283465D01*
X93378237Y-94270700D01*
X93374278Y-94259560D01*
X93341486Y-94101761D01*
X93320357Y-94004630D01*
X93319860Y-93997693D01*
X93318743Y-93992314D01*
X93302661Y-93757219D01*
X93300000Y-93720000D01*
X93302659Y-93682821D01*
X93318743Y-93447685D01*
X93319861Y-93442304D01*
X93320357Y-93435370D01*
X93341481Y-93338260D01*
X93374278Y-93180439D01*
X93378237Y-93169297D01*
X93381014Y-93156535D01*
X93418333Y-93056477D01*
X93465685Y-92923242D01*
X93474046Y-92907103D01*
X93480736Y-92889170D01*
X93531713Y-92795810D01*
X93591259Y-92680893D01*
X93605411Y-92660843D01*
X93617493Y-92638718D01*
X93679478Y-92555915D01*
X93748668Y-92457897D01*
X93769763Y-92435308D01*
X93788501Y-92410279D01*
X93858719Y-92340060D01*
X93934971Y-92258415D01*
X93963902Y-92234877D01*
X93990279Y-92208501D01*
X94065981Y-92151830D01*
X94146708Y-92086155D01*
X94184039Y-92063452D01*
X94218718Y-92037493D01*
X94297191Y-91994643D01*
X94379921Y-91944334D01*
X94425906Y-91924359D01*
X94469170Y-91900736D01*
X94547883Y-91871377D01*
X94630281Y-91835587D01*
X94684784Y-91820316D01*
X94736535Y-91801014D01*
X94813190Y-91784338D01*
X94893115Y-91761945D01*
X94955630Y-91753352D01*
X95015370Y-91740357D01*
X95087947Y-91735166D01*
X95163521Y-91724779D01*
X95233180Y-91724779D01*
X95300000Y-91720000D01*
X95366820Y-91724779D01*
G37*
G36*
X102986820Y-91724779D02*
G01*
X103056479Y-91724779D01*
X103132051Y-91735166D01*
X103204630Y-91740357D01*
X103264370Y-91753352D01*
X103326884Y-91761945D01*
X103406804Y-91784337D01*
X103483465Y-91801014D01*
X103535218Y-91820317D01*
X103589718Y-91835587D01*
X103672109Y-91871374D01*
X103750830Y-91900736D01*
X103794097Y-91924361D01*
X103840078Y-91944334D01*
X103922798Y-91994637D01*
X104001282Y-92037493D01*
X104035964Y-92063456D01*
X104073291Y-92086155D01*
X104154006Y-92151821D01*
X104229721Y-92208501D01*
X104256102Y-92234882D01*
X104285028Y-92258415D01*
X104361265Y-92340045D01*
X104431499Y-92410279D01*
X104450240Y-92435314D01*
X104471331Y-92457897D01*
X104540503Y-92555891D01*
X104602507Y-92638718D01*
X104614591Y-92660849D01*
X104628740Y-92680893D01*
X104688266Y-92795774D01*
X104739264Y-92889170D01*
X104745955Y-92907110D01*
X104754314Y-92923242D01*
X104801645Y-93056420D01*
X104838986Y-93156535D01*
X104841763Y-93169304D01*
X104845721Y-93180439D01*
X104878495Y-93338157D01*
X104899643Y-93435370D01*
X104900139Y-93442312D01*
X104901256Y-93447685D01*
X104917318Y-93682501D01*
X104920000Y-93720000D01*
X104917315Y-93757539D01*
X104901256Y-93992314D01*
X104900139Y-93997686D01*
X104899643Y-94004630D01*
X104878491Y-94101863D01*
X104845721Y-94259560D01*
X104841764Y-94270692D01*
X104838986Y-94283465D01*
X104801637Y-94383599D01*
X104754314Y-94516757D01*
X104745956Y-94532885D01*
X104739264Y-94550830D01*
X104688256Y-94644243D01*
X104628740Y-94759106D01*
X104614594Y-94779145D01*
X104602507Y-94801282D01*
X104540491Y-94884124D01*
X104471331Y-94982102D01*
X104450244Y-95004680D01*
X104431499Y-95029721D01*
X104361251Y-95099968D01*
X104285028Y-95181584D01*
X104256107Y-95205112D01*
X104229721Y-95231499D01*
X104153990Y-95288190D01*
X104073291Y-95353844D01*
X104035971Y-95376538D01*
X104001282Y-95402507D01*
X103922782Y-95445371D01*
X103840078Y-95495665D01*
X103794106Y-95515633D01*
X103750830Y-95539264D01*
X103672093Y-95568631D01*
X103589718Y-95604412D01*
X103535229Y-95619678D01*
X103483465Y-95638986D01*
X103406788Y-95655665D01*
X103326884Y-95678054D01*
X103264380Y-95686645D01*
X103204630Y-95699643D01*
X103132047Y-95704834D01*
X103056479Y-95715221D01*
X102986820Y-95715221D01*
X102920000Y-95720000D01*
X102853180Y-95715221D01*
X102783521Y-95715221D01*
X102707952Y-95704834D01*
X102635370Y-95699643D01*
X102575621Y-95686645D01*
X102513115Y-95678054D01*
X102433206Y-95655665D01*
X102356535Y-95638986D01*
X102304773Y-95619679D01*
X102250281Y-95604412D01*
X102167899Y-95568628D01*
X102089170Y-95539264D01*
X102045897Y-95515635D01*
X101999921Y-95495665D01*
X101917207Y-95445365D01*
X101838718Y-95402507D01*
X101804032Y-95376541D01*
X101766708Y-95353844D01*
X101685996Y-95288180D01*
X101610279Y-95231499D01*
X101583896Y-95205116D01*
X101554971Y-95181584D01*
X101478733Y-95099953D01*
X101408501Y-95029721D01*
X101389759Y-95004685D01*
X101368668Y-94982102D01*
X101299491Y-94884101D01*
X101237493Y-94801282D01*
X101225409Y-94779151D01*
X101211259Y-94759106D01*
X101151724Y-94644207D01*
X101100736Y-94550830D01*
X101094045Y-94532892D01*
X101085685Y-94516757D01*
X101038341Y-94383542D01*
X101001014Y-94283465D01*
X100998237Y-94270700D01*
X100994278Y-94259560D01*
X100961486Y-94101761D01*
X100940357Y-94004630D01*
X100939860Y-93997693D01*
X100938743Y-93992314D01*
X100922661Y-93757219D01*
X100920000Y-93720000D01*
X100922659Y-93682821D01*
X100938743Y-93447685D01*
X100939861Y-93442304D01*
X100940357Y-93435370D01*
X100961481Y-93338260D01*
X100994278Y-93180439D01*
X100998237Y-93169297D01*
X101001014Y-93156535D01*
X101038333Y-93056477D01*
X101085685Y-92923242D01*
X101094046Y-92907103D01*
X101100736Y-92889170D01*
X101151713Y-92795810D01*
X101211259Y-92680893D01*
X101225411Y-92660843D01*
X101237493Y-92638718D01*
X101299478Y-92555915D01*
X101368668Y-92457897D01*
X101389763Y-92435308D01*
X101408501Y-92410279D01*
X101478719Y-92340060D01*
X101554971Y-92258415D01*
X101583902Y-92234877D01*
X101610279Y-92208501D01*
X101685981Y-92151830D01*
X101766708Y-92086155D01*
X101804039Y-92063452D01*
X101838718Y-92037493D01*
X101917191Y-91994643D01*
X101999921Y-91944334D01*
X102045906Y-91924359D01*
X102089170Y-91900736D01*
X102167883Y-91871377D01*
X102250281Y-91835587D01*
X102304784Y-91820316D01*
X102356535Y-91801014D01*
X102433190Y-91784338D01*
X102513115Y-91761945D01*
X102575630Y-91753352D01*
X102635370Y-91740357D01*
X102707947Y-91735166D01*
X102783521Y-91724779D01*
X102853180Y-91724779D01*
X102920000Y-91720000D01*
X102986820Y-91724779D01*
G37*
G36*
X200300000Y-95720000D02*
G01*
X196300000Y-95720000D01*
X196300000Y-91720000D01*
X200300000Y-91720000D01*
X200300000Y-95720000D01*
G37*
G36*
X207920000Y-95720000D02*
G01*
X203920000Y-95720000D01*
X203920000Y-91720000D01*
X207920000Y-91720000D01*
X207920000Y-95720000D01*
G37*
G36*
X76944866Y-87984766D02*
G01*
X77033239Y-87984766D01*
X77127593Y-87995027D01*
X77218286Y-88000121D01*
X77296297Y-88013375D01*
X77377692Y-88022228D01*
X77476827Y-88044049D01*
X77572067Y-88060231D01*
X77642406Y-88080495D01*
X77716067Y-88096709D01*
X77818574Y-88131248D01*
X77916893Y-88159573D01*
X77979045Y-88185317D01*
X78044417Y-88207344D01*
X78148715Y-88255597D01*
X78248428Y-88296900D01*
X78302068Y-88326546D01*
X78358874Y-88352827D01*
X78463243Y-88415624D01*
X78562503Y-88470483D01*
X78607599Y-88502480D01*
X78655755Y-88531455D01*
X78758321Y-88609423D01*
X78855167Y-88678139D01*
X78891908Y-88710972D01*
X78931590Y-88741138D01*
X79030412Y-88834747D01*
X79122742Y-88917258D01*
X79151553Y-88949498D01*
X79183131Y-88979410D01*
X79276173Y-89088948D01*
X79361861Y-89184833D01*
X79383383Y-89215166D01*
X79407436Y-89243483D01*
X79492634Y-89369140D01*
X79569517Y-89477497D01*
X79584576Y-89504745D01*
X79601880Y-89530266D01*
X79677197Y-89672329D01*
X79743100Y-89791572D01*
X79752691Y-89814727D01*
X79764174Y-89836386D01*
X79827585Y-89995536D01*
X79880427Y-90123107D01*
X79885682Y-90141350D01*
X79892419Y-90158257D01*
X79942018Y-90336896D01*
X79979769Y-90467933D01*
X79981926Y-90480633D01*
X79985115Y-90492116D01*
X80019106Y-90699457D01*
X80039879Y-90821714D01*
X80040259Y-90828481D01*
X80041167Y-90834020D01*
X80057856Y-91141838D01*
X80060000Y-91180000D01*
X80057856Y-91218164D01*
X80041167Y-91525979D01*
X80040259Y-91531516D01*
X80039879Y-91538286D01*
X80019102Y-91660569D01*
X79985115Y-91867883D01*
X79981927Y-91879363D01*
X79979769Y-91892067D01*
X79942010Y-92023130D01*
X79892419Y-92201742D01*
X79885683Y-92218646D01*
X79880427Y-92236893D01*
X79827574Y-92364489D01*
X79764174Y-92523613D01*
X79752693Y-92545268D01*
X79743100Y-92568428D01*
X79677184Y-92687694D01*
X79601880Y-92829733D01*
X79584579Y-92855248D01*
X79569517Y-92882503D01*
X79492618Y-92990880D01*
X79407436Y-93116516D01*
X79383387Y-93144827D01*
X79361861Y-93175167D01*
X79276156Y-93271071D01*
X79183131Y-93380589D01*
X79151559Y-93410494D01*
X79122742Y-93442742D01*
X79030393Y-93525269D01*
X78931590Y-93618861D01*
X78891915Y-93649020D01*
X78855167Y-93681861D01*
X78758301Y-93750590D01*
X78655755Y-93828544D01*
X78607609Y-93857512D01*
X78562503Y-93889517D01*
X78463222Y-93944387D01*
X78358874Y-94007172D01*
X78302079Y-94033447D01*
X78248428Y-94063100D01*
X78148694Y-94104411D01*
X78044417Y-94152655D01*
X77979058Y-94174676D01*
X77916893Y-94200427D01*
X77818554Y-94228757D01*
X77716067Y-94263290D01*
X77642420Y-94279500D01*
X77572067Y-94299769D01*
X77476807Y-94315954D01*
X77377692Y-94337771D01*
X77296309Y-94346622D01*
X77218286Y-94359879D01*
X77127588Y-94364972D01*
X77033239Y-94375234D01*
X76944866Y-94375234D01*
X76860000Y-94380000D01*
X76775134Y-94375234D01*
X76686761Y-94375234D01*
X76592411Y-94364972D01*
X76501714Y-94359879D01*
X76423691Y-94346622D01*
X76342307Y-94337771D01*
X76243187Y-94315953D01*
X76147933Y-94299769D01*
X76077582Y-94279501D01*
X76003932Y-94263290D01*
X75901438Y-94228755D01*
X75803107Y-94200427D01*
X75740945Y-94174678D01*
X75675582Y-94152655D01*
X75571295Y-94104407D01*
X75471572Y-94063100D01*
X75417925Y-94033450D01*
X75361125Y-94007172D01*
X75256764Y-93944380D01*
X75157497Y-93889517D01*
X75112396Y-93857516D01*
X75064244Y-93828544D01*
X74961683Y-93750580D01*
X74864833Y-93681861D01*
X74828089Y-93649025D01*
X74788409Y-93618861D01*
X74689588Y-93525253D01*
X74597258Y-93442742D01*
X74568445Y-93410501D01*
X74536868Y-93380589D01*
X74443823Y-93271048D01*
X74358139Y-93175167D01*
X74336617Y-93144835D01*
X74312563Y-93116516D01*
X74227358Y-92990849D01*
X74150483Y-92882503D01*
X74135424Y-92855256D01*
X74118119Y-92829733D01*
X74042791Y-92687649D01*
X73976900Y-92568428D01*
X73967310Y-92545277D01*
X73955825Y-92523613D01*
X73892399Y-92364425D01*
X73839573Y-92236893D01*
X73834318Y-92218655D01*
X73827580Y-92201742D01*
X73777961Y-92023034D01*
X73740231Y-91892067D01*
X73738074Y-91879372D01*
X73734884Y-91867883D01*
X73700869Y-91660401D01*
X73680121Y-91538286D01*
X73679741Y-91531525D01*
X73678832Y-91525979D01*
X73662114Y-91217648D01*
X73660000Y-91180000D01*
X73662114Y-91142354D01*
X73678832Y-90834020D01*
X73679741Y-90828472D01*
X73680121Y-90821714D01*
X73700864Y-90699625D01*
X73734884Y-90492116D01*
X73738074Y-90480624D01*
X73740231Y-90467933D01*
X73777954Y-90336992D01*
X73827580Y-90158257D01*
X73834319Y-90141341D01*
X73839573Y-90123107D01*
X73892388Y-89995599D01*
X73955825Y-89836386D01*
X73967312Y-89814718D01*
X73976900Y-89791572D01*
X74042778Y-89672373D01*
X74118119Y-89530266D01*
X74135427Y-89504737D01*
X74150483Y-89477497D01*
X74227343Y-89369172D01*
X74312563Y-89243483D01*
X74336621Y-89215158D01*
X74358139Y-89184833D01*
X74443806Y-89088970D01*
X74536868Y-88979410D01*
X74568451Y-88949492D01*
X74597258Y-88917258D01*
X74689569Y-88834763D01*
X74788409Y-88741138D01*
X74828097Y-88710967D01*
X74864833Y-88678139D01*
X74961663Y-88609433D01*
X75064244Y-88531455D01*
X75112405Y-88502477D01*
X75157497Y-88470483D01*
X75256744Y-88415630D01*
X75361125Y-88352827D01*
X75417936Y-88326543D01*
X75471572Y-88296900D01*
X75571275Y-88255601D01*
X75675582Y-88207344D01*
X75740958Y-88185315D01*
X75803107Y-88159573D01*
X75901418Y-88131250D01*
X76003932Y-88096709D01*
X76077596Y-88080494D01*
X76147933Y-88060231D01*
X76243167Y-88044049D01*
X76342307Y-88022228D01*
X76423704Y-88013375D01*
X76501714Y-88000121D01*
X76592406Y-87995027D01*
X76686761Y-87984766D01*
X76775134Y-87984766D01*
X76860000Y-87980000D01*
X76944866Y-87984766D01*
G37*
G36*
X224264866Y-87984766D02*
G01*
X224353239Y-87984766D01*
X224447593Y-87995027D01*
X224538286Y-88000121D01*
X224616297Y-88013375D01*
X224697692Y-88022228D01*
X224796827Y-88044049D01*
X224892067Y-88060231D01*
X224962406Y-88080495D01*
X225036067Y-88096709D01*
X225138574Y-88131248D01*
X225236893Y-88159573D01*
X225299045Y-88185317D01*
X225364417Y-88207344D01*
X225468715Y-88255597D01*
X225568428Y-88296900D01*
X225622068Y-88326546D01*
X225678874Y-88352827D01*
X225783243Y-88415624D01*
X225882503Y-88470483D01*
X225927599Y-88502480D01*
X225975755Y-88531455D01*
X226078321Y-88609423D01*
X226175167Y-88678139D01*
X226211908Y-88710972D01*
X226251590Y-88741138D01*
X226350412Y-88834747D01*
X226442742Y-88917258D01*
X226471553Y-88949498D01*
X226503131Y-88979410D01*
X226596173Y-89088948D01*
X226681861Y-89184833D01*
X226703383Y-89215166D01*
X226727436Y-89243483D01*
X226812634Y-89369140D01*
X226889517Y-89477497D01*
X226904576Y-89504745D01*
X226921880Y-89530266D01*
X226997197Y-89672329D01*
X227063100Y-89791572D01*
X227072691Y-89814727D01*
X227084174Y-89836386D01*
X227147585Y-89995536D01*
X227200427Y-90123107D01*
X227205682Y-90141350D01*
X227212419Y-90158257D01*
X227262018Y-90336896D01*
X227299769Y-90467933D01*
X227301926Y-90480633D01*
X227305115Y-90492116D01*
X227339106Y-90699457D01*
X227359879Y-90821714D01*
X227360259Y-90828481D01*
X227361167Y-90834020D01*
X227377856Y-91141838D01*
X227380000Y-91180000D01*
X227377856Y-91218164D01*
X227361167Y-91525979D01*
X227360259Y-91531516D01*
X227359879Y-91538286D01*
X227339102Y-91660569D01*
X227305115Y-91867883D01*
X227301927Y-91879363D01*
X227299769Y-91892067D01*
X227262010Y-92023130D01*
X227212419Y-92201742D01*
X227205683Y-92218646D01*
X227200427Y-92236893D01*
X227147574Y-92364489D01*
X227084174Y-92523613D01*
X227072693Y-92545268D01*
X227063100Y-92568428D01*
X226997184Y-92687694D01*
X226921880Y-92829733D01*
X226904579Y-92855248D01*
X226889517Y-92882503D01*
X226812618Y-92990880D01*
X226727436Y-93116516D01*
X226703387Y-93144827D01*
X226681861Y-93175167D01*
X226596156Y-93271071D01*
X226503131Y-93380589D01*
X226471559Y-93410494D01*
X226442742Y-93442742D01*
X226350393Y-93525269D01*
X226251590Y-93618861D01*
X226211915Y-93649020D01*
X226175167Y-93681861D01*
X226078301Y-93750590D01*
X225975755Y-93828544D01*
X225927609Y-93857512D01*
X225882503Y-93889517D01*
X225783222Y-93944387D01*
X225678874Y-94007172D01*
X225622079Y-94033447D01*
X225568428Y-94063100D01*
X225468694Y-94104411D01*
X225364417Y-94152655D01*
X225299058Y-94174676D01*
X225236893Y-94200427D01*
X225138554Y-94228757D01*
X225036067Y-94263290D01*
X224962420Y-94279500D01*
X224892067Y-94299769D01*
X224796807Y-94315954D01*
X224697692Y-94337771D01*
X224616309Y-94346622D01*
X224538286Y-94359879D01*
X224447588Y-94364972D01*
X224353239Y-94375234D01*
X224264866Y-94375234D01*
X224180000Y-94380000D01*
X224095134Y-94375234D01*
X224006761Y-94375234D01*
X223912411Y-94364972D01*
X223821714Y-94359879D01*
X223743691Y-94346622D01*
X223662307Y-94337771D01*
X223563187Y-94315953D01*
X223467933Y-94299769D01*
X223397582Y-94279501D01*
X223323932Y-94263290D01*
X223221438Y-94228755D01*
X223123107Y-94200427D01*
X223060945Y-94174678D01*
X222995582Y-94152655D01*
X222891295Y-94104407D01*
X222791572Y-94063100D01*
X222737925Y-94033450D01*
X222681125Y-94007172D01*
X222576764Y-93944380D01*
X222477497Y-93889517D01*
X222432396Y-93857516D01*
X222384244Y-93828544D01*
X222281683Y-93750580D01*
X222184833Y-93681861D01*
X222148089Y-93649025D01*
X222108409Y-93618861D01*
X222009588Y-93525253D01*
X221917258Y-93442742D01*
X221888445Y-93410501D01*
X221856868Y-93380589D01*
X221763823Y-93271048D01*
X221678139Y-93175167D01*
X221656617Y-93144835D01*
X221632563Y-93116516D01*
X221547358Y-92990849D01*
X221470483Y-92882503D01*
X221455424Y-92855256D01*
X221438119Y-92829733D01*
X221362791Y-92687649D01*
X221296900Y-92568428D01*
X221287310Y-92545277D01*
X221275825Y-92523613D01*
X221212399Y-92364425D01*
X221159573Y-92236893D01*
X221154318Y-92218655D01*
X221147580Y-92201742D01*
X221097961Y-92023034D01*
X221060231Y-91892067D01*
X221058074Y-91879372D01*
X221054884Y-91867883D01*
X221020869Y-91660401D01*
X221000121Y-91538286D01*
X220999741Y-91531525D01*
X220998832Y-91525979D01*
X220982114Y-91217648D01*
X220980000Y-91180000D01*
X220982114Y-91142354D01*
X220998832Y-90834020D01*
X220999741Y-90828472D01*
X221000121Y-90821714D01*
X221020864Y-90699625D01*
X221054884Y-90492116D01*
X221058074Y-90480624D01*
X221060231Y-90467933D01*
X221097954Y-90336992D01*
X221147580Y-90158257D01*
X221154319Y-90141341D01*
X221159573Y-90123107D01*
X221212388Y-89995599D01*
X221275825Y-89836386D01*
X221287312Y-89814718D01*
X221296900Y-89791572D01*
X221362778Y-89672373D01*
X221438119Y-89530266D01*
X221455427Y-89504737D01*
X221470483Y-89477497D01*
X221547343Y-89369172D01*
X221632563Y-89243483D01*
X221656621Y-89215158D01*
X221678139Y-89184833D01*
X221763806Y-89088970D01*
X221856868Y-88979410D01*
X221888451Y-88949492D01*
X221917258Y-88917258D01*
X222009569Y-88834763D01*
X222108409Y-88741138D01*
X222148097Y-88710967D01*
X222184833Y-88678139D01*
X222281663Y-88609433D01*
X222384244Y-88531455D01*
X222432405Y-88502477D01*
X222477497Y-88470483D01*
X222576744Y-88415630D01*
X222681125Y-88352827D01*
X222737936Y-88326543D01*
X222791572Y-88296900D01*
X222891275Y-88255601D01*
X222995582Y-88207344D01*
X223060958Y-88185315D01*
X223123107Y-88159573D01*
X223221418Y-88131250D01*
X223323932Y-88096709D01*
X223397596Y-88080494D01*
X223467933Y-88060231D01*
X223563167Y-88044049D01*
X223662307Y-88022228D01*
X223743704Y-88013375D01*
X223821714Y-88000121D01*
X223912406Y-87995027D01*
X224006761Y-87984766D01*
X224095134Y-87984766D01*
X224180000Y-87980000D01*
X224264866Y-87984766D01*
G37*
G36*
X214649047Y-92510805D02*
G01*
X214700408Y-92516764D01*
X214717954Y-92524511D01*
X214740671Y-92529030D01*
X214764991Y-92545280D01*
X214785793Y-92554465D01*
X214800000Y-92568672D01*
X214821777Y-92583223D01*
X214836327Y-92604999D01*
X214850534Y-92619206D01*
X214859718Y-92640006D01*
X214875970Y-92664329D01*
X214880489Y-92687048D01*
X214888235Y-92704591D01*
X214894192Y-92755940D01*
X214895000Y-92760000D01*
X214895000Y-93560000D01*
X214894192Y-93564059D01*
X214888235Y-93615408D01*
X214880489Y-93632950D01*
X214875970Y-93655671D01*
X214859716Y-93679995D01*
X214850534Y-93700793D01*
X214836329Y-93714997D01*
X214821777Y-93736777D01*
X214799997Y-93751329D01*
X214785793Y-93765534D01*
X214764995Y-93774716D01*
X214740671Y-93790970D01*
X214717950Y-93795489D01*
X214700408Y-93803235D01*
X214649061Y-93809192D01*
X214645000Y-93810000D01*
X213395000Y-93810000D01*
X213390941Y-93809192D01*
X213339591Y-93803235D01*
X213322048Y-93795489D01*
X213299329Y-93790970D01*
X213275006Y-93774718D01*
X213254206Y-93765534D01*
X213239999Y-93751327D01*
X213218223Y-93736777D01*
X213203672Y-93715000D01*
X213189465Y-93700793D01*
X213180280Y-93679991D01*
X213164030Y-93655671D01*
X213159511Y-93632954D01*
X213151764Y-93615408D01*
X213145805Y-93564049D01*
X213145000Y-93560000D01*
X213145000Y-92760000D01*
X213145804Y-92755953D01*
X213151764Y-92704591D01*
X213159511Y-92687043D01*
X213164030Y-92664329D01*
X213180278Y-92640010D01*
X213189465Y-92619206D01*
X213203674Y-92604996D01*
X213218223Y-92583223D01*
X213239996Y-92568674D01*
X213254206Y-92554465D01*
X213275010Y-92545278D01*
X213299329Y-92529030D01*
X213322043Y-92524511D01*
X213339591Y-92516764D01*
X213390952Y-92510805D01*
X213395000Y-92510000D01*
X214645000Y-92510000D01*
X214649047Y-92510805D01*
G37*
G36*
X84884047Y-90305805D02*
G01*
X84935408Y-90311764D01*
X84952954Y-90319511D01*
X84975671Y-90324030D01*
X84999991Y-90340280D01*
X85020793Y-90349465D01*
X85035000Y-90363672D01*
X85056777Y-90378223D01*
X85071327Y-90399999D01*
X85085534Y-90414206D01*
X85094718Y-90435006D01*
X85110970Y-90459329D01*
X85115489Y-90482048D01*
X85123235Y-90499591D01*
X85129192Y-90550940D01*
X85130000Y-90555000D01*
X85130000Y-91805000D01*
X85129192Y-91809059D01*
X85123235Y-91860408D01*
X85115489Y-91877950D01*
X85110970Y-91900671D01*
X85094716Y-91924995D01*
X85085534Y-91945793D01*
X85071329Y-91959997D01*
X85056777Y-91981777D01*
X85034997Y-91996329D01*
X85020793Y-92010534D01*
X84999995Y-92019716D01*
X84975671Y-92035970D01*
X84952950Y-92040489D01*
X84935408Y-92048235D01*
X84884061Y-92054192D01*
X84880000Y-92055000D01*
X84080000Y-92055000D01*
X84075941Y-92054192D01*
X84024591Y-92048235D01*
X84007048Y-92040489D01*
X83984329Y-92035970D01*
X83960006Y-92019718D01*
X83939206Y-92010534D01*
X83924999Y-91996327D01*
X83903223Y-91981777D01*
X83888672Y-91960000D01*
X83874465Y-91945793D01*
X83865280Y-91924991D01*
X83849030Y-91900671D01*
X83844511Y-91877954D01*
X83836764Y-91860408D01*
X83830805Y-91809049D01*
X83830000Y-91805000D01*
X83830000Y-90555000D01*
X83830804Y-90550953D01*
X83836764Y-90499591D01*
X83844511Y-90482043D01*
X83849030Y-90459329D01*
X83865278Y-90435010D01*
X83874465Y-90414206D01*
X83888674Y-90399996D01*
X83903223Y-90378223D01*
X83924996Y-90363674D01*
X83939206Y-90349465D01*
X83960010Y-90340278D01*
X83984329Y-90324030D01*
X84007043Y-90319511D01*
X84024591Y-90311764D01*
X84075952Y-90305805D01*
X84080000Y-90305000D01*
X84880000Y-90305000D01*
X84884047Y-90305805D01*
G37*
G36*
X87984047Y-90305805D02*
G01*
X88035408Y-90311764D01*
X88052954Y-90319511D01*
X88075671Y-90324030D01*
X88099991Y-90340280D01*
X88120793Y-90349465D01*
X88135000Y-90363672D01*
X88156777Y-90378223D01*
X88171327Y-90399999D01*
X88185534Y-90414206D01*
X88194718Y-90435006D01*
X88210970Y-90459329D01*
X88215489Y-90482048D01*
X88223235Y-90499591D01*
X88229192Y-90550940D01*
X88230000Y-90555000D01*
X88230000Y-91805000D01*
X88229192Y-91809059D01*
X88223235Y-91860408D01*
X88215489Y-91877950D01*
X88210970Y-91900671D01*
X88194716Y-91924995D01*
X88185534Y-91945793D01*
X88171329Y-91959997D01*
X88156777Y-91981777D01*
X88134997Y-91996329D01*
X88120793Y-92010534D01*
X88099995Y-92019716D01*
X88075671Y-92035970D01*
X88052950Y-92040489D01*
X88035408Y-92048235D01*
X87984061Y-92054192D01*
X87980000Y-92055000D01*
X87180000Y-92055000D01*
X87175941Y-92054192D01*
X87124591Y-92048235D01*
X87107048Y-92040489D01*
X87084329Y-92035970D01*
X87060006Y-92019718D01*
X87039206Y-92010534D01*
X87024999Y-91996327D01*
X87003223Y-91981777D01*
X86988672Y-91960000D01*
X86974465Y-91945793D01*
X86965280Y-91924991D01*
X86949030Y-91900671D01*
X86944511Y-91877954D01*
X86936764Y-91860408D01*
X86930805Y-91809049D01*
X86930000Y-91805000D01*
X86930000Y-90555000D01*
X86930804Y-90550953D01*
X86936764Y-90499591D01*
X86944511Y-90482043D01*
X86949030Y-90459329D01*
X86965278Y-90435010D01*
X86974465Y-90414206D01*
X86988674Y-90399996D01*
X87003223Y-90378223D01*
X87024996Y-90363674D01*
X87039206Y-90349465D01*
X87060010Y-90340278D01*
X87084329Y-90324030D01*
X87107043Y-90319511D01*
X87124591Y-90311764D01*
X87175952Y-90305805D01*
X87180000Y-90305000D01*
X87980000Y-90305000D01*
X87984047Y-90305805D01*
G37*
M02*
