M48
; DRILL file {KiCad 7.0.7-7.0.7~ubuntu22.04.1} date Do 21 Sep 2023 17:02:42 CEST
; FORMAT={-:-/ absolute / metric / decimal}
; #@! TF.CreationDate,2023-09-21T17:02:42+02:00
; #@! TF.GenerationSoftware,Kicad,Pcbnew,7.0.7-7.0.7~ubuntu22.04.1
; #@! TF.FileFunction,Plated,1,2,PTH
FMAT,2
METRIC
; #@! TA.AperFunction,Plated,PTH,ViaDrill
T1C0.300
; #@! TA.AperFunction,Plated,PTH,ComponentDrill
T2C1.000
; #@! TA.AperFunction,Plated,PTH,ComponentDrill
T3C1.800
; #@! TA.AperFunction,Plated,PTH,ComponentDrill
T4C3.200
%
G90
G05
T1
X74.32Y-98.8
X74.32Y-101.34
X74.32Y-103.88
X76.86Y-98.8
X76.86Y-101.34
X76.86Y-103.88
X81.94Y-88.64
X81.94Y-93.72
X81.94Y-108.96
X81.94Y-114.04
X84.48Y-88.64
X84.48Y-114.04
X87.02Y-88.64
X87.02Y-114.04
X89.56Y-111.5
X89.56Y-114.04
X92.1Y-114.04
X94.64Y-103.88
X94.64Y-114.04
X97.18Y-103.88
X97.18Y-106.42
X107.24Y-111.5
X110.8Y-103.88
X115.34Y-105.64
X118.34Y-111.5
X120.04Y-103.88
X120.04Y-106.42
X120.04Y-108.96
X120.04Y-111.5
X122.58Y-103.88
X122.58Y-106.42
X122.58Y-108.96
X122.58Y-111.5
X127.66Y-103.88
X127.66Y-106.42
X127.66Y-108.96
X127.66Y-111.5
X130.2Y-106.42
X130.2Y-111.5
X132.74Y-106.42
X132.74Y-111.5
X135.28Y-108.96
X135.28Y-111.5
X137.82Y-111.5
X140.36Y-103.88
X140.36Y-111.5
X142.9Y-111.5
X154.623Y-103.88
X154.623Y-108.96
X154.64Y-106.42
X157.57Y-106.42
X157.58Y-103.88
X163.98Y-103.88
X164.28Y-110.811
X165.78Y-110.811
X167.28Y-110.811
X168.78Y-110.811
X171.317Y-114.481
X172.817Y-114.481
X174.317Y-114.481
X175.817Y-114.481
X198.78Y-114.04
T2
X84.48Y-98.8
X84.48Y-101.34
X84.48Y-103.88
X87.02Y-98.8
X87.02Y-101.34
X87.02Y-103.88
T3
X95.3Y-93.72
X102.92Y-93.72
X198.3Y-93.72
X205.92Y-93.72
T4
X76.86Y-91.18
X76.86Y-111.5
X224.18Y-91.18
X224.18Y-111.5
T0
M30
