G04 #@! TF.GenerationSoftware,KiCad,Pcbnew,7.0.9-7.0.9~ubuntu22.04.1*
G04 #@! TF.CreationDate,2023-12-30T14:19:54+01:00*
G04 #@! TF.ProjectId,Geiger Tube Driver,47656967-6572-4205-9475-626520447269,1.1*
G04 #@! TF.SameCoordinates,Original*
G04 #@! TF.FileFunction,Soldermask,Bot*
G04 #@! TF.FilePolarity,Negative*
%FSLAX46Y46*%
G04 Gerber Fmt 4.6, Leading zero omitted, Abs format (unit mm)*
G04 Created by KiCad (PCBNEW 7.0.9-7.0.9~ubuntu22.04.1) date 2023-12-30 14:19:54*
%MOMM*%
%LPD*%
G01*
G04 APERTURE LIST*
G04 APERTURE END LIST*
G36*
X76854866Y-108394766D02*
G01*
X76943239Y-108394766D01*
X77037593Y-108405027D01*
X77128286Y-108410121D01*
X77206297Y-108423375D01*
X77287692Y-108432228D01*
X77386827Y-108454049D01*
X77482067Y-108470231D01*
X77552406Y-108490495D01*
X77626067Y-108506709D01*
X77728574Y-108541248D01*
X77826893Y-108569573D01*
X77889045Y-108595317D01*
X77954417Y-108617344D01*
X78058715Y-108665597D01*
X78158428Y-108706900D01*
X78212068Y-108736546D01*
X78268874Y-108762827D01*
X78373243Y-108825624D01*
X78472503Y-108880483D01*
X78517599Y-108912480D01*
X78565755Y-108941455D01*
X78668321Y-109019423D01*
X78765167Y-109088139D01*
X78801908Y-109120972D01*
X78841590Y-109151138D01*
X78940412Y-109244747D01*
X79032742Y-109327258D01*
X79061553Y-109359498D01*
X79093131Y-109389410D01*
X79186173Y-109498948D01*
X79271861Y-109594833D01*
X79293383Y-109625166D01*
X79317436Y-109653483D01*
X79402634Y-109779140D01*
X79479517Y-109887497D01*
X79494576Y-109914745D01*
X79511880Y-109940266D01*
X79587197Y-110082329D01*
X79653100Y-110201572D01*
X79662691Y-110224727D01*
X79674174Y-110246386D01*
X79737585Y-110405536D01*
X79790427Y-110533107D01*
X79795682Y-110551350D01*
X79802419Y-110568257D01*
X79852018Y-110746896D01*
X79889769Y-110877933D01*
X79891926Y-110890633D01*
X79895115Y-110902116D01*
X79929106Y-111109457D01*
X79949879Y-111231714D01*
X79950259Y-111238481D01*
X79951167Y-111244020D01*
X79967856Y-111551838D01*
X79970000Y-111590000D01*
X79967856Y-111628164D01*
X79951167Y-111935979D01*
X79950259Y-111941516D01*
X79949879Y-111948286D01*
X79929102Y-112070569D01*
X79895115Y-112277883D01*
X79891927Y-112289363D01*
X79889769Y-112302067D01*
X79852010Y-112433130D01*
X79802419Y-112611742D01*
X79795683Y-112628646D01*
X79790427Y-112646893D01*
X79737574Y-112774489D01*
X79674174Y-112933613D01*
X79662693Y-112955268D01*
X79653100Y-112978428D01*
X79587184Y-113097694D01*
X79511880Y-113239733D01*
X79494579Y-113265248D01*
X79479517Y-113292503D01*
X79402618Y-113400880D01*
X79317436Y-113526516D01*
X79293387Y-113554827D01*
X79271861Y-113585167D01*
X79186156Y-113681071D01*
X79093131Y-113790589D01*
X79061559Y-113820494D01*
X79032742Y-113852742D01*
X78940393Y-113935269D01*
X78841590Y-114028861D01*
X78801915Y-114059020D01*
X78765167Y-114091861D01*
X78668301Y-114160590D01*
X78565755Y-114238544D01*
X78517609Y-114267512D01*
X78472503Y-114299517D01*
X78373222Y-114354387D01*
X78268874Y-114417172D01*
X78212079Y-114443447D01*
X78158428Y-114473100D01*
X78058694Y-114514411D01*
X77954417Y-114562655D01*
X77889058Y-114584676D01*
X77826893Y-114610427D01*
X77728554Y-114638757D01*
X77626067Y-114673290D01*
X77552420Y-114689500D01*
X77482067Y-114709769D01*
X77386807Y-114725954D01*
X77287692Y-114747771D01*
X77206309Y-114756622D01*
X77128286Y-114769879D01*
X77037588Y-114774972D01*
X76943239Y-114785234D01*
X76854866Y-114785234D01*
X76770000Y-114790000D01*
X76685134Y-114785234D01*
X76596761Y-114785234D01*
X76502411Y-114774972D01*
X76411714Y-114769879D01*
X76333691Y-114756622D01*
X76252307Y-114747771D01*
X76153187Y-114725953D01*
X76057933Y-114709769D01*
X75987582Y-114689501D01*
X75913932Y-114673290D01*
X75811438Y-114638755D01*
X75713107Y-114610427D01*
X75650945Y-114584678D01*
X75585582Y-114562655D01*
X75481295Y-114514407D01*
X75381572Y-114473100D01*
X75327925Y-114443450D01*
X75271125Y-114417172D01*
X75166764Y-114354380D01*
X75067497Y-114299517D01*
X75022396Y-114267516D01*
X74974244Y-114238544D01*
X74871683Y-114160580D01*
X74774833Y-114091861D01*
X74738089Y-114059025D01*
X74698409Y-114028861D01*
X74599588Y-113935253D01*
X74507258Y-113852742D01*
X74478445Y-113820501D01*
X74446868Y-113790589D01*
X74353823Y-113681048D01*
X74268139Y-113585167D01*
X74246617Y-113554835D01*
X74222563Y-113526516D01*
X74137358Y-113400849D01*
X74060483Y-113292503D01*
X74045424Y-113265256D01*
X74028119Y-113239733D01*
X73952791Y-113097649D01*
X73886900Y-112978428D01*
X73877310Y-112955277D01*
X73865825Y-112933613D01*
X73802399Y-112774425D01*
X73749573Y-112646893D01*
X73744318Y-112628655D01*
X73737580Y-112611742D01*
X73687961Y-112433034D01*
X73650231Y-112302067D01*
X73648074Y-112289372D01*
X73644884Y-112277883D01*
X73610869Y-112070401D01*
X73590121Y-111948286D01*
X73589741Y-111941525D01*
X73588832Y-111935979D01*
X73572114Y-111627648D01*
X73570000Y-111590000D01*
X73572114Y-111552354D01*
X73588832Y-111244020D01*
X73589741Y-111238472D01*
X73590121Y-111231714D01*
X73610864Y-111109625D01*
X73644884Y-110902116D01*
X73648074Y-110890624D01*
X73650231Y-110877933D01*
X73687954Y-110746992D01*
X73737580Y-110568257D01*
X73744319Y-110551341D01*
X73749573Y-110533107D01*
X73802388Y-110405599D01*
X73865825Y-110246386D01*
X73877312Y-110224718D01*
X73886900Y-110201572D01*
X73952778Y-110082373D01*
X74028119Y-109940266D01*
X74045427Y-109914737D01*
X74060483Y-109887497D01*
X74137343Y-109779172D01*
X74222563Y-109653483D01*
X74246621Y-109625158D01*
X74268139Y-109594833D01*
X74353806Y-109498970D01*
X74446868Y-109389410D01*
X74478451Y-109359492D01*
X74507258Y-109327258D01*
X74599569Y-109244763D01*
X74698409Y-109151138D01*
X74738097Y-109120967D01*
X74774833Y-109088139D01*
X74871663Y-109019433D01*
X74974244Y-108941455D01*
X75022405Y-108912477D01*
X75067497Y-108880483D01*
X75166744Y-108825630D01*
X75271125Y-108762827D01*
X75327936Y-108736543D01*
X75381572Y-108706900D01*
X75481275Y-108665601D01*
X75585582Y-108617344D01*
X75650958Y-108595315D01*
X75713107Y-108569573D01*
X75811418Y-108541250D01*
X75913932Y-108506709D01*
X75987596Y-108490494D01*
X76057933Y-108470231D01*
X76153167Y-108454049D01*
X76252307Y-108432228D01*
X76333704Y-108423375D01*
X76411714Y-108410121D01*
X76502406Y-108405027D01*
X76596761Y-108394766D01*
X76685134Y-108394766D01*
X76770000Y-108390000D01*
X76854866Y-108394766D01*
G37*
G36*
X224354866Y-108394766D02*
G01*
X224443239Y-108394766D01*
X224537593Y-108405027D01*
X224628286Y-108410121D01*
X224706297Y-108423375D01*
X224787692Y-108432228D01*
X224886827Y-108454049D01*
X224982067Y-108470231D01*
X225052406Y-108490495D01*
X225126067Y-108506709D01*
X225228574Y-108541248D01*
X225326893Y-108569573D01*
X225389045Y-108595317D01*
X225454417Y-108617344D01*
X225558715Y-108665597D01*
X225658428Y-108706900D01*
X225712068Y-108736546D01*
X225768874Y-108762827D01*
X225873243Y-108825624D01*
X225972503Y-108880483D01*
X226017599Y-108912480D01*
X226065755Y-108941455D01*
X226168321Y-109019423D01*
X226265167Y-109088139D01*
X226301908Y-109120972D01*
X226341590Y-109151138D01*
X226440412Y-109244747D01*
X226532742Y-109327258D01*
X226561553Y-109359498D01*
X226593131Y-109389410D01*
X226686173Y-109498948D01*
X226771861Y-109594833D01*
X226793383Y-109625166D01*
X226817436Y-109653483D01*
X226902634Y-109779140D01*
X226979517Y-109887497D01*
X226994576Y-109914745D01*
X227011880Y-109940266D01*
X227087197Y-110082329D01*
X227153100Y-110201572D01*
X227162691Y-110224727D01*
X227174174Y-110246386D01*
X227237585Y-110405536D01*
X227290427Y-110533107D01*
X227295682Y-110551350D01*
X227302419Y-110568257D01*
X227352018Y-110746896D01*
X227389769Y-110877933D01*
X227391926Y-110890633D01*
X227395115Y-110902116D01*
X227429106Y-111109457D01*
X227449879Y-111231714D01*
X227450259Y-111238481D01*
X227451167Y-111244020D01*
X227467856Y-111551838D01*
X227470000Y-111590000D01*
X227467856Y-111628164D01*
X227451167Y-111935979D01*
X227450259Y-111941516D01*
X227449879Y-111948286D01*
X227429102Y-112070569D01*
X227395115Y-112277883D01*
X227391927Y-112289363D01*
X227389769Y-112302067D01*
X227352010Y-112433130D01*
X227302419Y-112611742D01*
X227295683Y-112628646D01*
X227290427Y-112646893D01*
X227237574Y-112774489D01*
X227174174Y-112933613D01*
X227162693Y-112955268D01*
X227153100Y-112978428D01*
X227087184Y-113097694D01*
X227011880Y-113239733D01*
X226994579Y-113265248D01*
X226979517Y-113292503D01*
X226902618Y-113400880D01*
X226817436Y-113526516D01*
X226793387Y-113554827D01*
X226771861Y-113585167D01*
X226686156Y-113681071D01*
X226593131Y-113790589D01*
X226561559Y-113820494D01*
X226532742Y-113852742D01*
X226440393Y-113935269D01*
X226341590Y-114028861D01*
X226301915Y-114059020D01*
X226265167Y-114091861D01*
X226168301Y-114160590D01*
X226065755Y-114238544D01*
X226017609Y-114267512D01*
X225972503Y-114299517D01*
X225873222Y-114354387D01*
X225768874Y-114417172D01*
X225712079Y-114443447D01*
X225658428Y-114473100D01*
X225558694Y-114514411D01*
X225454417Y-114562655D01*
X225389058Y-114584676D01*
X225326893Y-114610427D01*
X225228554Y-114638757D01*
X225126067Y-114673290D01*
X225052420Y-114689500D01*
X224982067Y-114709769D01*
X224886807Y-114725954D01*
X224787692Y-114747771D01*
X224706309Y-114756622D01*
X224628286Y-114769879D01*
X224537588Y-114774972D01*
X224443239Y-114785234D01*
X224354866Y-114785234D01*
X224270000Y-114790000D01*
X224185134Y-114785234D01*
X224096761Y-114785234D01*
X224002411Y-114774972D01*
X223911714Y-114769879D01*
X223833691Y-114756622D01*
X223752307Y-114747771D01*
X223653187Y-114725953D01*
X223557933Y-114709769D01*
X223487582Y-114689501D01*
X223413932Y-114673290D01*
X223311438Y-114638755D01*
X223213107Y-114610427D01*
X223150945Y-114584678D01*
X223085582Y-114562655D01*
X222981295Y-114514407D01*
X222881572Y-114473100D01*
X222827925Y-114443450D01*
X222771125Y-114417172D01*
X222666764Y-114354380D01*
X222567497Y-114299517D01*
X222522396Y-114267516D01*
X222474244Y-114238544D01*
X222371683Y-114160580D01*
X222274833Y-114091861D01*
X222238089Y-114059025D01*
X222198409Y-114028861D01*
X222099588Y-113935253D01*
X222007258Y-113852742D01*
X221978445Y-113820501D01*
X221946868Y-113790589D01*
X221853823Y-113681048D01*
X221768139Y-113585167D01*
X221746617Y-113554835D01*
X221722563Y-113526516D01*
X221637358Y-113400849D01*
X221560483Y-113292503D01*
X221545424Y-113265256D01*
X221528119Y-113239733D01*
X221452791Y-113097649D01*
X221386900Y-112978428D01*
X221377310Y-112955277D01*
X221365825Y-112933613D01*
X221302399Y-112774425D01*
X221249573Y-112646893D01*
X221244318Y-112628655D01*
X221237580Y-112611742D01*
X221187961Y-112433034D01*
X221150231Y-112302067D01*
X221148074Y-112289372D01*
X221144884Y-112277883D01*
X221110869Y-112070401D01*
X221090121Y-111948286D01*
X221089741Y-111941525D01*
X221088832Y-111935979D01*
X221072114Y-111627648D01*
X221070000Y-111590000D01*
X221072114Y-111552354D01*
X221088832Y-111244020D01*
X221089741Y-111238472D01*
X221090121Y-111231714D01*
X221110864Y-111109625D01*
X221144884Y-110902116D01*
X221148074Y-110890624D01*
X221150231Y-110877933D01*
X221187954Y-110746992D01*
X221237580Y-110568257D01*
X221244319Y-110551341D01*
X221249573Y-110533107D01*
X221302388Y-110405599D01*
X221365825Y-110246386D01*
X221377312Y-110224718D01*
X221386900Y-110201572D01*
X221452778Y-110082373D01*
X221528119Y-109940266D01*
X221545427Y-109914737D01*
X221560483Y-109887497D01*
X221637343Y-109779172D01*
X221722563Y-109653483D01*
X221746621Y-109625158D01*
X221768139Y-109594833D01*
X221853806Y-109498970D01*
X221946868Y-109389410D01*
X221978451Y-109359492D01*
X222007258Y-109327258D01*
X222099569Y-109244763D01*
X222198409Y-109151138D01*
X222238097Y-109120967D01*
X222274833Y-109088139D01*
X222371663Y-109019433D01*
X222474244Y-108941455D01*
X222522405Y-108912477D01*
X222567497Y-108880483D01*
X222666744Y-108825630D01*
X222771125Y-108762827D01*
X222827936Y-108736543D01*
X222881572Y-108706900D01*
X222981275Y-108665601D01*
X223085582Y-108617344D01*
X223150958Y-108595315D01*
X223213107Y-108569573D01*
X223311418Y-108541250D01*
X223413932Y-108506709D01*
X223487596Y-108490494D01*
X223557933Y-108470231D01*
X223653167Y-108454049D01*
X223752307Y-108432228D01*
X223833704Y-108423375D01*
X223911714Y-108410121D01*
X224002406Y-108405027D01*
X224096761Y-108394766D01*
X224185134Y-108394766D01*
X224270000Y-108390000D01*
X224354866Y-108394766D01*
G37*
G36*
X84946546Y-108085805D02*
G01*
X84997907Y-108091764D01*
X85015453Y-108099511D01*
X85038170Y-108104030D01*
X85062487Y-108120278D01*
X85083293Y-108129465D01*
X85097504Y-108143676D01*
X85119276Y-108158224D01*
X85133823Y-108179995D01*
X85148034Y-108194206D01*
X85157219Y-108215010D01*
X85173470Y-108239330D01*
X85177988Y-108262047D01*
X85185735Y-108279592D01*
X85191696Y-108330966D01*
X85192499Y-108335002D01*
X85192499Y-108337883D01*
X85192500Y-108337892D01*
X85192500Y-109049134D01*
X85192500Y-109584999D01*
X85191694Y-109589048D01*
X85185735Y-109640407D01*
X85177989Y-109657949D01*
X85173470Y-109680670D01*
X85157218Y-109704991D01*
X85148034Y-109725793D01*
X85133825Y-109740001D01*
X85119276Y-109761776D01*
X85097501Y-109776325D01*
X85083293Y-109790534D01*
X85062491Y-109799718D01*
X85038170Y-109815970D01*
X85015450Y-109820488D01*
X84997907Y-109828235D01*
X84946534Y-109834196D01*
X84942498Y-109834999D01*
X84939615Y-109834999D01*
X84939607Y-109835000D01*
X84020393Y-109835000D01*
X84020392Y-109834999D01*
X84017501Y-109835000D01*
X84013451Y-109834194D01*
X83962092Y-109828235D01*
X83944548Y-109820488D01*
X83921830Y-109815970D01*
X83897510Y-109799719D01*
X83876706Y-109790534D01*
X83862495Y-109776323D01*
X83840724Y-109761776D01*
X83826176Y-109740004D01*
X83811965Y-109725793D01*
X83802778Y-109704987D01*
X83786530Y-109680670D01*
X83782011Y-109657954D01*
X83774264Y-109640407D01*
X83768303Y-109589033D01*
X83767501Y-109584998D01*
X83767500Y-109582115D01*
X83767500Y-109582107D01*
X83767500Y-108337892D01*
X83767500Y-108337891D01*
X83767500Y-108335001D01*
X83768304Y-108330954D01*
X83774264Y-108279592D01*
X83782011Y-108262044D01*
X83786530Y-108239330D01*
X83802777Y-108215014D01*
X83811965Y-108194206D01*
X83826178Y-108179992D01*
X83840724Y-108158224D01*
X83862492Y-108143678D01*
X83876706Y-108129465D01*
X83897514Y-108120277D01*
X83921830Y-108104030D01*
X83944543Y-108099512D01*
X83962092Y-108091764D01*
X84013467Y-108085803D01*
X84017502Y-108085001D01*
X84020384Y-108085000D01*
X84020393Y-108085000D01*
X84939607Y-108085000D01*
X84942499Y-108085000D01*
X84946546Y-108085805D01*
G37*
G36*
X87921546Y-108085805D02*
G01*
X87972907Y-108091764D01*
X87990453Y-108099511D01*
X88013170Y-108104030D01*
X88037487Y-108120278D01*
X88058293Y-108129465D01*
X88072504Y-108143676D01*
X88094276Y-108158224D01*
X88108823Y-108179995D01*
X88123034Y-108194206D01*
X88132219Y-108215010D01*
X88148470Y-108239330D01*
X88152988Y-108262047D01*
X88160735Y-108279592D01*
X88166696Y-108330966D01*
X88167499Y-108335002D01*
X88167499Y-108337883D01*
X88167500Y-108337892D01*
X88167500Y-109049134D01*
X88167500Y-109584999D01*
X88166694Y-109589048D01*
X88160735Y-109640407D01*
X88152989Y-109657949D01*
X88148470Y-109680670D01*
X88132218Y-109704991D01*
X88123034Y-109725793D01*
X88108825Y-109740001D01*
X88094276Y-109761776D01*
X88072501Y-109776325D01*
X88058293Y-109790534D01*
X88037491Y-109799718D01*
X88013170Y-109815970D01*
X87990450Y-109820488D01*
X87972907Y-109828235D01*
X87921534Y-109834196D01*
X87917498Y-109834999D01*
X87914615Y-109834999D01*
X87914607Y-109835000D01*
X86995393Y-109835000D01*
X86995392Y-109834999D01*
X86992501Y-109835000D01*
X86988451Y-109834194D01*
X86937092Y-109828235D01*
X86919548Y-109820488D01*
X86896830Y-109815970D01*
X86872510Y-109799719D01*
X86851706Y-109790534D01*
X86837495Y-109776323D01*
X86815724Y-109761776D01*
X86801176Y-109740004D01*
X86786965Y-109725793D01*
X86777778Y-109704987D01*
X86761530Y-109680670D01*
X86757011Y-109657954D01*
X86749264Y-109640407D01*
X86743303Y-109589033D01*
X86742501Y-109584998D01*
X86742500Y-109582115D01*
X86742500Y-109582107D01*
X86742500Y-108337892D01*
X86742500Y-108337891D01*
X86742500Y-108335001D01*
X86743304Y-108330954D01*
X86749264Y-108279592D01*
X86757011Y-108262044D01*
X86761530Y-108239330D01*
X86777777Y-108215014D01*
X86786965Y-108194206D01*
X86801178Y-108179992D01*
X86815724Y-108158224D01*
X86837492Y-108143678D01*
X86851706Y-108129465D01*
X86872514Y-108120277D01*
X86896830Y-108104030D01*
X86919543Y-108099512D01*
X86937092Y-108091764D01*
X86988467Y-108085803D01*
X86992502Y-108085001D01*
X86995384Y-108085000D01*
X86995393Y-108085000D01*
X87914607Y-108085000D01*
X87917499Y-108085000D01*
X87921546Y-108085805D01*
G37*
G36*
X87870000Y-104730000D02*
G01*
X86170000Y-104730000D01*
X86170000Y-103030000D01*
X87870000Y-103030000D01*
X87870000Y-104730000D01*
G37*
G36*
X84742664Y-103071602D02*
G01*
X84905000Y-103143878D01*
X85048761Y-103248327D01*
X85167664Y-103380383D01*
X85256514Y-103534274D01*
X85311425Y-103703275D01*
X85330000Y-103880000D01*
X85311425Y-104056725D01*
X85256514Y-104225726D01*
X85167664Y-104379617D01*
X85048761Y-104511673D01*
X84905000Y-104616122D01*
X84742664Y-104688398D01*
X84568849Y-104725344D01*
X84391151Y-104725344D01*
X84217336Y-104688398D01*
X84055000Y-104616122D01*
X83911239Y-104511673D01*
X83792336Y-104379617D01*
X83703486Y-104225726D01*
X83648575Y-104056725D01*
X83630000Y-103880000D01*
X83648575Y-103703275D01*
X83703486Y-103534274D01*
X83792336Y-103380383D01*
X83911239Y-103248327D01*
X84055000Y-103143878D01*
X84217336Y-103071602D01*
X84391151Y-103034656D01*
X84568849Y-103034656D01*
X84742664Y-103071602D01*
G37*
G36*
X84742664Y-100531602D02*
G01*
X84905000Y-100603878D01*
X85048761Y-100708327D01*
X85167664Y-100840383D01*
X85256514Y-100994274D01*
X85311425Y-101163275D01*
X85330000Y-101340000D01*
X85311425Y-101516725D01*
X85256514Y-101685726D01*
X85167664Y-101839617D01*
X85048761Y-101971673D01*
X84905000Y-102076122D01*
X84742664Y-102148398D01*
X84568849Y-102185344D01*
X84391151Y-102185344D01*
X84217336Y-102148398D01*
X84055000Y-102076122D01*
X83911239Y-101971673D01*
X83792336Y-101839617D01*
X83703486Y-101685726D01*
X83648575Y-101516725D01*
X83630000Y-101340000D01*
X83648575Y-101163275D01*
X83703486Y-100994274D01*
X83792336Y-100840383D01*
X83911239Y-100708327D01*
X84055000Y-100603878D01*
X84217336Y-100531602D01*
X84391151Y-100494656D01*
X84568849Y-100494656D01*
X84742664Y-100531602D01*
G37*
G36*
X87282664Y-100531602D02*
G01*
X87445000Y-100603878D01*
X87588761Y-100708327D01*
X87707664Y-100840383D01*
X87796514Y-100994274D01*
X87851425Y-101163275D01*
X87870000Y-101340000D01*
X87851425Y-101516725D01*
X87796514Y-101685726D01*
X87707664Y-101839617D01*
X87588761Y-101971673D01*
X87445000Y-102076122D01*
X87282664Y-102148398D01*
X87108849Y-102185344D01*
X86931151Y-102185344D01*
X86757336Y-102148398D01*
X86595000Y-102076122D01*
X86451239Y-101971673D01*
X86332336Y-101839617D01*
X86243486Y-101685726D01*
X86188575Y-101516725D01*
X86170000Y-101340000D01*
X86188575Y-101163275D01*
X86243486Y-100994274D01*
X86332336Y-100840383D01*
X86451239Y-100708327D01*
X86595000Y-100603878D01*
X86757336Y-100531602D01*
X86931151Y-100494656D01*
X87108849Y-100494656D01*
X87282664Y-100531602D01*
G37*
G36*
X84742664Y-97991602D02*
G01*
X84905000Y-98063878D01*
X85048761Y-98168327D01*
X85167664Y-98300383D01*
X85256514Y-98454274D01*
X85311425Y-98623275D01*
X85330000Y-98800000D01*
X85311425Y-98976725D01*
X85256514Y-99145726D01*
X85167664Y-99299617D01*
X85048761Y-99431673D01*
X84905000Y-99536122D01*
X84742664Y-99608398D01*
X84568849Y-99645344D01*
X84391151Y-99645344D01*
X84217336Y-99608398D01*
X84055000Y-99536122D01*
X83911239Y-99431673D01*
X83792336Y-99299617D01*
X83703486Y-99145726D01*
X83648575Y-98976725D01*
X83630000Y-98800000D01*
X83648575Y-98623275D01*
X83703486Y-98454274D01*
X83792336Y-98300383D01*
X83911239Y-98168327D01*
X84055000Y-98063878D01*
X84217336Y-97991602D01*
X84391151Y-97954656D01*
X84568849Y-97954656D01*
X84742664Y-97991602D01*
G37*
G36*
X87282664Y-97991602D02*
G01*
X87445000Y-98063878D01*
X87588761Y-98168327D01*
X87707664Y-98300383D01*
X87796514Y-98454274D01*
X87851425Y-98623275D01*
X87870000Y-98800000D01*
X87851425Y-98976725D01*
X87796514Y-99145726D01*
X87707664Y-99299617D01*
X87588761Y-99431673D01*
X87445000Y-99536122D01*
X87282664Y-99608398D01*
X87108849Y-99645344D01*
X86931151Y-99645344D01*
X86757336Y-99608398D01*
X86595000Y-99536122D01*
X86451239Y-99431673D01*
X86332336Y-99299617D01*
X86243486Y-99145726D01*
X86188575Y-98976725D01*
X86170000Y-98800000D01*
X86188575Y-98623275D01*
X86243486Y-98454274D01*
X86332336Y-98300383D01*
X86451239Y-98168327D01*
X86595000Y-98063878D01*
X86757336Y-97991602D01*
X86931151Y-97954656D01*
X87108849Y-97954656D01*
X87282664Y-97991602D01*
G37*
G36*
X95366820Y-91724779D02*
G01*
X95436479Y-91724779D01*
X95512051Y-91735166D01*
X95584630Y-91740357D01*
X95644370Y-91753352D01*
X95706884Y-91761945D01*
X95786804Y-91784337D01*
X95863465Y-91801014D01*
X95915218Y-91820317D01*
X95969718Y-91835587D01*
X96052109Y-91871374D01*
X96130830Y-91900736D01*
X96174097Y-91924361D01*
X96220078Y-91944334D01*
X96302798Y-91994637D01*
X96381282Y-92037493D01*
X96415964Y-92063456D01*
X96453291Y-92086155D01*
X96534006Y-92151821D01*
X96609721Y-92208501D01*
X96636102Y-92234882D01*
X96665028Y-92258415D01*
X96741265Y-92340045D01*
X96811499Y-92410279D01*
X96830240Y-92435314D01*
X96851331Y-92457897D01*
X96920503Y-92555891D01*
X96982507Y-92638718D01*
X96994591Y-92660849D01*
X97008740Y-92680893D01*
X97068266Y-92795774D01*
X97119264Y-92889170D01*
X97125955Y-92907110D01*
X97134314Y-92923242D01*
X97181645Y-93056420D01*
X97218986Y-93156535D01*
X97221763Y-93169304D01*
X97225721Y-93180439D01*
X97258495Y-93338157D01*
X97279643Y-93435370D01*
X97280139Y-93442312D01*
X97281256Y-93447685D01*
X97297316Y-93682482D01*
X97300000Y-93720000D01*
X97297316Y-93757520D01*
X97281256Y-93992314D01*
X97280139Y-93997686D01*
X97279643Y-94004630D01*
X97258491Y-94101863D01*
X97225721Y-94259560D01*
X97221764Y-94270692D01*
X97218986Y-94283465D01*
X97181637Y-94383599D01*
X97134314Y-94516757D01*
X97125956Y-94532885D01*
X97119264Y-94550830D01*
X97068256Y-94644243D01*
X97008740Y-94759106D01*
X96994594Y-94779145D01*
X96982507Y-94801282D01*
X96920491Y-94884124D01*
X96851331Y-94982102D01*
X96830244Y-95004680D01*
X96811499Y-95029721D01*
X96741251Y-95099968D01*
X96665028Y-95181584D01*
X96636107Y-95205112D01*
X96609721Y-95231499D01*
X96533990Y-95288190D01*
X96453291Y-95353844D01*
X96415971Y-95376538D01*
X96381282Y-95402507D01*
X96302782Y-95445371D01*
X96220078Y-95495665D01*
X96174106Y-95515633D01*
X96130830Y-95539264D01*
X96052093Y-95568631D01*
X95969718Y-95604412D01*
X95915229Y-95619678D01*
X95863465Y-95638986D01*
X95786788Y-95655665D01*
X95706884Y-95678054D01*
X95644380Y-95686645D01*
X95584630Y-95699643D01*
X95512047Y-95704834D01*
X95436479Y-95715221D01*
X95366820Y-95715221D01*
X95300000Y-95720000D01*
X95233180Y-95715221D01*
X95163521Y-95715221D01*
X95087952Y-95704834D01*
X95015370Y-95699643D01*
X94955621Y-95686645D01*
X94893115Y-95678054D01*
X94813206Y-95655665D01*
X94736535Y-95638986D01*
X94684773Y-95619679D01*
X94630281Y-95604412D01*
X94547899Y-95568628D01*
X94469170Y-95539264D01*
X94425897Y-95515635D01*
X94379921Y-95495665D01*
X94297207Y-95445365D01*
X94218718Y-95402507D01*
X94184032Y-95376541D01*
X94146708Y-95353844D01*
X94065996Y-95288180D01*
X93990279Y-95231499D01*
X93963896Y-95205116D01*
X93934971Y-95181584D01*
X93858733Y-95099953D01*
X93788501Y-95029721D01*
X93769759Y-95004685D01*
X93748668Y-94982102D01*
X93679491Y-94884101D01*
X93617493Y-94801282D01*
X93605409Y-94779151D01*
X93591259Y-94759106D01*
X93531724Y-94644207D01*
X93480736Y-94550830D01*
X93474045Y-94532892D01*
X93465685Y-94516757D01*
X93418341Y-94383542D01*
X93381014Y-94283465D01*
X93378237Y-94270700D01*
X93374278Y-94259560D01*
X93341486Y-94101761D01*
X93320357Y-94004630D01*
X93319860Y-93997693D01*
X93318743Y-93992314D01*
X93302660Y-93757200D01*
X93300000Y-93720000D01*
X93302660Y-93682802D01*
X93318743Y-93447685D01*
X93319861Y-93442304D01*
X93320357Y-93435370D01*
X93341481Y-93338260D01*
X93374278Y-93180439D01*
X93378237Y-93169297D01*
X93381014Y-93156535D01*
X93418333Y-93056477D01*
X93465685Y-92923242D01*
X93474046Y-92907103D01*
X93480736Y-92889170D01*
X93531713Y-92795810D01*
X93591259Y-92680893D01*
X93605411Y-92660843D01*
X93617493Y-92638718D01*
X93679478Y-92555915D01*
X93748668Y-92457897D01*
X93769763Y-92435308D01*
X93788501Y-92410279D01*
X93858719Y-92340060D01*
X93934971Y-92258415D01*
X93963902Y-92234877D01*
X93990279Y-92208501D01*
X94065981Y-92151830D01*
X94146708Y-92086155D01*
X94184039Y-92063452D01*
X94218718Y-92037493D01*
X94297191Y-91994643D01*
X94379921Y-91944334D01*
X94425906Y-91924359D01*
X94469170Y-91900736D01*
X94547883Y-91871377D01*
X94630281Y-91835587D01*
X94684784Y-91820316D01*
X94736535Y-91801014D01*
X94813190Y-91784338D01*
X94893115Y-91761945D01*
X94955630Y-91753352D01*
X95015370Y-91740357D01*
X95087947Y-91735166D01*
X95163521Y-91724779D01*
X95233180Y-91724779D01*
X95300000Y-91720000D01*
X95366820Y-91724779D01*
G37*
G36*
X102986820Y-91724779D02*
G01*
X103056479Y-91724779D01*
X103132051Y-91735166D01*
X103204630Y-91740357D01*
X103264370Y-91753352D01*
X103326884Y-91761945D01*
X103406804Y-91784337D01*
X103483465Y-91801014D01*
X103535218Y-91820317D01*
X103589718Y-91835587D01*
X103672109Y-91871374D01*
X103750830Y-91900736D01*
X103794097Y-91924361D01*
X103840078Y-91944334D01*
X103922798Y-91994637D01*
X104001282Y-92037493D01*
X104035964Y-92063456D01*
X104073291Y-92086155D01*
X104154006Y-92151821D01*
X104229721Y-92208501D01*
X104256102Y-92234882D01*
X104285028Y-92258415D01*
X104361265Y-92340045D01*
X104431499Y-92410279D01*
X104450240Y-92435314D01*
X104471331Y-92457897D01*
X104540503Y-92555891D01*
X104602507Y-92638718D01*
X104614591Y-92660849D01*
X104628740Y-92680893D01*
X104688266Y-92795774D01*
X104739264Y-92889170D01*
X104745955Y-92907110D01*
X104754314Y-92923242D01*
X104801645Y-93056420D01*
X104838986Y-93156535D01*
X104841763Y-93169304D01*
X104845721Y-93180439D01*
X104878495Y-93338157D01*
X104899643Y-93435370D01*
X104900139Y-93442312D01*
X104901256Y-93447685D01*
X104917316Y-93682482D01*
X104920000Y-93720000D01*
X104917316Y-93757520D01*
X104901256Y-93992314D01*
X104900139Y-93997686D01*
X104899643Y-94004630D01*
X104878491Y-94101863D01*
X104845721Y-94259560D01*
X104841764Y-94270692D01*
X104838986Y-94283465D01*
X104801637Y-94383599D01*
X104754314Y-94516757D01*
X104745956Y-94532885D01*
X104739264Y-94550830D01*
X104688256Y-94644243D01*
X104628740Y-94759106D01*
X104614594Y-94779145D01*
X104602507Y-94801282D01*
X104540491Y-94884124D01*
X104471331Y-94982102D01*
X104450244Y-95004680D01*
X104431499Y-95029721D01*
X104361251Y-95099968D01*
X104285028Y-95181584D01*
X104256107Y-95205112D01*
X104229721Y-95231499D01*
X104153990Y-95288190D01*
X104073291Y-95353844D01*
X104035971Y-95376538D01*
X104001282Y-95402507D01*
X103922782Y-95445371D01*
X103840078Y-95495665D01*
X103794106Y-95515633D01*
X103750830Y-95539264D01*
X103672093Y-95568631D01*
X103589718Y-95604412D01*
X103535229Y-95619678D01*
X103483465Y-95638986D01*
X103406788Y-95655665D01*
X103326884Y-95678054D01*
X103264380Y-95686645D01*
X103204630Y-95699643D01*
X103132047Y-95704834D01*
X103056479Y-95715221D01*
X102986820Y-95715221D01*
X102920000Y-95720000D01*
X102853180Y-95715221D01*
X102783521Y-95715221D01*
X102707952Y-95704834D01*
X102635370Y-95699643D01*
X102575621Y-95686645D01*
X102513115Y-95678054D01*
X102433206Y-95655665D01*
X102356535Y-95638986D01*
X102304773Y-95619679D01*
X102250281Y-95604412D01*
X102167899Y-95568628D01*
X102089170Y-95539264D01*
X102045897Y-95515635D01*
X101999921Y-95495665D01*
X101917207Y-95445365D01*
X101838718Y-95402507D01*
X101804032Y-95376541D01*
X101766708Y-95353844D01*
X101685996Y-95288180D01*
X101610279Y-95231499D01*
X101583896Y-95205116D01*
X101554971Y-95181584D01*
X101478733Y-95099953D01*
X101408501Y-95029721D01*
X101389759Y-95004685D01*
X101368668Y-94982102D01*
X101299491Y-94884101D01*
X101237493Y-94801282D01*
X101225409Y-94779151D01*
X101211259Y-94759106D01*
X101151724Y-94644207D01*
X101100736Y-94550830D01*
X101094045Y-94532892D01*
X101085685Y-94516757D01*
X101038341Y-94383542D01*
X101001014Y-94283465D01*
X100998237Y-94270700D01*
X100994278Y-94259560D01*
X100961486Y-94101761D01*
X100940357Y-94004630D01*
X100939860Y-93997693D01*
X100938743Y-93992314D01*
X100922660Y-93757200D01*
X100920000Y-93720000D01*
X100922660Y-93682802D01*
X100938743Y-93447685D01*
X100939861Y-93442304D01*
X100940357Y-93435370D01*
X100961481Y-93338260D01*
X100994278Y-93180439D01*
X100998237Y-93169297D01*
X101001014Y-93156535D01*
X101038333Y-93056477D01*
X101085685Y-92923242D01*
X101094046Y-92907103D01*
X101100736Y-92889170D01*
X101151713Y-92795810D01*
X101211259Y-92680893D01*
X101225411Y-92660843D01*
X101237493Y-92638718D01*
X101299478Y-92555915D01*
X101368668Y-92457897D01*
X101389763Y-92435308D01*
X101408501Y-92410279D01*
X101478719Y-92340060D01*
X101554971Y-92258415D01*
X101583902Y-92234877D01*
X101610279Y-92208501D01*
X101685981Y-92151830D01*
X101766708Y-92086155D01*
X101804039Y-92063452D01*
X101838718Y-92037493D01*
X101917191Y-91994643D01*
X101999921Y-91944334D01*
X102045906Y-91924359D01*
X102089170Y-91900736D01*
X102167883Y-91871377D01*
X102250281Y-91835587D01*
X102304784Y-91820316D01*
X102356535Y-91801014D01*
X102433190Y-91784338D01*
X102513115Y-91761945D01*
X102575630Y-91753352D01*
X102635370Y-91740357D01*
X102707947Y-91735166D01*
X102783521Y-91724779D01*
X102853180Y-91724779D01*
X102920000Y-91720000D01*
X102986820Y-91724779D01*
G37*
G36*
X200300000Y-95720000D02*
G01*
X196300000Y-95720000D01*
X196300000Y-91720000D01*
X200300000Y-91720000D01*
X200300000Y-95720000D01*
G37*
G36*
X207920000Y-95720000D02*
G01*
X203920000Y-95720000D01*
X203920000Y-91720000D01*
X207920000Y-91720000D01*
X207920000Y-95720000D01*
G37*
G36*
X84946546Y-92845805D02*
G01*
X84997907Y-92851764D01*
X85015453Y-92859511D01*
X85038170Y-92864030D01*
X85062487Y-92880278D01*
X85083293Y-92889465D01*
X85097504Y-92903676D01*
X85119276Y-92918224D01*
X85133823Y-92939995D01*
X85148034Y-92954206D01*
X85157219Y-92975010D01*
X85173470Y-92999330D01*
X85177988Y-93022047D01*
X85185735Y-93039592D01*
X85191696Y-93090966D01*
X85192499Y-93095002D01*
X85192499Y-93097883D01*
X85192500Y-93097892D01*
X85192500Y-93738544D01*
X85192500Y-94344999D01*
X85191694Y-94349048D01*
X85185735Y-94400407D01*
X85177989Y-94417949D01*
X85173470Y-94440670D01*
X85157218Y-94464991D01*
X85148034Y-94485793D01*
X85133825Y-94500001D01*
X85119276Y-94521776D01*
X85097501Y-94536325D01*
X85083293Y-94550534D01*
X85062491Y-94559718D01*
X85038170Y-94575970D01*
X85015450Y-94580488D01*
X84997907Y-94588235D01*
X84946534Y-94594196D01*
X84942498Y-94594999D01*
X84939615Y-94594999D01*
X84939607Y-94595000D01*
X84020393Y-94595000D01*
X84020392Y-94594999D01*
X84017501Y-94595000D01*
X84013451Y-94594194D01*
X83962092Y-94588235D01*
X83944548Y-94580488D01*
X83921830Y-94575970D01*
X83897510Y-94559719D01*
X83876706Y-94550534D01*
X83862495Y-94536323D01*
X83840724Y-94521776D01*
X83826176Y-94500004D01*
X83811965Y-94485793D01*
X83802778Y-94464987D01*
X83786530Y-94440670D01*
X83782011Y-94417954D01*
X83774264Y-94400407D01*
X83768303Y-94349033D01*
X83767501Y-94344998D01*
X83767500Y-94342115D01*
X83767500Y-94342107D01*
X83767500Y-93097892D01*
X83767500Y-93097891D01*
X83767500Y-93095001D01*
X83768304Y-93090954D01*
X83774264Y-93039592D01*
X83782011Y-93022044D01*
X83786530Y-92999330D01*
X83802777Y-92975014D01*
X83811965Y-92954206D01*
X83826178Y-92939992D01*
X83840724Y-92918224D01*
X83862492Y-92903678D01*
X83876706Y-92889465D01*
X83897514Y-92880277D01*
X83921830Y-92864030D01*
X83944543Y-92859512D01*
X83962092Y-92851764D01*
X84013467Y-92845803D01*
X84017502Y-92845001D01*
X84020384Y-92845000D01*
X84020393Y-92845000D01*
X84939607Y-92845000D01*
X84942499Y-92845000D01*
X84946546Y-92845805D01*
G37*
G36*
X87921546Y-92845805D02*
G01*
X87972907Y-92851764D01*
X87990453Y-92859511D01*
X88013170Y-92864030D01*
X88037487Y-92880278D01*
X88058293Y-92889465D01*
X88072504Y-92903676D01*
X88094276Y-92918224D01*
X88108823Y-92939995D01*
X88123034Y-92954206D01*
X88132219Y-92975010D01*
X88148470Y-92999330D01*
X88152988Y-93022047D01*
X88160735Y-93039592D01*
X88166696Y-93090966D01*
X88167499Y-93095002D01*
X88167499Y-93097883D01*
X88167500Y-93097892D01*
X88167500Y-93738544D01*
X88167500Y-94344999D01*
X88166694Y-94349048D01*
X88160735Y-94400407D01*
X88152989Y-94417949D01*
X88148470Y-94440670D01*
X88132218Y-94464991D01*
X88123034Y-94485793D01*
X88108825Y-94500001D01*
X88094276Y-94521776D01*
X88072501Y-94536325D01*
X88058293Y-94550534D01*
X88037491Y-94559718D01*
X88013170Y-94575970D01*
X87990450Y-94580488D01*
X87972907Y-94588235D01*
X87921534Y-94594196D01*
X87917498Y-94594999D01*
X87914615Y-94594999D01*
X87914607Y-94595000D01*
X86995393Y-94595000D01*
X86995392Y-94594999D01*
X86992501Y-94595000D01*
X86988451Y-94594194D01*
X86937092Y-94588235D01*
X86919548Y-94580488D01*
X86896830Y-94575970D01*
X86872510Y-94559719D01*
X86851706Y-94550534D01*
X86837495Y-94536323D01*
X86815724Y-94521776D01*
X86801176Y-94500004D01*
X86786965Y-94485793D01*
X86777778Y-94464987D01*
X86761530Y-94440670D01*
X86757011Y-94417954D01*
X86749264Y-94400407D01*
X86743303Y-94349033D01*
X86742501Y-94344998D01*
X86742500Y-94342115D01*
X86742500Y-94342107D01*
X86742500Y-93097892D01*
X86742500Y-93097891D01*
X86742500Y-93095001D01*
X86743304Y-93090954D01*
X86749264Y-93039592D01*
X86757011Y-93022044D01*
X86761530Y-92999330D01*
X86777777Y-92975014D01*
X86786965Y-92954206D01*
X86801178Y-92939992D01*
X86815724Y-92918224D01*
X86837492Y-92903678D01*
X86851706Y-92889465D01*
X86872514Y-92880277D01*
X86896830Y-92864030D01*
X86919543Y-92859512D01*
X86937092Y-92851764D01*
X86988467Y-92845803D01*
X86992502Y-92845001D01*
X86995384Y-92845000D01*
X86995393Y-92845000D01*
X87914607Y-92845000D01*
X87917499Y-92845000D01*
X87921546Y-92845805D01*
G37*
G36*
X76854866Y-87894766D02*
G01*
X76943239Y-87894766D01*
X77037593Y-87905027D01*
X77128286Y-87910121D01*
X77206297Y-87923375D01*
X77287692Y-87932228D01*
X77386827Y-87954049D01*
X77482067Y-87970231D01*
X77552406Y-87990495D01*
X77626067Y-88006709D01*
X77728574Y-88041248D01*
X77826893Y-88069573D01*
X77889045Y-88095317D01*
X77954417Y-88117344D01*
X78058715Y-88165597D01*
X78158428Y-88206900D01*
X78212068Y-88236546D01*
X78268874Y-88262827D01*
X78373243Y-88325624D01*
X78472503Y-88380483D01*
X78517599Y-88412480D01*
X78565755Y-88441455D01*
X78668321Y-88519423D01*
X78765167Y-88588139D01*
X78801908Y-88620972D01*
X78841590Y-88651138D01*
X78940412Y-88744747D01*
X79032742Y-88827258D01*
X79061553Y-88859498D01*
X79093131Y-88889410D01*
X79186173Y-88998948D01*
X79271861Y-89094833D01*
X79293383Y-89125166D01*
X79317436Y-89153483D01*
X79402634Y-89279140D01*
X79479517Y-89387497D01*
X79494576Y-89414745D01*
X79511880Y-89440266D01*
X79587197Y-89582329D01*
X79653100Y-89701572D01*
X79662691Y-89724727D01*
X79674174Y-89746386D01*
X79737585Y-89905536D01*
X79790427Y-90033107D01*
X79795682Y-90051350D01*
X79802419Y-90068257D01*
X79852018Y-90246896D01*
X79889769Y-90377933D01*
X79891926Y-90390633D01*
X79895115Y-90402116D01*
X79929106Y-90609457D01*
X79949879Y-90731714D01*
X79950259Y-90738481D01*
X79951167Y-90744020D01*
X79967856Y-91051838D01*
X79970000Y-91090000D01*
X79967856Y-91128164D01*
X79951167Y-91435979D01*
X79950259Y-91441516D01*
X79949879Y-91448286D01*
X79929102Y-91570569D01*
X79895115Y-91777883D01*
X79891927Y-91789363D01*
X79889769Y-91802067D01*
X79852010Y-91933130D01*
X79802419Y-92111742D01*
X79795683Y-92128646D01*
X79790427Y-92146893D01*
X79737574Y-92274489D01*
X79674174Y-92433613D01*
X79662693Y-92455268D01*
X79653100Y-92478428D01*
X79587184Y-92597694D01*
X79511880Y-92739733D01*
X79494579Y-92765248D01*
X79479517Y-92792503D01*
X79402618Y-92900880D01*
X79317436Y-93026516D01*
X79293387Y-93054827D01*
X79271861Y-93085167D01*
X79186156Y-93181071D01*
X79093131Y-93290589D01*
X79061559Y-93320494D01*
X79032742Y-93352742D01*
X78940393Y-93435269D01*
X78841590Y-93528861D01*
X78801915Y-93559020D01*
X78765167Y-93591861D01*
X78668301Y-93660590D01*
X78565755Y-93738544D01*
X78517609Y-93767512D01*
X78472503Y-93799517D01*
X78373222Y-93854387D01*
X78268874Y-93917172D01*
X78212079Y-93943447D01*
X78158428Y-93973100D01*
X78058694Y-94014411D01*
X77954417Y-94062655D01*
X77889058Y-94084676D01*
X77826893Y-94110427D01*
X77728554Y-94138757D01*
X77626067Y-94173290D01*
X77552420Y-94189500D01*
X77482067Y-94209769D01*
X77386807Y-94225954D01*
X77287692Y-94247771D01*
X77206309Y-94256622D01*
X77128286Y-94269879D01*
X77037588Y-94274972D01*
X76943239Y-94285234D01*
X76854866Y-94285234D01*
X76770000Y-94290000D01*
X76685134Y-94285234D01*
X76596761Y-94285234D01*
X76502411Y-94274972D01*
X76411714Y-94269879D01*
X76333691Y-94256622D01*
X76252307Y-94247771D01*
X76153187Y-94225953D01*
X76057933Y-94209769D01*
X75987582Y-94189501D01*
X75913932Y-94173290D01*
X75811438Y-94138755D01*
X75713107Y-94110427D01*
X75650945Y-94084678D01*
X75585582Y-94062655D01*
X75481295Y-94014407D01*
X75381572Y-93973100D01*
X75327925Y-93943450D01*
X75271125Y-93917172D01*
X75166764Y-93854380D01*
X75067497Y-93799517D01*
X75022396Y-93767516D01*
X74974244Y-93738544D01*
X74871683Y-93660580D01*
X74774833Y-93591861D01*
X74738089Y-93559025D01*
X74698409Y-93528861D01*
X74599588Y-93435253D01*
X74507258Y-93352742D01*
X74478445Y-93320501D01*
X74446868Y-93290589D01*
X74353823Y-93181048D01*
X74268139Y-93085167D01*
X74246617Y-93054835D01*
X74222563Y-93026516D01*
X74137358Y-92900849D01*
X74060483Y-92792503D01*
X74045424Y-92765256D01*
X74028119Y-92739733D01*
X73952791Y-92597649D01*
X73886900Y-92478428D01*
X73877310Y-92455277D01*
X73865825Y-92433613D01*
X73802399Y-92274425D01*
X73749573Y-92146893D01*
X73744318Y-92128655D01*
X73737580Y-92111742D01*
X73687961Y-91933034D01*
X73650231Y-91802067D01*
X73648074Y-91789372D01*
X73644884Y-91777883D01*
X73610869Y-91570401D01*
X73590121Y-91448286D01*
X73589741Y-91441525D01*
X73588832Y-91435979D01*
X73572114Y-91127648D01*
X73570000Y-91090000D01*
X73572114Y-91052354D01*
X73588832Y-90744020D01*
X73589741Y-90738472D01*
X73590121Y-90731714D01*
X73610864Y-90609625D01*
X73644884Y-90402116D01*
X73648074Y-90390624D01*
X73650231Y-90377933D01*
X73687954Y-90246992D01*
X73737580Y-90068257D01*
X73744319Y-90051341D01*
X73749573Y-90033107D01*
X73802388Y-89905599D01*
X73865825Y-89746386D01*
X73877312Y-89724718D01*
X73886900Y-89701572D01*
X73952778Y-89582373D01*
X74028119Y-89440266D01*
X74045427Y-89414737D01*
X74060483Y-89387497D01*
X74137343Y-89279172D01*
X74222563Y-89153483D01*
X74246621Y-89125158D01*
X74268139Y-89094833D01*
X74353806Y-88998970D01*
X74446868Y-88889410D01*
X74478451Y-88859492D01*
X74507258Y-88827258D01*
X74599569Y-88744763D01*
X74698409Y-88651138D01*
X74738097Y-88620967D01*
X74774833Y-88588139D01*
X74871663Y-88519433D01*
X74974244Y-88441455D01*
X75022405Y-88412477D01*
X75067497Y-88380483D01*
X75166744Y-88325630D01*
X75271125Y-88262827D01*
X75327936Y-88236543D01*
X75381572Y-88206900D01*
X75481275Y-88165601D01*
X75585582Y-88117344D01*
X75650958Y-88095315D01*
X75713107Y-88069573D01*
X75811418Y-88041250D01*
X75913932Y-88006709D01*
X75987596Y-87990494D01*
X76057933Y-87970231D01*
X76153167Y-87954049D01*
X76252307Y-87932228D01*
X76333704Y-87923375D01*
X76411714Y-87910121D01*
X76502406Y-87905027D01*
X76596761Y-87894766D01*
X76685134Y-87894766D01*
X76770000Y-87890000D01*
X76854866Y-87894766D01*
G37*
G36*
X224354866Y-87894766D02*
G01*
X224443239Y-87894766D01*
X224537593Y-87905027D01*
X224628286Y-87910121D01*
X224706297Y-87923375D01*
X224787692Y-87932228D01*
X224886827Y-87954049D01*
X224982067Y-87970231D01*
X225052406Y-87990495D01*
X225126067Y-88006709D01*
X225228574Y-88041248D01*
X225326893Y-88069573D01*
X225389045Y-88095317D01*
X225454417Y-88117344D01*
X225558715Y-88165597D01*
X225658428Y-88206900D01*
X225712068Y-88236546D01*
X225768874Y-88262827D01*
X225873243Y-88325624D01*
X225972503Y-88380483D01*
X226017599Y-88412480D01*
X226065755Y-88441455D01*
X226168321Y-88519423D01*
X226265167Y-88588139D01*
X226301908Y-88620972D01*
X226341590Y-88651138D01*
X226440412Y-88744747D01*
X226532742Y-88827258D01*
X226561553Y-88859498D01*
X226593131Y-88889410D01*
X226686173Y-88998948D01*
X226771861Y-89094833D01*
X226793383Y-89125166D01*
X226817436Y-89153483D01*
X226902634Y-89279140D01*
X226979517Y-89387497D01*
X226994576Y-89414745D01*
X227011880Y-89440266D01*
X227087197Y-89582329D01*
X227153100Y-89701572D01*
X227162691Y-89724727D01*
X227174174Y-89746386D01*
X227237585Y-89905536D01*
X227290427Y-90033107D01*
X227295682Y-90051350D01*
X227302419Y-90068257D01*
X227352018Y-90246896D01*
X227389769Y-90377933D01*
X227391926Y-90390633D01*
X227395115Y-90402116D01*
X227429106Y-90609457D01*
X227449879Y-90731714D01*
X227450259Y-90738481D01*
X227451167Y-90744020D01*
X227467856Y-91051838D01*
X227470000Y-91090000D01*
X227467856Y-91128164D01*
X227451167Y-91435979D01*
X227450259Y-91441516D01*
X227449879Y-91448286D01*
X227429102Y-91570569D01*
X227395115Y-91777883D01*
X227391927Y-91789363D01*
X227389769Y-91802067D01*
X227352010Y-91933130D01*
X227302419Y-92111742D01*
X227295683Y-92128646D01*
X227290427Y-92146893D01*
X227237574Y-92274489D01*
X227174174Y-92433613D01*
X227162693Y-92455268D01*
X227153100Y-92478428D01*
X227087184Y-92597694D01*
X227011880Y-92739733D01*
X226994579Y-92765248D01*
X226979517Y-92792503D01*
X226902618Y-92900880D01*
X226817436Y-93026516D01*
X226793387Y-93054827D01*
X226771861Y-93085167D01*
X226686156Y-93181071D01*
X226593131Y-93290589D01*
X226561559Y-93320494D01*
X226532742Y-93352742D01*
X226440393Y-93435269D01*
X226341590Y-93528861D01*
X226301915Y-93559020D01*
X226265167Y-93591861D01*
X226168301Y-93660590D01*
X226065755Y-93738544D01*
X226017609Y-93767512D01*
X225972503Y-93799517D01*
X225873222Y-93854387D01*
X225768874Y-93917172D01*
X225712079Y-93943447D01*
X225658428Y-93973100D01*
X225558694Y-94014411D01*
X225454417Y-94062655D01*
X225389058Y-94084676D01*
X225326893Y-94110427D01*
X225228554Y-94138757D01*
X225126067Y-94173290D01*
X225052420Y-94189500D01*
X224982067Y-94209769D01*
X224886807Y-94225954D01*
X224787692Y-94247771D01*
X224706309Y-94256622D01*
X224628286Y-94269879D01*
X224537588Y-94274972D01*
X224443239Y-94285234D01*
X224354866Y-94285234D01*
X224270000Y-94290000D01*
X224185134Y-94285234D01*
X224096761Y-94285234D01*
X224002411Y-94274972D01*
X223911714Y-94269879D01*
X223833691Y-94256622D01*
X223752307Y-94247771D01*
X223653187Y-94225953D01*
X223557933Y-94209769D01*
X223487582Y-94189501D01*
X223413932Y-94173290D01*
X223311438Y-94138755D01*
X223213107Y-94110427D01*
X223150945Y-94084678D01*
X223085582Y-94062655D01*
X222981295Y-94014407D01*
X222881572Y-93973100D01*
X222827925Y-93943450D01*
X222771125Y-93917172D01*
X222666764Y-93854380D01*
X222567497Y-93799517D01*
X222522396Y-93767516D01*
X222474244Y-93738544D01*
X222371683Y-93660580D01*
X222274833Y-93591861D01*
X222238089Y-93559025D01*
X222198409Y-93528861D01*
X222099588Y-93435253D01*
X222007258Y-93352742D01*
X221978445Y-93320501D01*
X221946868Y-93290589D01*
X221853823Y-93181048D01*
X221768139Y-93085167D01*
X221746617Y-93054835D01*
X221722563Y-93026516D01*
X221637358Y-92900849D01*
X221560483Y-92792503D01*
X221545424Y-92765256D01*
X221528119Y-92739733D01*
X221452791Y-92597649D01*
X221386900Y-92478428D01*
X221377310Y-92455277D01*
X221365825Y-92433613D01*
X221302399Y-92274425D01*
X221249573Y-92146893D01*
X221244318Y-92128655D01*
X221237580Y-92111742D01*
X221187961Y-91933034D01*
X221150231Y-91802067D01*
X221148074Y-91789372D01*
X221144884Y-91777883D01*
X221110869Y-91570401D01*
X221090121Y-91448286D01*
X221089741Y-91441525D01*
X221088832Y-91435979D01*
X221072114Y-91127648D01*
X221070000Y-91090000D01*
X221072114Y-91052354D01*
X221088832Y-90744020D01*
X221089741Y-90738472D01*
X221090121Y-90731714D01*
X221110864Y-90609625D01*
X221144884Y-90402116D01*
X221148074Y-90390624D01*
X221150231Y-90377933D01*
X221187954Y-90246992D01*
X221237580Y-90068257D01*
X221244319Y-90051341D01*
X221249573Y-90033107D01*
X221302388Y-89905599D01*
X221365825Y-89746386D01*
X221377312Y-89724718D01*
X221386900Y-89701572D01*
X221452778Y-89582373D01*
X221528119Y-89440266D01*
X221545427Y-89414737D01*
X221560483Y-89387497D01*
X221637343Y-89279172D01*
X221722563Y-89153483D01*
X221746621Y-89125158D01*
X221768139Y-89094833D01*
X221853806Y-88998970D01*
X221946868Y-88889410D01*
X221978451Y-88859492D01*
X222007258Y-88827258D01*
X222099569Y-88744763D01*
X222198409Y-88651138D01*
X222238097Y-88620967D01*
X222274833Y-88588139D01*
X222371663Y-88519433D01*
X222474244Y-88441455D01*
X222522405Y-88412477D01*
X222567497Y-88380483D01*
X222666744Y-88325630D01*
X222771125Y-88262827D01*
X222827936Y-88236543D01*
X222881572Y-88206900D01*
X222981275Y-88165601D01*
X223085582Y-88117344D01*
X223150958Y-88095315D01*
X223213107Y-88069573D01*
X223311418Y-88041250D01*
X223413932Y-88006709D01*
X223487596Y-87990494D01*
X223557933Y-87970231D01*
X223653167Y-87954049D01*
X223752307Y-87932228D01*
X223833704Y-87923375D01*
X223911714Y-87910121D01*
X224002406Y-87905027D01*
X224096761Y-87894766D01*
X224185134Y-87894766D01*
X224270000Y-87890000D01*
X224354866Y-87894766D01*
G37*
M02*
