G04 #@! TF.GenerationSoftware,KiCad,Pcbnew,7.0.10-7.0.10~ubuntu22.04.1*
G04 #@! TF.CreationDate,2024-01-07T20:53:06+01:00*
G04 #@! TF.ProjectId,Geiger Tube Driver,47656967-6572-4205-9475-626520447269,1.1*
G04 #@! TF.SameCoordinates,Original*
G04 #@! TF.FileFunction,Paste,Top*
G04 #@! TF.FilePolarity,Positive*
%FSLAX46Y46*%
G04 Gerber Fmt 4.6, Leading zero omitted, Abs format (unit mm)*
G04 Created by KiCad (PCBNEW 7.0.10-7.0.10~ubuntu22.04.1) date 2024-01-07 20:53:06*
%MOMM*%
%LPD*%
G01*
G04 APERTURE LIST*
G04 Aperture macros list*
%AMRoundRect*
0 Rectangle with rounded corners*
0 $1 Rounding radius*
0 $2 $3 $4 $5 $6 $7 $8 $9 X,Y pos of 4 corners*
0 Add a 4 corners polygon primitive as box body*
4,1,4,$2,$3,$4,$5,$6,$7,$8,$9,$2,$3,0*
0 Add four circle primitives for the rounded corners*
1,1,$1+$1,$2,$3*
1,1,$1+$1,$4,$5*
1,1,$1+$1,$6,$7*
1,1,$1+$1,$8,$9*
0 Add four rect primitives between the rounded corners*
20,1,$1+$1,$2,$3,$4,$5,0*
20,1,$1+$1,$4,$5,$6,$7,0*
20,1,$1+$1,$6,$7,$8,$9,0*
20,1,$1+$1,$8,$9,$2,$3,0*%
G04 Aperture macros list end*
%ADD10RoundRect,0.250000X-0.250000X-0.250000X0.250000X-0.250000X0.250000X0.250000X-0.250000X0.250000X0*%
%ADD11RoundRect,0.250000X0.400000X0.625000X-0.400000X0.625000X-0.400000X-0.625000X0.400000X-0.625000X0*%
%ADD12RoundRect,0.150000X-0.150000X0.825000X-0.150000X-0.825000X0.150000X-0.825000X0.150000X0.825000X0*%
%ADD13RoundRect,0.250000X-0.400000X-0.625000X0.400000X-0.625000X0.400000X0.625000X-0.400000X0.625000X0*%
%ADD14R,1.900000X0.800000*%
%ADD15RoundRect,0.250000X0.625000X-0.400000X0.625000X0.400000X-0.625000X0.400000X-0.625000X-0.400000X0*%
%ADD16RoundRect,0.250000X-0.650000X0.412500X-0.650000X-0.412500X0.650000X-0.412500X0.650000X0.412500X0*%
%ADD17RoundRect,0.250000X-0.412500X-0.650000X0.412500X-0.650000X0.412500X0.650000X-0.412500X0.650000X0*%
%ADD18RoundRect,0.250000X1.400000X0.650000X-1.400000X0.650000X-1.400000X-0.650000X1.400000X-0.650000X0*%
%ADD19RoundRect,0.250000X1.399995X0.650000X-1.399995X0.650000X-1.399995X-0.650000X1.399995X-0.650000X0*%
%ADD20R,1.500000X2.000000*%
%ADD21R,3.800000X2.000000*%
%ADD22R,3.300000X1.190000*%
%ADD23RoundRect,0.250000X0.250000X0.250000X-0.250000X0.250000X-0.250000X-0.250000X0.250000X-0.250000X0*%
%ADD24RoundRect,0.250000X0.412500X0.650000X-0.412500X0.650000X-0.412500X-0.650000X0.412500X-0.650000X0*%
%ADD25RoundRect,0.250000X0.550000X-1.500000X0.550000X1.500000X-0.550000X1.500000X-0.550000X-1.500000X0*%
%ADD26R,7.500000X3.180000*%
G04 APERTURE END LIST*
D10*
X97290000Y-111870000D03*
X99790000Y-111870000D03*
D11*
X110550000Y-109330000D03*
X107450000Y-109330000D03*
D12*
X160815000Y-106855000D03*
X159545000Y-106855000D03*
X158275000Y-106855000D03*
X157005000Y-106855000D03*
X157005000Y-111805000D03*
X158275000Y-111805000D03*
X159545000Y-111805000D03*
X160815000Y-111805000D03*
D13*
X207170000Y-106790000D03*
X210270000Y-106790000D03*
D14*
X143670000Y-109330000D03*
X143670000Y-107430000D03*
X140670000Y-108380000D03*
D15*
X212250000Y-104250000D03*
X212250000Y-101150000D03*
X212250000Y-99170000D03*
X212250000Y-96070000D03*
D16*
X197010000Y-111870000D03*
X197010000Y-114995000D03*
D13*
X163990000Y-109330000D03*
X167090000Y-109330000D03*
D17*
X151290000Y-106790000D03*
X154415000Y-106790000D03*
D18*
X197070000Y-106790000D03*
D19*
X191870005Y-106790000D03*
D13*
X107450000Y-111870000D03*
X110550000Y-111870000D03*
D17*
X151290000Y-111870000D03*
X154415000Y-111870000D03*
D13*
X107450000Y-106790000D03*
X110550000Y-106790000D03*
D17*
X151290000Y-109330000D03*
X154415000Y-109330000D03*
D11*
X144230000Y-111870000D03*
X141130000Y-111870000D03*
D20*
X171850000Y-112480000D03*
X174150000Y-112480000D03*
D21*
X174150000Y-106180000D03*
D20*
X176450000Y-112480000D03*
D11*
X149310000Y-109330000D03*
X146210000Y-109330000D03*
D22*
X129650000Y-106790000D03*
X136050000Y-109330000D03*
X129650000Y-111870000D03*
D11*
X85810000Y-94090000D03*
X82710000Y-94090000D03*
X105470000Y-111870000D03*
X102370000Y-111870000D03*
D13*
X146210000Y-111870000D03*
X149310000Y-111870000D03*
D11*
X85810000Y-114410000D03*
X82710000Y-114410000D03*
D13*
X102370000Y-106790000D03*
X105470000Y-106790000D03*
D14*
X113570000Y-105840000D03*
X113570000Y-107740000D03*
X116570000Y-106790000D03*
D23*
X166490000Y-106790000D03*
X163990000Y-106790000D03*
D24*
X100415000Y-106790000D03*
X97290000Y-106790000D03*
D25*
X122690000Y-112130000D03*
X122690000Y-106530000D03*
D14*
X113570000Y-110920000D03*
X113570000Y-112820000D03*
X116570000Y-111870000D03*
D11*
X149310000Y-106790000D03*
X146210000Y-106790000D03*
D13*
X202090000Y-106790000D03*
X205190000Y-106790000D03*
D26*
X184310000Y-112820000D03*
X184310000Y-105840000D03*
M02*
