M48
; DRILL file {KiCad 7.0.10-7.0.10~ubuntu22.04.1} date So 07 Jan 2024 20:53:22 CET
; FORMAT={-:-/ absolute / metric / decimal}
; #@! TF.CreationDate,2024-01-07T20:53:22+01:00
; #@! TF.GenerationSoftware,Kicad,Pcbnew,7.0.10-7.0.10~ubuntu22.04.1
; #@! TF.FileFunction,Plated,1,2,PTH
FMAT,2
METRIC
; #@! TA.AperFunction,Plated,PTH,ViaDrill
T1C0.300
; #@! TA.AperFunction,Plated,PTH,ComponentDrill
T2C0.500
; #@! TA.AperFunction,Plated,PTH,ComponentDrill
T3C1.000
; #@! TA.AperFunction,Plated,PTH,ComponentDrill
T4C1.800
; #@! TA.AperFunction,Plated,PTH,ComponentDrill
T5C3.200
%
G90
G05
T1
X72.55Y-101.71
X72.55Y-104.25
X72.55Y-106.79
X75.09Y-101.71
X75.09Y-104.25
X75.09Y-106.79
X80.17Y-91.55
X80.17Y-96.63
X80.17Y-111.87
X80.17Y-116.95
X82.71Y-91.55
X82.71Y-116.95
X85.25Y-91.55
X85.25Y-116.95
X87.79Y-114.41
X87.79Y-116.95
X90.33Y-116.95
X92.87Y-106.79
X92.87Y-116.95
X95.41Y-106.79
X95.41Y-109.33
X105.47Y-114.41
X109.03Y-106.79
X113.57Y-108.55
X116.57Y-114.41
X118.27Y-106.79
X118.27Y-109.33
X118.27Y-111.87
X118.27Y-114.41
X120.81Y-106.79
X120.81Y-109.33
X120.81Y-111.87
X120.81Y-114.41
X125.89Y-106.79
X125.89Y-109.33
X125.89Y-111.87
X125.89Y-114.41
X128.43Y-109.33
X128.43Y-114.41
X130.97Y-109.33
X130.97Y-114.41
X133.51Y-111.87
X133.51Y-114.41
X136.05Y-114.41
X138.59Y-106.79
X138.59Y-114.41
X141.13Y-114.41
X152.852Y-106.79
X152.852Y-111.87
X152.87Y-109.33
X155.8Y-109.33
X155.81Y-106.79
X162.21Y-106.79
X162.51Y-113.721
X164.01Y-113.721
X165.51Y-113.721
X167.01Y-113.721
X169.547Y-117.391
X171.047Y-117.391
X172.547Y-117.391
X174.047Y-117.391
X197.01Y-116.95
T2
X72.6Y-94.0
X72.6Y-114.5
X73.303Y-92.303
X73.303Y-95.697
X73.303Y-112.803
X73.303Y-116.197
X75.0Y-91.6
X75.0Y-96.4
X75.0Y-112.1
X75.0Y-116.9
X76.697Y-92.303
X76.697Y-95.697
X76.697Y-112.803
X76.697Y-116.197
X77.4Y-94.0
X77.4Y-114.5
X220.1Y-94.0
X220.1Y-114.5
X220.803Y-92.303
X220.803Y-95.697
X220.803Y-112.803
X220.803Y-116.197
X222.5Y-91.6
X222.5Y-96.4
X222.5Y-112.1
X222.5Y-116.9
X224.197Y-92.303
X224.197Y-95.697
X224.197Y-112.803
X224.197Y-116.197
X224.9Y-94.0
X224.9Y-114.5
T3
X82.71Y-101.71
X82.71Y-104.25
X82.71Y-106.79
X85.25Y-101.71
X85.25Y-104.25
X85.25Y-106.79
T4
X93.53Y-96.63
X101.15Y-96.63
X196.53Y-96.63
X204.15Y-96.63
T5
X75.0Y-94.0
X75.0Y-114.5
X222.5Y-94.0
X222.5Y-114.5
M30
