G04 #@! TF.GenerationSoftware,KiCad,Pcbnew,7.0.10-7.0.10~ubuntu22.04.1*
G04 #@! TF.CreationDate,2024-01-07T20:53:06+01:00*
G04 #@! TF.ProjectId,Geiger Tube Driver,47656967-6572-4205-9475-626520447269,1.1*
G04 #@! TF.SameCoordinates,Original*
G04 #@! TF.FileFunction,Copper,L2,Bot*
G04 #@! TF.FilePolarity,Positive*
%FSLAX46Y46*%
G04 Gerber Fmt 4.6, Leading zero omitted, Abs format (unit mm)*
G04 Created by KiCad (PCBNEW 7.0.10-7.0.10~ubuntu22.04.1) date 2024-01-07 20:53:06*
%MOMM*%
%LPD*%
G01*
G04 APERTURE LIST*
G04 Aperture macros list*
%AMRoundRect*
0 Rectangle with rounded corners*
0 $1 Rounding radius*
0 $2 $3 $4 $5 $6 $7 $8 $9 X,Y pos of 4 corners*
0 Add a 4 corners polygon primitive as box body*
4,1,4,$2,$3,$4,$5,$6,$7,$8,$9,$2,$3,0*
0 Add four circle primitives for the rounded corners*
1,1,$1+$1,$2,$3*
1,1,$1+$1,$4,$5*
1,1,$1+$1,$6,$7*
1,1,$1+$1,$8,$9*
0 Add four rect primitives between the rounded corners*
20,1,$1+$1,$2,$3,$4,$5,0*
20,1,$1+$1,$4,$5,$6,$7,0*
20,1,$1+$1,$6,$7,$8,$9,0*
20,1,$1+$1,$8,$9,$2,$3,0*%
G04 Aperture macros list end*
G04 #@! TA.AperFunction,ComponentPad*
%ADD10C,1.000000*%
G04 #@! TD*
G04 #@! TA.AperFunction,ComponentPad*
%ADD11C,6.400000*%
G04 #@! TD*
G04 #@! TA.AperFunction,ComponentPad*
%ADD12R,1.700000X1.700000*%
G04 #@! TD*
G04 #@! TA.AperFunction,ComponentPad*
%ADD13O,1.700000X1.700000*%
G04 #@! TD*
G04 #@! TA.AperFunction,ComponentPad*
%ADD14R,4.000000X4.000000*%
G04 #@! TD*
G04 #@! TA.AperFunction,ComponentPad*
%ADD15C,4.000000*%
G04 #@! TD*
G04 #@! TA.AperFunction,SMDPad,CuDef*
%ADD16RoundRect,0.250001X0.462499X0.624999X-0.462499X0.624999X-0.462499X-0.624999X0.462499X-0.624999X0*%
G04 #@! TD*
G04 #@! TA.AperFunction,ViaPad*
%ADD17C,0.500000*%
G04 #@! TD*
G04 #@! TA.AperFunction,Conductor*
%ADD18C,2.500000*%
G04 #@! TD*
G04 #@! TA.AperFunction,Conductor*
%ADD19C,0.600000*%
G04 #@! TD*
G04 #@! TA.AperFunction,Conductor*
%ADD20C,1.700000*%
G04 #@! TD*
G04 #@! TA.AperFunction,Conductor*
%ADD21C,4.000000*%
G04 #@! TD*
G04 APERTURE END LIST*
D10*
X72600000Y-114500000D03*
X73302944Y-112802944D03*
X73302944Y-116197056D03*
X75000000Y-112100000D03*
D11*
X75000000Y-114500000D03*
D10*
X75000000Y-116900000D03*
X76697056Y-112802944D03*
X76697056Y-116197056D03*
X77400000Y-114500000D03*
X72600000Y-94000000D03*
X73302944Y-92302944D03*
X73302944Y-95697056D03*
X75000000Y-91600000D03*
D11*
X75000000Y-94000000D03*
D10*
X75000000Y-96400000D03*
X76697056Y-92302944D03*
X76697056Y-95697056D03*
X77400000Y-94000000D03*
D12*
X85250000Y-106790000D03*
D13*
X82710000Y-106790000D03*
X85250000Y-104250000D03*
X82710000Y-104250000D03*
X85250000Y-101710000D03*
X82710000Y-101710000D03*
D10*
X220100000Y-114500000D03*
X220802944Y-112802944D03*
X220802944Y-116197056D03*
X222500000Y-112100000D03*
D11*
X222500000Y-114500000D03*
D10*
X222500000Y-116900000D03*
X224197056Y-112802944D03*
X224197056Y-116197056D03*
X224900000Y-114500000D03*
X220100000Y-94000000D03*
X220802944Y-92302944D03*
X220802944Y-95697056D03*
X222500000Y-91600000D03*
D11*
X222500000Y-94000000D03*
D10*
X222500000Y-96400000D03*
X224197056Y-92302944D03*
X224197056Y-95697056D03*
X224900000Y-94000000D03*
D14*
X204150000Y-96630000D03*
X196530000Y-96630000D03*
D15*
X101150000Y-96630000D03*
X93530000Y-96630000D03*
D16*
X85685000Y-96630000D03*
X82710000Y-96630000D03*
X85685000Y-111870000D03*
X82710000Y-111870000D03*
D17*
X87790000Y-116950000D03*
X118270000Y-109330000D03*
X120810000Y-114410000D03*
X80170000Y-91550000D03*
X109030000Y-106790000D03*
X80170000Y-116950000D03*
X130970000Y-109330000D03*
X138590000Y-114410000D03*
X118270000Y-106790000D03*
X130970000Y-114410000D03*
X120810000Y-106790000D03*
X136050000Y-114410000D03*
X72550000Y-104250000D03*
X133510000Y-111870000D03*
X162210000Y-106790000D03*
X113570000Y-108550000D03*
X75090000Y-101710000D03*
X92870000Y-106790000D03*
X72550000Y-106790000D03*
X128430000Y-114410000D03*
X95410000Y-106790000D03*
X85250000Y-116950000D03*
X125890000Y-114410000D03*
X125890000Y-106790000D03*
X152870000Y-109330000D03*
X82710000Y-116950000D03*
X120810000Y-109330000D03*
X152852500Y-106790000D03*
X95410000Y-109330000D03*
X92870000Y-116950000D03*
X125890000Y-109330000D03*
X90330000Y-116950000D03*
X152852500Y-111870000D03*
X118270000Y-114410000D03*
X75090000Y-106790000D03*
X85250000Y-91550000D03*
X118270000Y-111870000D03*
X133510000Y-114410000D03*
X72550000Y-101710000D03*
X197010000Y-116950000D03*
X128430000Y-109330000D03*
X125890000Y-111870000D03*
X82710000Y-91550000D03*
X155800000Y-109330000D03*
X141130000Y-114410000D03*
X75090000Y-104250000D03*
X120810000Y-111870000D03*
X172546901Y-117390636D03*
X171046901Y-117390636D03*
X164010000Y-113721141D03*
X162510000Y-113721141D03*
X165510000Y-113721141D03*
X167010000Y-113721141D03*
X174046901Y-117390636D03*
X169546901Y-117390636D03*
X80170000Y-111870000D03*
X80170000Y-96630000D03*
X155810000Y-106790000D03*
X138590000Y-106790000D03*
X87790000Y-114410000D03*
X105470000Y-114410000D03*
X116570000Y-114410000D03*
D18*
X82710000Y-101710000D02*
X85250000Y-101710000D01*
D19*
X169546901Y-117390636D02*
X171046901Y-117390636D01*
X169546901Y-117390636D02*
X168593098Y-116436833D01*
X164010000Y-113721141D02*
X165510000Y-113721141D01*
X172546901Y-117390636D02*
X174046901Y-117390636D01*
X171046901Y-117390636D02*
X172546901Y-117390636D01*
X167612799Y-113721141D02*
X167010000Y-113721141D01*
X162510000Y-113721141D02*
X164010000Y-113721141D01*
X168593098Y-114701440D02*
X167612799Y-113721141D01*
X168593098Y-116436833D02*
X168593098Y-114701440D01*
D20*
X82710000Y-106790000D02*
X85250000Y-106790000D01*
D19*
X165510000Y-113721141D02*
X167010000Y-113721141D01*
D21*
X101150000Y-96630000D02*
X93530000Y-96630000D01*
D20*
X82710000Y-104250000D02*
X85250000Y-104250000D01*
D19*
X80170000Y-111870000D02*
X82710000Y-111870000D01*
X80170000Y-96630000D02*
X82710000Y-96630000D01*
D21*
X196530000Y-96630000D02*
X204150000Y-96630000D01*
D19*
X155810000Y-106790000D02*
X154547311Y-108052689D01*
X154547311Y-108052689D02*
X139852689Y-108052689D01*
X139852689Y-108052689D02*
X138590000Y-106790000D01*
X105470000Y-114410000D02*
X87790000Y-114410000D01*
X116570000Y-114410000D02*
X105470000Y-114410000D01*
G04 #@! TA.AperFunction,Conductor*
G36*
X89607177Y-89520185D02*
G01*
X89652932Y-89572989D01*
X89662876Y-89642147D01*
X89633851Y-89705703D01*
X89627819Y-89712181D01*
X87790000Y-91549999D01*
X87790000Y-91550000D01*
X87790000Y-101710000D01*
X90330000Y-104250000D01*
X207170000Y-104250000D01*
X209710000Y-101710000D01*
X209710000Y-94000000D01*
X218995197Y-94000000D01*
X219014397Y-94366353D01*
X219071784Y-94728684D01*
X219071784Y-94728686D01*
X219166736Y-95083051D01*
X219298204Y-95425535D01*
X219464754Y-95752406D01*
X219664549Y-96060064D01*
X219821658Y-96254076D01*
X220378678Y-95697056D01*
X220548046Y-95697056D01*
X220567449Y-95794601D01*
X220622704Y-95877296D01*
X220705399Y-95932551D01*
X220778320Y-95947056D01*
X220827568Y-95947056D01*
X220900489Y-95932551D01*
X220983184Y-95877296D01*
X221038439Y-95794601D01*
X221057842Y-95697056D01*
X221038439Y-95599511D01*
X220983184Y-95516816D01*
X220900489Y-95461561D01*
X220827568Y-95447056D01*
X220778320Y-95447056D01*
X220705399Y-95461561D01*
X220622704Y-95516816D01*
X220567449Y-95599511D01*
X220548046Y-95697056D01*
X220378678Y-95697056D01*
X221175276Y-94900458D01*
X221201570Y-94943365D01*
X221365130Y-95134870D01*
X221556635Y-95298430D01*
X221599540Y-95324722D01*
X220245922Y-96678341D01*
X220439924Y-96835442D01*
X220439937Y-96835451D01*
X220747593Y-97035245D01*
X221074464Y-97201795D01*
X221416948Y-97333263D01*
X221771314Y-97428215D01*
X222133646Y-97485602D01*
X222499999Y-97504803D01*
X222500001Y-97504803D01*
X222866353Y-97485602D01*
X223228684Y-97428215D01*
X223228686Y-97428215D01*
X223583051Y-97333263D01*
X223925535Y-97201795D01*
X224252406Y-97035245D01*
X224560065Y-96835450D01*
X224754077Y-96678341D01*
X223772792Y-95697056D01*
X223942158Y-95697056D01*
X223961561Y-95794601D01*
X224016816Y-95877296D01*
X224099511Y-95932551D01*
X224172432Y-95947056D01*
X224221680Y-95947056D01*
X224294601Y-95932551D01*
X224377296Y-95877296D01*
X224432551Y-95794601D01*
X224451954Y-95697056D01*
X224432551Y-95599511D01*
X224377296Y-95516816D01*
X224294601Y-95461561D01*
X224221680Y-95447056D01*
X224172432Y-95447056D01*
X224099511Y-95461561D01*
X224016816Y-95516816D01*
X223961561Y-95599511D01*
X223942158Y-95697056D01*
X223772792Y-95697056D01*
X223400458Y-95324722D01*
X223443365Y-95298430D01*
X223634870Y-95134870D01*
X223798430Y-94943365D01*
X223824722Y-94900458D01*
X225178341Y-96254077D01*
X225335450Y-96060065D01*
X225535245Y-95752406D01*
X225701795Y-95425535D01*
X225833263Y-95083051D01*
X225928215Y-94728686D01*
X225928215Y-94728684D01*
X225985602Y-94366353D01*
X226004803Y-94000000D01*
X226004803Y-93999999D01*
X225985602Y-93633646D01*
X225928215Y-93271315D01*
X225928215Y-93271313D01*
X225833263Y-92916948D01*
X225701795Y-92574464D01*
X225535245Y-92247594D01*
X225335450Y-91939935D01*
X225178340Y-91745922D01*
X223824722Y-93099540D01*
X223798430Y-93056635D01*
X223634870Y-92865130D01*
X223443365Y-92701570D01*
X223400458Y-92675277D01*
X223772791Y-92302944D01*
X223942158Y-92302944D01*
X223961561Y-92400489D01*
X224016816Y-92483184D01*
X224099511Y-92538439D01*
X224172432Y-92552944D01*
X224221680Y-92552944D01*
X224294601Y-92538439D01*
X224377296Y-92483184D01*
X224432551Y-92400489D01*
X224451954Y-92302944D01*
X224432551Y-92205399D01*
X224377296Y-92122704D01*
X224294601Y-92067449D01*
X224221680Y-92052944D01*
X224172432Y-92052944D01*
X224099511Y-92067449D01*
X224016816Y-92122704D01*
X223961561Y-92205399D01*
X223942158Y-92302944D01*
X223772791Y-92302944D01*
X224754077Y-91321658D01*
X224560064Y-91164549D01*
X224252406Y-90964754D01*
X223925535Y-90798204D01*
X223583051Y-90666736D01*
X223228685Y-90571784D01*
X222866353Y-90514397D01*
X222500001Y-90495197D01*
X222499999Y-90495197D01*
X222133646Y-90514397D01*
X221771315Y-90571784D01*
X221771313Y-90571784D01*
X221416948Y-90666736D01*
X221074464Y-90798204D01*
X220747594Y-90964754D01*
X220439929Y-91164553D01*
X220245922Y-91321658D01*
X221599541Y-92675277D01*
X221556635Y-92701570D01*
X221365130Y-92865130D01*
X221201570Y-93056635D01*
X221175277Y-93099541D01*
X220378680Y-92302944D01*
X220548046Y-92302944D01*
X220567449Y-92400489D01*
X220622704Y-92483184D01*
X220705399Y-92538439D01*
X220778320Y-92552944D01*
X220827568Y-92552944D01*
X220900489Y-92538439D01*
X220983184Y-92483184D01*
X221038439Y-92400489D01*
X221057842Y-92302944D01*
X221038439Y-92205399D01*
X220983184Y-92122704D01*
X220900489Y-92067449D01*
X220827568Y-92052944D01*
X220778320Y-92052944D01*
X220705399Y-92067449D01*
X220622704Y-92122704D01*
X220567449Y-92205399D01*
X220548046Y-92302944D01*
X220378680Y-92302944D01*
X219821658Y-91745922D01*
X219664553Y-91939929D01*
X219464754Y-92247594D01*
X219298204Y-92574464D01*
X219166736Y-92916948D01*
X219071784Y-93271313D01*
X219071784Y-93271315D01*
X219014397Y-93633646D01*
X218995197Y-93999999D01*
X218995197Y-94000000D01*
X209710000Y-94000000D01*
X209710000Y-91550000D01*
X207872181Y-89712181D01*
X207838696Y-89650858D01*
X207843680Y-89581166D01*
X207885552Y-89525233D01*
X207951016Y-89500816D01*
X207959862Y-89500500D01*
X224434108Y-89500500D01*
X224496249Y-89500500D01*
X224503736Y-89500726D01*
X224793796Y-89518271D01*
X224808657Y-89520075D01*
X225090798Y-89571780D01*
X225105335Y-89575363D01*
X225379172Y-89660695D01*
X225393163Y-89666000D01*
X225654743Y-89783727D01*
X225667989Y-89790680D01*
X225913465Y-89939075D01*
X225925776Y-89947573D01*
X226151573Y-90124473D01*
X226162781Y-90134403D01*
X226365596Y-90337218D01*
X226375526Y-90348426D01*
X226495481Y-90501538D01*
X226552422Y-90574217D01*
X226560928Y-90586540D01*
X226709316Y-90832004D01*
X226716275Y-90845263D01*
X226833997Y-91106831D01*
X226839306Y-91120832D01*
X226924635Y-91394663D01*
X226928219Y-91409201D01*
X226979923Y-91691340D01*
X226981728Y-91706205D01*
X226999274Y-91996263D01*
X226999500Y-92003750D01*
X226999500Y-116496249D01*
X226999274Y-116503736D01*
X226981728Y-116793794D01*
X226979923Y-116808659D01*
X226928219Y-117090798D01*
X226924635Y-117105336D01*
X226839306Y-117379167D01*
X226833997Y-117393168D01*
X226716275Y-117654736D01*
X226709316Y-117667995D01*
X226560928Y-117913459D01*
X226552422Y-117925782D01*
X226375526Y-118151573D01*
X226365596Y-118162781D01*
X226162781Y-118365596D01*
X226151573Y-118375526D01*
X225925782Y-118552422D01*
X225913459Y-118560928D01*
X225667995Y-118709316D01*
X225654736Y-118716275D01*
X225393168Y-118833997D01*
X225379167Y-118839306D01*
X225105336Y-118924635D01*
X225090798Y-118928219D01*
X224808659Y-118979923D01*
X224793794Y-118981728D01*
X224503736Y-118999274D01*
X224496249Y-118999500D01*
X73003751Y-118999500D01*
X72996264Y-118999274D01*
X72706205Y-118981728D01*
X72691340Y-118979923D01*
X72409201Y-118928219D01*
X72394663Y-118924635D01*
X72120832Y-118839306D01*
X72106831Y-118833997D01*
X71845263Y-118716275D01*
X71832004Y-118709316D01*
X71586540Y-118560928D01*
X71574217Y-118552422D01*
X71348426Y-118375526D01*
X71337218Y-118365596D01*
X71134403Y-118162781D01*
X71124473Y-118151573D01*
X71009486Y-118004803D01*
X70947573Y-117925776D01*
X70939075Y-117913465D01*
X70790680Y-117667989D01*
X70783727Y-117654743D01*
X70666000Y-117393163D01*
X70660693Y-117379167D01*
X70647070Y-117335450D01*
X70575363Y-117105335D01*
X70571780Y-117090798D01*
X70536815Y-116900000D01*
X70520075Y-116808657D01*
X70518271Y-116793794D01*
X70500726Y-116503736D01*
X70500500Y-116496249D01*
X70500500Y-114500000D01*
X71495197Y-114500000D01*
X71514397Y-114866353D01*
X71571784Y-115228684D01*
X71571784Y-115228686D01*
X71666736Y-115583051D01*
X71798204Y-115925535D01*
X71964754Y-116252406D01*
X72164549Y-116560064D01*
X72321658Y-116754076D01*
X72878678Y-116197056D01*
X73048046Y-116197056D01*
X73067449Y-116294601D01*
X73122704Y-116377296D01*
X73205399Y-116432551D01*
X73278320Y-116447056D01*
X73327568Y-116447056D01*
X73400489Y-116432551D01*
X73483184Y-116377296D01*
X73538439Y-116294601D01*
X73557842Y-116197056D01*
X73538439Y-116099511D01*
X73483184Y-116016816D01*
X73400489Y-115961561D01*
X73327568Y-115947056D01*
X73278320Y-115947056D01*
X73205399Y-115961561D01*
X73122704Y-116016816D01*
X73067449Y-116099511D01*
X73048046Y-116197056D01*
X72878678Y-116197056D01*
X73675276Y-115400458D01*
X73701570Y-115443365D01*
X73865130Y-115634870D01*
X74056635Y-115798430D01*
X74099540Y-115824722D01*
X72745922Y-117178341D01*
X72939924Y-117335442D01*
X72939937Y-117335451D01*
X73247593Y-117535245D01*
X73574464Y-117701795D01*
X73916948Y-117833263D01*
X74271314Y-117928215D01*
X74633646Y-117985602D01*
X74999999Y-118004803D01*
X75000001Y-118004803D01*
X75366353Y-117985602D01*
X75728684Y-117928215D01*
X75728686Y-117928215D01*
X76083051Y-117833263D01*
X76425535Y-117701795D01*
X76752406Y-117535245D01*
X77060065Y-117335450D01*
X77254077Y-117178341D01*
X76272792Y-116197056D01*
X76442158Y-116197056D01*
X76461561Y-116294601D01*
X76516816Y-116377296D01*
X76599511Y-116432551D01*
X76672432Y-116447056D01*
X76721680Y-116447056D01*
X76794601Y-116432551D01*
X76877296Y-116377296D01*
X76932551Y-116294601D01*
X76951954Y-116197056D01*
X76932551Y-116099511D01*
X76877296Y-116016816D01*
X76794601Y-115961561D01*
X76721680Y-115947056D01*
X76672432Y-115947056D01*
X76599511Y-115961561D01*
X76516816Y-116016816D01*
X76461561Y-116099511D01*
X76442158Y-116197056D01*
X76272792Y-116197056D01*
X75900458Y-115824722D01*
X75943365Y-115798430D01*
X76134870Y-115634870D01*
X76298430Y-115443365D01*
X76324722Y-115400458D01*
X77678341Y-116754077D01*
X77835450Y-116560065D01*
X78035245Y-116252406D01*
X78201795Y-115925535D01*
X78333263Y-115583051D01*
X78428215Y-115228686D01*
X78428215Y-115228684D01*
X78485602Y-114866353D01*
X78504803Y-114500000D01*
X78504803Y-114499999D01*
X78500086Y-114410001D01*
X87184318Y-114410001D01*
X87204955Y-114566760D01*
X87204956Y-114566762D01*
X87260741Y-114701440D01*
X87265464Y-114712841D01*
X87361718Y-114838282D01*
X87487159Y-114934536D01*
X87633238Y-114995044D01*
X87750639Y-115010500D01*
X87750646Y-115010500D01*
X116609354Y-115010500D01*
X116609361Y-115010500D01*
X116726762Y-114995044D01*
X116872841Y-114934536D01*
X116998282Y-114838282D01*
X117094536Y-114712841D01*
X117155044Y-114566762D01*
X117175682Y-114410000D01*
X117155044Y-114253238D01*
X117094536Y-114107159D01*
X116998282Y-113981718D01*
X116872841Y-113885464D01*
X116854587Y-113877903D01*
X116726762Y-113824956D01*
X116726760Y-113824955D01*
X116609370Y-113809501D01*
X116609367Y-113809500D01*
X116609361Y-113809500D01*
X105509361Y-113809500D01*
X87750639Y-113809500D01*
X87750633Y-113809500D01*
X87750629Y-113809501D01*
X87633239Y-113824955D01*
X87633237Y-113824956D01*
X87487160Y-113885463D01*
X87361718Y-113981718D01*
X87265463Y-114107160D01*
X87204956Y-114253237D01*
X87204955Y-114253239D01*
X87184318Y-114409998D01*
X87184318Y-114410001D01*
X78500086Y-114410001D01*
X78485602Y-114133646D01*
X78428215Y-113771315D01*
X78428215Y-113771313D01*
X78414772Y-113721142D01*
X161904318Y-113721142D01*
X161924955Y-113877901D01*
X161924956Y-113877903D01*
X161985464Y-114023982D01*
X162081718Y-114149423D01*
X162207159Y-114245677D01*
X162353238Y-114306185D01*
X162470639Y-114321641D01*
X163970639Y-114321641D01*
X165470639Y-114321641D01*
X166970639Y-114321641D01*
X167312702Y-114321641D01*
X167379741Y-114341326D01*
X167400383Y-114357960D01*
X167956279Y-114913856D01*
X167989764Y-114975179D01*
X167992598Y-115001537D01*
X167992598Y-116389345D01*
X167991537Y-116405530D01*
X167987416Y-116436831D01*
X167987416Y-116436833D01*
X167992598Y-116476193D01*
X167992598Y-116476194D01*
X168008053Y-116593593D01*
X168008054Y-116593595D01*
X168068562Y-116739674D01*
X168119142Y-116805591D01*
X168164817Y-116865116D01*
X168189867Y-116884337D01*
X168202062Y-116895032D01*
X169088700Y-117781670D01*
X169099394Y-117793864D01*
X169118616Y-117818915D01*
X169118617Y-117818916D01*
X169118619Y-117818918D01*
X169244060Y-117915172D01*
X169390139Y-117975680D01*
X169468520Y-117985999D01*
X169546900Y-117996318D01*
X169546901Y-117996318D01*
X169578203Y-117992196D01*
X169594388Y-117991136D01*
X174086255Y-117991136D01*
X174086262Y-117991136D01*
X174203663Y-117975680D01*
X174349742Y-117915172D01*
X174475183Y-117818918D01*
X174571437Y-117693477D01*
X174631945Y-117547398D01*
X174652583Y-117390636D01*
X174631945Y-117233874D01*
X174571437Y-117087795D01*
X174475183Y-116962354D01*
X174349742Y-116866100D01*
X174347366Y-116865116D01*
X174203663Y-116805592D01*
X174203661Y-116805591D01*
X174086271Y-116790137D01*
X174086268Y-116790136D01*
X174086262Y-116790136D01*
X174086255Y-116790136D01*
X169846998Y-116790136D01*
X169779959Y-116770451D01*
X169759317Y-116753817D01*
X169229917Y-116224417D01*
X169196432Y-116163094D01*
X169193598Y-116136736D01*
X169193598Y-114748927D01*
X169194659Y-114732741D01*
X169198780Y-114701439D01*
X169198780Y-114701438D01*
X169178142Y-114544679D01*
X169178140Y-114544674D01*
X169159636Y-114500000D01*
X218995197Y-114500000D01*
X219014397Y-114866353D01*
X219071784Y-115228684D01*
X219071784Y-115228686D01*
X219166736Y-115583051D01*
X219298204Y-115925535D01*
X219464754Y-116252406D01*
X219664549Y-116560064D01*
X219821658Y-116754076D01*
X220378678Y-116197056D01*
X220548046Y-116197056D01*
X220567449Y-116294601D01*
X220622704Y-116377296D01*
X220705399Y-116432551D01*
X220778320Y-116447056D01*
X220827568Y-116447056D01*
X220900489Y-116432551D01*
X220983184Y-116377296D01*
X221038439Y-116294601D01*
X221057842Y-116197056D01*
X221038439Y-116099511D01*
X220983184Y-116016816D01*
X220900489Y-115961561D01*
X220827568Y-115947056D01*
X220778320Y-115947056D01*
X220705399Y-115961561D01*
X220622704Y-116016816D01*
X220567449Y-116099511D01*
X220548046Y-116197056D01*
X220378678Y-116197056D01*
X221175276Y-115400458D01*
X221201570Y-115443365D01*
X221365130Y-115634870D01*
X221556635Y-115798430D01*
X221599540Y-115824722D01*
X220245922Y-117178341D01*
X220439924Y-117335442D01*
X220439937Y-117335451D01*
X220747593Y-117535245D01*
X221074464Y-117701795D01*
X221416948Y-117833263D01*
X221771314Y-117928215D01*
X222133646Y-117985602D01*
X222499999Y-118004803D01*
X222500001Y-118004803D01*
X222866353Y-117985602D01*
X223228684Y-117928215D01*
X223228686Y-117928215D01*
X223583051Y-117833263D01*
X223925535Y-117701795D01*
X224252406Y-117535245D01*
X224560065Y-117335450D01*
X224754077Y-117178341D01*
X223772792Y-116197056D01*
X223942158Y-116197056D01*
X223961561Y-116294601D01*
X224016816Y-116377296D01*
X224099511Y-116432551D01*
X224172432Y-116447056D01*
X224221680Y-116447056D01*
X224294601Y-116432551D01*
X224377296Y-116377296D01*
X224432551Y-116294601D01*
X224451954Y-116197056D01*
X224432551Y-116099511D01*
X224377296Y-116016816D01*
X224294601Y-115961561D01*
X224221680Y-115947056D01*
X224172432Y-115947056D01*
X224099511Y-115961561D01*
X224016816Y-116016816D01*
X223961561Y-116099511D01*
X223942158Y-116197056D01*
X223772792Y-116197056D01*
X223400458Y-115824722D01*
X223443365Y-115798430D01*
X223634870Y-115634870D01*
X223798430Y-115443365D01*
X223824722Y-115400458D01*
X225178341Y-116754077D01*
X225335450Y-116560065D01*
X225535245Y-116252406D01*
X225701795Y-115925535D01*
X225833263Y-115583051D01*
X225928215Y-115228686D01*
X225928215Y-115228684D01*
X225985602Y-114866353D01*
X226004803Y-114500000D01*
X226004803Y-114499999D01*
X225985602Y-114133646D01*
X225928215Y-113771315D01*
X225928215Y-113771313D01*
X225833263Y-113416948D01*
X225701795Y-113074464D01*
X225535245Y-112747594D01*
X225335450Y-112439935D01*
X225178340Y-112245922D01*
X223824722Y-113599540D01*
X223798430Y-113556635D01*
X223634870Y-113365130D01*
X223443365Y-113201570D01*
X223400458Y-113175277D01*
X223772791Y-112802944D01*
X223942158Y-112802944D01*
X223961561Y-112900489D01*
X224016816Y-112983184D01*
X224099511Y-113038439D01*
X224172432Y-113052944D01*
X224221680Y-113052944D01*
X224294601Y-113038439D01*
X224377296Y-112983184D01*
X224432551Y-112900489D01*
X224451954Y-112802944D01*
X224432551Y-112705399D01*
X224377296Y-112622704D01*
X224294601Y-112567449D01*
X224221680Y-112552944D01*
X224172432Y-112552944D01*
X224099511Y-112567449D01*
X224016816Y-112622704D01*
X223961561Y-112705399D01*
X223942158Y-112802944D01*
X223772791Y-112802944D01*
X224754077Y-111821658D01*
X224560064Y-111664549D01*
X224252406Y-111464754D01*
X223925535Y-111298204D01*
X223583051Y-111166736D01*
X223228685Y-111071784D01*
X222866353Y-111014397D01*
X222500001Y-110995197D01*
X222499999Y-110995197D01*
X222133646Y-111014397D01*
X221771315Y-111071784D01*
X221771313Y-111071784D01*
X221416948Y-111166736D01*
X221074464Y-111298204D01*
X220747594Y-111464754D01*
X220439929Y-111664553D01*
X220245922Y-111821658D01*
X221599541Y-113175277D01*
X221556635Y-113201570D01*
X221365130Y-113365130D01*
X221201570Y-113556635D01*
X221175277Y-113599541D01*
X220378680Y-112802944D01*
X220548046Y-112802944D01*
X220567449Y-112900489D01*
X220622704Y-112983184D01*
X220705399Y-113038439D01*
X220778320Y-113052944D01*
X220827568Y-113052944D01*
X220900489Y-113038439D01*
X220983184Y-112983184D01*
X221038439Y-112900489D01*
X221057842Y-112802944D01*
X221038439Y-112705399D01*
X220983184Y-112622704D01*
X220900489Y-112567449D01*
X220827568Y-112552944D01*
X220778320Y-112552944D01*
X220705399Y-112567449D01*
X220622704Y-112622704D01*
X220567449Y-112705399D01*
X220548046Y-112802944D01*
X220378680Y-112802944D01*
X219821658Y-112245922D01*
X219664553Y-112439929D01*
X219464754Y-112747594D01*
X219298204Y-113074464D01*
X219166736Y-113416948D01*
X219071784Y-113771313D01*
X219071784Y-113771315D01*
X219014397Y-114133646D01*
X218995197Y-114499999D01*
X218995197Y-114500000D01*
X169159636Y-114500000D01*
X169117636Y-114398603D01*
X169117633Y-114398598D01*
X169045549Y-114304656D01*
X169045548Y-114304655D01*
X169031859Y-114286815D01*
X169021379Y-114273156D01*
X168996327Y-114253934D01*
X168984132Y-114243239D01*
X168070998Y-113330105D01*
X168060303Y-113317910D01*
X168041082Y-113292860D01*
X168041081Y-113292859D01*
X167915640Y-113196605D01*
X167769561Y-113136097D01*
X167769559Y-113136096D01*
X167652160Y-113120641D01*
X167612799Y-113115459D01*
X167581496Y-113119580D01*
X167565312Y-113120641D01*
X167049361Y-113120641D01*
X165549361Y-113120641D01*
X164049361Y-113120641D01*
X162470639Y-113120641D01*
X162470633Y-113120641D01*
X162470629Y-113120642D01*
X162353239Y-113136096D01*
X162353237Y-113136097D01*
X162207160Y-113196604D01*
X162081718Y-113292859D01*
X161985463Y-113418301D01*
X161924956Y-113564378D01*
X161924955Y-113564380D01*
X161904318Y-113721139D01*
X161904318Y-113721142D01*
X78414772Y-113721142D01*
X78333263Y-113416948D01*
X78201795Y-113074464D01*
X78035245Y-112747594D01*
X77835450Y-112439935D01*
X77678340Y-112245922D01*
X76324722Y-113599540D01*
X76298430Y-113556635D01*
X76134870Y-113365130D01*
X75943365Y-113201570D01*
X75900458Y-113175277D01*
X76272791Y-112802944D01*
X76442158Y-112802944D01*
X76461561Y-112900489D01*
X76516816Y-112983184D01*
X76599511Y-113038439D01*
X76672432Y-113052944D01*
X76721680Y-113052944D01*
X76794601Y-113038439D01*
X76877296Y-112983184D01*
X76932551Y-112900489D01*
X76951954Y-112802944D01*
X76932551Y-112705399D01*
X76877296Y-112622704D01*
X76794601Y-112567449D01*
X76721680Y-112552944D01*
X76672432Y-112552944D01*
X76599511Y-112567449D01*
X76516816Y-112622704D01*
X76461561Y-112705399D01*
X76442158Y-112802944D01*
X76272791Y-112802944D01*
X77205734Y-111870001D01*
X79564318Y-111870001D01*
X79584955Y-112026760D01*
X79584956Y-112026762D01*
X79645464Y-112172841D01*
X79741718Y-112298282D01*
X79867159Y-112394536D01*
X80013238Y-112455044D01*
X80130639Y-112470500D01*
X81578883Y-112470500D01*
X81645922Y-112490185D01*
X81691677Y-112542989D01*
X81701999Y-112579717D01*
X81707623Y-112626562D01*
X81763139Y-112767342D01*
X81763140Y-112767344D01*
X81854577Y-112887922D01*
X81975155Y-112979359D01*
X81975158Y-112979361D01*
X82115936Y-113034876D01*
X82204401Y-113045500D01*
X83215598Y-113045499D01*
X83304064Y-113034876D01*
X83444842Y-112979361D01*
X83565422Y-112887922D01*
X83656861Y-112767342D01*
X83712376Y-112626564D01*
X83723000Y-112538099D01*
X83723000Y-112170000D01*
X84672501Y-112170000D01*
X84672501Y-112538052D01*
X84683113Y-112626443D01*
X84683115Y-112626447D01*
X84738578Y-112767091D01*
X84738579Y-112767093D01*
X84829935Y-112887564D01*
X84950406Y-112978920D01*
X84950408Y-112978921D01*
X85091054Y-113034385D01*
X85179447Y-113044999D01*
X85384999Y-113044999D01*
X85385000Y-113044998D01*
X85385000Y-112170000D01*
X85985000Y-112170000D01*
X85985000Y-113044999D01*
X86190553Y-113044999D01*
X86278943Y-113034386D01*
X86278947Y-113034384D01*
X86419591Y-112978921D01*
X86419593Y-112978920D01*
X86540064Y-112887564D01*
X86631420Y-112767093D01*
X86631421Y-112767091D01*
X86686885Y-112626445D01*
X86697500Y-112538052D01*
X86697500Y-112170000D01*
X85985000Y-112170000D01*
X85385000Y-112170000D01*
X84672501Y-112170000D01*
X83723000Y-112170000D01*
X83722999Y-111570000D01*
X84672500Y-111570000D01*
X85385000Y-111570000D01*
X85385000Y-110695000D01*
X85985000Y-110695000D01*
X85985000Y-111570000D01*
X86697499Y-111570000D01*
X86697499Y-111201947D01*
X86686886Y-111113556D01*
X86686884Y-111113552D01*
X86631421Y-110972908D01*
X86631420Y-110972906D01*
X86540064Y-110852435D01*
X86419593Y-110761079D01*
X86419591Y-110761078D01*
X86278945Y-110705614D01*
X86190553Y-110695000D01*
X85985000Y-110695000D01*
X85385000Y-110695000D01*
X85179447Y-110695000D01*
X85091056Y-110705613D01*
X85091052Y-110705615D01*
X84950408Y-110761078D01*
X84950406Y-110761079D01*
X84829935Y-110852435D01*
X84738579Y-110972906D01*
X84738578Y-110972908D01*
X84683114Y-111113554D01*
X84672500Y-111201947D01*
X84672500Y-111570000D01*
X83722999Y-111570000D01*
X83722999Y-111201902D01*
X83712376Y-111113436D01*
X83656861Y-110972658D01*
X83565693Y-110852435D01*
X83565422Y-110852077D01*
X83444844Y-110760640D01*
X83444842Y-110760639D01*
X83304064Y-110705124D01*
X83304061Y-110705123D01*
X83215599Y-110694500D01*
X82204408Y-110694500D01*
X82115937Y-110705123D01*
X81975157Y-110760639D01*
X81975155Y-110760640D01*
X81854577Y-110852077D01*
X81763140Y-110972655D01*
X81707624Y-111113437D01*
X81707623Y-111113438D01*
X81701998Y-111160285D01*
X81674461Y-111224499D01*
X81616578Y-111263632D01*
X81578883Y-111269500D01*
X80130639Y-111269500D01*
X80130633Y-111269500D01*
X80130629Y-111269501D01*
X80013239Y-111284955D01*
X80013237Y-111284956D01*
X79867160Y-111345463D01*
X79741718Y-111441718D01*
X79645463Y-111567160D01*
X79584956Y-111713237D01*
X79584955Y-111713239D01*
X79564318Y-111869998D01*
X79564318Y-111870001D01*
X77205734Y-111870001D01*
X77254077Y-111821658D01*
X77060064Y-111664549D01*
X76752406Y-111464754D01*
X76425535Y-111298204D01*
X76083051Y-111166736D01*
X75728685Y-111071784D01*
X75366353Y-111014397D01*
X75000001Y-110995197D01*
X74999999Y-110995197D01*
X74633646Y-111014397D01*
X74271315Y-111071784D01*
X74271313Y-111071784D01*
X73916948Y-111166736D01*
X73574464Y-111298204D01*
X73247594Y-111464754D01*
X72939929Y-111664553D01*
X72745922Y-111821658D01*
X74099541Y-113175277D01*
X74056635Y-113201570D01*
X73865130Y-113365130D01*
X73701570Y-113556635D01*
X73675277Y-113599541D01*
X72878680Y-112802944D01*
X73048046Y-112802944D01*
X73067449Y-112900489D01*
X73122704Y-112983184D01*
X73205399Y-113038439D01*
X73278320Y-113052944D01*
X73327568Y-113052944D01*
X73400489Y-113038439D01*
X73483184Y-112983184D01*
X73538439Y-112900489D01*
X73557842Y-112802944D01*
X73538439Y-112705399D01*
X73483184Y-112622704D01*
X73400489Y-112567449D01*
X73327568Y-112552944D01*
X73278320Y-112552944D01*
X73205399Y-112567449D01*
X73122704Y-112622704D01*
X73067449Y-112705399D01*
X73048046Y-112802944D01*
X72878680Y-112802944D01*
X72321658Y-112245922D01*
X72164553Y-112439929D01*
X71964754Y-112747594D01*
X71798204Y-113074464D01*
X71666736Y-113416948D01*
X71571784Y-113771313D01*
X71571784Y-113771315D01*
X71514397Y-114133646D01*
X71495197Y-114499999D01*
X71495197Y-114500000D01*
X70500500Y-114500000D01*
X70500500Y-106790000D01*
X81554571Y-106790000D01*
X81558971Y-106837484D01*
X81559500Y-106848925D01*
X81559500Y-106896612D01*
X81568260Y-106943479D01*
X81569842Y-106954817D01*
X81574243Y-107002307D01*
X81587294Y-107048175D01*
X81589915Y-107059321D01*
X81598679Y-107106198D01*
X81615906Y-107150666D01*
X81619544Y-107161522D01*
X81626734Y-107186790D01*
X81632595Y-107207389D01*
X81632597Y-107207393D01*
X81653852Y-107250081D01*
X81658477Y-107260556D01*
X81675702Y-107305019D01*
X81700809Y-107345569D01*
X81706381Y-107355574D01*
X81727632Y-107398253D01*
X81756370Y-107436308D01*
X81762841Y-107445755D01*
X81787947Y-107486301D01*
X81787948Y-107486302D01*
X81820073Y-107521541D01*
X81827384Y-107530345D01*
X81839922Y-107546948D01*
X81856125Y-107568404D01*
X81891369Y-107600534D01*
X81899464Y-107608629D01*
X81931594Y-107643873D01*
X81969647Y-107672610D01*
X81978457Y-107679926D01*
X82004980Y-107704104D01*
X82013698Y-107712052D01*
X82044770Y-107731291D01*
X82054242Y-107737156D01*
X82063691Y-107743629D01*
X82101745Y-107772366D01*
X82144441Y-107793625D01*
X82154439Y-107799195D01*
X82194979Y-107824297D01*
X82194981Y-107824298D01*
X82239453Y-107841526D01*
X82249926Y-107846150D01*
X82292611Y-107867405D01*
X82292615Y-107867406D01*
X82292622Y-107867409D01*
X82338481Y-107880457D01*
X82349339Y-107884095D01*
X82393802Y-107901321D01*
X82393813Y-107901323D01*
X82440666Y-107910081D01*
X82451820Y-107912704D01*
X82497690Y-107925756D01*
X82545179Y-107930156D01*
X82556499Y-107931734D01*
X82603390Y-107940500D01*
X82603393Y-107940500D01*
X85309308Y-107940500D01*
X85309328Y-107940499D01*
X86144856Y-107940499D01*
X86144864Y-107940499D01*
X86144879Y-107940497D01*
X86144882Y-107940497D01*
X86169987Y-107937586D01*
X86169988Y-107937585D01*
X86169991Y-107937585D01*
X86272765Y-107892206D01*
X86352206Y-107812765D01*
X86397585Y-107709991D01*
X86400500Y-107684865D01*
X86400500Y-106896610D01*
X86400500Y-106790001D01*
X137984318Y-106790001D01*
X138004955Y-106946760D01*
X138004957Y-106946765D01*
X138065461Y-107092836D01*
X138065464Y-107092841D01*
X138137548Y-107186783D01*
X138137554Y-107186790D01*
X139394489Y-108443724D01*
X139405177Y-108455910D01*
X139424407Y-108480971D01*
X139549848Y-108577225D01*
X139695927Y-108637733D01*
X139774308Y-108648052D01*
X139852688Y-108658371D01*
X139852689Y-108658371D01*
X139883991Y-108654249D01*
X139900176Y-108653189D01*
X154499824Y-108653189D01*
X154516008Y-108654249D01*
X154547311Y-108658371D01*
X154547312Y-108658371D01*
X154599565Y-108651491D01*
X154704073Y-108637733D01*
X154850152Y-108577225D01*
X154975593Y-108480971D01*
X154994821Y-108455911D01*
X155005500Y-108443733D01*
X156262450Y-107186785D01*
X156334536Y-107092841D01*
X156395044Y-106946762D01*
X156415682Y-106790000D01*
X156409430Y-106742514D01*
X156395044Y-106633239D01*
X156395044Y-106633238D01*
X156334536Y-106487159D01*
X156238282Y-106361718D01*
X156112841Y-106265464D01*
X156026168Y-106229563D01*
X155966762Y-106204956D01*
X155966760Y-106204955D01*
X155810001Y-106184318D01*
X155809999Y-106184318D01*
X155653239Y-106204955D01*
X155653234Y-106204957D01*
X155507163Y-106265461D01*
X155507158Y-106265464D01*
X155413216Y-106337548D01*
X155413209Y-106337554D01*
X154334895Y-107415870D01*
X154273572Y-107449355D01*
X154247214Y-107452189D01*
X140152786Y-107452189D01*
X140085747Y-107432504D01*
X140065105Y-107415870D01*
X138986790Y-106337554D01*
X138986783Y-106337548D01*
X138892841Y-106265464D01*
X138892836Y-106265461D01*
X138746765Y-106204957D01*
X138746760Y-106204955D01*
X138590001Y-106184318D01*
X138589999Y-106184318D01*
X138433239Y-106204955D01*
X138433237Y-106204956D01*
X138287160Y-106265463D01*
X138161718Y-106361718D01*
X138065463Y-106487160D01*
X138004956Y-106633237D01*
X138004955Y-106633239D01*
X137984318Y-106789998D01*
X137984318Y-106790001D01*
X86400500Y-106790001D01*
X86400500Y-106683390D01*
X86400500Y-106673401D01*
X86400499Y-106673387D01*
X86400499Y-105895143D01*
X86400499Y-105895136D01*
X86400497Y-105895117D01*
X86397586Y-105870012D01*
X86397585Y-105870010D01*
X86397585Y-105870009D01*
X86352206Y-105767235D01*
X86272765Y-105687794D01*
X86252124Y-105678680D01*
X86169992Y-105642415D01*
X86144868Y-105639500D01*
X86144865Y-105639500D01*
X85416247Y-105639500D01*
X85349208Y-105619815D01*
X85303453Y-105567011D01*
X85293509Y-105497853D01*
X85322534Y-105434297D01*
X85381312Y-105396523D01*
X85393455Y-105393613D01*
X85403477Y-105391739D01*
X85414822Y-105390156D01*
X85462310Y-105385756D01*
X85508179Y-105372703D01*
X85519331Y-105370081D01*
X85566198Y-105361321D01*
X85610673Y-105344090D01*
X85621521Y-105340455D01*
X85667389Y-105327405D01*
X85710079Y-105306147D01*
X85720533Y-105301530D01*
X85765019Y-105284298D01*
X85805563Y-105259193D01*
X85815556Y-105253626D01*
X85858255Y-105232366D01*
X85896325Y-105203615D01*
X85905743Y-105197164D01*
X85946302Y-105172052D01*
X85981559Y-105139909D01*
X85990351Y-105132610D01*
X86028407Y-105103872D01*
X86060547Y-105068615D01*
X86068615Y-105060547D01*
X86103872Y-105028407D01*
X86132613Y-104990346D01*
X86139909Y-104981559D01*
X86172052Y-104946302D01*
X86197164Y-104905743D01*
X86203615Y-104896325D01*
X86232366Y-104858255D01*
X86253626Y-104815556D01*
X86259195Y-104805560D01*
X86284298Y-104765019D01*
X86301530Y-104720533D01*
X86306151Y-104710071D01*
X86327405Y-104667389D01*
X86340455Y-104621520D01*
X86344093Y-104610666D01*
X86361321Y-104566198D01*
X86370081Y-104519331D01*
X86372704Y-104508179D01*
X86372705Y-104508175D01*
X86385756Y-104462310D01*
X86390157Y-104414817D01*
X86391735Y-104403496D01*
X86400500Y-104356610D01*
X86400500Y-104308925D01*
X86401029Y-104297484D01*
X86405429Y-104250000D01*
X86405429Y-104249999D01*
X86401029Y-104202514D01*
X86400500Y-104191073D01*
X86400500Y-104143393D01*
X86400500Y-104143390D01*
X86391734Y-104096499D01*
X86390155Y-104085170D01*
X86385756Y-104037692D01*
X86385755Y-104037688D01*
X86372704Y-103991820D01*
X86370081Y-103980666D01*
X86361323Y-103933813D01*
X86361321Y-103933802D01*
X86344093Y-103889331D01*
X86340457Y-103878481D01*
X86327409Y-103832622D01*
X86327406Y-103832615D01*
X86327405Y-103832611D01*
X86306150Y-103789925D01*
X86301526Y-103779453D01*
X86284298Y-103734981D01*
X86284297Y-103734979D01*
X86259195Y-103694439D01*
X86253625Y-103684441D01*
X86232366Y-103641745D01*
X86203629Y-103603691D01*
X86197156Y-103594242D01*
X86191291Y-103584770D01*
X86172052Y-103553698D01*
X86164104Y-103544980D01*
X86139926Y-103518457D01*
X86132610Y-103509647D01*
X86103873Y-103471594D01*
X86068629Y-103439464D01*
X86060534Y-103431369D01*
X86028404Y-103396125D01*
X86006948Y-103379922D01*
X85990343Y-103367383D01*
X85981541Y-103360073D01*
X85946302Y-103327948D01*
X85946301Y-103327947D01*
X85905755Y-103302841D01*
X85896308Y-103296370D01*
X85858253Y-103267632D01*
X85815574Y-103246381D01*
X85805569Y-103240809D01*
X85765019Y-103215702D01*
X85720549Y-103198474D01*
X85710081Y-103193852D01*
X85667393Y-103172597D01*
X85667389Y-103172595D01*
X85621524Y-103159545D01*
X85610670Y-103155907D01*
X85566198Y-103138679D01*
X85566193Y-103138678D01*
X85519321Y-103129915D01*
X85508175Y-103127294D01*
X85508171Y-103127293D01*
X85499121Y-103124718D01*
X85462307Y-103114243D01*
X85414817Y-103109842D01*
X85403479Y-103108260D01*
X85368029Y-103101634D01*
X85305747Y-103069968D01*
X85270473Y-103009656D01*
X85273405Y-102939848D01*
X85313613Y-102882707D01*
X85368026Y-102857856D01*
X85566058Y-102820837D01*
X85566063Y-102820836D01*
X85764789Y-102743850D01*
X85764798Y-102743846D01*
X85945997Y-102631653D01*
X85945999Y-102631651D01*
X86103499Y-102488071D01*
X86231938Y-102317991D01*
X86326932Y-102127218D01*
X86326937Y-102127205D01*
X86360286Y-102010000D01*
X85651554Y-102010000D01*
X85709493Y-101919844D01*
X85750000Y-101781889D01*
X85750000Y-101638111D01*
X85709493Y-101500156D01*
X85651554Y-101410000D01*
X86360286Y-101410000D01*
X86360286Y-101409999D01*
X86326937Y-101292794D01*
X86326932Y-101292781D01*
X86231938Y-101102008D01*
X86103499Y-100931928D01*
X85945999Y-100788348D01*
X85945997Y-100788346D01*
X85764798Y-100676153D01*
X85764792Y-100676151D01*
X85566060Y-100599162D01*
X85550000Y-100596159D01*
X85550000Y-101308356D01*
X85523100Y-101285048D01*
X85392315Y-101225320D01*
X85285763Y-101210000D01*
X85214237Y-101210000D01*
X85107685Y-101225320D01*
X84976900Y-101285048D01*
X84950000Y-101308356D01*
X84950000Y-100596159D01*
X84933939Y-100599162D01*
X84735207Y-100676151D01*
X84735201Y-100676153D01*
X84554002Y-100788346D01*
X84554000Y-100788348D01*
X84396500Y-100931928D01*
X84268061Y-101102008D01*
X84173067Y-101292781D01*
X84173062Y-101292794D01*
X84139713Y-101409999D01*
X84139714Y-101410000D01*
X84848446Y-101410000D01*
X84790507Y-101500156D01*
X84750000Y-101638111D01*
X84750000Y-101781889D01*
X84790507Y-101919844D01*
X84848446Y-102010000D01*
X84139714Y-102010000D01*
X84173062Y-102127205D01*
X84173067Y-102127218D01*
X84268061Y-102317991D01*
X84396500Y-102488071D01*
X84554000Y-102631651D01*
X84554002Y-102631653D01*
X84735201Y-102743846D01*
X84735210Y-102743850D01*
X84933936Y-102820836D01*
X84933941Y-102820837D01*
X85109261Y-102853611D01*
X85171542Y-102885279D01*
X85206815Y-102945592D01*
X85203881Y-103015400D01*
X85163672Y-103072540D01*
X85098954Y-103098871D01*
X85086476Y-103099500D01*
X82873524Y-103099500D01*
X82806485Y-103079815D01*
X82760730Y-103027011D01*
X82750786Y-102957853D01*
X82779811Y-102894297D01*
X82838589Y-102856523D01*
X82850739Y-102853611D01*
X83026058Y-102820837D01*
X83026063Y-102820836D01*
X83224789Y-102743850D01*
X83224798Y-102743846D01*
X83405997Y-102631653D01*
X83405999Y-102631651D01*
X83563499Y-102488071D01*
X83691938Y-102317991D01*
X83786932Y-102127218D01*
X83786937Y-102127205D01*
X83820286Y-102010000D01*
X83111554Y-102010000D01*
X83169493Y-101919844D01*
X83210000Y-101781889D01*
X83210000Y-101638111D01*
X83169493Y-101500156D01*
X83111554Y-101410000D01*
X83820286Y-101410000D01*
X83820286Y-101409999D01*
X83786937Y-101292794D01*
X83786932Y-101292781D01*
X83691938Y-101102008D01*
X83563499Y-100931928D01*
X83405999Y-100788348D01*
X83405997Y-100788346D01*
X83224798Y-100676153D01*
X83224792Y-100676151D01*
X83026060Y-100599162D01*
X83010000Y-100596159D01*
X83010000Y-101308356D01*
X82983100Y-101285048D01*
X82852315Y-101225320D01*
X82745763Y-101210000D01*
X82674237Y-101210000D01*
X82567685Y-101225320D01*
X82436900Y-101285048D01*
X82410000Y-101308356D01*
X82410000Y-100596159D01*
X82393939Y-100599162D01*
X82195207Y-100676151D01*
X82195201Y-100676153D01*
X82014002Y-100788346D01*
X82014000Y-100788348D01*
X81856500Y-100931928D01*
X81728061Y-101102008D01*
X81633067Y-101292781D01*
X81633062Y-101292794D01*
X81599713Y-101409999D01*
X81599714Y-101410000D01*
X82308446Y-101410000D01*
X82250507Y-101500156D01*
X82210000Y-101638111D01*
X82210000Y-101781889D01*
X82250507Y-101919844D01*
X82308446Y-102010000D01*
X81599714Y-102010000D01*
X81633062Y-102127205D01*
X81633067Y-102127218D01*
X81728061Y-102317991D01*
X81856500Y-102488071D01*
X82014000Y-102631651D01*
X82014002Y-102631653D01*
X82195201Y-102743846D01*
X82195210Y-102743850D01*
X82393936Y-102820836D01*
X82393941Y-102820837D01*
X82591972Y-102857856D01*
X82654253Y-102889524D01*
X82689526Y-102949836D01*
X82686592Y-103019645D01*
X82646383Y-103076785D01*
X82591969Y-103101634D01*
X82556519Y-103108260D01*
X82545182Y-103109842D01*
X82497690Y-103114244D01*
X82451827Y-103127293D01*
X82440683Y-103129914D01*
X82393805Y-103138678D01*
X82393798Y-103138680D01*
X82349331Y-103155906D01*
X82338478Y-103159543D01*
X82292616Y-103172593D01*
X82292606Y-103172597D01*
X82249925Y-103193849D01*
X82239456Y-103198471D01*
X82239443Y-103198477D01*
X82194977Y-103215703D01*
X82194976Y-103215704D01*
X82154428Y-103240809D01*
X82144427Y-103246379D01*
X82101758Y-103267626D01*
X82101742Y-103267636D01*
X82063683Y-103296375D01*
X82054241Y-103302843D01*
X82013699Y-103327947D01*
X81978457Y-103360073D01*
X81969653Y-103367383D01*
X81931594Y-103396126D01*
X81899464Y-103431370D01*
X81891370Y-103439464D01*
X81856126Y-103471594D01*
X81827383Y-103509653D01*
X81820073Y-103518457D01*
X81787947Y-103553699D01*
X81762843Y-103594241D01*
X81756375Y-103603683D01*
X81727636Y-103641742D01*
X81727626Y-103641758D01*
X81706379Y-103684427D01*
X81700809Y-103694428D01*
X81675704Y-103734976D01*
X81675703Y-103734977D01*
X81658474Y-103779451D01*
X81653849Y-103789925D01*
X81632597Y-103832606D01*
X81632593Y-103832616D01*
X81619543Y-103878478D01*
X81615906Y-103889331D01*
X81598680Y-103933798D01*
X81598678Y-103933805D01*
X81589914Y-103980683D01*
X81587293Y-103991827D01*
X81574244Y-104037690D01*
X81569842Y-104085182D01*
X81568260Y-104096518D01*
X81559500Y-104143384D01*
X81559500Y-104191073D01*
X81558971Y-104202514D01*
X81554571Y-104249999D01*
X81554571Y-104250000D01*
X81558971Y-104297484D01*
X81559500Y-104308925D01*
X81559500Y-104356612D01*
X81568260Y-104403479D01*
X81569842Y-104414817D01*
X81574243Y-104462307D01*
X81587294Y-104508175D01*
X81589915Y-104519321D01*
X81598678Y-104566191D01*
X81598679Y-104566198D01*
X81615902Y-104610657D01*
X81615906Y-104610666D01*
X81619545Y-104621524D01*
X81632595Y-104667389D01*
X81632597Y-104667393D01*
X81653852Y-104710081D01*
X81658477Y-104720556D01*
X81675702Y-104765019D01*
X81700809Y-104805569D01*
X81706381Y-104815574D01*
X81727632Y-104858253D01*
X81756370Y-104896308D01*
X81762841Y-104905755D01*
X81787947Y-104946301D01*
X81787948Y-104946302D01*
X81820073Y-104981541D01*
X81827384Y-104990345D01*
X81839922Y-105006948D01*
X81856125Y-105028404D01*
X81856127Y-105028406D01*
X81856128Y-105028407D01*
X81891369Y-105060534D01*
X81899464Y-105068629D01*
X81931594Y-105103873D01*
X81969647Y-105132610D01*
X81978457Y-105139926D01*
X82004980Y-105164104D01*
X82013698Y-105172052D01*
X82044770Y-105191291D01*
X82054242Y-105197156D01*
X82063691Y-105203629D01*
X82075512Y-105212556D01*
X82101745Y-105232366D01*
X82144441Y-105253625D01*
X82154436Y-105259193D01*
X82194981Y-105284298D01*
X82239442Y-105301522D01*
X82239453Y-105301526D01*
X82249926Y-105306150D01*
X82292611Y-105327405D01*
X82292615Y-105327406D01*
X82292622Y-105327409D01*
X82338481Y-105340457D01*
X82349339Y-105344095D01*
X82393802Y-105361321D01*
X82393813Y-105361323D01*
X82440666Y-105370081D01*
X82451820Y-105372704D01*
X82497690Y-105385756D01*
X82545179Y-105390156D01*
X82556518Y-105391738D01*
X82590613Y-105398112D01*
X82652893Y-105429781D01*
X82688165Y-105490093D01*
X82685231Y-105559901D01*
X82645021Y-105617041D01*
X82590607Y-105641889D01*
X82569540Y-105645826D01*
X82556517Y-105648261D01*
X82545182Y-105649842D01*
X82497690Y-105654244D01*
X82451827Y-105667293D01*
X82440683Y-105669914D01*
X82393805Y-105678678D01*
X82393798Y-105678680D01*
X82349331Y-105695906D01*
X82338478Y-105699543D01*
X82292616Y-105712593D01*
X82292606Y-105712597D01*
X82249925Y-105733849D01*
X82239456Y-105738471D01*
X82224612Y-105744222D01*
X82194977Y-105755703D01*
X82194976Y-105755704D01*
X82154428Y-105780809D01*
X82144427Y-105786379D01*
X82101758Y-105807626D01*
X82101742Y-105807636D01*
X82063683Y-105836375D01*
X82054241Y-105842843D01*
X82013699Y-105867947D01*
X81978457Y-105900073D01*
X81969653Y-105907383D01*
X81931594Y-105936126D01*
X81899464Y-105971370D01*
X81891370Y-105979464D01*
X81856126Y-106011594D01*
X81827383Y-106049653D01*
X81820073Y-106058457D01*
X81787947Y-106093699D01*
X81762843Y-106134241D01*
X81756375Y-106143683D01*
X81727636Y-106181742D01*
X81727626Y-106181758D01*
X81706379Y-106224427D01*
X81700809Y-106234428D01*
X81675704Y-106274976D01*
X81675703Y-106274977D01*
X81658474Y-106319451D01*
X81653849Y-106329925D01*
X81632597Y-106372606D01*
X81632593Y-106372616D01*
X81619543Y-106418478D01*
X81615906Y-106429331D01*
X81598680Y-106473798D01*
X81598678Y-106473805D01*
X81589914Y-106520683D01*
X81587293Y-106531827D01*
X81574244Y-106577690D01*
X81569842Y-106625182D01*
X81568260Y-106636518D01*
X81559500Y-106683384D01*
X81559500Y-106731073D01*
X81558971Y-106742514D01*
X81554571Y-106789999D01*
X81554571Y-106790000D01*
X70500500Y-106790000D01*
X70500500Y-94000000D01*
X71495197Y-94000000D01*
X71514397Y-94366353D01*
X71571784Y-94728684D01*
X71571784Y-94728686D01*
X71666736Y-95083051D01*
X71798204Y-95425535D01*
X71964754Y-95752406D01*
X72164549Y-96060064D01*
X72321658Y-96254076D01*
X72878678Y-95697056D01*
X73048046Y-95697056D01*
X73067449Y-95794601D01*
X73122704Y-95877296D01*
X73205399Y-95932551D01*
X73278320Y-95947056D01*
X73327568Y-95947056D01*
X73400489Y-95932551D01*
X73483184Y-95877296D01*
X73538439Y-95794601D01*
X73557842Y-95697056D01*
X73538439Y-95599511D01*
X73483184Y-95516816D01*
X73400489Y-95461561D01*
X73327568Y-95447056D01*
X73278320Y-95447056D01*
X73205399Y-95461561D01*
X73122704Y-95516816D01*
X73067449Y-95599511D01*
X73048046Y-95697056D01*
X72878678Y-95697056D01*
X73675276Y-94900458D01*
X73701570Y-94943365D01*
X73865130Y-95134870D01*
X74056635Y-95298430D01*
X74099540Y-95324722D01*
X72745922Y-96678341D01*
X72939924Y-96835442D01*
X72939937Y-96835451D01*
X73247593Y-97035245D01*
X73574464Y-97201795D01*
X73916948Y-97333263D01*
X74271314Y-97428215D01*
X74633646Y-97485602D01*
X74999999Y-97504803D01*
X75000001Y-97504803D01*
X75366353Y-97485602D01*
X75728684Y-97428215D01*
X75728686Y-97428215D01*
X76083051Y-97333263D01*
X76425535Y-97201795D01*
X76752406Y-97035245D01*
X77060065Y-96835450D01*
X77254077Y-96678341D01*
X77205737Y-96630001D01*
X79564318Y-96630001D01*
X79584955Y-96786760D01*
X79584956Y-96786762D01*
X79645464Y-96932841D01*
X79741718Y-97058282D01*
X79867159Y-97154536D01*
X80013238Y-97215044D01*
X80130639Y-97230500D01*
X81578883Y-97230500D01*
X81645922Y-97250185D01*
X81691677Y-97302989D01*
X81701999Y-97339717D01*
X81707623Y-97386562D01*
X81763139Y-97527342D01*
X81763140Y-97527344D01*
X81854577Y-97647922D01*
X81975155Y-97739359D01*
X81975158Y-97739361D01*
X82115936Y-97794876D01*
X82204401Y-97805500D01*
X83215598Y-97805499D01*
X83304064Y-97794876D01*
X83444842Y-97739361D01*
X83565422Y-97647922D01*
X83656861Y-97527342D01*
X83712376Y-97386564D01*
X83723000Y-97298099D01*
X83723000Y-96930000D01*
X84672501Y-96930000D01*
X84672501Y-97298052D01*
X84683113Y-97386443D01*
X84683115Y-97386447D01*
X84738578Y-97527091D01*
X84738579Y-97527093D01*
X84829935Y-97647564D01*
X84950406Y-97738920D01*
X84950408Y-97738921D01*
X85091054Y-97794385D01*
X85179447Y-97804999D01*
X85384999Y-97804999D01*
X85385000Y-97804998D01*
X85385000Y-96930000D01*
X85985000Y-96930000D01*
X85985000Y-97804999D01*
X86190553Y-97804999D01*
X86278943Y-97794386D01*
X86278947Y-97794384D01*
X86419591Y-97738921D01*
X86419593Y-97738920D01*
X86540064Y-97647564D01*
X86631420Y-97527093D01*
X86631421Y-97527091D01*
X86686885Y-97386445D01*
X86697500Y-97298052D01*
X86697500Y-96930000D01*
X85985000Y-96930000D01*
X85385000Y-96930000D01*
X84672501Y-96930000D01*
X83723000Y-96930000D01*
X83722999Y-96330000D01*
X84672500Y-96330000D01*
X85385000Y-96330000D01*
X85385000Y-95455000D01*
X85985000Y-95455000D01*
X85985000Y-96330000D01*
X86697499Y-96330000D01*
X86697499Y-95961947D01*
X86686886Y-95873556D01*
X86686884Y-95873552D01*
X86631421Y-95732908D01*
X86631420Y-95732906D01*
X86540064Y-95612435D01*
X86419593Y-95521079D01*
X86419591Y-95521078D01*
X86278945Y-95465614D01*
X86190553Y-95455000D01*
X85985000Y-95455000D01*
X85385000Y-95455000D01*
X85179447Y-95455000D01*
X85091056Y-95465613D01*
X85091052Y-95465615D01*
X84950408Y-95521078D01*
X84950406Y-95521079D01*
X84829935Y-95612435D01*
X84738579Y-95732906D01*
X84738578Y-95732908D01*
X84683114Y-95873554D01*
X84672500Y-95961947D01*
X84672500Y-96330000D01*
X83722999Y-96330000D01*
X83722999Y-95961902D01*
X83712376Y-95873436D01*
X83656861Y-95732658D01*
X83565693Y-95612435D01*
X83565422Y-95612077D01*
X83444844Y-95520640D01*
X83444842Y-95520639D01*
X83304064Y-95465124D01*
X83304061Y-95465123D01*
X83215599Y-95454500D01*
X82204408Y-95454500D01*
X82115937Y-95465123D01*
X81975157Y-95520639D01*
X81975155Y-95520640D01*
X81854577Y-95612077D01*
X81763140Y-95732655D01*
X81707624Y-95873437D01*
X81707623Y-95873438D01*
X81701998Y-95920285D01*
X81674461Y-95984499D01*
X81616578Y-96023632D01*
X81578883Y-96029500D01*
X80130639Y-96029500D01*
X80130633Y-96029500D01*
X80130629Y-96029501D01*
X80013239Y-96044955D01*
X80013237Y-96044956D01*
X79867160Y-96105463D01*
X79741718Y-96201718D01*
X79645463Y-96327160D01*
X79584956Y-96473237D01*
X79584955Y-96473239D01*
X79564318Y-96629998D01*
X79564318Y-96630001D01*
X77205737Y-96630001D01*
X76272792Y-95697056D01*
X76442158Y-95697056D01*
X76461561Y-95794601D01*
X76516816Y-95877296D01*
X76599511Y-95932551D01*
X76672432Y-95947056D01*
X76721680Y-95947056D01*
X76794601Y-95932551D01*
X76877296Y-95877296D01*
X76932551Y-95794601D01*
X76951954Y-95697056D01*
X76932551Y-95599511D01*
X76877296Y-95516816D01*
X76794601Y-95461561D01*
X76721680Y-95447056D01*
X76672432Y-95447056D01*
X76599511Y-95461561D01*
X76516816Y-95516816D01*
X76461561Y-95599511D01*
X76442158Y-95697056D01*
X76272792Y-95697056D01*
X75900458Y-95324722D01*
X75943365Y-95298430D01*
X76134870Y-95134870D01*
X76298430Y-94943365D01*
X76324722Y-94900458D01*
X77678341Y-96254077D01*
X77835450Y-96060065D01*
X78035245Y-95752406D01*
X78201795Y-95425535D01*
X78333263Y-95083051D01*
X78428215Y-94728686D01*
X78428215Y-94728684D01*
X78485602Y-94366353D01*
X78504803Y-94000000D01*
X78504803Y-93999999D01*
X78485602Y-93633646D01*
X78428215Y-93271315D01*
X78428215Y-93271313D01*
X78333263Y-92916948D01*
X78201795Y-92574464D01*
X78035245Y-92247594D01*
X77835450Y-91939935D01*
X77678340Y-91745922D01*
X76324722Y-93099540D01*
X76298430Y-93056635D01*
X76134870Y-92865130D01*
X75943365Y-92701570D01*
X75900458Y-92675277D01*
X76272791Y-92302944D01*
X76442158Y-92302944D01*
X76461561Y-92400489D01*
X76516816Y-92483184D01*
X76599511Y-92538439D01*
X76672432Y-92552944D01*
X76721680Y-92552944D01*
X76794601Y-92538439D01*
X76877296Y-92483184D01*
X76932551Y-92400489D01*
X76951954Y-92302944D01*
X76932551Y-92205399D01*
X76877296Y-92122704D01*
X76794601Y-92067449D01*
X76721680Y-92052944D01*
X76672432Y-92052944D01*
X76599511Y-92067449D01*
X76516816Y-92122704D01*
X76461561Y-92205399D01*
X76442158Y-92302944D01*
X76272791Y-92302944D01*
X77254077Y-91321658D01*
X77060064Y-91164549D01*
X76752406Y-90964754D01*
X76425535Y-90798204D01*
X76083051Y-90666736D01*
X75728685Y-90571784D01*
X75366353Y-90514397D01*
X75000001Y-90495197D01*
X74999999Y-90495197D01*
X74633646Y-90514397D01*
X74271315Y-90571784D01*
X74271313Y-90571784D01*
X73916948Y-90666736D01*
X73574464Y-90798204D01*
X73247594Y-90964754D01*
X72939929Y-91164553D01*
X72745922Y-91321658D01*
X74099541Y-92675277D01*
X74056635Y-92701570D01*
X73865130Y-92865130D01*
X73701570Y-93056635D01*
X73675277Y-93099541D01*
X72878680Y-92302944D01*
X73048046Y-92302944D01*
X73067449Y-92400489D01*
X73122704Y-92483184D01*
X73205399Y-92538439D01*
X73278320Y-92552944D01*
X73327568Y-92552944D01*
X73400489Y-92538439D01*
X73483184Y-92483184D01*
X73538439Y-92400489D01*
X73557842Y-92302944D01*
X73538439Y-92205399D01*
X73483184Y-92122704D01*
X73400489Y-92067449D01*
X73327568Y-92052944D01*
X73278320Y-92052944D01*
X73205399Y-92067449D01*
X73122704Y-92122704D01*
X73067449Y-92205399D01*
X73048046Y-92302944D01*
X72878680Y-92302944D01*
X72321658Y-91745922D01*
X72164553Y-91939929D01*
X71964754Y-92247594D01*
X71798204Y-92574464D01*
X71666736Y-92916948D01*
X71571784Y-93271313D01*
X71571784Y-93271315D01*
X71514397Y-93633646D01*
X71495197Y-93999999D01*
X71495197Y-94000000D01*
X70500500Y-94000000D01*
X70500500Y-92003750D01*
X70500726Y-91996263D01*
X70518271Y-91706205D01*
X70520076Y-91691340D01*
X70571780Y-91409201D01*
X70575364Y-91394663D01*
X70589282Y-91350000D01*
X70660696Y-91120822D01*
X70665998Y-91106841D01*
X70783731Y-90845249D01*
X70790676Y-90832016D01*
X70939080Y-90586526D01*
X70947567Y-90574230D01*
X71124480Y-90348417D01*
X71134395Y-90337226D01*
X71337226Y-90134395D01*
X71348417Y-90124480D01*
X71574230Y-89947567D01*
X71586526Y-89939080D01*
X71832016Y-89790676D01*
X71845249Y-89783731D01*
X72106841Y-89665998D01*
X72120822Y-89660696D01*
X72394668Y-89575362D01*
X72409197Y-89571780D01*
X72691344Y-89520075D01*
X72706201Y-89518271D01*
X72996264Y-89500726D01*
X73003751Y-89500500D01*
X73065892Y-89500500D01*
X89540138Y-89500500D01*
X89607177Y-89520185D01*
G37*
G04 #@! TD.AperFunction*
M02*
