G04 #@! TF.GenerationSoftware,KiCad,Pcbnew,7.0.9-7.0.9~ubuntu22.04.1*
G04 #@! TF.CreationDate,2023-12-30T14:19:54+01:00*
G04 #@! TF.ProjectId,Geiger Tube Driver,47656967-6572-4205-9475-626520447269,1.1*
G04 #@! TF.SameCoordinates,Original*
G04 #@! TF.FileFunction,Copper,L1,Top*
G04 #@! TF.FilePolarity,Positive*
%FSLAX46Y46*%
G04 Gerber Fmt 4.6, Leading zero omitted, Abs format (unit mm)*
G04 Created by KiCad (PCBNEW 7.0.9-7.0.9~ubuntu22.04.1) date 2023-12-30 14:19:54*
%MOMM*%
%LPD*%
G01*
G04 APERTURE LIST*
G04 Aperture macros list*
%AMRoundRect*
0 Rectangle with rounded corners*
0 $1 Rounding radius*
0 $2 $3 $4 $5 $6 $7 $8 $9 X,Y pos of 4 corners*
0 Add a 4 corners polygon primitive as box body*
4,1,4,$2,$3,$4,$5,$6,$7,$8,$9,$2,$3,0*
0 Add four circle primitives for the rounded corners*
1,1,$1+$1,$2,$3*
1,1,$1+$1,$4,$5*
1,1,$1+$1,$6,$7*
1,1,$1+$1,$8,$9*
0 Add four rect primitives between the rounded corners*
20,1,$1+$1,$2,$3,$4,$5,0*
20,1,$1+$1,$4,$5,$6,$7,0*
20,1,$1+$1,$6,$7,$8,$9,0*
20,1,$1+$1,$8,$9,$2,$3,0*%
G04 Aperture macros list end*
G04 #@! TA.AperFunction,ComponentPad*
%ADD10C,1.000000*%
G04 #@! TD*
G04 #@! TA.AperFunction,ComponentPad*
%ADD11C,6.400000*%
G04 #@! TD*
G04 #@! TA.AperFunction,SMDPad,CuDef*
%ADD12RoundRect,0.250000X-0.250000X-0.250000X0.250000X-0.250000X0.250000X0.250000X-0.250000X0.250000X0*%
G04 #@! TD*
G04 #@! TA.AperFunction,SMDPad,CuDef*
%ADD13RoundRect,0.250000X0.400000X0.625000X-0.400000X0.625000X-0.400000X-0.625000X0.400000X-0.625000X0*%
G04 #@! TD*
G04 #@! TA.AperFunction,SMDPad,CuDef*
%ADD14RoundRect,0.150000X-0.150000X0.825000X-0.150000X-0.825000X0.150000X-0.825000X0.150000X0.825000X0*%
G04 #@! TD*
G04 #@! TA.AperFunction,SMDPad,CuDef*
%ADD15RoundRect,0.250000X-0.400000X-0.625000X0.400000X-0.625000X0.400000X0.625000X-0.400000X0.625000X0*%
G04 #@! TD*
G04 #@! TA.AperFunction,SMDPad,CuDef*
%ADD16R,1.900000X0.800000*%
G04 #@! TD*
G04 #@! TA.AperFunction,SMDPad,CuDef*
%ADD17RoundRect,0.250000X0.625000X-0.400000X0.625000X0.400000X-0.625000X0.400000X-0.625000X-0.400000X0*%
G04 #@! TD*
G04 #@! TA.AperFunction,SMDPad,CuDef*
%ADD18RoundRect,0.250000X-0.650000X0.412500X-0.650000X-0.412500X0.650000X-0.412500X0.650000X0.412500X0*%
G04 #@! TD*
G04 #@! TA.AperFunction,ComponentPad*
%ADD19R,1.700000X1.700000*%
G04 #@! TD*
G04 #@! TA.AperFunction,ComponentPad*
%ADD20O,1.700000X1.700000*%
G04 #@! TD*
G04 #@! TA.AperFunction,SMDPad,CuDef*
%ADD21RoundRect,0.250000X-0.412500X-0.650000X0.412500X-0.650000X0.412500X0.650000X-0.412500X0.650000X0*%
G04 #@! TD*
G04 #@! TA.AperFunction,SMDPad,CuDef*
%ADD22RoundRect,0.250000X1.400000X0.650000X-1.400000X0.650000X-1.400000X-0.650000X1.400000X-0.650000X0*%
G04 #@! TD*
G04 #@! TA.AperFunction,SMDPad,CuDef*
%ADD23RoundRect,0.250000X1.399995X0.650000X-1.399995X0.650000X-1.399995X-0.650000X1.399995X-0.650000X0*%
G04 #@! TD*
G04 #@! TA.AperFunction,SMDPad,CuDef*
%ADD24R,1.500000X2.000000*%
G04 #@! TD*
G04 #@! TA.AperFunction,SMDPad,CuDef*
%ADD25R,3.800000X2.000000*%
G04 #@! TD*
G04 #@! TA.AperFunction,SMDPad,CuDef*
%ADD26R,3.300000X1.190000*%
G04 #@! TD*
G04 #@! TA.AperFunction,SMDPad,CuDef*
%ADD27RoundRect,0.250000X0.250000X0.250000X-0.250000X0.250000X-0.250000X-0.250000X0.250000X-0.250000X0*%
G04 #@! TD*
G04 #@! TA.AperFunction,SMDPad,CuDef*
%ADD28RoundRect,0.250000X0.412500X0.650000X-0.412500X0.650000X-0.412500X-0.650000X0.412500X-0.650000X0*%
G04 #@! TD*
G04 #@! TA.AperFunction,SMDPad,CuDef*
%ADD29RoundRect,0.250000X0.550000X-1.500000X0.550000X1.500000X-0.550000X1.500000X-0.550000X-1.500000X0*%
G04 #@! TD*
G04 #@! TA.AperFunction,SMDPad,CuDef*
%ADD30R,7.500000X3.180000*%
G04 #@! TD*
G04 #@! TA.AperFunction,ComponentPad*
%ADD31R,4.000000X4.000000*%
G04 #@! TD*
G04 #@! TA.AperFunction,ComponentPad*
%ADD32C,4.000000*%
G04 #@! TD*
G04 #@! TA.AperFunction,ViaPad*
%ADD33C,0.500000*%
G04 #@! TD*
G04 #@! TA.AperFunction,Conductor*
%ADD34C,0.350000*%
G04 #@! TD*
G04 #@! TA.AperFunction,Conductor*
%ADD35C,0.600000*%
G04 #@! TD*
G04 #@! TA.AperFunction,Conductor*
%ADD36C,2.500000*%
G04 #@! TD*
G04 #@! TA.AperFunction,Conductor*
%ADD37C,1.300000*%
G04 #@! TD*
G04 #@! TA.AperFunction,Conductor*
%ADD38C,1.700000*%
G04 #@! TD*
G04 #@! TA.AperFunction,Conductor*
%ADD39C,0.800000*%
G04 #@! TD*
G04 #@! TA.AperFunction,Conductor*
%ADD40C,4.000000*%
G04 #@! TD*
G04 #@! TA.AperFunction,Conductor*
%ADD41C,1.000000*%
G04 #@! TD*
G04 APERTURE END LIST*
D10*
X74370000Y-111590000D03*
X75072944Y-109892944D03*
X75072944Y-113287056D03*
X76770000Y-109190000D03*
D11*
X76770000Y-111590000D03*
D10*
X76770000Y-113990000D03*
X78467056Y-109892944D03*
X78467056Y-113287056D03*
X79170000Y-111590000D03*
D12*
X99060000Y-108960000D03*
X101560000Y-108960000D03*
D13*
X112320000Y-106420000D03*
X109220000Y-106420000D03*
D14*
X162585000Y-103945000D03*
X161315000Y-103945000D03*
X160045000Y-103945000D03*
X158775000Y-103945000D03*
X158775000Y-108895000D03*
X160045000Y-108895000D03*
X161315000Y-108895000D03*
X162585000Y-108895000D03*
D15*
X208940000Y-103880000D03*
X212040000Y-103880000D03*
D16*
X145440000Y-106420000D03*
X145440000Y-104520000D03*
X142440000Y-105470000D03*
D17*
X214020000Y-101340000D03*
X214020000Y-98240000D03*
X214020000Y-96260000D03*
X214020000Y-93160000D03*
D18*
X198780000Y-108960000D03*
X198780000Y-112085000D03*
D15*
X165760000Y-106420000D03*
X168860000Y-106420000D03*
D10*
X74370000Y-91090000D03*
X75072944Y-89392944D03*
X75072944Y-92787056D03*
X76770000Y-88690000D03*
D11*
X76770000Y-91090000D03*
D10*
X76770000Y-93490000D03*
X78467056Y-89392944D03*
X78467056Y-92787056D03*
X79170000Y-91090000D03*
D19*
X87020000Y-103880000D03*
D20*
X84480000Y-103880000D03*
X87020000Y-101340000D03*
X84480000Y-101340000D03*
X87020000Y-98800000D03*
X84480000Y-98800000D03*
D21*
X153060000Y-103880000D03*
X156185000Y-103880000D03*
D22*
X198840000Y-103880000D03*
D23*
X193640005Y-103880000D03*
D15*
X109220000Y-108960000D03*
X112320000Y-108960000D03*
D21*
X153060000Y-108960000D03*
X156185000Y-108960000D03*
D15*
X109220000Y-103880000D03*
X112320000Y-103880000D03*
D21*
X153060000Y-106420000D03*
X156185000Y-106420000D03*
D13*
X146000000Y-108960000D03*
X142900000Y-108960000D03*
D24*
X173620000Y-109570000D03*
X175920000Y-109570000D03*
D25*
X175920000Y-103270000D03*
D24*
X178220000Y-109570000D03*
D13*
X151080000Y-106420000D03*
X147980000Y-106420000D03*
D26*
X131420000Y-103880000D03*
X137820000Y-106420000D03*
X131420000Y-108960000D03*
D13*
X87580000Y-91180000D03*
X84480000Y-91180000D03*
X107240000Y-108960000D03*
X104140000Y-108960000D03*
D15*
X147980000Y-108960000D03*
X151080000Y-108960000D03*
D13*
X87580000Y-111500000D03*
X84480000Y-111500000D03*
D15*
X104140000Y-103880000D03*
X107240000Y-103880000D03*
D16*
X115340000Y-102930000D03*
X115340000Y-104830000D03*
X118340000Y-103880000D03*
D27*
X168260000Y-103880000D03*
X165760000Y-103880000D03*
D28*
X102185000Y-103880000D03*
X99060000Y-103880000D03*
D29*
X124460000Y-109220000D03*
X124460000Y-103620000D03*
D16*
X115340000Y-108010000D03*
X115340000Y-109910000D03*
X118340000Y-108960000D03*
D10*
X226670000Y-111590000D03*
X225967056Y-113287056D03*
X225967056Y-109892944D03*
X224270000Y-113990000D03*
D11*
X224270000Y-111590000D03*
D10*
X224270000Y-109190000D03*
X222572944Y-113287056D03*
X222572944Y-109892944D03*
X221870000Y-111590000D03*
D13*
X151080000Y-103880000D03*
X147980000Y-103880000D03*
D15*
X203860000Y-103880000D03*
X206960000Y-103880000D03*
D30*
X186080000Y-109910000D03*
X186080000Y-102930000D03*
D10*
X221870000Y-91090000D03*
X222572944Y-89392944D03*
X222572944Y-92787056D03*
X224270000Y-88690000D03*
D11*
X224270000Y-91090000D03*
D10*
X224270000Y-93490000D03*
X225967056Y-89392944D03*
X225967056Y-92787056D03*
X226670000Y-91090000D03*
D31*
X205920000Y-93720000D03*
X198300000Y-93720000D03*
D32*
X102920000Y-93720000D03*
X95300000Y-93720000D03*
D33*
X89560000Y-114040000D03*
X120040000Y-106420000D03*
X122580000Y-111500000D03*
X81940000Y-88640000D03*
X110800000Y-103880000D03*
X81940000Y-114040000D03*
X132740000Y-106420000D03*
X140360000Y-111500000D03*
X120040000Y-103880000D03*
X132740000Y-111500000D03*
X122580000Y-103880000D03*
X137820000Y-111500000D03*
X74320000Y-101340000D03*
X135280000Y-108960000D03*
X163980000Y-103880000D03*
X115340000Y-105640000D03*
X76860000Y-98800000D03*
X94640000Y-103880000D03*
X74320000Y-103880000D03*
X130200000Y-111500000D03*
X97180000Y-103880000D03*
X87020000Y-114040000D03*
X127660000Y-111500000D03*
X127660000Y-103880000D03*
X154640000Y-106420000D03*
X84480000Y-114040000D03*
X122580000Y-106420000D03*
X154622500Y-103880000D03*
X97180000Y-106420000D03*
X94640000Y-114040000D03*
X127660000Y-106420000D03*
X92100000Y-114040000D03*
X154622500Y-108960000D03*
X120040000Y-111500000D03*
X76860000Y-103880000D03*
X87020000Y-88640000D03*
X120040000Y-108960000D03*
X135280000Y-111500000D03*
X74320000Y-98800000D03*
X198780000Y-114040000D03*
X130200000Y-106420000D03*
X127660000Y-108960000D03*
X84480000Y-88640000D03*
X157570000Y-106420000D03*
X142900000Y-111500000D03*
X76860000Y-101340000D03*
X122580000Y-108960000D03*
X174316901Y-114480636D03*
X172816901Y-114480636D03*
X165780000Y-110811141D03*
X164280000Y-110811141D03*
X167280000Y-110811141D03*
X168780000Y-110811141D03*
X175816901Y-114480636D03*
X171316901Y-114480636D03*
X81940000Y-108960000D03*
X81940000Y-93720000D03*
X157580000Y-103880000D03*
X140360000Y-103880000D03*
X89560000Y-111500000D03*
X107240000Y-111500000D03*
X118340000Y-111500000D03*
D34*
X167078121Y-105061879D02*
X164502676Y-105061879D01*
X164502676Y-105061879D02*
X164010758Y-105553797D01*
X161960037Y-105553797D02*
X161315000Y-104908760D01*
X161315000Y-104908760D02*
X161315000Y-103945000D01*
X161315000Y-103269427D02*
X161315000Y-103945000D01*
X168260000Y-103880000D02*
X167078121Y-105061879D01*
X164010758Y-105553797D02*
X161960037Y-105553797D01*
X154450025Y-102489975D02*
X160535548Y-102489975D01*
X160535548Y-102489975D02*
X161315000Y-103269427D01*
X153060000Y-103880000D02*
X154450025Y-102489975D01*
X153060000Y-103880000D02*
X151080000Y-103880000D01*
D35*
X156185000Y-106420000D02*
X157569631Y-106420000D01*
X159161144Y-106420000D02*
X160062694Y-107321550D01*
X160062694Y-107321550D02*
X160062694Y-108877306D01*
X157569631Y-106420000D02*
X159161144Y-106420000D01*
X163980000Y-103880000D02*
X162650000Y-103880000D01*
X198780000Y-112085000D02*
X198780000Y-114040000D01*
D36*
X84480000Y-98800000D02*
X87020000Y-98800000D01*
D34*
X113270000Y-104830000D02*
X115340000Y-104830000D01*
X162650000Y-103880000D02*
X162585000Y-103945000D01*
D35*
X160062694Y-108877306D02*
X160045000Y-108895000D01*
D34*
X112320000Y-103880000D02*
X110800000Y-103880000D01*
D35*
X156185000Y-106420000D02*
X154640000Y-106420000D01*
D34*
X115340000Y-105640000D02*
X115340000Y-104830000D01*
D35*
X156185000Y-108960000D02*
X154622500Y-108960000D01*
D34*
X112319999Y-103879999D02*
X113270000Y-104830000D01*
D35*
X156185000Y-103880000D02*
X154622500Y-103880000D01*
D34*
X157559430Y-107679430D02*
X158775000Y-108895000D01*
X153060000Y-106420000D02*
X154319430Y-107679430D01*
X154319430Y-107679430D02*
X157559430Y-107679430D01*
D37*
X186080000Y-109910000D02*
X186080000Y-112328687D01*
X124460000Y-109220000D02*
X124460000Y-114431735D01*
D38*
X84480000Y-103880000D02*
X87020000Y-103880000D01*
D37*
X114960000Y-114476608D02*
X109224948Y-114476608D01*
X109220000Y-108960000D02*
X109220000Y-114471660D01*
D35*
X148536850Y-110811141D02*
X155600000Y-110811141D01*
D37*
X124504873Y-114476608D02*
X114960000Y-114476608D01*
D35*
X87580000Y-92127989D02*
X81940000Y-97767989D01*
X147980000Y-110254291D02*
X148536850Y-110811141D01*
X164285801Y-110811141D02*
X155600000Y-110811141D01*
D39*
X115340000Y-109910000D02*
X115340000Y-114096608D01*
D35*
X165780000Y-110811141D02*
X167280000Y-110811141D01*
X162585000Y-108895000D02*
X162585000Y-110102952D01*
X167280000Y-110811141D02*
X168780000Y-110811141D01*
X162585000Y-110102952D02*
X163293189Y-110811141D01*
X83229666Y-103880000D02*
X84480000Y-103880000D01*
D34*
X115340000Y-114096608D02*
X114960000Y-114476608D01*
D35*
X81940000Y-102590334D02*
X83229666Y-103880000D01*
D34*
X109220000Y-114471660D02*
X109224948Y-114476608D01*
D35*
X164280000Y-110811141D02*
X165780000Y-110811141D01*
X87580000Y-91180000D02*
X87580000Y-92127989D01*
D37*
X109220000Y-114471660D02*
X97611660Y-114471660D01*
D35*
X153927367Y-110811141D02*
X155600000Y-110811141D01*
D34*
X124460000Y-114431735D02*
X124504873Y-114476608D01*
D35*
X153060000Y-108960000D02*
X153060000Y-109943774D01*
X147980000Y-108960000D02*
X147980000Y-110254291D01*
D37*
X97611660Y-114471660D02*
X87020000Y-103880000D01*
D35*
X81940000Y-97767989D02*
X81940000Y-102590334D01*
D37*
X183932079Y-114476608D02*
X124504873Y-114476608D01*
D35*
X153060000Y-109943774D02*
X153927367Y-110811141D01*
D37*
X186080000Y-112328687D02*
X183932079Y-114476608D01*
X198780000Y-108960000D02*
X198780000Y-103940000D01*
X198840000Y-103880000D02*
X203860000Y-103880000D01*
D34*
X198780000Y-103940000D02*
X198840000Y-103880000D01*
D37*
X102185000Y-93795000D02*
X102260000Y-93720000D01*
D40*
X95300000Y-93720000D02*
X102920000Y-93720000D01*
D37*
X102185000Y-103880000D02*
X104140000Y-103880000D01*
X102185000Y-103880000D02*
X102185000Y-94455000D01*
X102185000Y-94455000D02*
X102920000Y-93720000D01*
D34*
X163640436Y-101760436D02*
X151051564Y-101760436D01*
X151051564Y-101760436D02*
X149523445Y-103288555D01*
X149523445Y-104876555D02*
X147980000Y-106420000D01*
X149523445Y-103288555D02*
X149523445Y-104876555D01*
X165760000Y-103880000D02*
X163640436Y-101760436D01*
D37*
X175920000Y-109570000D02*
X175920000Y-103270000D01*
X190210000Y-102930000D02*
X191160000Y-103880000D01*
X186080000Y-102930000D02*
X190210000Y-102930000D01*
X175920000Y-103270000D02*
X185740000Y-103270000D01*
X191160000Y-103880000D02*
X193640005Y-103880000D01*
D34*
X185740000Y-103270000D02*
X186080000Y-102930000D01*
D39*
X97180000Y-108960000D02*
X89560000Y-101340000D01*
X99060000Y-108960000D02*
X97180000Y-108960000D01*
X89560000Y-101340000D02*
X87020000Y-101340000D01*
D38*
X84480000Y-101340000D02*
X87020000Y-101340000D01*
D41*
X104140000Y-108960000D02*
X101560000Y-108960000D01*
D35*
X81940000Y-110554179D02*
X82885821Y-111500000D01*
X82885821Y-111500000D02*
X84480000Y-111500000D01*
X81940000Y-108960000D02*
X81940000Y-110554179D01*
X81940000Y-93720000D02*
X81940000Y-92153381D01*
X81940000Y-92153381D02*
X82913381Y-91180000D01*
X82913381Y-91180000D02*
X84480000Y-91180000D01*
D34*
X206480000Y-93160000D02*
X205920000Y-93720000D01*
D40*
X205920000Y-93720000D02*
X198300000Y-93720000D01*
D34*
X205815832Y-93164168D02*
X205260000Y-93720000D01*
D37*
X214020000Y-93160000D02*
X206480000Y-93160000D01*
X146000000Y-111241179D02*
X147211335Y-112452514D01*
X177637486Y-112452514D02*
X178220000Y-111870000D01*
D39*
X146000000Y-108960000D02*
X146000000Y-106980000D01*
D37*
X146000000Y-108960000D02*
X146000000Y-111241179D01*
D39*
X146000000Y-106980000D02*
X145440000Y-106420000D01*
D37*
X178220000Y-111870000D02*
X178220000Y-109570000D01*
X147211335Y-112452514D02*
X177637486Y-112452514D01*
D35*
X140360000Y-103880000D02*
X141950000Y-105470000D01*
X157580000Y-103880000D02*
X158710000Y-103880000D01*
D34*
X158710000Y-103880000D02*
X158775000Y-103945000D01*
D35*
X141950000Y-105470000D02*
X142440000Y-105470000D01*
D34*
X151080000Y-108960000D02*
X149809530Y-107689530D01*
X149809530Y-107689530D02*
X147280838Y-107689530D01*
X146444000Y-105470000D02*
X142440000Y-105470000D01*
X147280838Y-107689530D02*
X146857661Y-107266353D01*
X146857661Y-105883661D02*
X146444000Y-105470000D01*
X146857661Y-107266353D02*
X146857661Y-105883661D01*
D37*
X107240000Y-103880000D02*
X109220000Y-103880000D01*
D34*
X110684253Y-102415747D02*
X114825747Y-102415747D01*
X109220000Y-103880000D02*
X110684253Y-102415747D01*
X114825747Y-102415747D02*
X115340000Y-102930000D01*
X118161000Y-106599000D02*
X118340000Y-106420000D01*
X116344000Y-108960000D02*
X118340000Y-106964000D01*
X112320000Y-108960000D02*
X116344000Y-108960000D01*
X112320000Y-106420000D02*
X112499000Y-106599000D01*
X118340000Y-106964000D02*
X118340000Y-106420000D01*
X118340000Y-106420000D02*
X118340000Y-103880000D01*
X112499000Y-106599000D02*
X118161000Y-106599000D01*
X112320000Y-106420000D02*
X112731504Y-106831504D01*
X113900200Y-108010000D02*
X113569936Y-107679736D01*
X113569936Y-107679736D02*
X110479736Y-107679736D01*
X110479736Y-107679736D02*
X109220000Y-106420000D01*
X115340000Y-108010000D02*
X113900200Y-108010000D01*
D35*
X107240000Y-108960000D02*
X107240000Y-111500000D01*
X87580000Y-111500000D02*
X89560000Y-111500000D01*
X118340000Y-111500000D02*
X118340000Y-108960000D01*
D34*
X157560431Y-105582845D02*
X159363532Y-105582845D01*
X157122516Y-105144930D02*
X157560431Y-105582845D01*
X152355070Y-105144930D02*
X157122516Y-105144930D01*
X159363532Y-105582845D02*
X160045000Y-104901377D01*
D35*
X161563623Y-106420000D02*
X160045000Y-104901377D01*
X160045000Y-104901377D02*
X160045000Y-103945000D01*
X165760000Y-106420000D02*
X161563623Y-106420000D01*
D34*
X151080000Y-106420000D02*
X152355070Y-105144930D01*
D37*
X137820000Y-106420000D02*
X140360000Y-108960000D01*
X140360000Y-108960000D02*
X142900000Y-108960000D01*
X131420000Y-103880000D02*
X135280000Y-103880000D01*
X135280000Y-103880000D02*
X137820000Y-106420000D01*
X206960000Y-103880000D02*
X208940000Y-103880000D01*
X214020000Y-103066709D02*
X213206709Y-103880000D01*
X213206709Y-103880000D02*
X212040000Y-103880000D01*
X214020000Y-101340000D02*
X214020000Y-103066709D01*
X214020000Y-98240000D02*
X214020000Y-96260000D01*
D35*
X161925792Y-107305217D02*
X163462108Y-107305217D01*
X161315000Y-108550775D02*
X161315000Y-107916009D01*
X164501651Y-108344760D02*
X168052656Y-108344760D01*
X161315000Y-107916009D02*
X161925792Y-107305217D01*
X168860000Y-107537416D02*
X168860000Y-106420000D01*
X168052656Y-108344760D02*
X168860000Y-107537416D01*
X168860000Y-107537416D02*
X170892584Y-109570000D01*
X170892584Y-109570000D02*
X173620000Y-109570000D01*
D34*
X161315000Y-108895000D02*
X161315000Y-108550775D01*
D35*
X163462108Y-107305217D02*
X164501651Y-108344760D01*
G04 #@! TA.AperFunction,Conductor*
G36*
X91377177Y-86610185D02*
G01*
X91422932Y-86662989D01*
X91432876Y-86732147D01*
X91403851Y-86795703D01*
X91397819Y-86802181D01*
X89560000Y-88639999D01*
X89560000Y-88640000D01*
X89560000Y-98800000D01*
X92100000Y-101340000D01*
X97128638Y-101340000D01*
X97195677Y-101359685D01*
X97216319Y-101376319D01*
X98394663Y-102554663D01*
X98428148Y-102615986D01*
X98423164Y-102685678D01*
X98381908Y-102741148D01*
X98254935Y-102837435D01*
X98163579Y-102957904D01*
X98108113Y-103098556D01*
X98097500Y-103186946D01*
X98097500Y-103580000D01*
X99236000Y-103580000D01*
X99303039Y-103599685D01*
X99348794Y-103652489D01*
X99360000Y-103704000D01*
X99360000Y-105080000D01*
X99515559Y-105080000D01*
X99581214Y-105072115D01*
X99650122Y-105083665D01*
X99701847Y-105130636D01*
X99720000Y-105195230D01*
X99720000Y-107284752D01*
X99720000Y-107284753D01*
X107337182Y-107275553D01*
X107338921Y-105179394D01*
X107358661Y-105112374D01*
X107411503Y-105066663D01*
X107462921Y-105055500D01*
X107683097Y-105055500D01*
X107683102Y-105055500D01*
X107771564Y-105044877D01*
X107912342Y-104989361D01*
X108032922Y-104897922D01*
X108046837Y-104879573D01*
X108103030Y-104838051D01*
X108145640Y-104830500D01*
X108314360Y-104830500D01*
X108381399Y-104850185D01*
X108413163Y-104879573D01*
X108427078Y-104897922D01*
X108547658Y-104989361D01*
X108547660Y-104989362D01*
X108662490Y-105034646D01*
X108717634Y-105077552D01*
X108740827Y-105143459D01*
X108724706Y-105211444D01*
X108674389Y-105259920D01*
X108662490Y-105265354D01*
X108547660Y-105310637D01*
X108547658Y-105310638D01*
X108427077Y-105402077D01*
X108335639Y-105522656D01*
X108280122Y-105663438D01*
X108274188Y-105712853D01*
X108269500Y-105751898D01*
X108269500Y-107088102D01*
X108273391Y-107120500D01*
X108280122Y-107176561D01*
X108280122Y-107176563D01*
X108280123Y-107176564D01*
X108291746Y-107206037D01*
X108335639Y-107317343D01*
X108427077Y-107437922D01*
X108547658Y-107529361D01*
X108547660Y-107529362D01*
X108662490Y-107574646D01*
X108717634Y-107617552D01*
X108740827Y-107683459D01*
X108724706Y-107751444D01*
X108674389Y-107799920D01*
X108662490Y-107805354D01*
X108547660Y-107850637D01*
X108547658Y-107850638D01*
X108427077Y-107942077D01*
X108330514Y-108069416D01*
X108328366Y-108067787D01*
X108288067Y-108107096D01*
X108219615Y-108121096D01*
X108154459Y-108095866D01*
X108130725Y-108068475D01*
X108129486Y-108069416D01*
X108032922Y-107942077D01*
X107912343Y-107850639D01*
X107771561Y-107795122D01*
X107725926Y-107789642D01*
X107683102Y-107784500D01*
X106796898Y-107784500D01*
X106757853Y-107789188D01*
X106708438Y-107795122D01*
X106567656Y-107850639D01*
X106447077Y-107942077D01*
X106355639Y-108062656D01*
X106300122Y-108203438D01*
X106297243Y-108227419D01*
X106289500Y-108291898D01*
X106289500Y-109628102D01*
X106293391Y-109660500D01*
X106300122Y-109716561D01*
X106300122Y-109716563D01*
X106300123Y-109716564D01*
X106309934Y-109741443D01*
X106355639Y-109857343D01*
X106447077Y-109977922D01*
X106560066Y-110063604D01*
X106567658Y-110069361D01*
X106567659Y-110069361D01*
X106575050Y-110073517D01*
X106573419Y-110076417D01*
X106616088Y-110109573D01*
X106639323Y-110175466D01*
X106639500Y-110182085D01*
X106639500Y-111539354D01*
X106639501Y-111539370D01*
X106654955Y-111656760D01*
X106654956Y-111656762D01*
X106666044Y-111683532D01*
X106715464Y-111802841D01*
X106811718Y-111928282D01*
X106937159Y-112024536D01*
X107083238Y-112085044D01*
X107161619Y-112095363D01*
X107239999Y-112105682D01*
X107240000Y-112105682D01*
X107240001Y-112105682D01*
X107292254Y-112098802D01*
X107396762Y-112085044D01*
X107542841Y-112024536D01*
X107668282Y-111928282D01*
X107764536Y-111802841D01*
X107825044Y-111656762D01*
X107840500Y-111539361D01*
X107840500Y-110182085D01*
X107860185Y-110115046D01*
X107905985Y-110075359D01*
X107904950Y-110073517D01*
X107912336Y-110069363D01*
X107912342Y-110069361D01*
X107999955Y-110002922D01*
X108032921Y-109977923D01*
X108046695Y-109959759D01*
X108102887Y-109918235D01*
X108172608Y-109913682D01*
X108233722Y-109947546D01*
X108266827Y-110009076D01*
X108269500Y-110034683D01*
X108269500Y-113397160D01*
X108249815Y-113464199D01*
X108197011Y-113509954D01*
X108145500Y-113521160D01*
X98056732Y-113521160D01*
X97989693Y-113501475D01*
X97969051Y-113484841D01*
X88206818Y-103722608D01*
X88173333Y-103661285D01*
X88170499Y-103634927D01*
X88170499Y-102985143D01*
X88170499Y-102985136D01*
X88170497Y-102985117D01*
X88167586Y-102960012D01*
X88167585Y-102960010D01*
X88167585Y-102960009D01*
X88122206Y-102857235D01*
X88042765Y-102777794D01*
X88027557Y-102771079D01*
X87939992Y-102732415D01*
X87914868Y-102729500D01*
X87914865Y-102729500D01*
X87186247Y-102729500D01*
X87119208Y-102709815D01*
X87073453Y-102657011D01*
X87063509Y-102587853D01*
X87092534Y-102524297D01*
X87151312Y-102486523D01*
X87163455Y-102483613D01*
X87176296Y-102481212D01*
X87181955Y-102480421D01*
X87232310Y-102475756D01*
X87280941Y-102461917D01*
X87286498Y-102460610D01*
X87336198Y-102451321D01*
X87383341Y-102433056D01*
X87388755Y-102431241D01*
X87437389Y-102417405D01*
X87482650Y-102394867D01*
X87487851Y-102392569D01*
X87535019Y-102374298D01*
X87578000Y-102347684D01*
X87582988Y-102344904D01*
X87628255Y-102322366D01*
X87668610Y-102291889D01*
X87673308Y-102288672D01*
X87716302Y-102262052D01*
X87753678Y-102227977D01*
X87758047Y-102224349D01*
X87798407Y-102193872D01*
X87832476Y-102156499D01*
X87836499Y-102152476D01*
X87873872Y-102118407D01*
X87895494Y-102089773D01*
X87951603Y-102048138D01*
X87994449Y-102040500D01*
X89218481Y-102040500D01*
X89285520Y-102060185D01*
X89306162Y-102076819D01*
X96668399Y-109439056D01*
X96670935Y-109441750D01*
X96712071Y-109488183D01*
X96740765Y-109507989D01*
X96763110Y-109523413D01*
X96766127Y-109525633D01*
X96814938Y-109563874D01*
X96814943Y-109563877D01*
X96824174Y-109568031D01*
X96843727Y-109579059D01*
X96852070Y-109584818D01*
X96910057Y-109606809D01*
X96913512Y-109608239D01*
X96922325Y-109612206D01*
X96970063Y-109633692D01*
X96970064Y-109633692D01*
X96970068Y-109633694D01*
X96980030Y-109635519D01*
X97001651Y-109641546D01*
X97011125Y-109645139D01*
X97011128Y-109645140D01*
X97027871Y-109647173D01*
X97072689Y-109652615D01*
X97076386Y-109653177D01*
X97137394Y-109664357D01*
X97137395Y-109664356D01*
X97137396Y-109664357D01*
X97199293Y-109660613D01*
X97203037Y-109660500D01*
X98451307Y-109660500D01*
X98518346Y-109680185D01*
X98526225Y-109685691D01*
X98537658Y-109694361D01*
X98678436Y-109749877D01*
X98766898Y-109760500D01*
X98766903Y-109760500D01*
X99353097Y-109760500D01*
X99353102Y-109760500D01*
X99441564Y-109749877D01*
X99582342Y-109694361D01*
X99702922Y-109602922D01*
X99794361Y-109482342D01*
X99849877Y-109341564D01*
X99860500Y-109253102D01*
X99860500Y-108960000D01*
X100754435Y-108960000D01*
X100759110Y-109001496D01*
X100759500Y-109008435D01*
X100759500Y-109253102D01*
X100762081Y-109274591D01*
X100770122Y-109341561D01*
X100825639Y-109482343D01*
X100917077Y-109602922D01*
X101037656Y-109694360D01*
X101037657Y-109694360D01*
X101037658Y-109694361D01*
X101178436Y-109749877D01*
X101266898Y-109760500D01*
X101515046Y-109760500D01*
X103133055Y-109760500D01*
X103200094Y-109780185D01*
X103245849Y-109832989D01*
X103248410Y-109839010D01*
X103255639Y-109857343D01*
X103347077Y-109977922D01*
X103467656Y-110069360D01*
X103467657Y-110069360D01*
X103467658Y-110069361D01*
X103608436Y-110124877D01*
X103696898Y-110135500D01*
X103696903Y-110135500D01*
X104583097Y-110135500D01*
X104583102Y-110135500D01*
X104671564Y-110124877D01*
X104812342Y-110069361D01*
X104932922Y-109977922D01*
X105024361Y-109857342D01*
X105079877Y-109716564D01*
X105090500Y-109628102D01*
X105090500Y-108291898D01*
X105079877Y-108203436D01*
X105024361Y-108062658D01*
X105024360Y-108062657D01*
X105024360Y-108062656D01*
X104932922Y-107942077D01*
X104812343Y-107850639D01*
X104671561Y-107795122D01*
X104625926Y-107789642D01*
X104583102Y-107784500D01*
X103696898Y-107784500D01*
X103657853Y-107789188D01*
X103608438Y-107795122D01*
X103467656Y-107850639D01*
X103347077Y-107942077D01*
X103255639Y-108062656D01*
X103248410Y-108080990D01*
X103205504Y-108136134D01*
X103139596Y-108159327D01*
X103133055Y-108159500D01*
X101853102Y-108159500D01*
X101266898Y-108159500D01*
X101227853Y-108164188D01*
X101178438Y-108170122D01*
X101037656Y-108225639D01*
X100917077Y-108317077D01*
X100825639Y-108437656D01*
X100770122Y-108578438D01*
X100764188Y-108627853D01*
X100759500Y-108666898D01*
X100759500Y-108666903D01*
X100759500Y-108911564D01*
X100759110Y-108918502D01*
X100754435Y-108960000D01*
X99860500Y-108960000D01*
X99860500Y-108666898D01*
X99849877Y-108578436D01*
X99794361Y-108437658D01*
X99794360Y-108437657D01*
X99794360Y-108437656D01*
X99702922Y-108317077D01*
X99582343Y-108225639D01*
X99484389Y-108187011D01*
X99441564Y-108170123D01*
X99441563Y-108170122D01*
X99441561Y-108170122D01*
X99395926Y-108164642D01*
X99353102Y-108159500D01*
X98766898Y-108159500D01*
X98727853Y-108164188D01*
X98678438Y-108170122D01*
X98572520Y-108211891D01*
X98537658Y-108225639D01*
X98526233Y-108234302D01*
X98460924Y-108259127D01*
X98451307Y-108259500D01*
X97521519Y-108259500D01*
X97454480Y-108239815D01*
X97433838Y-108223181D01*
X93755644Y-104544987D01*
X93390657Y-104180000D01*
X98097500Y-104180000D01*
X98097500Y-104573053D01*
X98108113Y-104661443D01*
X98163579Y-104802095D01*
X98254935Y-104922564D01*
X98375404Y-105013920D01*
X98516056Y-105069386D01*
X98604446Y-105080000D01*
X98760000Y-105080000D01*
X98760000Y-104180000D01*
X98097500Y-104180000D01*
X93390657Y-104180000D01*
X90071598Y-100860941D01*
X90069064Y-100858250D01*
X90027929Y-100811817D01*
X90027928Y-100811816D01*
X90027924Y-100811812D01*
X89976896Y-100776591D01*
X89973887Y-100774377D01*
X89925060Y-100736124D01*
X89925055Y-100736120D01*
X89915813Y-100731961D01*
X89896266Y-100720936D01*
X89887931Y-100715183D01*
X89887932Y-100715183D01*
X89887930Y-100715182D01*
X89829941Y-100693189D01*
X89826490Y-100691759D01*
X89769930Y-100666304D01*
X89759946Y-100664474D01*
X89738343Y-100658451D01*
X89728874Y-100654860D01*
X89728870Y-100654859D01*
X89667313Y-100647384D01*
X89663612Y-100646821D01*
X89602608Y-100635642D01*
X89602603Y-100635642D01*
X89540697Y-100639387D01*
X89536952Y-100639500D01*
X87994450Y-100639500D01*
X87927411Y-100619815D01*
X87895497Y-100590228D01*
X87873873Y-100561594D01*
X87836513Y-100527535D01*
X87832463Y-100523485D01*
X87798407Y-100486128D01*
X87758067Y-100455664D01*
X87753663Y-100452007D01*
X87716302Y-100417948D01*
X87716301Y-100417947D01*
X87673319Y-100391333D01*
X87668594Y-100388096D01*
X87628253Y-100357632D01*
X87583009Y-100335104D01*
X87578004Y-100332317D01*
X87535019Y-100305702D01*
X87487875Y-100287438D01*
X87482645Y-100285129D01*
X87437393Y-100262597D01*
X87437389Y-100262595D01*
X87388769Y-100248761D01*
X87383337Y-100246940D01*
X87336198Y-100228679D01*
X87286506Y-100219389D01*
X87280930Y-100218077D01*
X87232307Y-100204243D01*
X87181965Y-100199577D01*
X87176293Y-100198786D01*
X87138029Y-100191634D01*
X87075747Y-100159968D01*
X87040473Y-100099656D01*
X87043405Y-100029848D01*
X87083613Y-99972707D01*
X87138026Y-99947856D01*
X87336058Y-99910837D01*
X87336063Y-99910836D01*
X87534789Y-99833850D01*
X87534798Y-99833846D01*
X87715997Y-99721653D01*
X87715999Y-99721651D01*
X87873499Y-99578071D01*
X88001938Y-99407991D01*
X88096932Y-99217218D01*
X88096937Y-99217205D01*
X88130286Y-99100000D01*
X87421554Y-99100000D01*
X87479493Y-99009844D01*
X87520000Y-98871889D01*
X87520000Y-98728111D01*
X87479493Y-98590156D01*
X87421554Y-98500000D01*
X88130286Y-98500000D01*
X88130286Y-98499999D01*
X88096937Y-98382794D01*
X88096932Y-98382781D01*
X88001938Y-98192008D01*
X87873499Y-98021928D01*
X87715999Y-97878348D01*
X87715997Y-97878346D01*
X87534798Y-97766153D01*
X87534792Y-97766151D01*
X87336060Y-97689162D01*
X87320000Y-97686159D01*
X87320000Y-98398356D01*
X87293100Y-98375048D01*
X87162315Y-98315320D01*
X87055763Y-98300000D01*
X86984237Y-98300000D01*
X86877685Y-98315320D01*
X86746900Y-98375048D01*
X86720000Y-98398356D01*
X86720000Y-97686159D01*
X86703939Y-97689162D01*
X86505207Y-97766151D01*
X86505201Y-97766153D01*
X86324002Y-97878346D01*
X86324000Y-97878348D01*
X86166500Y-98021928D01*
X86038061Y-98192008D01*
X85943067Y-98382781D01*
X85943062Y-98382794D01*
X85909713Y-98499999D01*
X85909714Y-98500000D01*
X86618446Y-98500000D01*
X86560507Y-98590156D01*
X86520000Y-98728111D01*
X86520000Y-98871889D01*
X86560507Y-99009844D01*
X86618446Y-99100000D01*
X85909714Y-99100000D01*
X85943062Y-99217205D01*
X85943067Y-99217218D01*
X86038061Y-99407991D01*
X86166500Y-99578071D01*
X86324000Y-99721651D01*
X86324002Y-99721653D01*
X86505201Y-99833846D01*
X86505210Y-99833850D01*
X86703936Y-99910836D01*
X86703941Y-99910837D01*
X86879261Y-99943611D01*
X86941542Y-99975279D01*
X86976815Y-100035592D01*
X86973881Y-100105400D01*
X86933672Y-100162540D01*
X86868954Y-100188871D01*
X86856476Y-100189500D01*
X84643524Y-100189500D01*
X84576485Y-100169815D01*
X84530730Y-100117011D01*
X84520786Y-100047853D01*
X84549811Y-99984297D01*
X84608589Y-99946523D01*
X84620739Y-99943611D01*
X84796058Y-99910837D01*
X84796063Y-99910836D01*
X84994789Y-99833850D01*
X84994798Y-99833846D01*
X85175997Y-99721653D01*
X85175999Y-99721651D01*
X85333499Y-99578071D01*
X85461938Y-99407991D01*
X85556932Y-99217218D01*
X85556937Y-99217205D01*
X85590286Y-99100000D01*
X84881554Y-99100000D01*
X84939493Y-99009844D01*
X84980000Y-98871889D01*
X84980000Y-98728111D01*
X84939493Y-98590156D01*
X84881554Y-98500000D01*
X85590286Y-98500000D01*
X85590286Y-98499999D01*
X85556937Y-98382794D01*
X85556932Y-98382781D01*
X85461938Y-98192008D01*
X85333499Y-98021928D01*
X85175999Y-97878348D01*
X85175997Y-97878346D01*
X84994798Y-97766153D01*
X84994792Y-97766151D01*
X84796060Y-97689162D01*
X84780000Y-97686159D01*
X84780000Y-98398356D01*
X84753100Y-98375048D01*
X84622315Y-98315320D01*
X84515763Y-98300000D01*
X84444237Y-98300000D01*
X84337685Y-98315320D01*
X84206900Y-98375048D01*
X84180000Y-98398356D01*
X84180000Y-97686159D01*
X84163939Y-97689162D01*
X83965207Y-97766151D01*
X83965201Y-97766153D01*
X83784002Y-97878346D01*
X83784000Y-97878348D01*
X83626500Y-98021928D01*
X83498061Y-98192008D01*
X83403067Y-98382781D01*
X83403062Y-98382794D01*
X83369713Y-98499999D01*
X83369714Y-98500000D01*
X84078446Y-98500000D01*
X84020507Y-98590156D01*
X83980000Y-98728111D01*
X83980000Y-98871889D01*
X84020507Y-99009844D01*
X84078446Y-99100000D01*
X83369714Y-99100000D01*
X83403062Y-99217205D01*
X83403067Y-99217218D01*
X83498061Y-99407991D01*
X83626500Y-99578071D01*
X83784000Y-99721651D01*
X83784002Y-99721653D01*
X83965201Y-99833846D01*
X83965210Y-99833850D01*
X84163936Y-99910836D01*
X84163941Y-99910837D01*
X84361972Y-99947856D01*
X84424253Y-99979524D01*
X84459526Y-100039836D01*
X84456592Y-100109645D01*
X84416383Y-100166785D01*
X84361969Y-100191634D01*
X84323705Y-100198786D01*
X84318033Y-100199577D01*
X84267690Y-100204243D01*
X84219073Y-100218076D01*
X84213498Y-100219388D01*
X84163804Y-100228678D01*
X84163798Y-100228680D01*
X84116661Y-100246940D01*
X84111232Y-100248760D01*
X84062615Y-100262593D01*
X84062606Y-100262597D01*
X84017361Y-100285126D01*
X84012121Y-100287439D01*
X83964978Y-100305703D01*
X83964977Y-100305704D01*
X83921993Y-100332317D01*
X83916990Y-100335103D01*
X83871758Y-100357626D01*
X83871742Y-100357636D01*
X83831398Y-100388100D01*
X83826675Y-100391336D01*
X83783698Y-100417947D01*
X83746341Y-100452001D01*
X83741937Y-100455658D01*
X83701594Y-100486126D01*
X83667535Y-100523486D01*
X83663486Y-100527535D01*
X83626126Y-100561594D01*
X83595658Y-100601937D01*
X83592001Y-100606341D01*
X83557947Y-100643698D01*
X83531336Y-100686675D01*
X83528100Y-100691398D01*
X83497636Y-100731742D01*
X83497626Y-100731758D01*
X83475103Y-100776990D01*
X83472317Y-100781993D01*
X83445704Y-100824977D01*
X83445703Y-100824978D01*
X83427439Y-100872121D01*
X83425126Y-100877361D01*
X83402597Y-100922606D01*
X83402593Y-100922615D01*
X83388760Y-100971232D01*
X83386940Y-100976661D01*
X83368680Y-101023798D01*
X83368678Y-101023804D01*
X83359388Y-101073498D01*
X83358076Y-101079073D01*
X83344243Y-101127690D01*
X83339577Y-101178032D01*
X83338786Y-101183703D01*
X83329500Y-101233384D01*
X83329500Y-101283938D01*
X83329235Y-101289661D01*
X83324571Y-101339998D01*
X83324571Y-101340000D01*
X83329235Y-101390336D01*
X83329500Y-101396060D01*
X83329500Y-101446612D01*
X83338786Y-101496294D01*
X83339578Y-101501966D01*
X83344243Y-101552307D01*
X83358077Y-101600930D01*
X83359389Y-101606506D01*
X83368679Y-101656198D01*
X83386940Y-101703337D01*
X83388761Y-101708769D01*
X83402595Y-101757388D01*
X83402597Y-101757393D01*
X83425129Y-101802645D01*
X83427438Y-101807875D01*
X83442946Y-101847904D01*
X83445702Y-101855019D01*
X83472317Y-101898004D01*
X83475104Y-101903009D01*
X83497632Y-101948253D01*
X83528096Y-101988594D01*
X83531333Y-101993319D01*
X83542663Y-102011617D01*
X83557948Y-102036302D01*
X83586393Y-102067505D01*
X83592003Y-102073658D01*
X83595664Y-102078067D01*
X83626128Y-102118407D01*
X83663483Y-102152461D01*
X83663485Y-102152463D01*
X83667535Y-102156513D01*
X83701594Y-102193873D01*
X83741933Y-102224336D01*
X83746340Y-102227996D01*
X83783696Y-102262051D01*
X83826678Y-102288665D01*
X83831405Y-102291903D01*
X83853284Y-102308425D01*
X83871745Y-102322366D01*
X83904864Y-102338857D01*
X83916996Y-102344898D01*
X83921990Y-102347678D01*
X83964981Y-102374298D01*
X84012130Y-102392563D01*
X84017347Y-102394866D01*
X84049569Y-102410911D01*
X84062604Y-102417402D01*
X84062608Y-102417403D01*
X84062611Y-102417405D01*
X84062613Y-102417405D01*
X84062622Y-102417409D01*
X84111237Y-102431241D01*
X84116664Y-102433059D01*
X84163802Y-102451321D01*
X84163811Y-102451322D01*
X84163812Y-102451323D01*
X84173883Y-102453205D01*
X84213494Y-102460609D01*
X84219064Y-102461920D01*
X84235895Y-102466708D01*
X84267690Y-102475756D01*
X84318043Y-102480421D01*
X84323692Y-102481209D01*
X84340984Y-102484442D01*
X84360613Y-102488112D01*
X84422893Y-102519781D01*
X84458165Y-102580093D01*
X84455231Y-102649901D01*
X84415021Y-102707041D01*
X84360607Y-102731889D01*
X84350621Y-102733755D01*
X84323703Y-102738786D01*
X84318032Y-102739577D01*
X84267690Y-102744243D01*
X84219073Y-102758076D01*
X84213498Y-102759388D01*
X84163804Y-102768678D01*
X84163798Y-102768680D01*
X84116661Y-102786940D01*
X84111232Y-102788760D01*
X84062615Y-102802593D01*
X84062606Y-102802597D01*
X84017361Y-102825126D01*
X84012121Y-102827439D01*
X83964978Y-102845703D01*
X83964977Y-102845704D01*
X83921993Y-102872317D01*
X83916990Y-102875103D01*
X83871758Y-102897626D01*
X83871742Y-102897636D01*
X83831398Y-102928100D01*
X83826675Y-102931336D01*
X83783698Y-102957947D01*
X83746341Y-102992001D01*
X83741937Y-102995658D01*
X83701594Y-103026126D01*
X83667535Y-103063486D01*
X83663486Y-103067535D01*
X83626126Y-103101594D01*
X83595658Y-103141937D01*
X83592001Y-103146341D01*
X83561819Y-103179452D01*
X83502108Y-103215735D01*
X83432261Y-103213976D01*
X83382498Y-103183597D01*
X82576819Y-102377918D01*
X82543334Y-102316595D01*
X82540500Y-102290237D01*
X82540500Y-98068086D01*
X82560185Y-98001047D01*
X82576819Y-97980405D01*
X83244567Y-97312657D01*
X87973923Y-92583300D01*
X87980006Y-92577966D01*
X88008282Y-92556271D01*
X88036498Y-92519500D01*
X88104536Y-92430830D01*
X88125586Y-92380009D01*
X88169424Y-92325608D01*
X88194651Y-92312110D01*
X88252342Y-92289361D01*
X88372922Y-92197922D01*
X88464361Y-92077342D01*
X88519877Y-91936564D01*
X88530500Y-91848102D01*
X88530500Y-90511898D01*
X88519877Y-90423436D01*
X88464361Y-90282658D01*
X88464360Y-90282657D01*
X88464360Y-90282656D01*
X88372922Y-90162077D01*
X88252343Y-90070639D01*
X88111561Y-90015122D01*
X88065926Y-90009642D01*
X88023102Y-90004500D01*
X87136898Y-90004500D01*
X87097853Y-90009188D01*
X87048438Y-90015122D01*
X86907656Y-90070639D01*
X86787077Y-90162077D01*
X86695639Y-90282656D01*
X86640122Y-90423438D01*
X86634497Y-90470283D01*
X86629500Y-90511898D01*
X86629500Y-91848102D01*
X86634497Y-91889717D01*
X86640122Y-91936561D01*
X86690060Y-92063194D01*
X86696341Y-92132781D01*
X86664004Y-92194717D01*
X86662386Y-92196365D01*
X81546096Y-97312657D01*
X81539993Y-97318009D01*
X81511719Y-97339705D01*
X81487550Y-97371204D01*
X81415461Y-97465151D01*
X81415461Y-97465152D01*
X81354957Y-97611223D01*
X81354955Y-97611228D01*
X81334318Y-97767987D01*
X81334318Y-97767988D01*
X81338969Y-97803315D01*
X81339500Y-97811417D01*
X81339500Y-102546905D01*
X81338969Y-102555007D01*
X81334318Y-102590333D01*
X81334318Y-102590334D01*
X81339500Y-102629694D01*
X81354955Y-102747094D01*
X81354956Y-102747096D01*
X81415464Y-102893175D01*
X81511718Y-103018616D01*
X81539995Y-103040314D01*
X81546085Y-103045654D01*
X82161716Y-103661285D01*
X82774335Y-104273904D01*
X82779686Y-104280005D01*
X82801384Y-104308282D01*
X82890732Y-104376841D01*
X82926825Y-104404536D01*
X83072904Y-104465044D01*
X83105756Y-104469369D01*
X83229665Y-104485682D01*
X83229666Y-104485682D01*
X83264995Y-104481030D01*
X83273094Y-104480500D01*
X83429562Y-104480500D01*
X83496601Y-104500185D01*
X83534988Y-104539221D01*
X83557948Y-104576302D01*
X83579718Y-104600183D01*
X83592003Y-104613658D01*
X83595664Y-104618067D01*
X83626128Y-104658407D01*
X83663485Y-104692463D01*
X83667533Y-104696511D01*
X83681728Y-104712082D01*
X83701594Y-104733873D01*
X83741933Y-104764336D01*
X83746340Y-104767996D01*
X83783696Y-104802051D01*
X83826678Y-104828665D01*
X83831405Y-104831903D01*
X83861592Y-104854699D01*
X83871745Y-104862366D01*
X83888081Y-104870500D01*
X83916996Y-104884898D01*
X83921990Y-104887678D01*
X83964981Y-104914298D01*
X84012130Y-104932563D01*
X84017347Y-104934866D01*
X84049569Y-104950911D01*
X84062604Y-104957402D01*
X84062608Y-104957403D01*
X84062611Y-104957405D01*
X84062613Y-104957405D01*
X84062622Y-104957409D01*
X84111237Y-104971241D01*
X84116664Y-104973059D01*
X84163802Y-104991321D01*
X84163811Y-104991322D01*
X84163812Y-104991323D01*
X84173883Y-104993205D01*
X84213494Y-105000609D01*
X84219064Y-105001920D01*
X84232729Y-105005808D01*
X84267690Y-105015756D01*
X84318043Y-105020421D01*
X84323695Y-105021210D01*
X84373390Y-105030500D01*
X84426806Y-105030500D01*
X86125135Y-105030500D01*
X86774928Y-105030500D01*
X86841967Y-105050185D01*
X86862609Y-105066819D01*
X96931032Y-115135242D01*
X96989334Y-115196577D01*
X96989335Y-115196578D01*
X97037073Y-115229805D01*
X97040821Y-115232630D01*
X97085909Y-115269394D01*
X97114658Y-115284411D01*
X97121376Y-115288481D01*
X97148002Y-115307013D01*
X97201479Y-115329961D01*
X97205698Y-115331965D01*
X97257254Y-115358896D01*
X97288438Y-115367819D01*
X97295821Y-115370447D01*
X97325646Y-115383246D01*
X97325648Y-115383247D01*
X97382624Y-115394955D01*
X97387190Y-115396076D01*
X97443108Y-115412077D01*
X97475465Y-115414540D01*
X97483219Y-115415627D01*
X97515004Y-115422160D01*
X97573163Y-115422160D01*
X97577869Y-115422338D01*
X97600876Y-115424090D01*
X97635861Y-115426755D01*
X97635861Y-115426754D01*
X97635863Y-115426755D01*
X97668045Y-115422656D01*
X97675875Y-115422160D01*
X109091604Y-115422160D01*
X109116562Y-115424697D01*
X109128292Y-115427108D01*
X109128293Y-115427108D01*
X166613530Y-115427108D01*
X166680569Y-115446793D01*
X166726324Y-115499597D01*
X166736268Y-115568755D01*
X166707243Y-115632311D01*
X166701211Y-115638789D01*
X166286819Y-116053181D01*
X166225496Y-116086666D01*
X166199138Y-116089500D01*
X72394500Y-116089500D01*
X72327461Y-116069815D01*
X72281706Y-116017011D01*
X72270500Y-115965500D01*
X72270500Y-111590000D01*
X73265197Y-111590000D01*
X73284397Y-111956353D01*
X73341784Y-112318684D01*
X73341784Y-112318686D01*
X73436736Y-112673051D01*
X73568204Y-113015535D01*
X73734754Y-113342406D01*
X73934549Y-113650064D01*
X74091658Y-113844076D01*
X74648678Y-113287056D01*
X74818046Y-113287056D01*
X74837449Y-113384601D01*
X74892704Y-113467296D01*
X74975399Y-113522551D01*
X75048320Y-113537056D01*
X75097568Y-113537056D01*
X75170489Y-113522551D01*
X75253184Y-113467296D01*
X75308439Y-113384601D01*
X75327842Y-113287056D01*
X75308439Y-113189511D01*
X75253184Y-113106816D01*
X75170489Y-113051561D01*
X75097568Y-113037056D01*
X75048320Y-113037056D01*
X74975399Y-113051561D01*
X74892704Y-113106816D01*
X74837449Y-113189511D01*
X74818046Y-113287056D01*
X74648678Y-113287056D01*
X75445276Y-112490458D01*
X75471570Y-112533365D01*
X75635130Y-112724870D01*
X75826635Y-112888430D01*
X75869540Y-112914722D01*
X74515922Y-114268341D01*
X74709924Y-114425442D01*
X74709937Y-114425451D01*
X75017593Y-114625245D01*
X75344464Y-114791795D01*
X75686948Y-114923263D01*
X76041314Y-115018215D01*
X76403646Y-115075602D01*
X76769999Y-115094803D01*
X76770001Y-115094803D01*
X77136353Y-115075602D01*
X77498684Y-115018215D01*
X77498686Y-115018215D01*
X77853051Y-114923263D01*
X78195535Y-114791795D01*
X78522406Y-114625245D01*
X78830065Y-114425450D01*
X79024077Y-114268341D01*
X78042792Y-113287056D01*
X78212158Y-113287056D01*
X78231561Y-113384601D01*
X78286816Y-113467296D01*
X78369511Y-113522551D01*
X78442432Y-113537056D01*
X78491680Y-113537056D01*
X78564601Y-113522551D01*
X78647296Y-113467296D01*
X78702551Y-113384601D01*
X78721954Y-113287056D01*
X78702551Y-113189511D01*
X78647296Y-113106816D01*
X78564601Y-113051561D01*
X78491680Y-113037056D01*
X78442432Y-113037056D01*
X78369511Y-113051561D01*
X78286816Y-113106816D01*
X78231561Y-113189511D01*
X78212158Y-113287056D01*
X78042792Y-113287056D01*
X77670458Y-112914722D01*
X77713365Y-112888430D01*
X77904870Y-112724870D01*
X78068430Y-112533365D01*
X78094722Y-112490458D01*
X79448341Y-113844077D01*
X79605450Y-113650065D01*
X79805245Y-113342406D01*
X79971795Y-113015535D01*
X80103263Y-112673051D01*
X80198215Y-112318686D01*
X80198215Y-112318684D01*
X80255602Y-111956353D01*
X80274803Y-111590000D01*
X80274803Y-111589999D01*
X80255602Y-111223646D01*
X80198215Y-110861315D01*
X80198215Y-110861313D01*
X80115919Y-110554179D01*
X81334318Y-110554179D01*
X81339500Y-110593539D01*
X81354955Y-110710939D01*
X81354956Y-110710941D01*
X81387820Y-110790283D01*
X81415464Y-110857020D01*
X81511718Y-110982461D01*
X81539995Y-111004159D01*
X81546085Y-111009499D01*
X82001034Y-111464448D01*
X82430490Y-111893904D01*
X82435841Y-111900005D01*
X82457539Y-111928282D01*
X82546688Y-111996688D01*
X82582980Y-112024536D01*
X82582983Y-112024537D01*
X82582984Y-112024538D01*
X82656019Y-112054790D01*
X82729059Y-112085044D01*
X82807440Y-112095363D01*
X82885820Y-112105682D01*
X82885821Y-112105682D01*
X82921150Y-112101030D01*
X82929249Y-112100500D01*
X83411382Y-112100500D01*
X83478421Y-112120185D01*
X83524176Y-112172989D01*
X83534496Y-112209713D01*
X83537318Y-112233208D01*
X83540122Y-112256561D01*
X83595639Y-112397343D01*
X83687077Y-112517922D01*
X83807656Y-112609360D01*
X83807657Y-112609360D01*
X83807658Y-112609361D01*
X83948436Y-112664877D01*
X84036898Y-112675500D01*
X84036903Y-112675500D01*
X84923097Y-112675500D01*
X84923102Y-112675500D01*
X85011564Y-112664877D01*
X85152342Y-112609361D01*
X85272922Y-112517922D01*
X85364361Y-112397342D01*
X85419877Y-112256564D01*
X85430500Y-112168102D01*
X86629500Y-112168102D01*
X86634497Y-112209717D01*
X86640122Y-112256561D01*
X86695639Y-112397343D01*
X86787077Y-112517922D01*
X86907656Y-112609360D01*
X86907657Y-112609360D01*
X86907658Y-112609361D01*
X87048436Y-112664877D01*
X87136898Y-112675500D01*
X87136903Y-112675500D01*
X88023097Y-112675500D01*
X88023102Y-112675500D01*
X88111564Y-112664877D01*
X88252342Y-112609361D01*
X88372922Y-112517922D01*
X88464361Y-112397342D01*
X88519877Y-112256564D01*
X88525502Y-112209714D01*
X88553039Y-112145503D01*
X88610921Y-112106369D01*
X88648618Y-112100500D01*
X89599354Y-112100500D01*
X89599361Y-112100500D01*
X89716762Y-112085044D01*
X89862841Y-112024536D01*
X89988282Y-111928282D01*
X90084536Y-111802841D01*
X90145044Y-111656762D01*
X90165154Y-111504009D01*
X90165682Y-111500001D01*
X90165682Y-111499998D01*
X90145044Y-111343239D01*
X90145044Y-111343238D01*
X90084536Y-111197159D01*
X89988282Y-111071718D01*
X89862841Y-110975464D01*
X89844587Y-110967903D01*
X89716762Y-110914956D01*
X89716760Y-110914955D01*
X89599370Y-110899501D01*
X89599367Y-110899500D01*
X89599361Y-110899500D01*
X89599354Y-110899500D01*
X88648618Y-110899500D01*
X88581579Y-110879815D01*
X88535824Y-110827011D01*
X88525503Y-110790286D01*
X88519877Y-110743436D01*
X88464361Y-110602658D01*
X88464360Y-110602657D01*
X88464360Y-110602656D01*
X88372922Y-110482077D01*
X88252343Y-110390639D01*
X88156192Y-110352722D01*
X88111564Y-110335123D01*
X88111563Y-110335122D01*
X88111561Y-110335122D01*
X88065926Y-110329642D01*
X88023102Y-110324500D01*
X87136898Y-110324500D01*
X87097853Y-110329188D01*
X87048438Y-110335122D01*
X86907656Y-110390639D01*
X86787077Y-110482077D01*
X86695639Y-110602656D01*
X86640122Y-110743438D01*
X86637762Y-110763096D01*
X86629500Y-110831898D01*
X86629500Y-112168102D01*
X85430500Y-112168102D01*
X85430500Y-110831898D01*
X85419877Y-110743436D01*
X85364361Y-110602658D01*
X85364360Y-110602657D01*
X85364360Y-110602656D01*
X85272922Y-110482077D01*
X85152343Y-110390639D01*
X85056192Y-110352722D01*
X85011564Y-110335123D01*
X85011563Y-110335122D01*
X85011561Y-110335122D01*
X84965926Y-110329642D01*
X84923102Y-110324500D01*
X84036898Y-110324500D01*
X83997853Y-110329188D01*
X83948438Y-110335122D01*
X83807656Y-110390639D01*
X83687077Y-110482077D01*
X83595639Y-110602656D01*
X83540122Y-110743438D01*
X83537762Y-110763096D01*
X83534497Y-110790285D01*
X83506961Y-110854497D01*
X83449079Y-110893631D01*
X83411382Y-110899500D01*
X83185918Y-110899500D01*
X83118879Y-110879815D01*
X83098237Y-110863181D01*
X82576819Y-110341763D01*
X82543334Y-110280440D01*
X82540500Y-110254082D01*
X82540500Y-108920645D01*
X82540500Y-108920639D01*
X82525044Y-108803238D01*
X82464536Y-108657159D01*
X82368282Y-108531718D01*
X82242841Y-108435464D01*
X82208629Y-108421293D01*
X82096762Y-108374956D01*
X82096760Y-108374955D01*
X81940001Y-108354318D01*
X81939999Y-108354318D01*
X81783239Y-108374955D01*
X81783237Y-108374956D01*
X81637160Y-108435463D01*
X81511718Y-108531718D01*
X81415463Y-108657160D01*
X81354956Y-108803237D01*
X81354955Y-108803239D01*
X81339501Y-108920629D01*
X81339500Y-108920645D01*
X81339500Y-110510750D01*
X81338969Y-110518852D01*
X81334318Y-110554178D01*
X81334318Y-110554179D01*
X80115919Y-110554179D01*
X80103263Y-110506948D01*
X79971795Y-110164464D01*
X79805245Y-109837594D01*
X79605450Y-109529935D01*
X79448340Y-109335922D01*
X78094722Y-110689540D01*
X78068430Y-110646635D01*
X77904870Y-110455130D01*
X77713365Y-110291570D01*
X77670458Y-110265277D01*
X78042791Y-109892944D01*
X78212158Y-109892944D01*
X78231561Y-109990489D01*
X78286816Y-110073184D01*
X78369511Y-110128439D01*
X78442432Y-110142944D01*
X78491680Y-110142944D01*
X78564601Y-110128439D01*
X78647296Y-110073184D01*
X78702551Y-109990489D01*
X78721954Y-109892944D01*
X78702551Y-109795399D01*
X78647296Y-109712704D01*
X78564601Y-109657449D01*
X78491680Y-109642944D01*
X78442432Y-109642944D01*
X78369511Y-109657449D01*
X78286816Y-109712704D01*
X78231561Y-109795399D01*
X78212158Y-109892944D01*
X78042791Y-109892944D01*
X79024077Y-108911658D01*
X78830064Y-108754549D01*
X78522406Y-108554754D01*
X78195535Y-108388204D01*
X77853051Y-108256736D01*
X77498685Y-108161784D01*
X77136353Y-108104397D01*
X76770001Y-108085197D01*
X76769999Y-108085197D01*
X76403646Y-108104397D01*
X76041315Y-108161784D01*
X76041313Y-108161784D01*
X75686948Y-108256736D01*
X75344464Y-108388204D01*
X75017594Y-108554754D01*
X74709929Y-108754553D01*
X74515922Y-108911658D01*
X75869541Y-110265277D01*
X75826635Y-110291570D01*
X75635130Y-110455130D01*
X75471570Y-110646635D01*
X75445277Y-110689541D01*
X74648680Y-109892944D01*
X74818046Y-109892944D01*
X74837449Y-109990489D01*
X74892704Y-110073184D01*
X74975399Y-110128439D01*
X75048320Y-110142944D01*
X75097568Y-110142944D01*
X75170489Y-110128439D01*
X75253184Y-110073184D01*
X75308439Y-109990489D01*
X75327842Y-109892944D01*
X75308439Y-109795399D01*
X75253184Y-109712704D01*
X75170489Y-109657449D01*
X75097568Y-109642944D01*
X75048320Y-109642944D01*
X74975399Y-109657449D01*
X74892704Y-109712704D01*
X74837449Y-109795399D01*
X74818046Y-109892944D01*
X74648680Y-109892944D01*
X74091658Y-109335922D01*
X73934553Y-109529929D01*
X73734754Y-109837594D01*
X73568204Y-110164464D01*
X73436736Y-110506948D01*
X73341784Y-110861313D01*
X73341784Y-110861315D01*
X73284397Y-111223646D01*
X73265197Y-111589999D01*
X73265197Y-111590000D01*
X72270500Y-111590000D01*
X72270500Y-91090000D01*
X73265197Y-91090000D01*
X73284397Y-91456353D01*
X73341784Y-91818684D01*
X73341784Y-91818686D01*
X73436736Y-92173051D01*
X73568204Y-92515535D01*
X73734754Y-92842406D01*
X73934549Y-93150064D01*
X74091658Y-93344076D01*
X74648678Y-92787056D01*
X74818046Y-92787056D01*
X74837449Y-92884601D01*
X74892704Y-92967296D01*
X74975399Y-93022551D01*
X75048320Y-93037056D01*
X75097568Y-93037056D01*
X75170489Y-93022551D01*
X75253184Y-92967296D01*
X75308439Y-92884601D01*
X75327842Y-92787056D01*
X75308439Y-92689511D01*
X75253184Y-92606816D01*
X75170489Y-92551561D01*
X75097568Y-92537056D01*
X75048320Y-92537056D01*
X74975399Y-92551561D01*
X74892704Y-92606816D01*
X74837449Y-92689511D01*
X74818046Y-92787056D01*
X74648678Y-92787056D01*
X75445276Y-91990458D01*
X75471570Y-92033365D01*
X75635130Y-92224870D01*
X75826635Y-92388430D01*
X75869540Y-92414722D01*
X74515922Y-93768341D01*
X74709924Y-93925442D01*
X74709937Y-93925451D01*
X75017593Y-94125245D01*
X75344464Y-94291795D01*
X75686948Y-94423263D01*
X76041314Y-94518215D01*
X76403646Y-94575602D01*
X76769999Y-94594803D01*
X76770001Y-94594803D01*
X77136353Y-94575602D01*
X77498684Y-94518215D01*
X77498686Y-94518215D01*
X77853051Y-94423263D01*
X78195535Y-94291795D01*
X78522406Y-94125245D01*
X78830065Y-93925450D01*
X79024077Y-93768341D01*
X78042792Y-92787056D01*
X78212158Y-92787056D01*
X78231561Y-92884601D01*
X78286816Y-92967296D01*
X78369511Y-93022551D01*
X78442432Y-93037056D01*
X78491680Y-93037056D01*
X78564601Y-93022551D01*
X78647296Y-92967296D01*
X78702551Y-92884601D01*
X78721954Y-92787056D01*
X78702551Y-92689511D01*
X78647296Y-92606816D01*
X78564601Y-92551561D01*
X78491680Y-92537056D01*
X78442432Y-92537056D01*
X78369511Y-92551561D01*
X78286816Y-92606816D01*
X78231561Y-92689511D01*
X78212158Y-92787056D01*
X78042792Y-92787056D01*
X77670458Y-92414722D01*
X77713365Y-92388430D01*
X77904870Y-92224870D01*
X78068430Y-92033365D01*
X78094722Y-91990458D01*
X79448341Y-93344077D01*
X79605450Y-93150065D01*
X79805245Y-92842406D01*
X79971795Y-92515535D01*
X80103263Y-92173051D01*
X80108534Y-92153380D01*
X81334318Y-92153380D01*
X81338969Y-92188707D01*
X81339500Y-92196809D01*
X81339500Y-93759354D01*
X81339501Y-93759370D01*
X81354955Y-93876760D01*
X81354956Y-93876762D01*
X81415464Y-94022841D01*
X81511718Y-94148282D01*
X81637159Y-94244536D01*
X81783238Y-94305044D01*
X81861619Y-94315363D01*
X81939999Y-94325682D01*
X81940000Y-94325682D01*
X81940001Y-94325682D01*
X81992254Y-94318802D01*
X82096762Y-94305044D01*
X82242841Y-94244536D01*
X82368282Y-94148282D01*
X82464536Y-94022841D01*
X82525044Y-93876762D01*
X82540500Y-93759361D01*
X82540500Y-92453478D01*
X82560185Y-92386439D01*
X82576819Y-92365797D01*
X83125797Y-91816819D01*
X83187120Y-91783334D01*
X83213478Y-91780500D01*
X83411382Y-91780500D01*
X83478421Y-91800185D01*
X83524176Y-91852989D01*
X83534496Y-91889713D01*
X83537318Y-91913208D01*
X83540122Y-91936561D01*
X83595639Y-92077343D01*
X83687077Y-92197922D01*
X83807656Y-92289360D01*
X83807657Y-92289360D01*
X83807658Y-92289361D01*
X83948436Y-92344877D01*
X84036898Y-92355500D01*
X84036903Y-92355500D01*
X84923097Y-92355500D01*
X84923102Y-92355500D01*
X85011564Y-92344877D01*
X85152342Y-92289361D01*
X85272922Y-92197922D01*
X85364361Y-92077342D01*
X85419877Y-91936564D01*
X85430500Y-91848102D01*
X85430500Y-90511898D01*
X85419877Y-90423436D01*
X85364361Y-90282658D01*
X85364360Y-90282657D01*
X85364360Y-90282656D01*
X85272922Y-90162077D01*
X85152343Y-90070639D01*
X85011561Y-90015122D01*
X84965926Y-90009642D01*
X84923102Y-90004500D01*
X84036898Y-90004500D01*
X83997853Y-90009188D01*
X83948438Y-90015122D01*
X83807656Y-90070639D01*
X83687077Y-90162077D01*
X83595639Y-90282656D01*
X83540122Y-90423438D01*
X83537077Y-90448800D01*
X83534497Y-90470285D01*
X83506961Y-90534497D01*
X83449079Y-90573631D01*
X83411382Y-90579500D01*
X82956809Y-90579500D01*
X82948710Y-90578969D01*
X82913381Y-90574318D01*
X82874020Y-90579500D01*
X82756620Y-90594955D01*
X82756618Y-90594956D01*
X82610538Y-90655464D01*
X82485100Y-90751716D01*
X82463400Y-90779994D01*
X82458049Y-90786096D01*
X81546096Y-91698049D01*
X81539994Y-91703400D01*
X81511716Y-91725099D01*
X81434948Y-91825148D01*
X81415462Y-91850542D01*
X81415461Y-91850544D01*
X81354957Y-91996615D01*
X81354955Y-91996620D01*
X81334318Y-92153379D01*
X81334318Y-92153380D01*
X80108534Y-92153380D01*
X80198215Y-91818686D01*
X80198215Y-91818684D01*
X80255602Y-91456353D01*
X80274803Y-91090000D01*
X80274803Y-91089999D01*
X80255602Y-90723646D01*
X80198215Y-90361315D01*
X80198215Y-90361313D01*
X80103263Y-90006948D01*
X79971795Y-89664464D01*
X79805245Y-89337594D01*
X79605450Y-89029935D01*
X79448340Y-88835922D01*
X78094722Y-90189540D01*
X78068430Y-90146635D01*
X77904870Y-89955130D01*
X77713365Y-89791570D01*
X77670458Y-89765277D01*
X78042791Y-89392944D01*
X78212158Y-89392944D01*
X78231561Y-89490489D01*
X78286816Y-89573184D01*
X78369511Y-89628439D01*
X78442432Y-89642944D01*
X78491680Y-89642944D01*
X78564601Y-89628439D01*
X78647296Y-89573184D01*
X78702551Y-89490489D01*
X78721954Y-89392944D01*
X78702551Y-89295399D01*
X78647296Y-89212704D01*
X78564601Y-89157449D01*
X78491680Y-89142944D01*
X78442432Y-89142944D01*
X78369511Y-89157449D01*
X78286816Y-89212704D01*
X78231561Y-89295399D01*
X78212158Y-89392944D01*
X78042791Y-89392944D01*
X79024077Y-88411658D01*
X78830064Y-88254549D01*
X78522406Y-88054754D01*
X78195535Y-87888204D01*
X77853051Y-87756736D01*
X77498685Y-87661784D01*
X77136353Y-87604397D01*
X76770001Y-87585197D01*
X76769999Y-87585197D01*
X76403646Y-87604397D01*
X76041315Y-87661784D01*
X76041313Y-87661784D01*
X75686948Y-87756736D01*
X75344464Y-87888204D01*
X75017594Y-88054754D01*
X74709929Y-88254553D01*
X74515922Y-88411658D01*
X75869541Y-89765277D01*
X75826635Y-89791570D01*
X75635130Y-89955130D01*
X75471570Y-90146635D01*
X75445277Y-90189541D01*
X74648680Y-89392944D01*
X74818046Y-89392944D01*
X74837449Y-89490489D01*
X74892704Y-89573184D01*
X74975399Y-89628439D01*
X75048320Y-89642944D01*
X75097568Y-89642944D01*
X75170489Y-89628439D01*
X75253184Y-89573184D01*
X75308439Y-89490489D01*
X75327842Y-89392944D01*
X75308439Y-89295399D01*
X75253184Y-89212704D01*
X75170489Y-89157449D01*
X75097568Y-89142944D01*
X75048320Y-89142944D01*
X74975399Y-89157449D01*
X74892704Y-89212704D01*
X74837449Y-89295399D01*
X74818046Y-89392944D01*
X74648680Y-89392944D01*
X74091658Y-88835922D01*
X73934553Y-89029929D01*
X73734754Y-89337594D01*
X73568204Y-89664464D01*
X73436736Y-90006948D01*
X73341784Y-90361313D01*
X73341784Y-90361315D01*
X73284397Y-90723646D01*
X73265197Y-91089999D01*
X73265197Y-91090000D01*
X72270500Y-91090000D01*
X72270500Y-86714500D01*
X72290185Y-86647461D01*
X72342989Y-86601706D01*
X72394500Y-86590500D01*
X91310138Y-86590500D01*
X91377177Y-86610185D01*
G37*
G04 #@! TD.AperFunction*
G04 #@! TA.AperFunction,Conductor*
G36*
X123803298Y-101359685D02*
G01*
X123849053Y-101412489D01*
X123858997Y-101481647D01*
X123829972Y-101545203D01*
X123781749Y-101579355D01*
X123637904Y-101636079D01*
X123517435Y-101727435D01*
X123426079Y-101847904D01*
X123370613Y-101988556D01*
X123360000Y-102076946D01*
X123360000Y-103320000D01*
X125560000Y-103320000D01*
X125560000Y-102076946D01*
X125549386Y-101988556D01*
X125493920Y-101847904D01*
X125402564Y-101727435D01*
X125282095Y-101636079D01*
X125138251Y-101579355D01*
X125083107Y-101536449D01*
X125059914Y-101470541D01*
X125076034Y-101402557D01*
X125126351Y-101354080D01*
X125183741Y-101340000D01*
X150500178Y-101340000D01*
X150567217Y-101359685D01*
X150612972Y-101412489D01*
X150622916Y-101481647D01*
X150593891Y-101545203D01*
X150587859Y-101551681D01*
X149232790Y-102906749D01*
X149212157Y-102923378D01*
X149208858Y-102925497D01*
X149208852Y-102925503D01*
X149176661Y-102962654D01*
X149173648Y-102965890D01*
X149163164Y-102976376D01*
X149154277Y-102988245D01*
X149151505Y-102991686D01*
X149119317Y-103028834D01*
X149119313Y-103028839D01*
X149117682Y-103032411D01*
X149104163Y-103055193D01*
X149098611Y-103062610D01*
X149042679Y-103104483D01*
X148972987Y-103109469D01*
X148911663Y-103075985D01*
X148883987Y-103033791D01*
X148863920Y-102982905D01*
X148772564Y-102862435D01*
X148652095Y-102771079D01*
X148511443Y-102715613D01*
X148423054Y-102705000D01*
X148280000Y-102705000D01*
X148280000Y-104056000D01*
X148260315Y-104123039D01*
X148207511Y-104168794D01*
X148156000Y-104180000D01*
X147030000Y-104180000D01*
X147030000Y-104548053D01*
X147040613Y-104636443D01*
X147096079Y-104777095D01*
X147187435Y-104897564D01*
X147307906Y-104988921D01*
X147307908Y-104988922D01*
X147423172Y-105034377D01*
X147478316Y-105077282D01*
X147501509Y-105143190D01*
X147485388Y-105211175D01*
X147435071Y-105259651D01*
X147423172Y-105265085D01*
X147307660Y-105310637D01*
X147307658Y-105310638D01*
X147194438Y-105396496D01*
X147129127Y-105421319D01*
X147060763Y-105406891D01*
X147031832Y-105385373D01*
X146825808Y-105179349D01*
X146809172Y-105158704D01*
X146807058Y-105155415D01*
X146807057Y-105155413D01*
X146807055Y-105155411D01*
X146769882Y-105123201D01*
X146766663Y-105120204D01*
X146756180Y-105109721D01*
X146744315Y-105100839D01*
X146740873Y-105098065D01*
X146730118Y-105088746D01*
X146692346Y-105029970D01*
X146688150Y-104980741D01*
X146689999Y-104964807D01*
X146690000Y-104964791D01*
X146690000Y-104820000D01*
X144190001Y-104820000D01*
X144190001Y-104870500D01*
X144170316Y-104937539D01*
X144117512Y-104983294D01*
X144066001Y-104994500D01*
X143765951Y-104994500D01*
X143698912Y-104974815D01*
X143653157Y-104922011D01*
X143652517Y-104920586D01*
X143642209Y-104897240D01*
X143642207Y-104897237D01*
X143642206Y-104897235D01*
X143562765Y-104817794D01*
X143529201Y-104802974D01*
X143459992Y-104772415D01*
X143434868Y-104769500D01*
X143434865Y-104769500D01*
X142150097Y-104769500D01*
X142083058Y-104749815D01*
X142062416Y-104733181D01*
X141549235Y-104220000D01*
X144190000Y-104220000D01*
X145140000Y-104220000D01*
X145140000Y-103820000D01*
X145740000Y-103820000D01*
X145740000Y-104220000D01*
X146689999Y-104220000D01*
X146689999Y-104075214D01*
X146689997Y-104075191D01*
X146687091Y-104050130D01*
X146687090Y-104050126D01*
X146641788Y-103947525D01*
X146641785Y-103947520D01*
X146562479Y-103868214D01*
X146562474Y-103868211D01*
X146459876Y-103822910D01*
X146434794Y-103820000D01*
X145740000Y-103820000D01*
X145140000Y-103820000D01*
X144445214Y-103820000D01*
X144445191Y-103820002D01*
X144420130Y-103822908D01*
X144420126Y-103822909D01*
X144317525Y-103868211D01*
X144317520Y-103868214D01*
X144238214Y-103947520D01*
X144238211Y-103947525D01*
X144192910Y-104050122D01*
X144192910Y-104050124D01*
X144190000Y-104075205D01*
X144190000Y-104220000D01*
X141549235Y-104220000D01*
X140909236Y-103580000D01*
X147030000Y-103580000D01*
X147680000Y-103580000D01*
X147680000Y-102705000D01*
X147536946Y-102705000D01*
X147448556Y-102715613D01*
X147307904Y-102771079D01*
X147187435Y-102862435D01*
X147096079Y-102982904D01*
X147040613Y-103123556D01*
X147030000Y-103211946D01*
X147030000Y-103580000D01*
X140909236Y-103580000D01*
X140756790Y-103427554D01*
X140756783Y-103427548D01*
X140662841Y-103355464D01*
X140662836Y-103355461D01*
X140516765Y-103294957D01*
X140516760Y-103294955D01*
X140360001Y-103274318D01*
X140359999Y-103274318D01*
X140203239Y-103294955D01*
X140203237Y-103294956D01*
X140057160Y-103355463D01*
X139931718Y-103451718D01*
X139835463Y-103577160D01*
X139774956Y-103723237D01*
X139774955Y-103723239D01*
X139754318Y-103879998D01*
X139754318Y-103880001D01*
X139774955Y-104036760D01*
X139774957Y-104036765D01*
X139835461Y-104182836D01*
X139835464Y-104182841D01*
X139907548Y-104276783D01*
X139907554Y-104276790D01*
X141153181Y-105522416D01*
X141186666Y-105583739D01*
X141189500Y-105610097D01*
X141189500Y-105914856D01*
X141189502Y-105914882D01*
X141192413Y-105939987D01*
X141192415Y-105939991D01*
X141237793Y-106042764D01*
X141237794Y-106042765D01*
X141317235Y-106122206D01*
X141420009Y-106167585D01*
X141445135Y-106170500D01*
X143434864Y-106170499D01*
X143434879Y-106170497D01*
X143434882Y-106170497D01*
X143459987Y-106167586D01*
X143459988Y-106167585D01*
X143459991Y-106167585D01*
X143562765Y-106122206D01*
X143642206Y-106042765D01*
X143642209Y-106042759D01*
X143652517Y-106019414D01*
X143697603Y-105966037D01*
X143764389Y-105945510D01*
X143765951Y-105945500D01*
X144065500Y-105945500D01*
X144132539Y-105965185D01*
X144178294Y-106017989D01*
X144189500Y-106069500D01*
X144189500Y-106864856D01*
X144189502Y-106864882D01*
X144192413Y-106889987D01*
X144192415Y-106889991D01*
X144237793Y-106992764D01*
X144237794Y-106992765D01*
X144317235Y-107072206D01*
X144420009Y-107117585D01*
X144445135Y-107120500D01*
X145098481Y-107120499D01*
X145165520Y-107140183D01*
X145186162Y-107156818D01*
X145263181Y-107233837D01*
X145296666Y-107295160D01*
X145299500Y-107321518D01*
X145299500Y-107810402D01*
X145279815Y-107877441D01*
X145250427Y-107909204D01*
X145207080Y-107942075D01*
X145207074Y-107942082D01*
X145115639Y-108062656D01*
X145060122Y-108203438D01*
X145057243Y-108227419D01*
X145049500Y-108291898D01*
X145049500Y-108291903D01*
X145049500Y-111229116D01*
X145047355Y-111313724D01*
X145047355Y-111313725D01*
X145057615Y-111370966D01*
X145058269Y-111375631D01*
X145064154Y-111433497D01*
X145064156Y-111433505D01*
X145073865Y-111464448D01*
X145075737Y-111472077D01*
X145081460Y-111504007D01*
X145081461Y-111504009D01*
X145103032Y-111558012D01*
X145104613Y-111562451D01*
X145122025Y-111617947D01*
X145137765Y-111646304D01*
X145141135Y-111653400D01*
X145153168Y-111683522D01*
X145153170Y-111683527D01*
X145153172Y-111683530D01*
X145153173Y-111683532D01*
X145185174Y-111732087D01*
X145187605Y-111736099D01*
X145206555Y-111770240D01*
X145215841Y-111786970D01*
X145236972Y-111811585D01*
X145241703Y-111817859D01*
X145259547Y-111844936D01*
X145300667Y-111886056D01*
X145303870Y-111889512D01*
X145323814Y-111912743D01*
X145341760Y-111933647D01*
X145341764Y-111933650D01*
X145341765Y-111933651D01*
X145367407Y-111953499D01*
X145373303Y-111958692D01*
X146530707Y-113116096D01*
X146589009Y-113177431D01*
X146589010Y-113177432D01*
X146636748Y-113210659D01*
X146640496Y-113213484D01*
X146685584Y-113250248D01*
X146714333Y-113265265D01*
X146721051Y-113269335D01*
X146747677Y-113287867D01*
X146748353Y-113288157D01*
X146748662Y-113288413D01*
X146753174Y-113290917D01*
X146752707Y-113291757D01*
X146802197Y-113332683D01*
X146823421Y-113399251D01*
X146805286Y-113466726D01*
X146753550Y-113513686D01*
X146699454Y-113526108D01*
X125534500Y-113526108D01*
X125467461Y-113506423D01*
X125421706Y-113453619D01*
X125410500Y-113402108D01*
X125410500Y-111144627D01*
X125430185Y-111077588D01*
X125435697Y-111069701D01*
X125483526Y-111006630D01*
X125494361Y-110992342D01*
X125549877Y-110851564D01*
X125560500Y-110763102D01*
X125560500Y-109260000D01*
X129470001Y-109260000D01*
X129470001Y-109599785D01*
X129470002Y-109599808D01*
X129472908Y-109624869D01*
X129472909Y-109624873D01*
X129518211Y-109727474D01*
X129518214Y-109727479D01*
X129597520Y-109806785D01*
X129597525Y-109806788D01*
X129700123Y-109852089D01*
X129725206Y-109854999D01*
X131119999Y-109854999D01*
X131120000Y-109854998D01*
X131120000Y-109260000D01*
X131720000Y-109260000D01*
X131720000Y-109854999D01*
X133114786Y-109854999D01*
X133114808Y-109854997D01*
X133139869Y-109852091D01*
X133139873Y-109852090D01*
X133242474Y-109806788D01*
X133242479Y-109806785D01*
X133321785Y-109727479D01*
X133321788Y-109727474D01*
X133367089Y-109624877D01*
X133367089Y-109624875D01*
X133369999Y-109599794D01*
X133370000Y-109599791D01*
X133370000Y-109260000D01*
X131720000Y-109260000D01*
X131120000Y-109260000D01*
X129470001Y-109260000D01*
X125560500Y-109260000D01*
X125560500Y-108660000D01*
X129470000Y-108660000D01*
X131120000Y-108660000D01*
X131120000Y-108065000D01*
X131720000Y-108065000D01*
X131720000Y-108660000D01*
X133369999Y-108660000D01*
X133369999Y-108320214D01*
X133369997Y-108320191D01*
X133367091Y-108295130D01*
X133367090Y-108295126D01*
X133321788Y-108192525D01*
X133321785Y-108192520D01*
X133242479Y-108113214D01*
X133242474Y-108113211D01*
X133139876Y-108067910D01*
X133114794Y-108065000D01*
X131720000Y-108065000D01*
X131120000Y-108065000D01*
X129725214Y-108065000D01*
X129725191Y-108065002D01*
X129700130Y-108067908D01*
X129700126Y-108067909D01*
X129597525Y-108113211D01*
X129597520Y-108113214D01*
X129518214Y-108192520D01*
X129518211Y-108192525D01*
X129472910Y-108295122D01*
X129472910Y-108295124D01*
X129470000Y-108320205D01*
X129470000Y-108660000D01*
X125560500Y-108660000D01*
X125560500Y-107676898D01*
X125549877Y-107588436D01*
X125494361Y-107447658D01*
X125494360Y-107447657D01*
X125494360Y-107447656D01*
X125402922Y-107327077D01*
X125282343Y-107235639D01*
X125177628Y-107194345D01*
X125141564Y-107180123D01*
X125141563Y-107180122D01*
X125141561Y-107180122D01*
X125095926Y-107174642D01*
X125053102Y-107169500D01*
X123866898Y-107169500D01*
X123827853Y-107174188D01*
X123778438Y-107180122D01*
X123637656Y-107235639D01*
X123517077Y-107327077D01*
X123425639Y-107447656D01*
X123370122Y-107588438D01*
X123366050Y-107622353D01*
X123359500Y-107676898D01*
X123359500Y-110763102D01*
X123365126Y-110809954D01*
X123370122Y-110851561D01*
X123425639Y-110992343D01*
X123484303Y-111069701D01*
X123509127Y-111135012D01*
X123509500Y-111144627D01*
X123509500Y-113402108D01*
X123489815Y-113469147D01*
X123437011Y-113514902D01*
X123385500Y-113526108D01*
X116164500Y-113526108D01*
X116097461Y-113506423D01*
X116051706Y-113453619D01*
X116040500Y-113402108D01*
X116040500Y-110734499D01*
X116060185Y-110667460D01*
X116112989Y-110621705D01*
X116164500Y-110610499D01*
X116334856Y-110610499D01*
X116334864Y-110610499D01*
X116334879Y-110610497D01*
X116334882Y-110610497D01*
X116359987Y-110607586D01*
X116359988Y-110607585D01*
X116359991Y-110607585D01*
X116462765Y-110562206D01*
X116542206Y-110482765D01*
X116587585Y-110379991D01*
X116590500Y-110354865D01*
X116590499Y-109465136D01*
X116588610Y-109448850D01*
X116600438Y-109379992D01*
X116630580Y-109340853D01*
X116640884Y-109331924D01*
X116644322Y-109329155D01*
X116645175Y-109328516D01*
X116656180Y-109320279D01*
X116666648Y-109309809D01*
X116669890Y-109306791D01*
X116692102Y-109287545D01*
X116707055Y-109274589D01*
X116709171Y-109271295D01*
X116725803Y-109250654D01*
X116877821Y-109098636D01*
X116939142Y-109065153D01*
X117008834Y-109070137D01*
X117064767Y-109112009D01*
X117089184Y-109177473D01*
X117089500Y-109186318D01*
X117089500Y-109404856D01*
X117089502Y-109404882D01*
X117092413Y-109429987D01*
X117092415Y-109429991D01*
X117137793Y-109532764D01*
X117137794Y-109532765D01*
X117217235Y-109612206D01*
X117320009Y-109657585D01*
X117345135Y-109660500D01*
X117615501Y-109660499D01*
X117682539Y-109680183D01*
X117728294Y-109732987D01*
X117739500Y-109784499D01*
X117739500Y-111539354D01*
X117739501Y-111539370D01*
X117754955Y-111656760D01*
X117754956Y-111656762D01*
X117766044Y-111683532D01*
X117815464Y-111802841D01*
X117911718Y-111928282D01*
X118037159Y-112024536D01*
X118183238Y-112085044D01*
X118261619Y-112095363D01*
X118339999Y-112105682D01*
X118340000Y-112105682D01*
X118340001Y-112105682D01*
X118392254Y-112098802D01*
X118496762Y-112085044D01*
X118642841Y-112024536D01*
X118768282Y-111928282D01*
X118864536Y-111802841D01*
X118925044Y-111656762D01*
X118940500Y-111539361D01*
X118940500Y-109784499D01*
X118960185Y-109717460D01*
X119012989Y-109671705D01*
X119064500Y-109660499D01*
X119334856Y-109660499D01*
X119334864Y-109660499D01*
X119334879Y-109660497D01*
X119334882Y-109660497D01*
X119359987Y-109657586D01*
X119359988Y-109657585D01*
X119359991Y-109657585D01*
X119462765Y-109612206D01*
X119542206Y-109532765D01*
X119587585Y-109429991D01*
X119590500Y-109404865D01*
X119590499Y-108515136D01*
X119590497Y-108515117D01*
X119587586Y-108490012D01*
X119587585Y-108490010D01*
X119587585Y-108490009D01*
X119542206Y-108387235D01*
X119462765Y-108307794D01*
X119434066Y-108295122D01*
X119359992Y-108262415D01*
X119334868Y-108259500D01*
X119334865Y-108259500D01*
X118016319Y-108259500D01*
X117949280Y-108239815D01*
X117903525Y-108187011D01*
X117893581Y-108117853D01*
X117922606Y-108054297D01*
X117928638Y-108047819D01*
X118268516Y-107707941D01*
X118630650Y-107345806D01*
X118651291Y-107329173D01*
X118654589Y-107327055D01*
X118686802Y-107289876D01*
X118689800Y-107286656D01*
X118700278Y-107276180D01*
X118709165Y-107264307D01*
X118711909Y-107260902D01*
X118744130Y-107223718D01*
X118745756Y-107220156D01*
X118759288Y-107197350D01*
X118761628Y-107194226D01*
X118778812Y-107148152D01*
X118780492Y-107144094D01*
X118800931Y-107099342D01*
X118801487Y-107095469D01*
X118808046Y-107069772D01*
X118809411Y-107066115D01*
X118812920Y-107017043D01*
X118813386Y-107012710D01*
X118815500Y-106998011D01*
X118815500Y-106983199D01*
X118815658Y-106978774D01*
X118819166Y-106929731D01*
X118818334Y-106925907D01*
X118815500Y-106899546D01*
X118815500Y-106439208D01*
X118815658Y-106434782D01*
X118819167Y-106385731D01*
X118819166Y-106385726D01*
X118818334Y-106381900D01*
X118815500Y-106355543D01*
X118815500Y-104704499D01*
X118835185Y-104637460D01*
X118887989Y-104591705D01*
X118939500Y-104580499D01*
X119334856Y-104580499D01*
X119334864Y-104580499D01*
X119334879Y-104580497D01*
X119334882Y-104580497D01*
X119359987Y-104577586D01*
X119359988Y-104577585D01*
X119359991Y-104577585D01*
X119462765Y-104532206D01*
X119542206Y-104452765D01*
X119587585Y-104349991D01*
X119590500Y-104324865D01*
X119590500Y-103920000D01*
X123360000Y-103920000D01*
X123360000Y-105163053D01*
X123370613Y-105251443D01*
X123426079Y-105392095D01*
X123517435Y-105512564D01*
X123637904Y-105603920D01*
X123778556Y-105659386D01*
X123866946Y-105670000D01*
X124160000Y-105670000D01*
X124160000Y-103920000D01*
X124760000Y-103920000D01*
X124760000Y-105670000D01*
X125053054Y-105670000D01*
X125141443Y-105659386D01*
X125282095Y-105603920D01*
X125402564Y-105512564D01*
X125493920Y-105392095D01*
X125549386Y-105251443D01*
X125560000Y-105163053D01*
X125560000Y-104519856D01*
X129469500Y-104519856D01*
X129469502Y-104519882D01*
X129472413Y-104544987D01*
X129472415Y-104544991D01*
X129517793Y-104647764D01*
X129517794Y-104647765D01*
X129597235Y-104727206D01*
X129700009Y-104772585D01*
X129725135Y-104775500D01*
X131071014Y-104775499D01*
X131119913Y-104785548D01*
X131133983Y-104791585D01*
X131133988Y-104791587D01*
X131323344Y-104830500D01*
X134834928Y-104830500D01*
X134901967Y-104850185D01*
X134922609Y-104866819D01*
X135833181Y-105777391D01*
X135866666Y-105838714D01*
X135869500Y-105865072D01*
X135869500Y-107059856D01*
X135869502Y-107059882D01*
X135872413Y-107084987D01*
X135872415Y-107084991D01*
X135917793Y-107187764D01*
X135917794Y-107187765D01*
X135997235Y-107267206D01*
X136100009Y-107312585D01*
X136125135Y-107315500D01*
X137319927Y-107315499D01*
X137386966Y-107335184D01*
X137407608Y-107351818D01*
X139679372Y-109623582D01*
X139737673Y-109684916D01*
X139737676Y-109684918D01*
X139737677Y-109684919D01*
X139750149Y-109693600D01*
X139785418Y-109718148D01*
X139789181Y-109720986D01*
X139834243Y-109757730D01*
X139834246Y-109757731D01*
X139834249Y-109757734D01*
X139862998Y-109772751D01*
X139869716Y-109776821D01*
X139896342Y-109795353D01*
X139949808Y-109818296D01*
X139954049Y-109820310D01*
X140005594Y-109847236D01*
X140036788Y-109856161D01*
X140044157Y-109858785D01*
X140073988Y-109871587D01*
X140130986Y-109883299D01*
X140135525Y-109884413D01*
X140191448Y-109900416D01*
X140191453Y-109900416D01*
X140191455Y-109900417D01*
X140206321Y-109901548D01*
X140223786Y-109902878D01*
X140231563Y-109903969D01*
X140263341Y-109910500D01*
X140263344Y-109910500D01*
X140321516Y-109910500D01*
X140326222Y-109910678D01*
X140359103Y-109913182D01*
X140384202Y-109915094D01*
X140384202Y-109915093D01*
X140384203Y-109915094D01*
X140416378Y-109910996D01*
X140424208Y-109910500D01*
X141994360Y-109910500D01*
X142061399Y-109930185D01*
X142093163Y-109959573D01*
X142107078Y-109977922D01*
X142227656Y-110069360D01*
X142227657Y-110069360D01*
X142227658Y-110069361D01*
X142368436Y-110124877D01*
X142456898Y-110135500D01*
X142456903Y-110135500D01*
X143343097Y-110135500D01*
X143343102Y-110135500D01*
X143431564Y-110124877D01*
X143572342Y-110069361D01*
X143692922Y-109977922D01*
X143784361Y-109857342D01*
X143839877Y-109716564D01*
X143850500Y-109628102D01*
X143850500Y-108985668D01*
X143850580Y-108982528D01*
X143852376Y-108947099D01*
X143854176Y-108911610D01*
X143851930Y-108896948D01*
X143850500Y-108878172D01*
X143850500Y-108291903D01*
X143850500Y-108291898D01*
X143839877Y-108203436D01*
X143784361Y-108062658D01*
X143784360Y-108062657D01*
X143784360Y-108062656D01*
X143692922Y-107942077D01*
X143572343Y-107850639D01*
X143431561Y-107795122D01*
X143385926Y-107789642D01*
X143343102Y-107784500D01*
X142456898Y-107784500D01*
X142417853Y-107789188D01*
X142368438Y-107795122D01*
X142227656Y-107850639D01*
X142107078Y-107942077D01*
X142093163Y-107960427D01*
X142036970Y-108001949D01*
X141994360Y-108009500D01*
X140805072Y-108009500D01*
X140738033Y-107989815D01*
X140717391Y-107973181D01*
X139806818Y-107062608D01*
X139773333Y-107001285D01*
X139770499Y-106974927D01*
X139770499Y-105780143D01*
X139770499Y-105780136D01*
X139770181Y-105777391D01*
X139767586Y-105755012D01*
X139767585Y-105755010D01*
X139767585Y-105755009D01*
X139722206Y-105652235D01*
X139642765Y-105572794D01*
X139539992Y-105527415D01*
X139514868Y-105524500D01*
X139514865Y-105524500D01*
X138320072Y-105524500D01*
X138253033Y-105504815D01*
X138232391Y-105488181D01*
X135960627Y-103216417D01*
X135902324Y-103155082D01*
X135902320Y-103155079D01*
X135889766Y-103146341D01*
X135854567Y-103121841D01*
X135850833Y-103119025D01*
X135805751Y-103082266D01*
X135805747Y-103082264D01*
X135805746Y-103082263D01*
X135805745Y-103082262D01*
X135776997Y-103067246D01*
X135770277Y-103063174D01*
X135743659Y-103044647D01*
X135690209Y-103021710D01*
X135685952Y-103019688D01*
X135634409Y-102992764D01*
X135634407Y-102992763D01*
X135634406Y-102992763D01*
X135617689Y-102987979D01*
X135603221Y-102983839D01*
X135595822Y-102981205D01*
X135566011Y-102968412D01*
X135566012Y-102968412D01*
X135509038Y-102956703D01*
X135504463Y-102955580D01*
X135448556Y-102939583D01*
X135448545Y-102939582D01*
X135416208Y-102937120D01*
X135408428Y-102936029D01*
X135376657Y-102929500D01*
X135376656Y-102929500D01*
X135318497Y-102929500D01*
X135313790Y-102929321D01*
X135308850Y-102928944D01*
X135255798Y-102924904D01*
X135238176Y-102927149D01*
X135223614Y-102929003D01*
X135215785Y-102929500D01*
X131371793Y-102929500D01*
X131227677Y-102944154D01*
X131117214Y-102978813D01*
X131080093Y-102984500D01*
X129725143Y-102984500D01*
X129725117Y-102984502D01*
X129700012Y-102987413D01*
X129700008Y-102987415D01*
X129597235Y-103032793D01*
X129517794Y-103112234D01*
X129472415Y-103215006D01*
X129472415Y-103215008D01*
X129469500Y-103240131D01*
X129469500Y-104519856D01*
X125560000Y-104519856D01*
X125560000Y-103920000D01*
X124760000Y-103920000D01*
X124160000Y-103920000D01*
X123360000Y-103920000D01*
X119590500Y-103920000D01*
X119590499Y-103435136D01*
X119589620Y-103427554D01*
X119587586Y-103410012D01*
X119587585Y-103410010D01*
X119587585Y-103410009D01*
X119542206Y-103307235D01*
X119462765Y-103227794D01*
X119450864Y-103222539D01*
X119359992Y-103182415D01*
X119334865Y-103179500D01*
X117345143Y-103179500D01*
X117345117Y-103179502D01*
X117320012Y-103182413D01*
X117320008Y-103182415D01*
X117217235Y-103227793D01*
X117137794Y-103307234D01*
X117092415Y-103410006D01*
X117092415Y-103410008D01*
X117089500Y-103435131D01*
X117089500Y-104324856D01*
X117089502Y-104324882D01*
X117092413Y-104349987D01*
X117092415Y-104349991D01*
X117137793Y-104452764D01*
X117137794Y-104452765D01*
X117217235Y-104532206D01*
X117320009Y-104577585D01*
X117345135Y-104580500D01*
X117740500Y-104580499D01*
X117807539Y-104600183D01*
X117853294Y-104652987D01*
X117864500Y-104704499D01*
X117864500Y-105999500D01*
X117844815Y-106066539D01*
X117792011Y-106112294D01*
X117740500Y-106123500D01*
X113394500Y-106123500D01*
X113327461Y-106103815D01*
X113281706Y-106051011D01*
X113270500Y-105999500D01*
X113270500Y-105751903D01*
X113270500Y-105751898D01*
X113259877Y-105663436D01*
X113204361Y-105522658D01*
X113204360Y-105522657D01*
X113204360Y-105522656D01*
X113112922Y-105402077D01*
X112992343Y-105310639D01*
X112901481Y-105274808D01*
X112876825Y-105265084D01*
X112821683Y-105222180D01*
X112798490Y-105156272D01*
X112804720Y-105130000D01*
X114090001Y-105130000D01*
X114090001Y-105274785D01*
X114090002Y-105274808D01*
X114092908Y-105299869D01*
X114092909Y-105299873D01*
X114138211Y-105402474D01*
X114138214Y-105402479D01*
X114217520Y-105481785D01*
X114217525Y-105481788D01*
X114320123Y-105527089D01*
X114345206Y-105529999D01*
X115039999Y-105529999D01*
X115040000Y-105529998D01*
X115040000Y-105130000D01*
X115640000Y-105130000D01*
X115640000Y-105529999D01*
X116334786Y-105529999D01*
X116334808Y-105529997D01*
X116359869Y-105527091D01*
X116359873Y-105527090D01*
X116462474Y-105481788D01*
X116462479Y-105481785D01*
X116541785Y-105402479D01*
X116541788Y-105402474D01*
X116587089Y-105299877D01*
X116587089Y-105299875D01*
X116589999Y-105274794D01*
X116590000Y-105274791D01*
X116590000Y-105130000D01*
X115640000Y-105130000D01*
X115040000Y-105130000D01*
X114090001Y-105130000D01*
X112804720Y-105130000D01*
X112814611Y-105088287D01*
X112864927Y-105039811D01*
X112876827Y-105034376D01*
X112992095Y-104988920D01*
X113112564Y-104897564D01*
X113203920Y-104777095D01*
X113259386Y-104636443D01*
X113270000Y-104548053D01*
X113270000Y-104530000D01*
X114090000Y-104530000D01*
X115040000Y-104530000D01*
X115040000Y-104130000D01*
X115640000Y-104130000D01*
X115640000Y-104530000D01*
X116589999Y-104530000D01*
X116589999Y-104385214D01*
X116589997Y-104385191D01*
X116587091Y-104360130D01*
X116587090Y-104360126D01*
X116541788Y-104257525D01*
X116541785Y-104257520D01*
X116462479Y-104178214D01*
X116462474Y-104178211D01*
X116359876Y-104132910D01*
X116334794Y-104130000D01*
X115640000Y-104130000D01*
X115040000Y-104130000D01*
X114345214Y-104130000D01*
X114345191Y-104130002D01*
X114320130Y-104132908D01*
X114320126Y-104132909D01*
X114217525Y-104178211D01*
X114217520Y-104178214D01*
X114138214Y-104257520D01*
X114138211Y-104257525D01*
X114092910Y-104360122D01*
X114092910Y-104360124D01*
X114090000Y-104385205D01*
X114090000Y-104530000D01*
X113270000Y-104530000D01*
X113270000Y-104180000D01*
X111370000Y-104180000D01*
X111370000Y-104548053D01*
X111380613Y-104636443D01*
X111436079Y-104777095D01*
X111527435Y-104897564D01*
X111647906Y-104988921D01*
X111647908Y-104988922D01*
X111763172Y-105034377D01*
X111818316Y-105077282D01*
X111841509Y-105143190D01*
X111825388Y-105211175D01*
X111775071Y-105259651D01*
X111763172Y-105265085D01*
X111647660Y-105310637D01*
X111647658Y-105310638D01*
X111527077Y-105402077D01*
X111435639Y-105522656D01*
X111380122Y-105663438D01*
X111374188Y-105712853D01*
X111369500Y-105751898D01*
X111369500Y-105751903D01*
X111369500Y-107080236D01*
X111349815Y-107147275D01*
X111297011Y-107193030D01*
X111245500Y-107204236D01*
X110728057Y-107204236D01*
X110661018Y-107184551D01*
X110640376Y-107167917D01*
X110206819Y-106734360D01*
X110173334Y-106673037D01*
X110170500Y-106646679D01*
X110170500Y-105751903D01*
X110170500Y-105751898D01*
X110159877Y-105663436D01*
X110104361Y-105522658D01*
X110104360Y-105522657D01*
X110104360Y-105522656D01*
X110012922Y-105402077D01*
X109892343Y-105310639D01*
X109801481Y-105274808D01*
X109777507Y-105265353D01*
X109722365Y-105222449D01*
X109699172Y-105156541D01*
X109715292Y-105088556D01*
X109765609Y-105040080D01*
X109777500Y-105034649D01*
X109892342Y-104989361D01*
X110012922Y-104897922D01*
X110104361Y-104777342D01*
X110159877Y-104636564D01*
X110170500Y-104548102D01*
X110170500Y-103905668D01*
X110170580Y-103902528D01*
X110171827Y-103877923D01*
X110174176Y-103831610D01*
X110171930Y-103816948D01*
X110170500Y-103798172D01*
X110170500Y-103653320D01*
X110190185Y-103586281D01*
X110206819Y-103565639D01*
X110844892Y-102927566D01*
X110906215Y-102894081D01*
X110932573Y-102891247D01*
X111290032Y-102891247D01*
X111357071Y-102910932D01*
X111402826Y-102963736D01*
X111412770Y-103032894D01*
X111405386Y-103060737D01*
X111380614Y-103123553D01*
X111370000Y-103211946D01*
X111370000Y-103580000D01*
X113270000Y-103580000D01*
X113270000Y-103211946D01*
X113259385Y-103123553D01*
X113234614Y-103060737D01*
X113228332Y-102991150D01*
X113260669Y-102929214D01*
X113321357Y-102894593D01*
X113349968Y-102891247D01*
X113965500Y-102891247D01*
X114032539Y-102910932D01*
X114078294Y-102963736D01*
X114089500Y-103015247D01*
X114089500Y-103374856D01*
X114089502Y-103374882D01*
X114092413Y-103399987D01*
X114092415Y-103399991D01*
X114137793Y-103502764D01*
X114137794Y-103502765D01*
X114217235Y-103582206D01*
X114320009Y-103627585D01*
X114345135Y-103630500D01*
X116334864Y-103630499D01*
X116334879Y-103630497D01*
X116334882Y-103630497D01*
X116359987Y-103627586D01*
X116359988Y-103627585D01*
X116359991Y-103627585D01*
X116462765Y-103582206D01*
X116542206Y-103502765D01*
X116587585Y-103399991D01*
X116590500Y-103374865D01*
X116590499Y-102485136D01*
X116590497Y-102485117D01*
X116587586Y-102460012D01*
X116587585Y-102460010D01*
X116587585Y-102460009D01*
X116542206Y-102357235D01*
X116462765Y-102277794D01*
X116427113Y-102262052D01*
X116359992Y-102232415D01*
X116334868Y-102229500D01*
X116334865Y-102229500D01*
X115363321Y-102229500D01*
X115296282Y-102209815D01*
X115275640Y-102193181D01*
X115207555Y-102125096D01*
X115190919Y-102104451D01*
X115188805Y-102101162D01*
X115188804Y-102101160D01*
X115162153Y-102078067D01*
X115151629Y-102068948D01*
X115148410Y-102065951D01*
X115137927Y-102055468D01*
X115126062Y-102046586D01*
X115122637Y-102043826D01*
X115085465Y-102011617D01*
X115081899Y-102009988D01*
X115059109Y-101996465D01*
X115055974Y-101994118D01*
X115009896Y-101976932D01*
X115005825Y-101975246D01*
X114961089Y-101954816D01*
X114961088Y-101954815D01*
X114961084Y-101954814D01*
X114957202Y-101954256D01*
X114931538Y-101947706D01*
X114927869Y-101946338D01*
X114927865Y-101946337D01*
X114927862Y-101946336D01*
X114919947Y-101945769D01*
X114878818Y-101942826D01*
X114874427Y-101942354D01*
X114859766Y-101940248D01*
X114859763Y-101940247D01*
X114859758Y-101940247D01*
X114859752Y-101940247D01*
X114844956Y-101940247D01*
X114840531Y-101940089D01*
X114791478Y-101936580D01*
X114791475Y-101936580D01*
X114789588Y-101936990D01*
X114787645Y-101937413D01*
X114761289Y-101940247D01*
X110748706Y-101940247D01*
X110722354Y-101937414D01*
X110718523Y-101936581D01*
X110718520Y-101936581D01*
X110681894Y-101939200D01*
X110669476Y-101940089D01*
X110665054Y-101940247D01*
X110650242Y-101940247D01*
X110635582Y-101942354D01*
X110631185Y-101942827D01*
X110582138Y-101946336D01*
X110582135Y-101946337D01*
X110578467Y-101947705D01*
X110552791Y-101954258D01*
X110548909Y-101954816D01*
X110504177Y-101975244D01*
X110500095Y-101976935D01*
X110485573Y-101982351D01*
X110454027Y-101994118D01*
X110454024Y-101994119D01*
X110450886Y-101996469D01*
X110428103Y-102009987D01*
X110424535Y-102011616D01*
X110387365Y-102043822D01*
X110383926Y-102046594D01*
X110381864Y-102048138D01*
X110372075Y-102055468D01*
X110372068Y-102055473D01*
X110361595Y-102065944D01*
X110358359Y-102068957D01*
X110321195Y-102101160D01*
X110319074Y-102104461D01*
X110302444Y-102125096D01*
X109759084Y-102668456D01*
X109697761Y-102701941D01*
X109666808Y-102704336D01*
X109666808Y-102704500D01*
X109664693Y-102704500D01*
X109663995Y-102704554D01*
X109663110Y-102704501D01*
X109663102Y-102704500D01*
X108814862Y-102704500D01*
X108747823Y-102684815D01*
X108702068Y-102632011D01*
X108692124Y-102562853D01*
X108721149Y-102499297D01*
X108727181Y-102492819D01*
X109843681Y-101376319D01*
X109905004Y-101342834D01*
X109931362Y-101340000D01*
X123736259Y-101340000D01*
X123803298Y-101359685D01*
G37*
G04 #@! TD.AperFunction*
G04 #@! TA.AperFunction,Conductor*
G36*
X154181661Y-108139648D02*
G01*
X154184085Y-108140359D01*
X154184088Y-108140361D01*
X154187960Y-108140917D01*
X154213651Y-108147474D01*
X154217315Y-108148841D01*
X154266374Y-108152350D01*
X154270730Y-108152817D01*
X154285419Y-108154930D01*
X154300221Y-108154930D01*
X154304645Y-108155087D01*
X154353701Y-108158597D01*
X154357531Y-108157763D01*
X154383888Y-108154930D01*
X155098500Y-108154930D01*
X155165539Y-108174615D01*
X155211294Y-108227419D01*
X155222500Y-108278930D01*
X155222500Y-108660000D01*
X157147500Y-108660000D01*
X157147500Y-108278930D01*
X157167185Y-108211891D01*
X157219989Y-108166136D01*
X157271500Y-108154930D01*
X157311109Y-108154930D01*
X157378148Y-108174615D01*
X157398790Y-108191249D01*
X158138181Y-108930640D01*
X158171666Y-108991963D01*
X158174500Y-109018321D01*
X158174500Y-109774269D01*
X158177353Y-109804699D01*
X158177353Y-109804701D01*
X158218360Y-109921889D01*
X158222207Y-109932882D01*
X158279838Y-110010970D01*
X158281342Y-110013007D01*
X158305313Y-110078636D01*
X158289997Y-110146807D01*
X158240257Y-110195875D01*
X158181572Y-110210641D01*
X157081352Y-110210641D01*
X157014313Y-110190956D01*
X156968558Y-110138152D01*
X156958614Y-110068994D01*
X156985626Y-110009843D01*
X156984940Y-110009323D01*
X156987264Y-110006257D01*
X156987639Y-110005438D01*
X156988970Y-110004008D01*
X157081420Y-109882095D01*
X157136886Y-109741443D01*
X157147500Y-109653053D01*
X157147500Y-109260000D01*
X155222500Y-109260000D01*
X155222500Y-109653053D01*
X155233113Y-109741443D01*
X155288579Y-109882095D01*
X155385060Y-110009323D01*
X155382887Y-110010970D01*
X155409814Y-110060283D01*
X155404830Y-110129975D01*
X155362958Y-110185908D01*
X155297494Y-110210325D01*
X155288648Y-110210641D01*
X154227464Y-110210641D01*
X154160425Y-110190956D01*
X154139783Y-110174322D01*
X153983527Y-110018066D01*
X153950042Y-109956743D01*
X153955026Y-109887051D01*
X153955854Y-109884894D01*
X153956859Y-109882343D01*
X153956861Y-109882342D01*
X154012377Y-109741564D01*
X154023000Y-109653102D01*
X154023000Y-108266898D01*
X154022999Y-108266895D01*
X154022949Y-108266051D01*
X154023000Y-108265828D01*
X154023000Y-108263192D01*
X154023605Y-108263192D01*
X154038583Y-108197953D01*
X154088552Y-108149118D01*
X154156991Y-108135051D01*
X154181661Y-108139648D01*
G37*
G04 #@! TD.AperFunction*
G04 #@! TA.AperFunction,Conductor*
G36*
X155165539Y-105640115D02*
G01*
X155211294Y-105692919D01*
X155222500Y-105744430D01*
X155222500Y-106120000D01*
X157147500Y-106120000D01*
X157147500Y-106113699D01*
X157167185Y-106046660D01*
X157219989Y-106000905D01*
X157289147Y-105990961D01*
X157321734Y-106001807D01*
X157321896Y-106001374D01*
X157346477Y-106010542D01*
X157366442Y-106017989D01*
X157376277Y-106021657D01*
X157380337Y-106023338D01*
X157425089Y-106043776D01*
X157428965Y-106044333D01*
X157454647Y-106050887D01*
X157458316Y-106052256D01*
X157507361Y-106055763D01*
X157511759Y-106056236D01*
X157517262Y-106057028D01*
X157526419Y-106058345D01*
X157526420Y-106058345D01*
X157541232Y-106058345D01*
X157545654Y-106058502D01*
X157594701Y-106062011D01*
X157598532Y-106061177D01*
X157624884Y-106058345D01*
X159299074Y-106058345D01*
X159325430Y-106061178D01*
X159329261Y-106062012D01*
X159378316Y-106058502D01*
X159382741Y-106058345D01*
X159397543Y-106058345D01*
X159412203Y-106056236D01*
X159416589Y-106055764D01*
X159465647Y-106052256D01*
X159469313Y-106050888D01*
X159495001Y-106044332D01*
X159498874Y-106043776D01*
X159543613Y-106023343D01*
X159547667Y-106021663D01*
X159593758Y-106004474D01*
X159596890Y-106002128D01*
X159619690Y-105988601D01*
X159621263Y-105987882D01*
X159623250Y-105986975D01*
X159660403Y-105954780D01*
X159663853Y-105952001D01*
X159666514Y-105950009D01*
X159675712Y-105943124D01*
X159686180Y-105932654D01*
X159689422Y-105929636D01*
X159706450Y-105914882D01*
X159726587Y-105897434D01*
X159728703Y-105894140D01*
X159745336Y-105873498D01*
X159868930Y-105749903D01*
X159930253Y-105716419D01*
X159999945Y-105721403D01*
X160044292Y-105749904D01*
X161108292Y-106813904D01*
X161113645Y-106820007D01*
X161135340Y-106848281D01*
X161244099Y-106931735D01*
X161248450Y-106935074D01*
X161289652Y-106991502D01*
X161293805Y-107061248D01*
X161260643Y-107121129D01*
X160921096Y-107460677D01*
X160914994Y-107466028D01*
X160886718Y-107487726D01*
X160860837Y-107521456D01*
X160804021Y-107595500D01*
X160798563Y-107602613D01*
X160790463Y-107613169D01*
X160740250Y-107734394D01*
X160696409Y-107788797D01*
X160630114Y-107810862D01*
X160562415Y-107793583D01*
X160525918Y-107760573D01*
X160516792Y-107748208D01*
X160407644Y-107667653D01*
X160345000Y-107645733D01*
X160345000Y-109071000D01*
X160325315Y-109138039D01*
X160272511Y-109183794D01*
X160221000Y-109195000D01*
X159869000Y-109195000D01*
X159801961Y-109175315D01*
X159756206Y-109122511D01*
X159745000Y-109071000D01*
X159745000Y-107645733D01*
X159744999Y-107645733D01*
X159682355Y-107667653D01*
X159573207Y-107748207D01*
X159510080Y-107833742D01*
X159454432Y-107875993D01*
X159384776Y-107881451D01*
X159323227Y-107848383D01*
X159310540Y-107833741D01*
X159247151Y-107747851D01*
X159242285Y-107744260D01*
X159137882Y-107667207D01*
X159137880Y-107667206D01*
X159009700Y-107622353D01*
X158979270Y-107619500D01*
X158979266Y-107619500D01*
X158570734Y-107619500D01*
X158570730Y-107619500D01*
X158540300Y-107622353D01*
X158540298Y-107622353D01*
X158412119Y-107667206D01*
X158412114Y-107667209D01*
X158387245Y-107685563D01*
X158321616Y-107709534D01*
X158253445Y-107694216D01*
X158225932Y-107673473D01*
X157941238Y-107388779D01*
X157924602Y-107368134D01*
X157922488Y-107364845D01*
X157922487Y-107364843D01*
X157914351Y-107357793D01*
X157885312Y-107332631D01*
X157882093Y-107329634D01*
X157871610Y-107319151D01*
X157869193Y-107317342D01*
X157859750Y-107310273D01*
X157856320Y-107307509D01*
X157819148Y-107275300D01*
X157815582Y-107273671D01*
X157792792Y-107260148D01*
X157789657Y-107257801D01*
X157743579Y-107240615D01*
X157739508Y-107238929D01*
X157694772Y-107218499D01*
X157694771Y-107218498D01*
X157694767Y-107218497D01*
X157690885Y-107217939D01*
X157665221Y-107211389D01*
X157661552Y-107210021D01*
X157661548Y-107210020D01*
X157661545Y-107210019D01*
X157653630Y-107209452D01*
X157612501Y-107206509D01*
X157608110Y-107206037D01*
X157593449Y-107203931D01*
X157593446Y-107203930D01*
X157593441Y-107203930D01*
X157593435Y-107203930D01*
X157578639Y-107203930D01*
X157574214Y-107203772D01*
X157525161Y-107200263D01*
X157525158Y-107200263D01*
X157523752Y-107200569D01*
X157521328Y-107201096D01*
X157494972Y-107203930D01*
X157271500Y-107203930D01*
X157204461Y-107184245D01*
X157158706Y-107131441D01*
X157147500Y-107079930D01*
X157147500Y-106720000D01*
X155222500Y-106720000D01*
X155222500Y-107079930D01*
X155202815Y-107146969D01*
X155150011Y-107192724D01*
X155098500Y-107203930D01*
X154567751Y-107203930D01*
X154500712Y-107184245D01*
X154480070Y-107167611D01*
X154059319Y-106746860D01*
X154025834Y-106685537D01*
X154023000Y-106659179D01*
X154023000Y-105744430D01*
X154042685Y-105677391D01*
X154095489Y-105631636D01*
X154147000Y-105620430D01*
X155098500Y-105620430D01*
X155165539Y-105640115D01*
G37*
G04 #@! TD.AperFunction*
G04 #@! TA.AperFunction,Conductor*
G36*
X163459154Y-102255621D02*
G01*
X163479796Y-102272255D01*
X164923181Y-103715640D01*
X164956666Y-103776963D01*
X164959500Y-103803321D01*
X164959500Y-104173102D01*
X164960669Y-104182836D01*
X164970122Y-104261561D01*
X164970122Y-104261563D01*
X164970123Y-104261564D01*
X165018881Y-104385205D01*
X165028751Y-104410233D01*
X165027340Y-104410789D01*
X165040924Y-104469681D01*
X165017325Y-104535445D01*
X164961919Y-104578011D01*
X164917139Y-104586379D01*
X164567134Y-104586379D01*
X164540777Y-104583545D01*
X164536947Y-104582712D01*
X164536944Y-104582712D01*
X164487892Y-104586221D01*
X164483467Y-104586379D01*
X164468659Y-104586379D01*
X164453997Y-104588486D01*
X164449604Y-104588958D01*
X164400560Y-104592468D01*
X164396887Y-104593838D01*
X164371213Y-104600390D01*
X164367337Y-104600947D01*
X164367334Y-104600948D01*
X164322607Y-104621373D01*
X164318520Y-104623066D01*
X164272451Y-104640249D01*
X164272448Y-104640251D01*
X164269305Y-104642604D01*
X164246532Y-104656116D01*
X164242960Y-104657747D01*
X164242955Y-104657751D01*
X164205807Y-104689939D01*
X164202366Y-104692711D01*
X164190497Y-104701598D01*
X164180011Y-104712082D01*
X164176775Y-104715095D01*
X164139624Y-104747286D01*
X164139618Y-104747292D01*
X164137499Y-104750591D01*
X164120870Y-104771224D01*
X163850116Y-105041979D01*
X163788796Y-105075463D01*
X163762437Y-105078297D01*
X163278638Y-105078297D01*
X163211599Y-105058612D01*
X163165844Y-105005808D01*
X163155900Y-104936650D01*
X163161596Y-104913343D01*
X163182149Y-104854604D01*
X163182149Y-104854600D01*
X163185000Y-104824206D01*
X163185000Y-104245000D01*
X162409000Y-104245000D01*
X162341961Y-104225315D01*
X162296206Y-104172511D01*
X162285000Y-104121000D01*
X162285000Y-102695733D01*
X162885000Y-102695733D01*
X162885000Y-103645000D01*
X163184999Y-103645000D01*
X163184999Y-103065803D01*
X163182148Y-103035393D01*
X163137346Y-102907354D01*
X163056792Y-102798207D01*
X162947644Y-102717653D01*
X162885000Y-102695733D01*
X162285000Y-102695733D01*
X162284999Y-102695733D01*
X162222355Y-102717653D01*
X162113207Y-102798207D01*
X162050080Y-102883742D01*
X161994432Y-102925993D01*
X161924776Y-102931451D01*
X161863227Y-102898383D01*
X161850540Y-102883741D01*
X161787151Y-102797851D01*
X161735035Y-102759388D01*
X161677882Y-102717207D01*
X161677880Y-102717206D01*
X161549700Y-102672353D01*
X161519270Y-102669500D01*
X161519266Y-102669500D01*
X161438894Y-102669500D01*
X161371855Y-102649815D01*
X161351213Y-102633181D01*
X161165649Y-102447617D01*
X161132164Y-102386294D01*
X161137148Y-102316602D01*
X161179020Y-102260669D01*
X161244484Y-102236252D01*
X161253330Y-102235936D01*
X163392115Y-102235936D01*
X163459154Y-102255621D01*
G37*
G04 #@! TD.AperFunction*
G04 #@! TA.AperFunction,Conductor*
G36*
X155176352Y-102985160D02*
G01*
X155222107Y-103037964D01*
X155232429Y-103104259D01*
X155222500Y-103186946D01*
X155222500Y-103580000D01*
X156361000Y-103580000D01*
X156428039Y-103599685D01*
X156473794Y-103652489D01*
X156485000Y-103704000D01*
X156485000Y-104056000D01*
X156465315Y-104123039D01*
X156412511Y-104168794D01*
X156361000Y-104180000D01*
X155222500Y-104180000D01*
X155222500Y-104545430D01*
X155202815Y-104612469D01*
X155150011Y-104658224D01*
X155098500Y-104669430D01*
X154147000Y-104669430D01*
X154079961Y-104649745D01*
X154034206Y-104596941D01*
X154023000Y-104545430D01*
X154023000Y-103640821D01*
X154042685Y-103573782D01*
X154059319Y-103553140D01*
X154610665Y-103001794D01*
X154671988Y-102968309D01*
X154698346Y-102965475D01*
X155109313Y-102965475D01*
X155176352Y-102985160D01*
G37*
G04 #@! TD.AperFunction*
M02*
