G04 #@! TF.GenerationSoftware,KiCad,Pcbnew,7.0.10-7.0.10~ubuntu22.04.1*
G04 #@! TF.CreationDate,2024-01-08T19:12:50+01:00*
G04 #@! TF.ProjectId,Geiger Counter Mainboard,47656967-6572-4204-936f-756e74657220,1.0*
G04 #@! TF.SameCoordinates,Original*
G04 #@! TF.FileFunction,Copper,L2,Bot*
G04 #@! TF.FilePolarity,Positive*
%FSLAX46Y46*%
G04 Gerber Fmt 4.6, Leading zero omitted, Abs format (unit mm)*
G04 Created by KiCad (PCBNEW 7.0.10-7.0.10~ubuntu22.04.1) date 2024-01-08 19:12:50*
%MOMM*%
%LPD*%
G01*
G04 APERTURE LIST*
G04 #@! TA.AperFunction,ComponentPad*
%ADD10R,1.700000X1.700000*%
G04 #@! TD*
G04 #@! TA.AperFunction,ComponentPad*
%ADD11O,1.700000X1.700000*%
G04 #@! TD*
G04 #@! TA.AperFunction,ComponentPad*
%ADD12C,1.000000*%
G04 #@! TD*
G04 #@! TA.AperFunction,ComponentPad*
%ADD13C,6.400000*%
G04 #@! TD*
G04 #@! TA.AperFunction,ComponentPad*
%ADD14C,1.700000*%
G04 #@! TD*
G04 #@! TA.AperFunction,ViaPad*
%ADD15C,0.500000*%
G04 #@! TD*
G04 #@! TA.AperFunction,Conductor*
%ADD16C,2.000000*%
G04 #@! TD*
G04 #@! TA.AperFunction,Conductor*
%ADD17C,2.700000*%
G04 #@! TD*
G04 #@! TA.AperFunction,Conductor*
%ADD18C,0.800000*%
G04 #@! TD*
G04 APERTURE END LIST*
D10*
X132844138Y-142403417D03*
D11*
X130304138Y-142403417D03*
D10*
X153374138Y-145923417D03*
D11*
X150834138Y-145923417D03*
X148294138Y-145923417D03*
X145754138Y-145923417D03*
D10*
X173484138Y-145923417D03*
D11*
X170944138Y-145923417D03*
X168404138Y-145923417D03*
D10*
X106914138Y-62843417D03*
D12*
X105514138Y-54853417D03*
X105514138Y-103853417D03*
X106217082Y-53156361D03*
X106217082Y-56550473D03*
X106217082Y-102156361D03*
X106217082Y-105550473D03*
D11*
X106914138Y-65383417D03*
D12*
X107914138Y-52453417D03*
D13*
X107914138Y-54853417D03*
D12*
X107914138Y-57253417D03*
X107914138Y-101453417D03*
D13*
X107914138Y-103853417D03*
D12*
X107914138Y-106253417D03*
X109611194Y-53156361D03*
X109611194Y-56550473D03*
X109611194Y-102156361D03*
X109611194Y-105550473D03*
X110314138Y-54853417D03*
X110314138Y-103853417D03*
X188814138Y-54853417D03*
X188814138Y-103853417D03*
X189517082Y-53156361D03*
X189517082Y-56550473D03*
X189517082Y-102156361D03*
X189517082Y-105550473D03*
X191214138Y-52453417D03*
D13*
X191214138Y-54853417D03*
D12*
X191214138Y-57253417D03*
X191214138Y-101453417D03*
D13*
X191214138Y-103853417D03*
D12*
X191214138Y-106253417D03*
X192911194Y-53156361D03*
X192911194Y-56550473D03*
X192911194Y-102156361D03*
X192911194Y-105550473D03*
X193614138Y-54853417D03*
X193614138Y-103853417D03*
D11*
X106914138Y-67923417D03*
X106914138Y-70463417D03*
X106914138Y-73003417D03*
X106914138Y-75543417D03*
X106914138Y-78083417D03*
X106914138Y-80623417D03*
X106914138Y-83163417D03*
X106914138Y-85703417D03*
X106914138Y-88243417D03*
X106914138Y-90783417D03*
X106914138Y-93323417D03*
X106914138Y-95863417D03*
D10*
X191214138Y-75543417D03*
D11*
X191214138Y-78083417D03*
X191214138Y-80623417D03*
X191214138Y-83163417D03*
D10*
X159984138Y-110363417D03*
D11*
X157444138Y-110363417D03*
X154904138Y-110363417D03*
X152364138Y-110363417D03*
X149824138Y-110363417D03*
X147284138Y-110363417D03*
X144744138Y-110363417D03*
X142204138Y-110363417D03*
X139664138Y-110363417D03*
X137124138Y-110363417D03*
X134584138Y-110363417D03*
X132044138Y-110363417D03*
X129504138Y-110363417D03*
X126964138Y-110363417D03*
X124424138Y-110363417D03*
X121884138Y-110363417D03*
X119344138Y-110363417D03*
X116804138Y-110363417D03*
X114264138Y-110363417D03*
X111724138Y-110363417D03*
X109184138Y-110363417D03*
X106644138Y-110363417D03*
X106644138Y-135703417D03*
X109184138Y-135703417D03*
X111724138Y-135703417D03*
X114264138Y-135703417D03*
X116804138Y-135703417D03*
X119344138Y-135703417D03*
X121884138Y-135703417D03*
X124424138Y-135703417D03*
X126964138Y-135703417D03*
X129504138Y-135703417D03*
X132044138Y-135703417D03*
X134584138Y-135703417D03*
X137124138Y-135703417D03*
X139664138Y-135703417D03*
X142204138Y-135703417D03*
X144744138Y-135703417D03*
X147284138Y-135703417D03*
X149824138Y-135703417D03*
X152364138Y-135703417D03*
X154904138Y-135703417D03*
X157444138Y-135703417D03*
D14*
X159984138Y-135703417D03*
D12*
X188814138Y-143953417D03*
X189517082Y-142256361D03*
X189517082Y-145650473D03*
X191214138Y-141553417D03*
D13*
X191214138Y-143953417D03*
D12*
X191214138Y-146353417D03*
X192911194Y-142256361D03*
X192911194Y-145650473D03*
X193614138Y-143953417D03*
X105514138Y-143953417D03*
X106217082Y-142256361D03*
X106217082Y-145650473D03*
X107914138Y-141553417D03*
D13*
X107914138Y-143953417D03*
D12*
X107914138Y-146353417D03*
X109611194Y-142256361D03*
X109611194Y-145650473D03*
X110314138Y-143953417D03*
D10*
X183644138Y-145923417D03*
D11*
X181104138Y-145923417D03*
X178564138Y-145923417D03*
D15*
X160784138Y-54483417D03*
X115524138Y-138303417D03*
X188724138Y-82423417D03*
X128314138Y-111753417D03*
X130304138Y-57023417D03*
X109984138Y-72263417D03*
X155704138Y-107823417D03*
X148084138Y-54483417D03*
X107444138Y-123063417D03*
X135384138Y-138303417D03*
X113024138Y-140843417D03*
X155887785Y-125684845D03*
X137924138Y-125603417D03*
X142204138Y-107823417D03*
X193804138Y-115443417D03*
X153300140Y-128247244D03*
X191264138Y-123063417D03*
X130304138Y-54483417D03*
X104904138Y-123063417D03*
X104904138Y-107823417D03*
X109984138Y-87503417D03*
X135884138Y-107823417D03*
X132844138Y-115743417D03*
X145544138Y-125603417D03*
X118064138Y-105283417D03*
X191264138Y-135763417D03*
X118064138Y-107823417D03*
X193804138Y-133223417D03*
X185234138Y-135763417D03*
X117604138Y-54483417D03*
X178564138Y-54483417D03*
X120564138Y-105283417D03*
X183334138Y-117603417D03*
X186300000Y-116400000D03*
X109984138Y-69723417D03*
X142204138Y-105283417D03*
X158244138Y-54483417D03*
X135384138Y-113903417D03*
X158244138Y-138303417D03*
X127764138Y-125603417D03*
X122684138Y-115743417D03*
X150624138Y-107823417D03*
X127764138Y-54483417D03*
X123164138Y-111753417D03*
X158244138Y-57023417D03*
X107444138Y-107823417D03*
X182214138Y-129133417D03*
X150624138Y-54483417D03*
X133364138Y-107823417D03*
X135384138Y-123063417D03*
X132844138Y-113903417D03*
X181104138Y-54483417D03*
X120144138Y-57023417D03*
X150712496Y-130847511D03*
X140464138Y-57023417D03*
X153164138Y-107823417D03*
X115064138Y-123063417D03*
X153110801Y-125520750D03*
X145544138Y-138303417D03*
X109984138Y-67183417D03*
X137924138Y-138303417D03*
X122684138Y-113903417D03*
X148084138Y-57023417D03*
X176024138Y-135763417D03*
X170944138Y-57023417D03*
X148084138Y-123063417D03*
X150624138Y-57023417D03*
X148084138Y-138303417D03*
X178564138Y-57023417D03*
X193804138Y-112903417D03*
X148036493Y-130607681D03*
X113014138Y-107823417D03*
X127764138Y-57023417D03*
X139664138Y-107823417D03*
X148084138Y-125603417D03*
X127764138Y-138303417D03*
X139664138Y-105283417D03*
X193804138Y-125603417D03*
X181104138Y-57023417D03*
X109984138Y-74803417D03*
X104904138Y-138303417D03*
X191264138Y-112903417D03*
X120564138Y-107823417D03*
X109984138Y-84963417D03*
X193804138Y-123063417D03*
X137924138Y-57023417D03*
X107444138Y-138303417D03*
X193804138Y-135763417D03*
X191264138Y-125603417D03*
X125224138Y-138303417D03*
X160784138Y-57023417D03*
X127764138Y-107823417D03*
X109984138Y-77343417D03*
X175074138Y-117603417D03*
X130764138Y-107823417D03*
X133364138Y-111753417D03*
X143004138Y-138303417D03*
X109984138Y-107823417D03*
X155651543Y-123045885D03*
X150624138Y-138303417D03*
X168404138Y-57023417D03*
X150662005Y-127994791D03*
X145544138Y-123063417D03*
X117604138Y-57023417D03*
X104904138Y-125603417D03*
X135384138Y-115743417D03*
X137924138Y-54483417D03*
X137924138Y-123063417D03*
X113024138Y-138303417D03*
X191307483Y-115389141D03*
X188724138Y-72263417D03*
X115064138Y-125603417D03*
X125094138Y-115743417D03*
X140464138Y-138303417D03*
X148084138Y-107823417D03*
X140464138Y-54483417D03*
X125094138Y-113903417D03*
X160784138Y-107823417D03*
X191264138Y-133223417D03*
X158244138Y-107823417D03*
X127764138Y-123063417D03*
X122684138Y-138303417D03*
X170944138Y-54483417D03*
X120144138Y-54483417D03*
X117604138Y-123063417D03*
X155704138Y-138303417D03*
X109984138Y-79603417D03*
X109984138Y-90043417D03*
X125224138Y-125603417D03*
X115524138Y-107823417D03*
X122964138Y-107823417D03*
X113014138Y-105283417D03*
X117604138Y-125603417D03*
X145544138Y-107823417D03*
X117604138Y-138303417D03*
X109984138Y-82423417D03*
X186184138Y-76703417D03*
X107444138Y-125603417D03*
X173954138Y-129133417D03*
X135384138Y-125603417D03*
X125224138Y-123063417D03*
X168404138Y-54483417D03*
X109984138Y-138303417D03*
X109984138Y-97663417D03*
X188724138Y-76703417D03*
X186300000Y-124100000D03*
X187780569Y-125903417D03*
X187780569Y-127903417D03*
X170944138Y-131903417D03*
X176974138Y-131903417D03*
X187780569Y-129903417D03*
X187780569Y-123903417D03*
X185234138Y-131903417D03*
X181744138Y-114883417D03*
X187780569Y-116883417D03*
X180154138Y-131903417D03*
X187780569Y-118883417D03*
X184284138Y-114883417D03*
D16*
X183644138Y-143073417D02*
X183644138Y-145923417D01*
X160784138Y-145923417D02*
X165864138Y-140843417D01*
X171254138Y-140843417D02*
X181414138Y-140843417D01*
X181414138Y-140843417D02*
X183644138Y-143073417D01*
X165864138Y-123063417D02*
X165864138Y-67183417D01*
X112741340Y-117983417D02*
X109184138Y-114426215D01*
X165864138Y-123063417D02*
X160784138Y-117983417D01*
X165864138Y-140843417D02*
X171254138Y-140843417D01*
X160784138Y-117983417D02*
X112741340Y-117983417D01*
X109184138Y-114426215D02*
X109184138Y-110363417D01*
X165864138Y-67183417D02*
X161524138Y-62843417D01*
X153374138Y-145923417D02*
X160784138Y-145923417D01*
X171254138Y-140843417D02*
X173484138Y-143073417D01*
X161524138Y-62843417D02*
X106914138Y-62843417D01*
X173484138Y-143073417D02*
X173484138Y-145923417D01*
X165864138Y-140843417D02*
X165864138Y-123063417D01*
D17*
X168404138Y-145923417D02*
X168404138Y-144100000D01*
X178564138Y-145923417D02*
X178564138Y-144135862D01*
X145754138Y-145923417D02*
X143723395Y-145923417D01*
D18*
X176974138Y-131903417D02*
X180154138Y-131903417D01*
X187780569Y-127903417D02*
X187780569Y-125903417D01*
X187780569Y-118883417D02*
X187780569Y-116883417D01*
X187780569Y-125903417D02*
X187780569Y-123903417D01*
X187780569Y-116883417D02*
X187780569Y-116398371D01*
X187780569Y-129903417D02*
X187780569Y-127903417D01*
X184284138Y-114883417D02*
X181744138Y-114883417D01*
X186213852Y-131903417D02*
X185234138Y-131903417D01*
X187780569Y-130336700D02*
X186213852Y-131903417D01*
X186265615Y-114883417D02*
X184284138Y-114883417D01*
X187780569Y-116398371D02*
X186265615Y-114883417D01*
X170944138Y-131903417D02*
X176974138Y-131903417D01*
X187780569Y-129903417D02*
X187780569Y-130336700D01*
X180154138Y-131903417D02*
X185234138Y-131903417D01*
G04 #@! TA.AperFunction,Conductor*
G36*
X193767867Y-49904143D02*
G01*
X194057922Y-49921692D01*
X194072786Y-49923497D01*
X194119169Y-49931997D01*
X194354921Y-49975202D01*
X194369454Y-49978785D01*
X194369476Y-49978792D01*
X194643296Y-50064122D01*
X194657296Y-50069432D01*
X194918850Y-50187151D01*
X194932109Y-50194110D01*
X195177569Y-50342499D01*
X195189892Y-50351005D01*
X195415666Y-50527892D01*
X195415673Y-50527897D01*
X195426881Y-50537826D01*
X195629706Y-50740654D01*
X195639635Y-50751863D01*
X195816519Y-50977643D01*
X195825018Y-50989955D01*
X195973408Y-51235426D01*
X195980366Y-51248684D01*
X196098084Y-51510246D01*
X196103394Y-51524247D01*
X196188726Y-51798093D01*
X196192309Y-51812632D01*
X196244008Y-52094756D01*
X196245813Y-52109621D01*
X196263411Y-52400588D01*
X196263637Y-52408074D01*
X196263637Y-52479293D01*
X196263638Y-52479306D01*
X196263638Y-146399661D01*
X196263412Y-146407149D01*
X196245864Y-146697211D01*
X196244059Y-146712075D01*
X196192355Y-146994211D01*
X196188771Y-147008750D01*
X196103439Y-147282587D01*
X196098130Y-147296587D01*
X195980409Y-147558153D01*
X195973450Y-147571412D01*
X195825060Y-147816878D01*
X195816554Y-147829201D01*
X195639659Y-148054993D01*
X195629729Y-148066201D01*
X195426913Y-148269018D01*
X195415705Y-148278947D01*
X195189913Y-148455845D01*
X195177591Y-148464351D01*
X194932128Y-148612742D01*
X194918869Y-148619701D01*
X194657307Y-148737422D01*
X194643307Y-148742732D01*
X194369467Y-148828067D01*
X194354928Y-148831651D01*
X194072790Y-148883358D01*
X194057926Y-148885163D01*
X193910110Y-148894106D01*
X193768213Y-148902691D01*
X193760726Y-148902917D01*
X105437634Y-148902917D01*
X105437618Y-148902916D01*
X105367880Y-148902916D01*
X105360395Y-148902690D01*
X105070331Y-148885148D01*
X105055466Y-148883343D01*
X104773335Y-148831645D01*
X104758796Y-148828062D01*
X104484943Y-148742729D01*
X104470942Y-148737419D01*
X104209377Y-148619702D01*
X104196118Y-148612743D01*
X104196116Y-148612742D01*
X104153788Y-148587154D01*
X103950656Y-148464358D01*
X103938333Y-148455853D01*
X103712531Y-148278953D01*
X103701323Y-148269023D01*
X103498504Y-148066208D01*
X103488574Y-148055000D01*
X103311675Y-147829208D01*
X103303169Y-147816885D01*
X103154777Y-147571419D01*
X103147818Y-147558160D01*
X103147815Y-147558153D01*
X103030091Y-147296587D01*
X103024785Y-147282596D01*
X103006499Y-147223917D01*
X102939449Y-147008750D01*
X102935866Y-146994214D01*
X102935865Y-146994211D01*
X102884160Y-146712075D01*
X102882356Y-146697213D01*
X102875804Y-146588912D01*
X102864864Y-146408058D01*
X102864638Y-146400570D01*
X102864638Y-143953417D01*
X104409335Y-143953417D01*
X104428535Y-144319770D01*
X104485922Y-144682101D01*
X104485922Y-144682103D01*
X104580874Y-145036468D01*
X104712342Y-145378952D01*
X104878892Y-145705823D01*
X105078687Y-146013481D01*
X105235796Y-146207493D01*
X105792816Y-145650473D01*
X105962184Y-145650473D01*
X105981587Y-145748018D01*
X106036842Y-145830713D01*
X106119537Y-145885968D01*
X106192458Y-145900473D01*
X106241706Y-145900473D01*
X106314627Y-145885968D01*
X106397322Y-145830713D01*
X106452577Y-145748018D01*
X106471980Y-145650473D01*
X106452577Y-145552928D01*
X106397322Y-145470233D01*
X106314627Y-145414978D01*
X106241706Y-145400473D01*
X106192458Y-145400473D01*
X106119537Y-145414978D01*
X106036842Y-145470233D01*
X105981587Y-145552928D01*
X105962184Y-145650473D01*
X105792816Y-145650473D01*
X106589414Y-144853875D01*
X106615708Y-144896782D01*
X106779268Y-145088287D01*
X106970773Y-145251847D01*
X107013678Y-145278139D01*
X105660060Y-146631758D01*
X105854062Y-146788859D01*
X105854075Y-146788868D01*
X106161731Y-146988662D01*
X106488602Y-147155212D01*
X106831086Y-147286680D01*
X107185452Y-147381632D01*
X107547784Y-147439019D01*
X107914137Y-147458220D01*
X107914139Y-147458220D01*
X108280491Y-147439019D01*
X108642822Y-147381632D01*
X108642824Y-147381632D01*
X108997189Y-147286680D01*
X109339673Y-147155212D01*
X109666544Y-146988662D01*
X109974203Y-146788867D01*
X110168215Y-146631758D01*
X109186930Y-145650473D01*
X109356296Y-145650473D01*
X109375699Y-145748018D01*
X109430954Y-145830713D01*
X109513649Y-145885968D01*
X109586570Y-145900473D01*
X109635818Y-145900473D01*
X109708739Y-145885968D01*
X109791434Y-145830713D01*
X109846689Y-145748018D01*
X109866092Y-145650473D01*
X109846689Y-145552928D01*
X109791434Y-145470233D01*
X109708739Y-145414978D01*
X109635818Y-145400473D01*
X109586570Y-145400473D01*
X109513649Y-145414978D01*
X109430954Y-145470233D01*
X109375699Y-145552928D01*
X109356296Y-145650473D01*
X109186930Y-145650473D01*
X108814596Y-145278139D01*
X108857503Y-145251847D01*
X109049008Y-145088287D01*
X109212568Y-144896782D01*
X109238860Y-144853875D01*
X110592479Y-146207494D01*
X110749588Y-146013482D01*
X110949383Y-145705823D01*
X110991372Y-145623416D01*
X144643851Y-145623416D01*
X144643852Y-145623417D01*
X145352584Y-145623417D01*
X145294645Y-145713573D01*
X145254138Y-145851528D01*
X145254138Y-145995306D01*
X145294645Y-146133261D01*
X145352584Y-146223417D01*
X144643852Y-146223417D01*
X144677200Y-146340622D01*
X144677205Y-146340635D01*
X144772199Y-146531408D01*
X144900638Y-146701488D01*
X145058138Y-146845068D01*
X145058140Y-146845070D01*
X145239339Y-146957263D01*
X145239345Y-146957266D01*
X145438079Y-147034255D01*
X145454138Y-147037257D01*
X145454138Y-146325060D01*
X145481038Y-146348369D01*
X145611823Y-146408097D01*
X145718375Y-146423417D01*
X145789901Y-146423417D01*
X145896453Y-146408097D01*
X146027238Y-146348369D01*
X146054138Y-146325060D01*
X146054138Y-147037257D01*
X146070196Y-147034255D01*
X146268930Y-146957266D01*
X146268936Y-146957263D01*
X146450135Y-146845070D01*
X146450137Y-146845068D01*
X146607637Y-146701488D01*
X146736076Y-146531408D01*
X146831070Y-146340635D01*
X146831075Y-146340622D01*
X146864424Y-146223417D01*
X146155692Y-146223417D01*
X146213631Y-146133261D01*
X146254138Y-145995306D01*
X146254138Y-145923417D01*
X147138709Y-145923417D01*
X147158382Y-146135727D01*
X147200857Y-146285010D01*
X147216734Y-146340809D01*
X147216734Y-146340811D01*
X147311770Y-146531670D01*
X147387354Y-146631758D01*
X147440266Y-146701824D01*
X147597836Y-146845469D01*
X147779119Y-146957715D01*
X147977940Y-147034738D01*
X148187528Y-147073917D01*
X148187530Y-147073917D01*
X148400746Y-147073917D01*
X148400748Y-147073917D01*
X148610336Y-147034738D01*
X148809157Y-146957715D01*
X148990440Y-146845469D01*
X149148010Y-146701824D01*
X149276504Y-146531672D01*
X149288046Y-146508492D01*
X149371541Y-146340811D01*
X149371541Y-146340810D01*
X149371543Y-146340806D01*
X149429894Y-146135727D01*
X149440667Y-146019464D01*
X149466453Y-145954528D01*
X149511007Y-145922611D01*
X149474635Y-145901748D01*
X149442445Y-145839735D01*
X149440667Y-145827368D01*
X149433314Y-145748018D01*
X149429894Y-145711107D01*
X149371543Y-145506028D01*
X149371541Y-145506023D01*
X149371541Y-145506022D01*
X149276505Y-145315163D01*
X149148010Y-145145010D01*
X149085788Y-145088287D01*
X148990440Y-145001365D01*
X148809157Y-144889119D01*
X148809155Y-144889118D01*
X148709746Y-144850607D01*
X148610336Y-144812096D01*
X148400748Y-144772917D01*
X148187528Y-144772917D01*
X147977940Y-144812096D01*
X147977937Y-144812096D01*
X147977937Y-144812097D01*
X147779120Y-144889118D01*
X147779118Y-144889119D01*
X147597837Y-145001364D01*
X147440265Y-145145010D01*
X147311770Y-145315163D01*
X147216734Y-145506022D01*
X147216734Y-145506024D01*
X147183333Y-145623416D01*
X147158382Y-145711107D01*
X147138709Y-145923417D01*
X146254138Y-145923417D01*
X146254138Y-145851528D01*
X146213631Y-145713573D01*
X146155692Y-145623417D01*
X146864424Y-145623417D01*
X146864424Y-145623416D01*
X146831075Y-145506211D01*
X146831070Y-145506198D01*
X146736076Y-145315425D01*
X146607637Y-145145345D01*
X146450137Y-145001765D01*
X146450135Y-145001763D01*
X146268936Y-144889570D01*
X146268930Y-144889568D01*
X146070198Y-144812579D01*
X146054138Y-144809576D01*
X146054138Y-145521773D01*
X146027238Y-145498465D01*
X145896453Y-145438737D01*
X145789901Y-145423417D01*
X145718375Y-145423417D01*
X145611823Y-145438737D01*
X145481038Y-145498465D01*
X145454138Y-145521773D01*
X145454138Y-144809576D01*
X145438077Y-144812579D01*
X145239345Y-144889568D01*
X145239339Y-144889570D01*
X145058140Y-145001763D01*
X145058138Y-145001765D01*
X144900638Y-145145345D01*
X144772199Y-145315425D01*
X144677205Y-145506198D01*
X144677200Y-145506211D01*
X144643851Y-145623416D01*
X110991372Y-145623416D01*
X111115933Y-145378952D01*
X111247401Y-145036468D01*
X111342353Y-144682103D01*
X111342353Y-144682101D01*
X111399740Y-144319770D01*
X111418941Y-143953417D01*
X111418941Y-143953416D01*
X111399740Y-143587063D01*
X111342353Y-143224732D01*
X111342353Y-143224730D01*
X111247401Y-142870365D01*
X111115933Y-142527881D01*
X111052515Y-142403417D01*
X129148709Y-142403417D01*
X129168382Y-142615727D01*
X129218442Y-142791668D01*
X129226734Y-142820809D01*
X129226734Y-142820811D01*
X129321770Y-143011670D01*
X129321772Y-143011672D01*
X129450266Y-143181824D01*
X129607836Y-143325469D01*
X129789119Y-143437715D01*
X129987940Y-143514738D01*
X130197528Y-143553917D01*
X130197530Y-143553917D01*
X130410746Y-143553917D01*
X130410748Y-143553917D01*
X130620336Y-143514738D01*
X130819157Y-143437715D01*
X131000440Y-143325469D01*
X131158010Y-143181824D01*
X131286504Y-143011672D01*
X131381543Y-142820806D01*
X131439894Y-142615727D01*
X131446167Y-142548022D01*
X131471952Y-142483086D01*
X131528752Y-142442398D01*
X131598533Y-142438878D01*
X131659140Y-142473642D01*
X131691331Y-142535655D01*
X131693638Y-142559464D01*
X131693638Y-143298273D01*
X131693640Y-143298299D01*
X131696551Y-143323404D01*
X131696553Y-143323408D01*
X131741931Y-143426181D01*
X131741932Y-143426182D01*
X131821373Y-143505623D01*
X131924147Y-143551002D01*
X131949273Y-143553917D01*
X133739002Y-143553916D01*
X133739017Y-143553914D01*
X133739020Y-143553914D01*
X133764125Y-143551003D01*
X133764126Y-143551002D01*
X133764129Y-143551002D01*
X133866903Y-143505623D01*
X133946344Y-143426182D01*
X133991723Y-143323408D01*
X133994638Y-143298282D01*
X133994637Y-141508553D01*
X133994635Y-141508534D01*
X133991724Y-141483429D01*
X133991723Y-141483427D01*
X133991723Y-141483426D01*
X133946344Y-141380652D01*
X133866903Y-141301211D01*
X133846262Y-141292097D01*
X133764130Y-141255832D01*
X133739003Y-141252917D01*
X131949281Y-141252917D01*
X131949255Y-141252919D01*
X131924150Y-141255830D01*
X131924146Y-141255832D01*
X131821373Y-141301210D01*
X131741932Y-141380651D01*
X131696553Y-141483423D01*
X131696553Y-141483425D01*
X131693638Y-141508548D01*
X131693638Y-142247368D01*
X131673953Y-142314407D01*
X131621149Y-142360162D01*
X131551991Y-142370106D01*
X131488435Y-142341081D01*
X131450661Y-142282303D01*
X131446167Y-142258808D01*
X131445940Y-142256361D01*
X131439894Y-142191107D01*
X131381543Y-141986028D01*
X131381541Y-141986023D01*
X131381541Y-141986022D01*
X131286505Y-141795163D01*
X131158010Y-141625010D01*
X131000440Y-141481365D01*
X130819157Y-141369119D01*
X130819155Y-141369118D01*
X130649559Y-141303417D01*
X130620336Y-141292096D01*
X130410748Y-141252917D01*
X130197528Y-141252917D01*
X129987940Y-141292096D01*
X129987937Y-141292096D01*
X129987937Y-141292097D01*
X129789120Y-141369118D01*
X129789118Y-141369119D01*
X129607837Y-141481364D01*
X129450265Y-141625010D01*
X129321770Y-141795163D01*
X129226734Y-141986022D01*
X129226734Y-141986024D01*
X129168382Y-142191106D01*
X129151970Y-142368229D01*
X129148709Y-142403417D01*
X111052515Y-142403417D01*
X110949383Y-142201011D01*
X110749588Y-141893352D01*
X110592478Y-141699339D01*
X109238860Y-143052957D01*
X109212568Y-143010052D01*
X109049008Y-142818547D01*
X108857503Y-142654987D01*
X108814596Y-142628694D01*
X109186929Y-142256361D01*
X109356296Y-142256361D01*
X109375699Y-142353906D01*
X109430954Y-142436601D01*
X109513649Y-142491856D01*
X109586570Y-142506361D01*
X109635818Y-142506361D01*
X109708739Y-142491856D01*
X109791434Y-142436601D01*
X109846689Y-142353906D01*
X109866092Y-142256361D01*
X109846689Y-142158816D01*
X109791434Y-142076121D01*
X109708739Y-142020866D01*
X109635818Y-142006361D01*
X109586570Y-142006361D01*
X109513649Y-142020866D01*
X109430954Y-142076121D01*
X109375699Y-142158816D01*
X109356296Y-142256361D01*
X109186929Y-142256361D01*
X110168215Y-141275075D01*
X109974202Y-141117966D01*
X109666544Y-140918171D01*
X109339673Y-140751621D01*
X108997189Y-140620153D01*
X108642823Y-140525201D01*
X108280491Y-140467814D01*
X107914139Y-140448614D01*
X107914137Y-140448614D01*
X107547784Y-140467814D01*
X107185453Y-140525201D01*
X107185451Y-140525201D01*
X106831086Y-140620153D01*
X106488602Y-140751621D01*
X106161732Y-140918171D01*
X105854067Y-141117970D01*
X105660060Y-141275075D01*
X107013679Y-142628694D01*
X106970773Y-142654987D01*
X106779268Y-142818547D01*
X106615708Y-143010052D01*
X106589415Y-143052958D01*
X105792818Y-142256361D01*
X105962184Y-142256361D01*
X105981587Y-142353906D01*
X106036842Y-142436601D01*
X106119537Y-142491856D01*
X106192458Y-142506361D01*
X106241706Y-142506361D01*
X106314627Y-142491856D01*
X106397322Y-142436601D01*
X106452577Y-142353906D01*
X106471980Y-142256361D01*
X106452577Y-142158816D01*
X106397322Y-142076121D01*
X106314627Y-142020866D01*
X106241706Y-142006361D01*
X106192458Y-142006361D01*
X106119537Y-142020866D01*
X106036842Y-142076121D01*
X105981587Y-142158816D01*
X105962184Y-142256361D01*
X105792818Y-142256361D01*
X105235796Y-141699339D01*
X105078691Y-141893346D01*
X104878892Y-142201011D01*
X104712342Y-142527881D01*
X104580874Y-142870365D01*
X104485922Y-143224730D01*
X104485922Y-143224732D01*
X104428535Y-143587063D01*
X104409335Y-143953416D01*
X104409335Y-143953417D01*
X102864638Y-143953417D01*
X102864638Y-135403416D01*
X105533851Y-135403416D01*
X105533852Y-135403417D01*
X106242584Y-135403417D01*
X106184645Y-135493573D01*
X106144138Y-135631528D01*
X106144138Y-135775306D01*
X106184645Y-135913261D01*
X106242584Y-136003417D01*
X105533852Y-136003417D01*
X105567200Y-136120622D01*
X105567205Y-136120635D01*
X105662199Y-136311408D01*
X105790638Y-136481488D01*
X105948138Y-136625068D01*
X105948140Y-136625070D01*
X106129339Y-136737263D01*
X106129345Y-136737266D01*
X106328079Y-136814255D01*
X106344138Y-136817257D01*
X106344138Y-136105060D01*
X106371038Y-136128369D01*
X106501823Y-136188097D01*
X106608375Y-136203417D01*
X106679901Y-136203417D01*
X106786453Y-136188097D01*
X106917238Y-136128369D01*
X106944138Y-136105060D01*
X106944138Y-136817256D01*
X106960196Y-136814255D01*
X107158930Y-136737266D01*
X107158936Y-136737263D01*
X107340135Y-136625070D01*
X107340137Y-136625068D01*
X107497637Y-136481488D01*
X107626076Y-136311408D01*
X107721070Y-136120635D01*
X107721075Y-136120622D01*
X107754424Y-136003417D01*
X107045692Y-136003417D01*
X107103631Y-135913261D01*
X107144138Y-135775306D01*
X107144138Y-135631528D01*
X107103631Y-135493573D01*
X107045692Y-135403417D01*
X107754424Y-135403417D01*
X107754424Y-135403416D01*
X108073851Y-135403416D01*
X108073852Y-135403417D01*
X108782584Y-135403417D01*
X108724645Y-135493573D01*
X108684138Y-135631528D01*
X108684138Y-135775306D01*
X108724645Y-135913261D01*
X108782584Y-136003417D01*
X108073852Y-136003417D01*
X108107200Y-136120622D01*
X108107205Y-136120635D01*
X108202199Y-136311408D01*
X108330638Y-136481488D01*
X108488138Y-136625068D01*
X108488140Y-136625070D01*
X108669339Y-136737263D01*
X108669345Y-136737266D01*
X108868079Y-136814255D01*
X108884138Y-136817257D01*
X108884138Y-136105060D01*
X108911038Y-136128369D01*
X109041823Y-136188097D01*
X109148375Y-136203417D01*
X109219901Y-136203417D01*
X109326453Y-136188097D01*
X109457238Y-136128369D01*
X109484138Y-136105060D01*
X109484138Y-136817256D01*
X109500196Y-136814255D01*
X109698930Y-136737266D01*
X109698936Y-136737263D01*
X109880135Y-136625070D01*
X109880137Y-136625068D01*
X110037637Y-136481488D01*
X110166076Y-136311408D01*
X110261070Y-136120635D01*
X110261075Y-136120622D01*
X110294424Y-136003417D01*
X109585692Y-136003417D01*
X109643631Y-135913261D01*
X109684138Y-135775306D01*
X109684138Y-135703417D01*
X110568709Y-135703417D01*
X110588382Y-135915727D01*
X110646734Y-136120809D01*
X110646734Y-136120811D01*
X110741770Y-136311670D01*
X110741772Y-136311672D01*
X110870266Y-136481824D01*
X111027836Y-136625469D01*
X111209119Y-136737715D01*
X111407940Y-136814738D01*
X111617528Y-136853917D01*
X111617530Y-136853917D01*
X111830746Y-136853917D01*
X111830748Y-136853917D01*
X112040336Y-136814738D01*
X112239157Y-136737715D01*
X112420440Y-136625469D01*
X112578010Y-136481824D01*
X112706504Y-136311672D01*
X112760408Y-136203417D01*
X112801541Y-136120811D01*
X112801541Y-136120810D01*
X112801543Y-136120806D01*
X112859894Y-135915727D01*
X112870667Y-135799464D01*
X112896453Y-135734528D01*
X112938760Y-135704221D01*
X113047268Y-135704221D01*
X113083641Y-135725085D01*
X113115831Y-135787098D01*
X113117609Y-135799465D01*
X113128382Y-135915727D01*
X113186734Y-136120809D01*
X113186734Y-136120811D01*
X113281770Y-136311670D01*
X113281772Y-136311672D01*
X113410266Y-136481824D01*
X113567836Y-136625469D01*
X113749119Y-136737715D01*
X113947940Y-136814738D01*
X114157528Y-136853917D01*
X114157530Y-136853917D01*
X114370746Y-136853917D01*
X114370748Y-136853917D01*
X114580336Y-136814738D01*
X114779157Y-136737715D01*
X114960440Y-136625469D01*
X115118010Y-136481824D01*
X115246504Y-136311672D01*
X115300408Y-136203417D01*
X115341541Y-136120811D01*
X115341541Y-136120810D01*
X115341543Y-136120806D01*
X115399894Y-135915727D01*
X115410667Y-135799464D01*
X115436453Y-135734528D01*
X115478760Y-135704221D01*
X115587268Y-135704221D01*
X115623641Y-135725085D01*
X115655831Y-135787098D01*
X115657609Y-135799465D01*
X115668382Y-135915727D01*
X115726734Y-136120809D01*
X115726734Y-136120811D01*
X115821770Y-136311670D01*
X115821772Y-136311672D01*
X115950266Y-136481824D01*
X116107836Y-136625469D01*
X116289119Y-136737715D01*
X116487940Y-136814738D01*
X116697528Y-136853917D01*
X116697530Y-136853917D01*
X116910746Y-136853917D01*
X116910748Y-136853917D01*
X117120336Y-136814738D01*
X117319157Y-136737715D01*
X117500440Y-136625469D01*
X117658010Y-136481824D01*
X117786504Y-136311672D01*
X117840408Y-136203417D01*
X117881541Y-136120811D01*
X117881541Y-136120810D01*
X117881543Y-136120806D01*
X117939894Y-135915727D01*
X117950667Y-135799464D01*
X117976453Y-135734528D01*
X118018760Y-135704221D01*
X118127268Y-135704221D01*
X118163641Y-135725085D01*
X118195831Y-135787098D01*
X118197609Y-135799465D01*
X118208382Y-135915727D01*
X118266734Y-136120809D01*
X118266734Y-136120811D01*
X118361770Y-136311670D01*
X118361772Y-136311672D01*
X118490266Y-136481824D01*
X118647836Y-136625469D01*
X118829119Y-136737715D01*
X119027940Y-136814738D01*
X119237528Y-136853917D01*
X119237530Y-136853917D01*
X119450746Y-136853917D01*
X119450748Y-136853917D01*
X119660336Y-136814738D01*
X119859157Y-136737715D01*
X120040440Y-136625469D01*
X120198010Y-136481824D01*
X120326504Y-136311672D01*
X120380408Y-136203417D01*
X120421541Y-136120811D01*
X120421541Y-136120810D01*
X120421543Y-136120806D01*
X120479894Y-135915727D01*
X120490667Y-135799464D01*
X120516453Y-135734528D01*
X120558760Y-135704221D01*
X120667268Y-135704221D01*
X120703641Y-135725085D01*
X120735831Y-135787098D01*
X120737609Y-135799465D01*
X120748382Y-135915727D01*
X120806734Y-136120809D01*
X120806734Y-136120811D01*
X120901770Y-136311670D01*
X120901772Y-136311672D01*
X121030266Y-136481824D01*
X121187836Y-136625469D01*
X121369119Y-136737715D01*
X121567940Y-136814738D01*
X121777528Y-136853917D01*
X121777530Y-136853917D01*
X121990746Y-136853917D01*
X121990748Y-136853917D01*
X122200336Y-136814738D01*
X122399157Y-136737715D01*
X122580440Y-136625469D01*
X122738010Y-136481824D01*
X122866504Y-136311672D01*
X122920408Y-136203417D01*
X122961541Y-136120811D01*
X122961541Y-136120810D01*
X122961543Y-136120806D01*
X123019894Y-135915727D01*
X123030667Y-135799464D01*
X123056453Y-135734528D01*
X123098760Y-135704221D01*
X123207268Y-135704221D01*
X123243641Y-135725085D01*
X123275831Y-135787098D01*
X123277609Y-135799465D01*
X123288382Y-135915727D01*
X123346734Y-136120809D01*
X123346734Y-136120811D01*
X123441770Y-136311670D01*
X123441772Y-136311672D01*
X123570266Y-136481824D01*
X123727836Y-136625469D01*
X123909119Y-136737715D01*
X124107940Y-136814738D01*
X124317528Y-136853917D01*
X124317530Y-136853917D01*
X124530746Y-136853917D01*
X124530748Y-136853917D01*
X124740336Y-136814738D01*
X124939157Y-136737715D01*
X125120440Y-136625469D01*
X125278010Y-136481824D01*
X125406504Y-136311672D01*
X125460408Y-136203417D01*
X125501541Y-136120811D01*
X125501541Y-136120810D01*
X125501543Y-136120806D01*
X125559894Y-135915727D01*
X125570667Y-135799464D01*
X125596453Y-135734528D01*
X125638760Y-135704221D01*
X125747268Y-135704221D01*
X125783641Y-135725085D01*
X125815831Y-135787098D01*
X125817609Y-135799465D01*
X125828382Y-135915727D01*
X125886734Y-136120809D01*
X125886734Y-136120811D01*
X125981770Y-136311670D01*
X125981772Y-136311672D01*
X126110266Y-136481824D01*
X126267836Y-136625469D01*
X126449119Y-136737715D01*
X126647940Y-136814738D01*
X126857528Y-136853917D01*
X126857530Y-136853917D01*
X127070746Y-136853917D01*
X127070748Y-136853917D01*
X127280336Y-136814738D01*
X127479157Y-136737715D01*
X127660440Y-136625469D01*
X127818010Y-136481824D01*
X127946504Y-136311672D01*
X128000408Y-136203417D01*
X128041541Y-136120811D01*
X128041541Y-136120810D01*
X128041543Y-136120806D01*
X128099894Y-135915727D01*
X128110667Y-135799464D01*
X128136453Y-135734528D01*
X128178760Y-135704221D01*
X128287268Y-135704221D01*
X128323641Y-135725085D01*
X128355831Y-135787098D01*
X128357609Y-135799465D01*
X128368382Y-135915727D01*
X128426734Y-136120809D01*
X128426734Y-136120811D01*
X128521770Y-136311670D01*
X128521772Y-136311672D01*
X128650266Y-136481824D01*
X128807836Y-136625469D01*
X128989119Y-136737715D01*
X129187940Y-136814738D01*
X129397528Y-136853917D01*
X129397530Y-136853917D01*
X129610746Y-136853917D01*
X129610748Y-136853917D01*
X129820336Y-136814738D01*
X130019157Y-136737715D01*
X130200440Y-136625469D01*
X130358010Y-136481824D01*
X130486504Y-136311672D01*
X130540408Y-136203417D01*
X130581541Y-136120811D01*
X130581541Y-136120810D01*
X130581543Y-136120806D01*
X130639894Y-135915727D01*
X130650667Y-135799464D01*
X130676453Y-135734528D01*
X130718760Y-135704221D01*
X130827268Y-135704221D01*
X130863641Y-135725085D01*
X130895831Y-135787098D01*
X130897609Y-135799465D01*
X130908382Y-135915727D01*
X130966734Y-136120809D01*
X130966734Y-136120811D01*
X131061770Y-136311670D01*
X131061772Y-136311672D01*
X131190266Y-136481824D01*
X131347836Y-136625469D01*
X131529119Y-136737715D01*
X131727940Y-136814738D01*
X131937528Y-136853917D01*
X131937530Y-136853917D01*
X132150746Y-136853917D01*
X132150748Y-136853917D01*
X132360336Y-136814738D01*
X132559157Y-136737715D01*
X132740440Y-136625469D01*
X132898010Y-136481824D01*
X133026504Y-136311672D01*
X133080408Y-136203417D01*
X133121541Y-136120811D01*
X133121541Y-136120810D01*
X133121543Y-136120806D01*
X133179894Y-135915727D01*
X133190667Y-135799464D01*
X133216453Y-135734528D01*
X133258760Y-135704221D01*
X133367268Y-135704221D01*
X133403641Y-135725085D01*
X133435831Y-135787098D01*
X133437609Y-135799465D01*
X133448382Y-135915727D01*
X133506734Y-136120809D01*
X133506734Y-136120811D01*
X133601770Y-136311670D01*
X133601772Y-136311672D01*
X133730266Y-136481824D01*
X133887836Y-136625469D01*
X134069119Y-136737715D01*
X134267940Y-136814738D01*
X134477528Y-136853917D01*
X134477530Y-136853917D01*
X134690746Y-136853917D01*
X134690748Y-136853917D01*
X134900336Y-136814738D01*
X135099157Y-136737715D01*
X135280440Y-136625469D01*
X135438010Y-136481824D01*
X135566504Y-136311672D01*
X135620408Y-136203417D01*
X135661541Y-136120811D01*
X135661541Y-136120810D01*
X135661543Y-136120806D01*
X135719894Y-135915727D01*
X135730667Y-135799464D01*
X135756453Y-135734528D01*
X135798760Y-135704221D01*
X135907268Y-135704221D01*
X135943641Y-135725085D01*
X135975831Y-135787098D01*
X135977609Y-135799465D01*
X135988382Y-135915727D01*
X136046734Y-136120809D01*
X136046734Y-136120811D01*
X136141770Y-136311670D01*
X136141772Y-136311672D01*
X136270266Y-136481824D01*
X136427836Y-136625469D01*
X136609119Y-136737715D01*
X136807940Y-136814738D01*
X137017528Y-136853917D01*
X137017530Y-136853917D01*
X137230746Y-136853917D01*
X137230748Y-136853917D01*
X137440336Y-136814738D01*
X137639157Y-136737715D01*
X137820440Y-136625469D01*
X137978010Y-136481824D01*
X138106504Y-136311672D01*
X138160408Y-136203417D01*
X138201541Y-136120811D01*
X138201541Y-136120810D01*
X138201543Y-136120806D01*
X138259894Y-135915727D01*
X138270667Y-135799464D01*
X138296453Y-135734528D01*
X138338760Y-135704221D01*
X138447268Y-135704221D01*
X138483641Y-135725085D01*
X138515831Y-135787098D01*
X138517609Y-135799465D01*
X138528382Y-135915727D01*
X138586734Y-136120809D01*
X138586734Y-136120811D01*
X138681770Y-136311670D01*
X138681772Y-136311672D01*
X138810266Y-136481824D01*
X138967836Y-136625469D01*
X139149119Y-136737715D01*
X139347940Y-136814738D01*
X139557528Y-136853917D01*
X139557530Y-136853917D01*
X139770746Y-136853917D01*
X139770748Y-136853917D01*
X139980336Y-136814738D01*
X140179157Y-136737715D01*
X140360440Y-136625469D01*
X140518010Y-136481824D01*
X140646504Y-136311672D01*
X140700408Y-136203417D01*
X140741541Y-136120811D01*
X140741541Y-136120810D01*
X140741543Y-136120806D01*
X140799894Y-135915727D01*
X140810667Y-135799464D01*
X140836453Y-135734528D01*
X140878760Y-135704221D01*
X140987268Y-135704221D01*
X141023641Y-135725085D01*
X141055831Y-135787098D01*
X141057609Y-135799465D01*
X141068382Y-135915727D01*
X141126734Y-136120809D01*
X141126734Y-136120811D01*
X141221770Y-136311670D01*
X141221772Y-136311672D01*
X141350266Y-136481824D01*
X141507836Y-136625469D01*
X141689119Y-136737715D01*
X141887940Y-136814738D01*
X142097528Y-136853917D01*
X142097530Y-136853917D01*
X142310746Y-136853917D01*
X142310748Y-136853917D01*
X142520336Y-136814738D01*
X142719157Y-136737715D01*
X142900440Y-136625469D01*
X143058010Y-136481824D01*
X143186504Y-136311672D01*
X143240408Y-136203417D01*
X143281541Y-136120811D01*
X143281541Y-136120810D01*
X143281543Y-136120806D01*
X143339894Y-135915727D01*
X143350667Y-135799464D01*
X143376453Y-135734528D01*
X143418760Y-135704221D01*
X143527268Y-135704221D01*
X143563641Y-135725085D01*
X143595831Y-135787098D01*
X143597609Y-135799465D01*
X143608382Y-135915727D01*
X143666734Y-136120809D01*
X143666734Y-136120811D01*
X143761770Y-136311670D01*
X143761772Y-136311672D01*
X143890266Y-136481824D01*
X144047836Y-136625469D01*
X144229119Y-136737715D01*
X144427940Y-136814738D01*
X144637528Y-136853917D01*
X144637530Y-136853917D01*
X144850746Y-136853917D01*
X144850748Y-136853917D01*
X145060336Y-136814738D01*
X145259157Y-136737715D01*
X145440440Y-136625469D01*
X145598010Y-136481824D01*
X145726504Y-136311672D01*
X145780408Y-136203417D01*
X145821541Y-136120811D01*
X145821541Y-136120810D01*
X145821543Y-136120806D01*
X145879894Y-135915727D01*
X145890667Y-135799464D01*
X145916453Y-135734528D01*
X145958760Y-135704221D01*
X146067268Y-135704221D01*
X146103641Y-135725085D01*
X146135831Y-135787098D01*
X146137609Y-135799465D01*
X146148382Y-135915727D01*
X146206734Y-136120809D01*
X146206734Y-136120811D01*
X146301770Y-136311670D01*
X146301772Y-136311672D01*
X146430266Y-136481824D01*
X146587836Y-136625469D01*
X146769119Y-136737715D01*
X146967940Y-136814738D01*
X147177528Y-136853917D01*
X147177530Y-136853917D01*
X147390746Y-136853917D01*
X147390748Y-136853917D01*
X147600336Y-136814738D01*
X147799157Y-136737715D01*
X147980440Y-136625469D01*
X148138010Y-136481824D01*
X148266504Y-136311672D01*
X148320408Y-136203417D01*
X148361541Y-136120811D01*
X148361541Y-136120810D01*
X148361543Y-136120806D01*
X148419894Y-135915727D01*
X148430667Y-135799464D01*
X148456453Y-135734528D01*
X148498760Y-135704221D01*
X148607268Y-135704221D01*
X148643641Y-135725085D01*
X148675831Y-135787098D01*
X148677609Y-135799465D01*
X148688382Y-135915727D01*
X148746734Y-136120809D01*
X148746734Y-136120811D01*
X148841770Y-136311670D01*
X148841772Y-136311672D01*
X148970266Y-136481824D01*
X149127836Y-136625469D01*
X149309119Y-136737715D01*
X149507940Y-136814738D01*
X149717528Y-136853917D01*
X149717530Y-136853917D01*
X149930746Y-136853917D01*
X149930748Y-136853917D01*
X150140336Y-136814738D01*
X150339157Y-136737715D01*
X150520440Y-136625469D01*
X150678010Y-136481824D01*
X150806504Y-136311672D01*
X150860408Y-136203417D01*
X150901541Y-136120811D01*
X150901541Y-136120810D01*
X150901543Y-136120806D01*
X150959894Y-135915727D01*
X150970667Y-135799464D01*
X150996453Y-135734528D01*
X151038760Y-135704221D01*
X151147268Y-135704221D01*
X151183641Y-135725085D01*
X151215831Y-135787098D01*
X151217609Y-135799465D01*
X151228382Y-135915727D01*
X151286734Y-136120809D01*
X151286734Y-136120811D01*
X151381770Y-136311670D01*
X151381772Y-136311672D01*
X151510266Y-136481824D01*
X151667836Y-136625469D01*
X151849119Y-136737715D01*
X152047940Y-136814738D01*
X152257528Y-136853917D01*
X152257530Y-136853917D01*
X152470746Y-136853917D01*
X152470748Y-136853917D01*
X152680336Y-136814738D01*
X152879157Y-136737715D01*
X153060440Y-136625469D01*
X153218010Y-136481824D01*
X153346504Y-136311672D01*
X153400408Y-136203417D01*
X153441541Y-136120811D01*
X153441541Y-136120810D01*
X153441543Y-136120806D01*
X153499894Y-135915727D01*
X153510667Y-135799464D01*
X153536453Y-135734528D01*
X153578760Y-135704221D01*
X153687268Y-135704221D01*
X153723641Y-135725085D01*
X153755831Y-135787098D01*
X153757609Y-135799465D01*
X153768382Y-135915727D01*
X153826734Y-136120809D01*
X153826734Y-136120811D01*
X153921770Y-136311670D01*
X153921772Y-136311672D01*
X154050266Y-136481824D01*
X154207836Y-136625469D01*
X154389119Y-136737715D01*
X154587940Y-136814738D01*
X154797528Y-136853917D01*
X154797530Y-136853917D01*
X155010746Y-136853917D01*
X155010748Y-136853917D01*
X155220336Y-136814738D01*
X155419157Y-136737715D01*
X155600440Y-136625469D01*
X155758010Y-136481824D01*
X155886504Y-136311672D01*
X155940408Y-136203417D01*
X155981541Y-136120811D01*
X155981541Y-136120810D01*
X155981543Y-136120806D01*
X156039894Y-135915727D01*
X156050667Y-135799464D01*
X156076453Y-135734528D01*
X156118760Y-135704221D01*
X156227268Y-135704221D01*
X156263641Y-135725085D01*
X156295831Y-135787098D01*
X156297609Y-135799465D01*
X156308382Y-135915727D01*
X156366734Y-136120809D01*
X156366734Y-136120811D01*
X156461770Y-136311670D01*
X156461772Y-136311672D01*
X156590266Y-136481824D01*
X156747836Y-136625469D01*
X156929119Y-136737715D01*
X157127940Y-136814738D01*
X157337528Y-136853917D01*
X157337530Y-136853917D01*
X157550746Y-136853917D01*
X157550748Y-136853917D01*
X157760336Y-136814738D01*
X157959157Y-136737715D01*
X158140440Y-136625469D01*
X158298010Y-136481824D01*
X158426504Y-136311672D01*
X158480408Y-136203417D01*
X158521541Y-136120811D01*
X158521541Y-136120810D01*
X158521543Y-136120806D01*
X158579894Y-135915727D01*
X158590918Y-135796754D01*
X158616704Y-135731818D01*
X158655646Y-135703921D01*
X158771720Y-135703921D01*
X158803892Y-135722375D01*
X158836082Y-135784388D01*
X158837860Y-135796755D01*
X158848875Y-135915633D01*
X158848876Y-135915636D01*
X158907198Y-136120620D01*
X158907201Y-136120626D01*
X158985473Y-136277817D01*
X159485011Y-135778279D01*
X159524645Y-135913261D01*
X159602377Y-136034215D01*
X159711038Y-136128369D01*
X159841823Y-136188097D01*
X159913426Y-136198392D01*
X159410800Y-136701016D01*
X159469342Y-136737264D01*
X159469346Y-136737266D01*
X159668074Y-136814253D01*
X159668079Y-136814254D01*
X159877577Y-136853417D01*
X160090699Y-136853417D01*
X160300196Y-136814254D01*
X160300197Y-136814254D01*
X160498932Y-136737264D01*
X160498936Y-136737262D01*
X160557473Y-136701016D01*
X160054849Y-136198392D01*
X160126453Y-136188097D01*
X160257238Y-136128369D01*
X160365899Y-136034215D01*
X160443631Y-135913261D01*
X160483264Y-135778279D01*
X160982801Y-136277816D01*
X160982802Y-136277816D01*
X161061073Y-136120626D01*
X161061076Y-136120620D01*
X161119399Y-135915635D01*
X161119400Y-135915633D01*
X161139065Y-135703417D01*
X161139065Y-135703416D01*
X161119400Y-135491200D01*
X161119399Y-135491198D01*
X161061076Y-135286213D01*
X161061070Y-135286198D01*
X160982802Y-135129015D01*
X160483264Y-135628553D01*
X160443631Y-135493573D01*
X160365899Y-135372619D01*
X160257238Y-135278465D01*
X160126453Y-135218737D01*
X160054849Y-135208441D01*
X160557474Y-134705816D01*
X160498931Y-134669568D01*
X160498927Y-134669566D01*
X160300201Y-134592580D01*
X160300196Y-134592579D01*
X160090699Y-134553417D01*
X159877577Y-134553417D01*
X159668079Y-134592579D01*
X159668078Y-134592579D01*
X159469344Y-134669568D01*
X159469340Y-134669570D01*
X159410800Y-134705815D01*
X159410800Y-134705816D01*
X159913426Y-135208441D01*
X159841823Y-135218737D01*
X159711038Y-135278465D01*
X159602377Y-135372619D01*
X159524645Y-135493573D01*
X159485011Y-135628553D01*
X158985473Y-135129015D01*
X158985472Y-135129015D01*
X158907204Y-135286200D01*
X158907196Y-135286220D01*
X158848876Y-135491197D01*
X158848876Y-135491199D01*
X158837860Y-135610079D01*
X158812074Y-135675016D01*
X158771720Y-135703921D01*
X158655646Y-135703921D01*
X158657056Y-135702911D01*
X158624886Y-135684458D01*
X158592696Y-135622445D01*
X158590918Y-135610078D01*
X158590667Y-135607368D01*
X158579894Y-135491107D01*
X158521543Y-135286028D01*
X158521541Y-135286023D01*
X158521541Y-135286022D01*
X158426505Y-135095163D01*
X158298010Y-134925010D01*
X158140440Y-134781365D01*
X157959157Y-134669119D01*
X157959155Y-134669118D01*
X157761585Y-134592580D01*
X157760336Y-134592096D01*
X157550748Y-134552917D01*
X157337528Y-134552917D01*
X157127940Y-134592096D01*
X157127937Y-134592096D01*
X157127937Y-134592097D01*
X156929120Y-134669118D01*
X156929118Y-134669119D01*
X156747837Y-134781364D01*
X156590265Y-134925010D01*
X156461770Y-135095163D01*
X156366734Y-135286022D01*
X156366734Y-135286024D01*
X156308382Y-135491106D01*
X156297609Y-135607368D01*
X156271823Y-135672305D01*
X156227268Y-135704221D01*
X156118760Y-135704221D01*
X156121007Y-135702611D01*
X156084635Y-135681748D01*
X156052445Y-135619735D01*
X156050667Y-135607368D01*
X156049987Y-135600030D01*
X156039894Y-135491107D01*
X155981543Y-135286028D01*
X155981541Y-135286023D01*
X155981541Y-135286022D01*
X155886505Y-135095163D01*
X155758010Y-134925010D01*
X155600440Y-134781365D01*
X155419157Y-134669119D01*
X155419155Y-134669118D01*
X155221585Y-134592580D01*
X155220336Y-134592096D01*
X155010748Y-134552917D01*
X154797528Y-134552917D01*
X154587940Y-134592096D01*
X154587937Y-134592096D01*
X154587937Y-134592097D01*
X154389120Y-134669118D01*
X154389118Y-134669119D01*
X154207837Y-134781364D01*
X154050265Y-134925010D01*
X153921770Y-135095163D01*
X153826734Y-135286022D01*
X153826734Y-135286024D01*
X153768382Y-135491106D01*
X153757609Y-135607368D01*
X153731823Y-135672305D01*
X153687268Y-135704221D01*
X153578760Y-135704221D01*
X153581007Y-135702611D01*
X153544635Y-135681748D01*
X153512445Y-135619735D01*
X153510667Y-135607368D01*
X153509987Y-135600030D01*
X153499894Y-135491107D01*
X153441543Y-135286028D01*
X153441541Y-135286023D01*
X153441541Y-135286022D01*
X153346505Y-135095163D01*
X153218010Y-134925010D01*
X153060440Y-134781365D01*
X152879157Y-134669119D01*
X152879155Y-134669118D01*
X152681585Y-134592580D01*
X152680336Y-134592096D01*
X152470748Y-134552917D01*
X152257528Y-134552917D01*
X152047940Y-134592096D01*
X152047937Y-134592096D01*
X152047937Y-134592097D01*
X151849120Y-134669118D01*
X151849118Y-134669119D01*
X151667837Y-134781364D01*
X151510265Y-134925010D01*
X151381770Y-135095163D01*
X151286734Y-135286022D01*
X151286734Y-135286024D01*
X151228382Y-135491106D01*
X151217609Y-135607368D01*
X151191823Y-135672305D01*
X151147268Y-135704221D01*
X151038760Y-135704221D01*
X151041007Y-135702611D01*
X151004635Y-135681748D01*
X150972445Y-135619735D01*
X150970667Y-135607368D01*
X150969987Y-135600030D01*
X150959894Y-135491107D01*
X150901543Y-135286028D01*
X150901541Y-135286023D01*
X150901541Y-135286022D01*
X150806505Y-135095163D01*
X150678010Y-134925010D01*
X150520440Y-134781365D01*
X150339157Y-134669119D01*
X150339155Y-134669118D01*
X150141585Y-134592580D01*
X150140336Y-134592096D01*
X149930748Y-134552917D01*
X149717528Y-134552917D01*
X149507940Y-134592096D01*
X149507937Y-134592096D01*
X149507937Y-134592097D01*
X149309120Y-134669118D01*
X149309118Y-134669119D01*
X149127837Y-134781364D01*
X148970265Y-134925010D01*
X148841770Y-135095163D01*
X148746734Y-135286022D01*
X148746734Y-135286024D01*
X148688382Y-135491106D01*
X148677609Y-135607368D01*
X148651823Y-135672305D01*
X148607268Y-135704221D01*
X148498760Y-135704221D01*
X148501007Y-135702611D01*
X148464635Y-135681748D01*
X148432445Y-135619735D01*
X148430667Y-135607368D01*
X148429987Y-135600030D01*
X148419894Y-135491107D01*
X148361543Y-135286028D01*
X148361541Y-135286023D01*
X148361541Y-135286022D01*
X148266505Y-135095163D01*
X148138010Y-134925010D01*
X147980440Y-134781365D01*
X147799157Y-134669119D01*
X147799155Y-134669118D01*
X147601585Y-134592580D01*
X147600336Y-134592096D01*
X147390748Y-134552917D01*
X147177528Y-134552917D01*
X146967940Y-134592096D01*
X146967937Y-134592096D01*
X146967937Y-134592097D01*
X146769120Y-134669118D01*
X146769118Y-134669119D01*
X146587837Y-134781364D01*
X146430265Y-134925010D01*
X146301770Y-135095163D01*
X146206734Y-135286022D01*
X146206734Y-135286024D01*
X146148382Y-135491106D01*
X146137609Y-135607368D01*
X146111823Y-135672305D01*
X146067268Y-135704221D01*
X145958760Y-135704221D01*
X145961007Y-135702611D01*
X145924635Y-135681748D01*
X145892445Y-135619735D01*
X145890667Y-135607368D01*
X145889987Y-135600030D01*
X145879894Y-135491107D01*
X145821543Y-135286028D01*
X145821541Y-135286023D01*
X145821541Y-135286022D01*
X145726505Y-135095163D01*
X145598010Y-134925010D01*
X145440440Y-134781365D01*
X145259157Y-134669119D01*
X145259155Y-134669118D01*
X145061585Y-134592580D01*
X145060336Y-134592096D01*
X144850748Y-134552917D01*
X144637528Y-134552917D01*
X144427940Y-134592096D01*
X144427937Y-134592096D01*
X144427937Y-134592097D01*
X144229120Y-134669118D01*
X144229118Y-134669119D01*
X144047837Y-134781364D01*
X143890265Y-134925010D01*
X143761770Y-135095163D01*
X143666734Y-135286022D01*
X143666734Y-135286024D01*
X143608382Y-135491106D01*
X143597609Y-135607368D01*
X143571823Y-135672305D01*
X143527268Y-135704221D01*
X143418760Y-135704221D01*
X143421007Y-135702611D01*
X143384635Y-135681748D01*
X143352445Y-135619735D01*
X143350667Y-135607368D01*
X143349987Y-135600030D01*
X143339894Y-135491107D01*
X143281543Y-135286028D01*
X143281541Y-135286023D01*
X143281541Y-135286022D01*
X143186505Y-135095163D01*
X143058010Y-134925010D01*
X142900440Y-134781365D01*
X142719157Y-134669119D01*
X142719155Y-134669118D01*
X142521585Y-134592580D01*
X142520336Y-134592096D01*
X142310748Y-134552917D01*
X142097528Y-134552917D01*
X141887940Y-134592096D01*
X141887937Y-134592096D01*
X141887937Y-134592097D01*
X141689120Y-134669118D01*
X141689118Y-134669119D01*
X141507837Y-134781364D01*
X141350265Y-134925010D01*
X141221770Y-135095163D01*
X141126734Y-135286022D01*
X141126734Y-135286024D01*
X141068382Y-135491106D01*
X141057609Y-135607368D01*
X141031823Y-135672305D01*
X140987268Y-135704221D01*
X140878760Y-135704221D01*
X140881007Y-135702611D01*
X140844635Y-135681748D01*
X140812445Y-135619735D01*
X140810667Y-135607368D01*
X140809987Y-135600030D01*
X140799894Y-135491107D01*
X140741543Y-135286028D01*
X140741541Y-135286023D01*
X140741541Y-135286022D01*
X140646505Y-135095163D01*
X140518010Y-134925010D01*
X140360440Y-134781365D01*
X140179157Y-134669119D01*
X140179155Y-134669118D01*
X139981585Y-134592580D01*
X139980336Y-134592096D01*
X139770748Y-134552917D01*
X139557528Y-134552917D01*
X139347940Y-134592096D01*
X139347937Y-134592096D01*
X139347937Y-134592097D01*
X139149120Y-134669118D01*
X139149118Y-134669119D01*
X138967837Y-134781364D01*
X138810265Y-134925010D01*
X138681770Y-135095163D01*
X138586734Y-135286022D01*
X138586734Y-135286024D01*
X138528382Y-135491106D01*
X138517609Y-135607368D01*
X138491823Y-135672305D01*
X138447268Y-135704221D01*
X138338760Y-135704221D01*
X138341007Y-135702611D01*
X138304635Y-135681748D01*
X138272445Y-135619735D01*
X138270667Y-135607368D01*
X138269987Y-135600030D01*
X138259894Y-135491107D01*
X138201543Y-135286028D01*
X138201541Y-135286023D01*
X138201541Y-135286022D01*
X138106505Y-135095163D01*
X137978010Y-134925010D01*
X137820440Y-134781365D01*
X137639157Y-134669119D01*
X137639155Y-134669118D01*
X137441585Y-134592580D01*
X137440336Y-134592096D01*
X137230748Y-134552917D01*
X137017528Y-134552917D01*
X136807940Y-134592096D01*
X136807937Y-134592096D01*
X136807937Y-134592097D01*
X136609120Y-134669118D01*
X136609118Y-134669119D01*
X136427837Y-134781364D01*
X136270265Y-134925010D01*
X136141770Y-135095163D01*
X136046734Y-135286022D01*
X136046734Y-135286024D01*
X135988382Y-135491106D01*
X135977609Y-135607368D01*
X135951823Y-135672305D01*
X135907268Y-135704221D01*
X135798760Y-135704221D01*
X135801007Y-135702611D01*
X135764635Y-135681748D01*
X135732445Y-135619735D01*
X135730667Y-135607368D01*
X135729987Y-135600030D01*
X135719894Y-135491107D01*
X135661543Y-135286028D01*
X135661541Y-135286023D01*
X135661541Y-135286022D01*
X135566505Y-135095163D01*
X135438010Y-134925010D01*
X135280440Y-134781365D01*
X135099157Y-134669119D01*
X135099155Y-134669118D01*
X134901585Y-134592580D01*
X134900336Y-134592096D01*
X134690748Y-134552917D01*
X134477528Y-134552917D01*
X134267940Y-134592096D01*
X134267937Y-134592096D01*
X134267937Y-134592097D01*
X134069120Y-134669118D01*
X134069118Y-134669119D01*
X133887837Y-134781364D01*
X133730265Y-134925010D01*
X133601770Y-135095163D01*
X133506734Y-135286022D01*
X133506734Y-135286024D01*
X133448382Y-135491106D01*
X133437609Y-135607368D01*
X133411823Y-135672305D01*
X133367268Y-135704221D01*
X133258760Y-135704221D01*
X133261007Y-135702611D01*
X133224635Y-135681748D01*
X133192445Y-135619735D01*
X133190667Y-135607368D01*
X133189987Y-135600030D01*
X133179894Y-135491107D01*
X133121543Y-135286028D01*
X133121541Y-135286023D01*
X133121541Y-135286022D01*
X133026505Y-135095163D01*
X132898010Y-134925010D01*
X132740440Y-134781365D01*
X132559157Y-134669119D01*
X132559155Y-134669118D01*
X132361585Y-134592580D01*
X132360336Y-134592096D01*
X132150748Y-134552917D01*
X131937528Y-134552917D01*
X131727940Y-134592096D01*
X131727937Y-134592096D01*
X131727937Y-134592097D01*
X131529120Y-134669118D01*
X131529118Y-134669119D01*
X131347837Y-134781364D01*
X131190265Y-134925010D01*
X131061770Y-135095163D01*
X130966734Y-135286022D01*
X130966734Y-135286024D01*
X130908382Y-135491106D01*
X130897609Y-135607368D01*
X130871823Y-135672305D01*
X130827268Y-135704221D01*
X130718760Y-135704221D01*
X130721007Y-135702611D01*
X130684635Y-135681748D01*
X130652445Y-135619735D01*
X130650667Y-135607368D01*
X130649987Y-135600030D01*
X130639894Y-135491107D01*
X130581543Y-135286028D01*
X130581541Y-135286023D01*
X130581541Y-135286022D01*
X130486505Y-135095163D01*
X130358010Y-134925010D01*
X130200440Y-134781365D01*
X130019157Y-134669119D01*
X130019155Y-134669118D01*
X129821585Y-134592580D01*
X129820336Y-134592096D01*
X129610748Y-134552917D01*
X129397528Y-134552917D01*
X129187940Y-134592096D01*
X129187937Y-134592096D01*
X129187937Y-134592097D01*
X128989120Y-134669118D01*
X128989118Y-134669119D01*
X128807837Y-134781364D01*
X128650265Y-134925010D01*
X128521770Y-135095163D01*
X128426734Y-135286022D01*
X128426734Y-135286024D01*
X128368382Y-135491106D01*
X128357609Y-135607368D01*
X128331823Y-135672305D01*
X128287268Y-135704221D01*
X128178760Y-135704221D01*
X128181007Y-135702611D01*
X128144635Y-135681748D01*
X128112445Y-135619735D01*
X128110667Y-135607368D01*
X128109987Y-135600030D01*
X128099894Y-135491107D01*
X128041543Y-135286028D01*
X128041541Y-135286023D01*
X128041541Y-135286022D01*
X127946505Y-135095163D01*
X127818010Y-134925010D01*
X127660440Y-134781365D01*
X127479157Y-134669119D01*
X127479155Y-134669118D01*
X127281585Y-134592580D01*
X127280336Y-134592096D01*
X127070748Y-134552917D01*
X126857528Y-134552917D01*
X126647940Y-134592096D01*
X126647937Y-134592096D01*
X126647937Y-134592097D01*
X126449120Y-134669118D01*
X126449118Y-134669119D01*
X126267837Y-134781364D01*
X126110265Y-134925010D01*
X125981770Y-135095163D01*
X125886734Y-135286022D01*
X125886734Y-135286024D01*
X125828382Y-135491106D01*
X125817609Y-135607368D01*
X125791823Y-135672305D01*
X125747268Y-135704221D01*
X125638760Y-135704221D01*
X125641007Y-135702611D01*
X125604635Y-135681748D01*
X125572445Y-135619735D01*
X125570667Y-135607368D01*
X125569987Y-135600030D01*
X125559894Y-135491107D01*
X125501543Y-135286028D01*
X125501541Y-135286023D01*
X125501541Y-135286022D01*
X125406505Y-135095163D01*
X125278010Y-134925010D01*
X125120440Y-134781365D01*
X124939157Y-134669119D01*
X124939155Y-134669118D01*
X124741585Y-134592580D01*
X124740336Y-134592096D01*
X124530748Y-134552917D01*
X124317528Y-134552917D01*
X124107940Y-134592096D01*
X124107937Y-134592096D01*
X124107937Y-134592097D01*
X123909120Y-134669118D01*
X123909118Y-134669119D01*
X123727837Y-134781364D01*
X123570265Y-134925010D01*
X123441770Y-135095163D01*
X123346734Y-135286022D01*
X123346734Y-135286024D01*
X123288382Y-135491106D01*
X123277609Y-135607368D01*
X123251823Y-135672305D01*
X123207268Y-135704221D01*
X123098760Y-135704221D01*
X123101007Y-135702611D01*
X123064635Y-135681748D01*
X123032445Y-135619735D01*
X123030667Y-135607368D01*
X123029987Y-135600030D01*
X123019894Y-135491107D01*
X122961543Y-135286028D01*
X122961541Y-135286023D01*
X122961541Y-135286022D01*
X122866505Y-135095163D01*
X122738010Y-134925010D01*
X122580440Y-134781365D01*
X122399157Y-134669119D01*
X122399155Y-134669118D01*
X122201585Y-134592580D01*
X122200336Y-134592096D01*
X121990748Y-134552917D01*
X121777528Y-134552917D01*
X121567940Y-134592096D01*
X121567937Y-134592096D01*
X121567937Y-134592097D01*
X121369120Y-134669118D01*
X121369118Y-134669119D01*
X121187837Y-134781364D01*
X121030265Y-134925010D01*
X120901770Y-135095163D01*
X120806734Y-135286022D01*
X120806734Y-135286024D01*
X120748382Y-135491106D01*
X120737609Y-135607368D01*
X120711823Y-135672305D01*
X120667268Y-135704221D01*
X120558760Y-135704221D01*
X120561007Y-135702611D01*
X120524635Y-135681748D01*
X120492445Y-135619735D01*
X120490667Y-135607368D01*
X120489987Y-135600030D01*
X120479894Y-135491107D01*
X120421543Y-135286028D01*
X120421541Y-135286023D01*
X120421541Y-135286022D01*
X120326505Y-135095163D01*
X120198010Y-134925010D01*
X120040440Y-134781365D01*
X119859157Y-134669119D01*
X119859155Y-134669118D01*
X119661585Y-134592580D01*
X119660336Y-134592096D01*
X119450748Y-134552917D01*
X119237528Y-134552917D01*
X119027940Y-134592096D01*
X119027937Y-134592096D01*
X119027937Y-134592097D01*
X118829120Y-134669118D01*
X118829118Y-134669119D01*
X118647837Y-134781364D01*
X118490265Y-134925010D01*
X118361770Y-135095163D01*
X118266734Y-135286022D01*
X118266734Y-135286024D01*
X118208382Y-135491106D01*
X118197609Y-135607368D01*
X118171823Y-135672305D01*
X118127268Y-135704221D01*
X118018760Y-135704221D01*
X118021007Y-135702611D01*
X117984635Y-135681748D01*
X117952445Y-135619735D01*
X117950667Y-135607368D01*
X117949987Y-135600030D01*
X117939894Y-135491107D01*
X117881543Y-135286028D01*
X117881541Y-135286023D01*
X117881541Y-135286022D01*
X117786505Y-135095163D01*
X117658010Y-134925010D01*
X117500440Y-134781365D01*
X117319157Y-134669119D01*
X117319155Y-134669118D01*
X117121585Y-134592580D01*
X117120336Y-134592096D01*
X116910748Y-134552917D01*
X116697528Y-134552917D01*
X116487940Y-134592096D01*
X116487937Y-134592096D01*
X116487937Y-134592097D01*
X116289120Y-134669118D01*
X116289118Y-134669119D01*
X116107837Y-134781364D01*
X115950265Y-134925010D01*
X115821770Y-135095163D01*
X115726734Y-135286022D01*
X115726734Y-135286024D01*
X115668382Y-135491106D01*
X115657609Y-135607368D01*
X115631823Y-135672305D01*
X115587268Y-135704221D01*
X115478760Y-135704221D01*
X115481007Y-135702611D01*
X115444635Y-135681748D01*
X115412445Y-135619735D01*
X115410667Y-135607368D01*
X115409987Y-135600030D01*
X115399894Y-135491107D01*
X115341543Y-135286028D01*
X115341541Y-135286023D01*
X115341541Y-135286022D01*
X115246505Y-135095163D01*
X115118010Y-134925010D01*
X114960440Y-134781365D01*
X114779157Y-134669119D01*
X114779155Y-134669118D01*
X114581585Y-134592580D01*
X114580336Y-134592096D01*
X114370748Y-134552917D01*
X114157528Y-134552917D01*
X113947940Y-134592096D01*
X113947937Y-134592096D01*
X113947937Y-134592097D01*
X113749120Y-134669118D01*
X113749118Y-134669119D01*
X113567837Y-134781364D01*
X113410265Y-134925010D01*
X113281770Y-135095163D01*
X113186734Y-135286022D01*
X113186734Y-135286024D01*
X113128382Y-135491106D01*
X113117609Y-135607368D01*
X113091823Y-135672305D01*
X113047268Y-135704221D01*
X112938760Y-135704221D01*
X112941007Y-135702611D01*
X112904635Y-135681748D01*
X112872445Y-135619735D01*
X112870667Y-135607368D01*
X112869987Y-135600030D01*
X112859894Y-135491107D01*
X112801543Y-135286028D01*
X112801541Y-135286023D01*
X112801541Y-135286022D01*
X112706505Y-135095163D01*
X112578010Y-134925010D01*
X112420440Y-134781365D01*
X112239157Y-134669119D01*
X112239155Y-134669118D01*
X112041585Y-134592580D01*
X112040336Y-134592096D01*
X111830748Y-134552917D01*
X111617528Y-134552917D01*
X111407940Y-134592096D01*
X111407937Y-134592096D01*
X111407937Y-134592097D01*
X111209120Y-134669118D01*
X111209118Y-134669119D01*
X111027837Y-134781364D01*
X110870265Y-134925010D01*
X110741770Y-135095163D01*
X110646734Y-135286022D01*
X110646734Y-135286024D01*
X110588382Y-135491106D01*
X110568709Y-135703416D01*
X110568709Y-135703417D01*
X109684138Y-135703417D01*
X109684138Y-135631528D01*
X109643631Y-135493573D01*
X109585692Y-135403417D01*
X110294424Y-135403417D01*
X110294424Y-135403416D01*
X110261075Y-135286211D01*
X110261070Y-135286198D01*
X110166076Y-135095425D01*
X110037637Y-134925345D01*
X109880137Y-134781765D01*
X109880135Y-134781763D01*
X109698936Y-134669570D01*
X109698930Y-134669568D01*
X109500198Y-134592579D01*
X109484138Y-134589576D01*
X109484138Y-135301773D01*
X109457238Y-135278465D01*
X109326453Y-135218737D01*
X109219901Y-135203417D01*
X109148375Y-135203417D01*
X109041823Y-135218737D01*
X108911038Y-135278465D01*
X108884138Y-135301773D01*
X108884138Y-134589576D01*
X108868077Y-134592579D01*
X108669345Y-134669568D01*
X108669339Y-134669570D01*
X108488140Y-134781763D01*
X108488138Y-134781765D01*
X108330638Y-134925345D01*
X108202199Y-135095425D01*
X108107205Y-135286198D01*
X108107200Y-135286211D01*
X108073851Y-135403416D01*
X107754424Y-135403416D01*
X107721075Y-135286211D01*
X107721070Y-135286198D01*
X107626076Y-135095425D01*
X107497637Y-134925345D01*
X107340137Y-134781765D01*
X107340135Y-134781763D01*
X107158936Y-134669570D01*
X107158930Y-134669568D01*
X106960198Y-134592579D01*
X106944138Y-134589576D01*
X106944138Y-135301773D01*
X106917238Y-135278465D01*
X106786453Y-135218737D01*
X106679901Y-135203417D01*
X106608375Y-135203417D01*
X106501823Y-135218737D01*
X106371038Y-135278465D01*
X106344138Y-135301773D01*
X106344138Y-134589576D01*
X106328077Y-134592579D01*
X106129345Y-134669568D01*
X106129339Y-134669570D01*
X105948140Y-134781763D01*
X105948138Y-134781765D01*
X105790638Y-134925345D01*
X105662199Y-135095425D01*
X105567205Y-135286198D01*
X105567200Y-135286211D01*
X105533851Y-135403416D01*
X102864638Y-135403416D01*
X102864638Y-110063416D01*
X105533851Y-110063416D01*
X105533852Y-110063417D01*
X106242584Y-110063417D01*
X106184645Y-110153573D01*
X106144138Y-110291528D01*
X106144138Y-110435306D01*
X106184645Y-110573261D01*
X106242584Y-110663417D01*
X105533852Y-110663417D01*
X105567200Y-110780622D01*
X105567205Y-110780635D01*
X105662199Y-110971408D01*
X105790638Y-111141488D01*
X105948138Y-111285068D01*
X105948140Y-111285070D01*
X106129339Y-111397263D01*
X106129345Y-111397266D01*
X106328079Y-111474255D01*
X106344138Y-111477257D01*
X106344138Y-110765060D01*
X106371038Y-110788369D01*
X106501823Y-110848097D01*
X106608375Y-110863417D01*
X106679901Y-110863417D01*
X106786453Y-110848097D01*
X106917238Y-110788369D01*
X106944138Y-110765060D01*
X106944138Y-111477256D01*
X106960196Y-111474255D01*
X107158930Y-111397266D01*
X107158936Y-111397263D01*
X107340135Y-111285070D01*
X107340137Y-111285068D01*
X107497637Y-111141488D01*
X107626078Y-110971406D01*
X107648638Y-110926100D01*
X107696140Y-110874862D01*
X107763803Y-110857441D01*
X107830144Y-110879366D01*
X107874099Y-110933678D01*
X107883638Y-110981371D01*
X107883638Y-114307300D01*
X107883637Y-114307326D01*
X107883637Y-114539998D01*
X107892594Y-114590796D01*
X107894006Y-114601517D01*
X107898503Y-114652907D01*
X107911854Y-114702735D01*
X107914195Y-114713295D01*
X107923152Y-114764094D01*
X107940793Y-114812560D01*
X107944046Y-114822878D01*
X107957398Y-114872710D01*
X107979199Y-114919461D01*
X107983339Y-114929455D01*
X108000983Y-114977932D01*
X108000984Y-114977933D01*
X108026776Y-115022606D01*
X108031771Y-115032202D01*
X108053567Y-115078944D01*
X108053570Y-115078950D01*
X108083153Y-115121199D01*
X108088965Y-115130321D01*
X108114761Y-115175001D01*
X108147930Y-115214530D01*
X108154496Y-115223088D01*
X108179942Y-115259429D01*
X108184093Y-115265357D01*
X108349318Y-115430582D01*
X108349340Y-115430602D01*
X111737659Y-118818920D01*
X111737672Y-118818934D01*
X111741290Y-118822552D01*
X111741293Y-118822556D01*
X111844526Y-118925789D01*
X111902203Y-118983466D01*
X111944461Y-119013054D01*
X111953040Y-119019637D01*
X111975083Y-119038133D01*
X111991955Y-119052291D01*
X111992554Y-119052793D01*
X112037238Y-119078591D01*
X112046342Y-119084391D01*
X112088606Y-119113985D01*
X112135363Y-119135788D01*
X112144940Y-119140774D01*
X112189622Y-119166572D01*
X112238107Y-119184218D01*
X112248100Y-119188358D01*
X112267256Y-119197291D01*
X112294843Y-119210156D01*
X112344665Y-119223505D01*
X112354982Y-119226757D01*
X112403460Y-119244402D01*
X112403462Y-119244402D01*
X112403464Y-119244403D01*
X112441357Y-119251084D01*
X112454251Y-119253357D01*
X112464811Y-119255697D01*
X112514648Y-119269052D01*
X112566042Y-119273548D01*
X112576730Y-119274954D01*
X112627561Y-119283918D01*
X112627564Y-119283918D01*
X112860230Y-119283918D01*
X112860254Y-119283917D01*
X160194091Y-119283917D01*
X160261130Y-119303602D01*
X160281772Y-119320236D01*
X164527319Y-123565783D01*
X164560804Y-123627106D01*
X164563638Y-123653464D01*
X164563638Y-140253370D01*
X164543953Y-140320409D01*
X164527319Y-140341051D01*
X160281772Y-144586598D01*
X160220449Y-144620083D01*
X160194091Y-144622917D01*
X153317353Y-144622917D01*
X153147450Y-144637781D01*
X153147440Y-144637783D01*
X152927649Y-144696675D01*
X152927635Y-144696680D01*
X152789060Y-144761299D01*
X152736656Y-144772917D01*
X152479281Y-144772917D01*
X152479255Y-144772919D01*
X152454150Y-144775830D01*
X152454146Y-144775832D01*
X152351373Y-144821210D01*
X152271932Y-144900651D01*
X152226553Y-145003423D01*
X152226553Y-145003425D01*
X152223638Y-145028548D01*
X152223638Y-145285935D01*
X152212020Y-145338339D01*
X152147401Y-145476914D01*
X152147397Y-145476927D01*
X152144587Y-145487413D01*
X152108219Y-145547072D01*
X152045371Y-145577599D01*
X151975996Y-145569301D01*
X151922120Y-145524814D01*
X151913813Y-145510586D01*
X151816505Y-145315163D01*
X151688010Y-145145010D01*
X151625788Y-145088287D01*
X151530440Y-145001365D01*
X151349157Y-144889119D01*
X151349155Y-144889118D01*
X151249746Y-144850607D01*
X151150336Y-144812096D01*
X150940748Y-144772917D01*
X150727528Y-144772917D01*
X150517940Y-144812096D01*
X150517937Y-144812096D01*
X150517937Y-144812097D01*
X150319120Y-144889118D01*
X150319118Y-144889119D01*
X150137837Y-145001364D01*
X149980265Y-145145010D01*
X149851770Y-145315163D01*
X149756734Y-145506022D01*
X149756734Y-145506024D01*
X149698382Y-145711106D01*
X149687609Y-145827368D01*
X149661823Y-145892305D01*
X149617268Y-145924221D01*
X149653641Y-145945085D01*
X149685831Y-146007098D01*
X149687608Y-146019464D01*
X149698382Y-146135727D01*
X149740857Y-146285010D01*
X149756734Y-146340809D01*
X149756734Y-146340811D01*
X149851770Y-146531670D01*
X149927354Y-146631758D01*
X149980266Y-146701824D01*
X150137836Y-146845469D01*
X150319119Y-146957715D01*
X150517940Y-147034738D01*
X150727528Y-147073917D01*
X150727530Y-147073917D01*
X150940746Y-147073917D01*
X150940748Y-147073917D01*
X151150336Y-147034738D01*
X151349157Y-146957715D01*
X151530440Y-146845469D01*
X151688010Y-146701824D01*
X151816504Y-146531672D01*
X151911543Y-146340806D01*
X151911544Y-146340800D01*
X151913812Y-146336247D01*
X151961315Y-146285010D01*
X152028978Y-146267588D01*
X152095318Y-146289513D01*
X152139274Y-146343824D01*
X152144587Y-146359422D01*
X152147395Y-146369901D01*
X152147397Y-146369907D01*
X152147399Y-146369913D01*
X152212020Y-146508493D01*
X152223638Y-146560898D01*
X152223638Y-146818273D01*
X152223640Y-146818299D01*
X152226551Y-146843404D01*
X152226553Y-146843408D01*
X152271931Y-146946181D01*
X152271932Y-146946182D01*
X152351373Y-147025623D01*
X152454147Y-147071002D01*
X152479273Y-147073917D01*
X152736656Y-147073916D01*
X152789061Y-147085534D01*
X152815710Y-147097960D01*
X152927642Y-147150156D01*
X153147446Y-147209052D01*
X153317352Y-147223916D01*
X153317353Y-147223917D01*
X153317354Y-147223917D01*
X160665224Y-147223917D01*
X160665248Y-147223918D01*
X160670359Y-147223918D01*
X160897913Y-147223918D01*
X160897917Y-147223918D01*
X160948755Y-147214953D01*
X160959431Y-147213548D01*
X161010830Y-147209052D01*
X161060684Y-147195692D01*
X161071191Y-147193363D01*
X161122018Y-147184402D01*
X161170518Y-147166748D01*
X161180781Y-147163512D01*
X161230634Y-147150156D01*
X161277386Y-147128353D01*
X161287373Y-147124217D01*
X161335853Y-147106573D01*
X161380536Y-147080773D01*
X161390120Y-147075785D01*
X161436872Y-147053985D01*
X161479125Y-147024398D01*
X161488244Y-147018588D01*
X161532924Y-146992794D01*
X161572455Y-146959622D01*
X161581007Y-146953059D01*
X161623277Y-146923464D01*
X161784185Y-146762556D01*
X161784185Y-146762554D01*
X161791246Y-146755494D01*
X161791251Y-146755487D01*
X162923322Y-145623416D01*
X167293851Y-145623416D01*
X167293852Y-145623417D01*
X168002584Y-145623417D01*
X167944645Y-145713573D01*
X167904138Y-145851528D01*
X167904138Y-145995306D01*
X167944645Y-146133261D01*
X168002584Y-146223417D01*
X167293852Y-146223417D01*
X167327200Y-146340622D01*
X167327205Y-146340635D01*
X167422199Y-146531408D01*
X167550638Y-146701488D01*
X167708138Y-146845068D01*
X167708140Y-146845070D01*
X167889339Y-146957263D01*
X167889345Y-146957266D01*
X168088079Y-147034255D01*
X168104138Y-147037257D01*
X168104138Y-146325060D01*
X168131038Y-146348369D01*
X168261823Y-146408097D01*
X168368375Y-146423417D01*
X168439901Y-146423417D01*
X168546453Y-146408097D01*
X168677238Y-146348369D01*
X168704138Y-146325060D01*
X168704138Y-147037256D01*
X168720196Y-147034255D01*
X168918930Y-146957266D01*
X168918936Y-146957263D01*
X169100135Y-146845070D01*
X169100137Y-146845068D01*
X169257637Y-146701488D01*
X169386076Y-146531408D01*
X169481070Y-146340635D01*
X169481075Y-146340622D01*
X169514424Y-146223417D01*
X168805692Y-146223417D01*
X168863631Y-146133261D01*
X168904138Y-145995306D01*
X168904138Y-145851528D01*
X168863631Y-145713573D01*
X168805692Y-145623417D01*
X169514424Y-145623417D01*
X169514424Y-145623416D01*
X169481075Y-145506211D01*
X169481070Y-145506198D01*
X169386076Y-145315425D01*
X169257637Y-145145345D01*
X169100137Y-145001765D01*
X169100135Y-145001763D01*
X168918936Y-144889570D01*
X168918930Y-144889568D01*
X168720198Y-144812579D01*
X168704138Y-144809576D01*
X168704138Y-145521773D01*
X168677238Y-145498465D01*
X168546453Y-145438737D01*
X168439901Y-145423417D01*
X168368375Y-145423417D01*
X168261823Y-145438737D01*
X168131038Y-145498465D01*
X168104138Y-145521773D01*
X168104138Y-144809576D01*
X168088077Y-144812579D01*
X167889345Y-144889568D01*
X167889339Y-144889570D01*
X167708140Y-145001763D01*
X167708138Y-145001765D01*
X167550638Y-145145345D01*
X167422199Y-145315425D01*
X167327205Y-145506198D01*
X167327200Y-145506211D01*
X167293851Y-145623416D01*
X162923322Y-145623416D01*
X166366504Y-142180236D01*
X166427827Y-142146751D01*
X166454185Y-142143917D01*
X170664091Y-142143917D01*
X170731130Y-142163602D01*
X170751772Y-142180236D01*
X172147319Y-143575783D01*
X172180804Y-143637106D01*
X172183638Y-143663464D01*
X172183638Y-145304341D01*
X172163953Y-145371380D01*
X172111149Y-145417135D01*
X172041991Y-145427079D01*
X171978435Y-145398054D01*
X171948638Y-145359613D01*
X171938045Y-145338339D01*
X171926504Y-145315162D01*
X171798010Y-145145010D01*
X171640440Y-145001365D01*
X171459157Y-144889119D01*
X171459155Y-144889118D01*
X171359746Y-144850607D01*
X171260336Y-144812096D01*
X171050748Y-144772917D01*
X170837528Y-144772917D01*
X170627940Y-144812096D01*
X170627937Y-144812096D01*
X170627937Y-144812097D01*
X170429120Y-144889118D01*
X170429118Y-144889119D01*
X170247837Y-145001364D01*
X170090265Y-145145010D01*
X169961770Y-145315163D01*
X169866734Y-145506022D01*
X169866734Y-145506024D01*
X169833333Y-145623416D01*
X169808382Y-145711107D01*
X169788709Y-145923417D01*
X169808382Y-146135727D01*
X169850857Y-146285010D01*
X169866734Y-146340809D01*
X169866734Y-146340811D01*
X169961770Y-146531670D01*
X170037354Y-146631758D01*
X170090266Y-146701824D01*
X170247836Y-146845469D01*
X170429119Y-146957715D01*
X170627940Y-147034738D01*
X170837528Y-147073917D01*
X170837530Y-147073917D01*
X171050746Y-147073917D01*
X171050748Y-147073917D01*
X171260336Y-147034738D01*
X171459157Y-146957715D01*
X171640440Y-146845469D01*
X171798010Y-146701824D01*
X171926504Y-146531672D01*
X172021543Y-146340806D01*
X172021544Y-146340800D01*
X172023812Y-146336247D01*
X172071315Y-146285010D01*
X172138978Y-146267588D01*
X172205318Y-146289513D01*
X172249274Y-146343824D01*
X172254587Y-146359422D01*
X172257395Y-146369901D01*
X172257397Y-146369907D01*
X172257399Y-146369913D01*
X172322020Y-146508493D01*
X172333638Y-146560898D01*
X172333638Y-146818273D01*
X172333640Y-146818299D01*
X172336551Y-146843404D01*
X172336553Y-146843408D01*
X172381931Y-146946181D01*
X172381932Y-146946182D01*
X172461373Y-147025623D01*
X172564147Y-147071002D01*
X172589273Y-147073917D01*
X172846656Y-147073916D01*
X172899061Y-147085534D01*
X172925710Y-147097960D01*
X173037642Y-147150156D01*
X173257446Y-147209052D01*
X173419368Y-147223218D01*
X173484136Y-147228885D01*
X173484138Y-147228885D01*
X173484140Y-147228885D01*
X173540934Y-147223916D01*
X173710830Y-147209052D01*
X173930634Y-147150156D01*
X174069214Y-147085533D01*
X174121619Y-147073916D01*
X174378994Y-147073916D01*
X174379002Y-147073916D01*
X174379017Y-147073914D01*
X174379020Y-147073914D01*
X174404125Y-147071003D01*
X174404126Y-147071002D01*
X174404129Y-147071002D01*
X174506903Y-147025623D01*
X174586344Y-146946182D01*
X174631723Y-146843408D01*
X174634638Y-146818282D01*
X174634637Y-146560897D01*
X174646255Y-146508492D01*
X174697005Y-146399661D01*
X174710877Y-146369913D01*
X174717868Y-146343824D01*
X174732420Y-146289513D01*
X174769773Y-146150109D01*
X174784638Y-145980201D01*
X174784638Y-145623416D01*
X177453851Y-145623416D01*
X177453852Y-145623417D01*
X178162584Y-145623417D01*
X178104645Y-145713573D01*
X178064138Y-145851528D01*
X178064138Y-145995306D01*
X178104645Y-146133261D01*
X178162584Y-146223417D01*
X177453852Y-146223417D01*
X177487200Y-146340622D01*
X177487205Y-146340635D01*
X177582199Y-146531408D01*
X177710638Y-146701488D01*
X177868138Y-146845068D01*
X177868140Y-146845070D01*
X178049339Y-146957263D01*
X178049345Y-146957266D01*
X178248079Y-147034255D01*
X178264138Y-147037257D01*
X178264138Y-146325060D01*
X178291038Y-146348369D01*
X178421823Y-146408097D01*
X178528375Y-146423417D01*
X178599901Y-146423417D01*
X178706453Y-146408097D01*
X178837238Y-146348369D01*
X178864138Y-146325060D01*
X178864138Y-147037256D01*
X178880196Y-147034255D01*
X179078930Y-146957266D01*
X179078936Y-146957263D01*
X179260135Y-146845070D01*
X179260137Y-146845068D01*
X179417637Y-146701488D01*
X179546076Y-146531408D01*
X179641070Y-146340635D01*
X179641075Y-146340622D01*
X179674424Y-146223417D01*
X178965692Y-146223417D01*
X179023631Y-146133261D01*
X179064138Y-145995306D01*
X179064138Y-145851528D01*
X179023631Y-145713573D01*
X178965692Y-145623417D01*
X179674424Y-145623417D01*
X179674424Y-145623416D01*
X179641075Y-145506211D01*
X179641070Y-145506198D01*
X179546076Y-145315425D01*
X179417637Y-145145345D01*
X179260137Y-145001765D01*
X179260135Y-145001763D01*
X179078936Y-144889570D01*
X179078930Y-144889568D01*
X178880198Y-144812579D01*
X178864138Y-144809576D01*
X178864138Y-145521773D01*
X178837238Y-145498465D01*
X178706453Y-145438737D01*
X178599901Y-145423417D01*
X178528375Y-145423417D01*
X178421823Y-145438737D01*
X178291038Y-145498465D01*
X178264138Y-145521773D01*
X178264138Y-144809576D01*
X178248077Y-144812579D01*
X178049345Y-144889568D01*
X178049339Y-144889570D01*
X177868140Y-145001763D01*
X177868138Y-145001765D01*
X177710638Y-145145345D01*
X177582199Y-145315425D01*
X177487205Y-145506198D01*
X177487200Y-145506211D01*
X177453851Y-145623416D01*
X174784638Y-145623416D01*
X174784638Y-143193330D01*
X174784639Y-143193309D01*
X174784639Y-142959640D01*
X174784639Y-142959638D01*
X174775675Y-142908807D01*
X174774269Y-142898119D01*
X174769773Y-142846725D01*
X174756418Y-142796888D01*
X174754078Y-142786326D01*
X174745124Y-142735541D01*
X174727479Y-142687062D01*
X174724226Y-142676742D01*
X174710877Y-142626920D01*
X174710877Y-142626919D01*
X174689082Y-142580184D01*
X174684939Y-142570184D01*
X174667294Y-142521702D01*
X174641494Y-142477015D01*
X174636508Y-142467439D01*
X174614706Y-142420683D01*
X174614702Y-142420677D01*
X174585120Y-142378429D01*
X174579308Y-142369305D01*
X174556567Y-142329916D01*
X174540094Y-142262016D01*
X174562947Y-142195989D01*
X174617868Y-142152799D01*
X174663954Y-142143917D01*
X180824091Y-142143917D01*
X180891130Y-142163602D01*
X180911772Y-142180236D01*
X182307319Y-143575783D01*
X182340804Y-143637106D01*
X182343638Y-143663464D01*
X182343638Y-145304341D01*
X182323953Y-145371380D01*
X182271149Y-145417135D01*
X182201991Y-145427079D01*
X182138435Y-145398054D01*
X182108638Y-145359613D01*
X182098045Y-145338339D01*
X182086504Y-145315162D01*
X181958010Y-145145010D01*
X181800440Y-145001365D01*
X181619157Y-144889119D01*
X181619155Y-144889118D01*
X181519746Y-144850607D01*
X181420336Y-144812096D01*
X181210748Y-144772917D01*
X180997528Y-144772917D01*
X180787940Y-144812096D01*
X180787937Y-144812096D01*
X180787937Y-144812097D01*
X180589120Y-144889118D01*
X180589118Y-144889119D01*
X180407837Y-145001364D01*
X180250265Y-145145010D01*
X180121770Y-145315163D01*
X180026734Y-145506022D01*
X180026734Y-145506024D01*
X179993333Y-145623416D01*
X179968382Y-145711107D01*
X179948709Y-145923417D01*
X179968382Y-146135727D01*
X180010857Y-146285010D01*
X180026734Y-146340809D01*
X180026734Y-146340811D01*
X180121770Y-146531670D01*
X180197354Y-146631758D01*
X180250266Y-146701824D01*
X180407836Y-146845469D01*
X180589119Y-146957715D01*
X180787940Y-147034738D01*
X180997528Y-147073917D01*
X180997530Y-147073917D01*
X181210746Y-147073917D01*
X181210748Y-147073917D01*
X181420336Y-147034738D01*
X181619157Y-146957715D01*
X181800440Y-146845469D01*
X181958010Y-146701824D01*
X182086504Y-146531672D01*
X182181543Y-146340806D01*
X182181544Y-146340800D01*
X182183812Y-146336247D01*
X182231315Y-146285010D01*
X182298978Y-146267588D01*
X182365318Y-146289513D01*
X182409274Y-146343824D01*
X182414587Y-146359422D01*
X182417395Y-146369901D01*
X182417397Y-146369907D01*
X182417399Y-146369913D01*
X182482020Y-146508493D01*
X182493638Y-146560898D01*
X182493638Y-146818273D01*
X182493640Y-146818299D01*
X182496551Y-146843404D01*
X182496553Y-146843408D01*
X182541931Y-146946181D01*
X182541932Y-146946182D01*
X182621373Y-147025623D01*
X182724147Y-147071002D01*
X182749273Y-147073917D01*
X183006656Y-147073916D01*
X183059061Y-147085534D01*
X183085710Y-147097960D01*
X183197642Y-147150156D01*
X183417446Y-147209052D01*
X183579368Y-147223218D01*
X183644136Y-147228885D01*
X183644138Y-147228885D01*
X183644140Y-147228885D01*
X183700934Y-147223916D01*
X183870830Y-147209052D01*
X184090634Y-147150156D01*
X184229214Y-147085533D01*
X184281619Y-147073916D01*
X184538994Y-147073916D01*
X184539002Y-147073916D01*
X184539017Y-147073914D01*
X184539020Y-147073914D01*
X184564125Y-147071003D01*
X184564126Y-147071002D01*
X184564129Y-147071002D01*
X184666903Y-147025623D01*
X184746344Y-146946182D01*
X184791723Y-146843408D01*
X184794638Y-146818282D01*
X184794637Y-146560897D01*
X184806255Y-146508492D01*
X184857005Y-146399661D01*
X184870877Y-146369913D01*
X184877868Y-146343824D01*
X184892420Y-146289513D01*
X184929773Y-146150109D01*
X184944638Y-145980201D01*
X184944638Y-143953417D01*
X187709335Y-143953417D01*
X187728535Y-144319770D01*
X187785922Y-144682101D01*
X187785922Y-144682103D01*
X187880874Y-145036468D01*
X188012342Y-145378952D01*
X188178892Y-145705823D01*
X188378687Y-146013481D01*
X188535796Y-146207493D01*
X189092816Y-145650473D01*
X189262184Y-145650473D01*
X189281587Y-145748018D01*
X189336842Y-145830713D01*
X189419537Y-145885968D01*
X189492458Y-145900473D01*
X189541706Y-145900473D01*
X189614627Y-145885968D01*
X189697322Y-145830713D01*
X189752577Y-145748018D01*
X189771980Y-145650473D01*
X189752577Y-145552928D01*
X189697322Y-145470233D01*
X189614627Y-145414978D01*
X189541706Y-145400473D01*
X189492458Y-145400473D01*
X189419537Y-145414978D01*
X189336842Y-145470233D01*
X189281587Y-145552928D01*
X189262184Y-145650473D01*
X189092816Y-145650473D01*
X189889414Y-144853875D01*
X189915708Y-144896782D01*
X190079268Y-145088287D01*
X190270773Y-145251847D01*
X190313678Y-145278139D01*
X188960060Y-146631758D01*
X189154062Y-146788859D01*
X189154075Y-146788868D01*
X189461731Y-146988662D01*
X189788602Y-147155212D01*
X190131086Y-147286680D01*
X190485452Y-147381632D01*
X190847784Y-147439019D01*
X191214137Y-147458220D01*
X191214139Y-147458220D01*
X191580491Y-147439019D01*
X191942822Y-147381632D01*
X191942824Y-147381632D01*
X192297189Y-147286680D01*
X192639673Y-147155212D01*
X192966544Y-146988662D01*
X193274203Y-146788867D01*
X193468215Y-146631758D01*
X192486930Y-145650473D01*
X192656296Y-145650473D01*
X192675699Y-145748018D01*
X192730954Y-145830713D01*
X192813649Y-145885968D01*
X192886570Y-145900473D01*
X192935818Y-145900473D01*
X193008739Y-145885968D01*
X193091434Y-145830713D01*
X193146689Y-145748018D01*
X193166092Y-145650473D01*
X193146689Y-145552928D01*
X193091434Y-145470233D01*
X193008739Y-145414978D01*
X192935818Y-145400473D01*
X192886570Y-145400473D01*
X192813649Y-145414978D01*
X192730954Y-145470233D01*
X192675699Y-145552928D01*
X192656296Y-145650473D01*
X192486930Y-145650473D01*
X192114596Y-145278139D01*
X192157503Y-145251847D01*
X192349008Y-145088287D01*
X192512568Y-144896782D01*
X192538860Y-144853875D01*
X193892479Y-146207494D01*
X194049588Y-146013482D01*
X194249383Y-145705823D01*
X194415933Y-145378952D01*
X194547401Y-145036468D01*
X194642353Y-144682103D01*
X194642353Y-144682101D01*
X194699740Y-144319770D01*
X194718941Y-143953417D01*
X194718941Y-143953416D01*
X194699740Y-143587063D01*
X194642353Y-143224732D01*
X194642353Y-143224730D01*
X194547401Y-142870365D01*
X194415933Y-142527881D01*
X194249383Y-142201011D01*
X194049588Y-141893352D01*
X193892478Y-141699339D01*
X192538860Y-143052957D01*
X192512568Y-143010052D01*
X192349008Y-142818547D01*
X192157503Y-142654987D01*
X192114596Y-142628694D01*
X192486929Y-142256361D01*
X192656296Y-142256361D01*
X192675699Y-142353906D01*
X192730954Y-142436601D01*
X192813649Y-142491856D01*
X192886570Y-142506361D01*
X192935818Y-142506361D01*
X193008739Y-142491856D01*
X193091434Y-142436601D01*
X193146689Y-142353906D01*
X193166092Y-142256361D01*
X193146689Y-142158816D01*
X193091434Y-142076121D01*
X193008739Y-142020866D01*
X192935818Y-142006361D01*
X192886570Y-142006361D01*
X192813649Y-142020866D01*
X192730954Y-142076121D01*
X192675699Y-142158816D01*
X192656296Y-142256361D01*
X192486929Y-142256361D01*
X193468215Y-141275075D01*
X193274202Y-141117966D01*
X192966544Y-140918171D01*
X192639673Y-140751621D01*
X192297189Y-140620153D01*
X191942823Y-140525201D01*
X191580491Y-140467814D01*
X191214139Y-140448614D01*
X191214137Y-140448614D01*
X190847784Y-140467814D01*
X190485453Y-140525201D01*
X190485451Y-140525201D01*
X190131086Y-140620153D01*
X189788602Y-140751621D01*
X189461732Y-140918171D01*
X189154067Y-141117970D01*
X188960060Y-141275075D01*
X190313679Y-142628694D01*
X190270773Y-142654987D01*
X190079268Y-142818547D01*
X189915708Y-143010052D01*
X189889415Y-143052958D01*
X189092818Y-142256361D01*
X189262184Y-142256361D01*
X189281587Y-142353906D01*
X189336842Y-142436601D01*
X189419537Y-142491856D01*
X189492458Y-142506361D01*
X189541706Y-142506361D01*
X189614627Y-142491856D01*
X189697322Y-142436601D01*
X189752577Y-142353906D01*
X189771980Y-142256361D01*
X189752577Y-142158816D01*
X189697322Y-142076121D01*
X189614627Y-142020866D01*
X189541706Y-142006361D01*
X189492458Y-142006361D01*
X189419537Y-142020866D01*
X189336842Y-142076121D01*
X189281587Y-142158816D01*
X189262184Y-142256361D01*
X189092818Y-142256361D01*
X188535796Y-141699339D01*
X188378691Y-141893346D01*
X188178892Y-142201011D01*
X188012342Y-142527881D01*
X187880874Y-142870365D01*
X187785922Y-143224730D01*
X187785922Y-143224732D01*
X187728535Y-143587063D01*
X187709335Y-143953416D01*
X187709335Y-143953417D01*
X184944638Y-143953417D01*
X184944638Y-143193330D01*
X184944639Y-143193309D01*
X184944639Y-142959640D01*
X184944639Y-142959638D01*
X184935675Y-142908807D01*
X184934269Y-142898119D01*
X184929773Y-142846725D01*
X184916418Y-142796888D01*
X184914078Y-142786326D01*
X184905124Y-142735541D01*
X184887479Y-142687062D01*
X184884226Y-142676742D01*
X184870877Y-142626920D01*
X184870877Y-142626919D01*
X184849082Y-142580184D01*
X184844939Y-142570184D01*
X184827294Y-142521702D01*
X184801494Y-142477015D01*
X184796508Y-142467439D01*
X184774706Y-142420683D01*
X184774702Y-142420677D01*
X184745120Y-142378429D01*
X184739308Y-142369306D01*
X184716566Y-142329916D01*
X184713515Y-142324631D01*
X184680346Y-142285103D01*
X184673772Y-142276534D01*
X184661360Y-142258808D01*
X184644185Y-142234278D01*
X184644184Y-142234277D01*
X184644182Y-142234274D01*
X184480181Y-142070273D01*
X184480150Y-142070244D01*
X182418525Y-140008619D01*
X182418505Y-140008597D01*
X182253280Y-139843372D01*
X182247352Y-139839221D01*
X182211011Y-139813775D01*
X182202453Y-139807209D01*
X182162924Y-139774040D01*
X182118244Y-139748244D01*
X182109122Y-139742432D01*
X182066873Y-139712849D01*
X182066867Y-139712846D01*
X182020125Y-139691050D01*
X182010535Y-139686058D01*
X181965853Y-139660261D01*
X181917374Y-139642616D01*
X181907384Y-139638478D01*
X181860633Y-139616677D01*
X181810801Y-139603325D01*
X181800489Y-139600074D01*
X181784199Y-139594145D01*
X181752017Y-139582431D01*
X181701218Y-139573474D01*
X181690658Y-139571133D01*
X181640830Y-139557782D01*
X181589440Y-139553285D01*
X181578719Y-139551873D01*
X181527921Y-139542916D01*
X181527917Y-139542916D01*
X181300359Y-139542916D01*
X181295248Y-139542916D01*
X181295224Y-139542917D01*
X171373052Y-139542917D01*
X171373028Y-139542916D01*
X171367917Y-139542916D01*
X171140359Y-139542916D01*
X171135248Y-139542916D01*
X171135224Y-139542917D01*
X167288638Y-139542917D01*
X167221599Y-139523232D01*
X167175844Y-139470428D01*
X167164638Y-139418917D01*
X167164638Y-131988472D01*
X170243638Y-131988472D01*
X170284348Y-132153643D01*
X170363401Y-132304266D01*
X170363404Y-132304269D01*
X170476209Y-132431600D01*
X170532138Y-132470205D01*
X170616206Y-132528234D01*
X170616207Y-132528234D01*
X170616208Y-132528235D01*
X170672428Y-132549556D01*
X170745087Y-132577112D01*
X170775266Y-132588557D01*
X170844232Y-132596931D01*
X170901764Y-132603917D01*
X170901766Y-132603917D01*
X176931766Y-132603917D01*
X180111766Y-132603917D01*
X185191766Y-132603917D01*
X186188931Y-132603917D01*
X186196418Y-132604142D01*
X186256458Y-132607775D01*
X186315634Y-132596930D01*
X186323037Y-132595804D01*
X186326773Y-132595350D01*
X186382724Y-132588557D01*
X186392187Y-132584967D01*
X186413813Y-132578939D01*
X186414745Y-132578768D01*
X186423784Y-132577112D01*
X186478660Y-132552413D01*
X186485530Y-132549567D01*
X186541782Y-132528235D01*
X186550118Y-132522479D01*
X186569673Y-132511451D01*
X186578909Y-132507295D01*
X186626265Y-132470192D01*
X186632256Y-132465783D01*
X186681781Y-132431600D01*
X186721674Y-132386568D01*
X186726776Y-132381148D01*
X188258300Y-130849624D01*
X188263720Y-130844522D01*
X188308752Y-130804629D01*
X188342927Y-130755116D01*
X188347348Y-130749107D01*
X188384446Y-130701757D01*
X188388598Y-130692528D01*
X188399631Y-130672968D01*
X188399988Y-130672450D01*
X188405387Y-130664630D01*
X188426723Y-130608368D01*
X188429583Y-130601466D01*
X188454262Y-130546634D01*
X188454261Y-130546634D01*
X188454263Y-130546632D01*
X188456089Y-130536665D01*
X188462117Y-130515040D01*
X188465709Y-130505572D01*
X188472958Y-130445869D01*
X188474085Y-130438462D01*
X188484926Y-130379306D01*
X188481295Y-130319277D01*
X188481069Y-130311790D01*
X188481069Y-123861042D01*
X188465709Y-123734548D01*
X188465708Y-123734542D01*
X188424963Y-123627106D01*
X188405387Y-123575487D01*
X188308752Y-123435488D01*
X188181421Y-123322683D01*
X188181418Y-123322680D01*
X188030795Y-123243627D01*
X187865625Y-123202917D01*
X187695513Y-123202917D01*
X187530342Y-123243627D01*
X187379719Y-123322680D01*
X187252385Y-123435489D01*
X187155751Y-123575485D01*
X187095429Y-123734542D01*
X187095428Y-123734548D01*
X187080069Y-123861042D01*
X187080069Y-129995181D01*
X187060384Y-130062220D01*
X187043750Y-130082862D01*
X185960014Y-131166598D01*
X185898691Y-131200083D01*
X185872333Y-131202917D01*
X170901764Y-131202917D01*
X170775269Y-131218276D01*
X170775263Y-131218277D01*
X170616206Y-131278599D01*
X170476210Y-131375233D01*
X170363401Y-131502567D01*
X170284348Y-131653190D01*
X170243638Y-131818361D01*
X170243638Y-131988472D01*
X167164638Y-131988472D01*
X167164638Y-123183330D01*
X167164639Y-123183309D01*
X167164639Y-122944528D01*
X167164638Y-122944502D01*
X167164638Y-114968473D01*
X181043638Y-114968473D01*
X181058137Y-115027297D01*
X181084348Y-115133643D01*
X181163401Y-115284266D01*
X181163404Y-115284269D01*
X181276209Y-115411600D01*
X181366456Y-115473893D01*
X181416206Y-115508234D01*
X181416207Y-115508234D01*
X181416208Y-115508235D01*
X181575266Y-115568557D01*
X181651166Y-115577773D01*
X181701764Y-115583917D01*
X181701766Y-115583917D01*
X184241766Y-115583917D01*
X185924096Y-115583917D01*
X185991135Y-115603602D01*
X186011777Y-115620236D01*
X187043750Y-116652208D01*
X187077235Y-116713531D01*
X187080069Y-116739889D01*
X187080069Y-118925791D01*
X187095428Y-119052285D01*
X187095429Y-119052291D01*
X187155751Y-119211348D01*
X187199659Y-119274958D01*
X187252386Y-119351346D01*
X187358074Y-119444977D01*
X187379719Y-119464153D01*
X187530342Y-119543206D01*
X187530344Y-119543207D01*
X187695513Y-119583917D01*
X187865625Y-119583917D01*
X188030794Y-119543207D01*
X188110261Y-119501498D01*
X188181418Y-119464153D01*
X188181419Y-119464151D01*
X188181421Y-119464151D01*
X188308752Y-119351346D01*
X188405387Y-119211347D01*
X188465709Y-119052289D01*
X188481069Y-118925789D01*
X188481069Y-116841045D01*
X188481069Y-116423279D01*
X188481295Y-116415792D01*
X188484926Y-116355765D01*
X188484925Y-116355762D01*
X188474085Y-116296606D01*
X188472958Y-116289201D01*
X188465709Y-116229500D01*
X188465708Y-116229496D01*
X188462115Y-116220022D01*
X188456088Y-116198400D01*
X188454263Y-116188441D01*
X188454263Y-116188439D01*
X188429581Y-116133599D01*
X188426720Y-116126693D01*
X188405387Y-116070441D01*
X188399629Y-116062099D01*
X188388601Y-116042547D01*
X188384446Y-116033314D01*
X188384445Y-116033313D01*
X188384444Y-116033310D01*
X188347364Y-115985983D01*
X188342923Y-115979947D01*
X188308754Y-115930444D01*
X188308752Y-115930442D01*
X188263714Y-115890542D01*
X188258276Y-115885422D01*
X186778555Y-114405700D01*
X186773420Y-114400245D01*
X186733544Y-114355233D01*
X186733539Y-114355229D01*
X186684053Y-114321072D01*
X186678018Y-114316632D01*
X186630675Y-114279541D01*
X186630670Y-114279537D01*
X186621428Y-114275378D01*
X186601881Y-114264353D01*
X186593546Y-114258600D01*
X186593547Y-114258600D01*
X186593545Y-114258599D01*
X186537309Y-114237271D01*
X186530405Y-114234411D01*
X186475547Y-114209722D01*
X186475545Y-114209721D01*
X186465561Y-114207891D01*
X186443958Y-114201868D01*
X186434489Y-114198277D01*
X186434486Y-114198276D01*
X186374786Y-114191027D01*
X186367385Y-114189900D01*
X186308224Y-114179059D01*
X186308218Y-114179059D01*
X186248182Y-114182691D01*
X186240694Y-114182917D01*
X181701764Y-114182917D01*
X181575269Y-114198276D01*
X181575263Y-114198277D01*
X181416206Y-114258599D01*
X181276210Y-114355233D01*
X181163401Y-114482567D01*
X181084348Y-114633190D01*
X181052084Y-114764094D01*
X181043638Y-114798361D01*
X181043638Y-114968473D01*
X167164638Y-114968473D01*
X167164638Y-103853417D01*
X187709335Y-103853417D01*
X187728535Y-104219770D01*
X187785922Y-104582101D01*
X187785922Y-104582103D01*
X187880874Y-104936468D01*
X188012342Y-105278952D01*
X188178892Y-105605823D01*
X188378687Y-105913481D01*
X188535796Y-106107493D01*
X189092816Y-105550473D01*
X189262184Y-105550473D01*
X189281587Y-105648018D01*
X189336842Y-105730713D01*
X189419537Y-105785968D01*
X189492458Y-105800473D01*
X189541706Y-105800473D01*
X189614627Y-105785968D01*
X189697322Y-105730713D01*
X189752577Y-105648018D01*
X189771980Y-105550473D01*
X189752577Y-105452928D01*
X189697322Y-105370233D01*
X189614627Y-105314978D01*
X189541706Y-105300473D01*
X189492458Y-105300473D01*
X189419537Y-105314978D01*
X189336842Y-105370233D01*
X189281587Y-105452928D01*
X189262184Y-105550473D01*
X189092816Y-105550473D01*
X189889414Y-104753875D01*
X189915708Y-104796782D01*
X190079268Y-104988287D01*
X190270773Y-105151847D01*
X190313678Y-105178139D01*
X188960060Y-106531758D01*
X189154062Y-106688859D01*
X189154075Y-106688868D01*
X189461731Y-106888662D01*
X189788602Y-107055212D01*
X190131086Y-107186680D01*
X190485452Y-107281632D01*
X190847784Y-107339019D01*
X191214137Y-107358220D01*
X191214139Y-107358220D01*
X191580491Y-107339019D01*
X191942822Y-107281632D01*
X191942824Y-107281632D01*
X192297189Y-107186680D01*
X192639673Y-107055212D01*
X192966544Y-106888662D01*
X193274203Y-106688867D01*
X193468215Y-106531758D01*
X192486930Y-105550473D01*
X192656296Y-105550473D01*
X192675699Y-105648018D01*
X192730954Y-105730713D01*
X192813649Y-105785968D01*
X192886570Y-105800473D01*
X192935818Y-105800473D01*
X193008739Y-105785968D01*
X193091434Y-105730713D01*
X193146689Y-105648018D01*
X193166092Y-105550473D01*
X193146689Y-105452928D01*
X193091434Y-105370233D01*
X193008739Y-105314978D01*
X192935818Y-105300473D01*
X192886570Y-105300473D01*
X192813649Y-105314978D01*
X192730954Y-105370233D01*
X192675699Y-105452928D01*
X192656296Y-105550473D01*
X192486930Y-105550473D01*
X192114596Y-105178139D01*
X192157503Y-105151847D01*
X192349008Y-104988287D01*
X192512568Y-104796782D01*
X192538860Y-104753875D01*
X193892479Y-106107494D01*
X194049588Y-105913482D01*
X194249383Y-105605823D01*
X194415933Y-105278952D01*
X194547401Y-104936468D01*
X194642353Y-104582103D01*
X194642353Y-104582101D01*
X194699740Y-104219770D01*
X194718941Y-103853417D01*
X194718941Y-103853416D01*
X194699740Y-103487063D01*
X194642353Y-103124732D01*
X194642353Y-103124730D01*
X194547401Y-102770365D01*
X194415933Y-102427881D01*
X194249383Y-102101011D01*
X194049588Y-101793352D01*
X193892478Y-101599339D01*
X192538860Y-102952957D01*
X192512568Y-102910052D01*
X192349008Y-102718547D01*
X192157503Y-102554987D01*
X192114596Y-102528694D01*
X192486929Y-102156361D01*
X192656296Y-102156361D01*
X192675699Y-102253906D01*
X192730954Y-102336601D01*
X192813649Y-102391856D01*
X192886570Y-102406361D01*
X192935818Y-102406361D01*
X193008739Y-102391856D01*
X193091434Y-102336601D01*
X193146689Y-102253906D01*
X193166092Y-102156361D01*
X193146689Y-102058816D01*
X193091434Y-101976121D01*
X193008739Y-101920866D01*
X192935818Y-101906361D01*
X192886570Y-101906361D01*
X192813649Y-101920866D01*
X192730954Y-101976121D01*
X192675699Y-102058816D01*
X192656296Y-102156361D01*
X192486929Y-102156361D01*
X193468215Y-101175075D01*
X193274202Y-101017966D01*
X192966544Y-100818171D01*
X192639673Y-100651621D01*
X192297189Y-100520153D01*
X191942823Y-100425201D01*
X191580491Y-100367814D01*
X191214139Y-100348614D01*
X191214137Y-100348614D01*
X190847784Y-100367814D01*
X190485453Y-100425201D01*
X190485451Y-100425201D01*
X190131086Y-100520153D01*
X189788602Y-100651621D01*
X189461732Y-100818171D01*
X189154067Y-101017970D01*
X188960060Y-101175075D01*
X190313679Y-102528694D01*
X190270773Y-102554987D01*
X190079268Y-102718547D01*
X189915708Y-102910052D01*
X189889415Y-102952958D01*
X189092818Y-102156361D01*
X189262184Y-102156361D01*
X189281587Y-102253906D01*
X189336842Y-102336601D01*
X189419537Y-102391856D01*
X189492458Y-102406361D01*
X189541706Y-102406361D01*
X189614627Y-102391856D01*
X189697322Y-102336601D01*
X189752577Y-102253906D01*
X189771980Y-102156361D01*
X189752577Y-102058816D01*
X189697322Y-101976121D01*
X189614627Y-101920866D01*
X189541706Y-101906361D01*
X189492458Y-101906361D01*
X189419537Y-101920866D01*
X189336842Y-101976121D01*
X189281587Y-102058816D01*
X189262184Y-102156361D01*
X189092818Y-102156361D01*
X188535796Y-101599339D01*
X188378691Y-101793346D01*
X188178892Y-102101011D01*
X188012342Y-102427881D01*
X187880874Y-102770365D01*
X187785922Y-103124730D01*
X187785922Y-103124732D01*
X187728535Y-103487063D01*
X187709335Y-103853416D01*
X187709335Y-103853417D01*
X167164638Y-103853417D01*
X167164638Y-83163417D01*
X190058709Y-83163417D01*
X190078382Y-83375727D01*
X190136734Y-83580809D01*
X190136734Y-83580811D01*
X190231770Y-83771670D01*
X190231772Y-83771672D01*
X190360266Y-83941824D01*
X190517836Y-84085469D01*
X190699119Y-84197715D01*
X190897940Y-84274738D01*
X191107528Y-84313917D01*
X191107530Y-84313917D01*
X191320746Y-84313917D01*
X191320748Y-84313917D01*
X191530336Y-84274738D01*
X191729157Y-84197715D01*
X191910440Y-84085469D01*
X192068010Y-83941824D01*
X192196504Y-83771672D01*
X192291543Y-83580806D01*
X192349894Y-83375727D01*
X192369567Y-83163417D01*
X192349894Y-82951107D01*
X192291543Y-82746028D01*
X192291541Y-82746023D01*
X192291541Y-82746022D01*
X192196505Y-82555163D01*
X192068010Y-82385010D01*
X191910440Y-82241365D01*
X191729157Y-82129119D01*
X191729155Y-82129118D01*
X191629746Y-82090607D01*
X191530336Y-82052096D01*
X191333523Y-82015305D01*
X191271244Y-81983638D01*
X191235971Y-81923325D01*
X191238905Y-81853517D01*
X191279114Y-81796377D01*
X191333522Y-81771528D01*
X191530336Y-81734738D01*
X191729157Y-81657715D01*
X191910440Y-81545469D01*
X192068010Y-81401824D01*
X192196504Y-81231672D01*
X192291543Y-81040806D01*
X192349894Y-80835727D01*
X192369567Y-80623417D01*
X192349894Y-80411107D01*
X192291543Y-80206028D01*
X192291541Y-80206023D01*
X192291541Y-80206022D01*
X192196505Y-80015163D01*
X192068010Y-79845010D01*
X191910440Y-79701365D01*
X191729157Y-79589119D01*
X191729155Y-79589118D01*
X191629746Y-79550607D01*
X191530336Y-79512096D01*
X191333523Y-79475305D01*
X191271244Y-79443638D01*
X191235971Y-79383325D01*
X191238905Y-79313517D01*
X191279114Y-79256377D01*
X191333522Y-79231528D01*
X191530336Y-79194738D01*
X191729157Y-79117715D01*
X191910440Y-79005469D01*
X192068010Y-78861824D01*
X192196504Y-78691672D01*
X192291543Y-78500806D01*
X192349894Y-78295727D01*
X192369567Y-78083417D01*
X192349894Y-77871107D01*
X192291543Y-77666028D01*
X192291541Y-77666023D01*
X192291541Y-77666022D01*
X192196505Y-77475163D01*
X192068010Y-77305010D01*
X191910440Y-77161365D01*
X191729157Y-77049119D01*
X191729155Y-77049118D01*
X191629746Y-77010607D01*
X191530336Y-76972096D01*
X191357594Y-76939804D01*
X191295314Y-76908136D01*
X191260041Y-76847824D01*
X191262975Y-76778016D01*
X191303184Y-76720876D01*
X191367902Y-76694545D01*
X191380371Y-76693916D01*
X192109002Y-76693916D01*
X192109017Y-76693914D01*
X192109020Y-76693914D01*
X192134125Y-76691003D01*
X192134126Y-76691002D01*
X192134129Y-76691002D01*
X192236903Y-76645623D01*
X192316344Y-76566182D01*
X192361723Y-76463408D01*
X192364638Y-76438282D01*
X192364637Y-74648553D01*
X192364635Y-74648534D01*
X192361724Y-74623429D01*
X192361723Y-74623427D01*
X192361723Y-74623426D01*
X192316344Y-74520652D01*
X192236903Y-74441211D01*
X192216262Y-74432097D01*
X192134130Y-74395832D01*
X192109003Y-74392917D01*
X190319281Y-74392917D01*
X190319255Y-74392919D01*
X190294150Y-74395830D01*
X190294146Y-74395832D01*
X190191373Y-74441210D01*
X190111932Y-74520651D01*
X190066553Y-74623423D01*
X190066553Y-74623425D01*
X190063638Y-74648548D01*
X190063638Y-76438273D01*
X190063640Y-76438299D01*
X190066551Y-76463404D01*
X190066553Y-76463408D01*
X190111931Y-76566181D01*
X190111932Y-76566182D01*
X190191373Y-76645623D01*
X190294147Y-76691002D01*
X190319273Y-76693917D01*
X191047896Y-76693916D01*
X191114933Y-76713600D01*
X191160688Y-76766404D01*
X191170632Y-76835563D01*
X191141607Y-76899119D01*
X191082829Y-76936893D01*
X191070680Y-76939805D01*
X191014254Y-76950352D01*
X190897940Y-76972096D01*
X190897938Y-76972096D01*
X190897936Y-76972097D01*
X190699120Y-77049118D01*
X190699118Y-77049119D01*
X190517837Y-77161364D01*
X190360265Y-77305010D01*
X190231770Y-77475163D01*
X190136734Y-77666022D01*
X190136734Y-77666024D01*
X190078382Y-77871106D01*
X190058709Y-78083416D01*
X190058709Y-78083417D01*
X190078382Y-78295727D01*
X190136734Y-78500809D01*
X190136734Y-78500811D01*
X190231770Y-78691670D01*
X190231772Y-78691672D01*
X190360266Y-78861824D01*
X190517836Y-79005469D01*
X190699119Y-79117715D01*
X190897940Y-79194738D01*
X191094751Y-79231528D01*
X191157031Y-79263196D01*
X191192304Y-79323509D01*
X191189370Y-79393317D01*
X191149161Y-79450457D01*
X191094751Y-79475305D01*
X190897940Y-79512096D01*
X190897937Y-79512096D01*
X190897937Y-79512097D01*
X190699120Y-79589118D01*
X190699118Y-79589119D01*
X190517837Y-79701364D01*
X190360265Y-79845010D01*
X190231770Y-80015163D01*
X190136734Y-80206022D01*
X190136734Y-80206024D01*
X190078382Y-80411106D01*
X190058709Y-80623416D01*
X190058709Y-80623417D01*
X190078382Y-80835727D01*
X190136734Y-81040809D01*
X190136734Y-81040811D01*
X190231770Y-81231670D01*
X190231772Y-81231672D01*
X190360266Y-81401824D01*
X190517836Y-81545469D01*
X190699119Y-81657715D01*
X190897940Y-81734738D01*
X191094751Y-81771528D01*
X191157031Y-81803196D01*
X191192304Y-81863509D01*
X191189370Y-81933317D01*
X191149161Y-81990457D01*
X191094751Y-82015305D01*
X190897940Y-82052096D01*
X190897937Y-82052096D01*
X190897937Y-82052097D01*
X190699120Y-82129118D01*
X190699118Y-82129119D01*
X190517837Y-82241364D01*
X190360265Y-82385010D01*
X190231770Y-82555163D01*
X190136734Y-82746022D01*
X190136734Y-82746024D01*
X190078382Y-82951106D01*
X190058709Y-83163416D01*
X190058709Y-83163417D01*
X167164638Y-83163417D01*
X167164638Y-67303330D01*
X167164639Y-67303309D01*
X167164639Y-67069640D01*
X167164639Y-67069638D01*
X167155675Y-67018807D01*
X167154269Y-67008119D01*
X167149773Y-66956725D01*
X167136418Y-66906888D01*
X167134078Y-66896326D01*
X167125124Y-66845541D01*
X167112951Y-66812097D01*
X167107478Y-66797059D01*
X167104226Y-66786742D01*
X167090877Y-66736920D01*
X167090877Y-66736919D01*
X167069082Y-66690184D01*
X167064939Y-66680184D01*
X167047294Y-66631703D01*
X167047294Y-66631702D01*
X167021494Y-66587015D01*
X167016508Y-66577439D01*
X166994706Y-66530683D01*
X166994702Y-66530677D01*
X166965120Y-66488429D01*
X166959308Y-66479306D01*
X166950389Y-66463859D01*
X166933515Y-66434631D01*
X166900346Y-66395103D01*
X166893772Y-66386534D01*
X166864182Y-66344274D01*
X166700181Y-66180273D01*
X166700150Y-66180244D01*
X162528525Y-62008619D01*
X162528505Y-62008597D01*
X162363280Y-61843372D01*
X162357352Y-61839221D01*
X162321011Y-61813775D01*
X162312453Y-61807209D01*
X162272924Y-61774040D01*
X162228244Y-61748244D01*
X162219122Y-61742432D01*
X162176873Y-61712849D01*
X162176867Y-61712846D01*
X162130125Y-61691050D01*
X162120535Y-61686058D01*
X162075853Y-61660261D01*
X162027374Y-61642616D01*
X162017384Y-61638478D01*
X161970633Y-61616677D01*
X161920801Y-61603325D01*
X161910489Y-61600074D01*
X161894199Y-61594145D01*
X161862017Y-61582431D01*
X161811218Y-61573474D01*
X161800658Y-61571133D01*
X161750830Y-61557782D01*
X161699440Y-61553285D01*
X161688719Y-61551873D01*
X161637921Y-61542916D01*
X161637917Y-61542916D01*
X161410359Y-61542916D01*
X161405248Y-61542916D01*
X161405224Y-61542917D01*
X106857353Y-61542917D01*
X106687450Y-61557781D01*
X106687440Y-61557783D01*
X106467649Y-61616675D01*
X106467635Y-61616680D01*
X106329060Y-61681299D01*
X106276656Y-61692917D01*
X106019281Y-61692917D01*
X106019255Y-61692919D01*
X105994150Y-61695830D01*
X105994146Y-61695832D01*
X105891373Y-61741210D01*
X105811932Y-61820651D01*
X105766553Y-61923423D01*
X105766553Y-61923425D01*
X105763638Y-61948548D01*
X105763638Y-62205935D01*
X105752020Y-62258339D01*
X105687401Y-62396914D01*
X105687396Y-62396928D01*
X105628504Y-62616719D01*
X105628502Y-62616730D01*
X105608670Y-62843415D01*
X105608670Y-62843418D01*
X105628502Y-63070103D01*
X105628504Y-63070114D01*
X105687396Y-63289905D01*
X105687398Y-63289909D01*
X105687399Y-63289913D01*
X105752020Y-63428493D01*
X105763638Y-63480898D01*
X105763638Y-63738273D01*
X105763640Y-63738299D01*
X105766551Y-63763404D01*
X105766553Y-63763408D01*
X105811931Y-63866181D01*
X105811932Y-63866182D01*
X105891373Y-63945623D01*
X105994147Y-63991002D01*
X106019273Y-63993917D01*
X106276656Y-63993916D01*
X106329061Y-64005534D01*
X106355710Y-64017960D01*
X106467642Y-64070156D01*
X106467644Y-64070156D01*
X106467645Y-64070157D01*
X106472263Y-64071394D01*
X106486914Y-64075320D01*
X106546574Y-64111682D01*
X106577105Y-64174528D01*
X106568813Y-64243904D01*
X106524329Y-64297783D01*
X106499618Y-64310721D01*
X106399351Y-64349565D01*
X106399339Y-64349570D01*
X106218140Y-64461763D01*
X106218138Y-64461765D01*
X106060638Y-64605345D01*
X105932199Y-64775425D01*
X105837205Y-64966198D01*
X105837200Y-64966211D01*
X105803851Y-65083416D01*
X105803852Y-65083417D01*
X106512584Y-65083417D01*
X106454645Y-65173573D01*
X106414138Y-65311528D01*
X106414138Y-65455306D01*
X106454645Y-65593261D01*
X106512584Y-65683417D01*
X105803852Y-65683417D01*
X105837200Y-65800622D01*
X105837205Y-65800635D01*
X105932199Y-65991408D01*
X106060638Y-66161488D01*
X106218138Y-66305068D01*
X106218140Y-66305070D01*
X106399339Y-66417263D01*
X106399348Y-66417267D01*
X106598074Y-66494253D01*
X106598079Y-66494254D01*
X106796110Y-66531273D01*
X106858391Y-66562941D01*
X106893664Y-66623253D01*
X106890730Y-66693062D01*
X106850521Y-66750202D01*
X106796111Y-66775051D01*
X106733571Y-66786742D01*
X106597940Y-66812096D01*
X106597938Y-66812096D01*
X106597936Y-66812097D01*
X106399120Y-66889118D01*
X106399118Y-66889119D01*
X106217837Y-67001364D01*
X106060265Y-67145010D01*
X105931770Y-67315163D01*
X105836734Y-67506022D01*
X105836734Y-67506024D01*
X105778382Y-67711106D01*
X105758709Y-67923416D01*
X105758709Y-67923417D01*
X105778382Y-68135727D01*
X105836734Y-68340809D01*
X105836734Y-68340811D01*
X105931770Y-68531670D01*
X105931772Y-68531672D01*
X106060266Y-68701824D01*
X106217836Y-68845469D01*
X106399119Y-68957715D01*
X106597940Y-69034738D01*
X106794751Y-69071528D01*
X106857031Y-69103196D01*
X106892304Y-69163509D01*
X106889370Y-69233317D01*
X106849161Y-69290457D01*
X106794751Y-69315305D01*
X106597940Y-69352096D01*
X106597937Y-69352096D01*
X106597937Y-69352097D01*
X106399120Y-69429118D01*
X106399118Y-69429119D01*
X106217837Y-69541364D01*
X106060265Y-69685010D01*
X105931770Y-69855163D01*
X105836734Y-70046022D01*
X105836734Y-70046024D01*
X105778382Y-70251106D01*
X105758709Y-70463416D01*
X105758709Y-70463417D01*
X105778382Y-70675727D01*
X105836734Y-70880809D01*
X105836734Y-70880811D01*
X105931770Y-71071670D01*
X105931772Y-71071672D01*
X106060266Y-71241824D01*
X106217836Y-71385469D01*
X106399119Y-71497715D01*
X106597940Y-71574738D01*
X106794751Y-71611528D01*
X106857031Y-71643196D01*
X106892304Y-71703509D01*
X106889370Y-71773317D01*
X106849161Y-71830457D01*
X106794751Y-71855305D01*
X106597940Y-71892096D01*
X106597937Y-71892096D01*
X106597937Y-71892097D01*
X106399120Y-71969118D01*
X106399118Y-71969119D01*
X106217837Y-72081364D01*
X106060265Y-72225010D01*
X105931770Y-72395163D01*
X105836734Y-72586022D01*
X105836734Y-72586024D01*
X105778382Y-72791106D01*
X105758709Y-73003416D01*
X105758709Y-73003417D01*
X105778382Y-73215727D01*
X105836734Y-73420809D01*
X105836734Y-73420811D01*
X105931770Y-73611670D01*
X105931772Y-73611672D01*
X106060266Y-73781824D01*
X106217836Y-73925469D01*
X106399119Y-74037715D01*
X106597940Y-74114738D01*
X106794751Y-74151528D01*
X106857031Y-74183196D01*
X106892304Y-74243509D01*
X106889370Y-74313317D01*
X106849161Y-74370457D01*
X106794751Y-74395305D01*
X106597940Y-74432096D01*
X106597937Y-74432096D01*
X106597937Y-74432097D01*
X106399120Y-74509118D01*
X106399118Y-74509119D01*
X106217837Y-74621364D01*
X106060265Y-74765010D01*
X105931770Y-74935163D01*
X105836734Y-75126022D01*
X105836734Y-75126024D01*
X105778382Y-75331106D01*
X105758709Y-75543416D01*
X105758709Y-75543417D01*
X105778382Y-75755727D01*
X105836734Y-75960809D01*
X105836734Y-75960811D01*
X105931770Y-76151670D01*
X105931772Y-76151672D01*
X106060266Y-76321824D01*
X106217836Y-76465469D01*
X106399119Y-76577715D01*
X106597940Y-76654738D01*
X106794751Y-76691528D01*
X106857031Y-76723196D01*
X106892304Y-76783509D01*
X106889370Y-76853317D01*
X106849161Y-76910457D01*
X106794751Y-76935305D01*
X106597940Y-76972096D01*
X106597937Y-76972096D01*
X106597937Y-76972097D01*
X106399120Y-77049118D01*
X106399118Y-77049119D01*
X106217837Y-77161364D01*
X106060265Y-77305010D01*
X105931770Y-77475163D01*
X105836734Y-77666022D01*
X105836734Y-77666024D01*
X105778382Y-77871106D01*
X105758709Y-78083416D01*
X105758709Y-78083417D01*
X105778382Y-78295727D01*
X105836734Y-78500809D01*
X105836734Y-78500811D01*
X105931770Y-78691670D01*
X105931772Y-78691672D01*
X106060266Y-78861824D01*
X106217836Y-79005469D01*
X106399119Y-79117715D01*
X106597940Y-79194738D01*
X106794751Y-79231528D01*
X106857031Y-79263196D01*
X106892304Y-79323509D01*
X106889370Y-79393317D01*
X106849161Y-79450457D01*
X106794751Y-79475305D01*
X106597940Y-79512096D01*
X106597937Y-79512096D01*
X106597937Y-79512097D01*
X106399120Y-79589118D01*
X106399118Y-79589119D01*
X106217837Y-79701364D01*
X106060265Y-79845010D01*
X105931770Y-80015163D01*
X105836734Y-80206022D01*
X105836734Y-80206024D01*
X105778382Y-80411106D01*
X105758709Y-80623416D01*
X105758709Y-80623417D01*
X105778382Y-80835727D01*
X105836734Y-81040809D01*
X105836734Y-81040811D01*
X105931770Y-81231670D01*
X105931772Y-81231672D01*
X106060266Y-81401824D01*
X106217836Y-81545469D01*
X106399119Y-81657715D01*
X106597940Y-81734738D01*
X106794751Y-81771528D01*
X106857031Y-81803196D01*
X106892304Y-81863509D01*
X106889370Y-81933317D01*
X106849161Y-81990457D01*
X106794751Y-82015305D01*
X106597940Y-82052096D01*
X106597937Y-82052096D01*
X106597937Y-82052097D01*
X106399120Y-82129118D01*
X106399118Y-82129119D01*
X106217837Y-82241364D01*
X106060265Y-82385010D01*
X105931770Y-82555163D01*
X105836734Y-82746022D01*
X105836734Y-82746024D01*
X105778382Y-82951106D01*
X105758709Y-83163416D01*
X105758709Y-83163417D01*
X105778382Y-83375727D01*
X105836734Y-83580809D01*
X105836734Y-83580811D01*
X105931770Y-83771670D01*
X105931772Y-83771672D01*
X106060266Y-83941824D01*
X106217836Y-84085469D01*
X106399119Y-84197715D01*
X106597940Y-84274738D01*
X106794751Y-84311528D01*
X106857031Y-84343196D01*
X106892304Y-84403509D01*
X106889370Y-84473317D01*
X106849161Y-84530457D01*
X106794751Y-84555305D01*
X106597940Y-84592096D01*
X106597937Y-84592096D01*
X106597937Y-84592097D01*
X106399120Y-84669118D01*
X106399118Y-84669119D01*
X106217837Y-84781364D01*
X106060265Y-84925010D01*
X105931770Y-85095163D01*
X105836734Y-85286022D01*
X105836734Y-85286024D01*
X105778382Y-85491106D01*
X105758709Y-85703416D01*
X105758709Y-85703417D01*
X105778382Y-85915727D01*
X105836734Y-86120809D01*
X105836734Y-86120811D01*
X105931770Y-86311670D01*
X105931772Y-86311672D01*
X106060266Y-86481824D01*
X106217836Y-86625469D01*
X106399119Y-86737715D01*
X106597940Y-86814738D01*
X106794751Y-86851528D01*
X106857031Y-86883196D01*
X106892304Y-86943509D01*
X106889370Y-87013317D01*
X106849161Y-87070457D01*
X106794751Y-87095305D01*
X106597940Y-87132096D01*
X106597937Y-87132096D01*
X106597937Y-87132097D01*
X106399120Y-87209118D01*
X106399118Y-87209119D01*
X106217837Y-87321364D01*
X106060265Y-87465010D01*
X105931770Y-87635163D01*
X105836734Y-87826022D01*
X105836734Y-87826024D01*
X105778382Y-88031106D01*
X105758709Y-88243416D01*
X105758709Y-88243417D01*
X105778382Y-88455727D01*
X105836734Y-88660809D01*
X105836734Y-88660811D01*
X105931770Y-88851670D01*
X105931772Y-88851672D01*
X106060266Y-89021824D01*
X106217836Y-89165469D01*
X106399119Y-89277715D01*
X106597940Y-89354738D01*
X106794751Y-89391528D01*
X106857031Y-89423196D01*
X106892304Y-89483509D01*
X106889370Y-89553317D01*
X106849161Y-89610457D01*
X106794751Y-89635305D01*
X106597940Y-89672096D01*
X106597937Y-89672096D01*
X106597937Y-89672097D01*
X106399120Y-89749118D01*
X106399118Y-89749119D01*
X106217837Y-89861364D01*
X106060265Y-90005010D01*
X105931770Y-90175163D01*
X105836734Y-90366022D01*
X105836734Y-90366024D01*
X105778382Y-90571106D01*
X105758709Y-90783416D01*
X105758709Y-90783417D01*
X105778382Y-90995727D01*
X105836734Y-91200809D01*
X105836734Y-91200811D01*
X105931770Y-91391670D01*
X105931772Y-91391672D01*
X106060266Y-91561824D01*
X106217836Y-91705469D01*
X106399119Y-91817715D01*
X106597940Y-91894738D01*
X106794751Y-91931528D01*
X106857031Y-91963196D01*
X106892304Y-92023509D01*
X106889370Y-92093317D01*
X106849161Y-92150457D01*
X106794751Y-92175305D01*
X106597940Y-92212096D01*
X106597937Y-92212096D01*
X106597937Y-92212097D01*
X106399120Y-92289118D01*
X106399118Y-92289119D01*
X106217837Y-92401364D01*
X106060265Y-92545010D01*
X105931770Y-92715163D01*
X105836734Y-92906022D01*
X105836734Y-92906024D01*
X105778382Y-93111106D01*
X105758709Y-93323416D01*
X105758709Y-93323417D01*
X105778382Y-93535727D01*
X105836734Y-93740809D01*
X105836734Y-93740811D01*
X105931770Y-93931670D01*
X105931772Y-93931672D01*
X106060266Y-94101824D01*
X106217836Y-94245469D01*
X106399119Y-94357715D01*
X106597940Y-94434738D01*
X106794751Y-94471528D01*
X106857031Y-94503196D01*
X106892304Y-94563509D01*
X106889370Y-94633317D01*
X106849161Y-94690457D01*
X106794751Y-94715305D01*
X106597940Y-94752096D01*
X106597937Y-94752096D01*
X106597937Y-94752097D01*
X106399120Y-94829118D01*
X106399118Y-94829119D01*
X106217837Y-94941364D01*
X106060265Y-95085010D01*
X105931770Y-95255163D01*
X105836734Y-95446022D01*
X105836734Y-95446024D01*
X105778382Y-95651106D01*
X105758709Y-95863416D01*
X105758709Y-95863417D01*
X105778382Y-96075727D01*
X105836734Y-96280809D01*
X105836734Y-96280811D01*
X105931770Y-96471670D01*
X105931772Y-96471672D01*
X106060266Y-96641824D01*
X106217836Y-96785469D01*
X106399119Y-96897715D01*
X106597940Y-96974738D01*
X106807528Y-97013917D01*
X106807530Y-97013917D01*
X107020746Y-97013917D01*
X107020748Y-97013917D01*
X107230336Y-96974738D01*
X107429157Y-96897715D01*
X107610440Y-96785469D01*
X107768010Y-96641824D01*
X107896504Y-96471672D01*
X107991543Y-96280806D01*
X108049894Y-96075727D01*
X108069567Y-95863417D01*
X108049894Y-95651107D01*
X107991543Y-95446028D01*
X107991541Y-95446023D01*
X107991541Y-95446022D01*
X107896505Y-95255163D01*
X107768010Y-95085010D01*
X107610440Y-94941365D01*
X107429157Y-94829119D01*
X107429155Y-94829118D01*
X107329746Y-94790607D01*
X107230336Y-94752096D01*
X107033523Y-94715305D01*
X106971244Y-94683638D01*
X106935971Y-94623325D01*
X106938905Y-94553517D01*
X106979114Y-94496377D01*
X107033522Y-94471528D01*
X107230336Y-94434738D01*
X107429157Y-94357715D01*
X107610440Y-94245469D01*
X107768010Y-94101824D01*
X107896504Y-93931672D01*
X107991543Y-93740806D01*
X108049894Y-93535727D01*
X108069567Y-93323417D01*
X108049894Y-93111107D01*
X107991543Y-92906028D01*
X107991541Y-92906023D01*
X107991541Y-92906022D01*
X107896505Y-92715163D01*
X107768010Y-92545010D01*
X107610440Y-92401365D01*
X107429157Y-92289119D01*
X107429155Y-92289118D01*
X107329746Y-92250607D01*
X107230336Y-92212096D01*
X107033523Y-92175305D01*
X106971244Y-92143638D01*
X106935971Y-92083325D01*
X106938905Y-92013517D01*
X106979114Y-91956377D01*
X107033522Y-91931528D01*
X107230336Y-91894738D01*
X107429157Y-91817715D01*
X107610440Y-91705469D01*
X107768010Y-91561824D01*
X107896504Y-91391672D01*
X107991543Y-91200806D01*
X108049894Y-90995727D01*
X108069567Y-90783417D01*
X108049894Y-90571107D01*
X107991543Y-90366028D01*
X107991541Y-90366023D01*
X107991541Y-90366022D01*
X107896505Y-90175163D01*
X107768010Y-90005010D01*
X107610440Y-89861365D01*
X107429157Y-89749119D01*
X107429155Y-89749118D01*
X107329746Y-89710607D01*
X107230336Y-89672096D01*
X107033523Y-89635305D01*
X106971244Y-89603638D01*
X106935971Y-89543325D01*
X106938905Y-89473517D01*
X106979114Y-89416377D01*
X107033522Y-89391528D01*
X107230336Y-89354738D01*
X107429157Y-89277715D01*
X107610440Y-89165469D01*
X107768010Y-89021824D01*
X107896504Y-88851672D01*
X107991543Y-88660806D01*
X108049894Y-88455727D01*
X108069567Y-88243417D01*
X108049894Y-88031107D01*
X107991543Y-87826028D01*
X107991541Y-87826023D01*
X107991541Y-87826022D01*
X107896505Y-87635163D01*
X107768010Y-87465010D01*
X107610440Y-87321365D01*
X107429157Y-87209119D01*
X107429155Y-87209118D01*
X107329746Y-87170607D01*
X107230336Y-87132096D01*
X107033523Y-87095305D01*
X106971244Y-87063638D01*
X106935971Y-87003325D01*
X106938905Y-86933517D01*
X106979114Y-86876377D01*
X107033522Y-86851528D01*
X107230336Y-86814738D01*
X107429157Y-86737715D01*
X107610440Y-86625469D01*
X107768010Y-86481824D01*
X107896504Y-86311672D01*
X107991543Y-86120806D01*
X108049894Y-85915727D01*
X108069567Y-85703417D01*
X108049894Y-85491107D01*
X107991543Y-85286028D01*
X107991541Y-85286023D01*
X107991541Y-85286022D01*
X107896505Y-85095163D01*
X107768010Y-84925010D01*
X107610440Y-84781365D01*
X107429157Y-84669119D01*
X107429155Y-84669118D01*
X107329746Y-84630607D01*
X107230336Y-84592096D01*
X107033523Y-84555305D01*
X106971244Y-84523638D01*
X106935971Y-84463325D01*
X106938905Y-84393517D01*
X106979114Y-84336377D01*
X107033522Y-84311528D01*
X107230336Y-84274738D01*
X107429157Y-84197715D01*
X107610440Y-84085469D01*
X107768010Y-83941824D01*
X107896504Y-83771672D01*
X107991543Y-83580806D01*
X108049894Y-83375727D01*
X108069567Y-83163417D01*
X108049894Y-82951107D01*
X107991543Y-82746028D01*
X107991541Y-82746023D01*
X107991541Y-82746022D01*
X107896505Y-82555163D01*
X107768010Y-82385010D01*
X107610440Y-82241365D01*
X107429157Y-82129119D01*
X107429155Y-82129118D01*
X107329746Y-82090607D01*
X107230336Y-82052096D01*
X107033523Y-82015305D01*
X106971244Y-81983638D01*
X106935971Y-81923325D01*
X106938905Y-81853517D01*
X106979114Y-81796377D01*
X107033522Y-81771528D01*
X107230336Y-81734738D01*
X107429157Y-81657715D01*
X107610440Y-81545469D01*
X107768010Y-81401824D01*
X107896504Y-81231672D01*
X107991543Y-81040806D01*
X108049894Y-80835727D01*
X108069567Y-80623417D01*
X108049894Y-80411107D01*
X107991543Y-80206028D01*
X107991541Y-80206023D01*
X107991541Y-80206022D01*
X107896505Y-80015163D01*
X107768010Y-79845010D01*
X107610440Y-79701365D01*
X107429157Y-79589119D01*
X107429155Y-79589118D01*
X107329746Y-79550607D01*
X107230336Y-79512096D01*
X107033523Y-79475305D01*
X106971244Y-79443638D01*
X106935971Y-79383325D01*
X106938905Y-79313517D01*
X106979114Y-79256377D01*
X107033522Y-79231528D01*
X107230336Y-79194738D01*
X107429157Y-79117715D01*
X107610440Y-79005469D01*
X107768010Y-78861824D01*
X107896504Y-78691672D01*
X107991543Y-78500806D01*
X108049894Y-78295727D01*
X108069567Y-78083417D01*
X108049894Y-77871107D01*
X107991543Y-77666028D01*
X107991541Y-77666023D01*
X107991541Y-77666022D01*
X107896505Y-77475163D01*
X107768010Y-77305010D01*
X107610440Y-77161365D01*
X107429157Y-77049119D01*
X107429155Y-77049118D01*
X107329746Y-77010607D01*
X107230336Y-76972096D01*
X107033523Y-76935305D01*
X106971244Y-76903638D01*
X106935971Y-76843325D01*
X106938905Y-76773517D01*
X106979114Y-76716377D01*
X107033522Y-76691528D01*
X107230336Y-76654738D01*
X107429157Y-76577715D01*
X107610440Y-76465469D01*
X107768010Y-76321824D01*
X107896504Y-76151672D01*
X107991543Y-75960806D01*
X108049894Y-75755727D01*
X108069567Y-75543417D01*
X108049894Y-75331107D01*
X107991543Y-75126028D01*
X107991541Y-75126023D01*
X107991541Y-75126022D01*
X107896505Y-74935163D01*
X107768010Y-74765010D01*
X107640271Y-74648560D01*
X107610440Y-74621365D01*
X107429157Y-74509119D01*
X107429155Y-74509118D01*
X107329746Y-74470607D01*
X107230336Y-74432096D01*
X107033523Y-74395305D01*
X106971244Y-74363638D01*
X106935971Y-74303325D01*
X106938905Y-74233517D01*
X106979114Y-74176377D01*
X107033522Y-74151528D01*
X107230336Y-74114738D01*
X107429157Y-74037715D01*
X107610440Y-73925469D01*
X107768010Y-73781824D01*
X107896504Y-73611672D01*
X107991543Y-73420806D01*
X108049894Y-73215727D01*
X108069567Y-73003417D01*
X108049894Y-72791107D01*
X107991543Y-72586028D01*
X107991541Y-72586023D01*
X107991541Y-72586022D01*
X107896505Y-72395163D01*
X107768010Y-72225010D01*
X107610440Y-72081365D01*
X107429157Y-71969119D01*
X107429155Y-71969118D01*
X107329746Y-71930607D01*
X107230336Y-71892096D01*
X107033523Y-71855305D01*
X106971244Y-71823638D01*
X106935971Y-71763325D01*
X106938905Y-71693517D01*
X106979114Y-71636377D01*
X107033522Y-71611528D01*
X107230336Y-71574738D01*
X107429157Y-71497715D01*
X107610440Y-71385469D01*
X107768010Y-71241824D01*
X107896504Y-71071672D01*
X107991543Y-70880806D01*
X108049894Y-70675727D01*
X108069567Y-70463417D01*
X108049894Y-70251107D01*
X107991543Y-70046028D01*
X107991541Y-70046023D01*
X107991541Y-70046022D01*
X107896505Y-69855163D01*
X107768010Y-69685010D01*
X107610440Y-69541365D01*
X107429157Y-69429119D01*
X107429155Y-69429118D01*
X107329746Y-69390607D01*
X107230336Y-69352096D01*
X107033523Y-69315305D01*
X106971244Y-69283638D01*
X106935971Y-69223325D01*
X106938905Y-69153517D01*
X106979114Y-69096377D01*
X107033522Y-69071528D01*
X107230336Y-69034738D01*
X107429157Y-68957715D01*
X107610440Y-68845469D01*
X107768010Y-68701824D01*
X107896504Y-68531672D01*
X107991543Y-68340806D01*
X108049894Y-68135727D01*
X108069567Y-67923417D01*
X108049894Y-67711107D01*
X107991543Y-67506028D01*
X107991541Y-67506023D01*
X107991541Y-67506022D01*
X107896505Y-67315163D01*
X107768010Y-67145010D01*
X107610440Y-67001365D01*
X107429157Y-66889119D01*
X107429155Y-66889118D01*
X107230339Y-66812097D01*
X107230338Y-66812096D01*
X107230336Y-66812096D01*
X107032164Y-66775051D01*
X106969884Y-66743382D01*
X106934611Y-66683070D01*
X106937545Y-66613262D01*
X106977754Y-66556122D01*
X107032165Y-66531273D01*
X107230196Y-66494254D01*
X107230201Y-66494253D01*
X107428927Y-66417267D01*
X107428936Y-66417263D01*
X107610135Y-66305070D01*
X107610137Y-66305068D01*
X107767637Y-66161488D01*
X107896076Y-65991408D01*
X107991070Y-65800635D01*
X107991075Y-65800622D01*
X108024424Y-65683417D01*
X107315692Y-65683417D01*
X107373631Y-65593261D01*
X107414138Y-65455306D01*
X107414138Y-65311528D01*
X107373631Y-65173573D01*
X107315692Y-65083417D01*
X108024424Y-65083417D01*
X108024424Y-65083416D01*
X107991075Y-64966211D01*
X107991070Y-64966198D01*
X107896076Y-64775425D01*
X107767637Y-64605345D01*
X107610137Y-64461765D01*
X107610135Y-64461763D01*
X107467332Y-64373344D01*
X107420696Y-64321316D01*
X107409592Y-64252335D01*
X107437545Y-64188300D01*
X107495680Y-64149544D01*
X107532609Y-64143917D01*
X160934091Y-64143917D01*
X161001130Y-64163602D01*
X161021772Y-64180236D01*
X164527319Y-67685783D01*
X164560804Y-67747106D01*
X164563638Y-67773464D01*
X164563638Y-119624370D01*
X164543953Y-119691409D01*
X164491149Y-119737164D01*
X164421991Y-119747108D01*
X164358435Y-119718083D01*
X164351957Y-119712051D01*
X161788525Y-117148619D01*
X161788505Y-117148597D01*
X161623280Y-116983372D01*
X161617352Y-116979221D01*
X161581011Y-116953775D01*
X161572453Y-116947209D01*
X161532924Y-116914040D01*
X161488244Y-116888244D01*
X161479122Y-116882432D01*
X161436873Y-116852849D01*
X161436867Y-116852846D01*
X161390125Y-116831050D01*
X161380535Y-116826058D01*
X161335853Y-116800261D01*
X161287374Y-116782616D01*
X161277384Y-116778478D01*
X161230633Y-116756677D01*
X161180801Y-116743325D01*
X161170489Y-116740074D01*
X161154199Y-116734145D01*
X161122017Y-116722431D01*
X161071218Y-116713474D01*
X161060658Y-116711133D01*
X161010830Y-116697782D01*
X160959440Y-116693285D01*
X160948719Y-116691873D01*
X160897921Y-116682916D01*
X160897917Y-116682916D01*
X160670359Y-116682916D01*
X160665248Y-116682916D01*
X160665224Y-116682917D01*
X113331386Y-116682917D01*
X113264347Y-116663232D01*
X113243705Y-116646598D01*
X110520957Y-113923849D01*
X110487472Y-113862526D01*
X110484638Y-113836168D01*
X110484638Y-110982492D01*
X110504323Y-110915453D01*
X110557127Y-110869698D01*
X110626285Y-110859754D01*
X110689841Y-110888779D01*
X110719636Y-110927218D01*
X110741640Y-110971406D01*
X110741773Y-110971674D01*
X110870012Y-111141488D01*
X110870266Y-111141824D01*
X111027836Y-111285469D01*
X111209119Y-111397715D01*
X111407940Y-111474738D01*
X111617528Y-111513917D01*
X111617530Y-111513917D01*
X111830746Y-111513917D01*
X111830748Y-111513917D01*
X112040336Y-111474738D01*
X112239157Y-111397715D01*
X112420440Y-111285469D01*
X112578010Y-111141824D01*
X112706504Y-110971672D01*
X112729196Y-110926100D01*
X112801541Y-110780811D01*
X112801541Y-110780810D01*
X112801543Y-110780806D01*
X112859894Y-110575727D01*
X112870667Y-110459464D01*
X112896453Y-110394528D01*
X112938760Y-110364221D01*
X113047268Y-110364221D01*
X113083641Y-110385085D01*
X113115831Y-110447098D01*
X113117609Y-110459465D01*
X113128382Y-110575727D01*
X113186734Y-110780809D01*
X113186734Y-110780811D01*
X113281770Y-110971670D01*
X113410012Y-111141488D01*
X113410266Y-111141824D01*
X113567836Y-111285469D01*
X113749119Y-111397715D01*
X113947940Y-111474738D01*
X114157528Y-111513917D01*
X114157530Y-111513917D01*
X114370746Y-111513917D01*
X114370748Y-111513917D01*
X114580336Y-111474738D01*
X114779157Y-111397715D01*
X114960440Y-111285469D01*
X115118010Y-111141824D01*
X115246504Y-110971672D01*
X115269196Y-110926100D01*
X115341541Y-110780811D01*
X115341541Y-110780810D01*
X115341543Y-110780806D01*
X115399894Y-110575727D01*
X115410667Y-110459464D01*
X115436453Y-110394528D01*
X115478760Y-110364221D01*
X115587268Y-110364221D01*
X115623641Y-110385085D01*
X115655831Y-110447098D01*
X115657609Y-110459465D01*
X115668382Y-110575727D01*
X115726734Y-110780809D01*
X115726734Y-110780811D01*
X115821770Y-110971670D01*
X115950012Y-111141488D01*
X115950266Y-111141824D01*
X116107836Y-111285469D01*
X116289119Y-111397715D01*
X116487940Y-111474738D01*
X116697528Y-111513917D01*
X116697530Y-111513917D01*
X116910746Y-111513917D01*
X116910748Y-111513917D01*
X117120336Y-111474738D01*
X117319157Y-111397715D01*
X117500440Y-111285469D01*
X117658010Y-111141824D01*
X117786504Y-110971672D01*
X117809196Y-110926100D01*
X117881541Y-110780811D01*
X117881541Y-110780810D01*
X117881543Y-110780806D01*
X117939894Y-110575727D01*
X117950667Y-110459464D01*
X117976453Y-110394528D01*
X118018760Y-110364221D01*
X118127268Y-110364221D01*
X118163641Y-110385085D01*
X118195831Y-110447098D01*
X118197609Y-110459465D01*
X118208382Y-110575727D01*
X118266734Y-110780809D01*
X118266734Y-110780811D01*
X118361770Y-110971670D01*
X118490012Y-111141488D01*
X118490266Y-111141824D01*
X118647836Y-111285469D01*
X118829119Y-111397715D01*
X119027940Y-111474738D01*
X119237528Y-111513917D01*
X119237530Y-111513917D01*
X119450746Y-111513917D01*
X119450748Y-111513917D01*
X119660336Y-111474738D01*
X119859157Y-111397715D01*
X120040440Y-111285469D01*
X120198010Y-111141824D01*
X120326504Y-110971672D01*
X120349196Y-110926100D01*
X120421541Y-110780811D01*
X120421541Y-110780810D01*
X120421543Y-110780806D01*
X120479894Y-110575727D01*
X120490667Y-110459464D01*
X120516453Y-110394528D01*
X120558760Y-110364221D01*
X120667268Y-110364221D01*
X120703641Y-110385085D01*
X120735831Y-110447098D01*
X120737609Y-110459465D01*
X120748382Y-110575727D01*
X120806734Y-110780809D01*
X120806734Y-110780811D01*
X120901770Y-110971670D01*
X121030012Y-111141488D01*
X121030266Y-111141824D01*
X121187836Y-111285469D01*
X121369119Y-111397715D01*
X121567940Y-111474738D01*
X121777528Y-111513917D01*
X121777530Y-111513917D01*
X121990746Y-111513917D01*
X121990748Y-111513917D01*
X122200336Y-111474738D01*
X122399157Y-111397715D01*
X122580440Y-111285469D01*
X122738010Y-111141824D01*
X122866504Y-110971672D01*
X122889196Y-110926100D01*
X122961541Y-110780811D01*
X122961541Y-110780810D01*
X122961543Y-110780806D01*
X123019894Y-110575727D01*
X123030667Y-110459464D01*
X123056453Y-110394528D01*
X123098760Y-110364221D01*
X123207268Y-110364221D01*
X123243641Y-110385085D01*
X123275831Y-110447098D01*
X123277609Y-110459465D01*
X123288382Y-110575727D01*
X123346734Y-110780809D01*
X123346734Y-110780811D01*
X123441770Y-110971670D01*
X123570012Y-111141488D01*
X123570266Y-111141824D01*
X123727836Y-111285469D01*
X123909119Y-111397715D01*
X124107940Y-111474738D01*
X124317528Y-111513917D01*
X124317530Y-111513917D01*
X124530746Y-111513917D01*
X124530748Y-111513917D01*
X124740336Y-111474738D01*
X124939157Y-111397715D01*
X125120440Y-111285469D01*
X125278010Y-111141824D01*
X125406504Y-110971672D01*
X125429196Y-110926100D01*
X125501541Y-110780811D01*
X125501541Y-110780810D01*
X125501543Y-110780806D01*
X125559894Y-110575727D01*
X125570667Y-110459464D01*
X125596453Y-110394528D01*
X125638760Y-110364221D01*
X125747268Y-110364221D01*
X125783641Y-110385085D01*
X125815831Y-110447098D01*
X125817609Y-110459465D01*
X125828382Y-110575727D01*
X125886734Y-110780809D01*
X125886734Y-110780811D01*
X125981770Y-110971670D01*
X126110012Y-111141488D01*
X126110266Y-111141824D01*
X126267836Y-111285469D01*
X126449119Y-111397715D01*
X126647940Y-111474738D01*
X126857528Y-111513917D01*
X126857530Y-111513917D01*
X127070746Y-111513917D01*
X127070748Y-111513917D01*
X127280336Y-111474738D01*
X127479157Y-111397715D01*
X127660440Y-111285469D01*
X127818010Y-111141824D01*
X127946504Y-110971672D01*
X127969196Y-110926100D01*
X128041541Y-110780811D01*
X128041541Y-110780810D01*
X128041543Y-110780806D01*
X128099894Y-110575727D01*
X128110667Y-110459464D01*
X128136453Y-110394528D01*
X128178760Y-110364221D01*
X128287268Y-110364221D01*
X128323641Y-110385085D01*
X128355831Y-110447098D01*
X128357609Y-110459465D01*
X128368382Y-110575727D01*
X128426734Y-110780809D01*
X128426734Y-110780811D01*
X128521770Y-110971670D01*
X128650012Y-111141488D01*
X128650266Y-111141824D01*
X128807836Y-111285469D01*
X128989119Y-111397715D01*
X129187940Y-111474738D01*
X129397528Y-111513917D01*
X129397530Y-111513917D01*
X129610746Y-111513917D01*
X129610748Y-111513917D01*
X129820336Y-111474738D01*
X130019157Y-111397715D01*
X130200440Y-111285469D01*
X130358010Y-111141824D01*
X130486504Y-110971672D01*
X130509196Y-110926100D01*
X130581541Y-110780811D01*
X130581541Y-110780810D01*
X130581543Y-110780806D01*
X130639894Y-110575727D01*
X130650667Y-110459464D01*
X130676453Y-110394528D01*
X130718760Y-110364221D01*
X130827268Y-110364221D01*
X130863641Y-110385085D01*
X130895831Y-110447098D01*
X130897609Y-110459465D01*
X130908382Y-110575727D01*
X130966734Y-110780809D01*
X130966734Y-110780811D01*
X131061770Y-110971670D01*
X131190012Y-111141488D01*
X131190266Y-111141824D01*
X131347836Y-111285469D01*
X131529119Y-111397715D01*
X131727940Y-111474738D01*
X131937528Y-111513917D01*
X131937530Y-111513917D01*
X132150746Y-111513917D01*
X132150748Y-111513917D01*
X132360336Y-111474738D01*
X132559157Y-111397715D01*
X132740440Y-111285469D01*
X132898010Y-111141824D01*
X133026504Y-110971672D01*
X133049196Y-110926100D01*
X133121541Y-110780811D01*
X133121541Y-110780810D01*
X133121543Y-110780806D01*
X133179894Y-110575727D01*
X133190667Y-110459464D01*
X133216453Y-110394528D01*
X133258760Y-110364221D01*
X133367268Y-110364221D01*
X133403641Y-110385085D01*
X133435831Y-110447098D01*
X133437609Y-110459465D01*
X133448382Y-110575727D01*
X133506734Y-110780809D01*
X133506734Y-110780811D01*
X133601770Y-110971670D01*
X133730012Y-111141488D01*
X133730266Y-111141824D01*
X133887836Y-111285469D01*
X134069119Y-111397715D01*
X134267940Y-111474738D01*
X134477528Y-111513917D01*
X134477530Y-111513917D01*
X134690746Y-111513917D01*
X134690748Y-111513917D01*
X134900336Y-111474738D01*
X135099157Y-111397715D01*
X135280440Y-111285469D01*
X135438010Y-111141824D01*
X135566504Y-110971672D01*
X135589196Y-110926100D01*
X135661541Y-110780811D01*
X135661541Y-110780810D01*
X135661543Y-110780806D01*
X135719894Y-110575727D01*
X135730667Y-110459464D01*
X135756453Y-110394528D01*
X135798760Y-110364221D01*
X135907268Y-110364221D01*
X135943641Y-110385085D01*
X135975831Y-110447098D01*
X135977609Y-110459465D01*
X135988382Y-110575727D01*
X136046734Y-110780809D01*
X136046734Y-110780811D01*
X136141770Y-110971670D01*
X136270012Y-111141488D01*
X136270266Y-111141824D01*
X136427836Y-111285469D01*
X136609119Y-111397715D01*
X136807940Y-111474738D01*
X137017528Y-111513917D01*
X137017530Y-111513917D01*
X137230746Y-111513917D01*
X137230748Y-111513917D01*
X137440336Y-111474738D01*
X137639157Y-111397715D01*
X137820440Y-111285469D01*
X137978010Y-111141824D01*
X138106504Y-110971672D01*
X138129196Y-110926100D01*
X138201541Y-110780811D01*
X138201541Y-110780810D01*
X138201543Y-110780806D01*
X138259894Y-110575727D01*
X138270667Y-110459464D01*
X138296453Y-110394528D01*
X138338760Y-110364221D01*
X138447268Y-110364221D01*
X138483641Y-110385085D01*
X138515831Y-110447098D01*
X138517609Y-110459465D01*
X138528382Y-110575727D01*
X138586734Y-110780809D01*
X138586734Y-110780811D01*
X138681770Y-110971670D01*
X138810012Y-111141488D01*
X138810266Y-111141824D01*
X138967836Y-111285469D01*
X139149119Y-111397715D01*
X139347940Y-111474738D01*
X139557528Y-111513917D01*
X139557530Y-111513917D01*
X139770746Y-111513917D01*
X139770748Y-111513917D01*
X139980336Y-111474738D01*
X140179157Y-111397715D01*
X140360440Y-111285469D01*
X140518010Y-111141824D01*
X140646504Y-110971672D01*
X140669196Y-110926100D01*
X140741541Y-110780811D01*
X140741541Y-110780810D01*
X140741543Y-110780806D01*
X140799894Y-110575727D01*
X140810667Y-110459464D01*
X140836453Y-110394528D01*
X140878760Y-110364221D01*
X140987268Y-110364221D01*
X141023641Y-110385085D01*
X141055831Y-110447098D01*
X141057609Y-110459465D01*
X141068382Y-110575727D01*
X141126734Y-110780809D01*
X141126734Y-110780811D01*
X141221770Y-110971670D01*
X141350012Y-111141488D01*
X141350266Y-111141824D01*
X141507836Y-111285469D01*
X141689119Y-111397715D01*
X141887940Y-111474738D01*
X142097528Y-111513917D01*
X142097530Y-111513917D01*
X142310746Y-111513917D01*
X142310748Y-111513917D01*
X142520336Y-111474738D01*
X142719157Y-111397715D01*
X142900440Y-111285469D01*
X143058010Y-111141824D01*
X143186504Y-110971672D01*
X143209196Y-110926100D01*
X143281541Y-110780811D01*
X143281541Y-110780810D01*
X143281543Y-110780806D01*
X143339894Y-110575727D01*
X143350667Y-110459464D01*
X143376453Y-110394528D01*
X143418760Y-110364221D01*
X143527268Y-110364221D01*
X143563641Y-110385085D01*
X143595831Y-110447098D01*
X143597609Y-110459465D01*
X143608382Y-110575727D01*
X143666734Y-110780809D01*
X143666734Y-110780811D01*
X143761770Y-110971670D01*
X143890012Y-111141488D01*
X143890266Y-111141824D01*
X144047836Y-111285469D01*
X144229119Y-111397715D01*
X144427940Y-111474738D01*
X144637528Y-111513917D01*
X144637530Y-111513917D01*
X144850746Y-111513917D01*
X144850748Y-111513917D01*
X145060336Y-111474738D01*
X145259157Y-111397715D01*
X145440440Y-111285469D01*
X145598010Y-111141824D01*
X145726504Y-110971672D01*
X145749196Y-110926100D01*
X145821541Y-110780811D01*
X145821541Y-110780810D01*
X145821543Y-110780806D01*
X145879894Y-110575727D01*
X145890667Y-110459464D01*
X145916453Y-110394528D01*
X145958760Y-110364221D01*
X146067268Y-110364221D01*
X146103641Y-110385085D01*
X146135831Y-110447098D01*
X146137609Y-110459465D01*
X146148382Y-110575727D01*
X146206734Y-110780809D01*
X146206734Y-110780811D01*
X146301770Y-110971670D01*
X146430012Y-111141488D01*
X146430266Y-111141824D01*
X146587836Y-111285469D01*
X146769119Y-111397715D01*
X146967940Y-111474738D01*
X147177528Y-111513917D01*
X147177530Y-111513917D01*
X147390746Y-111513917D01*
X147390748Y-111513917D01*
X147600336Y-111474738D01*
X147799157Y-111397715D01*
X147980440Y-111285469D01*
X148138010Y-111141824D01*
X148266504Y-110971672D01*
X148289196Y-110926100D01*
X148361541Y-110780811D01*
X148361541Y-110780810D01*
X148361543Y-110780806D01*
X148419894Y-110575727D01*
X148430667Y-110459464D01*
X148456453Y-110394528D01*
X148498760Y-110364221D01*
X148607268Y-110364221D01*
X148643641Y-110385085D01*
X148675831Y-110447098D01*
X148677609Y-110459465D01*
X148688382Y-110575727D01*
X148746734Y-110780809D01*
X148746734Y-110780811D01*
X148841770Y-110971670D01*
X148970012Y-111141488D01*
X148970266Y-111141824D01*
X149127836Y-111285469D01*
X149309119Y-111397715D01*
X149507940Y-111474738D01*
X149717528Y-111513917D01*
X149717530Y-111513917D01*
X149930746Y-111513917D01*
X149930748Y-111513917D01*
X150140336Y-111474738D01*
X150339157Y-111397715D01*
X150520440Y-111285469D01*
X150678010Y-111141824D01*
X150806504Y-110971672D01*
X150829196Y-110926100D01*
X150901541Y-110780811D01*
X150901541Y-110780810D01*
X150901543Y-110780806D01*
X150959894Y-110575727D01*
X150970667Y-110459464D01*
X150996453Y-110394528D01*
X151038760Y-110364221D01*
X151147268Y-110364221D01*
X151183641Y-110385085D01*
X151215831Y-110447098D01*
X151217609Y-110459465D01*
X151228382Y-110575727D01*
X151286734Y-110780809D01*
X151286734Y-110780811D01*
X151381770Y-110971670D01*
X151510012Y-111141488D01*
X151510266Y-111141824D01*
X151667836Y-111285469D01*
X151849119Y-111397715D01*
X152047940Y-111474738D01*
X152257528Y-111513917D01*
X152257530Y-111513917D01*
X152470746Y-111513917D01*
X152470748Y-111513917D01*
X152680336Y-111474738D01*
X152879157Y-111397715D01*
X153060440Y-111285469D01*
X153218010Y-111141824D01*
X153346504Y-110971672D01*
X153369196Y-110926100D01*
X153441541Y-110780811D01*
X153441541Y-110780810D01*
X153441543Y-110780806D01*
X153499894Y-110575727D01*
X153510667Y-110459464D01*
X153536453Y-110394528D01*
X153578760Y-110364221D01*
X153687268Y-110364221D01*
X153723641Y-110385085D01*
X153755831Y-110447098D01*
X153757609Y-110459465D01*
X153768382Y-110575727D01*
X153826734Y-110780809D01*
X153826734Y-110780811D01*
X153921770Y-110971670D01*
X154050012Y-111141488D01*
X154050266Y-111141824D01*
X154207836Y-111285469D01*
X154389119Y-111397715D01*
X154587940Y-111474738D01*
X154797528Y-111513917D01*
X154797530Y-111513917D01*
X155010746Y-111513917D01*
X155010748Y-111513917D01*
X155220336Y-111474738D01*
X155419157Y-111397715D01*
X155600440Y-111285469D01*
X155758010Y-111141824D01*
X155886504Y-110971672D01*
X155909196Y-110926100D01*
X155981541Y-110780811D01*
X155981541Y-110780810D01*
X155981543Y-110780806D01*
X156039894Y-110575727D01*
X156050667Y-110459464D01*
X156076453Y-110394528D01*
X156118760Y-110364221D01*
X156227268Y-110364221D01*
X156263641Y-110385085D01*
X156295831Y-110447098D01*
X156297609Y-110459465D01*
X156308382Y-110575727D01*
X156366734Y-110780809D01*
X156366734Y-110780811D01*
X156461770Y-110971670D01*
X156590012Y-111141488D01*
X156590266Y-111141824D01*
X156747836Y-111285469D01*
X156929119Y-111397715D01*
X157127940Y-111474738D01*
X157337528Y-111513917D01*
X157337530Y-111513917D01*
X157550746Y-111513917D01*
X157550748Y-111513917D01*
X157760336Y-111474738D01*
X157959157Y-111397715D01*
X158140440Y-111285469D01*
X158298010Y-111141824D01*
X158426504Y-110971672D01*
X158449196Y-110926100D01*
X158521541Y-110780811D01*
X158521541Y-110780810D01*
X158521543Y-110780806D01*
X158579894Y-110575727D01*
X158586167Y-110508022D01*
X158611952Y-110443086D01*
X158668752Y-110402398D01*
X158738533Y-110398878D01*
X158799140Y-110433642D01*
X158831331Y-110495655D01*
X158833638Y-110519464D01*
X158833638Y-111258273D01*
X158833640Y-111258299D01*
X158836551Y-111283404D01*
X158836553Y-111283408D01*
X158881931Y-111386181D01*
X158881932Y-111386182D01*
X158961373Y-111465623D01*
X159064147Y-111511002D01*
X159089273Y-111513917D01*
X160879002Y-111513916D01*
X160879017Y-111513914D01*
X160879020Y-111513914D01*
X160904125Y-111511003D01*
X160904126Y-111511002D01*
X160904129Y-111511002D01*
X161006903Y-111465623D01*
X161086344Y-111386182D01*
X161131723Y-111283408D01*
X161134638Y-111258282D01*
X161134637Y-109468553D01*
X161134635Y-109468534D01*
X161131724Y-109443429D01*
X161131723Y-109443427D01*
X161131723Y-109443426D01*
X161086344Y-109340652D01*
X161006903Y-109261211D01*
X161006901Y-109261210D01*
X160904130Y-109215832D01*
X160879003Y-109212917D01*
X159089281Y-109212917D01*
X159089255Y-109212919D01*
X159064150Y-109215830D01*
X159064146Y-109215832D01*
X158961373Y-109261210D01*
X158881932Y-109340651D01*
X158836553Y-109443423D01*
X158836553Y-109443425D01*
X158833638Y-109468548D01*
X158833638Y-110207368D01*
X158813953Y-110274407D01*
X158761149Y-110320162D01*
X158691991Y-110330106D01*
X158628435Y-110301081D01*
X158590661Y-110242303D01*
X158586167Y-110218808D01*
X158579894Y-110151106D01*
X158565411Y-110100206D01*
X158521543Y-109946028D01*
X158521541Y-109946023D01*
X158521541Y-109946022D01*
X158426505Y-109755163D01*
X158298010Y-109585010D01*
X158140440Y-109441365D01*
X157959157Y-109329119D01*
X157959155Y-109329118D01*
X157859746Y-109290607D01*
X157760336Y-109252096D01*
X157550748Y-109212917D01*
X157337528Y-109212917D01*
X157127940Y-109252096D01*
X157127937Y-109252096D01*
X157127937Y-109252097D01*
X156929120Y-109329118D01*
X156929118Y-109329119D01*
X156747837Y-109441364D01*
X156590265Y-109585010D01*
X156461770Y-109755163D01*
X156366734Y-109946022D01*
X156366734Y-109946024D01*
X156308382Y-110151106D01*
X156297609Y-110267368D01*
X156271823Y-110332305D01*
X156227268Y-110364221D01*
X156118760Y-110364221D01*
X156121007Y-110362611D01*
X156084635Y-110341748D01*
X156052445Y-110279735D01*
X156050667Y-110267368D01*
X156045107Y-110207368D01*
X156039894Y-110151107D01*
X155981543Y-109946028D01*
X155981541Y-109946023D01*
X155981541Y-109946022D01*
X155886505Y-109755163D01*
X155758010Y-109585010D01*
X155600440Y-109441365D01*
X155419157Y-109329119D01*
X155419155Y-109329118D01*
X155319746Y-109290607D01*
X155220336Y-109252096D01*
X155010748Y-109212917D01*
X154797528Y-109212917D01*
X154587940Y-109252096D01*
X154587937Y-109252096D01*
X154587937Y-109252097D01*
X154389120Y-109329118D01*
X154389118Y-109329119D01*
X154207837Y-109441364D01*
X154050265Y-109585010D01*
X153921770Y-109755163D01*
X153826734Y-109946022D01*
X153826734Y-109946024D01*
X153768382Y-110151106D01*
X153757609Y-110267368D01*
X153731823Y-110332305D01*
X153687268Y-110364221D01*
X153578760Y-110364221D01*
X153581007Y-110362611D01*
X153544635Y-110341748D01*
X153512445Y-110279735D01*
X153510667Y-110267368D01*
X153505107Y-110207368D01*
X153499894Y-110151107D01*
X153441543Y-109946028D01*
X153441541Y-109946023D01*
X153441541Y-109946022D01*
X153346505Y-109755163D01*
X153218010Y-109585010D01*
X153060440Y-109441365D01*
X152879157Y-109329119D01*
X152879155Y-109329118D01*
X152779746Y-109290607D01*
X152680336Y-109252096D01*
X152470748Y-109212917D01*
X152257528Y-109212917D01*
X152047940Y-109252096D01*
X152047937Y-109252096D01*
X152047937Y-109252097D01*
X151849120Y-109329118D01*
X151849118Y-109329119D01*
X151667837Y-109441364D01*
X151510265Y-109585010D01*
X151381770Y-109755163D01*
X151286734Y-109946022D01*
X151286734Y-109946024D01*
X151228382Y-110151106D01*
X151217609Y-110267368D01*
X151191823Y-110332305D01*
X151147268Y-110364221D01*
X151038760Y-110364221D01*
X151041007Y-110362611D01*
X151004635Y-110341748D01*
X150972445Y-110279735D01*
X150970667Y-110267368D01*
X150965107Y-110207368D01*
X150959894Y-110151107D01*
X150901543Y-109946028D01*
X150901541Y-109946023D01*
X150901541Y-109946022D01*
X150806505Y-109755163D01*
X150678010Y-109585010D01*
X150520440Y-109441365D01*
X150339157Y-109329119D01*
X150339155Y-109329118D01*
X150239746Y-109290607D01*
X150140336Y-109252096D01*
X149930748Y-109212917D01*
X149717528Y-109212917D01*
X149507940Y-109252096D01*
X149507937Y-109252096D01*
X149507937Y-109252097D01*
X149309120Y-109329118D01*
X149309118Y-109329119D01*
X149127837Y-109441364D01*
X148970265Y-109585010D01*
X148841770Y-109755163D01*
X148746734Y-109946022D01*
X148746734Y-109946024D01*
X148688382Y-110151106D01*
X148677609Y-110267368D01*
X148651823Y-110332305D01*
X148607268Y-110364221D01*
X148498760Y-110364221D01*
X148501007Y-110362611D01*
X148464635Y-110341748D01*
X148432445Y-110279735D01*
X148430667Y-110267368D01*
X148425107Y-110207368D01*
X148419894Y-110151107D01*
X148361543Y-109946028D01*
X148361541Y-109946023D01*
X148361541Y-109946022D01*
X148266505Y-109755163D01*
X148138010Y-109585010D01*
X147980440Y-109441365D01*
X147799157Y-109329119D01*
X147799155Y-109329118D01*
X147699746Y-109290607D01*
X147600336Y-109252096D01*
X147390748Y-109212917D01*
X147177528Y-109212917D01*
X146967940Y-109252096D01*
X146967937Y-109252096D01*
X146967937Y-109252097D01*
X146769120Y-109329118D01*
X146769118Y-109329119D01*
X146587837Y-109441364D01*
X146430265Y-109585010D01*
X146301770Y-109755163D01*
X146206734Y-109946022D01*
X146206734Y-109946024D01*
X146148382Y-110151106D01*
X146137609Y-110267368D01*
X146111823Y-110332305D01*
X146067268Y-110364221D01*
X145958760Y-110364221D01*
X145961007Y-110362611D01*
X145924635Y-110341748D01*
X145892445Y-110279735D01*
X145890667Y-110267368D01*
X145885107Y-110207368D01*
X145879894Y-110151107D01*
X145821543Y-109946028D01*
X145821541Y-109946023D01*
X145821541Y-109946022D01*
X145726505Y-109755163D01*
X145598010Y-109585010D01*
X145440440Y-109441365D01*
X145259157Y-109329119D01*
X145259155Y-109329118D01*
X145159746Y-109290607D01*
X145060336Y-109252096D01*
X144850748Y-109212917D01*
X144637528Y-109212917D01*
X144427940Y-109252096D01*
X144427937Y-109252096D01*
X144427937Y-109252097D01*
X144229120Y-109329118D01*
X144229118Y-109329119D01*
X144047837Y-109441364D01*
X143890265Y-109585010D01*
X143761770Y-109755163D01*
X143666734Y-109946022D01*
X143666734Y-109946024D01*
X143608382Y-110151106D01*
X143597609Y-110267368D01*
X143571823Y-110332305D01*
X143527268Y-110364221D01*
X143418760Y-110364221D01*
X143421007Y-110362611D01*
X143384635Y-110341748D01*
X143352445Y-110279735D01*
X143350667Y-110267368D01*
X143345107Y-110207368D01*
X143339894Y-110151107D01*
X143281543Y-109946028D01*
X143281541Y-109946023D01*
X143281541Y-109946022D01*
X143186505Y-109755163D01*
X143058010Y-109585010D01*
X142900440Y-109441365D01*
X142719157Y-109329119D01*
X142719155Y-109329118D01*
X142619746Y-109290607D01*
X142520336Y-109252096D01*
X142310748Y-109212917D01*
X142097528Y-109212917D01*
X141887940Y-109252096D01*
X141887937Y-109252096D01*
X141887937Y-109252097D01*
X141689120Y-109329118D01*
X141689118Y-109329119D01*
X141507837Y-109441364D01*
X141350265Y-109585010D01*
X141221770Y-109755163D01*
X141126734Y-109946022D01*
X141126734Y-109946024D01*
X141068382Y-110151106D01*
X141057609Y-110267368D01*
X141031823Y-110332305D01*
X140987268Y-110364221D01*
X140878760Y-110364221D01*
X140881007Y-110362611D01*
X140844635Y-110341748D01*
X140812445Y-110279735D01*
X140810667Y-110267368D01*
X140805107Y-110207368D01*
X140799894Y-110151107D01*
X140741543Y-109946028D01*
X140741541Y-109946023D01*
X140741541Y-109946022D01*
X140646505Y-109755163D01*
X140518010Y-109585010D01*
X140360440Y-109441365D01*
X140179157Y-109329119D01*
X140179155Y-109329118D01*
X140079746Y-109290607D01*
X139980336Y-109252096D01*
X139770748Y-109212917D01*
X139557528Y-109212917D01*
X139347940Y-109252096D01*
X139347937Y-109252096D01*
X139347937Y-109252097D01*
X139149120Y-109329118D01*
X139149118Y-109329119D01*
X138967837Y-109441364D01*
X138810265Y-109585010D01*
X138681770Y-109755163D01*
X138586734Y-109946022D01*
X138586734Y-109946024D01*
X138528382Y-110151106D01*
X138517609Y-110267368D01*
X138491823Y-110332305D01*
X138447268Y-110364221D01*
X138338760Y-110364221D01*
X138341007Y-110362611D01*
X138304635Y-110341748D01*
X138272445Y-110279735D01*
X138270667Y-110267368D01*
X138265107Y-110207368D01*
X138259894Y-110151107D01*
X138201543Y-109946028D01*
X138201541Y-109946023D01*
X138201541Y-109946022D01*
X138106505Y-109755163D01*
X137978010Y-109585010D01*
X137820440Y-109441365D01*
X137639157Y-109329119D01*
X137639155Y-109329118D01*
X137539746Y-109290607D01*
X137440336Y-109252096D01*
X137230748Y-109212917D01*
X137017528Y-109212917D01*
X136807940Y-109252096D01*
X136807937Y-109252096D01*
X136807937Y-109252097D01*
X136609120Y-109329118D01*
X136609118Y-109329119D01*
X136427837Y-109441364D01*
X136270265Y-109585010D01*
X136141770Y-109755163D01*
X136046734Y-109946022D01*
X136046734Y-109946024D01*
X135988382Y-110151106D01*
X135977609Y-110267368D01*
X135951823Y-110332305D01*
X135907268Y-110364221D01*
X135798760Y-110364221D01*
X135801007Y-110362611D01*
X135764635Y-110341748D01*
X135732445Y-110279735D01*
X135730667Y-110267368D01*
X135725107Y-110207368D01*
X135719894Y-110151107D01*
X135661543Y-109946028D01*
X135661541Y-109946023D01*
X135661541Y-109946022D01*
X135566505Y-109755163D01*
X135438010Y-109585010D01*
X135280440Y-109441365D01*
X135099157Y-109329119D01*
X135099155Y-109329118D01*
X134999746Y-109290607D01*
X134900336Y-109252096D01*
X134690748Y-109212917D01*
X134477528Y-109212917D01*
X134267940Y-109252096D01*
X134267937Y-109252096D01*
X134267937Y-109252097D01*
X134069120Y-109329118D01*
X134069118Y-109329119D01*
X133887837Y-109441364D01*
X133730265Y-109585010D01*
X133601770Y-109755163D01*
X133506734Y-109946022D01*
X133506734Y-109946024D01*
X133448382Y-110151106D01*
X133437609Y-110267368D01*
X133411823Y-110332305D01*
X133367268Y-110364221D01*
X133258760Y-110364221D01*
X133261007Y-110362611D01*
X133224635Y-110341748D01*
X133192445Y-110279735D01*
X133190667Y-110267368D01*
X133185107Y-110207368D01*
X133179894Y-110151107D01*
X133121543Y-109946028D01*
X133121541Y-109946023D01*
X133121541Y-109946022D01*
X133026505Y-109755163D01*
X132898010Y-109585010D01*
X132740440Y-109441365D01*
X132559157Y-109329119D01*
X132559155Y-109329118D01*
X132459746Y-109290607D01*
X132360336Y-109252096D01*
X132150748Y-109212917D01*
X131937528Y-109212917D01*
X131727940Y-109252096D01*
X131727937Y-109252096D01*
X131727937Y-109252097D01*
X131529120Y-109329118D01*
X131529118Y-109329119D01*
X131347837Y-109441364D01*
X131190265Y-109585010D01*
X131061770Y-109755163D01*
X130966734Y-109946022D01*
X130966734Y-109946024D01*
X130908382Y-110151106D01*
X130897609Y-110267368D01*
X130871823Y-110332305D01*
X130827268Y-110364221D01*
X130718760Y-110364221D01*
X130721007Y-110362611D01*
X130684635Y-110341748D01*
X130652445Y-110279735D01*
X130650667Y-110267368D01*
X130645107Y-110207368D01*
X130639894Y-110151107D01*
X130581543Y-109946028D01*
X130581541Y-109946023D01*
X130581541Y-109946022D01*
X130486505Y-109755163D01*
X130358010Y-109585010D01*
X130200440Y-109441365D01*
X130019157Y-109329119D01*
X130019155Y-109329118D01*
X129919746Y-109290607D01*
X129820336Y-109252096D01*
X129610748Y-109212917D01*
X129397528Y-109212917D01*
X129187940Y-109252096D01*
X129187937Y-109252096D01*
X129187937Y-109252097D01*
X128989120Y-109329118D01*
X128989118Y-109329119D01*
X128807837Y-109441364D01*
X128650265Y-109585010D01*
X128521770Y-109755163D01*
X128426734Y-109946022D01*
X128426734Y-109946024D01*
X128368382Y-110151106D01*
X128357609Y-110267368D01*
X128331823Y-110332305D01*
X128287268Y-110364221D01*
X128178760Y-110364221D01*
X128181007Y-110362611D01*
X128144635Y-110341748D01*
X128112445Y-110279735D01*
X128110667Y-110267368D01*
X128105107Y-110207368D01*
X128099894Y-110151107D01*
X128041543Y-109946028D01*
X128041541Y-109946023D01*
X128041541Y-109946022D01*
X127946505Y-109755163D01*
X127818010Y-109585010D01*
X127660440Y-109441365D01*
X127479157Y-109329119D01*
X127479155Y-109329118D01*
X127379746Y-109290607D01*
X127280336Y-109252096D01*
X127070748Y-109212917D01*
X126857528Y-109212917D01*
X126647940Y-109252096D01*
X126647937Y-109252096D01*
X126647937Y-109252097D01*
X126449120Y-109329118D01*
X126449118Y-109329119D01*
X126267837Y-109441364D01*
X126110265Y-109585010D01*
X125981770Y-109755163D01*
X125886734Y-109946022D01*
X125886734Y-109946024D01*
X125828382Y-110151106D01*
X125817609Y-110267368D01*
X125791823Y-110332305D01*
X125747268Y-110364221D01*
X125638760Y-110364221D01*
X125641007Y-110362611D01*
X125604635Y-110341748D01*
X125572445Y-110279735D01*
X125570667Y-110267368D01*
X125565107Y-110207368D01*
X125559894Y-110151107D01*
X125501543Y-109946028D01*
X125501541Y-109946023D01*
X125501541Y-109946022D01*
X125406505Y-109755163D01*
X125278010Y-109585010D01*
X125120440Y-109441365D01*
X124939157Y-109329119D01*
X124939155Y-109329118D01*
X124839746Y-109290607D01*
X124740336Y-109252096D01*
X124530748Y-109212917D01*
X124317528Y-109212917D01*
X124107940Y-109252096D01*
X124107937Y-109252096D01*
X124107937Y-109252097D01*
X123909120Y-109329118D01*
X123909118Y-109329119D01*
X123727837Y-109441364D01*
X123570265Y-109585010D01*
X123441770Y-109755163D01*
X123346734Y-109946022D01*
X123346734Y-109946024D01*
X123288382Y-110151106D01*
X123277609Y-110267368D01*
X123251823Y-110332305D01*
X123207268Y-110364221D01*
X123098760Y-110364221D01*
X123101007Y-110362611D01*
X123064635Y-110341748D01*
X123032445Y-110279735D01*
X123030667Y-110267368D01*
X123025107Y-110207368D01*
X123019894Y-110151107D01*
X122961543Y-109946028D01*
X122961541Y-109946023D01*
X122961541Y-109946022D01*
X122866505Y-109755163D01*
X122738010Y-109585010D01*
X122580440Y-109441365D01*
X122399157Y-109329119D01*
X122399155Y-109329118D01*
X122299746Y-109290607D01*
X122200336Y-109252096D01*
X121990748Y-109212917D01*
X121777528Y-109212917D01*
X121567940Y-109252096D01*
X121567937Y-109252096D01*
X121567937Y-109252097D01*
X121369120Y-109329118D01*
X121369118Y-109329119D01*
X121187837Y-109441364D01*
X121030265Y-109585010D01*
X120901770Y-109755163D01*
X120806734Y-109946022D01*
X120806734Y-109946024D01*
X120748382Y-110151106D01*
X120737609Y-110267368D01*
X120711823Y-110332305D01*
X120667268Y-110364221D01*
X120558760Y-110364221D01*
X120561007Y-110362611D01*
X120524635Y-110341748D01*
X120492445Y-110279735D01*
X120490667Y-110267368D01*
X120485107Y-110207368D01*
X120479894Y-110151107D01*
X120421543Y-109946028D01*
X120421541Y-109946023D01*
X120421541Y-109946022D01*
X120326505Y-109755163D01*
X120198010Y-109585010D01*
X120040440Y-109441365D01*
X119859157Y-109329119D01*
X119859155Y-109329118D01*
X119759746Y-109290607D01*
X119660336Y-109252096D01*
X119450748Y-109212917D01*
X119237528Y-109212917D01*
X119027940Y-109252096D01*
X119027937Y-109252096D01*
X119027937Y-109252097D01*
X118829120Y-109329118D01*
X118829118Y-109329119D01*
X118647837Y-109441364D01*
X118490265Y-109585010D01*
X118361770Y-109755163D01*
X118266734Y-109946022D01*
X118266734Y-109946024D01*
X118208382Y-110151106D01*
X118197609Y-110267368D01*
X118171823Y-110332305D01*
X118127268Y-110364221D01*
X118018760Y-110364221D01*
X118021007Y-110362611D01*
X117984635Y-110341748D01*
X117952445Y-110279735D01*
X117950667Y-110267368D01*
X117945107Y-110207368D01*
X117939894Y-110151107D01*
X117881543Y-109946028D01*
X117881541Y-109946023D01*
X117881541Y-109946022D01*
X117786505Y-109755163D01*
X117658010Y-109585010D01*
X117500440Y-109441365D01*
X117319157Y-109329119D01*
X117319155Y-109329118D01*
X117219746Y-109290607D01*
X117120336Y-109252096D01*
X116910748Y-109212917D01*
X116697528Y-109212917D01*
X116487940Y-109252096D01*
X116487937Y-109252096D01*
X116487937Y-109252097D01*
X116289120Y-109329118D01*
X116289118Y-109329119D01*
X116107837Y-109441364D01*
X115950265Y-109585010D01*
X115821770Y-109755163D01*
X115726734Y-109946022D01*
X115726734Y-109946024D01*
X115668382Y-110151106D01*
X115657609Y-110267368D01*
X115631823Y-110332305D01*
X115587268Y-110364221D01*
X115478760Y-110364221D01*
X115481007Y-110362611D01*
X115444635Y-110341748D01*
X115412445Y-110279735D01*
X115410667Y-110267368D01*
X115405107Y-110207368D01*
X115399894Y-110151107D01*
X115341543Y-109946028D01*
X115341541Y-109946023D01*
X115341541Y-109946022D01*
X115246505Y-109755163D01*
X115118010Y-109585010D01*
X114960440Y-109441365D01*
X114779157Y-109329119D01*
X114779155Y-109329118D01*
X114679746Y-109290607D01*
X114580336Y-109252096D01*
X114370748Y-109212917D01*
X114157528Y-109212917D01*
X113947940Y-109252096D01*
X113947937Y-109252096D01*
X113947937Y-109252097D01*
X113749120Y-109329118D01*
X113749118Y-109329119D01*
X113567837Y-109441364D01*
X113410265Y-109585010D01*
X113281770Y-109755163D01*
X113186734Y-109946022D01*
X113186734Y-109946024D01*
X113128382Y-110151106D01*
X113117609Y-110267368D01*
X113091823Y-110332305D01*
X113047268Y-110364221D01*
X112938760Y-110364221D01*
X112941007Y-110362611D01*
X112904635Y-110341748D01*
X112872445Y-110279735D01*
X112870667Y-110267368D01*
X112865107Y-110207368D01*
X112859894Y-110151107D01*
X112801543Y-109946028D01*
X112801541Y-109946023D01*
X112801541Y-109946022D01*
X112706505Y-109755163D01*
X112578010Y-109585010D01*
X112420440Y-109441365D01*
X112239157Y-109329119D01*
X112239155Y-109329118D01*
X112139746Y-109290607D01*
X112040336Y-109252096D01*
X111830748Y-109212917D01*
X111617528Y-109212917D01*
X111407940Y-109252096D01*
X111407937Y-109252096D01*
X111407937Y-109252097D01*
X111209120Y-109329118D01*
X111209118Y-109329119D01*
X111027837Y-109441364D01*
X110870265Y-109585010D01*
X110741772Y-109755161D01*
X110644462Y-109950587D01*
X110596959Y-110001824D01*
X110529296Y-110019245D01*
X110462956Y-109997319D01*
X110419001Y-109943008D01*
X110413687Y-109927406D01*
X110410881Y-109916933D01*
X110410876Y-109916919D01*
X110393071Y-109878737D01*
X110314706Y-109710683D01*
X110184185Y-109524278D01*
X110184183Y-109524275D01*
X110023279Y-109363371D01*
X109836872Y-109232849D01*
X109836870Y-109232848D01*
X109630635Y-109136678D01*
X109630626Y-109136675D01*
X109410835Y-109077783D01*
X109410831Y-109077782D01*
X109410830Y-109077782D01*
X109410829Y-109077781D01*
X109410824Y-109077781D01*
X109184140Y-109057949D01*
X109184136Y-109057949D01*
X108957451Y-109077781D01*
X108957440Y-109077783D01*
X108737649Y-109136675D01*
X108737640Y-109136678D01*
X108531405Y-109232848D01*
X108531403Y-109232849D01*
X108344996Y-109363371D01*
X108184092Y-109524275D01*
X108053570Y-109710682D01*
X108053569Y-109710684D01*
X107957399Y-109916919D01*
X107957395Y-109916931D01*
X107954392Y-109928140D01*
X107918026Y-109987799D01*
X107855179Y-110018327D01*
X107785803Y-110010031D01*
X107731926Y-109965545D01*
X107723618Y-109951315D01*
X107626078Y-109755427D01*
X107497637Y-109585345D01*
X107340137Y-109441765D01*
X107340135Y-109441763D01*
X107158936Y-109329570D01*
X107158930Y-109329568D01*
X106960198Y-109252579D01*
X106944138Y-109249576D01*
X106944138Y-109961773D01*
X106917238Y-109938465D01*
X106786453Y-109878737D01*
X106679901Y-109863417D01*
X106608375Y-109863417D01*
X106501823Y-109878737D01*
X106371038Y-109938465D01*
X106344138Y-109961773D01*
X106344138Y-109249576D01*
X106328077Y-109252579D01*
X106129345Y-109329568D01*
X106129339Y-109329570D01*
X105948140Y-109441763D01*
X105948138Y-109441765D01*
X105790638Y-109585345D01*
X105662199Y-109755425D01*
X105567205Y-109946198D01*
X105567200Y-109946211D01*
X105533851Y-110063416D01*
X102864638Y-110063416D01*
X102864638Y-103853417D01*
X104409335Y-103853417D01*
X104428535Y-104219770D01*
X104485922Y-104582101D01*
X104485922Y-104582103D01*
X104580874Y-104936468D01*
X104712342Y-105278952D01*
X104878892Y-105605823D01*
X105078687Y-105913481D01*
X105235796Y-106107493D01*
X105792816Y-105550473D01*
X105962184Y-105550473D01*
X105981587Y-105648018D01*
X106036842Y-105730713D01*
X106119537Y-105785968D01*
X106192458Y-105800473D01*
X106241706Y-105800473D01*
X106314627Y-105785968D01*
X106397322Y-105730713D01*
X106452577Y-105648018D01*
X106471980Y-105550473D01*
X106452577Y-105452928D01*
X106397322Y-105370233D01*
X106314627Y-105314978D01*
X106241706Y-105300473D01*
X106192458Y-105300473D01*
X106119537Y-105314978D01*
X106036842Y-105370233D01*
X105981587Y-105452928D01*
X105962184Y-105550473D01*
X105792816Y-105550473D01*
X106589414Y-104753875D01*
X106615708Y-104796782D01*
X106779268Y-104988287D01*
X106970773Y-105151847D01*
X107013678Y-105178139D01*
X105660060Y-106531758D01*
X105854062Y-106688859D01*
X105854075Y-106688868D01*
X106161731Y-106888662D01*
X106488602Y-107055212D01*
X106831086Y-107186680D01*
X107185452Y-107281632D01*
X107547784Y-107339019D01*
X107914137Y-107358220D01*
X107914139Y-107358220D01*
X108280491Y-107339019D01*
X108642822Y-107281632D01*
X108642824Y-107281632D01*
X108997189Y-107186680D01*
X109339673Y-107055212D01*
X109666544Y-106888662D01*
X109974203Y-106688867D01*
X110168215Y-106531758D01*
X109186930Y-105550473D01*
X109356296Y-105550473D01*
X109375699Y-105648018D01*
X109430954Y-105730713D01*
X109513649Y-105785968D01*
X109586570Y-105800473D01*
X109635818Y-105800473D01*
X109708739Y-105785968D01*
X109791434Y-105730713D01*
X109846689Y-105648018D01*
X109866092Y-105550473D01*
X109846689Y-105452928D01*
X109791434Y-105370233D01*
X109708739Y-105314978D01*
X109635818Y-105300473D01*
X109586570Y-105300473D01*
X109513649Y-105314978D01*
X109430954Y-105370233D01*
X109375699Y-105452928D01*
X109356296Y-105550473D01*
X109186930Y-105550473D01*
X108814596Y-105178139D01*
X108857503Y-105151847D01*
X109049008Y-104988287D01*
X109212568Y-104796782D01*
X109238860Y-104753875D01*
X110592479Y-106107494D01*
X110749588Y-105913482D01*
X110949383Y-105605823D01*
X111115933Y-105278952D01*
X111247401Y-104936468D01*
X111342353Y-104582103D01*
X111342353Y-104582101D01*
X111399740Y-104219770D01*
X111418941Y-103853417D01*
X111418941Y-103853416D01*
X111399740Y-103487063D01*
X111342353Y-103124732D01*
X111342353Y-103124730D01*
X111247401Y-102770365D01*
X111115933Y-102427881D01*
X110949383Y-102101011D01*
X110749588Y-101793352D01*
X110592478Y-101599339D01*
X109238860Y-102952957D01*
X109212568Y-102910052D01*
X109049008Y-102718547D01*
X108857503Y-102554987D01*
X108814596Y-102528694D01*
X109186929Y-102156361D01*
X109356296Y-102156361D01*
X109375699Y-102253906D01*
X109430954Y-102336601D01*
X109513649Y-102391856D01*
X109586570Y-102406361D01*
X109635818Y-102406361D01*
X109708739Y-102391856D01*
X109791434Y-102336601D01*
X109846689Y-102253906D01*
X109866092Y-102156361D01*
X109846689Y-102058816D01*
X109791434Y-101976121D01*
X109708739Y-101920866D01*
X109635818Y-101906361D01*
X109586570Y-101906361D01*
X109513649Y-101920866D01*
X109430954Y-101976121D01*
X109375699Y-102058816D01*
X109356296Y-102156361D01*
X109186929Y-102156361D01*
X110168215Y-101175075D01*
X109974202Y-101017966D01*
X109666544Y-100818171D01*
X109339673Y-100651621D01*
X108997189Y-100520153D01*
X108642823Y-100425201D01*
X108280491Y-100367814D01*
X107914139Y-100348614D01*
X107914137Y-100348614D01*
X107547784Y-100367814D01*
X107185453Y-100425201D01*
X107185451Y-100425201D01*
X106831086Y-100520153D01*
X106488602Y-100651621D01*
X106161732Y-100818171D01*
X105854067Y-101017970D01*
X105660060Y-101175075D01*
X107013679Y-102528694D01*
X106970773Y-102554987D01*
X106779268Y-102718547D01*
X106615708Y-102910052D01*
X106589415Y-102952958D01*
X105792818Y-102156361D01*
X105962184Y-102156361D01*
X105981587Y-102253906D01*
X106036842Y-102336601D01*
X106119537Y-102391856D01*
X106192458Y-102406361D01*
X106241706Y-102406361D01*
X106314627Y-102391856D01*
X106397322Y-102336601D01*
X106452577Y-102253906D01*
X106471980Y-102156361D01*
X106452577Y-102058816D01*
X106397322Y-101976121D01*
X106314627Y-101920866D01*
X106241706Y-101906361D01*
X106192458Y-101906361D01*
X106119537Y-101920866D01*
X106036842Y-101976121D01*
X105981587Y-102058816D01*
X105962184Y-102156361D01*
X105792818Y-102156361D01*
X105235796Y-101599339D01*
X105078691Y-101793346D01*
X104878892Y-102101011D01*
X104712342Y-102427881D01*
X104580874Y-102770365D01*
X104485922Y-103124730D01*
X104485922Y-103124732D01*
X104428535Y-103487063D01*
X104409335Y-103853416D01*
X104409335Y-103853417D01*
X102864638Y-103853417D01*
X102864638Y-54853417D01*
X104409335Y-54853417D01*
X104428535Y-55219770D01*
X104485922Y-55582101D01*
X104485922Y-55582103D01*
X104580874Y-55936468D01*
X104712342Y-56278952D01*
X104878892Y-56605823D01*
X105078687Y-56913481D01*
X105235796Y-57107493D01*
X105792816Y-56550473D01*
X105962184Y-56550473D01*
X105981587Y-56648018D01*
X106036842Y-56730713D01*
X106119537Y-56785968D01*
X106192458Y-56800473D01*
X106241706Y-56800473D01*
X106314627Y-56785968D01*
X106397322Y-56730713D01*
X106452577Y-56648018D01*
X106471980Y-56550473D01*
X106452577Y-56452928D01*
X106397322Y-56370233D01*
X106314627Y-56314978D01*
X106241706Y-56300473D01*
X106192458Y-56300473D01*
X106119537Y-56314978D01*
X106036842Y-56370233D01*
X105981587Y-56452928D01*
X105962184Y-56550473D01*
X105792816Y-56550473D01*
X106589414Y-55753875D01*
X106615708Y-55796782D01*
X106779268Y-55988287D01*
X106970773Y-56151847D01*
X107013678Y-56178139D01*
X105660060Y-57531758D01*
X105854062Y-57688859D01*
X105854075Y-57688868D01*
X106161731Y-57888662D01*
X106488602Y-58055212D01*
X106831086Y-58186680D01*
X107185452Y-58281632D01*
X107547784Y-58339019D01*
X107914137Y-58358220D01*
X107914139Y-58358220D01*
X108280491Y-58339019D01*
X108642822Y-58281632D01*
X108642824Y-58281632D01*
X108997189Y-58186680D01*
X109339673Y-58055212D01*
X109666544Y-57888662D01*
X109974203Y-57688867D01*
X110168215Y-57531758D01*
X109186930Y-56550473D01*
X109356296Y-56550473D01*
X109375699Y-56648018D01*
X109430954Y-56730713D01*
X109513649Y-56785968D01*
X109586570Y-56800473D01*
X109635818Y-56800473D01*
X109708739Y-56785968D01*
X109791434Y-56730713D01*
X109846689Y-56648018D01*
X109866092Y-56550473D01*
X109846689Y-56452928D01*
X109791434Y-56370233D01*
X109708739Y-56314978D01*
X109635818Y-56300473D01*
X109586570Y-56300473D01*
X109513649Y-56314978D01*
X109430954Y-56370233D01*
X109375699Y-56452928D01*
X109356296Y-56550473D01*
X109186930Y-56550473D01*
X108814596Y-56178139D01*
X108857503Y-56151847D01*
X109049008Y-55988287D01*
X109212568Y-55796782D01*
X109238860Y-55753875D01*
X110592479Y-57107494D01*
X110749588Y-56913482D01*
X110949383Y-56605823D01*
X111115933Y-56278952D01*
X111247401Y-55936468D01*
X111342353Y-55582103D01*
X111342353Y-55582101D01*
X111399740Y-55219770D01*
X111418941Y-54853417D01*
X187709335Y-54853417D01*
X187728535Y-55219770D01*
X187785922Y-55582101D01*
X187785922Y-55582103D01*
X187880874Y-55936468D01*
X188012342Y-56278952D01*
X188178892Y-56605823D01*
X188378687Y-56913481D01*
X188535796Y-57107493D01*
X189092816Y-56550473D01*
X189262184Y-56550473D01*
X189281587Y-56648018D01*
X189336842Y-56730713D01*
X189419537Y-56785968D01*
X189492458Y-56800473D01*
X189541706Y-56800473D01*
X189614627Y-56785968D01*
X189697322Y-56730713D01*
X189752577Y-56648018D01*
X189771980Y-56550473D01*
X189752577Y-56452928D01*
X189697322Y-56370233D01*
X189614627Y-56314978D01*
X189541706Y-56300473D01*
X189492458Y-56300473D01*
X189419537Y-56314978D01*
X189336842Y-56370233D01*
X189281587Y-56452928D01*
X189262184Y-56550473D01*
X189092816Y-56550473D01*
X189889414Y-55753875D01*
X189915708Y-55796782D01*
X190079268Y-55988287D01*
X190270773Y-56151847D01*
X190313678Y-56178139D01*
X188960060Y-57531758D01*
X189154062Y-57688859D01*
X189154075Y-57688868D01*
X189461731Y-57888662D01*
X189788602Y-58055212D01*
X190131086Y-58186680D01*
X190485452Y-58281632D01*
X190847784Y-58339019D01*
X191214137Y-58358220D01*
X191214139Y-58358220D01*
X191580491Y-58339019D01*
X191942822Y-58281632D01*
X191942824Y-58281632D01*
X192297189Y-58186680D01*
X192639673Y-58055212D01*
X192966544Y-57888662D01*
X193274203Y-57688867D01*
X193468215Y-57531758D01*
X192486930Y-56550473D01*
X192656296Y-56550473D01*
X192675699Y-56648018D01*
X192730954Y-56730713D01*
X192813649Y-56785968D01*
X192886570Y-56800473D01*
X192935818Y-56800473D01*
X193008739Y-56785968D01*
X193091434Y-56730713D01*
X193146689Y-56648018D01*
X193166092Y-56550473D01*
X193146689Y-56452928D01*
X193091434Y-56370233D01*
X193008739Y-56314978D01*
X192935818Y-56300473D01*
X192886570Y-56300473D01*
X192813649Y-56314978D01*
X192730954Y-56370233D01*
X192675699Y-56452928D01*
X192656296Y-56550473D01*
X192486930Y-56550473D01*
X192114596Y-56178139D01*
X192157503Y-56151847D01*
X192349008Y-55988287D01*
X192512568Y-55796782D01*
X192538860Y-55753875D01*
X193892479Y-57107494D01*
X194049588Y-56913482D01*
X194249383Y-56605823D01*
X194415933Y-56278952D01*
X194547401Y-55936468D01*
X194642353Y-55582103D01*
X194642353Y-55582101D01*
X194699740Y-55219770D01*
X194718941Y-54853417D01*
X194718941Y-54853416D01*
X194699740Y-54487063D01*
X194642353Y-54124732D01*
X194642353Y-54124730D01*
X194547401Y-53770365D01*
X194415933Y-53427881D01*
X194249383Y-53101011D01*
X194049588Y-52793352D01*
X193892478Y-52599339D01*
X192538860Y-53952957D01*
X192512568Y-53910052D01*
X192349008Y-53718547D01*
X192157503Y-53554987D01*
X192114596Y-53528694D01*
X192486929Y-53156361D01*
X192656296Y-53156361D01*
X192675699Y-53253906D01*
X192730954Y-53336601D01*
X192813649Y-53391856D01*
X192886570Y-53406361D01*
X192935818Y-53406361D01*
X193008739Y-53391856D01*
X193091434Y-53336601D01*
X193146689Y-53253906D01*
X193166092Y-53156361D01*
X193146689Y-53058816D01*
X193091434Y-52976121D01*
X193008739Y-52920866D01*
X192935818Y-52906361D01*
X192886570Y-52906361D01*
X192813649Y-52920866D01*
X192730954Y-52976121D01*
X192675699Y-53058816D01*
X192656296Y-53156361D01*
X192486929Y-53156361D01*
X193468215Y-52175075D01*
X193274202Y-52017966D01*
X192966544Y-51818171D01*
X192639673Y-51651621D01*
X192297189Y-51520153D01*
X191942823Y-51425201D01*
X191580491Y-51367814D01*
X191214139Y-51348614D01*
X191214137Y-51348614D01*
X190847784Y-51367814D01*
X190485453Y-51425201D01*
X190485451Y-51425201D01*
X190131086Y-51520153D01*
X189788602Y-51651621D01*
X189461732Y-51818171D01*
X189154067Y-52017970D01*
X188960060Y-52175075D01*
X190313679Y-53528694D01*
X190270773Y-53554987D01*
X190079268Y-53718547D01*
X189915708Y-53910052D01*
X189889415Y-53952958D01*
X189092818Y-53156361D01*
X189262184Y-53156361D01*
X189281587Y-53253906D01*
X189336842Y-53336601D01*
X189419537Y-53391856D01*
X189492458Y-53406361D01*
X189541706Y-53406361D01*
X189614627Y-53391856D01*
X189697322Y-53336601D01*
X189752577Y-53253906D01*
X189771980Y-53156361D01*
X189752577Y-53058816D01*
X189697322Y-52976121D01*
X189614627Y-52920866D01*
X189541706Y-52906361D01*
X189492458Y-52906361D01*
X189419537Y-52920866D01*
X189336842Y-52976121D01*
X189281587Y-53058816D01*
X189262184Y-53156361D01*
X189092818Y-53156361D01*
X188535796Y-52599339D01*
X188378691Y-52793346D01*
X188178892Y-53101011D01*
X188012342Y-53427881D01*
X187880874Y-53770365D01*
X187785922Y-54124730D01*
X187785922Y-54124732D01*
X187728535Y-54487063D01*
X187709335Y-54853416D01*
X187709335Y-54853417D01*
X111418941Y-54853417D01*
X111418941Y-54853416D01*
X111399740Y-54487063D01*
X111342353Y-54124732D01*
X111342353Y-54124730D01*
X111247401Y-53770365D01*
X111115933Y-53427881D01*
X110949383Y-53101011D01*
X110749588Y-52793352D01*
X110592478Y-52599339D01*
X109238860Y-53952957D01*
X109212568Y-53910052D01*
X109049008Y-53718547D01*
X108857503Y-53554987D01*
X108814596Y-53528694D01*
X109186929Y-53156361D01*
X109356296Y-53156361D01*
X109375699Y-53253906D01*
X109430954Y-53336601D01*
X109513649Y-53391856D01*
X109586570Y-53406361D01*
X109635818Y-53406361D01*
X109708739Y-53391856D01*
X109791434Y-53336601D01*
X109846689Y-53253906D01*
X109866092Y-53156361D01*
X109846689Y-53058816D01*
X109791434Y-52976121D01*
X109708739Y-52920866D01*
X109635818Y-52906361D01*
X109586570Y-52906361D01*
X109513649Y-52920866D01*
X109430954Y-52976121D01*
X109375699Y-53058816D01*
X109356296Y-53156361D01*
X109186929Y-53156361D01*
X110168215Y-52175075D01*
X109974202Y-52017966D01*
X109666544Y-51818171D01*
X109339673Y-51651621D01*
X108997189Y-51520153D01*
X108642823Y-51425201D01*
X108280491Y-51367814D01*
X107914139Y-51348614D01*
X107914137Y-51348614D01*
X107547784Y-51367814D01*
X107185453Y-51425201D01*
X107185451Y-51425201D01*
X106831086Y-51520153D01*
X106488602Y-51651621D01*
X106161732Y-51818171D01*
X105854067Y-52017970D01*
X105660060Y-52175075D01*
X107013679Y-53528694D01*
X106970773Y-53554987D01*
X106779268Y-53718547D01*
X106615708Y-53910052D01*
X106589415Y-53952958D01*
X105792818Y-53156361D01*
X105962184Y-53156361D01*
X105981587Y-53253906D01*
X106036842Y-53336601D01*
X106119537Y-53391856D01*
X106192458Y-53406361D01*
X106241706Y-53406361D01*
X106314627Y-53391856D01*
X106397322Y-53336601D01*
X106452577Y-53253906D01*
X106471980Y-53156361D01*
X106452577Y-53058816D01*
X106397322Y-52976121D01*
X106314627Y-52920866D01*
X106241706Y-52906361D01*
X106192458Y-52906361D01*
X106119537Y-52920866D01*
X106036842Y-52976121D01*
X105981587Y-53058816D01*
X105962184Y-53156361D01*
X105792818Y-53156361D01*
X105235796Y-52599339D01*
X105078691Y-52793346D01*
X104878892Y-53101011D01*
X104712342Y-53427881D01*
X104580874Y-53770365D01*
X104485922Y-54124730D01*
X104485922Y-54124732D01*
X104428535Y-54487063D01*
X104409335Y-54853416D01*
X104409335Y-54853417D01*
X102864638Y-54853417D01*
X102864638Y-52469309D01*
X102864639Y-52469306D01*
X102864638Y-52407162D01*
X102864864Y-52399676D01*
X102866826Y-52367236D01*
X102882408Y-52109616D01*
X102884213Y-52094755D01*
X102898284Y-52017970D01*
X102935917Y-51812604D01*
X102939495Y-51798093D01*
X103024830Y-51524238D01*
X103030132Y-51510258D01*
X103147864Y-51248667D01*
X103154809Y-51235435D01*
X103303213Y-50989945D01*
X103311700Y-50977649D01*
X103488610Y-50751841D01*
X103498523Y-50740651D01*
X103701363Y-50537813D01*
X103712555Y-50527898D01*
X103938362Y-50350991D01*
X103950667Y-50342498D01*
X104196144Y-50194105D01*
X104209388Y-50187153D01*
X104470959Y-50069432D01*
X104484947Y-50064127D01*
X104758819Y-49978787D01*
X104773332Y-49975211D01*
X105055478Y-49923509D01*
X105070328Y-49921706D01*
X105360742Y-49904142D01*
X105368226Y-49903917D01*
X105430024Y-49903918D01*
X105430028Y-49903917D01*
X193760378Y-49903917D01*
X193767867Y-49904143D01*
G37*
G04 #@! TD.AperFunction*
M02*
