G04 #@! TF.GenerationSoftware,KiCad,Pcbnew,7.0.10-7.0.10~ubuntu22.04.1*
G04 #@! TF.CreationDate,2024-01-08T19:12:50+01:00*
G04 #@! TF.ProjectId,Geiger Counter Mainboard,47656967-6572-4204-936f-756e74657220,1.0*
G04 #@! TF.SameCoordinates,Original*
G04 #@! TF.FileFunction,Soldermask,Bot*
G04 #@! TF.FilePolarity,Negative*
%FSLAX46Y46*%
G04 Gerber Fmt 4.6, Leading zero omitted, Abs format (unit mm)*
G04 Created by KiCad (PCBNEW 7.0.10-7.0.10~ubuntu22.04.1) date 2024-01-08 19:12:50*
%MOMM*%
%LPD*%
G01*
G04 APERTURE LIST*
G04 APERTURE END LIST*
G36*
X107999004Y-140758183D02*
G01*
X108087377Y-140758183D01*
X108181731Y-140768444D01*
X108272424Y-140773538D01*
X108350435Y-140786792D01*
X108431830Y-140795645D01*
X108530965Y-140817466D01*
X108626205Y-140833648D01*
X108696544Y-140853912D01*
X108770205Y-140870126D01*
X108872712Y-140904665D01*
X108971031Y-140932990D01*
X109033183Y-140958734D01*
X109098555Y-140980761D01*
X109202853Y-141029014D01*
X109302566Y-141070317D01*
X109356206Y-141099963D01*
X109413012Y-141126244D01*
X109517381Y-141189041D01*
X109616641Y-141243900D01*
X109661737Y-141275897D01*
X109709893Y-141304872D01*
X109812459Y-141382840D01*
X109909305Y-141451556D01*
X109946046Y-141484389D01*
X109985728Y-141514555D01*
X110084550Y-141608164D01*
X110176880Y-141690675D01*
X110205691Y-141722915D01*
X110237269Y-141752827D01*
X110330311Y-141862365D01*
X110415999Y-141958250D01*
X110437521Y-141988583D01*
X110461574Y-142016900D01*
X110546772Y-142142557D01*
X110623655Y-142250914D01*
X110638714Y-142278162D01*
X110656018Y-142303683D01*
X110731335Y-142445746D01*
X110797238Y-142564989D01*
X110806829Y-142588144D01*
X110818312Y-142609803D01*
X110881723Y-142768953D01*
X110934565Y-142896524D01*
X110939820Y-142914767D01*
X110946557Y-142931674D01*
X110996156Y-143110313D01*
X111033907Y-143241350D01*
X111036064Y-143254050D01*
X111039253Y-143265533D01*
X111073244Y-143472874D01*
X111094017Y-143595131D01*
X111094397Y-143601898D01*
X111095305Y-143607437D01*
X111111994Y-143915255D01*
X111114138Y-143953417D01*
X111111994Y-143991581D01*
X111095305Y-144299396D01*
X111094397Y-144304933D01*
X111094017Y-144311703D01*
X111073240Y-144433986D01*
X111039253Y-144641300D01*
X111036065Y-144652780D01*
X111033907Y-144665484D01*
X110996148Y-144796547D01*
X110946557Y-144975159D01*
X110939821Y-144992063D01*
X110934565Y-145010310D01*
X110881712Y-145137906D01*
X110818312Y-145297030D01*
X110806831Y-145318685D01*
X110797238Y-145341845D01*
X110731322Y-145461111D01*
X110656018Y-145603150D01*
X110638717Y-145628665D01*
X110623655Y-145655920D01*
X110546756Y-145764297D01*
X110461574Y-145889933D01*
X110437525Y-145918244D01*
X110415999Y-145948584D01*
X110330294Y-146044488D01*
X110237269Y-146154006D01*
X110205697Y-146183911D01*
X110176880Y-146216159D01*
X110084531Y-146298686D01*
X109985728Y-146392278D01*
X109946053Y-146422437D01*
X109909305Y-146455278D01*
X109812439Y-146524007D01*
X109709893Y-146601961D01*
X109661747Y-146630929D01*
X109616641Y-146662934D01*
X109517360Y-146717804D01*
X109413012Y-146780589D01*
X109356217Y-146806864D01*
X109302566Y-146836517D01*
X109202832Y-146877828D01*
X109098555Y-146926072D01*
X109033196Y-146948093D01*
X108971031Y-146973844D01*
X108872692Y-147002174D01*
X108770205Y-147036707D01*
X108696558Y-147052917D01*
X108626205Y-147073186D01*
X108530945Y-147089371D01*
X108431830Y-147111188D01*
X108350447Y-147120039D01*
X108272424Y-147133296D01*
X108181726Y-147138389D01*
X108087377Y-147148651D01*
X107999004Y-147148651D01*
X107914138Y-147153417D01*
X107829272Y-147148651D01*
X107740899Y-147148651D01*
X107646549Y-147138389D01*
X107555852Y-147133296D01*
X107477829Y-147120039D01*
X107396445Y-147111188D01*
X107297325Y-147089370D01*
X107202071Y-147073186D01*
X107131720Y-147052918D01*
X107058070Y-147036707D01*
X106955576Y-147002172D01*
X106857245Y-146973844D01*
X106795083Y-146948095D01*
X106729720Y-146926072D01*
X106625433Y-146877824D01*
X106525710Y-146836517D01*
X106472063Y-146806867D01*
X106415263Y-146780589D01*
X106310902Y-146717797D01*
X106211635Y-146662934D01*
X106166534Y-146630933D01*
X106118382Y-146601961D01*
X106015821Y-146523997D01*
X105918971Y-146455278D01*
X105882227Y-146422442D01*
X105842547Y-146392278D01*
X105743726Y-146298670D01*
X105651396Y-146216159D01*
X105622583Y-146183918D01*
X105591006Y-146154006D01*
X105497961Y-146044465D01*
X105412277Y-145948584D01*
X105390755Y-145918252D01*
X105366701Y-145889933D01*
X105281496Y-145764266D01*
X105204621Y-145655920D01*
X105189562Y-145628673D01*
X105172257Y-145603150D01*
X105096929Y-145461066D01*
X105031038Y-145341845D01*
X105021448Y-145318694D01*
X105009963Y-145297030D01*
X104946537Y-145137842D01*
X104893711Y-145010310D01*
X104888456Y-144992072D01*
X104881718Y-144975159D01*
X104832099Y-144796451D01*
X104794369Y-144665484D01*
X104792212Y-144652789D01*
X104789022Y-144641300D01*
X104755007Y-144433818D01*
X104734259Y-144311703D01*
X104733879Y-144304942D01*
X104732970Y-144299396D01*
X104716252Y-143991065D01*
X104714138Y-143953417D01*
X104716252Y-143915771D01*
X104732970Y-143607437D01*
X104733879Y-143601889D01*
X104734259Y-143595131D01*
X104755002Y-143473042D01*
X104789022Y-143265533D01*
X104792212Y-143254041D01*
X104794369Y-143241350D01*
X104832092Y-143110409D01*
X104881718Y-142931674D01*
X104888457Y-142914758D01*
X104893711Y-142896524D01*
X104946526Y-142769016D01*
X105009963Y-142609803D01*
X105021450Y-142588135D01*
X105031038Y-142564989D01*
X105096916Y-142445790D01*
X105172257Y-142303683D01*
X105189565Y-142278154D01*
X105204621Y-142250914D01*
X105281481Y-142142589D01*
X105366701Y-142016900D01*
X105390759Y-141988575D01*
X105412277Y-141958250D01*
X105497944Y-141862387D01*
X105591006Y-141752827D01*
X105622589Y-141722909D01*
X105651396Y-141690675D01*
X105743707Y-141608180D01*
X105842547Y-141514555D01*
X105882235Y-141484384D01*
X105918971Y-141451556D01*
X106015801Y-141382850D01*
X106118382Y-141304872D01*
X106166543Y-141275894D01*
X106211635Y-141243900D01*
X106310882Y-141189047D01*
X106415263Y-141126244D01*
X106472074Y-141099960D01*
X106525710Y-141070317D01*
X106625413Y-141029018D01*
X106729720Y-140980761D01*
X106795096Y-140958732D01*
X106857245Y-140932990D01*
X106955556Y-140904667D01*
X107058070Y-140870126D01*
X107131734Y-140853911D01*
X107202071Y-140833648D01*
X107297305Y-140817466D01*
X107396445Y-140795645D01*
X107477842Y-140786792D01*
X107555852Y-140773538D01*
X107646544Y-140768444D01*
X107740899Y-140758183D01*
X107829272Y-140758183D01*
X107914138Y-140753417D01*
X107999004Y-140758183D01*
G37*
G36*
X191299004Y-140758183D02*
G01*
X191387377Y-140758183D01*
X191481731Y-140768444D01*
X191572424Y-140773538D01*
X191650435Y-140786792D01*
X191731830Y-140795645D01*
X191830965Y-140817466D01*
X191926205Y-140833648D01*
X191996544Y-140853912D01*
X192070205Y-140870126D01*
X192172712Y-140904665D01*
X192271031Y-140932990D01*
X192333183Y-140958734D01*
X192398555Y-140980761D01*
X192502853Y-141029014D01*
X192602566Y-141070317D01*
X192656206Y-141099963D01*
X192713012Y-141126244D01*
X192817381Y-141189041D01*
X192916641Y-141243900D01*
X192961737Y-141275897D01*
X193009893Y-141304872D01*
X193112459Y-141382840D01*
X193209305Y-141451556D01*
X193246046Y-141484389D01*
X193285728Y-141514555D01*
X193384550Y-141608164D01*
X193476880Y-141690675D01*
X193505691Y-141722915D01*
X193537269Y-141752827D01*
X193630311Y-141862365D01*
X193715999Y-141958250D01*
X193737521Y-141988583D01*
X193761574Y-142016900D01*
X193846772Y-142142557D01*
X193923655Y-142250914D01*
X193938714Y-142278162D01*
X193956018Y-142303683D01*
X194031335Y-142445746D01*
X194097238Y-142564989D01*
X194106829Y-142588144D01*
X194118312Y-142609803D01*
X194181723Y-142768953D01*
X194234565Y-142896524D01*
X194239820Y-142914767D01*
X194246557Y-142931674D01*
X194296156Y-143110313D01*
X194333907Y-143241350D01*
X194336064Y-143254050D01*
X194339253Y-143265533D01*
X194373244Y-143472874D01*
X194394017Y-143595131D01*
X194394397Y-143601898D01*
X194395305Y-143607437D01*
X194411994Y-143915255D01*
X194414138Y-143953417D01*
X194411994Y-143991581D01*
X194395305Y-144299396D01*
X194394397Y-144304933D01*
X194394017Y-144311703D01*
X194373240Y-144433986D01*
X194339253Y-144641300D01*
X194336065Y-144652780D01*
X194333907Y-144665484D01*
X194296148Y-144796547D01*
X194246557Y-144975159D01*
X194239821Y-144992063D01*
X194234565Y-145010310D01*
X194181712Y-145137906D01*
X194118312Y-145297030D01*
X194106831Y-145318685D01*
X194097238Y-145341845D01*
X194031322Y-145461111D01*
X193956018Y-145603150D01*
X193938717Y-145628665D01*
X193923655Y-145655920D01*
X193846756Y-145764297D01*
X193761574Y-145889933D01*
X193737525Y-145918244D01*
X193715999Y-145948584D01*
X193630294Y-146044488D01*
X193537269Y-146154006D01*
X193505697Y-146183911D01*
X193476880Y-146216159D01*
X193384531Y-146298686D01*
X193285728Y-146392278D01*
X193246053Y-146422437D01*
X193209305Y-146455278D01*
X193112439Y-146524007D01*
X193009893Y-146601961D01*
X192961747Y-146630929D01*
X192916641Y-146662934D01*
X192817360Y-146717804D01*
X192713012Y-146780589D01*
X192656217Y-146806864D01*
X192602566Y-146836517D01*
X192502832Y-146877828D01*
X192398555Y-146926072D01*
X192333196Y-146948093D01*
X192271031Y-146973844D01*
X192172692Y-147002174D01*
X192070205Y-147036707D01*
X191996558Y-147052917D01*
X191926205Y-147073186D01*
X191830945Y-147089371D01*
X191731830Y-147111188D01*
X191650447Y-147120039D01*
X191572424Y-147133296D01*
X191481726Y-147138389D01*
X191387377Y-147148651D01*
X191299004Y-147148651D01*
X191214138Y-147153417D01*
X191129272Y-147148651D01*
X191040899Y-147148651D01*
X190946549Y-147138389D01*
X190855852Y-147133296D01*
X190777829Y-147120039D01*
X190696445Y-147111188D01*
X190597325Y-147089370D01*
X190502071Y-147073186D01*
X190431720Y-147052918D01*
X190358070Y-147036707D01*
X190255576Y-147002172D01*
X190157245Y-146973844D01*
X190095083Y-146948095D01*
X190029720Y-146926072D01*
X189925433Y-146877824D01*
X189825710Y-146836517D01*
X189772063Y-146806867D01*
X189715263Y-146780589D01*
X189610902Y-146717797D01*
X189511635Y-146662934D01*
X189466534Y-146630933D01*
X189418382Y-146601961D01*
X189315821Y-146523997D01*
X189218971Y-146455278D01*
X189182227Y-146422442D01*
X189142547Y-146392278D01*
X189043726Y-146298670D01*
X188951396Y-146216159D01*
X188922583Y-146183918D01*
X188891006Y-146154006D01*
X188797961Y-146044465D01*
X188712277Y-145948584D01*
X188690755Y-145918252D01*
X188666701Y-145889933D01*
X188581496Y-145764266D01*
X188504621Y-145655920D01*
X188489562Y-145628673D01*
X188472257Y-145603150D01*
X188396929Y-145461066D01*
X188331038Y-145341845D01*
X188321448Y-145318694D01*
X188309963Y-145297030D01*
X188246537Y-145137842D01*
X188193711Y-145010310D01*
X188188456Y-144992072D01*
X188181718Y-144975159D01*
X188132099Y-144796451D01*
X188094369Y-144665484D01*
X188092212Y-144652789D01*
X188089022Y-144641300D01*
X188055007Y-144433818D01*
X188034259Y-144311703D01*
X188033879Y-144304942D01*
X188032970Y-144299396D01*
X188016252Y-143991065D01*
X188014138Y-143953417D01*
X188016252Y-143915771D01*
X188032970Y-143607437D01*
X188033879Y-143601889D01*
X188034259Y-143595131D01*
X188055002Y-143473042D01*
X188089022Y-143265533D01*
X188092212Y-143254041D01*
X188094369Y-143241350D01*
X188132092Y-143110409D01*
X188181718Y-142931674D01*
X188188457Y-142914758D01*
X188193711Y-142896524D01*
X188246526Y-142769016D01*
X188309963Y-142609803D01*
X188321450Y-142588135D01*
X188331038Y-142564989D01*
X188396916Y-142445790D01*
X188472257Y-142303683D01*
X188489565Y-142278154D01*
X188504621Y-142250914D01*
X188581481Y-142142589D01*
X188666701Y-142016900D01*
X188690759Y-141988575D01*
X188712277Y-141958250D01*
X188797944Y-141862387D01*
X188891006Y-141752827D01*
X188922589Y-141722909D01*
X188951396Y-141690675D01*
X189043707Y-141608180D01*
X189142547Y-141514555D01*
X189182235Y-141484384D01*
X189218971Y-141451556D01*
X189315801Y-141382850D01*
X189418382Y-141304872D01*
X189466543Y-141275894D01*
X189511635Y-141243900D01*
X189610882Y-141189047D01*
X189715263Y-141126244D01*
X189772074Y-141099960D01*
X189825710Y-141070317D01*
X189925413Y-141029018D01*
X190029720Y-140980761D01*
X190095096Y-140958732D01*
X190157245Y-140932990D01*
X190255556Y-140904667D01*
X190358070Y-140870126D01*
X190431734Y-140853911D01*
X190502071Y-140833648D01*
X190597305Y-140817466D01*
X190696445Y-140795645D01*
X190777842Y-140786792D01*
X190855852Y-140773538D01*
X190946544Y-140768444D01*
X191040899Y-140758183D01*
X191129272Y-140758183D01*
X191214138Y-140753417D01*
X191299004Y-140758183D01*
G37*
G36*
X154224138Y-146773417D02*
G01*
X152524138Y-146773417D01*
X152524138Y-145073417D01*
X154224138Y-145073417D01*
X154224138Y-146773417D01*
G37*
G36*
X174334138Y-146773417D02*
G01*
X172634138Y-146773417D01*
X172634138Y-145073417D01*
X174334138Y-145073417D01*
X174334138Y-146773417D01*
G37*
G36*
X184494138Y-146773417D02*
G01*
X182794138Y-146773417D01*
X182794138Y-145073417D01*
X184494138Y-145073417D01*
X184494138Y-146773417D01*
G37*
G36*
X146016802Y-145115019D02*
G01*
X146179138Y-145187295D01*
X146322899Y-145291744D01*
X146441802Y-145423800D01*
X146530652Y-145577691D01*
X146585563Y-145746692D01*
X146604138Y-145923417D01*
X146585563Y-146100142D01*
X146530652Y-146269143D01*
X146441802Y-146423034D01*
X146322899Y-146555090D01*
X146179138Y-146659539D01*
X146016802Y-146731815D01*
X145842987Y-146768761D01*
X145665289Y-146768761D01*
X145491474Y-146731815D01*
X145329138Y-146659539D01*
X145185377Y-146555090D01*
X145066474Y-146423034D01*
X144977624Y-146269143D01*
X144922713Y-146100142D01*
X144904138Y-145923417D01*
X144922713Y-145746692D01*
X144977624Y-145577691D01*
X145066474Y-145423800D01*
X145185377Y-145291744D01*
X145329138Y-145187295D01*
X145491474Y-145115019D01*
X145665289Y-145078073D01*
X145842987Y-145078073D01*
X146016802Y-145115019D01*
G37*
G36*
X148556802Y-145115019D02*
G01*
X148719138Y-145187295D01*
X148862899Y-145291744D01*
X148981802Y-145423800D01*
X149070652Y-145577691D01*
X149125563Y-145746692D01*
X149144138Y-145923417D01*
X149125563Y-146100142D01*
X149070652Y-146269143D01*
X148981802Y-146423034D01*
X148862899Y-146555090D01*
X148719138Y-146659539D01*
X148556802Y-146731815D01*
X148382987Y-146768761D01*
X148205289Y-146768761D01*
X148031474Y-146731815D01*
X147869138Y-146659539D01*
X147725377Y-146555090D01*
X147606474Y-146423034D01*
X147517624Y-146269143D01*
X147462713Y-146100142D01*
X147444138Y-145923417D01*
X147462713Y-145746692D01*
X147517624Y-145577691D01*
X147606474Y-145423800D01*
X147725377Y-145291744D01*
X147869138Y-145187295D01*
X148031474Y-145115019D01*
X148205289Y-145078073D01*
X148382987Y-145078073D01*
X148556802Y-145115019D01*
G37*
G36*
X151096802Y-145115019D02*
G01*
X151259138Y-145187295D01*
X151402899Y-145291744D01*
X151521802Y-145423800D01*
X151610652Y-145577691D01*
X151665563Y-145746692D01*
X151684138Y-145923417D01*
X151665563Y-146100142D01*
X151610652Y-146269143D01*
X151521802Y-146423034D01*
X151402899Y-146555090D01*
X151259138Y-146659539D01*
X151096802Y-146731815D01*
X150922987Y-146768761D01*
X150745289Y-146768761D01*
X150571474Y-146731815D01*
X150409138Y-146659539D01*
X150265377Y-146555090D01*
X150146474Y-146423034D01*
X150057624Y-146269143D01*
X150002713Y-146100142D01*
X149984138Y-145923417D01*
X150002713Y-145746692D01*
X150057624Y-145577691D01*
X150146474Y-145423800D01*
X150265377Y-145291744D01*
X150409138Y-145187295D01*
X150571474Y-145115019D01*
X150745289Y-145078073D01*
X150922987Y-145078073D01*
X151096802Y-145115019D01*
G37*
G36*
X168666802Y-145115019D02*
G01*
X168829138Y-145187295D01*
X168972899Y-145291744D01*
X169091802Y-145423800D01*
X169180652Y-145577691D01*
X169235563Y-145746692D01*
X169254138Y-145923417D01*
X169235563Y-146100142D01*
X169180652Y-146269143D01*
X169091802Y-146423034D01*
X168972899Y-146555090D01*
X168829138Y-146659539D01*
X168666802Y-146731815D01*
X168492987Y-146768761D01*
X168315289Y-146768761D01*
X168141474Y-146731815D01*
X167979138Y-146659539D01*
X167835377Y-146555090D01*
X167716474Y-146423034D01*
X167627624Y-146269143D01*
X167572713Y-146100142D01*
X167554138Y-145923417D01*
X167572713Y-145746692D01*
X167627624Y-145577691D01*
X167716474Y-145423800D01*
X167835377Y-145291744D01*
X167979138Y-145187295D01*
X168141474Y-145115019D01*
X168315289Y-145078073D01*
X168492987Y-145078073D01*
X168666802Y-145115019D01*
G37*
G36*
X171206802Y-145115019D02*
G01*
X171369138Y-145187295D01*
X171512899Y-145291744D01*
X171631802Y-145423800D01*
X171720652Y-145577691D01*
X171775563Y-145746692D01*
X171794138Y-145923417D01*
X171775563Y-146100142D01*
X171720652Y-146269143D01*
X171631802Y-146423034D01*
X171512899Y-146555090D01*
X171369138Y-146659539D01*
X171206802Y-146731815D01*
X171032987Y-146768761D01*
X170855289Y-146768761D01*
X170681474Y-146731815D01*
X170519138Y-146659539D01*
X170375377Y-146555090D01*
X170256474Y-146423034D01*
X170167624Y-146269143D01*
X170112713Y-146100142D01*
X170094138Y-145923417D01*
X170112713Y-145746692D01*
X170167624Y-145577691D01*
X170256474Y-145423800D01*
X170375377Y-145291744D01*
X170519138Y-145187295D01*
X170681474Y-145115019D01*
X170855289Y-145078073D01*
X171032987Y-145078073D01*
X171206802Y-145115019D01*
G37*
G36*
X178826802Y-145115019D02*
G01*
X178989138Y-145187295D01*
X179132899Y-145291744D01*
X179251802Y-145423800D01*
X179340652Y-145577691D01*
X179395563Y-145746692D01*
X179414138Y-145923417D01*
X179395563Y-146100142D01*
X179340652Y-146269143D01*
X179251802Y-146423034D01*
X179132899Y-146555090D01*
X178989138Y-146659539D01*
X178826802Y-146731815D01*
X178652987Y-146768761D01*
X178475289Y-146768761D01*
X178301474Y-146731815D01*
X178139138Y-146659539D01*
X177995377Y-146555090D01*
X177876474Y-146423034D01*
X177787624Y-146269143D01*
X177732713Y-146100142D01*
X177714138Y-145923417D01*
X177732713Y-145746692D01*
X177787624Y-145577691D01*
X177876474Y-145423800D01*
X177995377Y-145291744D01*
X178139138Y-145187295D01*
X178301474Y-145115019D01*
X178475289Y-145078073D01*
X178652987Y-145078073D01*
X178826802Y-145115019D01*
G37*
G36*
X181366802Y-145115019D02*
G01*
X181529138Y-145187295D01*
X181672899Y-145291744D01*
X181791802Y-145423800D01*
X181880652Y-145577691D01*
X181935563Y-145746692D01*
X181954138Y-145923417D01*
X181935563Y-146100142D01*
X181880652Y-146269143D01*
X181791802Y-146423034D01*
X181672899Y-146555090D01*
X181529138Y-146659539D01*
X181366802Y-146731815D01*
X181192987Y-146768761D01*
X181015289Y-146768761D01*
X180841474Y-146731815D01*
X180679138Y-146659539D01*
X180535377Y-146555090D01*
X180416474Y-146423034D01*
X180327624Y-146269143D01*
X180272713Y-146100142D01*
X180254138Y-145923417D01*
X180272713Y-145746692D01*
X180327624Y-145577691D01*
X180416474Y-145423800D01*
X180535377Y-145291744D01*
X180679138Y-145187295D01*
X180841474Y-145115019D01*
X181015289Y-145078073D01*
X181192987Y-145078073D01*
X181366802Y-145115019D01*
G37*
G36*
X133694138Y-143253417D02*
G01*
X131994138Y-143253417D01*
X131994138Y-141553417D01*
X133694138Y-141553417D01*
X133694138Y-143253417D01*
G37*
G36*
X130566802Y-141595019D02*
G01*
X130729138Y-141667295D01*
X130872899Y-141771744D01*
X130991802Y-141903800D01*
X131080652Y-142057691D01*
X131135563Y-142226692D01*
X131154138Y-142403417D01*
X131135563Y-142580142D01*
X131080652Y-142749143D01*
X130991802Y-142903034D01*
X130872899Y-143035090D01*
X130729138Y-143139539D01*
X130566802Y-143211815D01*
X130392987Y-143248761D01*
X130215289Y-143248761D01*
X130041474Y-143211815D01*
X129879138Y-143139539D01*
X129735377Y-143035090D01*
X129616474Y-142903034D01*
X129527624Y-142749143D01*
X129472713Y-142580142D01*
X129454138Y-142403417D01*
X129472713Y-142226692D01*
X129527624Y-142057691D01*
X129616474Y-141903800D01*
X129735377Y-141771744D01*
X129879138Y-141667295D01*
X130041474Y-141595019D01*
X130215289Y-141558073D01*
X130392987Y-141558073D01*
X130566802Y-141595019D01*
G37*
G36*
X106906802Y-134895019D02*
G01*
X107069138Y-134967295D01*
X107212899Y-135071744D01*
X107331802Y-135203800D01*
X107420652Y-135357691D01*
X107475563Y-135526692D01*
X107494138Y-135703417D01*
X107475563Y-135880142D01*
X107420652Y-136049143D01*
X107331802Y-136203034D01*
X107212899Y-136335090D01*
X107069138Y-136439539D01*
X106906802Y-136511815D01*
X106732987Y-136548761D01*
X106555289Y-136548761D01*
X106381474Y-136511815D01*
X106219138Y-136439539D01*
X106075377Y-136335090D01*
X105956474Y-136203034D01*
X105867624Y-136049143D01*
X105812713Y-135880142D01*
X105794138Y-135703417D01*
X105812713Y-135526692D01*
X105867624Y-135357691D01*
X105956474Y-135203800D01*
X106075377Y-135071744D01*
X106219138Y-134967295D01*
X106381474Y-134895019D01*
X106555289Y-134858073D01*
X106732987Y-134858073D01*
X106906802Y-134895019D01*
G37*
G36*
X109446802Y-134895019D02*
G01*
X109609138Y-134967295D01*
X109752899Y-135071744D01*
X109871802Y-135203800D01*
X109960652Y-135357691D01*
X110015563Y-135526692D01*
X110034138Y-135703417D01*
X110015563Y-135880142D01*
X109960652Y-136049143D01*
X109871802Y-136203034D01*
X109752899Y-136335090D01*
X109609138Y-136439539D01*
X109446802Y-136511815D01*
X109272987Y-136548761D01*
X109095289Y-136548761D01*
X108921474Y-136511815D01*
X108759138Y-136439539D01*
X108615377Y-136335090D01*
X108496474Y-136203034D01*
X108407624Y-136049143D01*
X108352713Y-135880142D01*
X108334138Y-135703417D01*
X108352713Y-135526692D01*
X108407624Y-135357691D01*
X108496474Y-135203800D01*
X108615377Y-135071744D01*
X108759138Y-134967295D01*
X108921474Y-134895019D01*
X109095289Y-134858073D01*
X109272987Y-134858073D01*
X109446802Y-134895019D01*
G37*
G36*
X111986802Y-134895019D02*
G01*
X112149138Y-134967295D01*
X112292899Y-135071744D01*
X112411802Y-135203800D01*
X112500652Y-135357691D01*
X112555563Y-135526692D01*
X112574138Y-135703417D01*
X112555563Y-135880142D01*
X112500652Y-136049143D01*
X112411802Y-136203034D01*
X112292899Y-136335090D01*
X112149138Y-136439539D01*
X111986802Y-136511815D01*
X111812987Y-136548761D01*
X111635289Y-136548761D01*
X111461474Y-136511815D01*
X111299138Y-136439539D01*
X111155377Y-136335090D01*
X111036474Y-136203034D01*
X110947624Y-136049143D01*
X110892713Y-135880142D01*
X110874138Y-135703417D01*
X110892713Y-135526692D01*
X110947624Y-135357691D01*
X111036474Y-135203800D01*
X111155377Y-135071744D01*
X111299138Y-134967295D01*
X111461474Y-134895019D01*
X111635289Y-134858073D01*
X111812987Y-134858073D01*
X111986802Y-134895019D01*
G37*
G36*
X114526802Y-134895019D02*
G01*
X114689138Y-134967295D01*
X114832899Y-135071744D01*
X114951802Y-135203800D01*
X115040652Y-135357691D01*
X115095563Y-135526692D01*
X115114138Y-135703417D01*
X115095563Y-135880142D01*
X115040652Y-136049143D01*
X114951802Y-136203034D01*
X114832899Y-136335090D01*
X114689138Y-136439539D01*
X114526802Y-136511815D01*
X114352987Y-136548761D01*
X114175289Y-136548761D01*
X114001474Y-136511815D01*
X113839138Y-136439539D01*
X113695377Y-136335090D01*
X113576474Y-136203034D01*
X113487624Y-136049143D01*
X113432713Y-135880142D01*
X113414138Y-135703417D01*
X113432713Y-135526692D01*
X113487624Y-135357691D01*
X113576474Y-135203800D01*
X113695377Y-135071744D01*
X113839138Y-134967295D01*
X114001474Y-134895019D01*
X114175289Y-134858073D01*
X114352987Y-134858073D01*
X114526802Y-134895019D01*
G37*
G36*
X117066802Y-134895019D02*
G01*
X117229138Y-134967295D01*
X117372899Y-135071744D01*
X117491802Y-135203800D01*
X117580652Y-135357691D01*
X117635563Y-135526692D01*
X117654138Y-135703417D01*
X117635563Y-135880142D01*
X117580652Y-136049143D01*
X117491802Y-136203034D01*
X117372899Y-136335090D01*
X117229138Y-136439539D01*
X117066802Y-136511815D01*
X116892987Y-136548761D01*
X116715289Y-136548761D01*
X116541474Y-136511815D01*
X116379138Y-136439539D01*
X116235377Y-136335090D01*
X116116474Y-136203034D01*
X116027624Y-136049143D01*
X115972713Y-135880142D01*
X115954138Y-135703417D01*
X115972713Y-135526692D01*
X116027624Y-135357691D01*
X116116474Y-135203800D01*
X116235377Y-135071744D01*
X116379138Y-134967295D01*
X116541474Y-134895019D01*
X116715289Y-134858073D01*
X116892987Y-134858073D01*
X117066802Y-134895019D01*
G37*
G36*
X119606802Y-134895019D02*
G01*
X119769138Y-134967295D01*
X119912899Y-135071744D01*
X120031802Y-135203800D01*
X120120652Y-135357691D01*
X120175563Y-135526692D01*
X120194138Y-135703417D01*
X120175563Y-135880142D01*
X120120652Y-136049143D01*
X120031802Y-136203034D01*
X119912899Y-136335090D01*
X119769138Y-136439539D01*
X119606802Y-136511815D01*
X119432987Y-136548761D01*
X119255289Y-136548761D01*
X119081474Y-136511815D01*
X118919138Y-136439539D01*
X118775377Y-136335090D01*
X118656474Y-136203034D01*
X118567624Y-136049143D01*
X118512713Y-135880142D01*
X118494138Y-135703417D01*
X118512713Y-135526692D01*
X118567624Y-135357691D01*
X118656474Y-135203800D01*
X118775377Y-135071744D01*
X118919138Y-134967295D01*
X119081474Y-134895019D01*
X119255289Y-134858073D01*
X119432987Y-134858073D01*
X119606802Y-134895019D01*
G37*
G36*
X122146802Y-134895019D02*
G01*
X122309138Y-134967295D01*
X122452899Y-135071744D01*
X122571802Y-135203800D01*
X122660652Y-135357691D01*
X122715563Y-135526692D01*
X122734138Y-135703417D01*
X122715563Y-135880142D01*
X122660652Y-136049143D01*
X122571802Y-136203034D01*
X122452899Y-136335090D01*
X122309138Y-136439539D01*
X122146802Y-136511815D01*
X121972987Y-136548761D01*
X121795289Y-136548761D01*
X121621474Y-136511815D01*
X121459138Y-136439539D01*
X121315377Y-136335090D01*
X121196474Y-136203034D01*
X121107624Y-136049143D01*
X121052713Y-135880142D01*
X121034138Y-135703417D01*
X121052713Y-135526692D01*
X121107624Y-135357691D01*
X121196474Y-135203800D01*
X121315377Y-135071744D01*
X121459138Y-134967295D01*
X121621474Y-134895019D01*
X121795289Y-134858073D01*
X121972987Y-134858073D01*
X122146802Y-134895019D01*
G37*
G36*
X124686802Y-134895019D02*
G01*
X124849138Y-134967295D01*
X124992899Y-135071744D01*
X125111802Y-135203800D01*
X125200652Y-135357691D01*
X125255563Y-135526692D01*
X125274138Y-135703417D01*
X125255563Y-135880142D01*
X125200652Y-136049143D01*
X125111802Y-136203034D01*
X124992899Y-136335090D01*
X124849138Y-136439539D01*
X124686802Y-136511815D01*
X124512987Y-136548761D01*
X124335289Y-136548761D01*
X124161474Y-136511815D01*
X123999138Y-136439539D01*
X123855377Y-136335090D01*
X123736474Y-136203034D01*
X123647624Y-136049143D01*
X123592713Y-135880142D01*
X123574138Y-135703417D01*
X123592713Y-135526692D01*
X123647624Y-135357691D01*
X123736474Y-135203800D01*
X123855377Y-135071744D01*
X123999138Y-134967295D01*
X124161474Y-134895019D01*
X124335289Y-134858073D01*
X124512987Y-134858073D01*
X124686802Y-134895019D01*
G37*
G36*
X127226802Y-134895019D02*
G01*
X127389138Y-134967295D01*
X127532899Y-135071744D01*
X127651802Y-135203800D01*
X127740652Y-135357691D01*
X127795563Y-135526692D01*
X127814138Y-135703417D01*
X127795563Y-135880142D01*
X127740652Y-136049143D01*
X127651802Y-136203034D01*
X127532899Y-136335090D01*
X127389138Y-136439539D01*
X127226802Y-136511815D01*
X127052987Y-136548761D01*
X126875289Y-136548761D01*
X126701474Y-136511815D01*
X126539138Y-136439539D01*
X126395377Y-136335090D01*
X126276474Y-136203034D01*
X126187624Y-136049143D01*
X126132713Y-135880142D01*
X126114138Y-135703417D01*
X126132713Y-135526692D01*
X126187624Y-135357691D01*
X126276474Y-135203800D01*
X126395377Y-135071744D01*
X126539138Y-134967295D01*
X126701474Y-134895019D01*
X126875289Y-134858073D01*
X127052987Y-134858073D01*
X127226802Y-134895019D01*
G37*
G36*
X129766802Y-134895019D02*
G01*
X129929138Y-134967295D01*
X130072899Y-135071744D01*
X130191802Y-135203800D01*
X130280652Y-135357691D01*
X130335563Y-135526692D01*
X130354138Y-135703417D01*
X130335563Y-135880142D01*
X130280652Y-136049143D01*
X130191802Y-136203034D01*
X130072899Y-136335090D01*
X129929138Y-136439539D01*
X129766802Y-136511815D01*
X129592987Y-136548761D01*
X129415289Y-136548761D01*
X129241474Y-136511815D01*
X129079138Y-136439539D01*
X128935377Y-136335090D01*
X128816474Y-136203034D01*
X128727624Y-136049143D01*
X128672713Y-135880142D01*
X128654138Y-135703417D01*
X128672713Y-135526692D01*
X128727624Y-135357691D01*
X128816474Y-135203800D01*
X128935377Y-135071744D01*
X129079138Y-134967295D01*
X129241474Y-134895019D01*
X129415289Y-134858073D01*
X129592987Y-134858073D01*
X129766802Y-134895019D01*
G37*
G36*
X132306802Y-134895019D02*
G01*
X132469138Y-134967295D01*
X132612899Y-135071744D01*
X132731802Y-135203800D01*
X132820652Y-135357691D01*
X132875563Y-135526692D01*
X132894138Y-135703417D01*
X132875563Y-135880142D01*
X132820652Y-136049143D01*
X132731802Y-136203034D01*
X132612899Y-136335090D01*
X132469138Y-136439539D01*
X132306802Y-136511815D01*
X132132987Y-136548761D01*
X131955289Y-136548761D01*
X131781474Y-136511815D01*
X131619138Y-136439539D01*
X131475377Y-136335090D01*
X131356474Y-136203034D01*
X131267624Y-136049143D01*
X131212713Y-135880142D01*
X131194138Y-135703417D01*
X131212713Y-135526692D01*
X131267624Y-135357691D01*
X131356474Y-135203800D01*
X131475377Y-135071744D01*
X131619138Y-134967295D01*
X131781474Y-134895019D01*
X131955289Y-134858073D01*
X132132987Y-134858073D01*
X132306802Y-134895019D01*
G37*
G36*
X134846802Y-134895019D02*
G01*
X135009138Y-134967295D01*
X135152899Y-135071744D01*
X135271802Y-135203800D01*
X135360652Y-135357691D01*
X135415563Y-135526692D01*
X135434138Y-135703417D01*
X135415563Y-135880142D01*
X135360652Y-136049143D01*
X135271802Y-136203034D01*
X135152899Y-136335090D01*
X135009138Y-136439539D01*
X134846802Y-136511815D01*
X134672987Y-136548761D01*
X134495289Y-136548761D01*
X134321474Y-136511815D01*
X134159138Y-136439539D01*
X134015377Y-136335090D01*
X133896474Y-136203034D01*
X133807624Y-136049143D01*
X133752713Y-135880142D01*
X133734138Y-135703417D01*
X133752713Y-135526692D01*
X133807624Y-135357691D01*
X133896474Y-135203800D01*
X134015377Y-135071744D01*
X134159138Y-134967295D01*
X134321474Y-134895019D01*
X134495289Y-134858073D01*
X134672987Y-134858073D01*
X134846802Y-134895019D01*
G37*
G36*
X137386802Y-134895019D02*
G01*
X137549138Y-134967295D01*
X137692899Y-135071744D01*
X137811802Y-135203800D01*
X137900652Y-135357691D01*
X137955563Y-135526692D01*
X137974138Y-135703417D01*
X137955563Y-135880142D01*
X137900652Y-136049143D01*
X137811802Y-136203034D01*
X137692899Y-136335090D01*
X137549138Y-136439539D01*
X137386802Y-136511815D01*
X137212987Y-136548761D01*
X137035289Y-136548761D01*
X136861474Y-136511815D01*
X136699138Y-136439539D01*
X136555377Y-136335090D01*
X136436474Y-136203034D01*
X136347624Y-136049143D01*
X136292713Y-135880142D01*
X136274138Y-135703417D01*
X136292713Y-135526692D01*
X136347624Y-135357691D01*
X136436474Y-135203800D01*
X136555377Y-135071744D01*
X136699138Y-134967295D01*
X136861474Y-134895019D01*
X137035289Y-134858073D01*
X137212987Y-134858073D01*
X137386802Y-134895019D01*
G37*
G36*
X139926802Y-134895019D02*
G01*
X140089138Y-134967295D01*
X140232899Y-135071744D01*
X140351802Y-135203800D01*
X140440652Y-135357691D01*
X140495563Y-135526692D01*
X140514138Y-135703417D01*
X140495563Y-135880142D01*
X140440652Y-136049143D01*
X140351802Y-136203034D01*
X140232899Y-136335090D01*
X140089138Y-136439539D01*
X139926802Y-136511815D01*
X139752987Y-136548761D01*
X139575289Y-136548761D01*
X139401474Y-136511815D01*
X139239138Y-136439539D01*
X139095377Y-136335090D01*
X138976474Y-136203034D01*
X138887624Y-136049143D01*
X138832713Y-135880142D01*
X138814138Y-135703417D01*
X138832713Y-135526692D01*
X138887624Y-135357691D01*
X138976474Y-135203800D01*
X139095377Y-135071744D01*
X139239138Y-134967295D01*
X139401474Y-134895019D01*
X139575289Y-134858073D01*
X139752987Y-134858073D01*
X139926802Y-134895019D01*
G37*
G36*
X142466802Y-134895019D02*
G01*
X142629138Y-134967295D01*
X142772899Y-135071744D01*
X142891802Y-135203800D01*
X142980652Y-135357691D01*
X143035563Y-135526692D01*
X143054138Y-135703417D01*
X143035563Y-135880142D01*
X142980652Y-136049143D01*
X142891802Y-136203034D01*
X142772899Y-136335090D01*
X142629138Y-136439539D01*
X142466802Y-136511815D01*
X142292987Y-136548761D01*
X142115289Y-136548761D01*
X141941474Y-136511815D01*
X141779138Y-136439539D01*
X141635377Y-136335090D01*
X141516474Y-136203034D01*
X141427624Y-136049143D01*
X141372713Y-135880142D01*
X141354138Y-135703417D01*
X141372713Y-135526692D01*
X141427624Y-135357691D01*
X141516474Y-135203800D01*
X141635377Y-135071744D01*
X141779138Y-134967295D01*
X141941474Y-134895019D01*
X142115289Y-134858073D01*
X142292987Y-134858073D01*
X142466802Y-134895019D01*
G37*
G36*
X145006802Y-134895019D02*
G01*
X145169138Y-134967295D01*
X145312899Y-135071744D01*
X145431802Y-135203800D01*
X145520652Y-135357691D01*
X145575563Y-135526692D01*
X145594138Y-135703417D01*
X145575563Y-135880142D01*
X145520652Y-136049143D01*
X145431802Y-136203034D01*
X145312899Y-136335090D01*
X145169138Y-136439539D01*
X145006802Y-136511815D01*
X144832987Y-136548761D01*
X144655289Y-136548761D01*
X144481474Y-136511815D01*
X144319138Y-136439539D01*
X144175377Y-136335090D01*
X144056474Y-136203034D01*
X143967624Y-136049143D01*
X143912713Y-135880142D01*
X143894138Y-135703417D01*
X143912713Y-135526692D01*
X143967624Y-135357691D01*
X144056474Y-135203800D01*
X144175377Y-135071744D01*
X144319138Y-134967295D01*
X144481474Y-134895019D01*
X144655289Y-134858073D01*
X144832987Y-134858073D01*
X145006802Y-134895019D01*
G37*
G36*
X147546802Y-134895019D02*
G01*
X147709138Y-134967295D01*
X147852899Y-135071744D01*
X147971802Y-135203800D01*
X148060652Y-135357691D01*
X148115563Y-135526692D01*
X148134138Y-135703417D01*
X148115563Y-135880142D01*
X148060652Y-136049143D01*
X147971802Y-136203034D01*
X147852899Y-136335090D01*
X147709138Y-136439539D01*
X147546802Y-136511815D01*
X147372987Y-136548761D01*
X147195289Y-136548761D01*
X147021474Y-136511815D01*
X146859138Y-136439539D01*
X146715377Y-136335090D01*
X146596474Y-136203034D01*
X146507624Y-136049143D01*
X146452713Y-135880142D01*
X146434138Y-135703417D01*
X146452713Y-135526692D01*
X146507624Y-135357691D01*
X146596474Y-135203800D01*
X146715377Y-135071744D01*
X146859138Y-134967295D01*
X147021474Y-134895019D01*
X147195289Y-134858073D01*
X147372987Y-134858073D01*
X147546802Y-134895019D01*
G37*
G36*
X150086802Y-134895019D02*
G01*
X150249138Y-134967295D01*
X150392899Y-135071744D01*
X150511802Y-135203800D01*
X150600652Y-135357691D01*
X150655563Y-135526692D01*
X150674138Y-135703417D01*
X150655563Y-135880142D01*
X150600652Y-136049143D01*
X150511802Y-136203034D01*
X150392899Y-136335090D01*
X150249138Y-136439539D01*
X150086802Y-136511815D01*
X149912987Y-136548761D01*
X149735289Y-136548761D01*
X149561474Y-136511815D01*
X149399138Y-136439539D01*
X149255377Y-136335090D01*
X149136474Y-136203034D01*
X149047624Y-136049143D01*
X148992713Y-135880142D01*
X148974138Y-135703417D01*
X148992713Y-135526692D01*
X149047624Y-135357691D01*
X149136474Y-135203800D01*
X149255377Y-135071744D01*
X149399138Y-134967295D01*
X149561474Y-134895019D01*
X149735289Y-134858073D01*
X149912987Y-134858073D01*
X150086802Y-134895019D01*
G37*
G36*
X152626802Y-134895019D02*
G01*
X152789138Y-134967295D01*
X152932899Y-135071744D01*
X153051802Y-135203800D01*
X153140652Y-135357691D01*
X153195563Y-135526692D01*
X153214138Y-135703417D01*
X153195563Y-135880142D01*
X153140652Y-136049143D01*
X153051802Y-136203034D01*
X152932899Y-136335090D01*
X152789138Y-136439539D01*
X152626802Y-136511815D01*
X152452987Y-136548761D01*
X152275289Y-136548761D01*
X152101474Y-136511815D01*
X151939138Y-136439539D01*
X151795377Y-136335090D01*
X151676474Y-136203034D01*
X151587624Y-136049143D01*
X151532713Y-135880142D01*
X151514138Y-135703417D01*
X151532713Y-135526692D01*
X151587624Y-135357691D01*
X151676474Y-135203800D01*
X151795377Y-135071744D01*
X151939138Y-134967295D01*
X152101474Y-134895019D01*
X152275289Y-134858073D01*
X152452987Y-134858073D01*
X152626802Y-134895019D01*
G37*
G36*
X155166802Y-134895019D02*
G01*
X155329138Y-134967295D01*
X155472899Y-135071744D01*
X155591802Y-135203800D01*
X155680652Y-135357691D01*
X155735563Y-135526692D01*
X155754138Y-135703417D01*
X155735563Y-135880142D01*
X155680652Y-136049143D01*
X155591802Y-136203034D01*
X155472899Y-136335090D01*
X155329138Y-136439539D01*
X155166802Y-136511815D01*
X154992987Y-136548761D01*
X154815289Y-136548761D01*
X154641474Y-136511815D01*
X154479138Y-136439539D01*
X154335377Y-136335090D01*
X154216474Y-136203034D01*
X154127624Y-136049143D01*
X154072713Y-135880142D01*
X154054138Y-135703417D01*
X154072713Y-135526692D01*
X154127624Y-135357691D01*
X154216474Y-135203800D01*
X154335377Y-135071744D01*
X154479138Y-134967295D01*
X154641474Y-134895019D01*
X154815289Y-134858073D01*
X154992987Y-134858073D01*
X155166802Y-134895019D01*
G37*
G36*
X157706802Y-134895019D02*
G01*
X157869138Y-134967295D01*
X158012899Y-135071744D01*
X158131802Y-135203800D01*
X158220652Y-135357691D01*
X158275563Y-135526692D01*
X158294138Y-135703417D01*
X158275563Y-135880142D01*
X158220652Y-136049143D01*
X158131802Y-136203034D01*
X158012899Y-136335090D01*
X157869138Y-136439539D01*
X157706802Y-136511815D01*
X157532987Y-136548761D01*
X157355289Y-136548761D01*
X157181474Y-136511815D01*
X157019138Y-136439539D01*
X156875377Y-136335090D01*
X156756474Y-136203034D01*
X156667624Y-136049143D01*
X156612713Y-135880142D01*
X156594138Y-135703417D01*
X156612713Y-135526692D01*
X156667624Y-135357691D01*
X156756474Y-135203800D01*
X156875377Y-135071744D01*
X157019138Y-134967295D01*
X157181474Y-134895019D01*
X157355289Y-134858073D01*
X157532987Y-134858073D01*
X157706802Y-134895019D01*
G37*
G36*
X160246802Y-134895019D02*
G01*
X160409138Y-134967295D01*
X160552899Y-135071744D01*
X160671802Y-135203800D01*
X160760652Y-135357691D01*
X160815563Y-135526692D01*
X160834138Y-135703417D01*
X160815563Y-135880142D01*
X160760652Y-136049143D01*
X160671802Y-136203034D01*
X160552899Y-136335090D01*
X160409138Y-136439539D01*
X160246802Y-136511815D01*
X160072987Y-136548761D01*
X159895289Y-136548761D01*
X159721474Y-136511815D01*
X159559138Y-136439539D01*
X159415377Y-136335090D01*
X159296474Y-136203034D01*
X159207624Y-136049143D01*
X159152713Y-135880142D01*
X159134138Y-135703417D01*
X159152713Y-135526692D01*
X159207624Y-135357691D01*
X159296474Y-135203800D01*
X159415377Y-135071744D01*
X159559138Y-134967295D01*
X159721474Y-134895019D01*
X159895289Y-134858073D01*
X160072987Y-134858073D01*
X160246802Y-134895019D01*
G37*
G36*
X160834138Y-111213417D02*
G01*
X159134138Y-111213417D01*
X159134138Y-109513417D01*
X160834138Y-109513417D01*
X160834138Y-111213417D01*
G37*
G36*
X106906802Y-109555019D02*
G01*
X107069138Y-109627295D01*
X107212899Y-109731744D01*
X107331802Y-109863800D01*
X107420652Y-110017691D01*
X107475563Y-110186692D01*
X107494138Y-110363417D01*
X107475563Y-110540142D01*
X107420652Y-110709143D01*
X107331802Y-110863034D01*
X107212899Y-110995090D01*
X107069138Y-111099539D01*
X106906802Y-111171815D01*
X106732987Y-111208761D01*
X106555289Y-111208761D01*
X106381474Y-111171815D01*
X106219138Y-111099539D01*
X106075377Y-110995090D01*
X105956474Y-110863034D01*
X105867624Y-110709143D01*
X105812713Y-110540142D01*
X105794138Y-110363417D01*
X105812713Y-110186692D01*
X105867624Y-110017691D01*
X105956474Y-109863800D01*
X106075377Y-109731744D01*
X106219138Y-109627295D01*
X106381474Y-109555019D01*
X106555289Y-109518073D01*
X106732987Y-109518073D01*
X106906802Y-109555019D01*
G37*
G36*
X109446802Y-109555019D02*
G01*
X109609138Y-109627295D01*
X109752899Y-109731744D01*
X109871802Y-109863800D01*
X109960652Y-110017691D01*
X110015563Y-110186692D01*
X110034138Y-110363417D01*
X110015563Y-110540142D01*
X109960652Y-110709143D01*
X109871802Y-110863034D01*
X109752899Y-110995090D01*
X109609138Y-111099539D01*
X109446802Y-111171815D01*
X109272987Y-111208761D01*
X109095289Y-111208761D01*
X108921474Y-111171815D01*
X108759138Y-111099539D01*
X108615377Y-110995090D01*
X108496474Y-110863034D01*
X108407624Y-110709143D01*
X108352713Y-110540142D01*
X108334138Y-110363417D01*
X108352713Y-110186692D01*
X108407624Y-110017691D01*
X108496474Y-109863800D01*
X108615377Y-109731744D01*
X108759138Y-109627295D01*
X108921474Y-109555019D01*
X109095289Y-109518073D01*
X109272987Y-109518073D01*
X109446802Y-109555019D01*
G37*
G36*
X111986802Y-109555019D02*
G01*
X112149138Y-109627295D01*
X112292899Y-109731744D01*
X112411802Y-109863800D01*
X112500652Y-110017691D01*
X112555563Y-110186692D01*
X112574138Y-110363417D01*
X112555563Y-110540142D01*
X112500652Y-110709143D01*
X112411802Y-110863034D01*
X112292899Y-110995090D01*
X112149138Y-111099539D01*
X111986802Y-111171815D01*
X111812987Y-111208761D01*
X111635289Y-111208761D01*
X111461474Y-111171815D01*
X111299138Y-111099539D01*
X111155377Y-110995090D01*
X111036474Y-110863034D01*
X110947624Y-110709143D01*
X110892713Y-110540142D01*
X110874138Y-110363417D01*
X110892713Y-110186692D01*
X110947624Y-110017691D01*
X111036474Y-109863800D01*
X111155377Y-109731744D01*
X111299138Y-109627295D01*
X111461474Y-109555019D01*
X111635289Y-109518073D01*
X111812987Y-109518073D01*
X111986802Y-109555019D01*
G37*
G36*
X114526802Y-109555019D02*
G01*
X114689138Y-109627295D01*
X114832899Y-109731744D01*
X114951802Y-109863800D01*
X115040652Y-110017691D01*
X115095563Y-110186692D01*
X115114138Y-110363417D01*
X115095563Y-110540142D01*
X115040652Y-110709143D01*
X114951802Y-110863034D01*
X114832899Y-110995090D01*
X114689138Y-111099539D01*
X114526802Y-111171815D01*
X114352987Y-111208761D01*
X114175289Y-111208761D01*
X114001474Y-111171815D01*
X113839138Y-111099539D01*
X113695377Y-110995090D01*
X113576474Y-110863034D01*
X113487624Y-110709143D01*
X113432713Y-110540142D01*
X113414138Y-110363417D01*
X113432713Y-110186692D01*
X113487624Y-110017691D01*
X113576474Y-109863800D01*
X113695377Y-109731744D01*
X113839138Y-109627295D01*
X114001474Y-109555019D01*
X114175289Y-109518073D01*
X114352987Y-109518073D01*
X114526802Y-109555019D01*
G37*
G36*
X117066802Y-109555019D02*
G01*
X117229138Y-109627295D01*
X117372899Y-109731744D01*
X117491802Y-109863800D01*
X117580652Y-110017691D01*
X117635563Y-110186692D01*
X117654138Y-110363417D01*
X117635563Y-110540142D01*
X117580652Y-110709143D01*
X117491802Y-110863034D01*
X117372899Y-110995090D01*
X117229138Y-111099539D01*
X117066802Y-111171815D01*
X116892987Y-111208761D01*
X116715289Y-111208761D01*
X116541474Y-111171815D01*
X116379138Y-111099539D01*
X116235377Y-110995090D01*
X116116474Y-110863034D01*
X116027624Y-110709143D01*
X115972713Y-110540142D01*
X115954138Y-110363417D01*
X115972713Y-110186692D01*
X116027624Y-110017691D01*
X116116474Y-109863800D01*
X116235377Y-109731744D01*
X116379138Y-109627295D01*
X116541474Y-109555019D01*
X116715289Y-109518073D01*
X116892987Y-109518073D01*
X117066802Y-109555019D01*
G37*
G36*
X119606802Y-109555019D02*
G01*
X119769138Y-109627295D01*
X119912899Y-109731744D01*
X120031802Y-109863800D01*
X120120652Y-110017691D01*
X120175563Y-110186692D01*
X120194138Y-110363417D01*
X120175563Y-110540142D01*
X120120652Y-110709143D01*
X120031802Y-110863034D01*
X119912899Y-110995090D01*
X119769138Y-111099539D01*
X119606802Y-111171815D01*
X119432987Y-111208761D01*
X119255289Y-111208761D01*
X119081474Y-111171815D01*
X118919138Y-111099539D01*
X118775377Y-110995090D01*
X118656474Y-110863034D01*
X118567624Y-110709143D01*
X118512713Y-110540142D01*
X118494138Y-110363417D01*
X118512713Y-110186692D01*
X118567624Y-110017691D01*
X118656474Y-109863800D01*
X118775377Y-109731744D01*
X118919138Y-109627295D01*
X119081474Y-109555019D01*
X119255289Y-109518073D01*
X119432987Y-109518073D01*
X119606802Y-109555019D01*
G37*
G36*
X122146802Y-109555019D02*
G01*
X122309138Y-109627295D01*
X122452899Y-109731744D01*
X122571802Y-109863800D01*
X122660652Y-110017691D01*
X122715563Y-110186692D01*
X122734138Y-110363417D01*
X122715563Y-110540142D01*
X122660652Y-110709143D01*
X122571802Y-110863034D01*
X122452899Y-110995090D01*
X122309138Y-111099539D01*
X122146802Y-111171815D01*
X121972987Y-111208761D01*
X121795289Y-111208761D01*
X121621474Y-111171815D01*
X121459138Y-111099539D01*
X121315377Y-110995090D01*
X121196474Y-110863034D01*
X121107624Y-110709143D01*
X121052713Y-110540142D01*
X121034138Y-110363417D01*
X121052713Y-110186692D01*
X121107624Y-110017691D01*
X121196474Y-109863800D01*
X121315377Y-109731744D01*
X121459138Y-109627295D01*
X121621474Y-109555019D01*
X121795289Y-109518073D01*
X121972987Y-109518073D01*
X122146802Y-109555019D01*
G37*
G36*
X124686802Y-109555019D02*
G01*
X124849138Y-109627295D01*
X124992899Y-109731744D01*
X125111802Y-109863800D01*
X125200652Y-110017691D01*
X125255563Y-110186692D01*
X125274138Y-110363417D01*
X125255563Y-110540142D01*
X125200652Y-110709143D01*
X125111802Y-110863034D01*
X124992899Y-110995090D01*
X124849138Y-111099539D01*
X124686802Y-111171815D01*
X124512987Y-111208761D01*
X124335289Y-111208761D01*
X124161474Y-111171815D01*
X123999138Y-111099539D01*
X123855377Y-110995090D01*
X123736474Y-110863034D01*
X123647624Y-110709143D01*
X123592713Y-110540142D01*
X123574138Y-110363417D01*
X123592713Y-110186692D01*
X123647624Y-110017691D01*
X123736474Y-109863800D01*
X123855377Y-109731744D01*
X123999138Y-109627295D01*
X124161474Y-109555019D01*
X124335289Y-109518073D01*
X124512987Y-109518073D01*
X124686802Y-109555019D01*
G37*
G36*
X127226802Y-109555019D02*
G01*
X127389138Y-109627295D01*
X127532899Y-109731744D01*
X127651802Y-109863800D01*
X127740652Y-110017691D01*
X127795563Y-110186692D01*
X127814138Y-110363417D01*
X127795563Y-110540142D01*
X127740652Y-110709143D01*
X127651802Y-110863034D01*
X127532899Y-110995090D01*
X127389138Y-111099539D01*
X127226802Y-111171815D01*
X127052987Y-111208761D01*
X126875289Y-111208761D01*
X126701474Y-111171815D01*
X126539138Y-111099539D01*
X126395377Y-110995090D01*
X126276474Y-110863034D01*
X126187624Y-110709143D01*
X126132713Y-110540142D01*
X126114138Y-110363417D01*
X126132713Y-110186692D01*
X126187624Y-110017691D01*
X126276474Y-109863800D01*
X126395377Y-109731744D01*
X126539138Y-109627295D01*
X126701474Y-109555019D01*
X126875289Y-109518073D01*
X127052987Y-109518073D01*
X127226802Y-109555019D01*
G37*
G36*
X129766802Y-109555019D02*
G01*
X129929138Y-109627295D01*
X130072899Y-109731744D01*
X130191802Y-109863800D01*
X130280652Y-110017691D01*
X130335563Y-110186692D01*
X130354138Y-110363417D01*
X130335563Y-110540142D01*
X130280652Y-110709143D01*
X130191802Y-110863034D01*
X130072899Y-110995090D01*
X129929138Y-111099539D01*
X129766802Y-111171815D01*
X129592987Y-111208761D01*
X129415289Y-111208761D01*
X129241474Y-111171815D01*
X129079138Y-111099539D01*
X128935377Y-110995090D01*
X128816474Y-110863034D01*
X128727624Y-110709143D01*
X128672713Y-110540142D01*
X128654138Y-110363417D01*
X128672713Y-110186692D01*
X128727624Y-110017691D01*
X128816474Y-109863800D01*
X128935377Y-109731744D01*
X129079138Y-109627295D01*
X129241474Y-109555019D01*
X129415289Y-109518073D01*
X129592987Y-109518073D01*
X129766802Y-109555019D01*
G37*
G36*
X132306802Y-109555019D02*
G01*
X132469138Y-109627295D01*
X132612899Y-109731744D01*
X132731802Y-109863800D01*
X132820652Y-110017691D01*
X132875563Y-110186692D01*
X132894138Y-110363417D01*
X132875563Y-110540142D01*
X132820652Y-110709143D01*
X132731802Y-110863034D01*
X132612899Y-110995090D01*
X132469138Y-111099539D01*
X132306802Y-111171815D01*
X132132987Y-111208761D01*
X131955289Y-111208761D01*
X131781474Y-111171815D01*
X131619138Y-111099539D01*
X131475377Y-110995090D01*
X131356474Y-110863034D01*
X131267624Y-110709143D01*
X131212713Y-110540142D01*
X131194138Y-110363417D01*
X131212713Y-110186692D01*
X131267624Y-110017691D01*
X131356474Y-109863800D01*
X131475377Y-109731744D01*
X131619138Y-109627295D01*
X131781474Y-109555019D01*
X131955289Y-109518073D01*
X132132987Y-109518073D01*
X132306802Y-109555019D01*
G37*
G36*
X134846802Y-109555019D02*
G01*
X135009138Y-109627295D01*
X135152899Y-109731744D01*
X135271802Y-109863800D01*
X135360652Y-110017691D01*
X135415563Y-110186692D01*
X135434138Y-110363417D01*
X135415563Y-110540142D01*
X135360652Y-110709143D01*
X135271802Y-110863034D01*
X135152899Y-110995090D01*
X135009138Y-111099539D01*
X134846802Y-111171815D01*
X134672987Y-111208761D01*
X134495289Y-111208761D01*
X134321474Y-111171815D01*
X134159138Y-111099539D01*
X134015377Y-110995090D01*
X133896474Y-110863034D01*
X133807624Y-110709143D01*
X133752713Y-110540142D01*
X133734138Y-110363417D01*
X133752713Y-110186692D01*
X133807624Y-110017691D01*
X133896474Y-109863800D01*
X134015377Y-109731744D01*
X134159138Y-109627295D01*
X134321474Y-109555019D01*
X134495289Y-109518073D01*
X134672987Y-109518073D01*
X134846802Y-109555019D01*
G37*
G36*
X137386802Y-109555019D02*
G01*
X137549138Y-109627295D01*
X137692899Y-109731744D01*
X137811802Y-109863800D01*
X137900652Y-110017691D01*
X137955563Y-110186692D01*
X137974138Y-110363417D01*
X137955563Y-110540142D01*
X137900652Y-110709143D01*
X137811802Y-110863034D01*
X137692899Y-110995090D01*
X137549138Y-111099539D01*
X137386802Y-111171815D01*
X137212987Y-111208761D01*
X137035289Y-111208761D01*
X136861474Y-111171815D01*
X136699138Y-111099539D01*
X136555377Y-110995090D01*
X136436474Y-110863034D01*
X136347624Y-110709143D01*
X136292713Y-110540142D01*
X136274138Y-110363417D01*
X136292713Y-110186692D01*
X136347624Y-110017691D01*
X136436474Y-109863800D01*
X136555377Y-109731744D01*
X136699138Y-109627295D01*
X136861474Y-109555019D01*
X137035289Y-109518073D01*
X137212987Y-109518073D01*
X137386802Y-109555019D01*
G37*
G36*
X139926802Y-109555019D02*
G01*
X140089138Y-109627295D01*
X140232899Y-109731744D01*
X140351802Y-109863800D01*
X140440652Y-110017691D01*
X140495563Y-110186692D01*
X140514138Y-110363417D01*
X140495563Y-110540142D01*
X140440652Y-110709143D01*
X140351802Y-110863034D01*
X140232899Y-110995090D01*
X140089138Y-111099539D01*
X139926802Y-111171815D01*
X139752987Y-111208761D01*
X139575289Y-111208761D01*
X139401474Y-111171815D01*
X139239138Y-111099539D01*
X139095377Y-110995090D01*
X138976474Y-110863034D01*
X138887624Y-110709143D01*
X138832713Y-110540142D01*
X138814138Y-110363417D01*
X138832713Y-110186692D01*
X138887624Y-110017691D01*
X138976474Y-109863800D01*
X139095377Y-109731744D01*
X139239138Y-109627295D01*
X139401474Y-109555019D01*
X139575289Y-109518073D01*
X139752987Y-109518073D01*
X139926802Y-109555019D01*
G37*
G36*
X142466802Y-109555019D02*
G01*
X142629138Y-109627295D01*
X142772899Y-109731744D01*
X142891802Y-109863800D01*
X142980652Y-110017691D01*
X143035563Y-110186692D01*
X143054138Y-110363417D01*
X143035563Y-110540142D01*
X142980652Y-110709143D01*
X142891802Y-110863034D01*
X142772899Y-110995090D01*
X142629138Y-111099539D01*
X142466802Y-111171815D01*
X142292987Y-111208761D01*
X142115289Y-111208761D01*
X141941474Y-111171815D01*
X141779138Y-111099539D01*
X141635377Y-110995090D01*
X141516474Y-110863034D01*
X141427624Y-110709143D01*
X141372713Y-110540142D01*
X141354138Y-110363417D01*
X141372713Y-110186692D01*
X141427624Y-110017691D01*
X141516474Y-109863800D01*
X141635377Y-109731744D01*
X141779138Y-109627295D01*
X141941474Y-109555019D01*
X142115289Y-109518073D01*
X142292987Y-109518073D01*
X142466802Y-109555019D01*
G37*
G36*
X145006802Y-109555019D02*
G01*
X145169138Y-109627295D01*
X145312899Y-109731744D01*
X145431802Y-109863800D01*
X145520652Y-110017691D01*
X145575563Y-110186692D01*
X145594138Y-110363417D01*
X145575563Y-110540142D01*
X145520652Y-110709143D01*
X145431802Y-110863034D01*
X145312899Y-110995090D01*
X145169138Y-111099539D01*
X145006802Y-111171815D01*
X144832987Y-111208761D01*
X144655289Y-111208761D01*
X144481474Y-111171815D01*
X144319138Y-111099539D01*
X144175377Y-110995090D01*
X144056474Y-110863034D01*
X143967624Y-110709143D01*
X143912713Y-110540142D01*
X143894138Y-110363417D01*
X143912713Y-110186692D01*
X143967624Y-110017691D01*
X144056474Y-109863800D01*
X144175377Y-109731744D01*
X144319138Y-109627295D01*
X144481474Y-109555019D01*
X144655289Y-109518073D01*
X144832987Y-109518073D01*
X145006802Y-109555019D01*
G37*
G36*
X147546802Y-109555019D02*
G01*
X147709138Y-109627295D01*
X147852899Y-109731744D01*
X147971802Y-109863800D01*
X148060652Y-110017691D01*
X148115563Y-110186692D01*
X148134138Y-110363417D01*
X148115563Y-110540142D01*
X148060652Y-110709143D01*
X147971802Y-110863034D01*
X147852899Y-110995090D01*
X147709138Y-111099539D01*
X147546802Y-111171815D01*
X147372987Y-111208761D01*
X147195289Y-111208761D01*
X147021474Y-111171815D01*
X146859138Y-111099539D01*
X146715377Y-110995090D01*
X146596474Y-110863034D01*
X146507624Y-110709143D01*
X146452713Y-110540142D01*
X146434138Y-110363417D01*
X146452713Y-110186692D01*
X146507624Y-110017691D01*
X146596474Y-109863800D01*
X146715377Y-109731744D01*
X146859138Y-109627295D01*
X147021474Y-109555019D01*
X147195289Y-109518073D01*
X147372987Y-109518073D01*
X147546802Y-109555019D01*
G37*
G36*
X150086802Y-109555019D02*
G01*
X150249138Y-109627295D01*
X150392899Y-109731744D01*
X150511802Y-109863800D01*
X150600652Y-110017691D01*
X150655563Y-110186692D01*
X150674138Y-110363417D01*
X150655563Y-110540142D01*
X150600652Y-110709143D01*
X150511802Y-110863034D01*
X150392899Y-110995090D01*
X150249138Y-111099539D01*
X150086802Y-111171815D01*
X149912987Y-111208761D01*
X149735289Y-111208761D01*
X149561474Y-111171815D01*
X149399138Y-111099539D01*
X149255377Y-110995090D01*
X149136474Y-110863034D01*
X149047624Y-110709143D01*
X148992713Y-110540142D01*
X148974138Y-110363417D01*
X148992713Y-110186692D01*
X149047624Y-110017691D01*
X149136474Y-109863800D01*
X149255377Y-109731744D01*
X149399138Y-109627295D01*
X149561474Y-109555019D01*
X149735289Y-109518073D01*
X149912987Y-109518073D01*
X150086802Y-109555019D01*
G37*
G36*
X152626802Y-109555019D02*
G01*
X152789138Y-109627295D01*
X152932899Y-109731744D01*
X153051802Y-109863800D01*
X153140652Y-110017691D01*
X153195563Y-110186692D01*
X153214138Y-110363417D01*
X153195563Y-110540142D01*
X153140652Y-110709143D01*
X153051802Y-110863034D01*
X152932899Y-110995090D01*
X152789138Y-111099539D01*
X152626802Y-111171815D01*
X152452987Y-111208761D01*
X152275289Y-111208761D01*
X152101474Y-111171815D01*
X151939138Y-111099539D01*
X151795377Y-110995090D01*
X151676474Y-110863034D01*
X151587624Y-110709143D01*
X151532713Y-110540142D01*
X151514138Y-110363417D01*
X151532713Y-110186692D01*
X151587624Y-110017691D01*
X151676474Y-109863800D01*
X151795377Y-109731744D01*
X151939138Y-109627295D01*
X152101474Y-109555019D01*
X152275289Y-109518073D01*
X152452987Y-109518073D01*
X152626802Y-109555019D01*
G37*
G36*
X155166802Y-109555019D02*
G01*
X155329138Y-109627295D01*
X155472899Y-109731744D01*
X155591802Y-109863800D01*
X155680652Y-110017691D01*
X155735563Y-110186692D01*
X155754138Y-110363417D01*
X155735563Y-110540142D01*
X155680652Y-110709143D01*
X155591802Y-110863034D01*
X155472899Y-110995090D01*
X155329138Y-111099539D01*
X155166802Y-111171815D01*
X154992987Y-111208761D01*
X154815289Y-111208761D01*
X154641474Y-111171815D01*
X154479138Y-111099539D01*
X154335377Y-110995090D01*
X154216474Y-110863034D01*
X154127624Y-110709143D01*
X154072713Y-110540142D01*
X154054138Y-110363417D01*
X154072713Y-110186692D01*
X154127624Y-110017691D01*
X154216474Y-109863800D01*
X154335377Y-109731744D01*
X154479138Y-109627295D01*
X154641474Y-109555019D01*
X154815289Y-109518073D01*
X154992987Y-109518073D01*
X155166802Y-109555019D01*
G37*
G36*
X157706802Y-109555019D02*
G01*
X157869138Y-109627295D01*
X158012899Y-109731744D01*
X158131802Y-109863800D01*
X158220652Y-110017691D01*
X158275563Y-110186692D01*
X158294138Y-110363417D01*
X158275563Y-110540142D01*
X158220652Y-110709143D01*
X158131802Y-110863034D01*
X158012899Y-110995090D01*
X157869138Y-111099539D01*
X157706802Y-111171815D01*
X157532987Y-111208761D01*
X157355289Y-111208761D01*
X157181474Y-111171815D01*
X157019138Y-111099539D01*
X156875377Y-110995090D01*
X156756474Y-110863034D01*
X156667624Y-110709143D01*
X156612713Y-110540142D01*
X156594138Y-110363417D01*
X156612713Y-110186692D01*
X156667624Y-110017691D01*
X156756474Y-109863800D01*
X156875377Y-109731744D01*
X157019138Y-109627295D01*
X157181474Y-109555019D01*
X157355289Y-109518073D01*
X157532987Y-109518073D01*
X157706802Y-109555019D01*
G37*
G36*
X107999004Y-100658183D02*
G01*
X108087377Y-100658183D01*
X108181731Y-100668444D01*
X108272424Y-100673538D01*
X108350435Y-100686792D01*
X108431830Y-100695645D01*
X108530965Y-100717466D01*
X108626205Y-100733648D01*
X108696544Y-100753912D01*
X108770205Y-100770126D01*
X108872712Y-100804665D01*
X108971031Y-100832990D01*
X109033183Y-100858734D01*
X109098555Y-100880761D01*
X109202853Y-100929014D01*
X109302566Y-100970317D01*
X109356206Y-100999963D01*
X109413012Y-101026244D01*
X109517381Y-101089041D01*
X109616641Y-101143900D01*
X109661737Y-101175897D01*
X109709893Y-101204872D01*
X109812459Y-101282840D01*
X109909305Y-101351556D01*
X109946046Y-101384389D01*
X109985728Y-101414555D01*
X110084550Y-101508164D01*
X110176880Y-101590675D01*
X110205691Y-101622915D01*
X110237269Y-101652827D01*
X110330311Y-101762365D01*
X110415999Y-101858250D01*
X110437521Y-101888583D01*
X110461574Y-101916900D01*
X110546772Y-102042557D01*
X110623655Y-102150914D01*
X110638714Y-102178162D01*
X110656018Y-102203683D01*
X110731335Y-102345746D01*
X110797238Y-102464989D01*
X110806829Y-102488144D01*
X110818312Y-102509803D01*
X110881723Y-102668953D01*
X110934565Y-102796524D01*
X110939820Y-102814767D01*
X110946557Y-102831674D01*
X110996156Y-103010313D01*
X111033907Y-103141350D01*
X111036064Y-103154050D01*
X111039253Y-103165533D01*
X111073244Y-103372874D01*
X111094017Y-103495131D01*
X111094397Y-103501898D01*
X111095305Y-103507437D01*
X111111994Y-103815255D01*
X111114138Y-103853417D01*
X111111994Y-103891581D01*
X111095305Y-104199396D01*
X111094397Y-104204933D01*
X111094017Y-104211703D01*
X111073240Y-104333986D01*
X111039253Y-104541300D01*
X111036065Y-104552780D01*
X111033907Y-104565484D01*
X110996148Y-104696547D01*
X110946557Y-104875159D01*
X110939821Y-104892063D01*
X110934565Y-104910310D01*
X110881712Y-105037906D01*
X110818312Y-105197030D01*
X110806831Y-105218685D01*
X110797238Y-105241845D01*
X110731322Y-105361111D01*
X110656018Y-105503150D01*
X110638717Y-105528665D01*
X110623655Y-105555920D01*
X110546756Y-105664297D01*
X110461574Y-105789933D01*
X110437525Y-105818244D01*
X110415999Y-105848584D01*
X110330294Y-105944488D01*
X110237269Y-106054006D01*
X110205697Y-106083911D01*
X110176880Y-106116159D01*
X110084531Y-106198686D01*
X109985728Y-106292278D01*
X109946053Y-106322437D01*
X109909305Y-106355278D01*
X109812439Y-106424007D01*
X109709893Y-106501961D01*
X109661747Y-106530929D01*
X109616641Y-106562934D01*
X109517360Y-106617804D01*
X109413012Y-106680589D01*
X109356217Y-106706864D01*
X109302566Y-106736517D01*
X109202832Y-106777828D01*
X109098555Y-106826072D01*
X109033196Y-106848093D01*
X108971031Y-106873844D01*
X108872692Y-106902174D01*
X108770205Y-106936707D01*
X108696558Y-106952917D01*
X108626205Y-106973186D01*
X108530945Y-106989371D01*
X108431830Y-107011188D01*
X108350447Y-107020039D01*
X108272424Y-107033296D01*
X108181726Y-107038389D01*
X108087377Y-107048651D01*
X107999004Y-107048651D01*
X107914138Y-107053417D01*
X107829272Y-107048651D01*
X107740899Y-107048651D01*
X107646549Y-107038389D01*
X107555852Y-107033296D01*
X107477829Y-107020039D01*
X107396445Y-107011188D01*
X107297325Y-106989370D01*
X107202071Y-106973186D01*
X107131720Y-106952918D01*
X107058070Y-106936707D01*
X106955576Y-106902172D01*
X106857245Y-106873844D01*
X106795083Y-106848095D01*
X106729720Y-106826072D01*
X106625433Y-106777824D01*
X106525710Y-106736517D01*
X106472063Y-106706867D01*
X106415263Y-106680589D01*
X106310902Y-106617797D01*
X106211635Y-106562934D01*
X106166534Y-106530933D01*
X106118382Y-106501961D01*
X106015821Y-106423997D01*
X105918971Y-106355278D01*
X105882227Y-106322442D01*
X105842547Y-106292278D01*
X105743726Y-106198670D01*
X105651396Y-106116159D01*
X105622583Y-106083918D01*
X105591006Y-106054006D01*
X105497961Y-105944465D01*
X105412277Y-105848584D01*
X105390755Y-105818252D01*
X105366701Y-105789933D01*
X105281496Y-105664266D01*
X105204621Y-105555920D01*
X105189562Y-105528673D01*
X105172257Y-105503150D01*
X105096929Y-105361066D01*
X105031038Y-105241845D01*
X105021448Y-105218694D01*
X105009963Y-105197030D01*
X104946537Y-105037842D01*
X104893711Y-104910310D01*
X104888456Y-104892072D01*
X104881718Y-104875159D01*
X104832099Y-104696451D01*
X104794369Y-104565484D01*
X104792212Y-104552789D01*
X104789022Y-104541300D01*
X104755007Y-104333818D01*
X104734259Y-104211703D01*
X104733879Y-104204942D01*
X104732970Y-104199396D01*
X104716252Y-103891065D01*
X104714138Y-103853417D01*
X104716252Y-103815771D01*
X104732970Y-103507437D01*
X104733879Y-103501889D01*
X104734259Y-103495131D01*
X104755002Y-103373042D01*
X104789022Y-103165533D01*
X104792212Y-103154041D01*
X104794369Y-103141350D01*
X104832092Y-103010409D01*
X104881718Y-102831674D01*
X104888457Y-102814758D01*
X104893711Y-102796524D01*
X104946526Y-102669016D01*
X105009963Y-102509803D01*
X105021450Y-102488135D01*
X105031038Y-102464989D01*
X105096916Y-102345790D01*
X105172257Y-102203683D01*
X105189565Y-102178154D01*
X105204621Y-102150914D01*
X105281481Y-102042589D01*
X105366701Y-101916900D01*
X105390759Y-101888575D01*
X105412277Y-101858250D01*
X105497944Y-101762387D01*
X105591006Y-101652827D01*
X105622589Y-101622909D01*
X105651396Y-101590675D01*
X105743707Y-101508180D01*
X105842547Y-101414555D01*
X105882235Y-101384384D01*
X105918971Y-101351556D01*
X106015801Y-101282850D01*
X106118382Y-101204872D01*
X106166543Y-101175894D01*
X106211635Y-101143900D01*
X106310882Y-101089047D01*
X106415263Y-101026244D01*
X106472074Y-100999960D01*
X106525710Y-100970317D01*
X106625413Y-100929018D01*
X106729720Y-100880761D01*
X106795096Y-100858732D01*
X106857245Y-100832990D01*
X106955556Y-100804667D01*
X107058070Y-100770126D01*
X107131734Y-100753911D01*
X107202071Y-100733648D01*
X107297305Y-100717466D01*
X107396445Y-100695645D01*
X107477842Y-100686792D01*
X107555852Y-100673538D01*
X107646544Y-100668444D01*
X107740899Y-100658183D01*
X107829272Y-100658183D01*
X107914138Y-100653417D01*
X107999004Y-100658183D01*
G37*
G36*
X191299004Y-100658183D02*
G01*
X191387377Y-100658183D01*
X191481731Y-100668444D01*
X191572424Y-100673538D01*
X191650435Y-100686792D01*
X191731830Y-100695645D01*
X191830965Y-100717466D01*
X191926205Y-100733648D01*
X191996544Y-100753912D01*
X192070205Y-100770126D01*
X192172712Y-100804665D01*
X192271031Y-100832990D01*
X192333183Y-100858734D01*
X192398555Y-100880761D01*
X192502853Y-100929014D01*
X192602566Y-100970317D01*
X192656206Y-100999963D01*
X192713012Y-101026244D01*
X192817381Y-101089041D01*
X192916641Y-101143900D01*
X192961737Y-101175897D01*
X193009893Y-101204872D01*
X193112459Y-101282840D01*
X193209305Y-101351556D01*
X193246046Y-101384389D01*
X193285728Y-101414555D01*
X193384550Y-101508164D01*
X193476880Y-101590675D01*
X193505691Y-101622915D01*
X193537269Y-101652827D01*
X193630311Y-101762365D01*
X193715999Y-101858250D01*
X193737521Y-101888583D01*
X193761574Y-101916900D01*
X193846772Y-102042557D01*
X193923655Y-102150914D01*
X193938714Y-102178162D01*
X193956018Y-102203683D01*
X194031335Y-102345746D01*
X194097238Y-102464989D01*
X194106829Y-102488144D01*
X194118312Y-102509803D01*
X194181723Y-102668953D01*
X194234565Y-102796524D01*
X194239820Y-102814767D01*
X194246557Y-102831674D01*
X194296156Y-103010313D01*
X194333907Y-103141350D01*
X194336064Y-103154050D01*
X194339253Y-103165533D01*
X194373244Y-103372874D01*
X194394017Y-103495131D01*
X194394397Y-103501898D01*
X194395305Y-103507437D01*
X194411994Y-103815255D01*
X194414138Y-103853417D01*
X194411994Y-103891581D01*
X194395305Y-104199396D01*
X194394397Y-104204933D01*
X194394017Y-104211703D01*
X194373240Y-104333986D01*
X194339253Y-104541300D01*
X194336065Y-104552780D01*
X194333907Y-104565484D01*
X194296148Y-104696547D01*
X194246557Y-104875159D01*
X194239821Y-104892063D01*
X194234565Y-104910310D01*
X194181712Y-105037906D01*
X194118312Y-105197030D01*
X194106831Y-105218685D01*
X194097238Y-105241845D01*
X194031322Y-105361111D01*
X193956018Y-105503150D01*
X193938717Y-105528665D01*
X193923655Y-105555920D01*
X193846756Y-105664297D01*
X193761574Y-105789933D01*
X193737525Y-105818244D01*
X193715999Y-105848584D01*
X193630294Y-105944488D01*
X193537269Y-106054006D01*
X193505697Y-106083911D01*
X193476880Y-106116159D01*
X193384531Y-106198686D01*
X193285728Y-106292278D01*
X193246053Y-106322437D01*
X193209305Y-106355278D01*
X193112439Y-106424007D01*
X193009893Y-106501961D01*
X192961747Y-106530929D01*
X192916641Y-106562934D01*
X192817360Y-106617804D01*
X192713012Y-106680589D01*
X192656217Y-106706864D01*
X192602566Y-106736517D01*
X192502832Y-106777828D01*
X192398555Y-106826072D01*
X192333196Y-106848093D01*
X192271031Y-106873844D01*
X192172692Y-106902174D01*
X192070205Y-106936707D01*
X191996558Y-106952917D01*
X191926205Y-106973186D01*
X191830945Y-106989371D01*
X191731830Y-107011188D01*
X191650447Y-107020039D01*
X191572424Y-107033296D01*
X191481726Y-107038389D01*
X191387377Y-107048651D01*
X191299004Y-107048651D01*
X191214138Y-107053417D01*
X191129272Y-107048651D01*
X191040899Y-107048651D01*
X190946549Y-107038389D01*
X190855852Y-107033296D01*
X190777829Y-107020039D01*
X190696445Y-107011188D01*
X190597325Y-106989370D01*
X190502071Y-106973186D01*
X190431720Y-106952918D01*
X190358070Y-106936707D01*
X190255576Y-106902172D01*
X190157245Y-106873844D01*
X190095083Y-106848095D01*
X190029720Y-106826072D01*
X189925433Y-106777824D01*
X189825710Y-106736517D01*
X189772063Y-106706867D01*
X189715263Y-106680589D01*
X189610902Y-106617797D01*
X189511635Y-106562934D01*
X189466534Y-106530933D01*
X189418382Y-106501961D01*
X189315821Y-106423997D01*
X189218971Y-106355278D01*
X189182227Y-106322442D01*
X189142547Y-106292278D01*
X189043726Y-106198670D01*
X188951396Y-106116159D01*
X188922583Y-106083918D01*
X188891006Y-106054006D01*
X188797961Y-105944465D01*
X188712277Y-105848584D01*
X188690755Y-105818252D01*
X188666701Y-105789933D01*
X188581496Y-105664266D01*
X188504621Y-105555920D01*
X188489562Y-105528673D01*
X188472257Y-105503150D01*
X188396929Y-105361066D01*
X188331038Y-105241845D01*
X188321448Y-105218694D01*
X188309963Y-105197030D01*
X188246537Y-105037842D01*
X188193711Y-104910310D01*
X188188456Y-104892072D01*
X188181718Y-104875159D01*
X188132099Y-104696451D01*
X188094369Y-104565484D01*
X188092212Y-104552789D01*
X188089022Y-104541300D01*
X188055007Y-104333818D01*
X188034259Y-104211703D01*
X188033879Y-104204942D01*
X188032970Y-104199396D01*
X188016252Y-103891065D01*
X188014138Y-103853417D01*
X188016252Y-103815771D01*
X188032970Y-103507437D01*
X188033879Y-103501889D01*
X188034259Y-103495131D01*
X188055002Y-103373042D01*
X188089022Y-103165533D01*
X188092212Y-103154041D01*
X188094369Y-103141350D01*
X188132092Y-103010409D01*
X188181718Y-102831674D01*
X188188457Y-102814758D01*
X188193711Y-102796524D01*
X188246526Y-102669016D01*
X188309963Y-102509803D01*
X188321450Y-102488135D01*
X188331038Y-102464989D01*
X188396916Y-102345790D01*
X188472257Y-102203683D01*
X188489565Y-102178154D01*
X188504621Y-102150914D01*
X188581481Y-102042589D01*
X188666701Y-101916900D01*
X188690759Y-101888575D01*
X188712277Y-101858250D01*
X188797944Y-101762387D01*
X188891006Y-101652827D01*
X188922589Y-101622909D01*
X188951396Y-101590675D01*
X189043707Y-101508180D01*
X189142547Y-101414555D01*
X189182235Y-101384384D01*
X189218971Y-101351556D01*
X189315801Y-101282850D01*
X189418382Y-101204872D01*
X189466543Y-101175894D01*
X189511635Y-101143900D01*
X189610882Y-101089047D01*
X189715263Y-101026244D01*
X189772074Y-100999960D01*
X189825710Y-100970317D01*
X189925413Y-100929018D01*
X190029720Y-100880761D01*
X190095096Y-100858732D01*
X190157245Y-100832990D01*
X190255556Y-100804667D01*
X190358070Y-100770126D01*
X190431734Y-100753911D01*
X190502071Y-100733648D01*
X190597305Y-100717466D01*
X190696445Y-100695645D01*
X190777842Y-100686792D01*
X190855852Y-100673538D01*
X190946544Y-100668444D01*
X191040899Y-100658183D01*
X191129272Y-100658183D01*
X191214138Y-100653417D01*
X191299004Y-100658183D01*
G37*
G36*
X107176802Y-95055019D02*
G01*
X107339138Y-95127295D01*
X107482899Y-95231744D01*
X107601802Y-95363800D01*
X107690652Y-95517691D01*
X107745563Y-95686692D01*
X107764138Y-95863417D01*
X107745563Y-96040142D01*
X107690652Y-96209143D01*
X107601802Y-96363034D01*
X107482899Y-96495090D01*
X107339138Y-96599539D01*
X107176802Y-96671815D01*
X107002987Y-96708761D01*
X106825289Y-96708761D01*
X106651474Y-96671815D01*
X106489138Y-96599539D01*
X106345377Y-96495090D01*
X106226474Y-96363034D01*
X106137624Y-96209143D01*
X106082713Y-96040142D01*
X106064138Y-95863417D01*
X106082713Y-95686692D01*
X106137624Y-95517691D01*
X106226474Y-95363800D01*
X106345377Y-95231744D01*
X106489138Y-95127295D01*
X106651474Y-95055019D01*
X106825289Y-95018073D01*
X107002987Y-95018073D01*
X107176802Y-95055019D01*
G37*
G36*
X107176802Y-92515019D02*
G01*
X107339138Y-92587295D01*
X107482899Y-92691744D01*
X107601802Y-92823800D01*
X107690652Y-92977691D01*
X107745563Y-93146692D01*
X107764138Y-93323417D01*
X107745563Y-93500142D01*
X107690652Y-93669143D01*
X107601802Y-93823034D01*
X107482899Y-93955090D01*
X107339138Y-94059539D01*
X107176802Y-94131815D01*
X107002987Y-94168761D01*
X106825289Y-94168761D01*
X106651474Y-94131815D01*
X106489138Y-94059539D01*
X106345377Y-93955090D01*
X106226474Y-93823034D01*
X106137624Y-93669143D01*
X106082713Y-93500142D01*
X106064138Y-93323417D01*
X106082713Y-93146692D01*
X106137624Y-92977691D01*
X106226474Y-92823800D01*
X106345377Y-92691744D01*
X106489138Y-92587295D01*
X106651474Y-92515019D01*
X106825289Y-92478073D01*
X107002987Y-92478073D01*
X107176802Y-92515019D01*
G37*
G36*
X107176802Y-89975019D02*
G01*
X107339138Y-90047295D01*
X107482899Y-90151744D01*
X107601802Y-90283800D01*
X107690652Y-90437691D01*
X107745563Y-90606692D01*
X107764138Y-90783417D01*
X107745563Y-90960142D01*
X107690652Y-91129143D01*
X107601802Y-91283034D01*
X107482899Y-91415090D01*
X107339138Y-91519539D01*
X107176802Y-91591815D01*
X107002987Y-91628761D01*
X106825289Y-91628761D01*
X106651474Y-91591815D01*
X106489138Y-91519539D01*
X106345377Y-91415090D01*
X106226474Y-91283034D01*
X106137624Y-91129143D01*
X106082713Y-90960142D01*
X106064138Y-90783417D01*
X106082713Y-90606692D01*
X106137624Y-90437691D01*
X106226474Y-90283800D01*
X106345377Y-90151744D01*
X106489138Y-90047295D01*
X106651474Y-89975019D01*
X106825289Y-89938073D01*
X107002987Y-89938073D01*
X107176802Y-89975019D01*
G37*
G36*
X107176802Y-87435019D02*
G01*
X107339138Y-87507295D01*
X107482899Y-87611744D01*
X107601802Y-87743800D01*
X107690652Y-87897691D01*
X107745563Y-88066692D01*
X107764138Y-88243417D01*
X107745563Y-88420142D01*
X107690652Y-88589143D01*
X107601802Y-88743034D01*
X107482899Y-88875090D01*
X107339138Y-88979539D01*
X107176802Y-89051815D01*
X107002987Y-89088761D01*
X106825289Y-89088761D01*
X106651474Y-89051815D01*
X106489138Y-88979539D01*
X106345377Y-88875090D01*
X106226474Y-88743034D01*
X106137624Y-88589143D01*
X106082713Y-88420142D01*
X106064138Y-88243417D01*
X106082713Y-88066692D01*
X106137624Y-87897691D01*
X106226474Y-87743800D01*
X106345377Y-87611744D01*
X106489138Y-87507295D01*
X106651474Y-87435019D01*
X106825289Y-87398073D01*
X107002987Y-87398073D01*
X107176802Y-87435019D01*
G37*
G36*
X107176802Y-84895019D02*
G01*
X107339138Y-84967295D01*
X107482899Y-85071744D01*
X107601802Y-85203800D01*
X107690652Y-85357691D01*
X107745563Y-85526692D01*
X107764138Y-85703417D01*
X107745563Y-85880142D01*
X107690652Y-86049143D01*
X107601802Y-86203034D01*
X107482899Y-86335090D01*
X107339138Y-86439539D01*
X107176802Y-86511815D01*
X107002987Y-86548761D01*
X106825289Y-86548761D01*
X106651474Y-86511815D01*
X106489138Y-86439539D01*
X106345377Y-86335090D01*
X106226474Y-86203034D01*
X106137624Y-86049143D01*
X106082713Y-85880142D01*
X106064138Y-85703417D01*
X106082713Y-85526692D01*
X106137624Y-85357691D01*
X106226474Y-85203800D01*
X106345377Y-85071744D01*
X106489138Y-84967295D01*
X106651474Y-84895019D01*
X106825289Y-84858073D01*
X107002987Y-84858073D01*
X107176802Y-84895019D01*
G37*
G36*
X107176802Y-82355019D02*
G01*
X107339138Y-82427295D01*
X107482899Y-82531744D01*
X107601802Y-82663800D01*
X107690652Y-82817691D01*
X107745563Y-82986692D01*
X107764138Y-83163417D01*
X107745563Y-83340142D01*
X107690652Y-83509143D01*
X107601802Y-83663034D01*
X107482899Y-83795090D01*
X107339138Y-83899539D01*
X107176802Y-83971815D01*
X107002987Y-84008761D01*
X106825289Y-84008761D01*
X106651474Y-83971815D01*
X106489138Y-83899539D01*
X106345377Y-83795090D01*
X106226474Y-83663034D01*
X106137624Y-83509143D01*
X106082713Y-83340142D01*
X106064138Y-83163417D01*
X106082713Y-82986692D01*
X106137624Y-82817691D01*
X106226474Y-82663800D01*
X106345377Y-82531744D01*
X106489138Y-82427295D01*
X106651474Y-82355019D01*
X106825289Y-82318073D01*
X107002987Y-82318073D01*
X107176802Y-82355019D01*
G37*
G36*
X191476802Y-82355019D02*
G01*
X191639138Y-82427295D01*
X191782899Y-82531744D01*
X191901802Y-82663800D01*
X191990652Y-82817691D01*
X192045563Y-82986692D01*
X192064138Y-83163417D01*
X192045563Y-83340142D01*
X191990652Y-83509143D01*
X191901802Y-83663034D01*
X191782899Y-83795090D01*
X191639138Y-83899539D01*
X191476802Y-83971815D01*
X191302987Y-84008761D01*
X191125289Y-84008761D01*
X190951474Y-83971815D01*
X190789138Y-83899539D01*
X190645377Y-83795090D01*
X190526474Y-83663034D01*
X190437624Y-83509143D01*
X190382713Y-83340142D01*
X190364138Y-83163417D01*
X190382713Y-82986692D01*
X190437624Y-82817691D01*
X190526474Y-82663800D01*
X190645377Y-82531744D01*
X190789138Y-82427295D01*
X190951474Y-82355019D01*
X191125289Y-82318073D01*
X191302987Y-82318073D01*
X191476802Y-82355019D01*
G37*
G36*
X107176802Y-79815019D02*
G01*
X107339138Y-79887295D01*
X107482899Y-79991744D01*
X107601802Y-80123800D01*
X107690652Y-80277691D01*
X107745563Y-80446692D01*
X107764138Y-80623417D01*
X107745563Y-80800142D01*
X107690652Y-80969143D01*
X107601802Y-81123034D01*
X107482899Y-81255090D01*
X107339138Y-81359539D01*
X107176802Y-81431815D01*
X107002987Y-81468761D01*
X106825289Y-81468761D01*
X106651474Y-81431815D01*
X106489138Y-81359539D01*
X106345377Y-81255090D01*
X106226474Y-81123034D01*
X106137624Y-80969143D01*
X106082713Y-80800142D01*
X106064138Y-80623417D01*
X106082713Y-80446692D01*
X106137624Y-80277691D01*
X106226474Y-80123800D01*
X106345377Y-79991744D01*
X106489138Y-79887295D01*
X106651474Y-79815019D01*
X106825289Y-79778073D01*
X107002987Y-79778073D01*
X107176802Y-79815019D01*
G37*
G36*
X191476802Y-79815019D02*
G01*
X191639138Y-79887295D01*
X191782899Y-79991744D01*
X191901802Y-80123800D01*
X191990652Y-80277691D01*
X192045563Y-80446692D01*
X192064138Y-80623417D01*
X192045563Y-80800142D01*
X191990652Y-80969143D01*
X191901802Y-81123034D01*
X191782899Y-81255090D01*
X191639138Y-81359539D01*
X191476802Y-81431815D01*
X191302987Y-81468761D01*
X191125289Y-81468761D01*
X190951474Y-81431815D01*
X190789138Y-81359539D01*
X190645377Y-81255090D01*
X190526474Y-81123034D01*
X190437624Y-80969143D01*
X190382713Y-80800142D01*
X190364138Y-80623417D01*
X190382713Y-80446692D01*
X190437624Y-80277691D01*
X190526474Y-80123800D01*
X190645377Y-79991744D01*
X190789138Y-79887295D01*
X190951474Y-79815019D01*
X191125289Y-79778073D01*
X191302987Y-79778073D01*
X191476802Y-79815019D01*
G37*
G36*
X107176802Y-77275019D02*
G01*
X107339138Y-77347295D01*
X107482899Y-77451744D01*
X107601802Y-77583800D01*
X107690652Y-77737691D01*
X107745563Y-77906692D01*
X107764138Y-78083417D01*
X107745563Y-78260142D01*
X107690652Y-78429143D01*
X107601802Y-78583034D01*
X107482899Y-78715090D01*
X107339138Y-78819539D01*
X107176802Y-78891815D01*
X107002987Y-78928761D01*
X106825289Y-78928761D01*
X106651474Y-78891815D01*
X106489138Y-78819539D01*
X106345377Y-78715090D01*
X106226474Y-78583034D01*
X106137624Y-78429143D01*
X106082713Y-78260142D01*
X106064138Y-78083417D01*
X106082713Y-77906692D01*
X106137624Y-77737691D01*
X106226474Y-77583800D01*
X106345377Y-77451744D01*
X106489138Y-77347295D01*
X106651474Y-77275019D01*
X106825289Y-77238073D01*
X107002987Y-77238073D01*
X107176802Y-77275019D01*
G37*
G36*
X191476802Y-77275019D02*
G01*
X191639138Y-77347295D01*
X191782899Y-77451744D01*
X191901802Y-77583800D01*
X191990652Y-77737691D01*
X192045563Y-77906692D01*
X192064138Y-78083417D01*
X192045563Y-78260142D01*
X191990652Y-78429143D01*
X191901802Y-78583034D01*
X191782899Y-78715090D01*
X191639138Y-78819539D01*
X191476802Y-78891815D01*
X191302987Y-78928761D01*
X191125289Y-78928761D01*
X190951474Y-78891815D01*
X190789138Y-78819539D01*
X190645377Y-78715090D01*
X190526474Y-78583034D01*
X190437624Y-78429143D01*
X190382713Y-78260142D01*
X190364138Y-78083417D01*
X190382713Y-77906692D01*
X190437624Y-77737691D01*
X190526474Y-77583800D01*
X190645377Y-77451744D01*
X190789138Y-77347295D01*
X190951474Y-77275019D01*
X191125289Y-77238073D01*
X191302987Y-77238073D01*
X191476802Y-77275019D01*
G37*
G36*
X192064138Y-76393417D02*
G01*
X190364138Y-76393417D01*
X190364138Y-74693417D01*
X192064138Y-74693417D01*
X192064138Y-76393417D01*
G37*
G36*
X107176802Y-74735019D02*
G01*
X107339138Y-74807295D01*
X107482899Y-74911744D01*
X107601802Y-75043800D01*
X107690652Y-75197691D01*
X107745563Y-75366692D01*
X107764138Y-75543417D01*
X107745563Y-75720142D01*
X107690652Y-75889143D01*
X107601802Y-76043034D01*
X107482899Y-76175090D01*
X107339138Y-76279539D01*
X107176802Y-76351815D01*
X107002987Y-76388761D01*
X106825289Y-76388761D01*
X106651474Y-76351815D01*
X106489138Y-76279539D01*
X106345377Y-76175090D01*
X106226474Y-76043034D01*
X106137624Y-75889143D01*
X106082713Y-75720142D01*
X106064138Y-75543417D01*
X106082713Y-75366692D01*
X106137624Y-75197691D01*
X106226474Y-75043800D01*
X106345377Y-74911744D01*
X106489138Y-74807295D01*
X106651474Y-74735019D01*
X106825289Y-74698073D01*
X107002987Y-74698073D01*
X107176802Y-74735019D01*
G37*
G36*
X107176802Y-72195019D02*
G01*
X107339138Y-72267295D01*
X107482899Y-72371744D01*
X107601802Y-72503800D01*
X107690652Y-72657691D01*
X107745563Y-72826692D01*
X107764138Y-73003417D01*
X107745563Y-73180142D01*
X107690652Y-73349143D01*
X107601802Y-73503034D01*
X107482899Y-73635090D01*
X107339138Y-73739539D01*
X107176802Y-73811815D01*
X107002987Y-73848761D01*
X106825289Y-73848761D01*
X106651474Y-73811815D01*
X106489138Y-73739539D01*
X106345377Y-73635090D01*
X106226474Y-73503034D01*
X106137624Y-73349143D01*
X106082713Y-73180142D01*
X106064138Y-73003417D01*
X106082713Y-72826692D01*
X106137624Y-72657691D01*
X106226474Y-72503800D01*
X106345377Y-72371744D01*
X106489138Y-72267295D01*
X106651474Y-72195019D01*
X106825289Y-72158073D01*
X107002987Y-72158073D01*
X107176802Y-72195019D01*
G37*
G36*
X107176802Y-69655019D02*
G01*
X107339138Y-69727295D01*
X107482899Y-69831744D01*
X107601802Y-69963800D01*
X107690652Y-70117691D01*
X107745563Y-70286692D01*
X107764138Y-70463417D01*
X107745563Y-70640142D01*
X107690652Y-70809143D01*
X107601802Y-70963034D01*
X107482899Y-71095090D01*
X107339138Y-71199539D01*
X107176802Y-71271815D01*
X107002987Y-71308761D01*
X106825289Y-71308761D01*
X106651474Y-71271815D01*
X106489138Y-71199539D01*
X106345377Y-71095090D01*
X106226474Y-70963034D01*
X106137624Y-70809143D01*
X106082713Y-70640142D01*
X106064138Y-70463417D01*
X106082713Y-70286692D01*
X106137624Y-70117691D01*
X106226474Y-69963800D01*
X106345377Y-69831744D01*
X106489138Y-69727295D01*
X106651474Y-69655019D01*
X106825289Y-69618073D01*
X107002987Y-69618073D01*
X107176802Y-69655019D01*
G37*
G36*
X107176802Y-67115019D02*
G01*
X107339138Y-67187295D01*
X107482899Y-67291744D01*
X107601802Y-67423800D01*
X107690652Y-67577691D01*
X107745563Y-67746692D01*
X107764138Y-67923417D01*
X107745563Y-68100142D01*
X107690652Y-68269143D01*
X107601802Y-68423034D01*
X107482899Y-68555090D01*
X107339138Y-68659539D01*
X107176802Y-68731815D01*
X107002987Y-68768761D01*
X106825289Y-68768761D01*
X106651474Y-68731815D01*
X106489138Y-68659539D01*
X106345377Y-68555090D01*
X106226474Y-68423034D01*
X106137624Y-68269143D01*
X106082713Y-68100142D01*
X106064138Y-67923417D01*
X106082713Y-67746692D01*
X106137624Y-67577691D01*
X106226474Y-67423800D01*
X106345377Y-67291744D01*
X106489138Y-67187295D01*
X106651474Y-67115019D01*
X106825289Y-67078073D01*
X107002987Y-67078073D01*
X107176802Y-67115019D01*
G37*
G36*
X107176802Y-64575019D02*
G01*
X107339138Y-64647295D01*
X107482899Y-64751744D01*
X107601802Y-64883800D01*
X107690652Y-65037691D01*
X107745563Y-65206692D01*
X107764138Y-65383417D01*
X107745563Y-65560142D01*
X107690652Y-65729143D01*
X107601802Y-65883034D01*
X107482899Y-66015090D01*
X107339138Y-66119539D01*
X107176802Y-66191815D01*
X107002987Y-66228761D01*
X106825289Y-66228761D01*
X106651474Y-66191815D01*
X106489138Y-66119539D01*
X106345377Y-66015090D01*
X106226474Y-65883034D01*
X106137624Y-65729143D01*
X106082713Y-65560142D01*
X106064138Y-65383417D01*
X106082713Y-65206692D01*
X106137624Y-65037691D01*
X106226474Y-64883800D01*
X106345377Y-64751744D01*
X106489138Y-64647295D01*
X106651474Y-64575019D01*
X106825289Y-64538073D01*
X107002987Y-64538073D01*
X107176802Y-64575019D01*
G37*
G36*
X107764138Y-63693417D02*
G01*
X106064138Y-63693417D01*
X106064138Y-61993417D01*
X107764138Y-61993417D01*
X107764138Y-63693417D01*
G37*
G36*
X107999004Y-51658183D02*
G01*
X108087377Y-51658183D01*
X108181731Y-51668444D01*
X108272424Y-51673538D01*
X108350435Y-51686792D01*
X108431830Y-51695645D01*
X108530965Y-51717466D01*
X108626205Y-51733648D01*
X108696544Y-51753912D01*
X108770205Y-51770126D01*
X108872712Y-51804665D01*
X108971031Y-51832990D01*
X109033183Y-51858734D01*
X109098555Y-51880761D01*
X109202853Y-51929014D01*
X109302566Y-51970317D01*
X109356206Y-51999963D01*
X109413012Y-52026244D01*
X109517381Y-52089041D01*
X109616641Y-52143900D01*
X109661737Y-52175897D01*
X109709893Y-52204872D01*
X109812459Y-52282840D01*
X109909305Y-52351556D01*
X109946046Y-52384389D01*
X109985728Y-52414555D01*
X110084550Y-52508164D01*
X110176880Y-52590675D01*
X110205691Y-52622915D01*
X110237269Y-52652827D01*
X110330311Y-52762365D01*
X110415999Y-52858250D01*
X110437521Y-52888583D01*
X110461574Y-52916900D01*
X110546772Y-53042557D01*
X110623655Y-53150914D01*
X110638714Y-53178162D01*
X110656018Y-53203683D01*
X110731335Y-53345746D01*
X110797238Y-53464989D01*
X110806829Y-53488144D01*
X110818312Y-53509803D01*
X110881723Y-53668953D01*
X110934565Y-53796524D01*
X110939820Y-53814767D01*
X110946557Y-53831674D01*
X110996156Y-54010313D01*
X111033907Y-54141350D01*
X111036064Y-54154050D01*
X111039253Y-54165533D01*
X111073244Y-54372874D01*
X111094017Y-54495131D01*
X111094397Y-54501898D01*
X111095305Y-54507437D01*
X111111994Y-54815255D01*
X111114138Y-54853417D01*
X111111994Y-54891581D01*
X111095305Y-55199396D01*
X111094397Y-55204933D01*
X111094017Y-55211703D01*
X111073240Y-55333986D01*
X111039253Y-55541300D01*
X111036065Y-55552780D01*
X111033907Y-55565484D01*
X110996148Y-55696547D01*
X110946557Y-55875159D01*
X110939821Y-55892063D01*
X110934565Y-55910310D01*
X110881712Y-56037906D01*
X110818312Y-56197030D01*
X110806831Y-56218685D01*
X110797238Y-56241845D01*
X110731322Y-56361111D01*
X110656018Y-56503150D01*
X110638717Y-56528665D01*
X110623655Y-56555920D01*
X110546756Y-56664297D01*
X110461574Y-56789933D01*
X110437525Y-56818244D01*
X110415999Y-56848584D01*
X110330294Y-56944488D01*
X110237269Y-57054006D01*
X110205697Y-57083911D01*
X110176880Y-57116159D01*
X110084531Y-57198686D01*
X109985728Y-57292278D01*
X109946053Y-57322437D01*
X109909305Y-57355278D01*
X109812439Y-57424007D01*
X109709893Y-57501961D01*
X109661747Y-57530929D01*
X109616641Y-57562934D01*
X109517360Y-57617804D01*
X109413012Y-57680589D01*
X109356217Y-57706864D01*
X109302566Y-57736517D01*
X109202832Y-57777828D01*
X109098555Y-57826072D01*
X109033196Y-57848093D01*
X108971031Y-57873844D01*
X108872692Y-57902174D01*
X108770205Y-57936707D01*
X108696558Y-57952917D01*
X108626205Y-57973186D01*
X108530945Y-57989371D01*
X108431830Y-58011188D01*
X108350447Y-58020039D01*
X108272424Y-58033296D01*
X108181726Y-58038389D01*
X108087377Y-58048651D01*
X107999004Y-58048651D01*
X107914138Y-58053417D01*
X107829272Y-58048651D01*
X107740899Y-58048651D01*
X107646549Y-58038389D01*
X107555852Y-58033296D01*
X107477829Y-58020039D01*
X107396445Y-58011188D01*
X107297325Y-57989370D01*
X107202071Y-57973186D01*
X107131720Y-57952918D01*
X107058070Y-57936707D01*
X106955576Y-57902172D01*
X106857245Y-57873844D01*
X106795083Y-57848095D01*
X106729720Y-57826072D01*
X106625433Y-57777824D01*
X106525710Y-57736517D01*
X106472063Y-57706867D01*
X106415263Y-57680589D01*
X106310902Y-57617797D01*
X106211635Y-57562934D01*
X106166534Y-57530933D01*
X106118382Y-57501961D01*
X106015821Y-57423997D01*
X105918971Y-57355278D01*
X105882227Y-57322442D01*
X105842547Y-57292278D01*
X105743726Y-57198670D01*
X105651396Y-57116159D01*
X105622583Y-57083918D01*
X105591006Y-57054006D01*
X105497961Y-56944465D01*
X105412277Y-56848584D01*
X105390755Y-56818252D01*
X105366701Y-56789933D01*
X105281496Y-56664266D01*
X105204621Y-56555920D01*
X105189562Y-56528673D01*
X105172257Y-56503150D01*
X105096929Y-56361066D01*
X105031038Y-56241845D01*
X105021448Y-56218694D01*
X105009963Y-56197030D01*
X104946537Y-56037842D01*
X104893711Y-55910310D01*
X104888456Y-55892072D01*
X104881718Y-55875159D01*
X104832099Y-55696451D01*
X104794369Y-55565484D01*
X104792212Y-55552789D01*
X104789022Y-55541300D01*
X104755007Y-55333818D01*
X104734259Y-55211703D01*
X104733879Y-55204942D01*
X104732970Y-55199396D01*
X104716252Y-54891065D01*
X104714138Y-54853417D01*
X104716252Y-54815771D01*
X104732970Y-54507437D01*
X104733879Y-54501889D01*
X104734259Y-54495131D01*
X104755002Y-54373042D01*
X104789022Y-54165533D01*
X104792212Y-54154041D01*
X104794369Y-54141350D01*
X104832092Y-54010409D01*
X104881718Y-53831674D01*
X104888457Y-53814758D01*
X104893711Y-53796524D01*
X104946526Y-53669016D01*
X105009963Y-53509803D01*
X105021450Y-53488135D01*
X105031038Y-53464989D01*
X105096916Y-53345790D01*
X105172257Y-53203683D01*
X105189565Y-53178154D01*
X105204621Y-53150914D01*
X105281481Y-53042589D01*
X105366701Y-52916900D01*
X105390759Y-52888575D01*
X105412277Y-52858250D01*
X105497944Y-52762387D01*
X105591006Y-52652827D01*
X105622589Y-52622909D01*
X105651396Y-52590675D01*
X105743707Y-52508180D01*
X105842547Y-52414555D01*
X105882235Y-52384384D01*
X105918971Y-52351556D01*
X106015801Y-52282850D01*
X106118382Y-52204872D01*
X106166543Y-52175894D01*
X106211635Y-52143900D01*
X106310882Y-52089047D01*
X106415263Y-52026244D01*
X106472074Y-51999960D01*
X106525710Y-51970317D01*
X106625413Y-51929018D01*
X106729720Y-51880761D01*
X106795096Y-51858732D01*
X106857245Y-51832990D01*
X106955556Y-51804667D01*
X107058070Y-51770126D01*
X107131734Y-51753911D01*
X107202071Y-51733648D01*
X107297305Y-51717466D01*
X107396445Y-51695645D01*
X107477842Y-51686792D01*
X107555852Y-51673538D01*
X107646544Y-51668444D01*
X107740899Y-51658183D01*
X107829272Y-51658183D01*
X107914138Y-51653417D01*
X107999004Y-51658183D01*
G37*
G36*
X191299004Y-51658183D02*
G01*
X191387377Y-51658183D01*
X191481731Y-51668444D01*
X191572424Y-51673538D01*
X191650435Y-51686792D01*
X191731830Y-51695645D01*
X191830965Y-51717466D01*
X191926205Y-51733648D01*
X191996544Y-51753912D01*
X192070205Y-51770126D01*
X192172712Y-51804665D01*
X192271031Y-51832990D01*
X192333183Y-51858734D01*
X192398555Y-51880761D01*
X192502853Y-51929014D01*
X192602566Y-51970317D01*
X192656206Y-51999963D01*
X192713012Y-52026244D01*
X192817381Y-52089041D01*
X192916641Y-52143900D01*
X192961737Y-52175897D01*
X193009893Y-52204872D01*
X193112459Y-52282840D01*
X193209305Y-52351556D01*
X193246046Y-52384389D01*
X193285728Y-52414555D01*
X193384550Y-52508164D01*
X193476880Y-52590675D01*
X193505691Y-52622915D01*
X193537269Y-52652827D01*
X193630311Y-52762365D01*
X193715999Y-52858250D01*
X193737521Y-52888583D01*
X193761574Y-52916900D01*
X193846772Y-53042557D01*
X193923655Y-53150914D01*
X193938714Y-53178162D01*
X193956018Y-53203683D01*
X194031335Y-53345746D01*
X194097238Y-53464989D01*
X194106829Y-53488144D01*
X194118312Y-53509803D01*
X194181723Y-53668953D01*
X194234565Y-53796524D01*
X194239820Y-53814767D01*
X194246557Y-53831674D01*
X194296156Y-54010313D01*
X194333907Y-54141350D01*
X194336064Y-54154050D01*
X194339253Y-54165533D01*
X194373244Y-54372874D01*
X194394017Y-54495131D01*
X194394397Y-54501898D01*
X194395305Y-54507437D01*
X194411994Y-54815255D01*
X194414138Y-54853417D01*
X194411994Y-54891581D01*
X194395305Y-55199396D01*
X194394397Y-55204933D01*
X194394017Y-55211703D01*
X194373240Y-55333986D01*
X194339253Y-55541300D01*
X194336065Y-55552780D01*
X194333907Y-55565484D01*
X194296148Y-55696547D01*
X194246557Y-55875159D01*
X194239821Y-55892063D01*
X194234565Y-55910310D01*
X194181712Y-56037906D01*
X194118312Y-56197030D01*
X194106831Y-56218685D01*
X194097238Y-56241845D01*
X194031322Y-56361111D01*
X193956018Y-56503150D01*
X193938717Y-56528665D01*
X193923655Y-56555920D01*
X193846756Y-56664297D01*
X193761574Y-56789933D01*
X193737525Y-56818244D01*
X193715999Y-56848584D01*
X193630294Y-56944488D01*
X193537269Y-57054006D01*
X193505697Y-57083911D01*
X193476880Y-57116159D01*
X193384531Y-57198686D01*
X193285728Y-57292278D01*
X193246053Y-57322437D01*
X193209305Y-57355278D01*
X193112439Y-57424007D01*
X193009893Y-57501961D01*
X192961747Y-57530929D01*
X192916641Y-57562934D01*
X192817360Y-57617804D01*
X192713012Y-57680589D01*
X192656217Y-57706864D01*
X192602566Y-57736517D01*
X192502832Y-57777828D01*
X192398555Y-57826072D01*
X192333196Y-57848093D01*
X192271031Y-57873844D01*
X192172692Y-57902174D01*
X192070205Y-57936707D01*
X191996558Y-57952917D01*
X191926205Y-57973186D01*
X191830945Y-57989371D01*
X191731830Y-58011188D01*
X191650447Y-58020039D01*
X191572424Y-58033296D01*
X191481726Y-58038389D01*
X191387377Y-58048651D01*
X191299004Y-58048651D01*
X191214138Y-58053417D01*
X191129272Y-58048651D01*
X191040899Y-58048651D01*
X190946549Y-58038389D01*
X190855852Y-58033296D01*
X190777829Y-58020039D01*
X190696445Y-58011188D01*
X190597325Y-57989370D01*
X190502071Y-57973186D01*
X190431720Y-57952918D01*
X190358070Y-57936707D01*
X190255576Y-57902172D01*
X190157245Y-57873844D01*
X190095083Y-57848095D01*
X190029720Y-57826072D01*
X189925433Y-57777824D01*
X189825710Y-57736517D01*
X189772063Y-57706867D01*
X189715263Y-57680589D01*
X189610902Y-57617797D01*
X189511635Y-57562934D01*
X189466534Y-57530933D01*
X189418382Y-57501961D01*
X189315821Y-57423997D01*
X189218971Y-57355278D01*
X189182227Y-57322442D01*
X189142547Y-57292278D01*
X189043726Y-57198670D01*
X188951396Y-57116159D01*
X188922583Y-57083918D01*
X188891006Y-57054006D01*
X188797961Y-56944465D01*
X188712277Y-56848584D01*
X188690755Y-56818252D01*
X188666701Y-56789933D01*
X188581496Y-56664266D01*
X188504621Y-56555920D01*
X188489562Y-56528673D01*
X188472257Y-56503150D01*
X188396929Y-56361066D01*
X188331038Y-56241845D01*
X188321448Y-56218694D01*
X188309963Y-56197030D01*
X188246537Y-56037842D01*
X188193711Y-55910310D01*
X188188456Y-55892072D01*
X188181718Y-55875159D01*
X188132099Y-55696451D01*
X188094369Y-55565484D01*
X188092212Y-55552789D01*
X188089022Y-55541300D01*
X188055007Y-55333818D01*
X188034259Y-55211703D01*
X188033879Y-55204942D01*
X188032970Y-55199396D01*
X188016252Y-54891065D01*
X188014138Y-54853417D01*
X188016252Y-54815771D01*
X188032970Y-54507437D01*
X188033879Y-54501889D01*
X188034259Y-54495131D01*
X188055002Y-54373042D01*
X188089022Y-54165533D01*
X188092212Y-54154041D01*
X188094369Y-54141350D01*
X188132092Y-54010409D01*
X188181718Y-53831674D01*
X188188457Y-53814758D01*
X188193711Y-53796524D01*
X188246526Y-53669016D01*
X188309963Y-53509803D01*
X188321450Y-53488135D01*
X188331038Y-53464989D01*
X188396916Y-53345790D01*
X188472257Y-53203683D01*
X188489565Y-53178154D01*
X188504621Y-53150914D01*
X188581481Y-53042589D01*
X188666701Y-52916900D01*
X188690759Y-52888575D01*
X188712277Y-52858250D01*
X188797944Y-52762387D01*
X188891006Y-52652827D01*
X188922589Y-52622909D01*
X188951396Y-52590675D01*
X189043707Y-52508180D01*
X189142547Y-52414555D01*
X189182235Y-52384384D01*
X189218971Y-52351556D01*
X189315801Y-52282850D01*
X189418382Y-52204872D01*
X189466543Y-52175894D01*
X189511635Y-52143900D01*
X189610882Y-52089047D01*
X189715263Y-52026244D01*
X189772074Y-51999960D01*
X189825710Y-51970317D01*
X189925413Y-51929018D01*
X190029720Y-51880761D01*
X190095096Y-51858732D01*
X190157245Y-51832990D01*
X190255556Y-51804667D01*
X190358070Y-51770126D01*
X190431734Y-51753911D01*
X190502071Y-51733648D01*
X190597305Y-51717466D01*
X190696445Y-51695645D01*
X190777842Y-51686792D01*
X190855852Y-51673538D01*
X190946544Y-51668444D01*
X191040899Y-51658183D01*
X191129272Y-51658183D01*
X191214138Y-51653417D01*
X191299004Y-51658183D01*
G37*
M02*
