M48
; DRILL file {KiCad 7.0.10-7.0.10~ubuntu22.04.1} date Mo 08 Jan 2024 19:13:06 CET
; FORMAT={-:-/ absolute / metric / decimal}
; #@! TF.CreationDate,2024-01-08T19:13:06+01:00
; #@! TF.GenerationSoftware,Kicad,Pcbnew,7.0.10-7.0.10~ubuntu22.04.1
; #@! TF.FileFunction,Plated,1,2,PTH
FMAT,2
METRIC
; #@! TA.AperFunction,Plated,PTH,ViaDrill
T1C0.300
; #@! TA.AperFunction,Plated,PTH,ComponentDrill
T2C0.500
; #@! TA.AperFunction,Plated,PTH,ComponentDrill
T3C1.000
; #@! TA.AperFunction,Plated,PTH,ComponentDrill
T4C3.200
%
G90
G05
T1
X104.904Y-107.823
X104.904Y-123.063
X104.904Y-125.603
X104.904Y-138.303
X107.444Y-107.823
X107.444Y-123.063
X107.444Y-125.603
X107.444Y-138.303
X109.984Y-67.183
X109.984Y-69.723
X109.984Y-72.263
X109.984Y-74.803
X109.984Y-77.343
X109.984Y-79.603
X109.984Y-82.423
X109.984Y-84.963
X109.984Y-87.503
X109.984Y-90.043
X109.984Y-97.663
X109.984Y-107.823
X109.984Y-138.303
X113.014Y-105.283
X113.014Y-107.823
X113.024Y-138.303
X113.024Y-140.843
X115.064Y-123.063
X115.064Y-125.603
X115.524Y-107.823
X115.524Y-138.303
X117.604Y-54.483
X117.604Y-57.023
X117.604Y-123.063
X117.604Y-125.603
X117.604Y-138.303
X118.064Y-105.283
X118.064Y-107.823
X120.144Y-54.483
X120.144Y-57.023
X120.564Y-105.283
X120.564Y-107.823
X122.684Y-113.903
X122.684Y-115.743
X122.684Y-138.303
X122.964Y-107.823
X123.164Y-111.753
X125.094Y-113.903
X125.094Y-115.743
X125.224Y-123.063
X125.224Y-125.603
X125.224Y-138.303
X127.764Y-54.483
X127.764Y-57.023
X127.764Y-107.823
X127.764Y-123.063
X127.764Y-125.603
X127.764Y-138.303
X128.314Y-111.753
X130.304Y-54.483
X130.304Y-57.023
X130.764Y-107.823
X132.844Y-113.903
X132.844Y-115.743
X133.364Y-107.823
X133.364Y-111.753
X135.384Y-113.903
X135.384Y-115.743
X135.384Y-123.063
X135.384Y-125.603
X135.384Y-138.303
X135.884Y-107.823
X137.924Y-54.483
X137.924Y-57.023
X137.924Y-123.063
X137.924Y-125.603
X137.924Y-138.303
X139.664Y-105.283
X139.664Y-107.823
X140.464Y-54.483
X140.464Y-57.023
X140.464Y-138.303
X142.204Y-105.283
X142.204Y-107.823
X143.004Y-138.303
X145.544Y-107.823
X145.544Y-123.063
X145.544Y-125.603
X145.544Y-138.303
X148.036Y-130.608
X148.084Y-54.483
X148.084Y-57.023
X148.084Y-107.823
X148.084Y-123.063
X148.084Y-125.603
X148.084Y-138.303
X150.624Y-54.483
X150.624Y-57.023
X150.624Y-107.823
X150.624Y-138.303
X150.662Y-127.995
X150.712Y-130.848
X153.111Y-125.521
X153.164Y-107.823
X153.3Y-128.247
X155.652Y-123.046
X155.704Y-107.823
X155.704Y-138.303
X155.888Y-125.685
X158.244Y-54.483
X158.244Y-57.023
X158.244Y-107.823
X158.244Y-138.303
X160.784Y-54.483
X160.784Y-57.023
X160.784Y-107.823
X168.404Y-54.483
X168.404Y-57.023
X170.944Y-54.483
X170.944Y-57.023
X170.944Y-131.903
X173.954Y-129.133
X175.074Y-117.603
X176.024Y-135.763
X176.974Y-131.903
X178.564Y-54.483
X178.564Y-57.023
X180.154Y-131.903
X181.104Y-54.483
X181.104Y-57.023
X181.744Y-114.883
X182.214Y-129.133
X183.334Y-117.603
X184.284Y-114.883
X185.234Y-131.903
X185.234Y-135.763
X186.184Y-76.703
X186.3Y-116.4
X186.3Y-124.1
X187.781Y-116.883
X187.781Y-118.883
X187.781Y-123.903
X187.781Y-125.903
X187.781Y-127.903
X187.781Y-129.903
X188.724Y-72.263
X188.724Y-76.703
X188.724Y-82.423
X191.264Y-112.903
X191.264Y-123.063
X191.264Y-125.603
X191.264Y-133.223
X191.264Y-135.763
X191.307Y-115.389
X193.804Y-112.903
X193.804Y-115.443
X193.804Y-123.063
X193.804Y-125.603
X193.804Y-133.223
X193.804Y-135.763
T2
X105.514Y-54.853
X105.514Y-103.853
X105.514Y-143.953
X106.217Y-53.156
X106.217Y-56.55
X106.217Y-102.156
X106.217Y-105.55
X106.217Y-142.256
X106.217Y-145.65
X107.914Y-52.453
X107.914Y-57.253
X107.914Y-101.453
X107.914Y-106.253
X107.914Y-141.553
X107.914Y-146.353
X109.611Y-53.156
X109.611Y-56.55
X109.611Y-102.156
X109.611Y-105.55
X109.611Y-142.256
X109.611Y-145.65
X110.314Y-54.853
X110.314Y-103.853
X110.314Y-143.953
X188.814Y-54.853
X188.814Y-103.853
X188.814Y-143.953
X189.517Y-53.156
X189.517Y-56.55
X189.517Y-102.156
X189.517Y-105.55
X189.517Y-142.256
X189.517Y-145.65
X191.214Y-52.453
X191.214Y-57.253
X191.214Y-101.453
X191.214Y-106.253
X191.214Y-141.553
X191.214Y-146.353
X192.911Y-53.156
X192.911Y-56.55
X192.911Y-102.156
X192.911Y-105.55
X192.911Y-142.256
X192.911Y-145.65
X193.614Y-54.853
X193.614Y-103.853
X193.614Y-143.953
T3
X106.644Y-110.363
X106.644Y-135.703
X106.914Y-62.843
X106.914Y-65.383
X106.914Y-67.923
X106.914Y-70.463
X106.914Y-73.003
X106.914Y-75.543
X106.914Y-78.083
X106.914Y-80.623
X106.914Y-83.163
X106.914Y-85.703
X106.914Y-88.243
X106.914Y-90.783
X106.914Y-93.323
X106.914Y-95.863
X109.184Y-110.363
X109.184Y-135.703
X111.724Y-110.363
X111.724Y-135.703
X114.264Y-110.363
X114.264Y-135.703
X116.804Y-110.363
X116.804Y-135.703
X119.344Y-110.363
X119.344Y-135.703
X121.884Y-110.363
X121.884Y-135.703
X124.424Y-110.363
X124.424Y-135.703
X126.964Y-110.363
X126.964Y-135.703
X129.504Y-110.363
X129.504Y-135.703
X130.304Y-142.403
X132.044Y-110.363
X132.044Y-135.703
X132.844Y-142.403
X134.584Y-110.363
X134.584Y-135.703
X137.124Y-110.363
X137.124Y-135.703
X139.664Y-110.363
X139.664Y-135.703
X142.204Y-110.363
X142.204Y-135.703
X144.744Y-110.363
X144.744Y-135.703
X145.754Y-145.923
X147.284Y-110.363
X147.284Y-135.703
X148.294Y-145.923
X149.824Y-110.363
X149.824Y-135.703
X150.834Y-145.923
X152.364Y-110.363
X152.364Y-135.703
X153.374Y-145.923
X154.904Y-110.363
X154.904Y-135.703
X157.444Y-110.363
X157.444Y-135.703
X159.984Y-110.363
X159.984Y-135.703
X168.404Y-145.923
X170.944Y-145.923
X173.484Y-145.923
X178.564Y-145.923
X181.104Y-145.923
X183.644Y-145.923
X191.214Y-75.543
X191.214Y-78.083
X191.214Y-80.623
X191.214Y-83.163
T4
X107.914Y-54.853
X107.914Y-103.853
X107.914Y-143.953
X191.214Y-54.853
X191.214Y-103.853
X191.214Y-143.953
M30
